<?xml version="1.0" encoding="UTF-8" standalone="no"?>
<!DOCTYPE svg PUBLIC "-//W3C//DTD SVG 1.1//EN"
 "http://www.w3.org/Graphics/SVG/1.1/DTD/svg11.dtd">
<!-- Generated by graphviz version 2.40.1 (20161225.0304)
 -->
<!-- Title: orphans Pages: 1 -->
<svg width="353pt" height="282pt"
 viewBox="0.00 0.00 353.00 282.00" xmlns="http://www.w3.org/2000/svg" xmlns:xlink="http://www.w3.org/1999/xlink">
<g id="graph0" class="graph" transform="scale(1 1) rotate(0) translate(4 278)">
<title>orphans</title>
<polygon fill="#ffffff" stroke="transparent" points="-4,4 -4,-278 349,-278 349,4 -4,4"/>
<!-- resync_audit -->
<g id="node1" class="node">
<title>resync_audit</title>
<g id="a_node1"><a xlink:href="../../tables/resync_audit.html" xlink:title="resync_audit" target="_top">
<polygon fill="#ffffff" stroke="transparent" points="8,-4 8,-270 337,-270 337,-4 8,-4"/>
<polygon fill="#f5f5f5" stroke="transparent" points="10.5,-245 10.5,-268 335.5,-268 335.5,-245 10.5,-245"/>
<polygon fill="none" stroke="#000000" points="10.5,-245 10.5,-268 335.5,-268 335.5,-245 10.5,-245"/>
<text text-anchor="start" x="15.5" y="-253.6" font-family="Helvetica,sans-Serif" font-weight="bold" font-size="11.00" fill="#000000">resync_audit</text>
<text text-anchor="start" x="300.5437" y="-253.1" font-family="Helvetica,sans-Serif" font-size="11.00" fill="#000000">[table]</text>
<polygon fill="none" stroke="#000000" points="10.5,-223 10.5,-245 235.5,-245 235.5,-223 10.5,-223"/>
<image xlink:href="../../images/primaryKeys.png" width="11px" height="12px" preserveAspectRatio="xMinYMin meet" x="15.5" y="-240"/>
<text text-anchor="start" x="30.5" y="-230.1" font-family="Helvetica,sans-Serif" font-size="11.00" fill="#000000">id</text>
<polygon fill="none" stroke="#000000" points="235.5,-223 235.5,-245 335.5,-245 335.5,-223 235.5,-223"/>
<text text-anchor="start" x="238.5" y="-230.7" font-family="Helvetica,sans-Serif" font-size="11.00" fill="#000000">bigserial[19]</text>
<polygon fill="#ffffff" stroke="transparent" points="10.5,-201 10.5,-223 235.5,-223 235.5,-201 10.5,-201"/>
<polygon fill="none" stroke="#000000" points="10.5,-201 10.5,-223 235.5,-223 235.5,-201 10.5,-201"/>
<image xlink:href="../../images/foreignKeys.png" width="11px" height="12px" preserveAspectRatio="xMinYMin meet" x="15.5" y="-218"/>
<text text-anchor="start" x="30.5" y="-208.1" font-family="Helvetica,sans-Serif" font-size="11.00" fill="#000000">prison_number</text>
<polygon fill="none" stroke="#000000" points="235.5,-201 235.5,-223 335.5,-223 335.5,-201 235.5,-201"/>
<text text-anchor="start" x="238.5" y="-208.7" font-family="Helvetica,sans-Serif" font-size="11.00" fill="#000000">varchar[10]</text>
<polygon fill="none" stroke="#000000" points="10.5,-179 10.5,-201 235.5,-201 235.5,-179 10.5,-179"/>
<text text-anchor="start" x="30.5" y="-186.1" font-family="Helvetica,sans-Serif" font-size="11.00" fill="#000000">request</text>
<polygon fill="none" stroke="#000000" points="235.5,-179 235.5,-201 335.5,-201 335.5,-179 235.5,-179"/>
<text text-anchor="start" x="238.5" y="-186.7" font-family="Helvetica,sans-Serif" font-size="11.00" fill="#000000">jsonb[2147483647]</text>
<polygon fill="none" stroke="#000000" points="10.5,-157 10.5,-179 235.5,-179 235.5,-157 10.5,-157"/>
<text text-anchor="start" x="30.5" y="-164.1" font-family="Helvetica,sans-Serif" font-size="11.00" fill="#000000">requested_at</text>
<polygon fill="none" stroke="#000000" points="235.5,-157 235.5,-179 335.5,-179 335.5,-157 235.5,-157"/>
<text text-anchor="start" x="238.5" y="-164.7" font-family="Helvetica,sans-Serif" font-size="11.00" fill="#000000">timestamp[29,6]</text>
<polygon fill="none" stroke="#000000" points="10.5,-135 10.5,-157 235.5,-157 235.5,-135 10.5,-135"/>
<text text-anchor="start" x="30.5" y="-142.1" font-family="Helvetica,sans-Serif" font-size="11.00" fill="#000000">requested_by</text>
<polygon fill="none" stroke="#000000" points="235.5,-135 235.5,-157 335.5,-157 335.5,-135 235.5,-135"/>
<text text-anchor="start" x="238.5" y="-142.7" font-family="Helvetica,sans-Serif" font-size="11.00" fill="#000000">varchar[64]</text>
<polygon fill="none" stroke="#000000" points="10.5,-113 10.5,-135 235.5,-135 235.5,-113 10.5,-113"/>
<text text-anchor="start" x="30.5" y="-120.1" font-family="Helvetica,sans-Serif" font-size="11.00" fill="#000000">requested_by_display_name</text>
<polygon fill="none" stroke="#000000" points="235.5,-113 235.5,-135 335.5,-135 335.5,-113 235.5,-113"/>
<text text-anchor="start" x="238.5" y="-120.7" font-family="Helvetica,sans-Serif" font-size="11.00" fill="#000000">varchar[255]</text>
<polygon fill="none" stroke="#000000" points="10.5,-91 10.5,-113 235.5,-113 235.5,-91 10.5,-91"/>
<text text-anchor="start" x="30.5" y="-98.1" font-family="Helvetica,sans-Serif" font-size="11.00" fill="#000000">source</text>
<polygon fill="none" stroke="#000000" points="235.5,-91 235.5,-113 335.5,-113 335.5,-91 235.5,-91"/>
<text text-anchor="start" x="238.5" y="-98.7" font-family="Helvetica,sans-Serif" font-size="11.00" fill="#000000">varchar[12]</text>
<polygon fill="none" stroke="#000000" points="10.5,-69 10.5,-91 235.5,-91 235.5,-69 10.5,-69"/>
<text text-anchor="start" x="30.5" y="-76.1" font-family="Helvetica,sans-Serif" font-size="11.00" fill="#000000">completed_at</text>
<polygon fill="none" stroke="#000000" points="235.5,-69 235.5,-91 335.5,-91 335.5,-69 235.5,-69"/>
<text text-anchor="start" x="238.5" y="-76.7" font-family="Helvetica,sans-Serif" font-size="11.00" fill="#000000">timestamp[29,6]</text>
<polygon fill="none" stroke="#000000" points="10.5,-47 10.5,-69 235.5,-69 235.5,-47 10.5,-47"/>
<text text-anchor="start" x="30.5" y="-54.1" font-family="Helvetica,sans-Serif" font-size="11.00" fill="#000000">alerts_deleted</text>
<polygon fill="none" stroke="#000000" points="235.5,-47 235.5,-69 335.5,-69 335.5,-47 235.5,-47"/>
<text text-anchor="start" x="238.4183" y="-54.7" font-family="Helvetica,sans-Serif" font-size="11.00" fill="#000000">_uuid[2147483647]</text>
<polygon fill="none" stroke="#000000" points="10.5,-25 10.5,-47 235.5,-47 235.5,-25 10.5,-25"/>
<text text-anchor="start" x="30.5" y="-32.1" font-family="Helvetica,sans-Serif" font-size="11.00" fill="#000000">alerts_created</text>
<polygon fill="none" stroke="#000000" points="235.5,-25 235.5,-47 335.5,-47 335.5,-25 235.5,-25"/>
<text text-anchor="start" x="238.4183" y="-32.7" font-family="Helvetica,sans-Serif" font-size="11.00" fill="#000000">_uuid[2147483647]</text>
<polygon fill="#ffffff" stroke="transparent" points="10.5,-6 10.5,-25 335.5,-25 335.5,-6 10.5,-6"/>
<polygon fill="none" stroke="#000000" points="10.5,-6 10.5,-25 335.5,-25 335.5,-6 10.5,-6"/>
<polygon fill="#ffffff" stroke="transparent" points="11.5,-7 11.5,-24 122.5,-24 122.5,-7 11.5,-7"/>
<text text-anchor="start" x="13.5" y="-12.1" font-family="Helvetica,sans-Serif" font-size="11.00" fill="#000000">&lt; 0</text>
<polygon fill="#ffffff" stroke="transparent" points="122.5,-7 122.5,-24 224.5,-24 224.5,-7 122.5,-7"/>
<text text-anchor="start" x="170.4431" y="-12.1" font-family="Helvetica,sans-Serif" font-size="11.00" fill="#000000"> &#160;</text>
<polygon fill="#ffffff" stroke="transparent" points="224.5,-7 224.5,-24 334.5,-24 334.5,-7 224.5,-7"/>
<text text-anchor="start" x="316.9053" y="-12.1" font-family="Helvetica,sans-Serif" font-size="11.00" fill="#000000">0 &gt;</text>
<polygon fill="#000000" stroke="#000000" points="122.5,-7 122.5,-24 122.5,-24 122.5,-7 122.5,-7"/>
<polygon fill="#000000" stroke="#000000" points="224.5,-7 224.5,-24 224.5,-24 224.5,-7 224.5,-7"/>
<polygon fill="none" stroke="#000000" stroke-width="2" points="9,-5 9,-269 336,-269 336,-5 9,-5"/>
</a>
</g>
</g>
</g>
</svg>
