<?xml version="1.0" encoding="UTF-8" standalone="no"?>
<!DOCTYPE svg PUBLIC "-//W3C//DTD SVG 1.1//EN"
 "http://www.w3.org/Graphics/SVG/1.1/DTD/svg11.dtd">
<!-- Generated by graphviz version 2.40.1 (20161225.0304)
 -->
<!-- Title: largeRelationshipsDiagram Pages: 1 -->
<svg width="882pt" height="1354pt"
 viewBox="0.00 0.00 882.00 1354.20" xmlns="http://www.w3.org/2000/svg" xmlns:xlink="http://www.w3.org/1999/xlink">
<g id="graph0" class="graph" transform="scale(1 1) rotate(0) translate(4 1350.2)">
<title>largeRelationshipsDiagram</title>
<polygon fill="#ffffff" stroke="transparent" points="-4,4 -4,-1350.2 878,-1350.2 878,4 -4,4"/>
<text text-anchor="middle" x="72.4936" y="-7.3" font-family="Helvetica,sans-Serif" font-size="11.00" fill="#000000">Generated by SchemaSpy</text>
<!-- resync_audit -->
<g id="node1" class="node">
<title>resync_audit</title>
<g id="a_node1"><a xlink:href="../../tables/resync_audit.html" xlink:title="resync_audit" target="_top">
<polygon fill="#ffffff" stroke="transparent" points="598,-687.2 598,-949.2 823,-949.2 823,-687.2 598,-687.2"/>
<polygon fill="#f5f5f5" stroke="transparent" points="598.5,-926.2 598.5,-949.2 823.5,-949.2 823.5,-926.2 598.5,-926.2"/>
<polygon fill="none" stroke="#000000" points="598.5,-926.2 598.5,-949.2 823.5,-949.2 823.5,-926.2 598.5,-926.2"/>
<text text-anchor="start" x="603.5" y="-934.8" font-family="Helvetica,sans-Serif" font-weight="bold" font-size="11.00" fill="#000000">resync_audit</text>
<text text-anchor="start" x="788.5437" y="-934.3" font-family="Helvetica,sans-Serif" font-size="11.00" fill="#000000">[table]</text>
<polygon fill="none" stroke="#000000" points="598.5,-904.2 598.5,-926.2 823.5,-926.2 823.5,-904.2 598.5,-904.2"/>
<image xlink:href="../../images/primaryKeys.png" width="11px" height="12px" preserveAspectRatio="xMinYMin meet" x="603.5" y="-921.2"/>
<text text-anchor="start" x="618.5" y="-911.3" font-family="Helvetica,sans-Serif" font-size="11.00" fill="#000000">id</text>
<polygon fill="#ffffff" stroke="transparent" points="598.5,-882.2 598.5,-904.2 823.5,-904.2 823.5,-882.2 598.5,-882.2"/>
<polygon fill="none" stroke="#000000" points="598.5,-882.2 598.5,-904.2 823.5,-904.2 823.5,-882.2 598.5,-882.2"/>
<image xlink:href="../../images/foreignKeys.png" width="11px" height="12px" preserveAspectRatio="xMinYMin meet" x="603.5" y="-899.2"/>
<text text-anchor="start" x="618.5" y="-889.3" font-family="Helvetica,sans-Serif" font-size="11.00" fill="#000000">prison_number</text>
<polygon fill="none" stroke="#000000" points="598.5,-860.2 598.5,-882.2 823.5,-882.2 823.5,-860.2 598.5,-860.2"/>
<text text-anchor="start" x="618.5" y="-867.3" font-family="Helvetica,sans-Serif" font-size="11.00" fill="#000000">request</text>
<polygon fill="none" stroke="#000000" points="598.5,-838.2 598.5,-860.2 823.5,-860.2 823.5,-838.2 598.5,-838.2"/>
<text text-anchor="start" x="618.5" y="-845.3" font-family="Helvetica,sans-Serif" font-size="11.00" fill="#000000">requested_at</text>
<polygon fill="none" stroke="#000000" points="598.5,-816.2 598.5,-838.2 823.5,-838.2 823.5,-816.2 598.5,-816.2"/>
<text text-anchor="start" x="618.5" y="-823.3" font-family="Helvetica,sans-Serif" font-size="11.00" fill="#000000">requested_by</text>
<polygon fill="none" stroke="#000000" points="598.5,-794.2 598.5,-816.2 823.5,-816.2 823.5,-794.2 598.5,-794.2"/>
<text text-anchor="start" x="618.5" y="-801.3" font-family="Helvetica,sans-Serif" font-size="11.00" fill="#000000">requested_by_display_name</text>
<polygon fill="none" stroke="#000000" points="598.5,-772.2 598.5,-794.2 823.5,-794.2 823.5,-772.2 598.5,-772.2"/>
<text text-anchor="start" x="618.5" y="-779.3" font-family="Helvetica,sans-Serif" font-size="11.00" fill="#000000">source</text>
<polygon fill="none" stroke="#000000" points="598.5,-750.2 598.5,-772.2 823.5,-772.2 823.5,-750.2 598.5,-750.2"/>
<text text-anchor="start" x="618.5" y="-757.3" font-family="Helvetica,sans-Serif" font-size="11.00" fill="#000000">completed_at</text>
<polygon fill="none" stroke="#000000" points="598.5,-728.2 598.5,-750.2 823.5,-750.2 823.5,-728.2 598.5,-728.2"/>
<text text-anchor="start" x="618.5" y="-735.3" font-family="Helvetica,sans-Serif" font-size="11.00" fill="#000000">alerts_deleted</text>
<polygon fill="none" stroke="#000000" points="598.5,-706.2 598.5,-728.2 823.5,-728.2 823.5,-706.2 598.5,-706.2"/>
<text text-anchor="start" x="618.5" y="-713.3" font-family="Helvetica,sans-Serif" font-size="11.00" fill="#000000">alerts_created</text>
<polygon fill="#ffffff" stroke="transparent" points="598.5,-687.2 598.5,-706.2 823.5,-706.2 823.5,-687.2 598.5,-687.2"/>
<polygon fill="none" stroke="#000000" points="598.5,-687.2 598.5,-706.2 823.5,-706.2 823.5,-687.2 598.5,-687.2"/>
<polygon fill="#ffffff" stroke="transparent" points="599.5,-688.2 599.5,-705.2 674.5,-705.2 674.5,-688.2 599.5,-688.2"/>
<text text-anchor="start" x="601.5" y="-693.3" font-family="Helvetica,sans-Serif" font-size="11.00" fill="#000000"> &#160;</text>
<polygon fill="#ffffff" stroke="transparent" points="674.5,-688.2 674.5,-705.2 748.5,-705.2 748.5,-688.2 674.5,-688.2"/>
<text text-anchor="start" x="708.4431" y="-693.3" font-family="Helvetica,sans-Serif" font-size="11.00" fill="#000000"> &#160;</text>
<polygon fill="#ffffff" stroke="transparent" points="748.5,-688.2 748.5,-705.2 822.5,-705.2 822.5,-688.2 748.5,-688.2"/>
<text text-anchor="start" x="814.3862" y="-693.3" font-family="Helvetica,sans-Serif" font-size="11.00" fill="#000000"> &#160;</text>
<polygon fill="#000000" stroke="#000000" points="674.5,-688.2 674.5,-705.2 674.5,-705.2 674.5,-688.2 674.5,-688.2"/>
<polygon fill="#000000" stroke="#000000" points="748.5,-688.2 748.5,-705.2 748.5,-705.2 748.5,-688.2 748.5,-688.2"/>
</a>
</g>
</g>
<!-- alert_code_privileged_user -->
<g id="node2" class="node">
<title>alert_code_privileged_user</title>
<g id="a_node2"><a xlink:href="../../tables/alert_code_privileged_user.html" xlink:title="alert_code_privileged_user" target="_top">
<polygon fill="#ffffff" stroke="transparent" points="370,-365.2 370,-451.2 603,-451.2 603,-365.2 370,-365.2"/>
<polygon fill="#f5f5f5" stroke="transparent" points="370.5,-428.2 370.5,-451.2 603.5,-451.2 603.5,-428.2 370.5,-428.2"/>
<polygon fill="none" stroke="#000000" points="370.5,-428.2 370.5,-451.2 603.5,-451.2 603.5,-428.2 370.5,-428.2"/>
<text text-anchor="start" x="375.5" y="-436.8" font-family="Helvetica,sans-Serif" font-weight="bold" font-size="11.00" fill="#000000">alert_code_privileged_user</text>
<text text-anchor="start" x="569.0219" y="-436.3" font-family="Helvetica,sans-Serif" font-size="11.00" fill="#000000">[table]</text>
<polygon fill="none" stroke="#000000" points="370.5,-406.2 370.5,-428.2 603.5,-428.2 603.5,-406.2 370.5,-406.2"/>
<image xlink:href="../../images/primaryKeys.png" width="11px" height="12px" preserveAspectRatio="xMinYMin meet" x="375.5" y="-423.2"/>
<text text-anchor="start" x="399.5" y="-413.3" font-family="Helvetica,sans-Serif" font-size="11.00" fill="#000000">alert_code_id</text>
<polygon fill="none" stroke="#000000" points="370.5,-384.2 370.5,-406.2 603.5,-406.2 603.5,-384.2 370.5,-384.2"/>
<image xlink:href="../../images/primaryKeys.png" width="11px" height="12px" preserveAspectRatio="xMinYMin meet" x="375.5" y="-401.2"/>
<text text-anchor="start" x="399.5" y="-391.3" font-family="Helvetica,sans-Serif" font-size="11.00" fill="#000000">username</text>
<polygon fill="#ffffff" stroke="transparent" points="370.5,-365.2 370.5,-384.2 603.5,-384.2 603.5,-365.2 370.5,-365.2"/>
<polygon fill="none" stroke="#000000" points="370.5,-365.2 370.5,-384.2 603.5,-384.2 603.5,-365.2 370.5,-365.2"/>
<polygon fill="#ffffff" stroke="transparent" points="371.5,-366.2 371.5,-383.2 454.5,-383.2 454.5,-366.2 371.5,-366.2"/>
<text text-anchor="start" x="373.5" y="-371.3" font-family="Helvetica,sans-Serif" font-size="11.00" fill="#000000">&lt; 1</text>
<polygon fill="#ffffff" stroke="transparent" points="454.5,-366.2 454.5,-383.2 528.5,-383.2 528.5,-366.2 454.5,-366.2"/>
<text text-anchor="start" x="488.4431" y="-371.3" font-family="Helvetica,sans-Serif" font-size="11.00" fill="#000000"> &#160;</text>
<polygon fill="#ffffff" stroke="transparent" points="528.5,-366.2 528.5,-383.2 602.5,-383.2 602.5,-366.2 528.5,-366.2"/>
<text text-anchor="start" x="594.3862" y="-371.3" font-family="Helvetica,sans-Serif" font-size="11.00" fill="#000000"> &#160;</text>
<polygon fill="#000000" stroke="#000000" points="454.5,-366.2 454.5,-383.2 454.5,-383.2 454.5,-366.2 454.5,-366.2"/>
<polygon fill="#000000" stroke="#000000" points="528.5,-366.2 528.5,-383.2 528.5,-383.2 528.5,-366.2 528.5,-366.2"/>
</a>
</g>
</g>
<!-- alert_code -->
<g id="node4" class="node">
<title>alert_code</title>
<g id="a_node4"><a xlink:href="../../tables/alert_code.html" xlink:title="alert_code" target="_top">
<polygon fill="#ffffff" stroke="transparent" points="189,-80.2 189,-386.2 321,-386.2 321,-80.2 189,-80.2"/>
<polygon fill="#f5f5f5" stroke="transparent" points="189,-363.2 189,-386.2 321,-386.2 321,-363.2 189,-363.2"/>
<polygon fill="none" stroke="#000000" points="189,-363.2 189,-386.2 321,-386.2 321,-363.2 189,-363.2"/>
<text text-anchor="start" x="194" y="-371.8" font-family="Helvetica,sans-Serif" font-weight="bold" font-size="11.00" fill="#000000">alert_code</text>
<text text-anchor="start" x="286.0437" y="-371.3" font-family="Helvetica,sans-Serif" font-size="11.00" fill="#000000">[table]</text>
<polygon fill="none" stroke="#000000" points="189,-341.2 189,-363.2 321,-363.2 321,-341.2 189,-341.2"/>
<image xlink:href="../../images/primaryKeys.png" width="11px" height="12px" preserveAspectRatio="xMinYMin meet" x="194" y="-358.2"/>
<text text-anchor="start" x="209" y="-348.3" font-family="Helvetica,sans-Serif" font-size="11.00" fill="#000000">alert_code_id</text>
<polygon fill="#ffffff" stroke="transparent" points="189,-319.2 189,-341.2 321,-341.2 321,-319.2 189,-319.2"/>
<polygon fill="none" stroke="#000000" points="189,-319.2 189,-341.2 321,-341.2 321,-319.2 189,-319.2"/>
<image xlink:href="../../images/foreignKeys.png" width="11px" height="12px" preserveAspectRatio="xMinYMin meet" x="194" y="-336.2"/>
<text text-anchor="start" x="209" y="-326.3" font-family="Helvetica,sans-Serif" font-size="11.00" fill="#000000">alert_type_id</text>
<polygon fill="#ffffff" stroke="transparent" points="189,-297.2 189,-319.2 321,-319.2 321,-297.2 189,-297.2"/>
<polygon fill="none" stroke="#000000" points="189,-297.2 189,-319.2 321,-319.2 321,-297.2 189,-297.2"/>
<text text-anchor="start" x="209" y="-304.3" font-family="Helvetica,sans-Serif" font-size="11.00" fill="#000000">code</text>
<polygon fill="none" stroke="#000000" points="189,-275.2 189,-297.2 321,-297.2 321,-275.2 189,-275.2"/>
<text text-anchor="start" x="209" y="-282.3" font-family="Helvetica,sans-Serif" font-size="11.00" fill="#000000">description</text>
<polygon fill="#ffffff" stroke="transparent" points="189,-253.2 189,-275.2 321,-275.2 321,-253.2 189,-253.2"/>
<polygon fill="none" stroke="#000000" points="189,-253.2 189,-275.2 321,-275.2 321,-253.2 189,-253.2"/>
<text text-anchor="start" x="209" y="-260.3" font-family="Helvetica,sans-Serif" font-size="11.00" fill="#000000">list_sequence</text>
<polygon fill="#ffffff" stroke="transparent" points="189,-231.2 189,-253.2 321,-253.2 321,-231.2 189,-231.2"/>
<polygon fill="none" stroke="#000000" points="189,-231.2 189,-253.2 321,-253.2 321,-231.2 189,-231.2"/>
<text text-anchor="start" x="209" y="-238.3" font-family="Helvetica,sans-Serif" font-size="11.00" fill="#000000">created_at</text>
<polygon fill="none" stroke="#000000" points="189,-209.2 189,-231.2 321,-231.2 321,-209.2 189,-209.2"/>
<text text-anchor="start" x="209" y="-216.3" font-family="Helvetica,sans-Serif" font-size="11.00" fill="#000000">created_by</text>
<polygon fill="none" stroke="#000000" points="189,-187.2 189,-209.2 321,-209.2 321,-187.2 189,-187.2"/>
<text text-anchor="start" x="209" y="-194.3" font-family="Helvetica,sans-Serif" font-size="11.00" fill="#000000">modified_at</text>
<polygon fill="none" stroke="#000000" points="189,-165.2 189,-187.2 321,-187.2 321,-165.2 189,-165.2"/>
<text text-anchor="start" x="209" y="-172.3" font-family="Helvetica,sans-Serif" font-size="11.00" fill="#000000">modified_by</text>
<polygon fill="#ffffff" stroke="transparent" points="189,-143.2 189,-165.2 321,-165.2 321,-143.2 189,-143.2"/>
<polygon fill="none" stroke="#000000" points="189,-143.2 189,-165.2 321,-165.2 321,-143.2 189,-143.2"/>
<text text-anchor="start" x="209" y="-150.3" font-family="Helvetica,sans-Serif" font-size="11.00" fill="#000000">deactivated_at</text>
<polygon fill="none" stroke="#000000" points="189,-121.2 189,-143.2 321,-143.2 321,-121.2 189,-121.2"/>
<text text-anchor="start" x="209" y="-128.3" font-family="Helvetica,sans-Serif" font-size="11.00" fill="#000000">deactivated_by</text>
<polygon fill="none" stroke="#000000" points="189,-99.2 189,-121.2 321,-121.2 321,-99.2 189,-99.2"/>
<text text-anchor="start" x="209" y="-106.3" font-family="Helvetica,sans-Serif" font-size="11.00" fill="#000000">restricted</text>
<polygon fill="#ffffff" stroke="transparent" points="189,-80.2 189,-99.2 321,-99.2 321,-80.2 189,-80.2"/>
<polygon fill="none" stroke="#000000" points="189,-80.2 189,-99.2 321,-99.2 321,-80.2 189,-80.2"/>
<polygon fill="#ffffff" stroke="transparent" points="190,-81.2 190,-98.2 237,-98.2 237,-81.2 190,-81.2"/>
<text text-anchor="start" x="192" y="-86.3" font-family="Helvetica,sans-Serif" font-size="11.00" fill="#000000">&lt; 1</text>
<polygon fill="#ffffff" stroke="transparent" points="237,-81.2 237,-98.2 274,-98.2 274,-81.2 237,-81.2"/>
<text text-anchor="start" x="252.4431" y="-86.3" font-family="Helvetica,sans-Serif" font-size="11.00" fill="#000000"> &#160;</text>
<polygon fill="#ffffff" stroke="transparent" points="274,-81.2 274,-98.2 320,-98.2 320,-81.2 274,-81.2"/>
<text text-anchor="start" x="302.4053" y="-86.3" font-family="Helvetica,sans-Serif" font-size="11.00" fill="#000000">2 &gt;</text>
<polygon fill="#000000" stroke="#000000" points="237,-81.2 237,-98.2 237,-98.2 237,-81.2 237,-81.2"/>
<polygon fill="#000000" stroke="#000000" points="274,-81.2 274,-98.2 274,-98.2 274,-81.2 274,-81.2"/>
</a>
</g>
</g>
<!-- alert_code_privileged_user&#45;&gt;alert_code -->
<g id="edge3" class="edge">
<title>alert_code_privileged_user:w&#45;&gt;alert_code:e</title>
<path fill="none" stroke="#000000" d="M356.4404,-412.0996C340.381,-396.7764 351.0709,-352.2 321,-352.2"/>
<polygon fill="#000000" stroke="#000000" points="362.9796,-414.4717 369.2723,-420.5842 366.7398,-415.8359 370.5,-417.2 370.5,-417.2 370.5,-417.2 366.7398,-415.8359 371.7277,-413.8158 362.9796,-414.4717 362.9796,-414.4717"/>
<ellipse fill="none" stroke="#000000" cx="359.9714" cy="-413.3804" rx="3.2" ry="3.2"/>
</g>
<!-- audit_event -->
<g id="node3" class="node">
<title>audit_event</title>
<g id="a_node3"><a xlink:href="../../tables/audit_event.html" xlink:title="audit_event" target="_top">
<polygon fill="#ffffff" stroke="transparent" points="652,-236.2 652,-586.2 866,-586.2 866,-236.2 652,-236.2"/>
<polygon fill="#f5f5f5" stroke="transparent" points="652,-563.2 652,-586.2 866,-586.2 866,-563.2 652,-563.2"/>
<polygon fill="none" stroke="#000000" points="652,-563.2 652,-586.2 866,-586.2 866,-563.2 652,-563.2"/>
<text text-anchor="start" x="657" y="-571.8" font-family="Helvetica,sans-Serif" font-weight="bold" font-size="11.00" fill="#000000">audit_event</text>
<text text-anchor="start" x="831.0437" y="-571.3" font-family="Helvetica,sans-Serif" font-size="11.00" fill="#000000">[table]</text>
<polygon fill="#ffffff" stroke="transparent" points="652,-541.2 652,-563.2 866,-563.2 866,-541.2 652,-541.2"/>
<polygon fill="none" stroke="#000000" points="652,-541.2 652,-563.2 866,-563.2 866,-541.2 652,-541.2"/>
<text text-anchor="start" x="672" y="-548.3" font-family="Helvetica,sans-Serif" font-size="11.00" fill="#000000">action</text>
<polygon fill="none" stroke="#000000" points="652,-519.2 652,-541.2 866,-541.2 866,-519.2 652,-519.2"/>
<text text-anchor="start" x="672" y="-526.3" font-family="Helvetica,sans-Serif" font-size="11.00" fill="#000000">description</text>
<polygon fill="#ffffff" stroke="transparent" points="652,-497.2 652,-519.2 866,-519.2 866,-497.2 652,-497.2"/>
<polygon fill="none" stroke="#000000" points="652,-497.2 652,-519.2 866,-519.2 866,-497.2 652,-497.2"/>
<text text-anchor="start" x="672" y="-504.3" font-family="Helvetica,sans-Serif" font-size="11.00" fill="#000000">actioned_at</text>
<polygon fill="#ffffff" stroke="transparent" points="652,-475.2 652,-497.2 866,-497.2 866,-475.2 652,-475.2"/>
<polygon fill="none" stroke="#000000" points="652,-475.2 652,-497.2 866,-497.2 866,-475.2 652,-475.2"/>
<text text-anchor="start" x="672" y="-482.3" font-family="Helvetica,sans-Serif" font-size="11.00" fill="#000000">actioned_by</text>
<polygon fill="none" stroke="#000000" points="652,-453.2 652,-475.2 866,-475.2 866,-453.2 652,-453.2"/>
<text text-anchor="start" x="672" y="-460.3" font-family="Helvetica,sans-Serif" font-size="11.00" fill="#000000">actioned_by_display_name</text>
<polygon fill="none" stroke="#000000" points="652,-431.2 652,-453.2 866,-453.2 866,-431.2 652,-431.2"/>
<text text-anchor="start" x="672" y="-438.3" font-family="Helvetica,sans-Serif" font-size="11.00" fill="#000000">source</text>
<polygon fill="none" stroke="#000000" points="652,-409.2 652,-431.2 866,-431.2 866,-409.2 652,-409.2"/>
<text text-anchor="start" x="672" y="-416.3" font-family="Helvetica,sans-Serif" font-size="11.00" fill="#000000">active_case_load_id</text>
<polygon fill="none" stroke="#000000" points="652,-387.2 652,-409.2 866,-409.2 866,-387.2 652,-387.2"/>
<text text-anchor="start" x="672" y="-394.3" font-family="Helvetica,sans-Serif" font-size="11.00" fill="#000000">description_updated</text>
<polygon fill="none" stroke="#000000" points="652,-365.2 652,-387.2 866,-387.2 866,-365.2 652,-365.2"/>
<text text-anchor="start" x="672" y="-372.3" font-family="Helvetica,sans-Serif" font-size="11.00" fill="#000000">authorised_by_updated</text>
<polygon fill="none" stroke="#000000" points="652,-343.2 652,-365.2 866,-365.2 866,-343.2 652,-343.2"/>
<text text-anchor="start" x="672" y="-350.3" font-family="Helvetica,sans-Serif" font-size="11.00" fill="#000000">active_from_updated</text>
<polygon fill="none" stroke="#000000" points="652,-321.2 652,-343.2 866,-343.2 866,-321.2 652,-321.2"/>
<text text-anchor="start" x="672" y="-328.3" font-family="Helvetica,sans-Serif" font-size="11.00" fill="#000000">active_to_updated</text>
<polygon fill="#ffffff" stroke="transparent" points="652,-299.2 652,-321.2 866,-321.2 866,-299.2 652,-299.2"/>
<polygon fill="none" stroke="#000000" points="652,-299.2 652,-321.2 866,-321.2 866,-299.2 652,-299.2"/>
<image xlink:href="../../images/foreignKeys.png" width="11px" height="12px" preserveAspectRatio="xMinYMin meet" x="657" y="-316.2"/>
<text text-anchor="start" x="672" y="-306.3" font-family="Helvetica,sans-Serif" font-size="11.00" fill="#000000">alert_id</text>
<polygon fill="none" stroke="#000000" points="652,-277.2 652,-299.2 866,-299.2 866,-277.2 652,-277.2"/>
<text text-anchor="start" x="672" y="-284.3" font-family="Helvetica,sans-Serif" font-size="11.00" fill="#000000">version</text>
<polygon fill="none" stroke="#000000" points="652,-255.2 652,-277.2 866,-277.2 866,-255.2 652,-255.2"/>
<image xlink:href="../../images/primaryKeys.png" width="11px" height="12px" preserveAspectRatio="xMinYMin meet" x="657" y="-272.2"/>
<text text-anchor="start" x="672" y="-262.3" font-family="Helvetica,sans-Serif" font-size="11.00" fill="#000000">id</text>
<polygon fill="#ffffff" stroke="transparent" points="652,-236.2 652,-255.2 866,-255.2 866,-236.2 652,-236.2"/>
<polygon fill="none" stroke="#000000" points="652,-236.2 652,-255.2 866,-255.2 866,-236.2 652,-236.2"/>
<polygon fill="#ffffff" stroke="transparent" points="653,-237.2 653,-254.2 730,-254.2 730,-237.2 653,-237.2"/>
<text text-anchor="start" x="655" y="-242.3" font-family="Helvetica,sans-Serif" font-size="11.00" fill="#000000">&lt; 1</text>
<polygon fill="#ffffff" stroke="transparent" points="730,-237.2 730,-254.2 798,-254.2 798,-237.2 730,-237.2"/>
<text text-anchor="start" x="760.9431" y="-242.3" font-family="Helvetica,sans-Serif" font-size="11.00" fill="#000000"> &#160;</text>
<polygon fill="#ffffff" stroke="transparent" points="798,-237.2 798,-254.2 865,-254.2 865,-237.2 798,-237.2"/>
<text text-anchor="start" x="856.8862" y="-242.3" font-family="Helvetica,sans-Serif" font-size="11.00" fill="#000000"> &#160;</text>
<polygon fill="#000000" stroke="#000000" points="730,-237.2 730,-254.2 730,-254.2 730,-237.2 730,-237.2"/>
<polygon fill="#000000" stroke="#000000" points="798,-237.2 798,-254.2 798,-254.2 798,-237.2 798,-237.2"/>
</a>
</g>
</g>
<!-- alert -->
<g id="node5" class="node">
<title>alert</title>
<g id="a_node5"><a xlink:href="../../tables/alert.html" xlink:title="alert" target="_top">
<polygon fill="#ffffff" stroke="transparent" points="378.5,-38.2 378.5,-344.2 594.5,-344.2 594.5,-38.2 378.5,-38.2"/>
<polygon fill="#f5f5f5" stroke="transparent" points="378.5,-321.2 378.5,-344.2 594.5,-344.2 594.5,-321.2 378.5,-321.2"/>
<polygon fill="none" stroke="#000000" points="378.5,-321.2 378.5,-344.2 594.5,-344.2 594.5,-321.2 378.5,-321.2"/>
<text text-anchor="start" x="383.5" y="-329.8" font-family="Helvetica,sans-Serif" font-weight="bold" font-size="11.00" fill="#000000">alert</text>
<text text-anchor="start" x="559.5437" y="-329.3" font-family="Helvetica,sans-Serif" font-size="11.00" fill="#000000">[table]</text>
<polygon fill="none" stroke="#000000" points="378.5,-299.2 378.5,-321.2 594.5,-321.2 594.5,-299.2 378.5,-299.2"/>
<image xlink:href="../../images/primaryKeys.png" width="11px" height="12px" preserveAspectRatio="xMinYMin meet" x="383.5" y="-316.2"/>
<text text-anchor="start" x="398.5" y="-306.3" font-family="Helvetica,sans-Serif" font-size="11.00" fill="#000000">id</text>
<polygon fill="#ffffff" stroke="transparent" points="378.5,-277.2 378.5,-299.2 594.5,-299.2 594.5,-277.2 378.5,-277.2"/>
<polygon fill="none" stroke="#000000" points="378.5,-277.2 378.5,-299.2 594.5,-299.2 594.5,-277.2 378.5,-277.2"/>
<image xlink:href="../../images/foreignKeys.png" width="11px" height="12px" preserveAspectRatio="xMinYMin meet" x="383.5" y="-294.2"/>
<text text-anchor="start" x="398.5" y="-284.3" font-family="Helvetica,sans-Serif" font-size="11.00" fill="#000000">alert_code_id</text>
<polygon fill="#ffffff" stroke="transparent" points="378.5,-255.2 378.5,-277.2 594.5,-277.2 594.5,-255.2 378.5,-255.2"/>
<polygon fill="none" stroke="#000000" points="378.5,-255.2 378.5,-277.2 594.5,-277.2 594.5,-255.2 378.5,-255.2"/>
<image xlink:href="../../images/foreignKeys.png" width="11px" height="12px" preserveAspectRatio="xMinYMin meet" x="383.5" y="-272.2"/>
<text text-anchor="start" x="398.5" y="-262.3" font-family="Helvetica,sans-Serif" font-size="11.00" fill="#000000">prison_number</text>
<polygon fill="none" stroke="#000000" points="378.5,-233.2 378.5,-255.2 594.5,-255.2 594.5,-233.2 378.5,-233.2"/>
<text text-anchor="start" x="398.5" y="-240.3" font-family="Helvetica,sans-Serif" font-size="11.00" fill="#000000">description</text>
<polygon fill="none" stroke="#000000" points="378.5,-211.2 378.5,-233.2 594.5,-233.2 594.5,-211.2 378.5,-211.2"/>
<text text-anchor="start" x="398.5" y="-218.3" font-family="Helvetica,sans-Serif" font-size="11.00" fill="#000000">authorised_by</text>
<polygon fill="#ffffff" stroke="transparent" points="378.5,-189.2 378.5,-211.2 594.5,-211.2 594.5,-189.2 378.5,-189.2"/>
<polygon fill="none" stroke="#000000" points="378.5,-189.2 378.5,-211.2 594.5,-211.2 594.5,-189.2 378.5,-189.2"/>
<text text-anchor="start" x="398.5" y="-196.3" font-family="Helvetica,sans-Serif" font-size="11.00" fill="#000000">active_from</text>
<polygon fill="#ffffff" stroke="transparent" points="378.5,-167.2 378.5,-189.2 594.5,-189.2 594.5,-167.2 378.5,-167.2"/>
<polygon fill="none" stroke="#000000" points="378.5,-167.2 378.5,-189.2 594.5,-189.2 594.5,-167.2 378.5,-167.2"/>
<text text-anchor="start" x="398.5" y="-174.3" font-family="Helvetica,sans-Serif" font-size="11.00" fill="#000000">active_to</text>
<polygon fill="#ffffff" stroke="transparent" points="378.5,-145.2 378.5,-167.2 594.5,-167.2 594.5,-145.2 378.5,-145.2"/>
<polygon fill="none" stroke="#000000" points="378.5,-145.2 378.5,-167.2 594.5,-167.2 594.5,-145.2 378.5,-145.2"/>
<text text-anchor="start" x="398.5" y="-152.3" font-family="Helvetica,sans-Serif" font-size="11.00" fill="#000000">deleted_at</text>
<polygon fill="#ffffff" stroke="transparent" points="378.5,-123.2 378.5,-145.2 594.5,-145.2 594.5,-123.2 378.5,-123.2"/>
<polygon fill="none" stroke="#000000" points="378.5,-123.2 378.5,-145.2 594.5,-145.2 594.5,-123.2 378.5,-123.2"/>
<text text-anchor="start" x="398.5" y="-130.3" font-family="Helvetica,sans-Serif" font-size="11.00" fill="#000000">created_at</text>
<polygon fill="#ffffff" stroke="transparent" points="378.5,-101.2 378.5,-123.2 594.5,-123.2 594.5,-101.2 378.5,-101.2"/>
<polygon fill="none" stroke="#000000" points="378.5,-101.2 378.5,-123.2 594.5,-123.2 594.5,-101.2 378.5,-101.2"/>
<text text-anchor="start" x="398.5" y="-108.3" font-family="Helvetica,sans-Serif" font-size="11.00" fill="#000000">last_modified_at</text>
<polygon fill="none" stroke="#000000" points="378.5,-79.2 378.5,-101.2 594.5,-101.2 594.5,-79.2 378.5,-79.2"/>
<text text-anchor="start" x="398.5" y="-86.3" font-family="Helvetica,sans-Serif" font-size="11.00" fill="#000000">prison_code_when_created</text>
<polygon fill="none" stroke="#000000" points="378.5,-57.2 378.5,-79.2 594.5,-79.2 594.5,-57.2 378.5,-57.2"/>
<text text-anchor="start" x="398.5" y="-64.3" font-family="Helvetica,sans-Serif" font-size="11.00" fill="#000000">version</text>
<polygon fill="#ffffff" stroke="transparent" points="378.5,-38.2 378.5,-57.2 594.5,-57.2 594.5,-38.2 378.5,-38.2"/>
<polygon fill="none" stroke="#000000" points="378.5,-38.2 378.5,-57.2 594.5,-57.2 594.5,-38.2 378.5,-38.2"/>
<polygon fill="#ffffff" stroke="transparent" points="379.5,-39.2 379.5,-56.2 454.5,-56.2 454.5,-39.2 379.5,-39.2"/>
<text text-anchor="start" x="381.5" y="-44.3" font-family="Helvetica,sans-Serif" font-size="11.00" fill="#000000">&lt; 1</text>
<polygon fill="#ffffff" stroke="transparent" points="454.5,-39.2 454.5,-56.2 519.5,-56.2 519.5,-39.2 454.5,-39.2"/>
<text text-anchor="start" x="483.9431" y="-44.3" font-family="Helvetica,sans-Serif" font-size="11.00" fill="#000000"> &#160;</text>
<polygon fill="#ffffff" stroke="transparent" points="519.5,-39.2 519.5,-56.2 593.5,-56.2 593.5,-39.2 519.5,-39.2"/>
<text text-anchor="start" x="575.9053" y="-44.3" font-family="Helvetica,sans-Serif" font-size="11.00" fill="#000000">1 &gt;</text>
<polygon fill="#000000" stroke="#000000" points="454.5,-39.2 454.5,-56.2 454.5,-56.2 454.5,-39.2 454.5,-39.2"/>
<polygon fill="#000000" stroke="#000000" points="519.5,-39.2 519.5,-56.2 519.5,-56.2 519.5,-39.2 519.5,-39.2"/>
</a>
</g>
</g>
<!-- audit_event&#45;&gt;alert -->
<g id="edge4" class="edge">
<title>audit_event:w&#45;&gt;alert:e</title>
<path fill="none" stroke="#000000" d="M637.5794,-310.2C622.7322,-310.2 614.4653,-310.2 594.5,-310.2"/>
<polygon fill="#000000" stroke="#000000" points="644,-310.2001 652,-313.8 648,-310.2 652,-310.2 652,-310.2 652,-310.2 648,-310.2 652,-306.6 644,-310.2001 644,-310.2001"/>
<ellipse fill="none" stroke="#000000" cx="640.8" cy="-310.2001" rx="3.2" ry="3.2"/>
</g>
<!-- alert_type -->
<g id="node8" class="node">
<title>alert_type</title>
<g id="a_node8"><a xlink:href="../../tables/alert_type.html" xlink:title="alert_type" target="_top">
<polygon fill="#ffffff" stroke="transparent" points="8,-102.2 8,-364.2 140,-364.2 140,-102.2 8,-102.2"/>
<polygon fill="#f5f5f5" stroke="transparent" points="8,-341.2 8,-364.2 140,-364.2 140,-341.2 8,-341.2"/>
<polygon fill="none" stroke="#000000" points="8,-341.2 8,-364.2 140,-364.2 140,-341.2 8,-341.2"/>
<text text-anchor="start" x="13" y="-349.8" font-family="Helvetica,sans-Serif" font-weight="bold" font-size="11.00" fill="#000000">alert_type</text>
<text text-anchor="start" x="105.0437" y="-349.3" font-family="Helvetica,sans-Serif" font-size="11.00" fill="#000000">[table]</text>
<polygon fill="none" stroke="#000000" points="8,-319.2 8,-341.2 140,-341.2 140,-319.2 8,-319.2"/>
<image xlink:href="../../images/primaryKeys.png" width="11px" height="12px" preserveAspectRatio="xMinYMin meet" x="13" y="-336.2"/>
<text text-anchor="start" x="28" y="-326.3" font-family="Helvetica,sans-Serif" font-size="11.00" fill="#000000">alert_type_id</text>
<polygon fill="#ffffff" stroke="transparent" points="8,-297.2 8,-319.2 140,-319.2 140,-297.2 8,-297.2"/>
<polygon fill="none" stroke="#000000" points="8,-297.2 8,-319.2 140,-319.2 140,-297.2 8,-297.2"/>
<text text-anchor="start" x="28" y="-304.3" font-family="Helvetica,sans-Serif" font-size="11.00" fill="#000000">code</text>
<polygon fill="none" stroke="#000000" points="8,-275.2 8,-297.2 140,-297.2 140,-275.2 8,-275.2"/>
<text text-anchor="start" x="28" y="-282.3" font-family="Helvetica,sans-Serif" font-size="11.00" fill="#000000">description</text>
<polygon fill="#ffffff" stroke="transparent" points="8,-253.2 8,-275.2 140,-275.2 140,-253.2 8,-253.2"/>
<polygon fill="none" stroke="#000000" points="8,-253.2 8,-275.2 140,-275.2 140,-253.2 8,-253.2"/>
<text text-anchor="start" x="28" y="-260.3" font-family="Helvetica,sans-Serif" font-size="11.00" fill="#000000">list_sequence</text>
<polygon fill="#ffffff" stroke="transparent" points="8,-231.2 8,-253.2 140,-253.2 140,-231.2 8,-231.2"/>
<polygon fill="none" stroke="#000000" points="8,-231.2 8,-253.2 140,-253.2 140,-231.2 8,-231.2"/>
<text text-anchor="start" x="28" y="-238.3" font-family="Helvetica,sans-Serif" font-size="11.00" fill="#000000">created_at</text>
<polygon fill="none" stroke="#000000" points="8,-209.2 8,-231.2 140,-231.2 140,-209.2 8,-209.2"/>
<text text-anchor="start" x="28" y="-216.3" font-family="Helvetica,sans-Serif" font-size="11.00" fill="#000000">created_by</text>
<polygon fill="none" stroke="#000000" points="8,-187.2 8,-209.2 140,-209.2 140,-187.2 8,-187.2"/>
<text text-anchor="start" x="28" y="-194.3" font-family="Helvetica,sans-Serif" font-size="11.00" fill="#000000">modified_at</text>
<polygon fill="none" stroke="#000000" points="8,-165.2 8,-187.2 140,-187.2 140,-165.2 8,-165.2"/>
<text text-anchor="start" x="28" y="-172.3" font-family="Helvetica,sans-Serif" font-size="11.00" fill="#000000">modified_by</text>
<polygon fill="#ffffff" stroke="transparent" points="8,-143.2 8,-165.2 140,-165.2 140,-143.2 8,-143.2"/>
<polygon fill="none" stroke="#000000" points="8,-143.2 8,-165.2 140,-165.2 140,-143.2 8,-143.2"/>
<text text-anchor="start" x="28" y="-150.3" font-family="Helvetica,sans-Serif" font-size="11.00" fill="#000000">deactivated_at</text>
<polygon fill="none" stroke="#000000" points="8,-121.2 8,-143.2 140,-143.2 140,-121.2 8,-121.2"/>
<text text-anchor="start" x="28" y="-128.3" font-family="Helvetica,sans-Serif" font-size="11.00" fill="#000000">deactivated_by</text>
<polygon fill="#ffffff" stroke="transparent" points="8,-102.2 8,-121.2 140,-121.2 140,-102.2 8,-102.2"/>
<polygon fill="none" stroke="#000000" points="8,-102.2 8,-121.2 140,-121.2 140,-102.2 8,-102.2"/>
<polygon fill="#ffffff" stroke="transparent" points="9,-103.2 9,-120.2 50,-120.2 50,-103.2 9,-103.2"/>
<text text-anchor="start" x="11" y="-108.3" font-family="Helvetica,sans-Serif" font-size="11.00" fill="#000000"> &#160;</text>
<polygon fill="#ffffff" stroke="transparent" points="50,-103.2 50,-120.2 90,-120.2 90,-103.2 50,-103.2"/>
<text text-anchor="start" x="66.9431" y="-108.3" font-family="Helvetica,sans-Serif" font-size="11.00" fill="#000000"> &#160;</text>
<polygon fill="#ffffff" stroke="transparent" points="90,-103.2 90,-120.2 139,-120.2 139,-103.2 90,-103.2"/>
<text text-anchor="start" x="121.4053" y="-108.3" font-family="Helvetica,sans-Serif" font-size="11.00" fill="#000000">1 &gt;</text>
<polygon fill="#000000" stroke="#000000" points="50,-103.2 50,-120.2 50,-120.2 50,-103.2 50,-103.2"/>
<polygon fill="#000000" stroke="#000000" points="90,-103.2 90,-120.2 90,-120.2 90,-103.2 90,-103.2"/>
</a>
</g>
</g>
<!-- alert_code&#45;&gt;alert_type -->
<g id="edge2" class="edge">
<title>alert_code:w&#45;&gt;alert_type:e</title>
<path fill="none" stroke="#000000" d="M174.4909,-330.2C163.1774,-330.2 155.9931,-330.2 140,-330.2"/>
<polygon fill="#000000" stroke="#000000" points="181,-330.2001 189,-333.8 185,-330.2 189,-330.2 189,-330.2 189,-330.2 185,-330.2 189,-326.6 181,-330.2001 181,-330.2001"/>
<ellipse fill="none" stroke="#000000" cx="177.8" cy="-330.2001" rx="3.2" ry="3.2"/>
</g>
<!-- alert&#45;&gt;alert_code -->
<g id="edge1" class="edge">
<title>alert:w&#45;&gt;alert_code:e</title>
<path fill="none" stroke="#000000" d="M364.6029,-292.2035C344.7157,-306.2146 353.413,-352.2 321,-352.2"/>
<polygon fill="#000000" stroke="#000000" points="370.8126,-290.4146 379.4966,-291.6593 374.6563,-289.3073 378.5,-288.2 378.5,-288.2 378.5,-288.2 374.6563,-289.3073 377.5034,-284.7407 370.8126,-290.4146 370.8126,-290.4146"/>
<ellipse fill="none" stroke="#000000" cx="367.7377" cy="-291.3005" rx="3.2" ry="3.2"/>
</g>
<!-- bulk_plan -->
<g id="node6" class="node">
<title>bulk_plan</title>
<g id="a_node6"><a xlink:href="../../tables/bulk_plan.html" xlink:title="bulk_plan" target="_top">
<polygon fill="#ffffff" stroke="transparent" points="126,-948.2 126,-1342.2 333,-1342.2 333,-948.2 126,-948.2"/>
<polygon fill="#f5f5f5" stroke="transparent" points="126.5,-1319.2 126.5,-1342.2 333.5,-1342.2 333.5,-1319.2 126.5,-1319.2"/>
<polygon fill="none" stroke="#000000" points="126.5,-1319.2 126.5,-1342.2 333.5,-1342.2 333.5,-1319.2 126.5,-1319.2"/>
<text text-anchor="start" x="131.5" y="-1327.8" font-family="Helvetica,sans-Serif" font-weight="bold" font-size="11.00" fill="#000000">bulk_plan</text>
<text text-anchor="start" x="298.5437" y="-1327.3" font-family="Helvetica,sans-Serif" font-size="11.00" fill="#000000">[table]</text>
<polygon fill="none" stroke="#000000" points="126.5,-1297.2 126.5,-1319.2 333.5,-1319.2 333.5,-1297.2 126.5,-1297.2"/>
<image xlink:href="../../images/primaryKeys.png" width="11px" height="12px" preserveAspectRatio="xMinYMin meet" x="131.5" y="-1314.2"/>
<text text-anchor="start" x="146.5" y="-1304.3" font-family="Helvetica,sans-Serif" font-size="11.00" fill="#000000">id</text>
<polygon fill="none" stroke="#000000" points="126.5,-1275.2 126.5,-1297.2 333.5,-1297.2 333.5,-1275.2 126.5,-1275.2"/>
<text text-anchor="start" x="146.5" y="-1282.3" font-family="Helvetica,sans-Serif" font-size="11.00" fill="#000000">alert_code_id</text>
<polygon fill="none" stroke="#000000" points="126.5,-1253.2 126.5,-1275.2 333.5,-1275.2 333.5,-1253.2 126.5,-1253.2"/>
<text text-anchor="start" x="146.5" y="-1260.3" font-family="Helvetica,sans-Serif" font-size="11.00" fill="#000000">description</text>
<polygon fill="none" stroke="#000000" points="126.5,-1231.2 126.5,-1253.2 333.5,-1253.2 333.5,-1231.2 126.5,-1231.2"/>
<text text-anchor="start" x="146.5" y="-1238.3" font-family="Helvetica,sans-Serif" font-size="11.00" fill="#000000">version</text>
<polygon fill="none" stroke="#000000" points="126.5,-1209.2 126.5,-1231.2 333.5,-1231.2 333.5,-1209.2 126.5,-1209.2"/>
<text text-anchor="start" x="146.5" y="-1216.3" font-family="Helvetica,sans-Serif" font-size="11.00" fill="#000000">created_at</text>
<polygon fill="none" stroke="#000000" points="126.5,-1187.2 126.5,-1209.2 333.5,-1209.2 333.5,-1187.2 126.5,-1187.2"/>
<text text-anchor="start" x="146.5" y="-1194.3" font-family="Helvetica,sans-Serif" font-size="11.00" fill="#000000">created_by</text>
<polygon fill="none" stroke="#000000" points="126.5,-1165.2 126.5,-1187.2 333.5,-1187.2 333.5,-1165.2 126.5,-1165.2"/>
<text text-anchor="start" x="146.5" y="-1172.3" font-family="Helvetica,sans-Serif" font-size="11.00" fill="#000000">created_by_display_name</text>
<polygon fill="none" stroke="#000000" points="126.5,-1143.2 126.5,-1165.2 333.5,-1165.2 333.5,-1143.2 126.5,-1143.2"/>
<text text-anchor="start" x="146.5" y="-1150.3" font-family="Helvetica,sans-Serif" font-size="11.00" fill="#000000">cleanup_mode</text>
<polygon fill="none" stroke="#000000" points="126.5,-1121.2 126.5,-1143.2 333.5,-1143.2 333.5,-1121.2 126.5,-1121.2"/>
<text text-anchor="start" x="146.5" y="-1128.3" font-family="Helvetica,sans-Serif" font-size="11.00" fill="#000000">started_at</text>
<polygon fill="none" stroke="#000000" points="126.5,-1099.2 126.5,-1121.2 333.5,-1121.2 333.5,-1099.2 126.5,-1099.2"/>
<text text-anchor="start" x="146.5" y="-1106.3" font-family="Helvetica,sans-Serif" font-size="11.00" fill="#000000">started_by</text>
<polygon fill="none" stroke="#000000" points="126.5,-1077.2 126.5,-1099.2 333.5,-1099.2 333.5,-1077.2 126.5,-1077.2"/>
<text text-anchor="start" x="146.5" y="-1084.3" font-family="Helvetica,sans-Serif" font-size="11.00" fill="#000000">started_by_display_name</text>
<polygon fill="none" stroke="#000000" points="126.5,-1055.2 126.5,-1077.2 333.5,-1077.2 333.5,-1055.2 126.5,-1055.2"/>
<text text-anchor="start" x="146.5" y="-1062.3" font-family="Helvetica,sans-Serif" font-size="11.00" fill="#000000">completed_at</text>
<polygon fill="none" stroke="#000000" points="126.5,-1033.2 126.5,-1055.2 333.5,-1055.2 333.5,-1033.2 126.5,-1033.2"/>
<text text-anchor="start" x="146.5" y="-1040.3" font-family="Helvetica,sans-Serif" font-size="11.00" fill="#000000">created_count</text>
<polygon fill="none" stroke="#000000" points="126.5,-1011.2 126.5,-1033.2 333.5,-1033.2 333.5,-1011.2 126.5,-1011.2"/>
<text text-anchor="start" x="146.5" y="-1018.3" font-family="Helvetica,sans-Serif" font-size="11.00" fill="#000000">updated_count</text>
<polygon fill="none" stroke="#000000" points="126.5,-989.2 126.5,-1011.2 333.5,-1011.2 333.5,-989.2 126.5,-989.2"/>
<text text-anchor="start" x="146.5" y="-996.3" font-family="Helvetica,sans-Serif" font-size="11.00" fill="#000000">unchanged_count</text>
<polygon fill="none" stroke="#000000" points="126.5,-967.2 126.5,-989.2 333.5,-989.2 333.5,-967.2 126.5,-967.2"/>
<text text-anchor="start" x="146.5" y="-974.3" font-family="Helvetica,sans-Serif" font-size="11.00" fill="#000000">expired_count</text>
<polygon fill="#ffffff" stroke="transparent" points="126.5,-948.2 126.5,-967.2 333.5,-967.2 333.5,-948.2 126.5,-948.2"/>
<polygon fill="none" stroke="#000000" points="126.5,-948.2 126.5,-967.2 333.5,-967.2 333.5,-948.2 126.5,-948.2"/>
<polygon fill="#ffffff" stroke="transparent" points="127.5,-949.2 127.5,-966.2 193.5,-966.2 193.5,-949.2 127.5,-949.2"/>
<text text-anchor="start" x="129.5" y="-954.3" font-family="Helvetica,sans-Serif" font-size="11.00" fill="#000000"> &#160;</text>
<polygon fill="#ffffff" stroke="transparent" points="193.5,-949.2 193.5,-966.2 258.5,-966.2 258.5,-949.2 193.5,-949.2"/>
<text text-anchor="start" x="222.9431" y="-954.3" font-family="Helvetica,sans-Serif" font-size="11.00" fill="#000000"> &#160;</text>
<polygon fill="#ffffff" stroke="transparent" points="258.5,-949.2 258.5,-966.2 332.5,-966.2 332.5,-949.2 258.5,-949.2"/>
<text text-anchor="start" x="314.9053" y="-954.3" font-family="Helvetica,sans-Serif" font-size="11.00" fill="#000000">1 &gt;</text>
<polygon fill="#000000" stroke="#000000" points="193.5,-949.2 193.5,-966.2 193.5,-966.2 193.5,-949.2 193.5,-949.2"/>
<polygon fill="#000000" stroke="#000000" points="258.5,-949.2 258.5,-966.2 258.5,-966.2 258.5,-949.2 258.5,-949.2"/>
</a>
</g>
</g>
<!-- plan_person -->
<g id="node7" class="node">
<title>plan_person</title>
<g id="a_node7"><a xlink:href="../../tables/plan_person.html" xlink:title="plan_person" target="_top">
<polygon fill="#ffffff" stroke="transparent" points="382,-1059.2 382,-1145.2 512,-1145.2 512,-1059.2 382,-1059.2"/>
<polygon fill="#f5f5f5" stroke="transparent" points="382,-1122.2 382,-1145.2 512,-1145.2 512,-1122.2 382,-1122.2"/>
<polygon fill="none" stroke="#000000" points="382,-1122.2 382,-1145.2 512,-1145.2 512,-1122.2 382,-1122.2"/>
<text text-anchor="start" x="387" y="-1130.8" font-family="Helvetica,sans-Serif" font-weight="bold" font-size="11.00" fill="#000000">plan_person</text>
<text text-anchor="start" x="477.0437" y="-1130.3" font-family="Helvetica,sans-Serif" font-size="11.00" fill="#000000">[table]</text>
<polygon fill="none" stroke="#000000" points="382,-1100.2 382,-1122.2 512,-1122.2 512,-1100.2 382,-1100.2"/>
<image xlink:href="../../images/primaryKeys.png" width="11px" height="12px" preserveAspectRatio="xMinYMin meet" x="387" y="-1117.2"/>
<text text-anchor="start" x="402" y="-1107.3" font-family="Helvetica,sans-Serif" font-size="11.00" fill="#000000">plan_id</text>
<polygon fill="none" stroke="#000000" points="382,-1078.2 382,-1100.2 512,-1100.2 512,-1078.2 382,-1078.2"/>
<image xlink:href="../../images/primaryKeys.png" width="11px" height="12px" preserveAspectRatio="xMinYMin meet" x="387" y="-1095.2"/>
<text text-anchor="start" x="402" y="-1085.3" font-family="Helvetica,sans-Serif" font-size="11.00" fill="#000000">prison_number</text>
<polygon fill="#ffffff" stroke="transparent" points="382,-1059.2 382,-1078.2 512,-1078.2 512,-1059.2 382,-1059.2"/>
<polygon fill="none" stroke="#000000" points="382,-1059.2 382,-1078.2 512,-1078.2 512,-1059.2 382,-1059.2"/>
<polygon fill="#ffffff" stroke="transparent" points="383,-1060.2 383,-1077.2 432,-1077.2 432,-1060.2 383,-1060.2"/>
<text text-anchor="start" x="385" y="-1065.3" font-family="Helvetica,sans-Serif" font-size="11.00" fill="#000000">&lt; 2</text>
<polygon fill="#ffffff" stroke="transparent" points="432,-1060.2 432,-1077.2 472,-1077.2 472,-1060.2 432,-1060.2"/>
<text text-anchor="start" x="448.9431" y="-1065.3" font-family="Helvetica,sans-Serif" font-size="11.00" fill="#000000"> &#160;</text>
<polygon fill="#ffffff" stroke="transparent" points="472,-1060.2 472,-1077.2 511,-1077.2 511,-1060.2 472,-1060.2"/>
<text text-anchor="start" x="502.8862" y="-1065.3" font-family="Helvetica,sans-Serif" font-size="11.00" fill="#000000"> &#160;</text>
<polygon fill="#000000" stroke="#000000" points="432,-1060.2 432,-1077.2 432,-1077.2 432,-1060.2 432,-1060.2"/>
<polygon fill="#000000" stroke="#000000" points="472,-1060.2 472,-1077.2 472,-1077.2 472,-1060.2 472,-1060.2"/>
</a>
</g>
</g>
<!-- plan_person&#45;&gt;bulk_plan -->
<g id="edge5" class="edge">
<title>plan_person:w&#45;&gt;bulk_plan:e</title>
<path fill="none" stroke="#000000" d="M367.5864,-1113.4124C307.4428,-1135.0555 418.0343,-1308.2 333.5,-1308.2"/>
<polygon fill="#000000" stroke="#000000" points="374.0926,-1112.4138 382.5462,-1114.7583 378.0463,-1111.8069 382,-1111.2 382,-1111.2 382,-1111.2 378.0463,-1111.8069 381.4538,-1107.6417 374.0926,-1112.4138 374.0926,-1112.4138"/>
<ellipse fill="none" stroke="#000000" cx="370.9297" cy="-1112.8993" rx="3.2" ry="3.2"/>
</g>
<!-- person_summary -->
<g id="node9" class="node">
<title>person_summary</title>
<g id="a_node9"><a xlink:href="../../tables/person_summary.html" xlink:title="person_summary" target="_top">
<polygon fill="#ffffff" stroke="transparent" points="132,-687.2 132,-927.2 327,-927.2 327,-687.2 132,-687.2"/>
<polygon fill="#f5f5f5" stroke="transparent" points="132.5,-904.2 132.5,-927.2 327.5,-927.2 327.5,-904.2 132.5,-904.2"/>
<polygon fill="none" stroke="#000000" points="132.5,-904.2 132.5,-927.2 327.5,-927.2 327.5,-904.2 132.5,-904.2"/>
<text text-anchor="start" x="137.5" y="-912.8" font-family="Helvetica,sans-Serif" font-weight="bold" font-size="11.00" fill="#000000">person_summary</text>
<text text-anchor="start" x="292.5437" y="-912.3" font-family="Helvetica,sans-Serif" font-size="11.00" fill="#000000">[table]</text>
<polygon fill="none" stroke="#000000" points="132.5,-882.2 132.5,-904.2 327.5,-904.2 327.5,-882.2 132.5,-882.2"/>
<image xlink:href="../../images/primaryKeys.png" width="11px" height="12px" preserveAspectRatio="xMinYMin meet" x="137.5" y="-899.2"/>
<text text-anchor="start" x="152.5" y="-889.3" font-family="Helvetica,sans-Serif" font-size="11.00" fill="#000000">prison_number</text>
<polygon fill="none" stroke="#000000" points="132.5,-860.2 132.5,-882.2 327.5,-882.2 327.5,-860.2 132.5,-860.2"/>
<text text-anchor="start" x="152.5" y="-867.3" font-family="Helvetica,sans-Serif" font-size="11.00" fill="#000000">first_name</text>
<polygon fill="none" stroke="#000000" points="132.5,-838.2 132.5,-860.2 327.5,-860.2 327.5,-838.2 132.5,-838.2"/>
<text text-anchor="start" x="152.5" y="-845.3" font-family="Helvetica,sans-Serif" font-size="11.00" fill="#000000">last_name</text>
<polygon fill="none" stroke="#000000" points="132.5,-816.2 132.5,-838.2 327.5,-838.2 327.5,-816.2 132.5,-816.2"/>
<text text-anchor="start" x="152.5" y="-823.3" font-family="Helvetica,sans-Serif" font-size="11.00" fill="#000000">status</text>
<polygon fill="none" stroke="#000000" points="132.5,-794.2 132.5,-816.2 327.5,-816.2 327.5,-794.2 132.5,-794.2"/>
<text text-anchor="start" x="152.5" y="-801.3" font-family="Helvetica,sans-Serif" font-size="11.00" fill="#000000">restricted_patient</text>
<polygon fill="none" stroke="#000000" points="132.5,-772.2 132.5,-794.2 327.5,-794.2 327.5,-772.2 132.5,-772.2"/>
<text text-anchor="start" x="152.5" y="-779.3" font-family="Helvetica,sans-Serif" font-size="11.00" fill="#000000">prison_code</text>
<polygon fill="none" stroke="#000000" points="132.5,-750.2 132.5,-772.2 327.5,-772.2 327.5,-750.2 132.5,-750.2"/>
<text text-anchor="start" x="152.5" y="-757.3" font-family="Helvetica,sans-Serif" font-size="11.00" fill="#000000">cell_location</text>
<polygon fill="none" stroke="#000000" points="132.5,-728.2 132.5,-750.2 327.5,-750.2 327.5,-728.2 132.5,-728.2"/>
<text text-anchor="start" x="152.5" y="-735.3" font-family="Helvetica,sans-Serif" font-size="11.00" fill="#000000">supporting_prison_code</text>
<polygon fill="none" stroke="#000000" points="132.5,-706.2 132.5,-728.2 327.5,-728.2 327.5,-706.2 132.5,-706.2"/>
<text text-anchor="start" x="152.5" y="-713.3" font-family="Helvetica,sans-Serif" font-size="11.00" fill="#000000">version</text>
<polygon fill="#ffffff" stroke="transparent" points="132.5,-687.2 132.5,-706.2 327.5,-706.2 327.5,-687.2 132.5,-687.2"/>
<polygon fill="none" stroke="#000000" points="132.5,-687.2 132.5,-706.2 327.5,-706.2 327.5,-687.2 132.5,-687.2"/>
<polygon fill="#ffffff" stroke="transparent" points="133.5,-688.2 133.5,-705.2 195.5,-705.2 195.5,-688.2 133.5,-688.2"/>
<text text-anchor="start" x="135.5" y="-693.3" font-family="Helvetica,sans-Serif" font-size="11.00" fill="#000000"> &#160;</text>
<polygon fill="#ffffff" stroke="transparent" points="195.5,-688.2 195.5,-705.2 256.5,-705.2 256.5,-688.2 195.5,-688.2"/>
<text text-anchor="start" x="222.9431" y="-693.3" font-family="Helvetica,sans-Serif" font-size="11.00" fill="#000000"> &#160;</text>
<polygon fill="#ffffff" stroke="transparent" points="256.5,-688.2 256.5,-705.2 326.5,-705.2 326.5,-688.2 256.5,-688.2"/>
<text text-anchor="start" x="308.9053" y="-693.3" font-family="Helvetica,sans-Serif" font-size="11.00" fill="#000000">1 &gt;</text>
<polygon fill="#000000" stroke="#000000" points="195.5,-688.2 195.5,-705.2 195.5,-705.2 195.5,-688.2 195.5,-688.2"/>
<polygon fill="#000000" stroke="#000000" points="256.5,-688.2 256.5,-705.2 256.5,-705.2 256.5,-688.2 256.5,-688.2"/>
</a>
</g>
</g>
<!-- plan_person&#45;&gt;person_summary -->
<g id="edge6" class="edge">
<title>plan_person:w&#45;&gt;person_summary:e</title>
<path fill="none" stroke="#000000" d="M367.4812,-1086.9988C306.5288,-1065.4656 412.265,-893.2 327.5,-893.2"/>
<polygon fill="#000000" stroke="#000000" points="374.0904,-1088.0008 381.4604,-1092.7593 378.0452,-1088.6004 382,-1089.2 382,-1089.2 382,-1089.2 378.0452,-1088.6004 382.5396,-1085.6407 374.0904,-1088.0008 374.0904,-1088.0008"/>
<ellipse fill="none" stroke="#000000" cx="370.9265" cy="-1087.5211" rx="3.2" ry="3.2"/>
</g>
</g>
</svg>
