<?xml version="1.0" encoding="UTF-8" standalone="no"?>
<!DOCTYPE svg PUBLIC "-//W3C//DTD SVG 1.1//EN"
 "http://www.w3.org/Graphics/SVG/1.1/DTD/svg11.dtd">
<!-- Generated by graphviz version 2.40.1 (20161225.0304)
 -->
<!-- Title: compactImpliedRelationshipsDiagram Pages: 1 -->
<svg width="903pt" height="628pt"
 viewBox="0.00 0.00 903.00 628.20" xmlns="http://www.w3.org/2000/svg" xmlns:xlink="http://www.w3.org/1999/xlink">
<g id="graph0" class="graph" transform="scale(1 1) rotate(0) translate(4 624.2)">
<title>compactImpliedRelationshipsDiagram</title>
<polygon fill="#ffffff" stroke="transparent" points="-4,4 -4,-624.2 899,-624.2 899,4 -4,4"/>
<text text-anchor="middle" x="72.4936" y="-7.3" font-family="Helvetica,sans-Serif" font-size="11.00" fill="#000000">Generated by SchemaSpy</text>
<!-- resync_audit -->
<g id="node1" class="node">
<title>resync_audit</title>
<g id="a_node1"><a xlink:href="../../tables/resync_audit.html" xlink:title="resync_audit" target="_top">
<polygon fill="#ffffff" stroke="transparent" points="425,-145.7 425,-250.7 635,-250.7 635,-145.7 425,-145.7"/>
<polygon fill="#f5f5f5" stroke="transparent" points="425,-227.2 425,-250.2 635,-250.2 635,-227.2 425,-227.2"/>
<polygon fill="none" stroke="#000000" points="425,-227.2 425,-250.2 635,-250.2 635,-227.2 425,-227.2"/>
<text text-anchor="start" x="430" y="-235.8" font-family="Helvetica,sans-Serif" font-weight="bold" font-size="11.00" fill="#000000">resync_audit</text>
<text text-anchor="start" x="600.0437" y="-235.3" font-family="Helvetica,sans-Serif" font-size="11.00" fill="#000000">[table]</text>
<polygon fill="none" stroke="#000000" points="425,-205.2 425,-227.2 635,-227.2 635,-205.2 425,-205.2"/>
<image xlink:href="../../images/primaryKeys.png" width="11px" height="12px" preserveAspectRatio="xMinYMin meet" x="430" y="-222.2"/>
<text text-anchor="start" x="445" y="-212.3" font-family="Helvetica,sans-Serif" font-size="11.00" fill="#000000">id</text>
<polygon fill="#ffffff" stroke="transparent" points="425,-183.2 425,-205.2 635,-205.2 635,-183.2 425,-183.2"/>
<polygon fill="none" stroke="#000000" points="425,-183.2 425,-205.2 635,-205.2 635,-183.2 425,-183.2"/>
<image xlink:href="../../images/foreignKeys.png" width="11px" height="12px" preserveAspectRatio="xMinYMin meet" x="430" y="-200.2"/>
<text text-anchor="start" x="445" y="-190.3" font-family="Helvetica,sans-Serif" font-size="11.00" fill="#000000">prison_number</text>
<polygon fill="none" stroke="#000000" points="425,-164.2 425,-183.2 635,-183.2 635,-164.2 425,-164.2"/>
<text text-anchor="start" x="428" y="-170.3" font-family="Helvetica,sans-Serif" font-size="11.00" fill="#000000">...</text>
<polygon fill="#ffffff" stroke="transparent" points="425,-145.2 425,-164.2 524,-164.2 524,-145.2 425,-145.2"/>
<polygon fill="none" stroke="#000000" points="425,-145.2 425,-164.2 524,-164.2 524,-145.2 425,-145.2"/>
<text text-anchor="start" x="428" y="-151.3" font-family="Helvetica,sans-Serif" font-size="11.00" fill="#000000"> &#160;</text>
<polygon fill="#ffffff" stroke="transparent" points="524,-145.2 524,-164.2 579,-164.2 579,-145.2 524,-145.2"/>
<polygon fill="none" stroke="#000000" points="524,-145.2 524,-164.2 579,-164.2 579,-145.2 524,-145.2"/>
<text text-anchor="start" x="569.8862" y="-151.3" font-family="Helvetica,sans-Serif" font-size="11.00" fill="#000000"> &#160;</text>
<polygon fill="#ffffff" stroke="transparent" points="579,-145.2 579,-164.2 635,-164.2 635,-145.2 579,-145.2"/>
<polygon fill="none" stroke="#000000" points="579,-145.2 579,-164.2 635,-164.2 635,-145.2 579,-145.2"/>
<text text-anchor="start" x="625.8862" y="-151.3" font-family="Helvetica,sans-Serif" font-size="11.00" fill="#000000"> &#160;</text>
</a>
</g>
</g>
<!-- person_summary -->
<g id="node9" class="node">
<title>person_summary</title>
<g id="a_node9"><a xlink:href="../../tables/person_summary.html" xlink:title="person_summary" target="_top">
<polygon fill="#ffffff" stroke="transparent" points="185.5,-145.7 185.5,-228.7 366.5,-228.7 366.5,-145.7 185.5,-145.7"/>
<polygon fill="#f5f5f5" stroke="transparent" points="186,-205.2 186,-228.2 367,-228.2 367,-205.2 186,-205.2"/>
<polygon fill="none" stroke="#000000" points="186,-205.2 186,-228.2 367,-228.2 367,-205.2 186,-205.2"/>
<text text-anchor="start" x="191" y="-213.8" font-family="Helvetica,sans-Serif" font-weight="bold" font-size="11.00" fill="#000000">person_summary</text>
<text text-anchor="start" x="332.0437" y="-213.3" font-family="Helvetica,sans-Serif" font-size="11.00" fill="#000000">[table]</text>
<polygon fill="none" stroke="#000000" points="186,-183.2 186,-205.2 367,-205.2 367,-183.2 186,-183.2"/>
<image xlink:href="../../images/primaryKeys.png" width="11px" height="12px" preserveAspectRatio="xMinYMin meet" x="191" y="-200.2"/>
<text text-anchor="start" x="206" y="-190.3" font-family="Helvetica,sans-Serif" font-size="11.00" fill="#000000">prison_number</text>
<polygon fill="none" stroke="#000000" points="186,-164.2 186,-183.2 367,-183.2 367,-164.2 186,-164.2"/>
<text text-anchor="start" x="189" y="-170.3" font-family="Helvetica,sans-Serif" font-size="11.00" fill="#000000">...</text>
<polygon fill="#ffffff" stroke="transparent" points="186,-145.2 186,-164.2 266,-164.2 266,-145.2 186,-145.2"/>
<polygon fill="none" stroke="#000000" points="186,-145.2 186,-164.2 266,-164.2 266,-145.2 186,-145.2"/>
<text text-anchor="start" x="189" y="-151.3" font-family="Helvetica,sans-Serif" font-size="11.00" fill="#000000"> &#160;</text>
<polygon fill="#ffffff" stroke="transparent" points="266,-145.2 266,-164.2 312,-164.2 312,-145.2 266,-145.2"/>
<polygon fill="none" stroke="#000000" points="266,-145.2 266,-164.2 312,-164.2 312,-145.2 266,-145.2"/>
<text text-anchor="start" x="302.8862" y="-151.3" font-family="Helvetica,sans-Serif" font-size="11.00" fill="#000000"> &#160;</text>
<polygon fill="#ffffff" stroke="transparent" points="312,-145.2 312,-164.2 367,-164.2 367,-145.2 312,-145.2"/>
<polygon fill="none" stroke="#000000" points="312,-145.2 312,-164.2 367,-164.2 367,-145.2 312,-145.2"/>
<text text-anchor="start" x="348.4053" y="-151.3" font-family="Helvetica,sans-Serif" font-size="11.00" fill="#000000">1 &gt;</text>
</a>
</g>
</g>
<!-- resync_audit&#45;&gt;person_summary -->
<g id="edge8" class="edge">
<title>resync_audit:w&#45;&gt;person_summary:e</title>
<path fill="none" stroke="#000000" stroke-dasharray="5,2" d="M410.454,-194.2C395.4776,-194.2 387.1389,-194.2 367,-194.2"/>
<polygon fill="#000000" stroke="#000000" points="417,-194.2001 425,-197.8 421,-194.2 425,-194.2 425,-194.2 425,-194.2 421,-194.2 425,-190.6 417,-194.2001 417,-194.2001"/>
<ellipse fill="none" stroke="#000000" cx="413.8" cy="-194.2001" rx="3.2" ry="3.2"/>
</g>
<!-- alert_code_privileged_user -->
<g id="node2" class="node">
<title>alert_code_privileged_user</title>
<g id="a_node2"><a xlink:href="../../tables/alert_code_privileged_user.html" xlink:title="alert_code_privileged_user" target="_top">
<polygon fill="#ffffff" stroke="transparent" points="421,-530.2 421,-616.2 639,-616.2 639,-530.2 421,-530.2"/>
<polygon fill="#f5f5f5" stroke="transparent" points="421,-593.2 421,-616.2 639,-616.2 639,-593.2 421,-593.2"/>
<polygon fill="none" stroke="#000000" points="421,-593.2 421,-616.2 639,-616.2 639,-593.2 421,-593.2"/>
<text text-anchor="start" x="426" y="-601.8" font-family="Helvetica,sans-Serif" font-weight="bold" font-size="11.00" fill="#000000">alert_code_privileged_user</text>
<text text-anchor="start" x="604.5219" y="-601.3" font-family="Helvetica,sans-Serif" font-size="11.00" fill="#000000">[table]</text>
<polygon fill="none" stroke="#000000" points="421,-571.2 421,-593.2 639,-593.2 639,-571.2 421,-571.2"/>
<image xlink:href="../../images/primaryKeys.png" width="11px" height="12px" preserveAspectRatio="xMinYMin meet" x="426" y="-588.2"/>
<text text-anchor="start" x="450" y="-578.3" font-family="Helvetica,sans-Serif" font-size="11.00" fill="#000000">alert_code_id</text>
<polygon fill="none" stroke="#000000" points="421,-549.2 421,-571.2 639,-571.2 639,-549.2 421,-549.2"/>
<image xlink:href="../../images/primaryKeys.png" width="11px" height="12px" preserveAspectRatio="xMinYMin meet" x="426" y="-566.2"/>
<text text-anchor="start" x="450" y="-556.3" font-family="Helvetica,sans-Serif" font-size="11.00" fill="#000000">username</text>
<polygon fill="#ffffff" stroke="transparent" points="421,-530.2 421,-549.2 528,-549.2 528,-530.2 421,-530.2"/>
<polygon fill="none" stroke="#000000" points="421,-530.2 421,-549.2 528,-549.2 528,-530.2 421,-530.2"/>
<text text-anchor="start" x="424" y="-536.3" font-family="Helvetica,sans-Serif" font-size="11.00" fill="#000000">&lt; 1</text>
<polygon fill="#ffffff" stroke="transparent" points="528,-530.2 528,-549.2 583,-549.2 583,-530.2 528,-530.2"/>
<polygon fill="none" stroke="#000000" points="528,-530.2 528,-549.2 583,-549.2 583,-530.2 528,-530.2"/>
<text text-anchor="start" x="573.8862" y="-536.3" font-family="Helvetica,sans-Serif" font-size="11.00" fill="#000000"> &#160;</text>
<polygon fill="#ffffff" stroke="transparent" points="583,-530.2 583,-549.2 639,-549.2 639,-530.2 583,-530.2"/>
<polygon fill="none" stroke="#000000" points="583,-530.2 583,-549.2 639,-549.2 639,-530.2 583,-530.2"/>
<text text-anchor="start" x="629.8862" y="-536.3" font-family="Helvetica,sans-Serif" font-size="11.00" fill="#000000"> &#160;</text>
</a>
</g>
</g>
<!-- alert_code -->
<g id="node4" class="node">
<title>alert_code</title>
<g id="a_node4"><a xlink:href="../../tables/alert_code.html" xlink:title="alert_code" target="_top">
<polygon fill="#ffffff" stroke="transparent" points="214.5,-358.7 214.5,-551.7 337.5,-551.7 337.5,-358.7 214.5,-358.7"/>
<polygon fill="#f5f5f5" stroke="transparent" points="215,-528.2 215,-551.2 338,-551.2 338,-528.2 215,-528.2"/>
<polygon fill="none" stroke="#000000" points="215,-528.2 215,-551.2 338,-551.2 338,-528.2 215,-528.2"/>
<text text-anchor="start" x="220" y="-536.8" font-family="Helvetica,sans-Serif" font-weight="bold" font-size="11.00" fill="#000000">alert_code</text>
<text text-anchor="start" x="303.0437" y="-536.3" font-family="Helvetica,sans-Serif" font-size="11.00" fill="#000000">[table]</text>
<polygon fill="none" stroke="#000000" points="215,-506.2 215,-528.2 338,-528.2 338,-506.2 215,-506.2"/>
<image xlink:href="../../images/primaryKeys.png" width="11px" height="12px" preserveAspectRatio="xMinYMin meet" x="220" y="-523.2"/>
<text text-anchor="start" x="235" y="-513.3" font-family="Helvetica,sans-Serif" font-size="11.00" fill="#000000">alert_code_id</text>
<polygon fill="#ffffff" stroke="transparent" points="215,-484.2 215,-506.2 338,-506.2 338,-484.2 215,-484.2"/>
<polygon fill="none" stroke="#000000" points="215,-484.2 215,-506.2 338,-506.2 338,-484.2 215,-484.2"/>
<image xlink:href="../../images/foreignKeys.png" width="11px" height="12px" preserveAspectRatio="xMinYMin meet" x="220" y="-501.2"/>
<text text-anchor="start" x="235" y="-491.3" font-family="Helvetica,sans-Serif" font-size="11.00" fill="#000000">alert_type_id</text>
<polygon fill="#ffffff" stroke="transparent" points="215,-462.2 215,-484.2 338,-484.2 338,-462.2 215,-462.2"/>
<polygon fill="none" stroke="#000000" points="215,-462.2 215,-484.2 338,-484.2 338,-462.2 215,-462.2"/>
<text text-anchor="start" x="235" y="-469.3" font-family="Helvetica,sans-Serif" font-size="11.00" fill="#000000">code</text>
<polygon fill="#ffffff" stroke="transparent" points="215,-440.2 215,-462.2 338,-462.2 338,-440.2 215,-440.2"/>
<polygon fill="none" stroke="#000000" points="215,-440.2 215,-462.2 338,-462.2 338,-440.2 215,-440.2"/>
<text text-anchor="start" x="235" y="-447.3" font-family="Helvetica,sans-Serif" font-size="11.00" fill="#000000">list_sequence</text>
<polygon fill="#ffffff" stroke="transparent" points="215,-418.2 215,-440.2 338,-440.2 338,-418.2 215,-418.2"/>
<polygon fill="none" stroke="#000000" points="215,-418.2 215,-440.2 338,-440.2 338,-418.2 215,-418.2"/>
<text text-anchor="start" x="235" y="-425.3" font-family="Helvetica,sans-Serif" font-size="11.00" fill="#000000">created_at</text>
<polygon fill="#ffffff" stroke="transparent" points="215,-396.2 215,-418.2 338,-418.2 338,-396.2 215,-396.2"/>
<polygon fill="none" stroke="#000000" points="215,-396.2 215,-418.2 338,-418.2 338,-396.2 215,-396.2"/>
<text text-anchor="start" x="235" y="-403.3" font-family="Helvetica,sans-Serif" font-size="11.00" fill="#000000">deactivated_at</text>
<polygon fill="none" stroke="#000000" points="215,-377.2 215,-396.2 338,-396.2 338,-377.2 215,-377.2"/>
<text text-anchor="start" x="218" y="-383.3" font-family="Helvetica,sans-Serif" font-size="11.00" fill="#000000">...</text>
<polygon fill="#ffffff" stroke="transparent" points="215,-358.2 215,-377.2 251,-377.2 251,-358.2 215,-358.2"/>
<polygon fill="none" stroke="#000000" points="215,-358.2 215,-377.2 251,-377.2 251,-358.2 215,-358.2"/>
<text text-anchor="start" x="218" y="-364.3" font-family="Helvetica,sans-Serif" font-size="11.00" fill="#000000">&lt; 1</text>
<polygon fill="#ffffff" stroke="transparent" points="251,-358.2 251,-377.2 309,-377.2 309,-358.2 251,-358.2"/>
<polygon fill="none" stroke="#000000" points="251,-358.2 251,-377.2 309,-377.2 309,-358.2 251,-358.2"/>
<text text-anchor="start" x="261.3807" y="-364.3" font-family="Helvetica,sans-Serif" font-size="11.00" fill="#000000">213 rows</text>
<polygon fill="#ffffff" stroke="transparent" points="309,-358.2 309,-377.2 338,-377.2 338,-358.2 309,-358.2"/>
<polygon fill="none" stroke="#000000" points="309,-358.2 309,-377.2 338,-377.2 338,-358.2 309,-358.2"/>
<text text-anchor="start" x="319.4053" y="-364.3" font-family="Helvetica,sans-Serif" font-size="11.00" fill="#000000">2 &gt;</text>
</a>
</g>
</g>
<!-- alert_code_privileged_user&#45;&gt;alert_code -->
<g id="edge4" class="edge">
<title>alert_code_privileged_user:w&#45;&gt;alert_code:e</title>
<path fill="none" stroke="#000000" d="M406.7139,-579.7313C375.8648,-567.8583 379.3639,-517.2 338,-517.2"/>
<polygon fill="#000000" stroke="#000000" points="413.1168,-580.8377 420.387,-585.7474 417.0584,-581.5189 421,-582.2 421,-582.2 421,-582.2 417.0584,-581.5189 421.613,-578.6526 413.1168,-580.8377 413.1168,-580.8377"/>
<ellipse fill="none" stroke="#000000" cx="409.9636" cy="-580.2928" rx="3.2" ry="3.2"/>
</g>
<!-- audit_event -->
<g id="node3" class="node">
<title>audit_event</title>
<g id="a_node3"><a xlink:href="../../tables/audit_event.html" xlink:title="audit_event" target="_top">
<polygon fill="#ffffff" stroke="transparent" points="688,-403.7 688,-574.7 887,-574.7 887,-403.7 688,-403.7"/>
<polygon fill="#f5f5f5" stroke="transparent" points="688.5,-551.2 688.5,-574.2 887.5,-574.2 887.5,-551.2 688.5,-551.2"/>
<polygon fill="none" stroke="#000000" points="688.5,-551.2 688.5,-574.2 887.5,-574.2 887.5,-551.2 688.5,-551.2"/>
<text text-anchor="start" x="693.5" y="-559.8" font-family="Helvetica,sans-Serif" font-weight="bold" font-size="11.00" fill="#000000">audit_event</text>
<text text-anchor="start" x="852.5437" y="-559.3" font-family="Helvetica,sans-Serif" font-size="11.00" fill="#000000">[table]</text>
<polygon fill="#ffffff" stroke="transparent" points="688.5,-529.2 688.5,-551.2 887.5,-551.2 887.5,-529.2 688.5,-529.2"/>
<polygon fill="none" stroke="#000000" points="688.5,-529.2 688.5,-551.2 887.5,-551.2 887.5,-529.2 688.5,-529.2"/>
<text text-anchor="start" x="708.5" y="-536.3" font-family="Helvetica,sans-Serif" font-size="11.00" fill="#000000">action</text>
<polygon fill="#ffffff" stroke="transparent" points="688.5,-507.2 688.5,-529.2 887.5,-529.2 887.5,-507.2 688.5,-507.2"/>
<polygon fill="none" stroke="#000000" points="688.5,-507.2 688.5,-529.2 887.5,-529.2 887.5,-507.2 688.5,-507.2"/>
<text text-anchor="start" x="708.5" y="-514.3" font-family="Helvetica,sans-Serif" font-size="11.00" fill="#000000">actioned_at</text>
<polygon fill="#ffffff" stroke="transparent" points="688.5,-485.2 688.5,-507.2 887.5,-507.2 887.5,-485.2 688.5,-485.2"/>
<polygon fill="none" stroke="#000000" points="688.5,-485.2 688.5,-507.2 887.5,-507.2 887.5,-485.2 688.5,-485.2"/>
<text text-anchor="start" x="708.5" y="-492.3" font-family="Helvetica,sans-Serif" font-size="11.00" fill="#000000">actioned_by</text>
<polygon fill="#ffffff" stroke="transparent" points="688.5,-463.2 688.5,-485.2 887.5,-485.2 887.5,-463.2 688.5,-463.2"/>
<polygon fill="none" stroke="#000000" points="688.5,-463.2 688.5,-485.2 887.5,-485.2 887.5,-463.2 688.5,-463.2"/>
<image xlink:href="../../images/foreignKeys.png" width="11px" height="12px" preserveAspectRatio="xMinYMin meet" x="693.5" y="-480.2"/>
<text text-anchor="start" x="708.5" y="-470.3" font-family="Helvetica,sans-Serif" font-size="11.00" fill="#000000">alert_id</text>
<polygon fill="none" stroke="#000000" points="688.5,-441.2 688.5,-463.2 887.5,-463.2 887.5,-441.2 688.5,-441.2"/>
<image xlink:href="../../images/primaryKeys.png" width="11px" height="12px" preserveAspectRatio="xMinYMin meet" x="693.5" y="-458.2"/>
<text text-anchor="start" x="708.5" y="-448.3" font-family="Helvetica,sans-Serif" font-size="11.00" fill="#000000">id</text>
<polygon fill="none" stroke="#000000" points="688.5,-422.2 688.5,-441.2 887.5,-441.2 887.5,-422.2 688.5,-422.2"/>
<text text-anchor="start" x="691.5" y="-428.3" font-family="Helvetica,sans-Serif" font-size="11.00" fill="#000000">...</text>
<polygon fill="#ffffff" stroke="transparent" points="688.5,-403.2 688.5,-422.2 786.5,-422.2 786.5,-403.2 688.5,-403.2"/>
<polygon fill="none" stroke="#000000" points="688.5,-403.2 688.5,-422.2 786.5,-422.2 786.5,-403.2 688.5,-403.2"/>
<text text-anchor="start" x="691.5" y="-409.3" font-family="Helvetica,sans-Serif" font-size="11.00" fill="#000000">&lt; 1</text>
<polygon fill="#ffffff" stroke="transparent" points="786.5,-403.2 786.5,-422.2 836.5,-422.2 836.5,-403.2 786.5,-403.2"/>
<polygon fill="none" stroke="#000000" points="786.5,-403.2 786.5,-422.2 836.5,-422.2 836.5,-403.2 786.5,-403.2"/>
<text text-anchor="start" x="827.3862" y="-409.3" font-family="Helvetica,sans-Serif" font-size="11.00" fill="#000000"> &#160;</text>
<polygon fill="#ffffff" stroke="transparent" points="836.5,-403.2 836.5,-422.2 887.5,-422.2 887.5,-403.2 836.5,-403.2"/>
<polygon fill="none" stroke="#000000" points="836.5,-403.2 836.5,-422.2 887.5,-422.2 887.5,-403.2 836.5,-403.2"/>
<text text-anchor="start" x="878.3862" y="-409.3" font-family="Helvetica,sans-Serif" font-size="11.00" fill="#000000"> &#160;</text>
</a>
</g>
</g>
<!-- alert -->
<g id="node5" class="node">
<title>alert</title>
<g id="a_node5"><a xlink:href="../../tables/alert.html" xlink:title="alert" target="_top">
<polygon fill="#ffffff" stroke="transparent" points="429.5,-271.7 429.5,-508.7 630.5,-508.7 630.5,-271.7 429.5,-271.7"/>
<polygon fill="#f5f5f5" stroke="transparent" points="430,-485.2 430,-508.2 631,-508.2 631,-485.2 430,-485.2"/>
<polygon fill="none" stroke="#000000" points="430,-485.2 430,-508.2 631,-508.2 631,-485.2 430,-485.2"/>
<text text-anchor="start" x="435" y="-493.8" font-family="Helvetica,sans-Serif" font-weight="bold" font-size="11.00" fill="#000000">alert</text>
<text text-anchor="start" x="596.0437" y="-493.3" font-family="Helvetica,sans-Serif" font-size="11.00" fill="#000000">[table]</text>
<polygon fill="none" stroke="#000000" points="430,-463.2 430,-485.2 631,-485.2 631,-463.2 430,-463.2"/>
<image xlink:href="../../images/primaryKeys.png" width="11px" height="12px" preserveAspectRatio="xMinYMin meet" x="435" y="-480.2"/>
<text text-anchor="start" x="450" y="-470.3" font-family="Helvetica,sans-Serif" font-size="11.00" fill="#000000">id</text>
<polygon fill="#ffffff" stroke="transparent" points="430,-441.2 430,-463.2 631,-463.2 631,-441.2 430,-441.2"/>
<polygon fill="none" stroke="#000000" points="430,-441.2 430,-463.2 631,-463.2 631,-441.2 430,-441.2"/>
<image xlink:href="../../images/foreignKeys.png" width="11px" height="12px" preserveAspectRatio="xMinYMin meet" x="435" y="-458.2"/>
<text text-anchor="start" x="450" y="-448.3" font-family="Helvetica,sans-Serif" font-size="11.00" fill="#000000">alert_code_id</text>
<polygon fill="#ffffff" stroke="transparent" points="430,-419.2 430,-441.2 631,-441.2 631,-419.2 430,-419.2"/>
<polygon fill="none" stroke="#000000" points="430,-419.2 430,-441.2 631,-441.2 631,-419.2 430,-419.2"/>
<image xlink:href="../../images/foreignKeys.png" width="11px" height="12px" preserveAspectRatio="xMinYMin meet" x="435" y="-436.2"/>
<text text-anchor="start" x="450" y="-426.3" font-family="Helvetica,sans-Serif" font-size="11.00" fill="#000000">prison_number</text>
<polygon fill="#ffffff" stroke="transparent" points="430,-397.2 430,-419.2 631,-419.2 631,-397.2 430,-397.2"/>
<polygon fill="none" stroke="#000000" points="430,-397.2 430,-419.2 631,-419.2 631,-397.2 430,-397.2"/>
<text text-anchor="start" x="450" y="-404.3" font-family="Helvetica,sans-Serif" font-size="11.00" fill="#000000">active_from</text>
<polygon fill="#ffffff" stroke="transparent" points="430,-375.2 430,-397.2 631,-397.2 631,-375.2 430,-375.2"/>
<polygon fill="none" stroke="#000000" points="430,-375.2 430,-397.2 631,-397.2 631,-375.2 430,-375.2"/>
<text text-anchor="start" x="450" y="-382.3" font-family="Helvetica,sans-Serif" font-size="11.00" fill="#000000">active_to</text>
<polygon fill="#ffffff" stroke="transparent" points="430,-353.2 430,-375.2 631,-375.2 631,-353.2 430,-353.2"/>
<polygon fill="none" stroke="#000000" points="430,-353.2 430,-375.2 631,-375.2 631,-353.2 430,-353.2"/>
<text text-anchor="start" x="450" y="-360.3" font-family="Helvetica,sans-Serif" font-size="11.00" fill="#000000">deleted_at</text>
<polygon fill="#ffffff" stroke="transparent" points="430,-331.2 430,-353.2 631,-353.2 631,-331.2 430,-331.2"/>
<polygon fill="none" stroke="#000000" points="430,-331.2 430,-353.2 631,-353.2 631,-331.2 430,-331.2"/>
<text text-anchor="start" x="450" y="-338.3" font-family="Helvetica,sans-Serif" font-size="11.00" fill="#000000">created_at</text>
<polygon fill="#ffffff" stroke="transparent" points="430,-309.2 430,-331.2 631,-331.2 631,-309.2 430,-309.2"/>
<polygon fill="none" stroke="#000000" points="430,-309.2 430,-331.2 631,-331.2 631,-309.2 430,-309.2"/>
<text text-anchor="start" x="450" y="-316.3" font-family="Helvetica,sans-Serif" font-size="11.00" fill="#000000">last_modified_at</text>
<polygon fill="none" stroke="#000000" points="430,-290.2 430,-309.2 631,-309.2 631,-290.2 430,-290.2"/>
<text text-anchor="start" x="433" y="-296.3" font-family="Helvetica,sans-Serif" font-size="11.00" fill="#000000">...</text>
<polygon fill="#ffffff" stroke="transparent" points="430,-271.2 430,-290.2 524,-290.2 524,-271.2 430,-271.2"/>
<polygon fill="none" stroke="#000000" points="430,-271.2 430,-290.2 524,-290.2 524,-271.2 430,-271.2"/>
<text text-anchor="start" x="433" y="-277.3" font-family="Helvetica,sans-Serif" font-size="11.00" fill="#000000">&lt; 1</text>
<polygon fill="#ffffff" stroke="transparent" points="524,-271.2 524,-290.2 573,-290.2 573,-271.2 524,-271.2"/>
<polygon fill="none" stroke="#000000" points="524,-271.2 524,-290.2 573,-290.2 573,-271.2 524,-271.2"/>
<text text-anchor="start" x="563.8862" y="-277.3" font-family="Helvetica,sans-Serif" font-size="11.00" fill="#000000"> &#160;</text>
<polygon fill="#ffffff" stroke="transparent" points="573,-271.2 573,-290.2 631,-290.2 631,-271.2 573,-271.2"/>
<polygon fill="none" stroke="#000000" points="573,-271.2 573,-290.2 631,-290.2 631,-271.2 573,-271.2"/>
<text text-anchor="start" x="612.4053" y="-277.3" font-family="Helvetica,sans-Serif" font-size="11.00" fill="#000000">1 &gt;</text>
</a>
</g>
</g>
<!-- audit_event&#45;&gt;alert -->
<g id="edge5" class="edge">
<title>audit_event:w&#45;&gt;alert:e</title>
<path fill="none" stroke="#000000" d="M674.0794,-474.2C659.2322,-474.2 650.9653,-474.2 631,-474.2"/>
<polygon fill="#000000" stroke="#000000" points="680.5,-474.2001 688.5,-477.8 684.5,-474.2 688.5,-474.2 688.5,-474.2 688.5,-474.2 684.5,-474.2 688.5,-470.6 680.5,-474.2001 680.5,-474.2001"/>
<ellipse fill="none" stroke="#000000" cx="677.3" cy="-474.2001" rx="3.2" ry="3.2"/>
</g>
<!-- alert_type -->
<g id="node8" class="node">
<title>alert_type</title>
<g id="a_node8"><a xlink:href="../../tables/alert_type.html" xlink:title="alert_type" target="_top">
<polygon fill="#ffffff" stroke="transparent" points="8,-358.7 8,-529.7 131,-529.7 131,-358.7 8,-358.7"/>
<polygon fill="#f5f5f5" stroke="transparent" points="8.5,-506.2 8.5,-529.2 131.5,-529.2 131.5,-506.2 8.5,-506.2"/>
<polygon fill="none" stroke="#000000" points="8.5,-506.2 8.5,-529.2 131.5,-529.2 131.5,-506.2 8.5,-506.2"/>
<text text-anchor="start" x="13.5" y="-514.8" font-family="Helvetica,sans-Serif" font-weight="bold" font-size="11.00" fill="#000000">alert_type</text>
<text text-anchor="start" x="96.5437" y="-514.3" font-family="Helvetica,sans-Serif" font-size="11.00" fill="#000000">[table]</text>
<polygon fill="none" stroke="#000000" points="8.5,-484.2 8.5,-506.2 131.5,-506.2 131.5,-484.2 8.5,-484.2"/>
<image xlink:href="../../images/primaryKeys.png" width="11px" height="12px" preserveAspectRatio="xMinYMin meet" x="13.5" y="-501.2"/>
<text text-anchor="start" x="28.5" y="-491.3" font-family="Helvetica,sans-Serif" font-size="11.00" fill="#000000">alert_type_id</text>
<polygon fill="#ffffff" stroke="transparent" points="8.5,-462.2 8.5,-484.2 131.5,-484.2 131.5,-462.2 8.5,-462.2"/>
<polygon fill="none" stroke="#000000" points="8.5,-462.2 8.5,-484.2 131.5,-484.2 131.5,-462.2 8.5,-462.2"/>
<text text-anchor="start" x="28.5" y="-469.3" font-family="Helvetica,sans-Serif" font-size="11.00" fill="#000000">code</text>
<polygon fill="#ffffff" stroke="transparent" points="8.5,-440.2 8.5,-462.2 131.5,-462.2 131.5,-440.2 8.5,-440.2"/>
<polygon fill="none" stroke="#000000" points="8.5,-440.2 8.5,-462.2 131.5,-462.2 131.5,-440.2 8.5,-440.2"/>
<text text-anchor="start" x="28.5" y="-447.3" font-family="Helvetica,sans-Serif" font-size="11.00" fill="#000000">list_sequence</text>
<polygon fill="#ffffff" stroke="transparent" points="8.5,-418.2 8.5,-440.2 131.5,-440.2 131.5,-418.2 8.5,-418.2"/>
<polygon fill="none" stroke="#000000" points="8.5,-418.2 8.5,-440.2 131.5,-440.2 131.5,-418.2 8.5,-418.2"/>
<text text-anchor="start" x="28.5" y="-425.3" font-family="Helvetica,sans-Serif" font-size="11.00" fill="#000000">created_at</text>
<polygon fill="#ffffff" stroke="transparent" points="8.5,-396.2 8.5,-418.2 131.5,-418.2 131.5,-396.2 8.5,-396.2"/>
<polygon fill="none" stroke="#000000" points="8.5,-396.2 8.5,-418.2 131.5,-418.2 131.5,-396.2 8.5,-396.2"/>
<text text-anchor="start" x="28.5" y="-403.3" font-family="Helvetica,sans-Serif" font-size="11.00" fill="#000000">deactivated_at</text>
<polygon fill="none" stroke="#000000" points="8.5,-377.2 8.5,-396.2 131.5,-396.2 131.5,-377.2 8.5,-377.2"/>
<text text-anchor="start" x="11.5" y="-383.3" font-family="Helvetica,sans-Serif" font-size="11.00" fill="#000000">...</text>
<polygon fill="#ffffff" stroke="transparent" points="8.5,-358.2 8.5,-377.2 59.5,-377.2 59.5,-358.2 8.5,-358.2"/>
<polygon fill="none" stroke="#000000" points="8.5,-358.2 8.5,-377.2 59.5,-377.2 59.5,-358.2 8.5,-358.2"/>
<text text-anchor="start" x="11.5" y="-364.3" font-family="Helvetica,sans-Serif" font-size="11.00" fill="#000000"> &#160;</text>
<polygon fill="#ffffff" stroke="transparent" points="59.5,-358.2 59.5,-377.2 90.5,-377.2 90.5,-358.2 59.5,-358.2"/>
<polygon fill="none" stroke="#000000" points="59.5,-358.2 59.5,-377.2 90.5,-377.2 90.5,-358.2 59.5,-358.2"/>
<text text-anchor="start" x="81.3862" y="-364.3" font-family="Helvetica,sans-Serif" font-size="11.00" fill="#000000"> &#160;</text>
<polygon fill="#ffffff" stroke="transparent" points="90.5,-358.2 90.5,-377.2 131.5,-377.2 131.5,-358.2 90.5,-358.2"/>
<polygon fill="none" stroke="#000000" points="90.5,-358.2 90.5,-377.2 131.5,-377.2 131.5,-358.2 90.5,-358.2"/>
<text text-anchor="start" x="112.9053" y="-364.3" font-family="Helvetica,sans-Serif" font-size="11.00" fill="#000000">1 &gt;</text>
</a>
</g>
</g>
<!-- alert_code&#45;&gt;alert_type -->
<g id="edge3" class="edge">
<title>alert_code:w&#45;&gt;alert_type:e</title>
<path fill="none" stroke="#000000" d="M200.485,-495.2C174.6256,-495.2 163.2474,-495.2 131.5,-495.2"/>
<polygon fill="#000000" stroke="#000000" points="207,-495.2001 215,-498.8 211,-495.2 215,-495.2 215,-495.2 215,-495.2 211,-495.2 215,-491.6 207,-495.2001 207,-495.2001"/>
<ellipse fill="none" stroke="#000000" cx="203.8" cy="-495.2001" rx="3.2" ry="3.2"/>
</g>
<!-- alert&#45;&gt;alert_code -->
<g id="edge1" class="edge">
<title>alert:w&#45;&gt;alert_code:e</title>
<path fill="none" stroke="#000000" d="M415.5088,-454.3627C381.0175,-465.6412 382.5888,-517.2 338,-517.2"/>
<polygon fill="#000000" stroke="#000000" points="422.0876,-453.3809 430.5314,-455.7606 426.0438,-452.7904 430,-452.2 430,-452.2 430,-452.2 426.0438,-452.7904 429.4686,-448.6394 422.0876,-453.3809 422.0876,-453.3809"/>
<ellipse fill="none" stroke="#000000" cx="418.9227" cy="-453.8532" rx="3.2" ry="3.2"/>
</g>
<!-- alert&#45;&gt;person_summary -->
<g id="edge2" class="edge">
<title>alert:w&#45;&gt;person_summary:e</title>
<path fill="none" stroke="#000000" stroke-dasharray="5,2" d="M415.4247,-428.4361C336.4139,-406.8398 470.049,-194.2 367,-194.2"/>
<polygon fill="#000000" stroke="#000000" points="422.0579,-429.2388 429.5675,-433.7739 426.029,-429.7194 430,-430.2 430,-430.2 430,-430.2 426.029,-429.7194 430.4325,-426.6261 422.0579,-429.2388 422.0579,-429.2388"/>
<ellipse fill="none" stroke="#000000" cx="418.8811" cy="-428.8543" rx="3.2" ry="3.2"/>
</g>
<!-- bulk_plan -->
<g id="node6" class="node">
<title>bulk_plan</title>
<g id="a_node6"><a xlink:href="../../tables/bulk_plan.html" xlink:title="bulk_plan" target="_top">
<polygon fill="#ffffff" stroke="transparent" points="180,-41.7 180,-124.7 372,-124.7 372,-41.7 180,-41.7"/>
<polygon fill="#f5f5f5" stroke="transparent" points="180,-101.2 180,-124.2 372,-124.2 372,-101.2 180,-101.2"/>
<polygon fill="none" stroke="#000000" points="180,-101.2 180,-124.2 372,-124.2 372,-101.2 180,-101.2"/>
<text text-anchor="start" x="185" y="-109.8" font-family="Helvetica,sans-Serif" font-weight="bold" font-size="11.00" fill="#000000">bulk_plan</text>
<text text-anchor="start" x="337.0437" y="-109.3" font-family="Helvetica,sans-Serif" font-size="11.00" fill="#000000">[table]</text>
<polygon fill="none" stroke="#000000" points="180,-79.2 180,-101.2 372,-101.2 372,-79.2 180,-79.2"/>
<image xlink:href="../../images/primaryKeys.png" width="11px" height="12px" preserveAspectRatio="xMinYMin meet" x="185" y="-96.2"/>
<text text-anchor="start" x="200" y="-86.3" font-family="Helvetica,sans-Serif" font-size="11.00" fill="#000000">id</text>
<polygon fill="none" stroke="#000000" points="180,-60.2 180,-79.2 372,-79.2 372,-60.2 180,-60.2"/>
<text text-anchor="start" x="183" y="-66.3" font-family="Helvetica,sans-Serif" font-size="11.00" fill="#000000">...</text>
<polygon fill="#ffffff" stroke="transparent" points="180,-41.2 180,-60.2 265,-60.2 265,-41.2 180,-41.2"/>
<polygon fill="none" stroke="#000000" points="180,-41.2 180,-60.2 265,-60.2 265,-41.2 180,-41.2"/>
<text text-anchor="start" x="183" y="-47.3" font-family="Helvetica,sans-Serif" font-size="11.00" fill="#000000"> &#160;</text>
<polygon fill="#ffffff" stroke="transparent" points="265,-41.2 265,-60.2 314,-60.2 314,-41.2 265,-41.2"/>
<polygon fill="none" stroke="#000000" points="265,-41.2 265,-60.2 314,-60.2 314,-41.2 265,-41.2"/>
<text text-anchor="start" x="304.8862" y="-47.3" font-family="Helvetica,sans-Serif" font-size="11.00" fill="#000000"> &#160;</text>
<polygon fill="#ffffff" stroke="transparent" points="314,-41.2 314,-60.2 372,-60.2 372,-41.2 314,-41.2"/>
<polygon fill="none" stroke="#000000" points="314,-41.2 314,-60.2 372,-60.2 372,-41.2 314,-41.2"/>
<text text-anchor="start" x="353.4053" y="-47.3" font-family="Helvetica,sans-Serif" font-size="11.00" fill="#000000">1 &gt;</text>
</a>
</g>
</g>
<!-- plan_person -->
<g id="node7" class="node">
<title>plan_person</title>
<g id="a_node7"><a xlink:href="../../tables/plan_person.html" xlink:title="plan_person" target="_top">
<polygon fill="#ffffff" stroke="transparent" points="469.5,-38.2 469.5,-124.2 590.5,-124.2 590.5,-38.2 469.5,-38.2"/>
<polygon fill="#f5f5f5" stroke="transparent" points="470,-101.2 470,-124.2 591,-124.2 591,-101.2 470,-101.2"/>
<polygon fill="none" stroke="#000000" points="470,-101.2 470,-124.2 591,-124.2 591,-101.2 470,-101.2"/>
<text text-anchor="start" x="475" y="-109.8" font-family="Helvetica,sans-Serif" font-weight="bold" font-size="11.00" fill="#000000">plan_person</text>
<text text-anchor="start" x="556.5219" y="-109.3" font-family="Helvetica,sans-Serif" font-size="11.00" fill="#000000">[table]</text>
<polygon fill="none" stroke="#000000" points="470,-79.2 470,-101.2 591,-101.2 591,-79.2 470,-79.2"/>
<image xlink:href="../../images/foreignKeys.png" width="11px" height="12px" preserveAspectRatio="xMinYMin meet" x="475" y="-96.2"/>
<text text-anchor="start" x="490" y="-86.3" font-family="Helvetica,sans-Serif" font-size="11.00" fill="#000000">plan_id</text>
<polygon fill="none" stroke="#000000" points="470,-57.2 470,-79.2 591,-79.2 591,-57.2 470,-57.2"/>
<image xlink:href="../../images/foreignKeys.png" width="11px" height="12px" preserveAspectRatio="xMinYMin meet" x="475" y="-74.2"/>
<text text-anchor="start" x="490" y="-64.3" font-family="Helvetica,sans-Serif" font-size="11.00" fill="#000000">prison_number</text>
<polygon fill="#ffffff" stroke="transparent" points="470,-38.2 470,-57.2 529,-57.2 529,-38.2 470,-38.2"/>
<polygon fill="none" stroke="#000000" points="470,-38.2 470,-57.2 529,-57.2 529,-38.2 470,-38.2"/>
<text text-anchor="start" x="473" y="-44.3" font-family="Helvetica,sans-Serif" font-size="11.00" fill="#000000">&lt; 2</text>
<polygon fill="#ffffff" stroke="transparent" points="529,-38.2 529,-57.2 560,-57.2 560,-38.2 529,-38.2"/>
<polygon fill="none" stroke="#000000" points="529,-38.2 529,-57.2 560,-57.2 560,-38.2 529,-38.2"/>
<text text-anchor="start" x="550.8862" y="-44.3" font-family="Helvetica,sans-Serif" font-size="11.00" fill="#000000"> &#160;</text>
<polygon fill="#ffffff" stroke="transparent" points="560,-38.2 560,-57.2 591,-57.2 591,-38.2 560,-38.2"/>
<polygon fill="none" stroke="#000000" points="560,-38.2 560,-57.2 591,-57.2 591,-38.2 560,-38.2"/>
<text text-anchor="start" x="581.8862" y="-44.3" font-family="Helvetica,sans-Serif" font-size="11.00" fill="#000000"> &#160;</text>
</a>
</g>
</g>
<!-- plan_person&#45;&gt;bulk_plan -->
<g id="edge6" class="edge">
<title>plan_person:w&#45;&gt;bulk_plan:e</title>
<path fill="none" stroke="#000000" d="M455.4981,-90.2C423.3283,-90.2 410.2813,-90.2 372,-90.2"/>
<polygon fill="#000000" stroke="#000000" points="462,-90.2001 470,-93.8 466,-90.2 470,-90.2 470,-90.2 470,-90.2 466,-90.2 470,-86.6 462,-90.2001 462,-90.2001"/>
<ellipse fill="none" stroke="#000000" cx="458.8" cy="-90.2001" rx="3.2" ry="3.2"/>
</g>
<!-- plan_person&#45;&gt;person_summary -->
<g id="edge7" class="edge">
<title>plan_person:w&#45;&gt;person_summary:e</title>
<path fill="none" stroke="#000000" d="M455.6901,-70.3691C432.2085,-78.6719 434.123,-109.2691 413,-135.2 392.0003,-160.9797 400.2503,-194.2 367,-194.2"/>
<polygon fill="#000000" stroke="#000000" points="462.0904,-69.399 470.5396,-71.7593 466.0452,-68.7995 470,-68.2 470,-68.2 470,-68.2 466.0452,-68.7995 469.4604,-64.6407 462.0904,-69.399 462.0904,-69.399"/>
<ellipse fill="none" stroke="#000000" cx="458.9265" cy="-69.8786" rx="3.2" ry="3.2"/>
</g>
</g>
</svg>
