<?xml version="1.0" encoding="UTF-8" standalone="no"?>
<!DOCTYPE svg PUBLIC "-//W3C//DTD SVG 1.1//EN"
 "http://www.w3.org/Graphics/SVG/1.1/DTD/svg11.dtd">
<!-- Generated by graphviz version 2.40.1 (20161225.0304)
 -->
<!-- Title: compactRelationshipsDiagram Pages: 1 -->
<svg width="817pt" height="527pt"
 viewBox="0.00 0.00 817.00 527.20" xmlns="http://www.w3.org/2000/svg" xmlns:xlink="http://www.w3.org/1999/xlink">
<g id="graph0" class="graph" transform="scale(1 1) rotate(0) translate(4 523.2)">
<title>compactRelationshipsDiagram</title>
<polygon fill="#ffffff" stroke="transparent" points="-4,4 -4,-523.2 813,-523.2 813,4 -4,4"/>
<text text-anchor="middle" x="72.4936" y="-7.3" font-family="Helvetica,sans-Serif" font-size="11.00" fill="#000000">Generated by SchemaSpy</text>
<!-- audit_event -->
<g id="node1" class="node">
<title>audit_event</title>
<g id="a_node1"><a xlink:href="../../tables/audit_event.html" xlink:title="audit_event" target="_top">
<polygon fill="#ffffff" stroke="transparent" points="602,-170.2 602,-341.2 801,-341.2 801,-170.2 602,-170.2"/>
<polygon fill="#f5f5f5" stroke="transparent" points="602.5,-317.7 602.5,-340.7 801.5,-340.7 801.5,-317.7 602.5,-317.7"/>
<polygon fill="none" stroke="#000000" points="602.5,-317.7 602.5,-340.7 801.5,-340.7 801.5,-317.7 602.5,-317.7"/>
<text text-anchor="start" x="607.5" y="-326.3" font-family="Helvetica,sans-Serif" font-weight="bold" font-size="11.00" fill="#000000">audit_event</text>
<text text-anchor="start" x="766.5437" y="-325.8" font-family="Helvetica,sans-Serif" font-size="11.00" fill="#000000">[table]</text>
<polygon fill="#ffffff" stroke="transparent" points="602.5,-295.7 602.5,-317.7 801.5,-317.7 801.5,-295.7 602.5,-295.7"/>
<polygon fill="none" stroke="#000000" points="602.5,-295.7 602.5,-317.7 801.5,-317.7 801.5,-295.7 602.5,-295.7"/>
<text text-anchor="start" x="622.5" y="-302.8" font-family="Helvetica,sans-Serif" font-size="11.00" fill="#000000">action</text>
<polygon fill="#ffffff" stroke="transparent" points="602.5,-273.7 602.5,-295.7 801.5,-295.7 801.5,-273.7 602.5,-273.7"/>
<polygon fill="none" stroke="#000000" points="602.5,-273.7 602.5,-295.7 801.5,-295.7 801.5,-273.7 602.5,-273.7"/>
<text text-anchor="start" x="622.5" y="-280.8" font-family="Helvetica,sans-Serif" font-size="11.00" fill="#000000">actioned_at</text>
<polygon fill="#ffffff" stroke="transparent" points="602.5,-251.7 602.5,-273.7 801.5,-273.7 801.5,-251.7 602.5,-251.7"/>
<polygon fill="none" stroke="#000000" points="602.5,-251.7 602.5,-273.7 801.5,-273.7 801.5,-251.7 602.5,-251.7"/>
<text text-anchor="start" x="622.5" y="-258.8" font-family="Helvetica,sans-Serif" font-size="11.00" fill="#000000">actioned_by</text>
<polygon fill="#ffffff" stroke="transparent" points="602.5,-229.7 602.5,-251.7 801.5,-251.7 801.5,-229.7 602.5,-229.7"/>
<polygon fill="none" stroke="#000000" points="602.5,-229.7 602.5,-251.7 801.5,-251.7 801.5,-229.7 602.5,-229.7"/>
<image xlink:href="../../images/foreignKeys.png" width="11px" height="12px" preserveAspectRatio="xMinYMin meet" x="607.5" y="-246.7"/>
<text text-anchor="start" x="622.5" y="-236.8" font-family="Helvetica,sans-Serif" font-size="11.00" fill="#000000">alert_id</text>
<polygon fill="none" stroke="#000000" points="602.5,-207.7 602.5,-229.7 801.5,-229.7 801.5,-207.7 602.5,-207.7"/>
<image xlink:href="../../images/primaryKeys.png" width="11px" height="12px" preserveAspectRatio="xMinYMin meet" x="607.5" y="-224.7"/>
<text text-anchor="start" x="622.5" y="-214.8" font-family="Helvetica,sans-Serif" font-size="11.00" fill="#000000">id</text>
<polygon fill="none" stroke="#000000" points="602.5,-188.7 602.5,-207.7 801.5,-207.7 801.5,-188.7 602.5,-188.7"/>
<text text-anchor="start" x="605.5" y="-194.8" font-family="Helvetica,sans-Serif" font-size="11.00" fill="#000000">...</text>
<polygon fill="#ffffff" stroke="transparent" points="602.5,-169.7 602.5,-188.7 700.5,-188.7 700.5,-169.7 602.5,-169.7"/>
<polygon fill="none" stroke="#000000" points="602.5,-169.7 602.5,-188.7 700.5,-188.7 700.5,-169.7 602.5,-169.7"/>
<text text-anchor="start" x="605.5" y="-175.8" font-family="Helvetica,sans-Serif" font-size="11.00" fill="#000000">&lt; 1</text>
<polygon fill="#ffffff" stroke="transparent" points="700.5,-169.7 700.5,-188.7 750.5,-188.7 750.5,-169.7 700.5,-169.7"/>
<polygon fill="none" stroke="#000000" points="700.5,-169.7 700.5,-188.7 750.5,-188.7 750.5,-169.7 700.5,-169.7"/>
<text text-anchor="start" x="741.3862" y="-175.8" font-family="Helvetica,sans-Serif" font-size="11.00" fill="#000000"> &#160;</text>
<polygon fill="#ffffff" stroke="transparent" points="750.5,-169.7 750.5,-188.7 801.5,-188.7 801.5,-169.7 750.5,-169.7"/>
<polygon fill="none" stroke="#000000" points="750.5,-169.7 750.5,-188.7 801.5,-188.7 801.5,-169.7 750.5,-169.7"/>
<text text-anchor="start" x="792.3862" y="-175.8" font-family="Helvetica,sans-Serif" font-size="11.00" fill="#000000"> &#160;</text>
</a>
</g>
</g>
<!-- alert -->
<g id="node3" class="node">
<title>alert</title>
<g id="a_node3"><a xlink:href="../../tables/alert.html" xlink:title="alert" target="_top">
<polygon fill="#ffffff" stroke="transparent" points="352,-38.2 352,-275.2 553,-275.2 553,-38.2 352,-38.2"/>
<polygon fill="#f5f5f5" stroke="transparent" points="352.5,-251.7 352.5,-274.7 553.5,-274.7 553.5,-251.7 352.5,-251.7"/>
<polygon fill="none" stroke="#000000" points="352.5,-251.7 352.5,-274.7 553.5,-274.7 553.5,-251.7 352.5,-251.7"/>
<text text-anchor="start" x="357.5" y="-260.3" font-family="Helvetica,sans-Serif" font-weight="bold" font-size="11.00" fill="#000000">alert</text>
<text text-anchor="start" x="518.5437" y="-259.8" font-family="Helvetica,sans-Serif" font-size="11.00" fill="#000000">[table]</text>
<polygon fill="none" stroke="#000000" points="352.5,-229.7 352.5,-251.7 553.5,-251.7 553.5,-229.7 352.5,-229.7"/>
<image xlink:href="../../images/primaryKeys.png" width="11px" height="12px" preserveAspectRatio="xMinYMin meet" x="357.5" y="-246.7"/>
<text text-anchor="start" x="372.5" y="-236.8" font-family="Helvetica,sans-Serif" font-size="11.00" fill="#000000">id</text>
<polygon fill="#ffffff" stroke="transparent" points="352.5,-207.7 352.5,-229.7 553.5,-229.7 553.5,-207.7 352.5,-207.7"/>
<polygon fill="none" stroke="#000000" points="352.5,-207.7 352.5,-229.7 553.5,-229.7 553.5,-207.7 352.5,-207.7"/>
<image xlink:href="../../images/foreignKeys.png" width="11px" height="12px" preserveAspectRatio="xMinYMin meet" x="357.5" y="-224.7"/>
<text text-anchor="start" x="372.5" y="-214.8" font-family="Helvetica,sans-Serif" font-size="11.00" fill="#000000">alert_code_id</text>
<polygon fill="#ffffff" stroke="transparent" points="352.5,-185.7 352.5,-207.7 553.5,-207.7 553.5,-185.7 352.5,-185.7"/>
<polygon fill="none" stroke="#000000" points="352.5,-185.7 352.5,-207.7 553.5,-207.7 553.5,-185.7 352.5,-185.7"/>
<image xlink:href="../../images/foreignKeys.png" width="11px" height="12px" preserveAspectRatio="xMinYMin meet" x="357.5" y="-202.7"/>
<text text-anchor="start" x="372.5" y="-192.8" font-family="Helvetica,sans-Serif" font-size="11.00" fill="#000000">prison_number</text>
<polygon fill="#ffffff" stroke="transparent" points="352.5,-163.7 352.5,-185.7 553.5,-185.7 553.5,-163.7 352.5,-163.7"/>
<polygon fill="none" stroke="#000000" points="352.5,-163.7 352.5,-185.7 553.5,-185.7 553.5,-163.7 352.5,-163.7"/>
<text text-anchor="start" x="372.5" y="-170.8" font-family="Helvetica,sans-Serif" font-size="11.00" fill="#000000">active_from</text>
<polygon fill="#ffffff" stroke="transparent" points="352.5,-141.7 352.5,-163.7 553.5,-163.7 553.5,-141.7 352.5,-141.7"/>
<polygon fill="none" stroke="#000000" points="352.5,-141.7 352.5,-163.7 553.5,-163.7 553.5,-141.7 352.5,-141.7"/>
<text text-anchor="start" x="372.5" y="-148.8" font-family="Helvetica,sans-Serif" font-size="11.00" fill="#000000">active_to</text>
<polygon fill="#ffffff" stroke="transparent" points="352.5,-119.7 352.5,-141.7 553.5,-141.7 553.5,-119.7 352.5,-119.7"/>
<polygon fill="none" stroke="#000000" points="352.5,-119.7 352.5,-141.7 553.5,-141.7 553.5,-119.7 352.5,-119.7"/>
<text text-anchor="start" x="372.5" y="-126.8" font-family="Helvetica,sans-Serif" font-size="11.00" fill="#000000">deleted_at</text>
<polygon fill="#ffffff" stroke="transparent" points="352.5,-97.7 352.5,-119.7 553.5,-119.7 553.5,-97.7 352.5,-97.7"/>
<polygon fill="none" stroke="#000000" points="352.5,-97.7 352.5,-119.7 553.5,-119.7 553.5,-97.7 352.5,-97.7"/>
<text text-anchor="start" x="372.5" y="-104.8" font-family="Helvetica,sans-Serif" font-size="11.00" fill="#000000">created_at</text>
<polygon fill="#ffffff" stroke="transparent" points="352.5,-75.7 352.5,-97.7 553.5,-97.7 553.5,-75.7 352.5,-75.7"/>
<polygon fill="none" stroke="#000000" points="352.5,-75.7 352.5,-97.7 553.5,-97.7 553.5,-75.7 352.5,-75.7"/>
<text text-anchor="start" x="372.5" y="-82.8" font-family="Helvetica,sans-Serif" font-size="11.00" fill="#000000">last_modified_at</text>
<polygon fill="none" stroke="#000000" points="352.5,-56.7 352.5,-75.7 553.5,-75.7 553.5,-56.7 352.5,-56.7"/>
<text text-anchor="start" x="355.5" y="-62.8" font-family="Helvetica,sans-Serif" font-size="11.00" fill="#000000">...</text>
<polygon fill="#ffffff" stroke="transparent" points="352.5,-37.7 352.5,-56.7 446.5,-56.7 446.5,-37.7 352.5,-37.7"/>
<polygon fill="none" stroke="#000000" points="352.5,-37.7 352.5,-56.7 446.5,-56.7 446.5,-37.7 352.5,-37.7"/>
<text text-anchor="start" x="355.5" y="-43.8" font-family="Helvetica,sans-Serif" font-size="11.00" fill="#000000">&lt; 1</text>
<polygon fill="#ffffff" stroke="transparent" points="446.5,-37.7 446.5,-56.7 495.5,-56.7 495.5,-37.7 446.5,-37.7"/>
<polygon fill="none" stroke="#000000" points="446.5,-37.7 446.5,-56.7 495.5,-56.7 495.5,-37.7 446.5,-37.7"/>
<text text-anchor="start" x="486.3862" y="-43.8" font-family="Helvetica,sans-Serif" font-size="11.00" fill="#000000"> &#160;</text>
<polygon fill="#ffffff" stroke="transparent" points="495.5,-37.7 495.5,-56.7 553.5,-56.7 553.5,-37.7 495.5,-37.7"/>
<polygon fill="none" stroke="#000000" points="495.5,-37.7 495.5,-56.7 553.5,-56.7 553.5,-37.7 495.5,-37.7"/>
<text text-anchor="start" x="534.9053" y="-43.8" font-family="Helvetica,sans-Serif" font-size="11.00" fill="#000000">1 &gt;</text>
</a>
</g>
</g>
<!-- audit_event&#45;&gt;alert -->
<g id="edge3" class="edge">
<title>audit_event:w&#45;&gt;alert:e</title>
<path fill="none" stroke="#000000" d="M587.9909,-240.7C576.6774,-240.7 569.4931,-240.7 553.5,-240.7"/>
<polygon fill="#000000" stroke="#000000" points="594.5,-240.7001 602.5,-244.3 598.5,-240.7 602.5,-240.7 602.5,-240.7 602.5,-240.7 598.5,-240.7 602.5,-237.1 594.5,-240.7001 594.5,-240.7001"/>
<ellipse fill="none" stroke="#000000" cx="591.3" cy="-240.7001" rx="3.2" ry="3.2"/>
</g>
<!-- alert_code -->
<g id="node2" class="node">
<title>alert_code</title>
<g id="a_node2"><a xlink:href="../../tables/alert_code.html" xlink:title="alert_code" target="_top">
<polygon fill="#ffffff" stroke="transparent" points="180,-60.2 180,-253.2 303,-253.2 303,-60.2 180,-60.2"/>
<polygon fill="#f5f5f5" stroke="transparent" points="180.5,-229.7 180.5,-252.7 303.5,-252.7 303.5,-229.7 180.5,-229.7"/>
<polygon fill="none" stroke="#000000" points="180.5,-229.7 180.5,-252.7 303.5,-252.7 303.5,-229.7 180.5,-229.7"/>
<text text-anchor="start" x="185.5" y="-238.3" font-family="Helvetica,sans-Serif" font-weight="bold" font-size="11.00" fill="#000000">alert_code</text>
<text text-anchor="start" x="268.5437" y="-237.8" font-family="Helvetica,sans-Serif" font-size="11.00" fill="#000000">[table]</text>
<polygon fill="none" stroke="#000000" points="180.5,-207.7 180.5,-229.7 303.5,-229.7 303.5,-207.7 180.5,-207.7"/>
<image xlink:href="../../images/primaryKeys.png" width="11px" height="12px" preserveAspectRatio="xMinYMin meet" x="185.5" y="-224.7"/>
<text text-anchor="start" x="200.5" y="-214.8" font-family="Helvetica,sans-Serif" font-size="11.00" fill="#000000">alert_code_id</text>
<polygon fill="#ffffff" stroke="transparent" points="180.5,-185.7 180.5,-207.7 303.5,-207.7 303.5,-185.7 180.5,-185.7"/>
<polygon fill="none" stroke="#000000" points="180.5,-185.7 180.5,-207.7 303.5,-207.7 303.5,-185.7 180.5,-185.7"/>
<image xlink:href="../../images/foreignKeys.png" width="11px" height="12px" preserveAspectRatio="xMinYMin meet" x="185.5" y="-202.7"/>
<text text-anchor="start" x="200.5" y="-192.8" font-family="Helvetica,sans-Serif" font-size="11.00" fill="#000000">alert_type_id</text>
<polygon fill="#ffffff" stroke="transparent" points="180.5,-163.7 180.5,-185.7 303.5,-185.7 303.5,-163.7 180.5,-163.7"/>
<polygon fill="none" stroke="#000000" points="180.5,-163.7 180.5,-185.7 303.5,-185.7 303.5,-163.7 180.5,-163.7"/>
<text text-anchor="start" x="200.5" y="-170.8" font-family="Helvetica,sans-Serif" font-size="11.00" fill="#000000">code</text>
<polygon fill="#ffffff" stroke="transparent" points="180.5,-141.7 180.5,-163.7 303.5,-163.7 303.5,-141.7 180.5,-141.7"/>
<polygon fill="none" stroke="#000000" points="180.5,-141.7 180.5,-163.7 303.5,-163.7 303.5,-141.7 180.5,-141.7"/>
<text text-anchor="start" x="200.5" y="-148.8" font-family="Helvetica,sans-Serif" font-size="11.00" fill="#000000">list_sequence</text>
<polygon fill="#ffffff" stroke="transparent" points="180.5,-119.7 180.5,-141.7 303.5,-141.7 303.5,-119.7 180.5,-119.7"/>
<polygon fill="none" stroke="#000000" points="180.5,-119.7 180.5,-141.7 303.5,-141.7 303.5,-119.7 180.5,-119.7"/>
<text text-anchor="start" x="200.5" y="-126.8" font-family="Helvetica,sans-Serif" font-size="11.00" fill="#000000">created_at</text>
<polygon fill="#ffffff" stroke="transparent" points="180.5,-97.7 180.5,-119.7 303.5,-119.7 303.5,-97.7 180.5,-97.7"/>
<polygon fill="none" stroke="#000000" points="180.5,-97.7 180.5,-119.7 303.5,-119.7 303.5,-97.7 180.5,-97.7"/>
<text text-anchor="start" x="200.5" y="-104.8" font-family="Helvetica,sans-Serif" font-size="11.00" fill="#000000">deactivated_at</text>
<polygon fill="none" stroke="#000000" points="180.5,-78.7 180.5,-97.7 303.5,-97.7 303.5,-78.7 180.5,-78.7"/>
<text text-anchor="start" x="183.5" y="-84.8" font-family="Helvetica,sans-Serif" font-size="11.00" fill="#000000">...</text>
<polygon fill="#ffffff" stroke="transparent" points="180.5,-59.7 180.5,-78.7 235.5,-78.7 235.5,-59.7 180.5,-59.7"/>
<polygon fill="none" stroke="#000000" points="180.5,-59.7 180.5,-78.7 235.5,-78.7 235.5,-59.7 180.5,-59.7"/>
<text text-anchor="start" x="183.5" y="-65.8" font-family="Helvetica,sans-Serif" font-size="11.00" fill="#000000">&lt; 1</text>
<polygon fill="#ffffff" stroke="transparent" points="235.5,-59.7 235.5,-78.7 264.5,-78.7 264.5,-59.7 235.5,-59.7"/>
<polygon fill="none" stroke="#000000" points="235.5,-59.7 235.5,-78.7 264.5,-78.7 264.5,-59.7 235.5,-59.7"/>
<text text-anchor="start" x="255.3862" y="-65.8" font-family="Helvetica,sans-Serif" font-size="11.00" fill="#000000"> &#160;</text>
<polygon fill="#ffffff" stroke="transparent" points="264.5,-59.7 264.5,-78.7 303.5,-78.7 303.5,-59.7 264.5,-59.7"/>
<polygon fill="none" stroke="#000000" points="264.5,-59.7 264.5,-78.7 303.5,-78.7 303.5,-59.7 264.5,-59.7"/>
<text text-anchor="start" x="284.9053" y="-65.8" font-family="Helvetica,sans-Serif" font-size="11.00" fill="#000000">1 &gt;</text>
</a>
</g>
</g>
<!-- alert_type -->
<g id="node6" class="node">
<title>alert_type</title>
<g id="a_node6"><a xlink:href="../../tables/alert_type.html" xlink:title="alert_type" target="_top">
<polygon fill="#ffffff" stroke="transparent" points="8,-60.2 8,-231.2 131,-231.2 131,-60.2 8,-60.2"/>
<polygon fill="#f5f5f5" stroke="transparent" points="8.5,-207.7 8.5,-230.7 131.5,-230.7 131.5,-207.7 8.5,-207.7"/>
<polygon fill="none" stroke="#000000" points="8.5,-207.7 8.5,-230.7 131.5,-230.7 131.5,-207.7 8.5,-207.7"/>
<text text-anchor="start" x="13.5" y="-216.3" font-family="Helvetica,sans-Serif" font-weight="bold" font-size="11.00" fill="#000000">alert_type</text>
<text text-anchor="start" x="96.5437" y="-215.8" font-family="Helvetica,sans-Serif" font-size="11.00" fill="#000000">[table]</text>
<polygon fill="none" stroke="#000000" points="8.5,-185.7 8.5,-207.7 131.5,-207.7 131.5,-185.7 8.5,-185.7"/>
<image xlink:href="../../images/primaryKeys.png" width="11px" height="12px" preserveAspectRatio="xMinYMin meet" x="13.5" y="-202.7"/>
<text text-anchor="start" x="28.5" y="-192.8" font-family="Helvetica,sans-Serif" font-size="11.00" fill="#000000">alert_type_id</text>
<polygon fill="#ffffff" stroke="transparent" points="8.5,-163.7 8.5,-185.7 131.5,-185.7 131.5,-163.7 8.5,-163.7"/>
<polygon fill="none" stroke="#000000" points="8.5,-163.7 8.5,-185.7 131.5,-185.7 131.5,-163.7 8.5,-163.7"/>
<text text-anchor="start" x="28.5" y="-170.8" font-family="Helvetica,sans-Serif" font-size="11.00" fill="#000000">code</text>
<polygon fill="#ffffff" stroke="transparent" points="8.5,-141.7 8.5,-163.7 131.5,-163.7 131.5,-141.7 8.5,-141.7"/>
<polygon fill="none" stroke="#000000" points="8.5,-141.7 8.5,-163.7 131.5,-163.7 131.5,-141.7 8.5,-141.7"/>
<text text-anchor="start" x="28.5" y="-148.8" font-family="Helvetica,sans-Serif" font-size="11.00" fill="#000000">list_sequence</text>
<polygon fill="#ffffff" stroke="transparent" points="8.5,-119.7 8.5,-141.7 131.5,-141.7 131.5,-119.7 8.5,-119.7"/>
<polygon fill="none" stroke="#000000" points="8.5,-119.7 8.5,-141.7 131.5,-141.7 131.5,-119.7 8.5,-119.7"/>
<text text-anchor="start" x="28.5" y="-126.8" font-family="Helvetica,sans-Serif" font-size="11.00" fill="#000000">created_at</text>
<polygon fill="#ffffff" stroke="transparent" points="8.5,-97.7 8.5,-119.7 131.5,-119.7 131.5,-97.7 8.5,-97.7"/>
<polygon fill="none" stroke="#000000" points="8.5,-97.7 8.5,-119.7 131.5,-119.7 131.5,-97.7 8.5,-97.7"/>
<text text-anchor="start" x="28.5" y="-104.8" font-family="Helvetica,sans-Serif" font-size="11.00" fill="#000000">deactivated_at</text>
<polygon fill="none" stroke="#000000" points="8.5,-78.7 8.5,-97.7 131.5,-97.7 131.5,-78.7 8.5,-78.7"/>
<text text-anchor="start" x="11.5" y="-84.8" font-family="Helvetica,sans-Serif" font-size="11.00" fill="#000000">...</text>
<polygon fill="#ffffff" stroke="transparent" points="8.5,-59.7 8.5,-78.7 59.5,-78.7 59.5,-59.7 8.5,-59.7"/>
<polygon fill="none" stroke="#000000" points="8.5,-59.7 8.5,-78.7 59.5,-78.7 59.5,-59.7 8.5,-59.7"/>
<text text-anchor="start" x="11.5" y="-65.8" font-family="Helvetica,sans-Serif" font-size="11.00" fill="#000000"> &#160;</text>
<polygon fill="#ffffff" stroke="transparent" points="59.5,-59.7 59.5,-78.7 90.5,-78.7 90.5,-59.7 59.5,-59.7"/>
<polygon fill="none" stroke="#000000" points="59.5,-59.7 59.5,-78.7 90.5,-78.7 90.5,-59.7 59.5,-59.7"/>
<text text-anchor="start" x="81.3862" y="-65.8" font-family="Helvetica,sans-Serif" font-size="11.00" fill="#000000"> &#160;</text>
<polygon fill="#ffffff" stroke="transparent" points="90.5,-59.7 90.5,-78.7 131.5,-78.7 131.5,-59.7 90.5,-59.7"/>
<polygon fill="none" stroke="#000000" points="90.5,-59.7 90.5,-78.7 131.5,-78.7 131.5,-59.7 90.5,-59.7"/>
<text text-anchor="start" x="112.9053" y="-65.8" font-family="Helvetica,sans-Serif" font-size="11.00" fill="#000000">1 &gt;</text>
</a>
</g>
</g>
<!-- alert_code&#45;&gt;alert_type -->
<g id="edge2" class="edge">
<title>alert_code:w&#45;&gt;alert_type:e</title>
<path fill="none" stroke="#000000" d="M165.9909,-196.7C154.6774,-196.7 147.4931,-196.7 131.5,-196.7"/>
<polygon fill="#000000" stroke="#000000" points="172.5,-196.7001 180.5,-200.3 176.5,-196.7 180.5,-196.7 180.5,-196.7 180.5,-196.7 176.5,-196.7 180.5,-193.1 172.5,-196.7001 172.5,-196.7001"/>
<ellipse fill="none" stroke="#000000" cx="169.3" cy="-196.7001" rx="3.2" ry="3.2"/>
</g>
<!-- alert&#45;&gt;alert_code -->
<g id="edge1" class="edge">
<title>alert:w&#45;&gt;alert_code:e</title>
<path fill="none" stroke="#000000" d="M337.9909,-218.7C326.6774,-218.7 319.4931,-218.7 303.5,-218.7"/>
<polygon fill="#000000" stroke="#000000" points="344.5,-218.7001 352.5,-222.3 348.5,-218.7 352.5,-218.7 352.5,-218.7 352.5,-218.7 348.5,-218.7 352.5,-215.1 344.5,-218.7001 344.5,-218.7001"/>
<ellipse fill="none" stroke="#000000" cx="341.3" cy="-218.7001" rx="3.2" ry="3.2"/>
</g>
<!-- bulk_plan -->
<g id="node4" class="node">
<title>bulk_plan</title>
<g id="a_node4"><a xlink:href="../../tables/bulk_plan.html" xlink:title="bulk_plan" target="_top">
<polygon fill="#ffffff" stroke="transparent" points="356.5,-432.2 356.5,-515.2 548.5,-515.2 548.5,-432.2 356.5,-432.2"/>
<polygon fill="#f5f5f5" stroke="transparent" points="356.5,-491.7 356.5,-514.7 548.5,-514.7 548.5,-491.7 356.5,-491.7"/>
<polygon fill="none" stroke="#000000" points="356.5,-491.7 356.5,-514.7 548.5,-514.7 548.5,-491.7 356.5,-491.7"/>
<text text-anchor="start" x="361.5" y="-500.3" font-family="Helvetica,sans-Serif" font-weight="bold" font-size="11.00" fill="#000000">bulk_plan</text>
<text text-anchor="start" x="513.5437" y="-499.8" font-family="Helvetica,sans-Serif" font-size="11.00" fill="#000000">[table]</text>
<polygon fill="none" stroke="#000000" points="356.5,-469.7 356.5,-491.7 548.5,-491.7 548.5,-469.7 356.5,-469.7"/>
<image xlink:href="../../images/primaryKeys.png" width="11px" height="12px" preserveAspectRatio="xMinYMin meet" x="361.5" y="-486.7"/>
<text text-anchor="start" x="376.5" y="-476.8" font-family="Helvetica,sans-Serif" font-size="11.00" fill="#000000">id</text>
<polygon fill="none" stroke="#000000" points="356.5,-450.7 356.5,-469.7 548.5,-469.7 548.5,-450.7 356.5,-450.7"/>
<text text-anchor="start" x="359.5" y="-456.8" font-family="Helvetica,sans-Serif" font-size="11.00" fill="#000000">...</text>
<polygon fill="#ffffff" stroke="transparent" points="356.5,-431.7 356.5,-450.7 441.5,-450.7 441.5,-431.7 356.5,-431.7"/>
<polygon fill="none" stroke="#000000" points="356.5,-431.7 356.5,-450.7 441.5,-450.7 441.5,-431.7 356.5,-431.7"/>
<text text-anchor="start" x="359.5" y="-437.8" font-family="Helvetica,sans-Serif" font-size="11.00" fill="#000000"> &#160;</text>
<polygon fill="#ffffff" stroke="transparent" points="441.5,-431.7 441.5,-450.7 490.5,-450.7 490.5,-431.7 441.5,-431.7"/>
<polygon fill="none" stroke="#000000" points="441.5,-431.7 441.5,-450.7 490.5,-450.7 490.5,-431.7 441.5,-431.7"/>
<text text-anchor="start" x="481.3862" y="-437.8" font-family="Helvetica,sans-Serif" font-size="11.00" fill="#000000"> &#160;</text>
<polygon fill="#ffffff" stroke="transparent" points="490.5,-431.7 490.5,-450.7 548.5,-450.7 548.5,-431.7 490.5,-431.7"/>
<polygon fill="none" stroke="#000000" points="490.5,-431.7 490.5,-450.7 548.5,-450.7 548.5,-431.7 490.5,-431.7"/>
<text text-anchor="start" x="529.9053" y="-437.8" font-family="Helvetica,sans-Serif" font-size="11.00" fill="#000000">1 &gt;</text>
</a>
</g>
</g>
<!-- plan_person -->
<g id="node5" class="node">
<title>plan_person</title>
<g id="a_node5"><a xlink:href="../../tables/plan_person.html" xlink:title="plan_person" target="_top">
<polygon fill="#ffffff" stroke="transparent" points="641,-379.7 641,-465.7 762,-465.7 762,-379.7 641,-379.7"/>
<polygon fill="#f5f5f5" stroke="transparent" points="641.5,-442.7 641.5,-465.7 762.5,-465.7 762.5,-442.7 641.5,-442.7"/>
<polygon fill="none" stroke="#000000" points="641.5,-442.7 641.5,-465.7 762.5,-465.7 762.5,-442.7 641.5,-442.7"/>
<text text-anchor="start" x="646.5" y="-451.3" font-family="Helvetica,sans-Serif" font-weight="bold" font-size="11.00" fill="#000000">plan_person</text>
<text text-anchor="start" x="728.0219" y="-450.8" font-family="Helvetica,sans-Serif" font-size="11.00" fill="#000000">[table]</text>
<polygon fill="none" stroke="#000000" points="641.5,-420.7 641.5,-442.7 762.5,-442.7 762.5,-420.7 641.5,-420.7"/>
<image xlink:href="../../images/foreignKeys.png" width="11px" height="12px" preserveAspectRatio="xMinYMin meet" x="646.5" y="-437.7"/>
<text text-anchor="start" x="661.5" y="-427.8" font-family="Helvetica,sans-Serif" font-size="11.00" fill="#000000">plan_id</text>
<polygon fill="none" stroke="#000000" points="641.5,-398.7 641.5,-420.7 762.5,-420.7 762.5,-398.7 641.5,-398.7"/>
<image xlink:href="../../images/foreignKeys.png" width="11px" height="12px" preserveAspectRatio="xMinYMin meet" x="646.5" y="-415.7"/>
<text text-anchor="start" x="661.5" y="-405.8" font-family="Helvetica,sans-Serif" font-size="11.00" fill="#000000">prison_number</text>
<polygon fill="#ffffff" stroke="transparent" points="641.5,-379.7 641.5,-398.7 700.5,-398.7 700.5,-379.7 641.5,-379.7"/>
<polygon fill="none" stroke="#000000" points="641.5,-379.7 641.5,-398.7 700.5,-398.7 700.5,-379.7 641.5,-379.7"/>
<text text-anchor="start" x="644.5" y="-385.8" font-family="Helvetica,sans-Serif" font-size="11.00" fill="#000000">&lt; 2</text>
<polygon fill="#ffffff" stroke="transparent" points="700.5,-379.7 700.5,-398.7 731.5,-398.7 731.5,-379.7 700.5,-379.7"/>
<polygon fill="none" stroke="#000000" points="700.5,-379.7 700.5,-398.7 731.5,-398.7 731.5,-379.7 700.5,-379.7"/>
<text text-anchor="start" x="722.3862" y="-385.8" font-family="Helvetica,sans-Serif" font-size="11.00" fill="#000000"> &#160;</text>
<polygon fill="#ffffff" stroke="transparent" points="731.5,-379.7 731.5,-398.7 762.5,-398.7 762.5,-379.7 731.5,-379.7"/>
<polygon fill="none" stroke="#000000" points="731.5,-379.7 731.5,-398.7 762.5,-398.7 762.5,-379.7 731.5,-379.7"/>
<text text-anchor="start" x="753.3862" y="-385.8" font-family="Helvetica,sans-Serif" font-size="11.00" fill="#000000"> &#160;</text>
</a>
</g>
</g>
<!-- plan_person&#45;&gt;bulk_plan -->
<g id="edge4" class="edge">
<title>plan_person:w&#45;&gt;bulk_plan:e</title>
<path fill="none" stroke="#000000" d="M626.8662,-433.561C594.2357,-442.5115 589.7446,-480.7 548.5,-480.7"/>
<polygon fill="#000000" stroke="#000000" points="633.5639,-432.7093 641.9542,-435.2712 637.532,-432.2047 641.5,-431.7 641.5,-431.7 641.5,-431.7 637.532,-432.2047 641.0458,-428.1288 633.5639,-432.7093 633.5639,-432.7093"/>
<ellipse fill="none" stroke="#000000" cx="630.3895" cy="-433.113" rx="3.2" ry="3.2"/>
</g>
<!-- person_summary -->
<g id="node7" class="node">
<title>person_summary</title>
<g id="a_node7"><a xlink:href="../../tables/person_summary.html" xlink:title="person_summary" target="_top">
<polygon fill="#ffffff" stroke="transparent" points="362,-328.2 362,-411.2 543,-411.2 543,-328.2 362,-328.2"/>
<polygon fill="#f5f5f5" stroke="transparent" points="362.5,-387.7 362.5,-410.7 543.5,-410.7 543.5,-387.7 362.5,-387.7"/>
<polygon fill="none" stroke="#000000" points="362.5,-387.7 362.5,-410.7 543.5,-410.7 543.5,-387.7 362.5,-387.7"/>
<text text-anchor="start" x="367.5" y="-396.3" font-family="Helvetica,sans-Serif" font-weight="bold" font-size="11.00" fill="#000000">person_summary</text>
<text text-anchor="start" x="508.5437" y="-395.8" font-family="Helvetica,sans-Serif" font-size="11.00" fill="#000000">[table]</text>
<polygon fill="none" stroke="#000000" points="362.5,-365.7 362.5,-387.7 543.5,-387.7 543.5,-365.7 362.5,-365.7"/>
<image xlink:href="../../images/primaryKeys.png" width="11px" height="12px" preserveAspectRatio="xMinYMin meet" x="367.5" y="-382.7"/>
<text text-anchor="start" x="382.5" y="-372.8" font-family="Helvetica,sans-Serif" font-size="11.00" fill="#000000">prison_number</text>
<polygon fill="none" stroke="#000000" points="362.5,-346.7 362.5,-365.7 543.5,-365.7 543.5,-346.7 362.5,-346.7"/>
<text text-anchor="start" x="365.5" y="-352.8" font-family="Helvetica,sans-Serif" font-size="11.00" fill="#000000">...</text>
<polygon fill="#ffffff" stroke="transparent" points="362.5,-327.7 362.5,-346.7 442.5,-346.7 442.5,-327.7 362.5,-327.7"/>
<polygon fill="none" stroke="#000000" points="362.5,-327.7 362.5,-346.7 442.5,-346.7 442.5,-327.7 362.5,-327.7"/>
<text text-anchor="start" x="365.5" y="-333.8" font-family="Helvetica,sans-Serif" font-size="11.00" fill="#000000"> &#160;</text>
<polygon fill="#ffffff" stroke="transparent" points="442.5,-327.7 442.5,-346.7 488.5,-346.7 488.5,-327.7 442.5,-327.7"/>
<polygon fill="none" stroke="#000000" points="442.5,-327.7 442.5,-346.7 488.5,-346.7 488.5,-327.7 442.5,-327.7"/>
<text text-anchor="start" x="479.3862" y="-333.8" font-family="Helvetica,sans-Serif" font-size="11.00" fill="#000000"> &#160;</text>
<polygon fill="#ffffff" stroke="transparent" points="488.5,-327.7 488.5,-346.7 543.5,-346.7 543.5,-327.7 488.5,-327.7"/>
<polygon fill="none" stroke="#000000" points="488.5,-327.7 488.5,-346.7 543.5,-346.7 543.5,-327.7 488.5,-327.7"/>
<text text-anchor="start" x="524.9053" y="-333.8" font-family="Helvetica,sans-Serif" font-size="11.00" fill="#000000">1 &gt;</text>
</a>
</g>
</g>
<!-- plan_person&#45;&gt;person_summary -->
<g id="edge5" class="edge">
<title>plan_person:w&#45;&gt;person_summary:e</title>
<path fill="none" stroke="#000000" d="M626.8572,-408.4467C593.5681,-402.4188 584.0729,-376.7 543.5,-376.7"/>
<polygon fill="#000000" stroke="#000000" points="633.5291,-409.0177 641.193,-413.2869 637.5146,-409.3588 641.5,-409.7 641.5,-409.7 641.5,-409.7 637.5146,-409.3588 641.807,-406.1131 633.5291,-409.0177 633.5291,-409.0177"/>
<ellipse fill="none" stroke="#000000" cx="630.3408" cy="-408.7448" rx="3.2" ry="3.2"/>
</g>
</g>
</svg>
