<?xml version="1.0" encoding="UTF-8" standalone="no"?>
<!DOCTYPE svg PUBLIC "-//W3C//DTD SVG 1.1//EN"
 "http://www.w3.org/Graphics/SVG/1.1/DTD/svg11.dtd">
<!-- Generated by graphviz version 2.40.1 (20161225.0304)
 -->
<!-- Title: compactRelationshipsDiagram Pages: 1 -->
<svg width="834pt" height="603pt"
 viewBox="0.00 0.00 834.00 603.20" xmlns="http://www.w3.org/2000/svg" xmlns:xlink="http://www.w3.org/1999/xlink">
<g id="graph0" class="graph" transform="scale(1 1) rotate(0) translate(4 599.2)">
<title>compactRelationshipsDiagram</title>
<polygon fill="#ffffff" stroke="transparent" points="-4,4 -4,-599.2 830,-599.2 830,4 -4,4"/>
<text text-anchor="middle" x="72.4936" y="-7.3" font-family="Helvetica,sans-Serif" font-size="11.00" fill="#000000">Generated by SchemaSpy</text>
<!-- alert_code_privileged_user -->
<g id="node1" class="node">
<title>alert_code_privileged_user</title>
<g id="a_node1"><a xlink:href="../../tables/alert_code_privileged_user.html" xlink:title="alert_code_privileged_user" target="_top">
<polygon fill="#ffffff" stroke="transparent" points="352,-296.7 352,-382.7 570,-382.7 570,-296.7 352,-296.7"/>
<polygon fill="#f5f5f5" stroke="transparent" points="352,-359.7 352,-382.7 570,-382.7 570,-359.7 352,-359.7"/>
<polygon fill="none" stroke="#000000" points="352,-359.7 352,-382.7 570,-382.7 570,-359.7 352,-359.7"/>
<text text-anchor="start" x="357" y="-368.3" font-family="Helvetica,sans-Serif" font-weight="bold" font-size="11.00" fill="#000000">alert_code_privileged_user</text>
<text text-anchor="start" x="535.5219" y="-367.8" font-family="Helvetica,sans-Serif" font-size="11.00" fill="#000000">[table]</text>
<polygon fill="none" stroke="#000000" points="352,-337.7 352,-359.7 570,-359.7 570,-337.7 352,-337.7"/>
<image xlink:href="../../images/primaryKeys.png" width="11px" height="12px" preserveAspectRatio="xMinYMin meet" x="357" y="-354.7"/>
<text text-anchor="start" x="381" y="-344.8" font-family="Helvetica,sans-Serif" font-size="11.00" fill="#000000">alert_code_id</text>
<polygon fill="none" stroke="#000000" points="352,-315.7 352,-337.7 570,-337.7 570,-315.7 352,-315.7"/>
<image xlink:href="../../images/primaryKeys.png" width="11px" height="12px" preserveAspectRatio="xMinYMin meet" x="357" y="-332.7"/>
<text text-anchor="start" x="381" y="-322.8" font-family="Helvetica,sans-Serif" font-size="11.00" fill="#000000">username</text>
<polygon fill="#ffffff" stroke="transparent" points="352,-296.7 352,-315.7 459,-315.7 459,-296.7 352,-296.7"/>
<polygon fill="none" stroke="#000000" points="352,-296.7 352,-315.7 459,-315.7 459,-296.7 352,-296.7"/>
<text text-anchor="start" x="355" y="-302.8" font-family="Helvetica,sans-Serif" font-size="11.00" fill="#000000">&lt; 1</text>
<polygon fill="#ffffff" stroke="transparent" points="459,-296.7 459,-315.7 514,-315.7 514,-296.7 459,-296.7"/>
<polygon fill="none" stroke="#000000" points="459,-296.7 459,-315.7 514,-315.7 514,-296.7 459,-296.7"/>
<text text-anchor="start" x="504.8862" y="-302.8" font-family="Helvetica,sans-Serif" font-size="11.00" fill="#000000"> &#160;</text>
<polygon fill="#ffffff" stroke="transparent" points="514,-296.7 514,-315.7 570,-315.7 570,-296.7 514,-296.7"/>
<polygon fill="none" stroke="#000000" points="514,-296.7 514,-315.7 570,-315.7 570,-296.7 514,-296.7"/>
<text text-anchor="start" x="560.8862" y="-302.8" font-family="Helvetica,sans-Serif" font-size="11.00" fill="#000000"> &#160;</text>
</a>
</g>
</g>
<!-- alert_code -->
<g id="node3" class="node">
<title>alert_code</title>
<g id="a_node3"><a xlink:href="../../tables/alert_code.html" xlink:title="alert_code" target="_top">
<polygon fill="#ffffff" stroke="transparent" points="180,-125.2 180,-318.2 303,-318.2 303,-125.2 180,-125.2"/>
<polygon fill="#f5f5f5" stroke="transparent" points="180.5,-294.7 180.5,-317.7 303.5,-317.7 303.5,-294.7 180.5,-294.7"/>
<polygon fill="none" stroke="#000000" points="180.5,-294.7 180.5,-317.7 303.5,-317.7 303.5,-294.7 180.5,-294.7"/>
<text text-anchor="start" x="185.5" y="-303.3" font-family="Helvetica,sans-Serif" font-weight="bold" font-size="11.00" fill="#000000">alert_code</text>
<text text-anchor="start" x="268.5437" y="-302.8" font-family="Helvetica,sans-Serif" font-size="11.00" fill="#000000">[table]</text>
<polygon fill="none" stroke="#000000" points="180.5,-272.7 180.5,-294.7 303.5,-294.7 303.5,-272.7 180.5,-272.7"/>
<image xlink:href="../../images/primaryKeys.png" width="11px" height="12px" preserveAspectRatio="xMinYMin meet" x="185.5" y="-289.7"/>
<text text-anchor="start" x="200.5" y="-279.8" font-family="Helvetica,sans-Serif" font-size="11.00" fill="#000000">alert_code_id</text>
<polygon fill="#ffffff" stroke="transparent" points="180.5,-250.7 180.5,-272.7 303.5,-272.7 303.5,-250.7 180.5,-250.7"/>
<polygon fill="none" stroke="#000000" points="180.5,-250.7 180.5,-272.7 303.5,-272.7 303.5,-250.7 180.5,-250.7"/>
<image xlink:href="../../images/foreignKeys.png" width="11px" height="12px" preserveAspectRatio="xMinYMin meet" x="185.5" y="-267.7"/>
<text text-anchor="start" x="200.5" y="-257.8" font-family="Helvetica,sans-Serif" font-size="11.00" fill="#000000">alert_type_id</text>
<polygon fill="#ffffff" stroke="transparent" points="180.5,-228.7 180.5,-250.7 303.5,-250.7 303.5,-228.7 180.5,-228.7"/>
<polygon fill="none" stroke="#000000" points="180.5,-228.7 180.5,-250.7 303.5,-250.7 303.5,-228.7 180.5,-228.7"/>
<text text-anchor="start" x="200.5" y="-235.8" font-family="Helvetica,sans-Serif" font-size="11.00" fill="#000000">code</text>
<polygon fill="#ffffff" stroke="transparent" points="180.5,-206.7 180.5,-228.7 303.5,-228.7 303.5,-206.7 180.5,-206.7"/>
<polygon fill="none" stroke="#000000" points="180.5,-206.7 180.5,-228.7 303.5,-228.7 303.5,-206.7 180.5,-206.7"/>
<text text-anchor="start" x="200.5" y="-213.8" font-family="Helvetica,sans-Serif" font-size="11.00" fill="#000000">list_sequence</text>
<polygon fill="#ffffff" stroke="transparent" points="180.5,-184.7 180.5,-206.7 303.5,-206.7 303.5,-184.7 180.5,-184.7"/>
<polygon fill="none" stroke="#000000" points="180.5,-184.7 180.5,-206.7 303.5,-206.7 303.5,-184.7 180.5,-184.7"/>
<text text-anchor="start" x="200.5" y="-191.8" font-family="Helvetica,sans-Serif" font-size="11.00" fill="#000000">created_at</text>
<polygon fill="#ffffff" stroke="transparent" points="180.5,-162.7 180.5,-184.7 303.5,-184.7 303.5,-162.7 180.5,-162.7"/>
<polygon fill="none" stroke="#000000" points="180.5,-162.7 180.5,-184.7 303.5,-184.7 303.5,-162.7 180.5,-162.7"/>
<text text-anchor="start" x="200.5" y="-169.8" font-family="Helvetica,sans-Serif" font-size="11.00" fill="#000000">deactivated_at</text>
<polygon fill="none" stroke="#000000" points="180.5,-143.7 180.5,-162.7 303.5,-162.7 303.5,-143.7 180.5,-143.7"/>
<text text-anchor="start" x="183.5" y="-149.8" font-family="Helvetica,sans-Serif" font-size="11.00" fill="#000000">...</text>
<polygon fill="#ffffff" stroke="transparent" points="180.5,-124.7 180.5,-143.7 216.5,-143.7 216.5,-124.7 180.5,-124.7"/>
<polygon fill="none" stroke="#000000" points="180.5,-124.7 180.5,-143.7 216.5,-143.7 216.5,-124.7 180.5,-124.7"/>
<text text-anchor="start" x="183.5" y="-130.8" font-family="Helvetica,sans-Serif" font-size="11.00" fill="#000000">&lt; 1</text>
<polygon fill="#ffffff" stroke="transparent" points="216.5,-124.7 216.5,-143.7 274.5,-143.7 274.5,-124.7 216.5,-124.7"/>
<polygon fill="none" stroke="#000000" points="216.5,-124.7 216.5,-143.7 274.5,-143.7 274.5,-124.7 216.5,-124.7"/>
<text text-anchor="start" x="226.8807" y="-130.8" font-family="Helvetica,sans-Serif" font-size="11.00" fill="#000000">213 rows</text>
<polygon fill="#ffffff" stroke="transparent" points="274.5,-124.7 274.5,-143.7 303.5,-143.7 303.5,-124.7 274.5,-124.7"/>
<polygon fill="none" stroke="#000000" points="274.5,-124.7 274.5,-143.7 303.5,-143.7 303.5,-124.7 274.5,-124.7"/>
<text text-anchor="start" x="284.9053" y="-130.8" font-family="Helvetica,sans-Serif" font-size="11.00" fill="#000000">2 &gt;</text>
</a>
</g>
</g>
<!-- alert_code_privileged_user&#45;&gt;alert_code -->
<g id="edge3" class="edge">
<title>alert_code_privileged_user:w&#45;&gt;alert_code:e</title>
<path fill="none" stroke="#000000" d="M338.0939,-343.5996C322.3026,-328.2764 333.3494,-283.7 303.5,-283.7"/>
<polygon fill="#000000" stroke="#000000" points="344.4893,-345.9452 350.7603,-352.0798 348.2446,-347.3226 352,-348.7 352,-348.7 352,-348.7 348.2446,-347.3226 353.2397,-345.3202 344.4893,-345.9452 344.4893,-345.9452"/>
<ellipse fill="none" stroke="#000000" cx="341.485" cy="-344.8433" rx="3.2" ry="3.2"/>
</g>
<!-- audit_event -->
<g id="node2" class="node">
<title>audit_event</title>
<g id="a_node2"><a xlink:href="../../tables/audit_event.html" xlink:title="audit_event" target="_top">
<polygon fill="#ffffff" stroke="transparent" points="619,-170.2 619,-341.2 818,-341.2 818,-170.2 619,-170.2"/>
<polygon fill="#f5f5f5" stroke="transparent" points="619.5,-317.7 619.5,-340.7 818.5,-340.7 818.5,-317.7 619.5,-317.7"/>
<polygon fill="none" stroke="#000000" points="619.5,-317.7 619.5,-340.7 818.5,-340.7 818.5,-317.7 619.5,-317.7"/>
<text text-anchor="start" x="624.5" y="-326.3" font-family="Helvetica,sans-Serif" font-weight="bold" font-size="11.00" fill="#000000">audit_event</text>
<text text-anchor="start" x="783.5437" y="-325.8" font-family="Helvetica,sans-Serif" font-size="11.00" fill="#000000">[table]</text>
<polygon fill="#ffffff" stroke="transparent" points="619.5,-295.7 619.5,-317.7 818.5,-317.7 818.5,-295.7 619.5,-295.7"/>
<polygon fill="none" stroke="#000000" points="619.5,-295.7 619.5,-317.7 818.5,-317.7 818.5,-295.7 619.5,-295.7"/>
<text text-anchor="start" x="639.5" y="-302.8" font-family="Helvetica,sans-Serif" font-size="11.00" fill="#000000">action</text>
<polygon fill="#ffffff" stroke="transparent" points="619.5,-273.7 619.5,-295.7 818.5,-295.7 818.5,-273.7 619.5,-273.7"/>
<polygon fill="none" stroke="#000000" points="619.5,-273.7 619.5,-295.7 818.5,-295.7 818.5,-273.7 619.5,-273.7"/>
<text text-anchor="start" x="639.5" y="-280.8" font-family="Helvetica,sans-Serif" font-size="11.00" fill="#000000">actioned_at</text>
<polygon fill="#ffffff" stroke="transparent" points="619.5,-251.7 619.5,-273.7 818.5,-273.7 818.5,-251.7 619.5,-251.7"/>
<polygon fill="none" stroke="#000000" points="619.5,-251.7 619.5,-273.7 818.5,-273.7 818.5,-251.7 619.5,-251.7"/>
<text text-anchor="start" x="639.5" y="-258.8" font-family="Helvetica,sans-Serif" font-size="11.00" fill="#000000">actioned_by</text>
<polygon fill="#ffffff" stroke="transparent" points="619.5,-229.7 619.5,-251.7 818.5,-251.7 818.5,-229.7 619.5,-229.7"/>
<polygon fill="none" stroke="#000000" points="619.5,-229.7 619.5,-251.7 818.5,-251.7 818.5,-229.7 619.5,-229.7"/>
<image xlink:href="../../images/foreignKeys.png" width="11px" height="12px" preserveAspectRatio="xMinYMin meet" x="624.5" y="-246.7"/>
<text text-anchor="start" x="639.5" y="-236.8" font-family="Helvetica,sans-Serif" font-size="11.00" fill="#000000">alert_id</text>
<polygon fill="none" stroke="#000000" points="619.5,-207.7 619.5,-229.7 818.5,-229.7 818.5,-207.7 619.5,-207.7"/>
<image xlink:href="../../images/primaryKeys.png" width="11px" height="12px" preserveAspectRatio="xMinYMin meet" x="624.5" y="-224.7"/>
<text text-anchor="start" x="639.5" y="-214.8" font-family="Helvetica,sans-Serif" font-size="11.00" fill="#000000">id</text>
<polygon fill="none" stroke="#000000" points="619.5,-188.7 619.5,-207.7 818.5,-207.7 818.5,-188.7 619.5,-188.7"/>
<text text-anchor="start" x="622.5" y="-194.8" font-family="Helvetica,sans-Serif" font-size="11.00" fill="#000000">...</text>
<polygon fill="#ffffff" stroke="transparent" points="619.5,-169.7 619.5,-188.7 717.5,-188.7 717.5,-169.7 619.5,-169.7"/>
<polygon fill="none" stroke="#000000" points="619.5,-169.7 619.5,-188.7 717.5,-188.7 717.5,-169.7 619.5,-169.7"/>
<text text-anchor="start" x="622.5" y="-175.8" font-family="Helvetica,sans-Serif" font-size="11.00" fill="#000000">&lt; 1</text>
<polygon fill="#ffffff" stroke="transparent" points="717.5,-169.7 717.5,-188.7 767.5,-188.7 767.5,-169.7 717.5,-169.7"/>
<polygon fill="none" stroke="#000000" points="717.5,-169.7 717.5,-188.7 767.5,-188.7 767.5,-169.7 717.5,-169.7"/>
<text text-anchor="start" x="758.3862" y="-175.8" font-family="Helvetica,sans-Serif" font-size="11.00" fill="#000000"> &#160;</text>
<polygon fill="#ffffff" stroke="transparent" points="767.5,-169.7 767.5,-188.7 818.5,-188.7 818.5,-169.7 767.5,-169.7"/>
<polygon fill="none" stroke="#000000" points="767.5,-169.7 767.5,-188.7 818.5,-188.7 818.5,-169.7 767.5,-169.7"/>
<text text-anchor="start" x="809.3862" y="-175.8" font-family="Helvetica,sans-Serif" font-size="11.00" fill="#000000"> &#160;</text>
</a>
</g>
</g>
<!-- alert -->
<g id="node4" class="node">
<title>alert</title>
<g id="a_node4"><a xlink:href="../../tables/alert.html" xlink:title="alert" target="_top">
<polygon fill="#ffffff" stroke="transparent" points="360.5,-38.2 360.5,-275.2 561.5,-275.2 561.5,-38.2 360.5,-38.2"/>
<polygon fill="#f5f5f5" stroke="transparent" points="361,-251.7 361,-274.7 562,-274.7 562,-251.7 361,-251.7"/>
<polygon fill="none" stroke="#000000" points="361,-251.7 361,-274.7 562,-274.7 562,-251.7 361,-251.7"/>
<text text-anchor="start" x="366" y="-260.3" font-family="Helvetica,sans-Serif" font-weight="bold" font-size="11.00" fill="#000000">alert</text>
<text text-anchor="start" x="527.0437" y="-259.8" font-family="Helvetica,sans-Serif" font-size="11.00" fill="#000000">[table]</text>
<polygon fill="none" stroke="#000000" points="361,-229.7 361,-251.7 562,-251.7 562,-229.7 361,-229.7"/>
<image xlink:href="../../images/primaryKeys.png" width="11px" height="12px" preserveAspectRatio="xMinYMin meet" x="366" y="-246.7"/>
<text text-anchor="start" x="381" y="-236.8" font-family="Helvetica,sans-Serif" font-size="11.00" fill="#000000">id</text>
<polygon fill="#ffffff" stroke="transparent" points="361,-207.7 361,-229.7 562,-229.7 562,-207.7 361,-207.7"/>
<polygon fill="none" stroke="#000000" points="361,-207.7 361,-229.7 562,-229.7 562,-207.7 361,-207.7"/>
<image xlink:href="../../images/foreignKeys.png" width="11px" height="12px" preserveAspectRatio="xMinYMin meet" x="366" y="-224.7"/>
<text text-anchor="start" x="381" y="-214.8" font-family="Helvetica,sans-Serif" font-size="11.00" fill="#000000">alert_code_id</text>
<polygon fill="#ffffff" stroke="transparent" points="361,-185.7 361,-207.7 562,-207.7 562,-185.7 361,-185.7"/>
<polygon fill="none" stroke="#000000" points="361,-185.7 361,-207.7 562,-207.7 562,-185.7 361,-185.7"/>
<image xlink:href="../../images/foreignKeys.png" width="11px" height="12px" preserveAspectRatio="xMinYMin meet" x="366" y="-202.7"/>
<text text-anchor="start" x="381" y="-192.8" font-family="Helvetica,sans-Serif" font-size="11.00" fill="#000000">prison_number</text>
<polygon fill="#ffffff" stroke="transparent" points="361,-163.7 361,-185.7 562,-185.7 562,-163.7 361,-163.7"/>
<polygon fill="none" stroke="#000000" points="361,-163.7 361,-185.7 562,-185.7 562,-163.7 361,-163.7"/>
<text text-anchor="start" x="381" y="-170.8" font-family="Helvetica,sans-Serif" font-size="11.00" fill="#000000">active_from</text>
<polygon fill="#ffffff" stroke="transparent" points="361,-141.7 361,-163.7 562,-163.7 562,-141.7 361,-141.7"/>
<polygon fill="none" stroke="#000000" points="361,-141.7 361,-163.7 562,-163.7 562,-141.7 361,-141.7"/>
<text text-anchor="start" x="381" y="-148.8" font-family="Helvetica,sans-Serif" font-size="11.00" fill="#000000">active_to</text>
<polygon fill="#ffffff" stroke="transparent" points="361,-119.7 361,-141.7 562,-141.7 562,-119.7 361,-119.7"/>
<polygon fill="none" stroke="#000000" points="361,-119.7 361,-141.7 562,-141.7 562,-119.7 361,-119.7"/>
<text text-anchor="start" x="381" y="-126.8" font-family="Helvetica,sans-Serif" font-size="11.00" fill="#000000">deleted_at</text>
<polygon fill="#ffffff" stroke="transparent" points="361,-97.7 361,-119.7 562,-119.7 562,-97.7 361,-97.7"/>
<polygon fill="none" stroke="#000000" points="361,-97.7 361,-119.7 562,-119.7 562,-97.7 361,-97.7"/>
<text text-anchor="start" x="381" y="-104.8" font-family="Helvetica,sans-Serif" font-size="11.00" fill="#000000">created_at</text>
<polygon fill="#ffffff" stroke="transparent" points="361,-75.7 361,-97.7 562,-97.7 562,-75.7 361,-75.7"/>
<polygon fill="none" stroke="#000000" points="361,-75.7 361,-97.7 562,-97.7 562,-75.7 361,-75.7"/>
<text text-anchor="start" x="381" y="-82.8" font-family="Helvetica,sans-Serif" font-size="11.00" fill="#000000">last_modified_at</text>
<polygon fill="none" stroke="#000000" points="361,-56.7 361,-75.7 562,-75.7 562,-56.7 361,-56.7"/>
<text text-anchor="start" x="364" y="-62.8" font-family="Helvetica,sans-Serif" font-size="11.00" fill="#000000">...</text>
<polygon fill="#ffffff" stroke="transparent" points="361,-37.7 361,-56.7 455,-56.7 455,-37.7 361,-37.7"/>
<polygon fill="none" stroke="#000000" points="361,-37.7 361,-56.7 455,-56.7 455,-37.7 361,-37.7"/>
<text text-anchor="start" x="364" y="-43.8" font-family="Helvetica,sans-Serif" font-size="11.00" fill="#000000">&lt; 1</text>
<polygon fill="#ffffff" stroke="transparent" points="455,-37.7 455,-56.7 504,-56.7 504,-37.7 455,-37.7"/>
<polygon fill="none" stroke="#000000" points="455,-37.7 455,-56.7 504,-56.7 504,-37.7 455,-37.7"/>
<text text-anchor="start" x="494.8862" y="-43.8" font-family="Helvetica,sans-Serif" font-size="11.00" fill="#000000"> &#160;</text>
<polygon fill="#ffffff" stroke="transparent" points="504,-37.7 504,-56.7 562,-56.7 562,-37.7 504,-37.7"/>
<polygon fill="none" stroke="#000000" points="504,-37.7 504,-56.7 562,-56.7 562,-37.7 504,-37.7"/>
<text text-anchor="start" x="543.4053" y="-43.8" font-family="Helvetica,sans-Serif" font-size="11.00" fill="#000000">1 &gt;</text>
</a>
</g>
</g>
<!-- audit_event&#45;&gt;alert -->
<g id="edge4" class="edge">
<title>audit_event:w&#45;&gt;alert:e</title>
<path fill="none" stroke="#000000" d="M605.0794,-240.7C590.2322,-240.7 581.9653,-240.7 562,-240.7"/>
<polygon fill="#000000" stroke="#000000" points="611.5,-240.7001 619.5,-244.3 615.5,-240.7 619.5,-240.7 619.5,-240.7 619.5,-240.7 615.5,-240.7 619.5,-237.1 611.5,-240.7001 611.5,-240.7001"/>
<ellipse fill="none" stroke="#000000" cx="608.3" cy="-240.7001" rx="3.2" ry="3.2"/>
</g>
<!-- alert_type -->
<g id="node7" class="node">
<title>alert_type</title>
<g id="a_node7"><a xlink:href="../../tables/alert_type.html" xlink:title="alert_type" target="_top">
<polygon fill="#ffffff" stroke="transparent" points="8,-125.2 8,-296.2 131,-296.2 131,-125.2 8,-125.2"/>
<polygon fill="#f5f5f5" stroke="transparent" points="8.5,-272.7 8.5,-295.7 131.5,-295.7 131.5,-272.7 8.5,-272.7"/>
<polygon fill="none" stroke="#000000" points="8.5,-272.7 8.5,-295.7 131.5,-295.7 131.5,-272.7 8.5,-272.7"/>
<text text-anchor="start" x="13.5" y="-281.3" font-family="Helvetica,sans-Serif" font-weight="bold" font-size="11.00" fill="#000000">alert_type</text>
<text text-anchor="start" x="96.5437" y="-280.8" font-family="Helvetica,sans-Serif" font-size="11.00" fill="#000000">[table]</text>
<polygon fill="none" stroke="#000000" points="8.5,-250.7 8.5,-272.7 131.5,-272.7 131.5,-250.7 8.5,-250.7"/>
<image xlink:href="../../images/primaryKeys.png" width="11px" height="12px" preserveAspectRatio="xMinYMin meet" x="13.5" y="-267.7"/>
<text text-anchor="start" x="28.5" y="-257.8" font-family="Helvetica,sans-Serif" font-size="11.00" fill="#000000">alert_type_id</text>
<polygon fill="#ffffff" stroke="transparent" points="8.5,-228.7 8.5,-250.7 131.5,-250.7 131.5,-228.7 8.5,-228.7"/>
<polygon fill="none" stroke="#000000" points="8.5,-228.7 8.5,-250.7 131.5,-250.7 131.5,-228.7 8.5,-228.7"/>
<text text-anchor="start" x="28.5" y="-235.8" font-family="Helvetica,sans-Serif" font-size="11.00" fill="#000000">code</text>
<polygon fill="#ffffff" stroke="transparent" points="8.5,-206.7 8.5,-228.7 131.5,-228.7 131.5,-206.7 8.5,-206.7"/>
<polygon fill="none" stroke="#000000" points="8.5,-206.7 8.5,-228.7 131.5,-228.7 131.5,-206.7 8.5,-206.7"/>
<text text-anchor="start" x="28.5" y="-213.8" font-family="Helvetica,sans-Serif" font-size="11.00" fill="#000000">list_sequence</text>
<polygon fill="#ffffff" stroke="transparent" points="8.5,-184.7 8.5,-206.7 131.5,-206.7 131.5,-184.7 8.5,-184.7"/>
<polygon fill="none" stroke="#000000" points="8.5,-184.7 8.5,-206.7 131.5,-206.7 131.5,-184.7 8.5,-184.7"/>
<text text-anchor="start" x="28.5" y="-191.8" font-family="Helvetica,sans-Serif" font-size="11.00" fill="#000000">created_at</text>
<polygon fill="#ffffff" stroke="transparent" points="8.5,-162.7 8.5,-184.7 131.5,-184.7 131.5,-162.7 8.5,-162.7"/>
<polygon fill="none" stroke="#000000" points="8.5,-162.7 8.5,-184.7 131.5,-184.7 131.5,-162.7 8.5,-162.7"/>
<text text-anchor="start" x="28.5" y="-169.8" font-family="Helvetica,sans-Serif" font-size="11.00" fill="#000000">deactivated_at</text>
<polygon fill="none" stroke="#000000" points="8.5,-143.7 8.5,-162.7 131.5,-162.7 131.5,-143.7 8.5,-143.7"/>
<text text-anchor="start" x="11.5" y="-149.8" font-family="Helvetica,sans-Serif" font-size="11.00" fill="#000000">...</text>
<polygon fill="#ffffff" stroke="transparent" points="8.5,-124.7 8.5,-143.7 59.5,-143.7 59.5,-124.7 8.5,-124.7"/>
<polygon fill="none" stroke="#000000" points="8.5,-124.7 8.5,-143.7 59.5,-143.7 59.5,-124.7 8.5,-124.7"/>
<text text-anchor="start" x="11.5" y="-130.8" font-family="Helvetica,sans-Serif" font-size="11.00" fill="#000000"> &#160;</text>
<polygon fill="#ffffff" stroke="transparent" points="59.5,-124.7 59.5,-143.7 90.5,-143.7 90.5,-124.7 59.5,-124.7"/>
<polygon fill="none" stroke="#000000" points="59.5,-124.7 59.5,-143.7 90.5,-143.7 90.5,-124.7 59.5,-124.7"/>
<text text-anchor="start" x="81.3862" y="-130.8" font-family="Helvetica,sans-Serif" font-size="11.00" fill="#000000"> &#160;</text>
<polygon fill="#ffffff" stroke="transparent" points="90.5,-124.7 90.5,-143.7 131.5,-143.7 131.5,-124.7 90.5,-124.7"/>
<polygon fill="none" stroke="#000000" points="90.5,-124.7 90.5,-143.7 131.5,-143.7 131.5,-124.7 90.5,-124.7"/>
<text text-anchor="start" x="112.9053" y="-130.8" font-family="Helvetica,sans-Serif" font-size="11.00" fill="#000000">1 &gt;</text>
</a>
</g>
</g>
<!-- alert_code&#45;&gt;alert_type -->
<g id="edge2" class="edge">
<title>alert_code:w&#45;&gt;alert_type:e</title>
<path fill="none" stroke="#000000" d="M165.9909,-261.7C154.6774,-261.7 147.4931,-261.7 131.5,-261.7"/>
<polygon fill="#000000" stroke="#000000" points="172.5,-261.7001 180.5,-265.3 176.5,-261.7 180.5,-261.7 180.5,-261.7 180.5,-261.7 176.5,-261.7 180.5,-258.1 172.5,-261.7001 172.5,-261.7001"/>
<ellipse fill="none" stroke="#000000" cx="169.3" cy="-261.7001" rx="3.2" ry="3.2"/>
</g>
<!-- alert&#45;&gt;alert_code -->
<g id="edge1" class="edge">
<title>alert:w&#45;&gt;alert_code:e</title>
<path fill="none" stroke="#000000" d="M347.0136,-222.766C327.063,-236.9961 336.1942,-283.7 303.5,-283.7"/>
<polygon fill="#000000" stroke="#000000" points="353.318,-220.9333 362.005,-222.1569 357.159,-219.8166 361,-218.7 361,-218.7 361,-218.7 357.159,-219.8166 359.995,-215.2431 353.318,-220.9333 353.318,-220.9333"/>
<ellipse fill="none" stroke="#000000" cx="350.2452" cy="-221.8266" rx="3.2" ry="3.2"/>
</g>
<!-- bulk_plan -->
<g id="node5" class="node">
<title>bulk_plan</title>
<g id="a_node5"><a xlink:href="../../tables/bulk_plan.html" xlink:title="bulk_plan" target="_top">
<polygon fill="#ffffff" stroke="transparent" points="365,-508.2 365,-591.2 557,-591.2 557,-508.2 365,-508.2"/>
<polygon fill="#f5f5f5" stroke="transparent" points="365,-567.7 365,-590.7 557,-590.7 557,-567.7 365,-567.7"/>
<polygon fill="none" stroke="#000000" points="365,-567.7 365,-590.7 557,-590.7 557,-567.7 365,-567.7"/>
<text text-anchor="start" x="370" y="-576.3" font-family="Helvetica,sans-Serif" font-weight="bold" font-size="11.00" fill="#000000">bulk_plan</text>
<text text-anchor="start" x="522.0437" y="-575.8" font-family="Helvetica,sans-Serif" font-size="11.00" fill="#000000">[table]</text>
<polygon fill="none" stroke="#000000" points="365,-545.7 365,-567.7 557,-567.7 557,-545.7 365,-545.7"/>
<image xlink:href="../../images/primaryKeys.png" width="11px" height="12px" preserveAspectRatio="xMinYMin meet" x="370" y="-562.7"/>
<text text-anchor="start" x="385" y="-552.8" font-family="Helvetica,sans-Serif" font-size="11.00" fill="#000000">id</text>
<polygon fill="none" stroke="#000000" points="365,-526.7 365,-545.7 557,-545.7 557,-526.7 365,-526.7"/>
<text text-anchor="start" x="368" y="-532.8" font-family="Helvetica,sans-Serif" font-size="11.00" fill="#000000">...</text>
<polygon fill="#ffffff" stroke="transparent" points="365,-507.7 365,-526.7 450,-526.7 450,-507.7 365,-507.7"/>
<polygon fill="none" stroke="#000000" points="365,-507.7 365,-526.7 450,-526.7 450,-507.7 365,-507.7"/>
<text text-anchor="start" x="368" y="-513.8" font-family="Helvetica,sans-Serif" font-size="11.00" fill="#000000"> &#160;</text>
<polygon fill="#ffffff" stroke="transparent" points="450,-507.7 450,-526.7 499,-526.7 499,-507.7 450,-507.7"/>
<polygon fill="none" stroke="#000000" points="450,-507.7 450,-526.7 499,-526.7 499,-507.7 450,-507.7"/>
<text text-anchor="start" x="489.8862" y="-513.8" font-family="Helvetica,sans-Serif" font-size="11.00" fill="#000000"> &#160;</text>
<polygon fill="#ffffff" stroke="transparent" points="499,-507.7 499,-526.7 557,-526.7 557,-507.7 499,-507.7"/>
<polygon fill="none" stroke="#000000" points="499,-507.7 499,-526.7 557,-526.7 557,-507.7 499,-507.7"/>
<text text-anchor="start" x="538.4053" y="-513.8" font-family="Helvetica,sans-Serif" font-size="11.00" fill="#000000">1 &gt;</text>
</a>
</g>
</g>
<!-- plan_person -->
<g id="node6" class="node">
<title>plan_person</title>
<g id="a_node6"><a xlink:href="../../tables/plan_person.html" xlink:title="plan_person" target="_top">
<polygon fill="#ffffff" stroke="transparent" points="658,-463.7 658,-549.7 779,-549.7 779,-463.7 658,-463.7"/>
<polygon fill="#f5f5f5" stroke="transparent" points="658.5,-526.7 658.5,-549.7 779.5,-549.7 779.5,-526.7 658.5,-526.7"/>
<polygon fill="none" stroke="#000000" points="658.5,-526.7 658.5,-549.7 779.5,-549.7 779.5,-526.7 658.5,-526.7"/>
<text text-anchor="start" x="663.5" y="-535.3" font-family="Helvetica,sans-Serif" font-weight="bold" font-size="11.00" fill="#000000">plan_person</text>
<text text-anchor="start" x="745.0219" y="-534.8" font-family="Helvetica,sans-Serif" font-size="11.00" fill="#000000">[table]</text>
<polygon fill="none" stroke="#000000" points="658.5,-504.7 658.5,-526.7 779.5,-526.7 779.5,-504.7 658.5,-504.7"/>
<image xlink:href="../../images/foreignKeys.png" width="11px" height="12px" preserveAspectRatio="xMinYMin meet" x="663.5" y="-521.7"/>
<text text-anchor="start" x="678.5" y="-511.8" font-family="Helvetica,sans-Serif" font-size="11.00" fill="#000000">plan_id</text>
<polygon fill="none" stroke="#000000" points="658.5,-482.7 658.5,-504.7 779.5,-504.7 779.5,-482.7 658.5,-482.7"/>
<image xlink:href="../../images/foreignKeys.png" width="11px" height="12px" preserveAspectRatio="xMinYMin meet" x="663.5" y="-499.7"/>
<text text-anchor="start" x="678.5" y="-489.8" font-family="Helvetica,sans-Serif" font-size="11.00" fill="#000000">prison_number</text>
<polygon fill="#ffffff" stroke="transparent" points="658.5,-463.7 658.5,-482.7 717.5,-482.7 717.5,-463.7 658.5,-463.7"/>
<polygon fill="none" stroke="#000000" points="658.5,-463.7 658.5,-482.7 717.5,-482.7 717.5,-463.7 658.5,-463.7"/>
<text text-anchor="start" x="661.5" y="-469.8" font-family="Helvetica,sans-Serif" font-size="11.00" fill="#000000">&lt; 2</text>
<polygon fill="#ffffff" stroke="transparent" points="717.5,-463.7 717.5,-482.7 748.5,-482.7 748.5,-463.7 717.5,-463.7"/>
<polygon fill="none" stroke="#000000" points="717.5,-463.7 717.5,-482.7 748.5,-482.7 748.5,-463.7 717.5,-463.7"/>
<text text-anchor="start" x="739.3862" y="-469.8" font-family="Helvetica,sans-Serif" font-size="11.00" fill="#000000"> &#160;</text>
<polygon fill="#ffffff" stroke="transparent" points="748.5,-463.7 748.5,-482.7 779.5,-482.7 779.5,-463.7 748.5,-463.7"/>
<polygon fill="none" stroke="#000000" points="748.5,-463.7 748.5,-482.7 779.5,-482.7 779.5,-463.7 748.5,-463.7"/>
<text text-anchor="start" x="770.3862" y="-469.8" font-family="Helvetica,sans-Serif" font-size="11.00" fill="#000000"> &#160;</text>
</a>
</g>
</g>
<!-- plan_person&#45;&gt;bulk_plan -->
<g id="edge5" class="edge">
<title>plan_person:w&#45;&gt;bulk_plan:e</title>
<path fill="none" stroke="#000000" d="M644.0151,-517.0641C608.398,-524.1783 600.3311,-556.7 557,-556.7"/>
<polygon fill="#000000" stroke="#000000" points="650.5352,-516.4501 658.8376,-519.2841 654.5176,-516.0751 658.5,-515.7 658.5,-515.7 658.5,-515.7 654.5176,-516.0751 658.1624,-512.1159 650.5352,-516.4501 650.5352,-516.4501"/>
<ellipse fill="none" stroke="#000000" cx="647.3493" cy="-516.7502" rx="3.2" ry="3.2"/>
</g>
<!-- person_summary -->
<g id="node8" class="node">
<title>person_summary</title>
<g id="a_node8"><a xlink:href="../../tables/person_summary.html" xlink:title="person_summary" target="_top">
<polygon fill="#ffffff" stroke="transparent" points="370.5,-404.2 370.5,-487.2 551.5,-487.2 551.5,-404.2 370.5,-404.2"/>
<polygon fill="#f5f5f5" stroke="transparent" points="371,-463.7 371,-486.7 552,-486.7 552,-463.7 371,-463.7"/>
<polygon fill="none" stroke="#000000" points="371,-463.7 371,-486.7 552,-486.7 552,-463.7 371,-463.7"/>
<text text-anchor="start" x="376" y="-472.3" font-family="Helvetica,sans-Serif" font-weight="bold" font-size="11.00" fill="#000000">person_summary</text>
<text text-anchor="start" x="517.0437" y="-471.8" font-family="Helvetica,sans-Serif" font-size="11.00" fill="#000000">[table]</text>
<polygon fill="none" stroke="#000000" points="371,-441.7 371,-463.7 552,-463.7 552,-441.7 371,-441.7"/>
<image xlink:href="../../images/primaryKeys.png" width="11px" height="12px" preserveAspectRatio="xMinYMin meet" x="376" y="-458.7"/>
<text text-anchor="start" x="391" y="-448.8" font-family="Helvetica,sans-Serif" font-size="11.00" fill="#000000">prison_number</text>
<polygon fill="none" stroke="#000000" points="371,-422.7 371,-441.7 552,-441.7 552,-422.7 371,-422.7"/>
<text text-anchor="start" x="374" y="-428.8" font-family="Helvetica,sans-Serif" font-size="11.00" fill="#000000">...</text>
<polygon fill="#ffffff" stroke="transparent" points="371,-403.7 371,-422.7 451,-422.7 451,-403.7 371,-403.7"/>
<polygon fill="none" stroke="#000000" points="371,-403.7 371,-422.7 451,-422.7 451,-403.7 371,-403.7"/>
<text text-anchor="start" x="374" y="-409.8" font-family="Helvetica,sans-Serif" font-size="11.00" fill="#000000"> &#160;</text>
<polygon fill="#ffffff" stroke="transparent" points="451,-403.7 451,-422.7 497,-422.7 497,-403.7 451,-403.7"/>
<polygon fill="none" stroke="#000000" points="451,-403.7 451,-422.7 497,-422.7 497,-403.7 451,-403.7"/>
<text text-anchor="start" x="487.8862" y="-409.8" font-family="Helvetica,sans-Serif" font-size="11.00" fill="#000000"> &#160;</text>
<polygon fill="#ffffff" stroke="transparent" points="497,-403.7 497,-422.7 552,-422.7 552,-403.7 497,-403.7"/>
<polygon fill="none" stroke="#000000" points="497,-403.7 497,-422.7 552,-422.7 552,-403.7 497,-403.7"/>
<text text-anchor="start" x="533.4053" y="-409.8" font-family="Helvetica,sans-Serif" font-size="11.00" fill="#000000">1 &gt;</text>
</a>
</g>
</g>
<!-- plan_person&#45;&gt;person_summary -->
<g id="edge6" class="edge">
<title>plan_person:w&#45;&gt;person_summary:e</title>
<path fill="none" stroke="#000000" d="M643.8685,-492.428C606.2049,-485.5076 597.3704,-452.7 552,-452.7"/>
<polygon fill="#000000" stroke="#000000" points="650.5301,-493.0071 658.1882,-497.2865 654.515,-493.3535 658.5,-493.7 658.5,-493.7 658.5,-493.7 654.515,-493.3535 658.8118,-490.1135 650.5301,-493.0071 650.5301,-493.0071"/>
<ellipse fill="none" stroke="#000000" cx="647.3421" cy="-492.7299" rx="3.2" ry="3.2"/>
</g>
</g>
</svg>
