<?xml version="1.0" encoding="UTF-8" standalone="no"?>
<!DOCTYPE svg PUBLIC "-//W3C//DTD SVG 1.1//EN"
 "http://www.w3.org/Graphics/SVG/1.1/DTD/svg11.dtd">
<!-- Generated by graphviz version 2.40.1 (20161225.0304)
 -->
<!-- Title: largeImpliedRelationshipsDiagram Pages: 1 -->
<svg width="957pt" height="1296pt"
 viewBox="0.00 0.00 957.00 1296.20" xmlns="http://www.w3.org/2000/svg" xmlns:xlink="http://www.w3.org/1999/xlink">
<g id="graph0" class="graph" transform="scale(1 1) rotate(0) translate(4 1292.2)">
<title>largeImpliedRelationshipsDiagram</title>
<polygon fill="#ffffff" stroke="transparent" points="-4,4 -4,-1292.2 953,-1292.2 953,4 -4,4"/>
<text text-anchor="middle" x="72.4936" y="-7.3" font-family="Helvetica,sans-Serif" font-size="11.00" fill="#000000">Generated by SchemaSpy</text>
<!-- resync_audit -->
<g id="node1" class="node">
<title>resync_audit</title>
<g id="a_node1"><a xlink:href="../../tables/resync_audit.html" xlink:title="resync_audit" target="_top">
<polygon fill="#ffffff" stroke="transparent" points="449,-453.2 449,-715.2 674,-715.2 674,-453.2 449,-453.2"/>
<polygon fill="#f5f5f5" stroke="transparent" points="449.5,-692.2 449.5,-715.2 674.5,-715.2 674.5,-692.2 449.5,-692.2"/>
<polygon fill="none" stroke="#000000" points="449.5,-692.2 449.5,-715.2 674.5,-715.2 674.5,-692.2 449.5,-692.2"/>
<text text-anchor="start" x="454.5" y="-700.8" font-family="Helvetica,sans-Serif" font-weight="bold" font-size="11.00" fill="#000000">resync_audit</text>
<text text-anchor="start" x="639.5437" y="-700.3" font-family="Helvetica,sans-Serif" font-size="11.00" fill="#000000">[table]</text>
<polygon fill="none" stroke="#000000" points="449.5,-670.2 449.5,-692.2 674.5,-692.2 674.5,-670.2 449.5,-670.2"/>
<image xlink:href="../../images/primaryKeys.png" width="11px" height="12px" preserveAspectRatio="xMinYMin meet" x="454.5" y="-687.2"/>
<text text-anchor="start" x="469.5" y="-677.3" font-family="Helvetica,sans-Serif" font-size="11.00" fill="#000000">id</text>
<polygon fill="#ffffff" stroke="transparent" points="449.5,-648.2 449.5,-670.2 674.5,-670.2 674.5,-648.2 449.5,-648.2"/>
<polygon fill="none" stroke="#000000" points="449.5,-648.2 449.5,-670.2 674.5,-670.2 674.5,-648.2 449.5,-648.2"/>
<image xlink:href="../../images/foreignKeys.png" width="11px" height="12px" preserveAspectRatio="xMinYMin meet" x="454.5" y="-665.2"/>
<text text-anchor="start" x="469.5" y="-655.3" font-family="Helvetica,sans-Serif" font-size="11.00" fill="#000000">prison_number</text>
<polygon fill="none" stroke="#000000" points="449.5,-626.2 449.5,-648.2 674.5,-648.2 674.5,-626.2 449.5,-626.2"/>
<text text-anchor="start" x="469.5" y="-633.3" font-family="Helvetica,sans-Serif" font-size="11.00" fill="#000000">request</text>
<polygon fill="none" stroke="#000000" points="449.5,-604.2 449.5,-626.2 674.5,-626.2 674.5,-604.2 449.5,-604.2"/>
<text text-anchor="start" x="469.5" y="-611.3" font-family="Helvetica,sans-Serif" font-size="11.00" fill="#000000">requested_at</text>
<polygon fill="none" stroke="#000000" points="449.5,-582.2 449.5,-604.2 674.5,-604.2 674.5,-582.2 449.5,-582.2"/>
<text text-anchor="start" x="469.5" y="-589.3" font-family="Helvetica,sans-Serif" font-size="11.00" fill="#000000">requested_by</text>
<polygon fill="none" stroke="#000000" points="449.5,-560.2 449.5,-582.2 674.5,-582.2 674.5,-560.2 449.5,-560.2"/>
<text text-anchor="start" x="469.5" y="-567.3" font-family="Helvetica,sans-Serif" font-size="11.00" fill="#000000">requested_by_display_name</text>
<polygon fill="none" stroke="#000000" points="449.5,-538.2 449.5,-560.2 674.5,-560.2 674.5,-538.2 449.5,-538.2"/>
<text text-anchor="start" x="469.5" y="-545.3" font-family="Helvetica,sans-Serif" font-size="11.00" fill="#000000">source</text>
<polygon fill="none" stroke="#000000" points="449.5,-516.2 449.5,-538.2 674.5,-538.2 674.5,-516.2 449.5,-516.2"/>
<text text-anchor="start" x="469.5" y="-523.3" font-family="Helvetica,sans-Serif" font-size="11.00" fill="#000000">completed_at</text>
<polygon fill="none" stroke="#000000" points="449.5,-494.2 449.5,-516.2 674.5,-516.2 674.5,-494.2 449.5,-494.2"/>
<text text-anchor="start" x="469.5" y="-501.3" font-family="Helvetica,sans-Serif" font-size="11.00" fill="#000000">alerts_deleted</text>
<polygon fill="none" stroke="#000000" points="449.5,-472.2 449.5,-494.2 674.5,-494.2 674.5,-472.2 449.5,-472.2"/>
<text text-anchor="start" x="469.5" y="-479.3" font-family="Helvetica,sans-Serif" font-size="11.00" fill="#000000">alerts_created</text>
<polygon fill="#ffffff" stroke="transparent" points="449.5,-453.2 449.5,-472.2 674.5,-472.2 674.5,-453.2 449.5,-453.2"/>
<polygon fill="none" stroke="#000000" points="449.5,-453.2 449.5,-472.2 674.5,-472.2 674.5,-453.2 449.5,-453.2"/>
<polygon fill="#ffffff" stroke="transparent" points="450.5,-454.2 450.5,-471.2 525.5,-471.2 525.5,-454.2 450.5,-454.2"/>
<text text-anchor="start" x="452.5" y="-459.3" font-family="Helvetica,sans-Serif" font-size="11.00" fill="#000000"> &#160;</text>
<polygon fill="#ffffff" stroke="transparent" points="525.5,-454.2 525.5,-471.2 599.5,-471.2 599.5,-454.2 525.5,-454.2"/>
<text text-anchor="start" x="559.4431" y="-459.3" font-family="Helvetica,sans-Serif" font-size="11.00" fill="#000000"> &#160;</text>
<polygon fill="#ffffff" stroke="transparent" points="599.5,-454.2 599.5,-471.2 673.5,-471.2 673.5,-454.2 599.5,-454.2"/>
<text text-anchor="start" x="665.3862" y="-459.3" font-family="Helvetica,sans-Serif" font-size="11.00" fill="#000000"> &#160;</text>
<polygon fill="#000000" stroke="#000000" points="525.5,-454.2 525.5,-471.2 525.5,-471.2 525.5,-454.2 525.5,-454.2"/>
<polygon fill="#000000" stroke="#000000" points="599.5,-454.2 599.5,-471.2 599.5,-471.2 599.5,-454.2 599.5,-454.2"/>
</a>
</g>
</g>
<!-- person_summary -->
<g id="node9" class="node">
<title>person_summary</title>
<g id="a_node9"><a xlink:href="../../tables/person_summary.html" xlink:title="person_summary" target="_top">
<polygon fill="#ffffff" stroke="transparent" points="195,-453.2 195,-693.2 390,-693.2 390,-453.2 195,-453.2"/>
<polygon fill="#f5f5f5" stroke="transparent" points="195.5,-670.2 195.5,-693.2 390.5,-693.2 390.5,-670.2 195.5,-670.2"/>
<polygon fill="none" stroke="#000000" points="195.5,-670.2 195.5,-693.2 390.5,-693.2 390.5,-670.2 195.5,-670.2"/>
<text text-anchor="start" x="200.5" y="-678.8" font-family="Helvetica,sans-Serif" font-weight="bold" font-size="11.00" fill="#000000">person_summary</text>
<text text-anchor="start" x="355.5437" y="-678.3" font-family="Helvetica,sans-Serif" font-size="11.00" fill="#000000">[table]</text>
<polygon fill="none" stroke="#000000" points="195.5,-648.2 195.5,-670.2 390.5,-670.2 390.5,-648.2 195.5,-648.2"/>
<image xlink:href="../../images/primaryKeys.png" width="11px" height="12px" preserveAspectRatio="xMinYMin meet" x="200.5" y="-665.2"/>
<text text-anchor="start" x="215.5" y="-655.3" font-family="Helvetica,sans-Serif" font-size="11.00" fill="#000000">prison_number</text>
<polygon fill="none" stroke="#000000" points="195.5,-626.2 195.5,-648.2 390.5,-648.2 390.5,-626.2 195.5,-626.2"/>
<text text-anchor="start" x="215.5" y="-633.3" font-family="Helvetica,sans-Serif" font-size="11.00" fill="#000000">first_name</text>
<polygon fill="none" stroke="#000000" points="195.5,-604.2 195.5,-626.2 390.5,-626.2 390.5,-604.2 195.5,-604.2"/>
<text text-anchor="start" x="215.5" y="-611.3" font-family="Helvetica,sans-Serif" font-size="11.00" fill="#000000">last_name</text>
<polygon fill="none" stroke="#000000" points="195.5,-582.2 195.5,-604.2 390.5,-604.2 390.5,-582.2 195.5,-582.2"/>
<text text-anchor="start" x="215.5" y="-589.3" font-family="Helvetica,sans-Serif" font-size="11.00" fill="#000000">status</text>
<polygon fill="none" stroke="#000000" points="195.5,-560.2 195.5,-582.2 390.5,-582.2 390.5,-560.2 195.5,-560.2"/>
<text text-anchor="start" x="215.5" y="-567.3" font-family="Helvetica,sans-Serif" font-size="11.00" fill="#000000">restricted_patient</text>
<polygon fill="none" stroke="#000000" points="195.5,-538.2 195.5,-560.2 390.5,-560.2 390.5,-538.2 195.5,-538.2"/>
<text text-anchor="start" x="215.5" y="-545.3" font-family="Helvetica,sans-Serif" font-size="11.00" fill="#000000">prison_code</text>
<polygon fill="none" stroke="#000000" points="195.5,-516.2 195.5,-538.2 390.5,-538.2 390.5,-516.2 195.5,-516.2"/>
<text text-anchor="start" x="215.5" y="-523.3" font-family="Helvetica,sans-Serif" font-size="11.00" fill="#000000">cell_location</text>
<polygon fill="none" stroke="#000000" points="195.5,-494.2 195.5,-516.2 390.5,-516.2 390.5,-494.2 195.5,-494.2"/>
<text text-anchor="start" x="215.5" y="-501.3" font-family="Helvetica,sans-Serif" font-size="11.00" fill="#000000">supporting_prison_code</text>
<polygon fill="none" stroke="#000000" points="195.5,-472.2 195.5,-494.2 390.5,-494.2 390.5,-472.2 195.5,-472.2"/>
<text text-anchor="start" x="215.5" y="-479.3" font-family="Helvetica,sans-Serif" font-size="11.00" fill="#000000">version</text>
<polygon fill="#ffffff" stroke="transparent" points="195.5,-453.2 195.5,-472.2 390.5,-472.2 390.5,-453.2 195.5,-453.2"/>
<polygon fill="none" stroke="#000000" points="195.5,-453.2 195.5,-472.2 390.5,-472.2 390.5,-453.2 195.5,-453.2"/>
<polygon fill="#ffffff" stroke="transparent" points="196.5,-454.2 196.5,-471.2 258.5,-471.2 258.5,-454.2 196.5,-454.2"/>
<text text-anchor="start" x="198.5" y="-459.3" font-family="Helvetica,sans-Serif" font-size="11.00" fill="#000000"> &#160;</text>
<polygon fill="#ffffff" stroke="transparent" points="258.5,-454.2 258.5,-471.2 319.5,-471.2 319.5,-454.2 258.5,-454.2"/>
<text text-anchor="start" x="285.9431" y="-459.3" font-family="Helvetica,sans-Serif" font-size="11.00" fill="#000000"> &#160;</text>
<polygon fill="#ffffff" stroke="transparent" points="319.5,-454.2 319.5,-471.2 389.5,-471.2 389.5,-454.2 319.5,-454.2"/>
<text text-anchor="start" x="371.9053" y="-459.3" font-family="Helvetica,sans-Serif" font-size="11.00" fill="#000000">1 &gt;</text>
<polygon fill="#000000" stroke="#000000" points="258.5,-454.2 258.5,-471.2 258.5,-471.2 258.5,-454.2 258.5,-454.2"/>
<polygon fill="#000000" stroke="#000000" points="319.5,-454.2 319.5,-471.2 319.5,-471.2 319.5,-454.2 319.5,-454.2"/>
</a>
</g>
</g>
<!-- resync_audit&#45;&gt;person_summary -->
<g id="edge8" class="edge">
<title>resync_audit:w&#45;&gt;person_summary:e</title>
<path fill="none" stroke="#000000" stroke-dasharray="5,2" d="M434.7032,-659.2C419.4686,-659.2 410.9861,-659.2 390.5,-659.2"/>
<polygon fill="#000000" stroke="#000000" points="441.5,-659.2001 449.5,-662.8 445.5,-659.2 449.5,-659.2 449.5,-659.2 449.5,-659.2 445.5,-659.2 449.5,-655.6 441.5,-659.2001 441.5,-659.2001"/>
<ellipse fill="none" stroke="#000000" cx="438.3" cy="-659.2001" rx="3.2" ry="3.2"/>
</g>
<!-- alert_code_privileged_user -->
<g id="node2" class="node">
<title>alert_code_privileged_user</title>
<g id="a_node2"><a xlink:href="../../tables/alert_code_privileged_user.html" xlink:title="alert_code_privileged_user" target="_top">
<polygon fill="#ffffff" stroke="transparent" points="445,-1063.2 445,-1149.2 678,-1149.2 678,-1063.2 445,-1063.2"/>
<polygon fill="#f5f5f5" stroke="transparent" points="445.5,-1126.2 445.5,-1149.2 678.5,-1149.2 678.5,-1126.2 445.5,-1126.2"/>
<polygon fill="none" stroke="#000000" points="445.5,-1126.2 445.5,-1149.2 678.5,-1149.2 678.5,-1126.2 445.5,-1126.2"/>
<text text-anchor="start" x="450.5" y="-1134.8" font-family="Helvetica,sans-Serif" font-weight="bold" font-size="11.00" fill="#000000">alert_code_privileged_user</text>
<text text-anchor="start" x="644.0219" y="-1134.3" font-family="Helvetica,sans-Serif" font-size="11.00" fill="#000000">[table]</text>
<polygon fill="none" stroke="#000000" points="445.5,-1104.2 445.5,-1126.2 678.5,-1126.2 678.5,-1104.2 445.5,-1104.2"/>
<image xlink:href="../../images/primaryKeys.png" width="11px" height="12px" preserveAspectRatio="xMinYMin meet" x="450.5" y="-1121.2"/>
<text text-anchor="start" x="474.5" y="-1111.3" font-family="Helvetica,sans-Serif" font-size="11.00" fill="#000000">alert_code_id</text>
<polygon fill="none" stroke="#000000" points="445.5,-1082.2 445.5,-1104.2 678.5,-1104.2 678.5,-1082.2 445.5,-1082.2"/>
<image xlink:href="../../images/primaryKeys.png" width="11px" height="12px" preserveAspectRatio="xMinYMin meet" x="450.5" y="-1099.2"/>
<text text-anchor="start" x="474.5" y="-1089.3" font-family="Helvetica,sans-Serif" font-size="11.00" fill="#000000">username</text>
<polygon fill="#ffffff" stroke="transparent" points="445.5,-1063.2 445.5,-1082.2 678.5,-1082.2 678.5,-1063.2 445.5,-1063.2"/>
<polygon fill="none" stroke="#000000" points="445.5,-1063.2 445.5,-1082.2 678.5,-1082.2 678.5,-1063.2 445.5,-1063.2"/>
<polygon fill="#ffffff" stroke="transparent" points="446.5,-1064.2 446.5,-1081.2 529.5,-1081.2 529.5,-1064.2 446.5,-1064.2"/>
<text text-anchor="start" x="448.5" y="-1069.3" font-family="Helvetica,sans-Serif" font-size="11.00" fill="#000000">&lt; 1</text>
<polygon fill="#ffffff" stroke="transparent" points="529.5,-1064.2 529.5,-1081.2 603.5,-1081.2 603.5,-1064.2 529.5,-1064.2"/>
<text text-anchor="start" x="563.4431" y="-1069.3" font-family="Helvetica,sans-Serif" font-size="11.00" fill="#000000"> &#160;</text>
<polygon fill="#ffffff" stroke="transparent" points="603.5,-1064.2 603.5,-1081.2 677.5,-1081.2 677.5,-1064.2 603.5,-1064.2"/>
<text text-anchor="start" x="669.3862" y="-1069.3" font-family="Helvetica,sans-Serif" font-size="11.00" fill="#000000"> &#160;</text>
<polygon fill="#000000" stroke="#000000" points="529.5,-1064.2 529.5,-1081.2 529.5,-1081.2 529.5,-1064.2 529.5,-1064.2"/>
<polygon fill="#000000" stroke="#000000" points="603.5,-1064.2 603.5,-1081.2 603.5,-1081.2 603.5,-1064.2 603.5,-1064.2"/>
</a>
</g>
</g>
<!-- alert_code -->
<g id="node4" class="node">
<title>alert_code</title>
<g id="a_node4"><a xlink:href="../../tables/alert_code.html" xlink:title="alert_code" target="_top">
<polygon fill="#ffffff" stroke="transparent" points="226.5,-778.2 226.5,-1084.2 358.5,-1084.2 358.5,-778.2 226.5,-778.2"/>
<polygon fill="#f5f5f5" stroke="transparent" points="226.5,-1061.2 226.5,-1084.2 358.5,-1084.2 358.5,-1061.2 226.5,-1061.2"/>
<polygon fill="none" stroke="#000000" points="226.5,-1061.2 226.5,-1084.2 358.5,-1084.2 358.5,-1061.2 226.5,-1061.2"/>
<text text-anchor="start" x="231.5" y="-1069.8" font-family="Helvetica,sans-Serif" font-weight="bold" font-size="11.00" fill="#000000">alert_code</text>
<text text-anchor="start" x="323.5437" y="-1069.3" font-family="Helvetica,sans-Serif" font-size="11.00" fill="#000000">[table]</text>
<polygon fill="none" stroke="#000000" points="226.5,-1039.2 226.5,-1061.2 358.5,-1061.2 358.5,-1039.2 226.5,-1039.2"/>
<image xlink:href="../../images/primaryKeys.png" width="11px" height="12px" preserveAspectRatio="xMinYMin meet" x="231.5" y="-1056.2"/>
<text text-anchor="start" x="246.5" y="-1046.3" font-family="Helvetica,sans-Serif" font-size="11.00" fill="#000000">alert_code_id</text>
<polygon fill="#ffffff" stroke="transparent" points="226.5,-1017.2 226.5,-1039.2 358.5,-1039.2 358.5,-1017.2 226.5,-1017.2"/>
<polygon fill="none" stroke="#000000" points="226.5,-1017.2 226.5,-1039.2 358.5,-1039.2 358.5,-1017.2 226.5,-1017.2"/>
<image xlink:href="../../images/foreignKeys.png" width="11px" height="12px" preserveAspectRatio="xMinYMin meet" x="231.5" y="-1034.2"/>
<text text-anchor="start" x="246.5" y="-1024.3" font-family="Helvetica,sans-Serif" font-size="11.00" fill="#000000">alert_type_id</text>
<polygon fill="#ffffff" stroke="transparent" points="226.5,-995.2 226.5,-1017.2 358.5,-1017.2 358.5,-995.2 226.5,-995.2"/>
<polygon fill="none" stroke="#000000" points="226.5,-995.2 226.5,-1017.2 358.5,-1017.2 358.5,-995.2 226.5,-995.2"/>
<text text-anchor="start" x="246.5" y="-1002.3" font-family="Helvetica,sans-Serif" font-size="11.00" fill="#000000">code</text>
<polygon fill="none" stroke="#000000" points="226.5,-973.2 226.5,-995.2 358.5,-995.2 358.5,-973.2 226.5,-973.2"/>
<text text-anchor="start" x="246.5" y="-980.3" font-family="Helvetica,sans-Serif" font-size="11.00" fill="#000000">description</text>
<polygon fill="#ffffff" stroke="transparent" points="226.5,-951.2 226.5,-973.2 358.5,-973.2 358.5,-951.2 226.5,-951.2"/>
<polygon fill="none" stroke="#000000" points="226.5,-951.2 226.5,-973.2 358.5,-973.2 358.5,-951.2 226.5,-951.2"/>
<text text-anchor="start" x="246.5" y="-958.3" font-family="Helvetica,sans-Serif" font-size="11.00" fill="#000000">list_sequence</text>
<polygon fill="#ffffff" stroke="transparent" points="226.5,-929.2 226.5,-951.2 358.5,-951.2 358.5,-929.2 226.5,-929.2"/>
<polygon fill="none" stroke="#000000" points="226.5,-929.2 226.5,-951.2 358.5,-951.2 358.5,-929.2 226.5,-929.2"/>
<text text-anchor="start" x="246.5" y="-936.3" font-family="Helvetica,sans-Serif" font-size="11.00" fill="#000000">created_at</text>
<polygon fill="none" stroke="#000000" points="226.5,-907.2 226.5,-929.2 358.5,-929.2 358.5,-907.2 226.5,-907.2"/>
<text text-anchor="start" x="246.5" y="-914.3" font-family="Helvetica,sans-Serif" font-size="11.00" fill="#000000">created_by</text>
<polygon fill="none" stroke="#000000" points="226.5,-885.2 226.5,-907.2 358.5,-907.2 358.5,-885.2 226.5,-885.2"/>
<text text-anchor="start" x="246.5" y="-892.3" font-family="Helvetica,sans-Serif" font-size="11.00" fill="#000000">modified_at</text>
<polygon fill="none" stroke="#000000" points="226.5,-863.2 226.5,-885.2 358.5,-885.2 358.5,-863.2 226.5,-863.2"/>
<text text-anchor="start" x="246.5" y="-870.3" font-family="Helvetica,sans-Serif" font-size="11.00" fill="#000000">modified_by</text>
<polygon fill="#ffffff" stroke="transparent" points="226.5,-841.2 226.5,-863.2 358.5,-863.2 358.5,-841.2 226.5,-841.2"/>
<polygon fill="none" stroke="#000000" points="226.5,-841.2 226.5,-863.2 358.5,-863.2 358.5,-841.2 226.5,-841.2"/>
<text text-anchor="start" x="246.5" y="-848.3" font-family="Helvetica,sans-Serif" font-size="11.00" fill="#000000">deactivated_at</text>
<polygon fill="none" stroke="#000000" points="226.5,-819.2 226.5,-841.2 358.5,-841.2 358.5,-819.2 226.5,-819.2"/>
<text text-anchor="start" x="246.5" y="-826.3" font-family="Helvetica,sans-Serif" font-size="11.00" fill="#000000">deactivated_by</text>
<polygon fill="none" stroke="#000000" points="226.5,-797.2 226.5,-819.2 358.5,-819.2 358.5,-797.2 226.5,-797.2"/>
<text text-anchor="start" x="246.5" y="-804.3" font-family="Helvetica,sans-Serif" font-size="11.00" fill="#000000">restricted</text>
<polygon fill="#ffffff" stroke="transparent" points="226.5,-778.2 226.5,-797.2 358.5,-797.2 358.5,-778.2 226.5,-778.2"/>
<polygon fill="none" stroke="#000000" points="226.5,-778.2 226.5,-797.2 358.5,-797.2 358.5,-778.2 226.5,-778.2"/>
<polygon fill="#ffffff" stroke="transparent" points="227.5,-779.2 227.5,-796.2 261.5,-796.2 261.5,-779.2 227.5,-779.2"/>
<text text-anchor="start" x="229.5" y="-784.3" font-family="Helvetica,sans-Serif" font-size="11.00" fill="#000000">&lt; 1</text>
<polygon fill="#ffffff" stroke="transparent" points="261.5,-779.2 261.5,-796.2 324.5,-796.2 324.5,-779.2 261.5,-779.2"/>
<text text-anchor="start" x="270.6904" y="-784.3" font-family="Helvetica,sans-Serif" font-size="11.00" fill="#000000">213 rows</text>
<polygon fill="#ffffff" stroke="transparent" points="324.5,-779.2 324.5,-796.2 357.5,-796.2 357.5,-779.2 324.5,-779.2"/>
<text text-anchor="start" x="339.9053" y="-784.3" font-family="Helvetica,sans-Serif" font-size="11.00" fill="#000000">2 &gt;</text>
<polygon fill="#000000" stroke="#000000" points="261.5,-779.2 261.5,-796.2 261.5,-796.2 261.5,-779.2 261.5,-779.2"/>
<polygon fill="#000000" stroke="#000000" points="324.5,-779.2 324.5,-796.2 324.5,-796.2 324.5,-779.2 324.5,-779.2"/>
</a>
</g>
</g>
<!-- alert_code_privileged_user&#45;&gt;alert_code -->
<g id="edge4" class="edge">
<title>alert_code_privileged_user:w&#45;&gt;alert_code:e</title>
<path fill="none" stroke="#000000" d="M431.154,-1112.8866C398.6515,-1101.3076 401.299,-1050.2 358.5,-1050.2"/>
<polygon fill="#000000" stroke="#000000" points="437.602,-1113.9264 444.9269,-1118.7541 441.551,-1114.5632 445.5,-1115.2 445.5,-1115.2 445.5,-1115.2 441.551,-1114.5632 446.0731,-1111.6459 437.602,-1113.9264 437.602,-1113.9264"/>
<ellipse fill="none" stroke="#000000" cx="434.4428" cy="-1113.4169" rx="3.2" ry="3.2"/>
</g>
<!-- audit_event -->
<g id="node3" class="node">
<title>audit_event</title>
<g id="a_node3"><a xlink:href="../../tables/audit_event.html" xlink:title="audit_event" target="_top">
<polygon fill="#ffffff" stroke="transparent" points="727,-934.2 727,-1284.2 941,-1284.2 941,-934.2 727,-934.2"/>
<polygon fill="#f5f5f5" stroke="transparent" points="727,-1261.2 727,-1284.2 941,-1284.2 941,-1261.2 727,-1261.2"/>
<polygon fill="none" stroke="#000000" points="727,-1261.2 727,-1284.2 941,-1284.2 941,-1261.2 727,-1261.2"/>
<text text-anchor="start" x="732" y="-1269.8" font-family="Helvetica,sans-Serif" font-weight="bold" font-size="11.00" fill="#000000">audit_event</text>
<text text-anchor="start" x="906.0437" y="-1269.3" font-family="Helvetica,sans-Serif" font-size="11.00" fill="#000000">[table]</text>
<polygon fill="#ffffff" stroke="transparent" points="727,-1239.2 727,-1261.2 941,-1261.2 941,-1239.2 727,-1239.2"/>
<polygon fill="none" stroke="#000000" points="727,-1239.2 727,-1261.2 941,-1261.2 941,-1239.2 727,-1239.2"/>
<text text-anchor="start" x="747" y="-1246.3" font-family="Helvetica,sans-Serif" font-size="11.00" fill="#000000">action</text>
<polygon fill="none" stroke="#000000" points="727,-1217.2 727,-1239.2 941,-1239.2 941,-1217.2 727,-1217.2"/>
<text text-anchor="start" x="747" y="-1224.3" font-family="Helvetica,sans-Serif" font-size="11.00" fill="#000000">description</text>
<polygon fill="#ffffff" stroke="transparent" points="727,-1195.2 727,-1217.2 941,-1217.2 941,-1195.2 727,-1195.2"/>
<polygon fill="none" stroke="#000000" points="727,-1195.2 727,-1217.2 941,-1217.2 941,-1195.2 727,-1195.2"/>
<text text-anchor="start" x="747" y="-1202.3" font-family="Helvetica,sans-Serif" font-size="11.00" fill="#000000">actioned_at</text>
<polygon fill="#ffffff" stroke="transparent" points="727,-1173.2 727,-1195.2 941,-1195.2 941,-1173.2 727,-1173.2"/>
<polygon fill="none" stroke="#000000" points="727,-1173.2 727,-1195.2 941,-1195.2 941,-1173.2 727,-1173.2"/>
<text text-anchor="start" x="747" y="-1180.3" font-family="Helvetica,sans-Serif" font-size="11.00" fill="#000000">actioned_by</text>
<polygon fill="none" stroke="#000000" points="727,-1151.2 727,-1173.2 941,-1173.2 941,-1151.2 727,-1151.2"/>
<text text-anchor="start" x="747" y="-1158.3" font-family="Helvetica,sans-Serif" font-size="11.00" fill="#000000">actioned_by_display_name</text>
<polygon fill="none" stroke="#000000" points="727,-1129.2 727,-1151.2 941,-1151.2 941,-1129.2 727,-1129.2"/>
<text text-anchor="start" x="747" y="-1136.3" font-family="Helvetica,sans-Serif" font-size="11.00" fill="#000000">source</text>
<polygon fill="none" stroke="#000000" points="727,-1107.2 727,-1129.2 941,-1129.2 941,-1107.2 727,-1107.2"/>
<text text-anchor="start" x="747" y="-1114.3" font-family="Helvetica,sans-Serif" font-size="11.00" fill="#000000">active_case_load_id</text>
<polygon fill="none" stroke="#000000" points="727,-1085.2 727,-1107.2 941,-1107.2 941,-1085.2 727,-1085.2"/>
<text text-anchor="start" x="747" y="-1092.3" font-family="Helvetica,sans-Serif" font-size="11.00" fill="#000000">description_updated</text>
<polygon fill="none" stroke="#000000" points="727,-1063.2 727,-1085.2 941,-1085.2 941,-1063.2 727,-1063.2"/>
<text text-anchor="start" x="747" y="-1070.3" font-family="Helvetica,sans-Serif" font-size="11.00" fill="#000000">authorised_by_updated</text>
<polygon fill="none" stroke="#000000" points="727,-1041.2 727,-1063.2 941,-1063.2 941,-1041.2 727,-1041.2"/>
<text text-anchor="start" x="747" y="-1048.3" font-family="Helvetica,sans-Serif" font-size="11.00" fill="#000000">active_from_updated</text>
<polygon fill="none" stroke="#000000" points="727,-1019.2 727,-1041.2 941,-1041.2 941,-1019.2 727,-1019.2"/>
<text text-anchor="start" x="747" y="-1026.3" font-family="Helvetica,sans-Serif" font-size="11.00" fill="#000000">active_to_updated</text>
<polygon fill="#ffffff" stroke="transparent" points="727,-997.2 727,-1019.2 941,-1019.2 941,-997.2 727,-997.2"/>
<polygon fill="none" stroke="#000000" points="727,-997.2 727,-1019.2 941,-1019.2 941,-997.2 727,-997.2"/>
<image xlink:href="../../images/foreignKeys.png" width="11px" height="12px" preserveAspectRatio="xMinYMin meet" x="732" y="-1014.2"/>
<text text-anchor="start" x="747" y="-1004.3" font-family="Helvetica,sans-Serif" font-size="11.00" fill="#000000">alert_id</text>
<polygon fill="none" stroke="#000000" points="727,-975.2 727,-997.2 941,-997.2 941,-975.2 727,-975.2"/>
<text text-anchor="start" x="747" y="-982.3" font-family="Helvetica,sans-Serif" font-size="11.00" fill="#000000">version</text>
<polygon fill="none" stroke="#000000" points="727,-953.2 727,-975.2 941,-975.2 941,-953.2 727,-953.2"/>
<image xlink:href="../../images/primaryKeys.png" width="11px" height="12px" preserveAspectRatio="xMinYMin meet" x="732" y="-970.2"/>
<text text-anchor="start" x="747" y="-960.3" font-family="Helvetica,sans-Serif" font-size="11.00" fill="#000000">id</text>
<polygon fill="#ffffff" stroke="transparent" points="727,-934.2 727,-953.2 941,-953.2 941,-934.2 727,-934.2"/>
<polygon fill="none" stroke="#000000" points="727,-934.2 727,-953.2 941,-953.2 941,-934.2 727,-934.2"/>
<polygon fill="#ffffff" stroke="transparent" points="728,-935.2 728,-952.2 805,-952.2 805,-935.2 728,-935.2"/>
<text text-anchor="start" x="730" y="-940.3" font-family="Helvetica,sans-Serif" font-size="11.00" fill="#000000">&lt; 1</text>
<polygon fill="#ffffff" stroke="transparent" points="805,-935.2 805,-952.2 873,-952.2 873,-935.2 805,-935.2"/>
<text text-anchor="start" x="835.9431" y="-940.3" font-family="Helvetica,sans-Serif" font-size="11.00" fill="#000000"> &#160;</text>
<polygon fill="#ffffff" stroke="transparent" points="873,-935.2 873,-952.2 940,-952.2 940,-935.2 873,-935.2"/>
<text text-anchor="start" x="931.8862" y="-940.3" font-family="Helvetica,sans-Serif" font-size="11.00" fill="#000000"> &#160;</text>
<polygon fill="#000000" stroke="#000000" points="805,-935.2 805,-952.2 805,-952.2 805,-935.2 805,-935.2"/>
<polygon fill="#000000" stroke="#000000" points="873,-935.2 873,-952.2 873,-952.2 873,-935.2 873,-935.2"/>
</a>
</g>
</g>
<!-- alert -->
<g id="node5" class="node">
<title>alert</title>
<g id="a_node5"><a xlink:href="../../tables/alert.html" xlink:title="alert" target="_top">
<polygon fill="#ffffff" stroke="transparent" points="453.5,-736.2 453.5,-1042.2 669.5,-1042.2 669.5,-736.2 453.5,-736.2"/>
<polygon fill="#f5f5f5" stroke="transparent" points="453.5,-1019.2 453.5,-1042.2 669.5,-1042.2 669.5,-1019.2 453.5,-1019.2"/>
<polygon fill="none" stroke="#000000" points="453.5,-1019.2 453.5,-1042.2 669.5,-1042.2 669.5,-1019.2 453.5,-1019.2"/>
<text text-anchor="start" x="458.5" y="-1027.8" font-family="Helvetica,sans-Serif" font-weight="bold" font-size="11.00" fill="#000000">alert</text>
<text text-anchor="start" x="634.5437" y="-1027.3" font-family="Helvetica,sans-Serif" font-size="11.00" fill="#000000">[table]</text>
<polygon fill="none" stroke="#000000" points="453.5,-997.2 453.5,-1019.2 669.5,-1019.2 669.5,-997.2 453.5,-997.2"/>
<image xlink:href="../../images/primaryKeys.png" width="11px" height="12px" preserveAspectRatio="xMinYMin meet" x="458.5" y="-1014.2"/>
<text text-anchor="start" x="473.5" y="-1004.3" font-family="Helvetica,sans-Serif" font-size="11.00" fill="#000000">id</text>
<polygon fill="#ffffff" stroke="transparent" points="453.5,-975.2 453.5,-997.2 669.5,-997.2 669.5,-975.2 453.5,-975.2"/>
<polygon fill="none" stroke="#000000" points="453.5,-975.2 453.5,-997.2 669.5,-997.2 669.5,-975.2 453.5,-975.2"/>
<image xlink:href="../../images/foreignKeys.png" width="11px" height="12px" preserveAspectRatio="xMinYMin meet" x="458.5" y="-992.2"/>
<text text-anchor="start" x="473.5" y="-982.3" font-family="Helvetica,sans-Serif" font-size="11.00" fill="#000000">alert_code_id</text>
<polygon fill="#ffffff" stroke="transparent" points="453.5,-953.2 453.5,-975.2 669.5,-975.2 669.5,-953.2 453.5,-953.2"/>
<polygon fill="none" stroke="#000000" points="453.5,-953.2 453.5,-975.2 669.5,-975.2 669.5,-953.2 453.5,-953.2"/>
<image xlink:href="../../images/foreignKeys.png" width="11px" height="12px" preserveAspectRatio="xMinYMin meet" x="458.5" y="-970.2"/>
<text text-anchor="start" x="473.5" y="-960.3" font-family="Helvetica,sans-Serif" font-size="11.00" fill="#000000">prison_number</text>
<polygon fill="none" stroke="#000000" points="453.5,-931.2 453.5,-953.2 669.5,-953.2 669.5,-931.2 453.5,-931.2"/>
<text text-anchor="start" x="473.5" y="-938.3" font-family="Helvetica,sans-Serif" font-size="11.00" fill="#000000">description</text>
<polygon fill="none" stroke="#000000" points="453.5,-909.2 453.5,-931.2 669.5,-931.2 669.5,-909.2 453.5,-909.2"/>
<text text-anchor="start" x="473.5" y="-916.3" font-family="Helvetica,sans-Serif" font-size="11.00" fill="#000000">authorised_by</text>
<polygon fill="#ffffff" stroke="transparent" points="453.5,-887.2 453.5,-909.2 669.5,-909.2 669.5,-887.2 453.5,-887.2"/>
<polygon fill="none" stroke="#000000" points="453.5,-887.2 453.5,-909.2 669.5,-909.2 669.5,-887.2 453.5,-887.2"/>
<text text-anchor="start" x="473.5" y="-894.3" font-family="Helvetica,sans-Serif" font-size="11.00" fill="#000000">active_from</text>
<polygon fill="#ffffff" stroke="transparent" points="453.5,-865.2 453.5,-887.2 669.5,-887.2 669.5,-865.2 453.5,-865.2"/>
<polygon fill="none" stroke="#000000" points="453.5,-865.2 453.5,-887.2 669.5,-887.2 669.5,-865.2 453.5,-865.2"/>
<text text-anchor="start" x="473.5" y="-872.3" font-family="Helvetica,sans-Serif" font-size="11.00" fill="#000000">active_to</text>
<polygon fill="#ffffff" stroke="transparent" points="453.5,-843.2 453.5,-865.2 669.5,-865.2 669.5,-843.2 453.5,-843.2"/>
<polygon fill="none" stroke="#000000" points="453.5,-843.2 453.5,-865.2 669.5,-865.2 669.5,-843.2 453.5,-843.2"/>
<text text-anchor="start" x="473.5" y="-850.3" font-family="Helvetica,sans-Serif" font-size="11.00" fill="#000000">deleted_at</text>
<polygon fill="#ffffff" stroke="transparent" points="453.5,-821.2 453.5,-843.2 669.5,-843.2 669.5,-821.2 453.5,-821.2"/>
<polygon fill="none" stroke="#000000" points="453.5,-821.2 453.5,-843.2 669.5,-843.2 669.5,-821.2 453.5,-821.2"/>
<text text-anchor="start" x="473.5" y="-828.3" font-family="Helvetica,sans-Serif" font-size="11.00" fill="#000000">created_at</text>
<polygon fill="#ffffff" stroke="transparent" points="453.5,-799.2 453.5,-821.2 669.5,-821.2 669.5,-799.2 453.5,-799.2"/>
<polygon fill="none" stroke="#000000" points="453.5,-799.2 453.5,-821.2 669.5,-821.2 669.5,-799.2 453.5,-799.2"/>
<text text-anchor="start" x="473.5" y="-806.3" font-family="Helvetica,sans-Serif" font-size="11.00" fill="#000000">last_modified_at</text>
<polygon fill="none" stroke="#000000" points="453.5,-777.2 453.5,-799.2 669.5,-799.2 669.5,-777.2 453.5,-777.2"/>
<text text-anchor="start" x="473.5" y="-784.3" font-family="Helvetica,sans-Serif" font-size="11.00" fill="#000000">prison_code_when_created</text>
<polygon fill="none" stroke="#000000" points="453.5,-755.2 453.5,-777.2 669.5,-777.2 669.5,-755.2 453.5,-755.2"/>
<text text-anchor="start" x="473.5" y="-762.3" font-family="Helvetica,sans-Serif" font-size="11.00" fill="#000000">version</text>
<polygon fill="#ffffff" stroke="transparent" points="453.5,-736.2 453.5,-755.2 669.5,-755.2 669.5,-736.2 453.5,-736.2"/>
<polygon fill="none" stroke="#000000" points="453.5,-736.2 453.5,-755.2 669.5,-755.2 669.5,-736.2 453.5,-736.2"/>
<polygon fill="#ffffff" stroke="transparent" points="454.5,-737.2 454.5,-754.2 529.5,-754.2 529.5,-737.2 454.5,-737.2"/>
<text text-anchor="start" x="456.5" y="-742.3" font-family="Helvetica,sans-Serif" font-size="11.00" fill="#000000">&lt; 1</text>
<polygon fill="#ffffff" stroke="transparent" points="529.5,-737.2 529.5,-754.2 594.5,-754.2 594.5,-737.2 529.5,-737.2"/>
<text text-anchor="start" x="558.9431" y="-742.3" font-family="Helvetica,sans-Serif" font-size="11.00" fill="#000000"> &#160;</text>
<polygon fill="#ffffff" stroke="transparent" points="594.5,-737.2 594.5,-754.2 668.5,-754.2 668.5,-737.2 594.5,-737.2"/>
<text text-anchor="start" x="650.9053" y="-742.3" font-family="Helvetica,sans-Serif" font-size="11.00" fill="#000000">1 &gt;</text>
<polygon fill="#000000" stroke="#000000" points="529.5,-737.2 529.5,-754.2 529.5,-754.2 529.5,-737.2 529.5,-737.2"/>
<polygon fill="#000000" stroke="#000000" points="594.5,-737.2 594.5,-754.2 594.5,-754.2 594.5,-737.2 594.5,-737.2"/>
</a>
</g>
</g>
<!-- audit_event&#45;&gt;alert -->
<g id="edge5" class="edge">
<title>audit_event:w&#45;&gt;alert:e</title>
<path fill="none" stroke="#000000" d="M712.5794,-1008.2C697.7322,-1008.2 689.4653,-1008.2 669.5,-1008.2"/>
<polygon fill="#000000" stroke="#000000" points="719,-1008.2001 727,-1011.8 723,-1008.2 727,-1008.2 727,-1008.2 727,-1008.2 723,-1008.2 727,-1004.6 719,-1008.2001 719,-1008.2001"/>
<ellipse fill="none" stroke="#000000" cx="715.8" cy="-1008.2001" rx="3.2" ry="3.2"/>
</g>
<!-- alert_type -->
<g id="node8" class="node">
<title>alert_type</title>
<g id="a_node8"><a xlink:href="../../tables/alert_type.html" xlink:title="alert_type" target="_top">
<polygon fill="#ffffff" stroke="transparent" points="8,-800.2 8,-1062.2 140,-1062.2 140,-800.2 8,-800.2"/>
<polygon fill="#f5f5f5" stroke="transparent" points="8,-1039.2 8,-1062.2 140,-1062.2 140,-1039.2 8,-1039.2"/>
<polygon fill="none" stroke="#000000" points="8,-1039.2 8,-1062.2 140,-1062.2 140,-1039.2 8,-1039.2"/>
<text text-anchor="start" x="13" y="-1047.8" font-family="Helvetica,sans-Serif" font-weight="bold" font-size="11.00" fill="#000000">alert_type</text>
<text text-anchor="start" x="105.0437" y="-1047.3" font-family="Helvetica,sans-Serif" font-size="11.00" fill="#000000">[table]</text>
<polygon fill="none" stroke="#000000" points="8,-1017.2 8,-1039.2 140,-1039.2 140,-1017.2 8,-1017.2"/>
<image xlink:href="../../images/primaryKeys.png" width="11px" height="12px" preserveAspectRatio="xMinYMin meet" x="13" y="-1034.2"/>
<text text-anchor="start" x="28" y="-1024.3" font-family="Helvetica,sans-Serif" font-size="11.00" fill="#000000">alert_type_id</text>
<polygon fill="#ffffff" stroke="transparent" points="8,-995.2 8,-1017.2 140,-1017.2 140,-995.2 8,-995.2"/>
<polygon fill="none" stroke="#000000" points="8,-995.2 8,-1017.2 140,-1017.2 140,-995.2 8,-995.2"/>
<text text-anchor="start" x="28" y="-1002.3" font-family="Helvetica,sans-Serif" font-size="11.00" fill="#000000">code</text>
<polygon fill="none" stroke="#000000" points="8,-973.2 8,-995.2 140,-995.2 140,-973.2 8,-973.2"/>
<text text-anchor="start" x="28" y="-980.3" font-family="Helvetica,sans-Serif" font-size="11.00" fill="#000000">description</text>
<polygon fill="#ffffff" stroke="transparent" points="8,-951.2 8,-973.2 140,-973.2 140,-951.2 8,-951.2"/>
<polygon fill="none" stroke="#000000" points="8,-951.2 8,-973.2 140,-973.2 140,-951.2 8,-951.2"/>
<text text-anchor="start" x="28" y="-958.3" font-family="Helvetica,sans-Serif" font-size="11.00" fill="#000000">list_sequence</text>
<polygon fill="#ffffff" stroke="transparent" points="8,-929.2 8,-951.2 140,-951.2 140,-929.2 8,-929.2"/>
<polygon fill="none" stroke="#000000" points="8,-929.2 8,-951.2 140,-951.2 140,-929.2 8,-929.2"/>
<text text-anchor="start" x="28" y="-936.3" font-family="Helvetica,sans-Serif" font-size="11.00" fill="#000000">created_at</text>
<polygon fill="none" stroke="#000000" points="8,-907.2 8,-929.2 140,-929.2 140,-907.2 8,-907.2"/>
<text text-anchor="start" x="28" y="-914.3" font-family="Helvetica,sans-Serif" font-size="11.00" fill="#000000">created_by</text>
<polygon fill="none" stroke="#000000" points="8,-885.2 8,-907.2 140,-907.2 140,-885.2 8,-885.2"/>
<text text-anchor="start" x="28" y="-892.3" font-family="Helvetica,sans-Serif" font-size="11.00" fill="#000000">modified_at</text>
<polygon fill="none" stroke="#000000" points="8,-863.2 8,-885.2 140,-885.2 140,-863.2 8,-863.2"/>
<text text-anchor="start" x="28" y="-870.3" font-family="Helvetica,sans-Serif" font-size="11.00" fill="#000000">modified_by</text>
<polygon fill="#ffffff" stroke="transparent" points="8,-841.2 8,-863.2 140,-863.2 140,-841.2 8,-841.2"/>
<polygon fill="none" stroke="#000000" points="8,-841.2 8,-863.2 140,-863.2 140,-841.2 8,-841.2"/>
<text text-anchor="start" x="28" y="-848.3" font-family="Helvetica,sans-Serif" font-size="11.00" fill="#000000">deactivated_at</text>
<polygon fill="none" stroke="#000000" points="8,-819.2 8,-841.2 140,-841.2 140,-819.2 8,-819.2"/>
<text text-anchor="start" x="28" y="-826.3" font-family="Helvetica,sans-Serif" font-size="11.00" fill="#000000">deactivated_by</text>
<polygon fill="#ffffff" stroke="transparent" points="8,-800.2 8,-819.2 140,-819.2 140,-800.2 8,-800.2"/>
<polygon fill="none" stroke="#000000" points="8,-800.2 8,-819.2 140,-819.2 140,-800.2 8,-800.2"/>
<polygon fill="#ffffff" stroke="transparent" points="9,-801.2 9,-818.2 50,-818.2 50,-801.2 9,-801.2"/>
<text text-anchor="start" x="11" y="-806.3" font-family="Helvetica,sans-Serif" font-size="11.00" fill="#000000"> &#160;</text>
<polygon fill="#ffffff" stroke="transparent" points="50,-801.2 50,-818.2 90,-818.2 90,-801.2 50,-801.2"/>
<text text-anchor="start" x="66.9431" y="-806.3" font-family="Helvetica,sans-Serif" font-size="11.00" fill="#000000"> &#160;</text>
<polygon fill="#ffffff" stroke="transparent" points="90,-801.2 90,-818.2 139,-818.2 139,-801.2 90,-801.2"/>
<text text-anchor="start" x="121.4053" y="-806.3" font-family="Helvetica,sans-Serif" font-size="11.00" fill="#000000">1 &gt;</text>
<polygon fill="#000000" stroke="#000000" points="50,-801.2 50,-818.2 50,-818.2 50,-801.2 50,-801.2"/>
<polygon fill="#000000" stroke="#000000" points="90,-801.2 90,-818.2 90,-818.2 90,-801.2 90,-801.2"/>
</a>
</g>
</g>
<!-- alert_code&#45;&gt;alert_type -->
<g id="edge3" class="edge">
<title>alert_code:w&#45;&gt;alert_type:e</title>
<path fill="none" stroke="#000000" d="M211.8315,-1028.2C184.7822,-1028.2 173.0382,-1028.2 140,-1028.2"/>
<polygon fill="#000000" stroke="#000000" points="218.5,-1028.2001 226.5,-1031.8 222.5,-1028.2 226.5,-1028.2 226.5,-1028.2 226.5,-1028.2 222.5,-1028.2 226.5,-1024.6 218.5,-1028.2001 218.5,-1028.2001"/>
<ellipse fill="none" stroke="#000000" cx="215.3" cy="-1028.2001" rx="3.2" ry="3.2"/>
</g>
<!-- alert&#45;&gt;alert_code -->
<g id="edge1" class="edge">
<title>alert:w&#45;&gt;alert_code:e</title>
<path fill="none" stroke="#000000" d="M439.1829,-988.1856C403.3866,-998.9881 404.0404,-1050.2 358.5,-1050.2"/>
<polygon fill="#000000" stroke="#000000" points="445.5758,-987.299 453.9946,-989.7659 449.5379,-986.7495 453.5,-986.2 453.5,-986.2 453.5,-986.2 449.5379,-986.7495 453.0054,-982.6341 445.5758,-987.299 445.5758,-987.299"/>
<ellipse fill="none" stroke="#000000" cx="442.4062" cy="-987.7386" rx="3.2" ry="3.2"/>
</g>
<!-- alert&#45;&gt;person_summary -->
<g id="edge2" class="edge">
<title>alert:w&#45;&gt;person_summary:e</title>
<path fill="none" stroke="#000000" stroke-dasharray="5,2" d="M439.7895,-958.9062C395.1926,-918.4053 454.3017,-659.2 390.5,-659.2"/>
<polygon fill="#000000" stroke="#000000" points="446.037,-961.3184 452.2033,-967.5584 449.7685,-962.7592 453.5,-964.2 453.5,-964.2 453.5,-964.2 449.7685,-962.7592 454.7967,-960.8416 446.037,-961.3184 446.037,-961.3184"/>
<ellipse fill="none" stroke="#000000" cx="443.0518" cy="-960.1657" rx="3.2" ry="3.2"/>
</g>
<!-- bulk_plan -->
<g id="node6" class="node">
<title>bulk_plan</title>
<g id="a_node6"><a xlink:href="../../tables/bulk_plan.html" xlink:title="bulk_plan" target="_top">
<polygon fill="#ffffff" stroke="transparent" points="189,-38.2 189,-432.2 396,-432.2 396,-38.2 189,-38.2"/>
<polygon fill="#f5f5f5" stroke="transparent" points="189.5,-409.2 189.5,-432.2 396.5,-432.2 396.5,-409.2 189.5,-409.2"/>
<polygon fill="none" stroke="#000000" points="189.5,-409.2 189.5,-432.2 396.5,-432.2 396.5,-409.2 189.5,-409.2"/>
<text text-anchor="start" x="194.5" y="-417.8" font-family="Helvetica,sans-Serif" font-weight="bold" font-size="11.00" fill="#000000">bulk_plan</text>
<text text-anchor="start" x="361.5437" y="-417.3" font-family="Helvetica,sans-Serif" font-size="11.00" fill="#000000">[table]</text>
<polygon fill="none" stroke="#000000" points="189.5,-387.2 189.5,-409.2 396.5,-409.2 396.5,-387.2 189.5,-387.2"/>
<image xlink:href="../../images/primaryKeys.png" width="11px" height="12px" preserveAspectRatio="xMinYMin meet" x="194.5" y="-404.2"/>
<text text-anchor="start" x="209.5" y="-394.3" font-family="Helvetica,sans-Serif" font-size="11.00" fill="#000000">id</text>
<polygon fill="none" stroke="#000000" points="189.5,-365.2 189.5,-387.2 396.5,-387.2 396.5,-365.2 189.5,-365.2"/>
<text text-anchor="start" x="209.5" y="-372.3" font-family="Helvetica,sans-Serif" font-size="11.00" fill="#000000">alert_code_id</text>
<polygon fill="none" stroke="#000000" points="189.5,-343.2 189.5,-365.2 396.5,-365.2 396.5,-343.2 189.5,-343.2"/>
<text text-anchor="start" x="209.5" y="-350.3" font-family="Helvetica,sans-Serif" font-size="11.00" fill="#000000">description</text>
<polygon fill="none" stroke="#000000" points="189.5,-321.2 189.5,-343.2 396.5,-343.2 396.5,-321.2 189.5,-321.2"/>
<text text-anchor="start" x="209.5" y="-328.3" font-family="Helvetica,sans-Serif" font-size="11.00" fill="#000000">version</text>
<polygon fill="none" stroke="#000000" points="189.5,-299.2 189.5,-321.2 396.5,-321.2 396.5,-299.2 189.5,-299.2"/>
<text text-anchor="start" x="209.5" y="-306.3" font-family="Helvetica,sans-Serif" font-size="11.00" fill="#000000">created_at</text>
<polygon fill="none" stroke="#000000" points="189.5,-277.2 189.5,-299.2 396.5,-299.2 396.5,-277.2 189.5,-277.2"/>
<text text-anchor="start" x="209.5" y="-284.3" font-family="Helvetica,sans-Serif" font-size="11.00" fill="#000000">created_by</text>
<polygon fill="none" stroke="#000000" points="189.5,-255.2 189.5,-277.2 396.5,-277.2 396.5,-255.2 189.5,-255.2"/>
<text text-anchor="start" x="209.5" y="-262.3" font-family="Helvetica,sans-Serif" font-size="11.00" fill="#000000">created_by_display_name</text>
<polygon fill="none" stroke="#000000" points="189.5,-233.2 189.5,-255.2 396.5,-255.2 396.5,-233.2 189.5,-233.2"/>
<text text-anchor="start" x="209.5" y="-240.3" font-family="Helvetica,sans-Serif" font-size="11.00" fill="#000000">cleanup_mode</text>
<polygon fill="none" stroke="#000000" points="189.5,-211.2 189.5,-233.2 396.5,-233.2 396.5,-211.2 189.5,-211.2"/>
<text text-anchor="start" x="209.5" y="-218.3" font-family="Helvetica,sans-Serif" font-size="11.00" fill="#000000">started_at</text>
<polygon fill="none" stroke="#000000" points="189.5,-189.2 189.5,-211.2 396.5,-211.2 396.5,-189.2 189.5,-189.2"/>
<text text-anchor="start" x="209.5" y="-196.3" font-family="Helvetica,sans-Serif" font-size="11.00" fill="#000000">started_by</text>
<polygon fill="none" stroke="#000000" points="189.5,-167.2 189.5,-189.2 396.5,-189.2 396.5,-167.2 189.5,-167.2"/>
<text text-anchor="start" x="209.5" y="-174.3" font-family="Helvetica,sans-Serif" font-size="11.00" fill="#000000">started_by_display_name</text>
<polygon fill="none" stroke="#000000" points="189.5,-145.2 189.5,-167.2 396.5,-167.2 396.5,-145.2 189.5,-145.2"/>
<text text-anchor="start" x="209.5" y="-152.3" font-family="Helvetica,sans-Serif" font-size="11.00" fill="#000000">completed_at</text>
<polygon fill="none" stroke="#000000" points="189.5,-123.2 189.5,-145.2 396.5,-145.2 396.5,-123.2 189.5,-123.2"/>
<text text-anchor="start" x="209.5" y="-130.3" font-family="Helvetica,sans-Serif" font-size="11.00" fill="#000000">created_count</text>
<polygon fill="none" stroke="#000000" points="189.5,-101.2 189.5,-123.2 396.5,-123.2 396.5,-101.2 189.5,-101.2"/>
<text text-anchor="start" x="209.5" y="-108.3" font-family="Helvetica,sans-Serif" font-size="11.00" fill="#000000">updated_count</text>
<polygon fill="none" stroke="#000000" points="189.5,-79.2 189.5,-101.2 396.5,-101.2 396.5,-79.2 189.5,-79.2"/>
<text text-anchor="start" x="209.5" y="-86.3" font-family="Helvetica,sans-Serif" font-size="11.00" fill="#000000">unchanged_count</text>
<polygon fill="none" stroke="#000000" points="189.5,-57.2 189.5,-79.2 396.5,-79.2 396.5,-57.2 189.5,-57.2"/>
<text text-anchor="start" x="209.5" y="-64.3" font-family="Helvetica,sans-Serif" font-size="11.00" fill="#000000">expired_count</text>
<polygon fill="#ffffff" stroke="transparent" points="189.5,-38.2 189.5,-57.2 396.5,-57.2 396.5,-38.2 189.5,-38.2"/>
<polygon fill="none" stroke="#000000" points="189.5,-38.2 189.5,-57.2 396.5,-57.2 396.5,-38.2 189.5,-38.2"/>
<polygon fill="#ffffff" stroke="transparent" points="190.5,-39.2 190.5,-56.2 256.5,-56.2 256.5,-39.2 190.5,-39.2"/>
<text text-anchor="start" x="192.5" y="-44.3" font-family="Helvetica,sans-Serif" font-size="11.00" fill="#000000"> &#160;</text>
<polygon fill="#ffffff" stroke="transparent" points="256.5,-39.2 256.5,-56.2 321.5,-56.2 321.5,-39.2 256.5,-39.2"/>
<text text-anchor="start" x="285.9431" y="-44.3" font-family="Helvetica,sans-Serif" font-size="11.00" fill="#000000"> &#160;</text>
<polygon fill="#ffffff" stroke="transparent" points="321.5,-39.2 321.5,-56.2 395.5,-56.2 395.5,-39.2 321.5,-39.2"/>
<text text-anchor="start" x="377.9053" y="-44.3" font-family="Helvetica,sans-Serif" font-size="11.00" fill="#000000">1 &gt;</text>
<polygon fill="#000000" stroke="#000000" points="256.5,-39.2 256.5,-56.2 256.5,-56.2 256.5,-39.2 256.5,-39.2"/>
<polygon fill="#000000" stroke="#000000" points="321.5,-39.2 321.5,-56.2 321.5,-56.2 321.5,-39.2 321.5,-39.2"/>
</a>
</g>
</g>
<!-- plan_person -->
<g id="node7" class="node">
<title>plan_person</title>
<g id="a_node7"><a xlink:href="../../tables/plan_person.html" xlink:title="plan_person" target="_top">
<polygon fill="#ffffff" stroke="transparent" points="496.5,-346.2 496.5,-432.2 626.5,-432.2 626.5,-346.2 496.5,-346.2"/>
<polygon fill="#f5f5f5" stroke="transparent" points="496.5,-409.2 496.5,-432.2 626.5,-432.2 626.5,-409.2 496.5,-409.2"/>
<polygon fill="none" stroke="#000000" points="496.5,-409.2 496.5,-432.2 626.5,-432.2 626.5,-409.2 496.5,-409.2"/>
<text text-anchor="start" x="501.5" y="-417.8" font-family="Helvetica,sans-Serif" font-weight="bold" font-size="11.00" fill="#000000">plan_person</text>
<text text-anchor="start" x="591.5437" y="-417.3" font-family="Helvetica,sans-Serif" font-size="11.00" fill="#000000">[table]</text>
<polygon fill="none" stroke="#000000" points="496.5,-387.2 496.5,-409.2 626.5,-409.2 626.5,-387.2 496.5,-387.2"/>
<image xlink:href="../../images/foreignKeys.png" width="11px" height="12px" preserveAspectRatio="xMinYMin meet" x="501.5" y="-404.2"/>
<text text-anchor="start" x="516.5" y="-394.3" font-family="Helvetica,sans-Serif" font-size="11.00" fill="#000000">plan_id</text>
<polygon fill="none" stroke="#000000" points="496.5,-365.2 496.5,-387.2 626.5,-387.2 626.5,-365.2 496.5,-365.2"/>
<image xlink:href="../../images/foreignKeys.png" width="11px" height="12px" preserveAspectRatio="xMinYMin meet" x="501.5" y="-382.2"/>
<text text-anchor="start" x="516.5" y="-372.3" font-family="Helvetica,sans-Serif" font-size="11.00" fill="#000000">prison_number</text>
<polygon fill="#ffffff" stroke="transparent" points="496.5,-346.2 496.5,-365.2 626.5,-365.2 626.5,-346.2 496.5,-346.2"/>
<polygon fill="none" stroke="#000000" points="496.5,-346.2 496.5,-365.2 626.5,-365.2 626.5,-346.2 496.5,-346.2"/>
<polygon fill="#ffffff" stroke="transparent" points="497.5,-347.2 497.5,-364.2 546.5,-364.2 546.5,-347.2 497.5,-347.2"/>
<text text-anchor="start" x="499.5" y="-352.3" font-family="Helvetica,sans-Serif" font-size="11.00" fill="#000000">&lt; 2</text>
<polygon fill="#ffffff" stroke="transparent" points="546.5,-347.2 546.5,-364.2 586.5,-364.2 586.5,-347.2 546.5,-347.2"/>
<text text-anchor="start" x="563.4431" y="-352.3" font-family="Helvetica,sans-Serif" font-size="11.00" fill="#000000"> &#160;</text>
<polygon fill="#ffffff" stroke="transparent" points="586.5,-347.2 586.5,-364.2 625.5,-364.2 625.5,-347.2 586.5,-347.2"/>
<text text-anchor="start" x="617.3862" y="-352.3" font-family="Helvetica,sans-Serif" font-size="11.00" fill="#000000"> &#160;</text>
<polygon fill="#000000" stroke="#000000" points="546.5,-347.2 546.5,-364.2 546.5,-364.2 546.5,-347.2 546.5,-347.2"/>
<polygon fill="#000000" stroke="#000000" points="586.5,-347.2 586.5,-364.2 586.5,-364.2 586.5,-347.2 586.5,-347.2"/>
</a>
</g>
</g>
<!-- plan_person&#45;&gt;bulk_plan -->
<g id="edge6" class="edge">
<title>plan_person:w&#45;&gt;bulk_plan:e</title>
<path fill="none" stroke="#000000" d="M481.7022,-398.2C448.8758,-398.2 435.5625,-398.2 396.5,-398.2"/>
<polygon fill="#000000" stroke="#000000" points="488.5,-398.2001 496.5,-401.8 492.5,-398.2 496.5,-398.2 496.5,-398.2 496.5,-398.2 492.5,-398.2 496.5,-394.6 488.5,-398.2001 488.5,-398.2001"/>
<ellipse fill="none" stroke="#000000" cx="485.3" cy="-398.2001" rx="3.2" ry="3.2"/>
</g>
<!-- plan_person&#45;&gt;person_summary -->
<g id="edge7" class="edge">
<title>plan_person:w&#45;&gt;person_summary:e</title>
<path fill="none" stroke="#000000" d="M481.9123,-377.9554C456.1184,-384.9571 452.4427,-411.9768 437,-442.2 392.1216,-530.0326 489.1339,-659.2 390.5,-659.2"/>
<polygon fill="#000000" stroke="#000000" points="488.5573,-377.1558 496.9301,-379.7742 492.5287,-376.6779 496.5,-376.2 496.5,-376.2 496.5,-376.2 492.5287,-376.6779 496.0699,-372.6258 488.5573,-377.1558 488.5573,-377.1558"/>
<ellipse fill="none" stroke="#000000" cx="485.3802" cy="-377.5382" rx="3.2" ry="3.2"/>
</g>
</g>
</svg>
