<?xml version="1.0" encoding="UTF-8" standalone="no"?>
<!DOCTYPE svg PUBLIC "-//W3C//DTD SVG 1.1//EN"
 "http://www.w3.org/Graphics/SVG/1.1/DTD/svg11.dtd">
<!-- Generated by graphviz version 2.40.1 (20161225.0304)
 -->
<!-- Title: largeImpliedRelationshipsDiagram Pages: 1 -->
<svg width="903pt" height="1296pt"
 viewBox="0.00 0.00 903.00 1296.20" xmlns="http://www.w3.org/2000/svg" xmlns:xlink="http://www.w3.org/1999/xlink">
<g id="graph0" class="graph" transform="scale(1 1) rotate(0) translate(4 1292.2)">
<title>largeImpliedRelationshipsDiagram</title>
<polygon fill="#ffffff" stroke="transparent" points="-4,4 -4,-1292.2 899,-1292.2 899,4 -4,4"/>
<text text-anchor="middle" x="72.4936" y="-7.3" font-family="Helvetica,sans-Serif" font-size="11.00" fill="#000000">Generated by SchemaSpy</text>
<!-- resync_audit -->
<g id="node1" class="node">
<title>resync_audit</title>
<g id="a_node1"><a xlink:href="../../tables/resync_audit.html" xlink:title="resync_audit" target="_top">
<polygon fill="#ffffff" stroke="transparent" points="425,-453.2 425,-715.2 635,-715.2 635,-453.2 425,-453.2"/>
<polygon fill="#f5f5f5" stroke="transparent" points="425,-692.2 425,-715.2 635,-715.2 635,-692.2 425,-692.2"/>
<polygon fill="none" stroke="#000000" points="425,-692.2 425,-715.2 635,-715.2 635,-692.2 425,-692.2"/>
<text text-anchor="start" x="430" y="-700.8" font-family="Helvetica,sans-Serif" font-weight="bold" font-size="11.00" fill="#000000">resync_audit</text>
<text text-anchor="start" x="600.0437" y="-700.3" font-family="Helvetica,sans-Serif" font-size="11.00" fill="#000000">[table]</text>
<polygon fill="none" stroke="#000000" points="425,-670.2 425,-692.2 635,-692.2 635,-670.2 425,-670.2"/>
<image xlink:href="../../images/primaryKeys.png" width="11px" height="12px" preserveAspectRatio="xMinYMin meet" x="430" y="-687.2"/>
<text text-anchor="start" x="445" y="-677.3" font-family="Helvetica,sans-Serif" font-size="11.00" fill="#000000">id</text>
<polygon fill="#ffffff" stroke="transparent" points="425,-648.2 425,-670.2 635,-670.2 635,-648.2 425,-648.2"/>
<polygon fill="none" stroke="#000000" points="425,-648.2 425,-670.2 635,-670.2 635,-648.2 425,-648.2"/>
<image xlink:href="../../images/foreignKeys.png" width="11px" height="12px" preserveAspectRatio="xMinYMin meet" x="430" y="-665.2"/>
<text text-anchor="start" x="445" y="-655.3" font-family="Helvetica,sans-Serif" font-size="11.00" fill="#000000">prison_number</text>
<polygon fill="none" stroke="#000000" points="425,-626.2 425,-648.2 635,-648.2 635,-626.2 425,-626.2"/>
<text text-anchor="start" x="445" y="-633.3" font-family="Helvetica,sans-Serif" font-size="11.00" fill="#000000">request</text>
<polygon fill="none" stroke="#000000" points="425,-604.2 425,-626.2 635,-626.2 635,-604.2 425,-604.2"/>
<text text-anchor="start" x="445" y="-611.3" font-family="Helvetica,sans-Serif" font-size="11.00" fill="#000000">requested_at</text>
<polygon fill="none" stroke="#000000" points="425,-582.2 425,-604.2 635,-604.2 635,-582.2 425,-582.2"/>
<text text-anchor="start" x="445" y="-589.3" font-family="Helvetica,sans-Serif" font-size="11.00" fill="#000000">requested_by</text>
<polygon fill="none" stroke="#000000" points="425,-560.2 425,-582.2 635,-582.2 635,-560.2 425,-560.2"/>
<text text-anchor="start" x="445" y="-567.3" font-family="Helvetica,sans-Serif" font-size="11.00" fill="#000000">requested_by_display_name</text>
<polygon fill="none" stroke="#000000" points="425,-538.2 425,-560.2 635,-560.2 635,-538.2 425,-538.2"/>
<text text-anchor="start" x="445" y="-545.3" font-family="Helvetica,sans-Serif" font-size="11.00" fill="#000000">source</text>
<polygon fill="none" stroke="#000000" points="425,-516.2 425,-538.2 635,-538.2 635,-516.2 425,-516.2"/>
<text text-anchor="start" x="445" y="-523.3" font-family="Helvetica,sans-Serif" font-size="11.00" fill="#000000">completed_at</text>
<polygon fill="none" stroke="#000000" points="425,-494.2 425,-516.2 635,-516.2 635,-494.2 425,-494.2"/>
<text text-anchor="start" x="445" y="-501.3" font-family="Helvetica,sans-Serif" font-size="11.00" fill="#000000">alerts_deleted</text>
<polygon fill="none" stroke="#000000" points="425,-472.2 425,-494.2 635,-494.2 635,-472.2 425,-472.2"/>
<text text-anchor="start" x="445" y="-479.3" font-family="Helvetica,sans-Serif" font-size="11.00" fill="#000000">alerts_created</text>
<polygon fill="#ffffff" stroke="transparent" points="425,-453.2 425,-472.2 524,-472.2 524,-453.2 425,-453.2"/>
<polygon fill="none" stroke="#000000" points="425,-453.2 425,-472.2 524,-472.2 524,-453.2 425,-453.2"/>
<text text-anchor="start" x="428" y="-459.3" font-family="Helvetica,sans-Serif" font-size="11.00" fill="#000000"> &#160;</text>
<polygon fill="#ffffff" stroke="transparent" points="524,-453.2 524,-472.2 579,-472.2 579,-453.2 524,-453.2"/>
<polygon fill="none" stroke="#000000" points="524,-453.2 524,-472.2 579,-472.2 579,-453.2 524,-453.2"/>
<text text-anchor="start" x="569.8862" y="-459.3" font-family="Helvetica,sans-Serif" font-size="11.00" fill="#000000"> &#160;</text>
<polygon fill="#ffffff" stroke="transparent" points="579,-453.2 579,-472.2 635,-472.2 635,-453.2 579,-453.2"/>
<polygon fill="none" stroke="#000000" points="579,-453.2 579,-472.2 635,-472.2 635,-453.2 579,-453.2"/>
<text text-anchor="start" x="625.8862" y="-459.3" font-family="Helvetica,sans-Serif" font-size="11.00" fill="#000000"> &#160;</text>
</a>
</g>
</g>
<!-- person_summary -->
<g id="node9" class="node">
<title>person_summary</title>
<g id="a_node9"><a xlink:href="../../tables/person_summary.html" xlink:title="person_summary" target="_top">
<polygon fill="#ffffff" stroke="transparent" points="185.5,-453.2 185.5,-693.2 366.5,-693.2 366.5,-453.2 185.5,-453.2"/>
<polygon fill="#f5f5f5" stroke="transparent" points="186,-670.2 186,-693.2 367,-693.2 367,-670.2 186,-670.2"/>
<polygon fill="none" stroke="#000000" points="186,-670.2 186,-693.2 367,-693.2 367,-670.2 186,-670.2"/>
<text text-anchor="start" x="191" y="-678.8" font-family="Helvetica,sans-Serif" font-weight="bold" font-size="11.00" fill="#000000">person_summary</text>
<text text-anchor="start" x="332.0437" y="-678.3" font-family="Helvetica,sans-Serif" font-size="11.00" fill="#000000">[table]</text>
<polygon fill="none" stroke="#000000" points="186,-648.2 186,-670.2 367,-670.2 367,-648.2 186,-648.2"/>
<image xlink:href="../../images/primaryKeys.png" width="11px" height="12px" preserveAspectRatio="xMinYMin meet" x="191" y="-665.2"/>
<text text-anchor="start" x="206" y="-655.3" font-family="Helvetica,sans-Serif" font-size="11.00" fill="#000000">prison_number</text>
<polygon fill="none" stroke="#000000" points="186,-626.2 186,-648.2 367,-648.2 367,-626.2 186,-626.2"/>
<text text-anchor="start" x="206" y="-633.3" font-family="Helvetica,sans-Serif" font-size="11.00" fill="#000000">first_name</text>
<polygon fill="none" stroke="#000000" points="186,-604.2 186,-626.2 367,-626.2 367,-604.2 186,-604.2"/>
<text text-anchor="start" x="206" y="-611.3" font-family="Helvetica,sans-Serif" font-size="11.00" fill="#000000">last_name</text>
<polygon fill="none" stroke="#000000" points="186,-582.2 186,-604.2 367,-604.2 367,-582.2 186,-582.2"/>
<text text-anchor="start" x="206" y="-589.3" font-family="Helvetica,sans-Serif" font-size="11.00" fill="#000000">status</text>
<polygon fill="none" stroke="#000000" points="186,-560.2 186,-582.2 367,-582.2 367,-560.2 186,-560.2"/>
<text text-anchor="start" x="206" y="-567.3" font-family="Helvetica,sans-Serif" font-size="11.00" fill="#000000">restricted_patient</text>
<polygon fill="none" stroke="#000000" points="186,-538.2 186,-560.2 367,-560.2 367,-538.2 186,-538.2"/>
<text text-anchor="start" x="206" y="-545.3" font-family="Helvetica,sans-Serif" font-size="11.00" fill="#000000">prison_code</text>
<polygon fill="none" stroke="#000000" points="186,-516.2 186,-538.2 367,-538.2 367,-516.2 186,-516.2"/>
<text text-anchor="start" x="206" y="-523.3" font-family="Helvetica,sans-Serif" font-size="11.00" fill="#000000">cell_location</text>
<polygon fill="none" stroke="#000000" points="186,-494.2 186,-516.2 367,-516.2 367,-494.2 186,-494.2"/>
<text text-anchor="start" x="206" y="-501.3" font-family="Helvetica,sans-Serif" font-size="11.00" fill="#000000">supporting_prison_code</text>
<polygon fill="none" stroke="#000000" points="186,-472.2 186,-494.2 367,-494.2 367,-472.2 186,-472.2"/>
<text text-anchor="start" x="206" y="-479.3" font-family="Helvetica,sans-Serif" font-size="11.00" fill="#000000">version</text>
<polygon fill="#ffffff" stroke="transparent" points="186,-453.2 186,-472.2 266,-472.2 266,-453.2 186,-453.2"/>
<polygon fill="none" stroke="#000000" points="186,-453.2 186,-472.2 266,-472.2 266,-453.2 186,-453.2"/>
<text text-anchor="start" x="189" y="-459.3" font-family="Helvetica,sans-Serif" font-size="11.00" fill="#000000"> &#160;</text>
<polygon fill="#ffffff" stroke="transparent" points="266,-453.2 266,-472.2 312,-472.2 312,-453.2 266,-453.2"/>
<polygon fill="none" stroke="#000000" points="266,-453.2 266,-472.2 312,-472.2 312,-453.2 266,-453.2"/>
<text text-anchor="start" x="302.8862" y="-459.3" font-family="Helvetica,sans-Serif" font-size="11.00" fill="#000000"> &#160;</text>
<polygon fill="#ffffff" stroke="transparent" points="312,-453.2 312,-472.2 367,-472.2 367,-453.2 312,-453.2"/>
<polygon fill="none" stroke="#000000" points="312,-453.2 312,-472.2 367,-472.2 367,-453.2 312,-453.2"/>
<text text-anchor="start" x="348.4053" y="-459.3" font-family="Helvetica,sans-Serif" font-size="11.00" fill="#000000">1 &gt;</text>
</a>
</g>
</g>
<!-- resync_audit&#45;&gt;person_summary -->
<g id="edge8" class="edge">
<title>resync_audit:w&#45;&gt;person_summary:e</title>
<path fill="none" stroke="#000000" stroke-dasharray="5,2" d="M410.454,-659.2C395.4776,-659.2 387.1389,-659.2 367,-659.2"/>
<polygon fill="#000000" stroke="#000000" points="417,-659.2001 425,-662.8 421,-659.2 425,-659.2 425,-659.2 425,-659.2 421,-659.2 425,-655.6 417,-659.2001 417,-659.2001"/>
<ellipse fill="none" stroke="#000000" cx="413.8" cy="-659.2001" rx="3.2" ry="3.2"/>
</g>
<!-- alert_code_privileged_user -->
<g id="node2" class="node">
<title>alert_code_privileged_user</title>
<g id="a_node2"><a xlink:href="../../tables/alert_code_privileged_user.html" xlink:title="alert_code_privileged_user" target="_top">
<polygon fill="#ffffff" stroke="transparent" points="421,-1063.2 421,-1149.2 639,-1149.2 639,-1063.2 421,-1063.2"/>
<polygon fill="#f5f5f5" stroke="transparent" points="421,-1126.2 421,-1149.2 639,-1149.2 639,-1126.2 421,-1126.2"/>
<polygon fill="none" stroke="#000000" points="421,-1126.2 421,-1149.2 639,-1149.2 639,-1126.2 421,-1126.2"/>
<text text-anchor="start" x="426" y="-1134.8" font-family="Helvetica,sans-Serif" font-weight="bold" font-size="11.00" fill="#000000">alert_code_privileged_user</text>
<text text-anchor="start" x="604.5219" y="-1134.3" font-family="Helvetica,sans-Serif" font-size="11.00" fill="#000000">[table]</text>
<polygon fill="none" stroke="#000000" points="421,-1104.2 421,-1126.2 639,-1126.2 639,-1104.2 421,-1104.2"/>
<image xlink:href="../../images/primaryKeys.png" width="11px" height="12px" preserveAspectRatio="xMinYMin meet" x="426" y="-1121.2"/>
<text text-anchor="start" x="450" y="-1111.3" font-family="Helvetica,sans-Serif" font-size="11.00" fill="#000000">alert_code_id</text>
<polygon fill="none" stroke="#000000" points="421,-1082.2 421,-1104.2 639,-1104.2 639,-1082.2 421,-1082.2"/>
<image xlink:href="../../images/primaryKeys.png" width="11px" height="12px" preserveAspectRatio="xMinYMin meet" x="426" y="-1099.2"/>
<text text-anchor="start" x="450" y="-1089.3" font-family="Helvetica,sans-Serif" font-size="11.00" fill="#000000">username</text>
<polygon fill="#ffffff" stroke="transparent" points="421,-1063.2 421,-1082.2 528,-1082.2 528,-1063.2 421,-1063.2"/>
<polygon fill="none" stroke="#000000" points="421,-1063.2 421,-1082.2 528,-1082.2 528,-1063.2 421,-1063.2"/>
<text text-anchor="start" x="424" y="-1069.3" font-family="Helvetica,sans-Serif" font-size="11.00" fill="#000000">&lt; 1</text>
<polygon fill="#ffffff" stroke="transparent" points="528,-1063.2 528,-1082.2 583,-1082.2 583,-1063.2 528,-1063.2"/>
<polygon fill="none" stroke="#000000" points="528,-1063.2 528,-1082.2 583,-1082.2 583,-1063.2 528,-1063.2"/>
<text text-anchor="start" x="573.8862" y="-1069.3" font-family="Helvetica,sans-Serif" font-size="11.00" fill="#000000"> &#160;</text>
<polygon fill="#ffffff" stroke="transparent" points="583,-1063.2 583,-1082.2 639,-1082.2 639,-1063.2 583,-1063.2"/>
<polygon fill="none" stroke="#000000" points="583,-1063.2 583,-1082.2 639,-1082.2 639,-1063.2 583,-1063.2"/>
<text text-anchor="start" x="629.8862" y="-1069.3" font-family="Helvetica,sans-Serif" font-size="11.00" fill="#000000"> &#160;</text>
</a>
</g>
</g>
<!-- alert_code -->
<g id="node4" class="node">
<title>alert_code</title>
<g id="a_node4"><a xlink:href="../../tables/alert_code.html" xlink:title="alert_code" target="_top">
<polygon fill="#ffffff" stroke="transparent" points="214.5,-778.2 214.5,-1084.2 337.5,-1084.2 337.5,-778.2 214.5,-778.2"/>
<polygon fill="#f5f5f5" stroke="transparent" points="215,-1061.2 215,-1084.2 338,-1084.2 338,-1061.2 215,-1061.2"/>
<polygon fill="none" stroke="#000000" points="215,-1061.2 215,-1084.2 338,-1084.2 338,-1061.2 215,-1061.2"/>
<text text-anchor="start" x="220" y="-1069.8" font-family="Helvetica,sans-Serif" font-weight="bold" font-size="11.00" fill="#000000">alert_code</text>
<text text-anchor="start" x="303.0437" y="-1069.3" font-family="Helvetica,sans-Serif" font-size="11.00" fill="#000000">[table]</text>
<polygon fill="none" stroke="#000000" points="215,-1039.2 215,-1061.2 338,-1061.2 338,-1039.2 215,-1039.2"/>
<image xlink:href="../../images/primaryKeys.png" width="11px" height="12px" preserveAspectRatio="xMinYMin meet" x="220" y="-1056.2"/>
<text text-anchor="start" x="235" y="-1046.3" font-family="Helvetica,sans-Serif" font-size="11.00" fill="#000000">alert_code_id</text>
<polygon fill="#ffffff" stroke="transparent" points="215,-1017.2 215,-1039.2 338,-1039.2 338,-1017.2 215,-1017.2"/>
<polygon fill="none" stroke="#000000" points="215,-1017.2 215,-1039.2 338,-1039.2 338,-1017.2 215,-1017.2"/>
<image xlink:href="../../images/foreignKeys.png" width="11px" height="12px" preserveAspectRatio="xMinYMin meet" x="220" y="-1034.2"/>
<text text-anchor="start" x="235" y="-1024.3" font-family="Helvetica,sans-Serif" font-size="11.00" fill="#000000">alert_type_id</text>
<polygon fill="#ffffff" stroke="transparent" points="215,-995.2 215,-1017.2 338,-1017.2 338,-995.2 215,-995.2"/>
<polygon fill="none" stroke="#000000" points="215,-995.2 215,-1017.2 338,-1017.2 338,-995.2 215,-995.2"/>
<text text-anchor="start" x="235" y="-1002.3" font-family="Helvetica,sans-Serif" font-size="11.00" fill="#000000">code</text>
<polygon fill="none" stroke="#000000" points="215,-973.2 215,-995.2 338,-995.2 338,-973.2 215,-973.2"/>
<text text-anchor="start" x="235" y="-980.3" font-family="Helvetica,sans-Serif" font-size="11.00" fill="#000000">description</text>
<polygon fill="#ffffff" stroke="transparent" points="215,-951.2 215,-973.2 338,-973.2 338,-951.2 215,-951.2"/>
<polygon fill="none" stroke="#000000" points="215,-951.2 215,-973.2 338,-973.2 338,-951.2 215,-951.2"/>
<text text-anchor="start" x="235" y="-958.3" font-family="Helvetica,sans-Serif" font-size="11.00" fill="#000000">list_sequence</text>
<polygon fill="#ffffff" stroke="transparent" points="215,-929.2 215,-951.2 338,-951.2 338,-929.2 215,-929.2"/>
<polygon fill="none" stroke="#000000" points="215,-929.2 215,-951.2 338,-951.2 338,-929.2 215,-929.2"/>
<text text-anchor="start" x="235" y="-936.3" font-family="Helvetica,sans-Serif" font-size="11.00" fill="#000000">created_at</text>
<polygon fill="none" stroke="#000000" points="215,-907.2 215,-929.2 338,-929.2 338,-907.2 215,-907.2"/>
<text text-anchor="start" x="235" y="-914.3" font-family="Helvetica,sans-Serif" font-size="11.00" fill="#000000">created_by</text>
<polygon fill="none" stroke="#000000" points="215,-885.2 215,-907.2 338,-907.2 338,-885.2 215,-885.2"/>
<text text-anchor="start" x="235" y="-892.3" font-family="Helvetica,sans-Serif" font-size="11.00" fill="#000000">modified_at</text>
<polygon fill="none" stroke="#000000" points="215,-863.2 215,-885.2 338,-885.2 338,-863.2 215,-863.2"/>
<text text-anchor="start" x="235" y="-870.3" font-family="Helvetica,sans-Serif" font-size="11.00" fill="#000000">modified_by</text>
<polygon fill="#ffffff" stroke="transparent" points="215,-841.2 215,-863.2 338,-863.2 338,-841.2 215,-841.2"/>
<polygon fill="none" stroke="#000000" points="215,-841.2 215,-863.2 338,-863.2 338,-841.2 215,-841.2"/>
<text text-anchor="start" x="235" y="-848.3" font-family="Helvetica,sans-Serif" font-size="11.00" fill="#000000">deactivated_at</text>
<polygon fill="none" stroke="#000000" points="215,-819.2 215,-841.2 338,-841.2 338,-819.2 215,-819.2"/>
<text text-anchor="start" x="235" y="-826.3" font-family="Helvetica,sans-Serif" font-size="11.00" fill="#000000">deactivated_by</text>
<polygon fill="none" stroke="#000000" points="215,-797.2 215,-819.2 338,-819.2 338,-797.2 215,-797.2"/>
<text text-anchor="start" x="235" y="-804.3" font-family="Helvetica,sans-Serif" font-size="11.00" fill="#000000">restricted</text>
<polygon fill="#ffffff" stroke="transparent" points="215,-778.2 215,-797.2 270,-797.2 270,-778.2 215,-778.2"/>
<polygon fill="none" stroke="#000000" points="215,-778.2 215,-797.2 270,-797.2 270,-778.2 215,-778.2"/>
<text text-anchor="start" x="218" y="-784.3" font-family="Helvetica,sans-Serif" font-size="11.00" fill="#000000">&lt; 1</text>
<polygon fill="#ffffff" stroke="transparent" points="270,-778.2 270,-797.2 299,-797.2 299,-778.2 270,-778.2"/>
<polygon fill="none" stroke="#000000" points="270,-778.2 270,-797.2 299,-797.2 299,-778.2 270,-778.2"/>
<text text-anchor="start" x="289.8862" y="-784.3" font-family="Helvetica,sans-Serif" font-size="11.00" fill="#000000"> &#160;</text>
<polygon fill="#ffffff" stroke="transparent" points="299,-778.2 299,-797.2 338,-797.2 338,-778.2 299,-778.2"/>
<polygon fill="none" stroke="#000000" points="299,-778.2 299,-797.2 338,-797.2 338,-778.2 299,-778.2"/>
<text text-anchor="start" x="319.4053" y="-784.3" font-family="Helvetica,sans-Serif" font-size="11.00" fill="#000000">2 &gt;</text>
</a>
</g>
</g>
<!-- alert_code_privileged_user&#45;&gt;alert_code -->
<g id="edge4" class="edge">
<title>alert_code_privileged_user:w&#45;&gt;alert_code:e</title>
<path fill="none" stroke="#000000" d="M406.7139,-1112.7313C375.8648,-1100.8583 379.3639,-1050.2 338,-1050.2"/>
<polygon fill="#000000" stroke="#000000" points="413.1168,-1113.8377 420.387,-1118.7474 417.0584,-1114.5189 421,-1115.2 421,-1115.2 421,-1115.2 417.0584,-1114.5189 421.613,-1111.6526 413.1168,-1113.8377 413.1168,-1113.8377"/>
<ellipse fill="none" stroke="#000000" cx="409.9636" cy="-1113.2928" rx="3.2" ry="3.2"/>
</g>
<!-- audit_event -->
<g id="node3" class="node">
<title>audit_event</title>
<g id="a_node3"><a xlink:href="../../tables/audit_event.html" xlink:title="audit_event" target="_top">
<polygon fill="#ffffff" stroke="transparent" points="688,-934.2 688,-1284.2 887,-1284.2 887,-934.2 688,-934.2"/>
<polygon fill="#f5f5f5" stroke="transparent" points="688.5,-1261.2 688.5,-1284.2 887.5,-1284.2 887.5,-1261.2 688.5,-1261.2"/>
<polygon fill="none" stroke="#000000" points="688.5,-1261.2 688.5,-1284.2 887.5,-1284.2 887.5,-1261.2 688.5,-1261.2"/>
<text text-anchor="start" x="693.5" y="-1269.8" font-family="Helvetica,sans-Serif" font-weight="bold" font-size="11.00" fill="#000000">audit_event</text>
<text text-anchor="start" x="852.5437" y="-1269.3" font-family="Helvetica,sans-Serif" font-size="11.00" fill="#000000">[table]</text>
<polygon fill="#ffffff" stroke="transparent" points="688.5,-1239.2 688.5,-1261.2 887.5,-1261.2 887.5,-1239.2 688.5,-1239.2"/>
<polygon fill="none" stroke="#000000" points="688.5,-1239.2 688.5,-1261.2 887.5,-1261.2 887.5,-1239.2 688.5,-1239.2"/>
<text text-anchor="start" x="708.5" y="-1246.3" font-family="Helvetica,sans-Serif" font-size="11.00" fill="#000000">action</text>
<polygon fill="none" stroke="#000000" points="688.5,-1217.2 688.5,-1239.2 887.5,-1239.2 887.5,-1217.2 688.5,-1217.2"/>
<text text-anchor="start" x="708.5" y="-1224.3" font-family="Helvetica,sans-Serif" font-size="11.00" fill="#000000">description</text>
<polygon fill="#ffffff" stroke="transparent" points="688.5,-1195.2 688.5,-1217.2 887.5,-1217.2 887.5,-1195.2 688.5,-1195.2"/>
<polygon fill="none" stroke="#000000" points="688.5,-1195.2 688.5,-1217.2 887.5,-1217.2 887.5,-1195.2 688.5,-1195.2"/>
<text text-anchor="start" x="708.5" y="-1202.3" font-family="Helvetica,sans-Serif" font-size="11.00" fill="#000000">actioned_at</text>
<polygon fill="#ffffff" stroke="transparent" points="688.5,-1173.2 688.5,-1195.2 887.5,-1195.2 887.5,-1173.2 688.5,-1173.2"/>
<polygon fill="none" stroke="#000000" points="688.5,-1173.2 688.5,-1195.2 887.5,-1195.2 887.5,-1173.2 688.5,-1173.2"/>
<text text-anchor="start" x="708.5" y="-1180.3" font-family="Helvetica,sans-Serif" font-size="11.00" fill="#000000">actioned_by</text>
<polygon fill="none" stroke="#000000" points="688.5,-1151.2 688.5,-1173.2 887.5,-1173.2 887.5,-1151.2 688.5,-1151.2"/>
<text text-anchor="start" x="708.5" y="-1158.3" font-family="Helvetica,sans-Serif" font-size="11.00" fill="#000000">actioned_by_display_name</text>
<polygon fill="none" stroke="#000000" points="688.5,-1129.2 688.5,-1151.2 887.5,-1151.2 887.5,-1129.2 688.5,-1129.2"/>
<text text-anchor="start" x="708.5" y="-1136.3" font-family="Helvetica,sans-Serif" font-size="11.00" fill="#000000">source</text>
<polygon fill="none" stroke="#000000" points="688.5,-1107.2 688.5,-1129.2 887.5,-1129.2 887.5,-1107.2 688.5,-1107.2"/>
<text text-anchor="start" x="708.5" y="-1114.3" font-family="Helvetica,sans-Serif" font-size="11.00" fill="#000000">active_case_load_id</text>
<polygon fill="none" stroke="#000000" points="688.5,-1085.2 688.5,-1107.2 887.5,-1107.2 887.5,-1085.2 688.5,-1085.2"/>
<text text-anchor="start" x="708.5" y="-1092.3" font-family="Helvetica,sans-Serif" font-size="11.00" fill="#000000">description_updated</text>
<polygon fill="none" stroke="#000000" points="688.5,-1063.2 688.5,-1085.2 887.5,-1085.2 887.5,-1063.2 688.5,-1063.2"/>
<text text-anchor="start" x="708.5" y="-1070.3" font-family="Helvetica,sans-Serif" font-size="11.00" fill="#000000">authorised_by_updated</text>
<polygon fill="none" stroke="#000000" points="688.5,-1041.2 688.5,-1063.2 887.5,-1063.2 887.5,-1041.2 688.5,-1041.2"/>
<text text-anchor="start" x="708.5" y="-1048.3" font-family="Helvetica,sans-Serif" font-size="11.00" fill="#000000">active_from_updated</text>
<polygon fill="none" stroke="#000000" points="688.5,-1019.2 688.5,-1041.2 887.5,-1041.2 887.5,-1019.2 688.5,-1019.2"/>
<text text-anchor="start" x="708.5" y="-1026.3" font-family="Helvetica,sans-Serif" font-size="11.00" fill="#000000">active_to_updated</text>
<polygon fill="#ffffff" stroke="transparent" points="688.5,-997.2 688.5,-1019.2 887.5,-1019.2 887.5,-997.2 688.5,-997.2"/>
<polygon fill="none" stroke="#000000" points="688.5,-997.2 688.5,-1019.2 887.5,-1019.2 887.5,-997.2 688.5,-997.2"/>
<image xlink:href="../../images/foreignKeys.png" width="11px" height="12px" preserveAspectRatio="xMinYMin meet" x="693.5" y="-1014.2"/>
<text text-anchor="start" x="708.5" y="-1004.3" font-family="Helvetica,sans-Serif" font-size="11.00" fill="#000000">alert_id</text>
<polygon fill="none" stroke="#000000" points="688.5,-975.2 688.5,-997.2 887.5,-997.2 887.5,-975.2 688.5,-975.2"/>
<text text-anchor="start" x="708.5" y="-982.3" font-family="Helvetica,sans-Serif" font-size="11.00" fill="#000000">version</text>
<polygon fill="none" stroke="#000000" points="688.5,-953.2 688.5,-975.2 887.5,-975.2 887.5,-953.2 688.5,-953.2"/>
<image xlink:href="../../images/primaryKeys.png" width="11px" height="12px" preserveAspectRatio="xMinYMin meet" x="693.5" y="-970.2"/>
<text text-anchor="start" x="708.5" y="-960.3" font-family="Helvetica,sans-Serif" font-size="11.00" fill="#000000">id</text>
<polygon fill="#ffffff" stroke="transparent" points="688.5,-934.2 688.5,-953.2 786.5,-953.2 786.5,-934.2 688.5,-934.2"/>
<polygon fill="none" stroke="#000000" points="688.5,-934.2 688.5,-953.2 786.5,-953.2 786.5,-934.2 688.5,-934.2"/>
<text text-anchor="start" x="691.5" y="-940.3" font-family="Helvetica,sans-Serif" font-size="11.00" fill="#000000">&lt; 1</text>
<polygon fill="#ffffff" stroke="transparent" points="786.5,-934.2 786.5,-953.2 836.5,-953.2 836.5,-934.2 786.5,-934.2"/>
<polygon fill="none" stroke="#000000" points="786.5,-934.2 786.5,-953.2 836.5,-953.2 836.5,-934.2 786.5,-934.2"/>
<text text-anchor="start" x="827.3862" y="-940.3" font-family="Helvetica,sans-Serif" font-size="11.00" fill="#000000"> &#160;</text>
<polygon fill="#ffffff" stroke="transparent" points="836.5,-934.2 836.5,-953.2 887.5,-953.2 887.5,-934.2 836.5,-934.2"/>
<polygon fill="none" stroke="#000000" points="836.5,-934.2 836.5,-953.2 887.5,-953.2 887.5,-934.2 836.5,-934.2"/>
<text text-anchor="start" x="878.3862" y="-940.3" font-family="Helvetica,sans-Serif" font-size="11.00" fill="#000000"> &#160;</text>
</a>
</g>
</g>
<!-- alert -->
<g id="node5" class="node">
<title>alert</title>
<g id="a_node5"><a xlink:href="../../tables/alert.html" xlink:title="alert" target="_top">
<polygon fill="#ffffff" stroke="transparent" points="429.5,-736.2 429.5,-1042.2 630.5,-1042.2 630.5,-736.2 429.5,-736.2"/>
<polygon fill="#f5f5f5" stroke="transparent" points="430,-1019.2 430,-1042.2 631,-1042.2 631,-1019.2 430,-1019.2"/>
<polygon fill="none" stroke="#000000" points="430,-1019.2 430,-1042.2 631,-1042.2 631,-1019.2 430,-1019.2"/>
<text text-anchor="start" x="435" y="-1027.8" font-family="Helvetica,sans-Serif" font-weight="bold" font-size="11.00" fill="#000000">alert</text>
<text text-anchor="start" x="596.0437" y="-1027.3" font-family="Helvetica,sans-Serif" font-size="11.00" fill="#000000">[table]</text>
<polygon fill="none" stroke="#000000" points="430,-997.2 430,-1019.2 631,-1019.2 631,-997.2 430,-997.2"/>
<image xlink:href="../../images/primaryKeys.png" width="11px" height="12px" preserveAspectRatio="xMinYMin meet" x="435" y="-1014.2"/>
<text text-anchor="start" x="450" y="-1004.3" font-family="Helvetica,sans-Serif" font-size="11.00" fill="#000000">id</text>
<polygon fill="#ffffff" stroke="transparent" points="430,-975.2 430,-997.2 631,-997.2 631,-975.2 430,-975.2"/>
<polygon fill="none" stroke="#000000" points="430,-975.2 430,-997.2 631,-997.2 631,-975.2 430,-975.2"/>
<image xlink:href="../../images/foreignKeys.png" width="11px" height="12px" preserveAspectRatio="xMinYMin meet" x="435" y="-992.2"/>
<text text-anchor="start" x="450" y="-982.3" font-family="Helvetica,sans-Serif" font-size="11.00" fill="#000000">alert_code_id</text>
<polygon fill="#ffffff" stroke="transparent" points="430,-953.2 430,-975.2 631,-975.2 631,-953.2 430,-953.2"/>
<polygon fill="none" stroke="#000000" points="430,-953.2 430,-975.2 631,-975.2 631,-953.2 430,-953.2"/>
<image xlink:href="../../images/foreignKeys.png" width="11px" height="12px" preserveAspectRatio="xMinYMin meet" x="435" y="-970.2"/>
<text text-anchor="start" x="450" y="-960.3" font-family="Helvetica,sans-Serif" font-size="11.00" fill="#000000">prison_number</text>
<polygon fill="none" stroke="#000000" points="430,-931.2 430,-953.2 631,-953.2 631,-931.2 430,-931.2"/>
<text text-anchor="start" x="450" y="-938.3" font-family="Helvetica,sans-Serif" font-size="11.00" fill="#000000">description</text>
<polygon fill="none" stroke="#000000" points="430,-909.2 430,-931.2 631,-931.2 631,-909.2 430,-909.2"/>
<text text-anchor="start" x="450" y="-916.3" font-family="Helvetica,sans-Serif" font-size="11.00" fill="#000000">authorised_by</text>
<polygon fill="#ffffff" stroke="transparent" points="430,-887.2 430,-909.2 631,-909.2 631,-887.2 430,-887.2"/>
<polygon fill="none" stroke="#000000" points="430,-887.2 430,-909.2 631,-909.2 631,-887.2 430,-887.2"/>
<text text-anchor="start" x="450" y="-894.3" font-family="Helvetica,sans-Serif" font-size="11.00" fill="#000000">active_from</text>
<polygon fill="#ffffff" stroke="transparent" points="430,-865.2 430,-887.2 631,-887.2 631,-865.2 430,-865.2"/>
<polygon fill="none" stroke="#000000" points="430,-865.2 430,-887.2 631,-887.2 631,-865.2 430,-865.2"/>
<text text-anchor="start" x="450" y="-872.3" font-family="Helvetica,sans-Serif" font-size="11.00" fill="#000000">active_to</text>
<polygon fill="#ffffff" stroke="transparent" points="430,-843.2 430,-865.2 631,-865.2 631,-843.2 430,-843.2"/>
<polygon fill="none" stroke="#000000" points="430,-843.2 430,-865.2 631,-865.2 631,-843.2 430,-843.2"/>
<text text-anchor="start" x="450" y="-850.3" font-family="Helvetica,sans-Serif" font-size="11.00" fill="#000000">deleted_at</text>
<polygon fill="#ffffff" stroke="transparent" points="430,-821.2 430,-843.2 631,-843.2 631,-821.2 430,-821.2"/>
<polygon fill="none" stroke="#000000" points="430,-821.2 430,-843.2 631,-843.2 631,-821.2 430,-821.2"/>
<text text-anchor="start" x="450" y="-828.3" font-family="Helvetica,sans-Serif" font-size="11.00" fill="#000000">created_at</text>
<polygon fill="#ffffff" stroke="transparent" points="430,-799.2 430,-821.2 631,-821.2 631,-799.2 430,-799.2"/>
<polygon fill="none" stroke="#000000" points="430,-799.2 430,-821.2 631,-821.2 631,-799.2 430,-799.2"/>
<text text-anchor="start" x="450" y="-806.3" font-family="Helvetica,sans-Serif" font-size="11.00" fill="#000000">last_modified_at</text>
<polygon fill="none" stroke="#000000" points="430,-777.2 430,-799.2 631,-799.2 631,-777.2 430,-777.2"/>
<text text-anchor="start" x="450" y="-784.3" font-family="Helvetica,sans-Serif" font-size="11.00" fill="#000000">prison_code_when_created</text>
<polygon fill="none" stroke="#000000" points="430,-755.2 430,-777.2 631,-777.2 631,-755.2 430,-755.2"/>
<text text-anchor="start" x="450" y="-762.3" font-family="Helvetica,sans-Serif" font-size="11.00" fill="#000000">version</text>
<polygon fill="#ffffff" stroke="transparent" points="430,-736.2 430,-755.2 524,-755.2 524,-736.2 430,-736.2"/>
<polygon fill="none" stroke="#000000" points="430,-736.2 430,-755.2 524,-755.2 524,-736.2 430,-736.2"/>
<text text-anchor="start" x="433" y="-742.3" font-family="Helvetica,sans-Serif" font-size="11.00" fill="#000000">&lt; 1</text>
<polygon fill="#ffffff" stroke="transparent" points="524,-736.2 524,-755.2 573,-755.2 573,-736.2 524,-736.2"/>
<polygon fill="none" stroke="#000000" points="524,-736.2 524,-755.2 573,-755.2 573,-736.2 524,-736.2"/>
<text text-anchor="start" x="563.8862" y="-742.3" font-family="Helvetica,sans-Serif" font-size="11.00" fill="#000000"> &#160;</text>
<polygon fill="#ffffff" stroke="transparent" points="573,-736.2 573,-755.2 631,-755.2 631,-736.2 573,-736.2"/>
<polygon fill="none" stroke="#000000" points="573,-736.2 573,-755.2 631,-755.2 631,-736.2 573,-736.2"/>
<text text-anchor="start" x="612.4053" y="-742.3" font-family="Helvetica,sans-Serif" font-size="11.00" fill="#000000">1 &gt;</text>
</a>
</g>
</g>
<!-- audit_event&#45;&gt;alert -->
<g id="edge5" class="edge">
<title>audit_event:w&#45;&gt;alert:e</title>
<path fill="none" stroke="#000000" d="M674.0794,-1008.2C659.2322,-1008.2 650.9653,-1008.2 631,-1008.2"/>
<polygon fill="#000000" stroke="#000000" points="680.5,-1008.2001 688.5,-1011.8 684.5,-1008.2 688.5,-1008.2 688.5,-1008.2 688.5,-1008.2 684.5,-1008.2 688.5,-1004.6 680.5,-1008.2001 680.5,-1008.2001"/>
<ellipse fill="none" stroke="#000000" cx="677.3" cy="-1008.2001" rx="3.2" ry="3.2"/>
</g>
<!-- alert_type -->
<g id="node8" class="node">
<title>alert_type</title>
<g id="a_node8"><a xlink:href="../../tables/alert_type.html" xlink:title="alert_type" target="_top">
<polygon fill="#ffffff" stroke="transparent" points="8,-800.2 8,-1062.2 131,-1062.2 131,-800.2 8,-800.2"/>
<polygon fill="#f5f5f5" stroke="transparent" points="8.5,-1039.2 8.5,-1062.2 131.5,-1062.2 131.5,-1039.2 8.5,-1039.2"/>
<polygon fill="none" stroke="#000000" points="8.5,-1039.2 8.5,-1062.2 131.5,-1062.2 131.5,-1039.2 8.5,-1039.2"/>
<text text-anchor="start" x="13.5" y="-1047.8" font-family="Helvetica,sans-Serif" font-weight="bold" font-size="11.00" fill="#000000">alert_type</text>
<text text-anchor="start" x="96.5437" y="-1047.3" font-family="Helvetica,sans-Serif" font-size="11.00" fill="#000000">[table]</text>
<polygon fill="none" stroke="#000000" points="8.5,-1017.2 8.5,-1039.2 131.5,-1039.2 131.5,-1017.2 8.5,-1017.2"/>
<image xlink:href="../../images/primaryKeys.png" width="11px" height="12px" preserveAspectRatio="xMinYMin meet" x="13.5" y="-1034.2"/>
<text text-anchor="start" x="28.5" y="-1024.3" font-family="Helvetica,sans-Serif" font-size="11.00" fill="#000000">alert_type_id</text>
<polygon fill="#ffffff" stroke="transparent" points="8.5,-995.2 8.5,-1017.2 131.5,-1017.2 131.5,-995.2 8.5,-995.2"/>
<polygon fill="none" stroke="#000000" points="8.5,-995.2 8.5,-1017.2 131.5,-1017.2 131.5,-995.2 8.5,-995.2"/>
<text text-anchor="start" x="28.5" y="-1002.3" font-family="Helvetica,sans-Serif" font-size="11.00" fill="#000000">code</text>
<polygon fill="none" stroke="#000000" points="8.5,-973.2 8.5,-995.2 131.5,-995.2 131.5,-973.2 8.5,-973.2"/>
<text text-anchor="start" x="28.5" y="-980.3" font-family="Helvetica,sans-Serif" font-size="11.00" fill="#000000">description</text>
<polygon fill="#ffffff" stroke="transparent" points="8.5,-951.2 8.5,-973.2 131.5,-973.2 131.5,-951.2 8.5,-951.2"/>
<polygon fill="none" stroke="#000000" points="8.5,-951.2 8.5,-973.2 131.5,-973.2 131.5,-951.2 8.5,-951.2"/>
<text text-anchor="start" x="28.5" y="-958.3" font-family="Helvetica,sans-Serif" font-size="11.00" fill="#000000">list_sequence</text>
<polygon fill="#ffffff" stroke="transparent" points="8.5,-929.2 8.5,-951.2 131.5,-951.2 131.5,-929.2 8.5,-929.2"/>
<polygon fill="none" stroke="#000000" points="8.5,-929.2 8.5,-951.2 131.5,-951.2 131.5,-929.2 8.5,-929.2"/>
<text text-anchor="start" x="28.5" y="-936.3" font-family="Helvetica,sans-Serif" font-size="11.00" fill="#000000">created_at</text>
<polygon fill="none" stroke="#000000" points="8.5,-907.2 8.5,-929.2 131.5,-929.2 131.5,-907.2 8.5,-907.2"/>
<text text-anchor="start" x="28.5" y="-914.3" font-family="Helvetica,sans-Serif" font-size="11.00" fill="#000000">created_by</text>
<polygon fill="none" stroke="#000000" points="8.5,-885.2 8.5,-907.2 131.5,-907.2 131.5,-885.2 8.5,-885.2"/>
<text text-anchor="start" x="28.5" y="-892.3" font-family="Helvetica,sans-Serif" font-size="11.00" fill="#000000">modified_at</text>
<polygon fill="none" stroke="#000000" points="8.5,-863.2 8.5,-885.2 131.5,-885.2 131.5,-863.2 8.5,-863.2"/>
<text text-anchor="start" x="28.5" y="-870.3" font-family="Helvetica,sans-Serif" font-size="11.00" fill="#000000">modified_by</text>
<polygon fill="#ffffff" stroke="transparent" points="8.5,-841.2 8.5,-863.2 131.5,-863.2 131.5,-841.2 8.5,-841.2"/>
<polygon fill="none" stroke="#000000" points="8.5,-841.2 8.5,-863.2 131.5,-863.2 131.5,-841.2 8.5,-841.2"/>
<text text-anchor="start" x="28.5" y="-848.3" font-family="Helvetica,sans-Serif" font-size="11.00" fill="#000000">deactivated_at</text>
<polygon fill="none" stroke="#000000" points="8.5,-819.2 8.5,-841.2 131.5,-841.2 131.5,-819.2 8.5,-819.2"/>
<text text-anchor="start" x="28.5" y="-826.3" font-family="Helvetica,sans-Serif" font-size="11.00" fill="#000000">deactivated_by</text>
<polygon fill="#ffffff" stroke="transparent" points="8.5,-800.2 8.5,-819.2 59.5,-819.2 59.5,-800.2 8.5,-800.2"/>
<polygon fill="none" stroke="#000000" points="8.5,-800.2 8.5,-819.2 59.5,-819.2 59.5,-800.2 8.5,-800.2"/>
<text text-anchor="start" x="11.5" y="-806.3" font-family="Helvetica,sans-Serif" font-size="11.00" fill="#000000"> &#160;</text>
<polygon fill="#ffffff" stroke="transparent" points="59.5,-800.2 59.5,-819.2 90.5,-819.2 90.5,-800.2 59.5,-800.2"/>
<polygon fill="none" stroke="#000000" points="59.5,-800.2 59.5,-819.2 90.5,-819.2 90.5,-800.2 59.5,-800.2"/>
<text text-anchor="start" x="81.3862" y="-806.3" font-family="Helvetica,sans-Serif" font-size="11.00" fill="#000000"> &#160;</text>
<polygon fill="#ffffff" stroke="transparent" points="90.5,-800.2 90.5,-819.2 131.5,-819.2 131.5,-800.2 90.5,-800.2"/>
<polygon fill="none" stroke="#000000" points="90.5,-800.2 90.5,-819.2 131.5,-819.2 131.5,-800.2 90.5,-800.2"/>
<text text-anchor="start" x="112.9053" y="-806.3" font-family="Helvetica,sans-Serif" font-size="11.00" fill="#000000">1 &gt;</text>
</a>
</g>
</g>
<!-- alert_code&#45;&gt;alert_type -->
<g id="edge3" class="edge">
<title>alert_code:w&#45;&gt;alert_type:e</title>
<path fill="none" stroke="#000000" d="M200.485,-1028.2C174.6256,-1028.2 163.2474,-1028.2 131.5,-1028.2"/>
<polygon fill="#000000" stroke="#000000" points="207,-1028.2001 215,-1031.8 211,-1028.2 215,-1028.2 215,-1028.2 215,-1028.2 211,-1028.2 215,-1024.6 207,-1028.2001 207,-1028.2001"/>
<ellipse fill="none" stroke="#000000" cx="203.8" cy="-1028.2001" rx="3.2" ry="3.2"/>
</g>
<!-- alert&#45;&gt;alert_code -->
<g id="edge1" class="edge">
<title>alert:w&#45;&gt;alert_code:e</title>
<path fill="none" stroke="#000000" d="M415.567,-988.3294C381.1701,-999.4344 382.3616,-1050.2 338,-1050.2"/>
<polygon fill="#000000" stroke="#000000" points="422.0857,-987.3677 430.5255,-989.7614 426.0428,-986.7838 430,-986.2 430,-986.2 430,-986.2 426.0428,-986.7838 429.4745,-982.6386 422.0857,-987.3677 422.0857,-987.3677"/>
<ellipse fill="none" stroke="#000000" cx="418.9199" cy="-987.8348" rx="3.2" ry="3.2"/>
</g>
<!-- alert&#45;&gt;person_summary -->
<g id="edge2" class="edge">
<title>alert:w&#45;&gt;person_summary:e</title>
<path fill="none" stroke="#000000" stroke-dasharray="5,2" d="M416.2895,-958.9062C371.6926,-918.4053 430.8017,-659.2 367,-659.2"/>
<polygon fill="#000000" stroke="#000000" points="422.537,-961.3184 428.7033,-967.5584 426.2685,-962.7592 430,-964.2 430,-964.2 430,-964.2 426.2685,-962.7592 431.2967,-960.8416 422.537,-961.3184 422.537,-961.3184"/>
<ellipse fill="none" stroke="#000000" cx="419.5518" cy="-960.1657" rx="3.2" ry="3.2"/>
</g>
<!-- bulk_plan -->
<g id="node6" class="node">
<title>bulk_plan</title>
<g id="a_node6"><a xlink:href="../../tables/bulk_plan.html" xlink:title="bulk_plan" target="_top">
<polygon fill="#ffffff" stroke="transparent" points="180,-38.2 180,-432.2 372,-432.2 372,-38.2 180,-38.2"/>
<polygon fill="#f5f5f5" stroke="transparent" points="180,-409.2 180,-432.2 372,-432.2 372,-409.2 180,-409.2"/>
<polygon fill="none" stroke="#000000" points="180,-409.2 180,-432.2 372,-432.2 372,-409.2 180,-409.2"/>
<text text-anchor="start" x="185" y="-417.8" font-family="Helvetica,sans-Serif" font-weight="bold" font-size="11.00" fill="#000000">bulk_plan</text>
<text text-anchor="start" x="337.0437" y="-417.3" font-family="Helvetica,sans-Serif" font-size="11.00" fill="#000000">[table]</text>
<polygon fill="none" stroke="#000000" points="180,-387.2 180,-409.2 372,-409.2 372,-387.2 180,-387.2"/>
<image xlink:href="../../images/primaryKeys.png" width="11px" height="12px" preserveAspectRatio="xMinYMin meet" x="185" y="-404.2"/>
<text text-anchor="start" x="200" y="-394.3" font-family="Helvetica,sans-Serif" font-size="11.00" fill="#000000">id</text>
<polygon fill="none" stroke="#000000" points="180,-365.2 180,-387.2 372,-387.2 372,-365.2 180,-365.2"/>
<text text-anchor="start" x="200" y="-372.3" font-family="Helvetica,sans-Serif" font-size="11.00" fill="#000000">alert_code_id</text>
<polygon fill="none" stroke="#000000" points="180,-343.2 180,-365.2 372,-365.2 372,-343.2 180,-343.2"/>
<text text-anchor="start" x="200" y="-350.3" font-family="Helvetica,sans-Serif" font-size="11.00" fill="#000000">description</text>
<polygon fill="none" stroke="#000000" points="180,-321.2 180,-343.2 372,-343.2 372,-321.2 180,-321.2"/>
<text text-anchor="start" x="200" y="-328.3" font-family="Helvetica,sans-Serif" font-size="11.00" fill="#000000">version</text>
<polygon fill="none" stroke="#000000" points="180,-299.2 180,-321.2 372,-321.2 372,-299.2 180,-299.2"/>
<text text-anchor="start" x="200" y="-306.3" font-family="Helvetica,sans-Serif" font-size="11.00" fill="#000000">created_at</text>
<polygon fill="none" stroke="#000000" points="180,-277.2 180,-299.2 372,-299.2 372,-277.2 180,-277.2"/>
<text text-anchor="start" x="200" y="-284.3" font-family="Helvetica,sans-Serif" font-size="11.00" fill="#000000">created_by</text>
<polygon fill="none" stroke="#000000" points="180,-255.2 180,-277.2 372,-277.2 372,-255.2 180,-255.2"/>
<text text-anchor="start" x="200" y="-262.3" font-family="Helvetica,sans-Serif" font-size="11.00" fill="#000000">created_by_display_name</text>
<polygon fill="none" stroke="#000000" points="180,-233.2 180,-255.2 372,-255.2 372,-233.2 180,-233.2"/>
<text text-anchor="start" x="200" y="-240.3" font-family="Helvetica,sans-Serif" font-size="11.00" fill="#000000">cleanup_mode</text>
<polygon fill="none" stroke="#000000" points="180,-211.2 180,-233.2 372,-233.2 372,-211.2 180,-211.2"/>
<text text-anchor="start" x="200" y="-218.3" font-family="Helvetica,sans-Serif" font-size="11.00" fill="#000000">started_at</text>
<polygon fill="none" stroke="#000000" points="180,-189.2 180,-211.2 372,-211.2 372,-189.2 180,-189.2"/>
<text text-anchor="start" x="200" y="-196.3" font-family="Helvetica,sans-Serif" font-size="11.00" fill="#000000">started_by</text>
<polygon fill="none" stroke="#000000" points="180,-167.2 180,-189.2 372,-189.2 372,-167.2 180,-167.2"/>
<text text-anchor="start" x="200" y="-174.3" font-family="Helvetica,sans-Serif" font-size="11.00" fill="#000000">started_by_display_name</text>
<polygon fill="none" stroke="#000000" points="180,-145.2 180,-167.2 372,-167.2 372,-145.2 180,-145.2"/>
<text text-anchor="start" x="200" y="-152.3" font-family="Helvetica,sans-Serif" font-size="11.00" fill="#000000">completed_at</text>
<polygon fill="none" stroke="#000000" points="180,-123.2 180,-145.2 372,-145.2 372,-123.2 180,-123.2"/>
<text text-anchor="start" x="200" y="-130.3" font-family="Helvetica,sans-Serif" font-size="11.00" fill="#000000">created_count</text>
<polygon fill="none" stroke="#000000" points="180,-101.2 180,-123.2 372,-123.2 372,-101.2 180,-101.2"/>
<text text-anchor="start" x="200" y="-108.3" font-family="Helvetica,sans-Serif" font-size="11.00" fill="#000000">updated_count</text>
<polygon fill="none" stroke="#000000" points="180,-79.2 180,-101.2 372,-101.2 372,-79.2 180,-79.2"/>
<text text-anchor="start" x="200" y="-86.3" font-family="Helvetica,sans-Serif" font-size="11.00" fill="#000000">unchanged_count</text>
<polygon fill="none" stroke="#000000" points="180,-57.2 180,-79.2 372,-79.2 372,-57.2 180,-57.2"/>
<text text-anchor="start" x="200" y="-64.3" font-family="Helvetica,sans-Serif" font-size="11.00" fill="#000000">expired_count</text>
<polygon fill="#ffffff" stroke="transparent" points="180,-38.2 180,-57.2 265,-57.2 265,-38.2 180,-38.2"/>
<polygon fill="none" stroke="#000000" points="180,-38.2 180,-57.2 265,-57.2 265,-38.2 180,-38.2"/>
<text text-anchor="start" x="183" y="-44.3" font-family="Helvetica,sans-Serif" font-size="11.00" fill="#000000"> &#160;</text>
<polygon fill="#ffffff" stroke="transparent" points="265,-38.2 265,-57.2 314,-57.2 314,-38.2 265,-38.2"/>
<polygon fill="none" stroke="#000000" points="265,-38.2 265,-57.2 314,-57.2 314,-38.2 265,-38.2"/>
<text text-anchor="start" x="304.8862" y="-44.3" font-family="Helvetica,sans-Serif" font-size="11.00" fill="#000000"> &#160;</text>
<polygon fill="#ffffff" stroke="transparent" points="314,-38.2 314,-57.2 372,-57.2 372,-38.2 314,-38.2"/>
<polygon fill="none" stroke="#000000" points="314,-38.2 314,-57.2 372,-57.2 372,-38.2 314,-38.2"/>
<text text-anchor="start" x="353.4053" y="-44.3" font-family="Helvetica,sans-Serif" font-size="11.00" fill="#000000">1 &gt;</text>
</a>
</g>
</g>
<!-- plan_person -->
<g id="node7" class="node">
<title>plan_person</title>
<g id="a_node7"><a xlink:href="../../tables/plan_person.html" xlink:title="plan_person" target="_top">
<polygon fill="#ffffff" stroke="transparent" points="469.5,-346.2 469.5,-432.2 590.5,-432.2 590.5,-346.2 469.5,-346.2"/>
<polygon fill="#f5f5f5" stroke="transparent" points="470,-409.2 470,-432.2 591,-432.2 591,-409.2 470,-409.2"/>
<polygon fill="none" stroke="#000000" points="470,-409.2 470,-432.2 591,-432.2 591,-409.2 470,-409.2"/>
<text text-anchor="start" x="475" y="-417.8" font-family="Helvetica,sans-Serif" font-weight="bold" font-size="11.00" fill="#000000">plan_person</text>
<text text-anchor="start" x="556.5219" y="-417.3" font-family="Helvetica,sans-Serif" font-size="11.00" fill="#000000">[table]</text>
<polygon fill="none" stroke="#000000" points="470,-387.2 470,-409.2 591,-409.2 591,-387.2 470,-387.2"/>
<image xlink:href="../../images/foreignKeys.png" width="11px" height="12px" preserveAspectRatio="xMinYMin meet" x="475" y="-404.2"/>
<text text-anchor="start" x="490" y="-394.3" font-family="Helvetica,sans-Serif" font-size="11.00" fill="#000000">plan_id</text>
<polygon fill="none" stroke="#000000" points="470,-365.2 470,-387.2 591,-387.2 591,-365.2 470,-365.2"/>
<image xlink:href="../../images/foreignKeys.png" width="11px" height="12px" preserveAspectRatio="xMinYMin meet" x="475" y="-382.2"/>
<text text-anchor="start" x="490" y="-372.3" font-family="Helvetica,sans-Serif" font-size="11.00" fill="#000000">prison_number</text>
<polygon fill="#ffffff" stroke="transparent" points="470,-346.2 470,-365.2 529,-365.2 529,-346.2 470,-346.2"/>
<polygon fill="none" stroke="#000000" points="470,-346.2 470,-365.2 529,-365.2 529,-346.2 470,-346.2"/>
<text text-anchor="start" x="473" y="-352.3" font-family="Helvetica,sans-Serif" font-size="11.00" fill="#000000">&lt; 2</text>
<polygon fill="#ffffff" stroke="transparent" points="529,-346.2 529,-365.2 560,-365.2 560,-346.2 529,-346.2"/>
<polygon fill="none" stroke="#000000" points="529,-346.2 529,-365.2 560,-365.2 560,-346.2 529,-346.2"/>
<text text-anchor="start" x="550.8862" y="-352.3" font-family="Helvetica,sans-Serif" font-size="11.00" fill="#000000"> &#160;</text>
<polygon fill="#ffffff" stroke="transparent" points="560,-346.2 560,-365.2 591,-365.2 591,-346.2 560,-346.2"/>
<polygon fill="none" stroke="#000000" points="560,-346.2 560,-365.2 591,-365.2 591,-346.2 560,-346.2"/>
<text text-anchor="start" x="581.8862" y="-352.3" font-family="Helvetica,sans-Serif" font-size="11.00" fill="#000000"> &#160;</text>
</a>
</g>
</g>
<!-- plan_person&#45;&gt;bulk_plan -->
<g id="edge6" class="edge">
<title>plan_person:w&#45;&gt;bulk_plan:e</title>
<path fill="none" stroke="#000000" d="M455.4981,-398.2C423.3283,-398.2 410.2813,-398.2 372,-398.2"/>
<polygon fill="#000000" stroke="#000000" points="462,-398.2001 470,-401.8 466,-398.2 470,-398.2 470,-398.2 470,-398.2 466,-398.2 470,-394.6 462,-398.2001 462,-398.2001"/>
<ellipse fill="none" stroke="#000000" cx="458.8" cy="-398.2001" rx="3.2" ry="3.2"/>
</g>
<!-- plan_person&#45;&gt;person_summary -->
<g id="edge7" class="edge">
<title>plan_person:w&#45;&gt;person_summary:e</title>
<path fill="none" stroke="#000000" d="M455.3971,-378.0763C430.6099,-385.314 427.7384,-412.499 413,-442.2 391.0886,-486.3562 416.2938,-659.2 367,-659.2"/>
<polygon fill="#000000" stroke="#000000" points="462.0652,-377.2195 470.4588,-379.7706 466.0326,-376.7098 470,-376.2 470,-376.2 470,-376.2 466.0326,-376.7098 469.5412,-372.6294 462.0652,-377.2195 462.0652,-377.2195"/>
<ellipse fill="none" stroke="#000000" cx="458.8913" cy="-377.6274" rx="3.2" ry="3.2"/>
</g>
</g>
</svg>
