<?xml version="1.0" encoding="UTF-8" standalone="no"?>
<!DOCTYPE svg PUBLIC "-//W3C//DTD SVG 1.1//EN"
 "http://www.w3.org/Graphics/SVG/1.1/DTD/svg11.dtd">
<!-- Generated by graphviz version 2.40.1 (20161225.0304)
 -->
<!-- Title: compactImpliedRelationshipsDiagram Pages: 1 -->
<svg width="895pt" height="587pt"
 viewBox="0.00 0.00 895.00 586.70" xmlns="http://www.w3.org/2000/svg" xmlns:xlink="http://www.w3.org/1999/xlink">
<g id="graph0" class="graph" transform="scale(1 1) rotate(0) translate(4 582.7)">
<title>compactImpliedRelationshipsDiagram</title>
<polygon fill="#ffffff" stroke="transparent" points="-4,4 -4,-582.7 891,-582.7 891,4 -4,4"/>
<text text-anchor="middle" x="72.4936" y="-7.3" font-family="Helvetica,sans-Serif" font-size="11.00" fill="#000000">Generated by SchemaSpy</text>
<!-- resync_audit -->
<g id="node1" class="node">
<title>resync_audit</title>
<g id="a_node1"><a xlink:href="../../tables/resync_audit.html" xlink:title="resync_audit" target="_top">
<polygon fill="#ffffff" stroke="transparent" points="421,-145.7 421,-250.7 631,-250.7 631,-145.7 421,-145.7"/>
<polygon fill="#f5f5f5" stroke="transparent" points="421,-227.2 421,-250.2 631,-250.2 631,-227.2 421,-227.2"/>
<polygon fill="none" stroke="#000000" points="421,-227.2 421,-250.2 631,-250.2 631,-227.2 421,-227.2"/>
<text text-anchor="start" x="426" y="-235.8" font-family="Helvetica,sans-Serif" font-weight="bold" font-size="11.00" fill="#000000">resync_audit</text>
<text text-anchor="start" x="596.0437" y="-235.3" font-family="Helvetica,sans-Serif" font-size="11.00" fill="#000000">[table]</text>
<polygon fill="none" stroke="#000000" points="421,-205.2 421,-227.2 631,-227.2 631,-205.2 421,-205.2"/>
<image xlink:href="../../images/primaryKeys.png" width="11px" height="12px" preserveAspectRatio="xMinYMin meet" x="426" y="-222.2"/>
<text text-anchor="start" x="441" y="-212.3" font-family="Helvetica,sans-Serif" font-size="11.00" fill="#000000">id</text>
<polygon fill="#ffffff" stroke="transparent" points="421,-183.2 421,-205.2 631,-205.2 631,-183.2 421,-183.2"/>
<polygon fill="none" stroke="#000000" points="421,-183.2 421,-205.2 631,-205.2 631,-183.2 421,-183.2"/>
<image xlink:href="../../images/foreignKeys.png" width="11px" height="12px" preserveAspectRatio="xMinYMin meet" x="426" y="-200.2"/>
<text text-anchor="start" x="441" y="-190.3" font-family="Helvetica,sans-Serif" font-size="11.00" fill="#000000">prison_number</text>
<polygon fill="none" stroke="#000000" points="421,-164.2 421,-183.2 631,-183.2 631,-164.2 421,-164.2"/>
<text text-anchor="start" x="424" y="-170.3" font-family="Helvetica,sans-Serif" font-size="11.00" fill="#000000">...</text>
<polygon fill="#ffffff" stroke="transparent" points="421,-145.2 421,-164.2 520,-164.2 520,-145.2 421,-145.2"/>
<polygon fill="none" stroke="#000000" points="421,-145.2 421,-164.2 520,-164.2 520,-145.2 421,-145.2"/>
<text text-anchor="start" x="424" y="-151.3" font-family="Helvetica,sans-Serif" font-size="11.00" fill="#000000"> &#160;</text>
<polygon fill="#ffffff" stroke="transparent" points="520,-145.2 520,-164.2 575,-164.2 575,-145.2 520,-145.2"/>
<polygon fill="none" stroke="#000000" points="520,-145.2 520,-164.2 575,-164.2 575,-145.2 520,-145.2"/>
<text text-anchor="start" x="565.8862" y="-151.3" font-family="Helvetica,sans-Serif" font-size="11.00" fill="#000000"> &#160;</text>
<polygon fill="#ffffff" stroke="transparent" points="575,-145.2 575,-164.2 631,-164.2 631,-145.2 575,-145.2"/>
<polygon fill="none" stroke="#000000" points="575,-145.2 575,-164.2 631,-164.2 631,-145.2 575,-145.2"/>
<text text-anchor="start" x="621.8862" y="-151.3" font-family="Helvetica,sans-Serif" font-size="11.00" fill="#000000"> &#160;</text>
</a>
</g>
</g>
<!-- person_summary -->
<g id="node8" class="node">
<title>person_summary</title>
<g id="a_node8"><a xlink:href="../../tables/person_summary.html" xlink:title="person_summary" target="_top">
<polygon fill="#ffffff" stroke="transparent" points="185.5,-145.7 185.5,-228.7 366.5,-228.7 366.5,-145.7 185.5,-145.7"/>
<polygon fill="#f5f5f5" stroke="transparent" points="186,-205.2 186,-228.2 367,-228.2 367,-205.2 186,-205.2"/>
<polygon fill="none" stroke="#000000" points="186,-205.2 186,-228.2 367,-228.2 367,-205.2 186,-205.2"/>
<text text-anchor="start" x="191" y="-213.8" font-family="Helvetica,sans-Serif" font-weight="bold" font-size="11.00" fill="#000000">person_summary</text>
<text text-anchor="start" x="332.0437" y="-213.3" font-family="Helvetica,sans-Serif" font-size="11.00" fill="#000000">[table]</text>
<polygon fill="none" stroke="#000000" points="186,-183.2 186,-205.2 367,-205.2 367,-183.2 186,-183.2"/>
<image xlink:href="../../images/primaryKeys.png" width="11px" height="12px" preserveAspectRatio="xMinYMin meet" x="191" y="-200.2"/>
<text text-anchor="start" x="206" y="-190.3" font-family="Helvetica,sans-Serif" font-size="11.00" fill="#000000">prison_number</text>
<polygon fill="none" stroke="#000000" points="186,-164.2 186,-183.2 367,-183.2 367,-164.2 186,-164.2"/>
<text text-anchor="start" x="189" y="-170.3" font-family="Helvetica,sans-Serif" font-size="11.00" fill="#000000">...</text>
<polygon fill="#ffffff" stroke="transparent" points="186,-145.2 186,-164.2 266,-164.2 266,-145.2 186,-145.2"/>
<polygon fill="none" stroke="#000000" points="186,-145.2 186,-164.2 266,-164.2 266,-145.2 186,-145.2"/>
<text text-anchor="start" x="189" y="-151.3" font-family="Helvetica,sans-Serif" font-size="11.00" fill="#000000"> &#160;</text>
<polygon fill="#ffffff" stroke="transparent" points="266,-145.2 266,-164.2 312,-164.2 312,-145.2 266,-145.2"/>
<polygon fill="none" stroke="#000000" points="266,-145.2 266,-164.2 312,-164.2 312,-145.2 266,-145.2"/>
<text text-anchor="start" x="302.8862" y="-151.3" font-family="Helvetica,sans-Serif" font-size="11.00" fill="#000000"> &#160;</text>
<polygon fill="#ffffff" stroke="transparent" points="312,-145.2 312,-164.2 367,-164.2 367,-145.2 312,-145.2"/>
<polygon fill="none" stroke="#000000" points="312,-145.2 312,-164.2 367,-164.2 367,-145.2 312,-145.2"/>
<text text-anchor="start" x="348.4053" y="-151.3" font-family="Helvetica,sans-Serif" font-size="11.00" fill="#000000">1 &gt;</text>
</a>
</g>
</g>
<!-- resync_audit&#45;&gt;person_summary -->
<g id="edge7" class="edge">
<title>resync_audit:w&#45;&gt;person_summary:e</title>
<path fill="none" stroke="#000000" stroke-dasharray="5,2" d="M406.2185,-194.2C393.038,-194.2 385.1875,-194.2 367,-194.2"/>
<polygon fill="#000000" stroke="#000000" points="413,-194.2001 421,-197.8 417,-194.2 421,-194.2 421,-194.2 421,-194.2 417,-194.2 421,-190.6 413,-194.2001 413,-194.2001"/>
<ellipse fill="none" stroke="#000000" cx="409.8" cy="-194.2001" rx="3.2" ry="3.2"/>
</g>
<!-- audit_event -->
<g id="node2" class="node">
<title>audit_event</title>
<g id="a_node2"><a xlink:href="../../tables/audit_event.html" xlink:title="audit_event" target="_top">
<polygon fill="#ffffff" stroke="transparent" points="680,-403.7 680,-574.7 879,-574.7 879,-403.7 680,-403.7"/>
<polygon fill="#f5f5f5" stroke="transparent" points="680.5,-551.2 680.5,-574.2 879.5,-574.2 879.5,-551.2 680.5,-551.2"/>
<polygon fill="none" stroke="#000000" points="680.5,-551.2 680.5,-574.2 879.5,-574.2 879.5,-551.2 680.5,-551.2"/>
<text text-anchor="start" x="685.5" y="-559.8" font-family="Helvetica,sans-Serif" font-weight="bold" font-size="11.00" fill="#000000">audit_event</text>
<text text-anchor="start" x="844.5437" y="-559.3" font-family="Helvetica,sans-Serif" font-size="11.00" fill="#000000">[table]</text>
<polygon fill="#ffffff" stroke="transparent" points="680.5,-529.2 680.5,-551.2 879.5,-551.2 879.5,-529.2 680.5,-529.2"/>
<polygon fill="none" stroke="#000000" points="680.5,-529.2 680.5,-551.2 879.5,-551.2 879.5,-529.2 680.5,-529.2"/>
<text text-anchor="start" x="700.5" y="-536.3" font-family="Helvetica,sans-Serif" font-size="11.00" fill="#000000">action</text>
<polygon fill="#ffffff" stroke="transparent" points="680.5,-507.2 680.5,-529.2 879.5,-529.2 879.5,-507.2 680.5,-507.2"/>
<polygon fill="none" stroke="#000000" points="680.5,-507.2 680.5,-529.2 879.5,-529.2 879.5,-507.2 680.5,-507.2"/>
<text text-anchor="start" x="700.5" y="-514.3" font-family="Helvetica,sans-Serif" font-size="11.00" fill="#000000">actioned_at</text>
<polygon fill="#ffffff" stroke="transparent" points="680.5,-485.2 680.5,-507.2 879.5,-507.2 879.5,-485.2 680.5,-485.2"/>
<polygon fill="none" stroke="#000000" points="680.5,-485.2 680.5,-507.2 879.5,-507.2 879.5,-485.2 680.5,-485.2"/>
<text text-anchor="start" x="700.5" y="-492.3" font-family="Helvetica,sans-Serif" font-size="11.00" fill="#000000">actioned_by</text>
<polygon fill="#ffffff" stroke="transparent" points="680.5,-463.2 680.5,-485.2 879.5,-485.2 879.5,-463.2 680.5,-463.2"/>
<polygon fill="none" stroke="#000000" points="680.5,-463.2 680.5,-485.2 879.5,-485.2 879.5,-463.2 680.5,-463.2"/>
<image xlink:href="../../images/foreignKeys.png" width="11px" height="12px" preserveAspectRatio="xMinYMin meet" x="685.5" y="-480.2"/>
<text text-anchor="start" x="700.5" y="-470.3" font-family="Helvetica,sans-Serif" font-size="11.00" fill="#000000">alert_id</text>
<polygon fill="none" stroke="#000000" points="680.5,-441.2 680.5,-463.2 879.5,-463.2 879.5,-441.2 680.5,-441.2"/>
<image xlink:href="../../images/primaryKeys.png" width="11px" height="12px" preserveAspectRatio="xMinYMin meet" x="685.5" y="-458.2"/>
<text text-anchor="start" x="700.5" y="-448.3" font-family="Helvetica,sans-Serif" font-size="11.00" fill="#000000">id</text>
<polygon fill="none" stroke="#000000" points="680.5,-422.2 680.5,-441.2 879.5,-441.2 879.5,-422.2 680.5,-422.2"/>
<text text-anchor="start" x="683.5" y="-428.3" font-family="Helvetica,sans-Serif" font-size="11.00" fill="#000000">...</text>
<polygon fill="#ffffff" stroke="transparent" points="680.5,-403.2 680.5,-422.2 778.5,-422.2 778.5,-403.2 680.5,-403.2"/>
<polygon fill="none" stroke="#000000" points="680.5,-403.2 680.5,-422.2 778.5,-422.2 778.5,-403.2 680.5,-403.2"/>
<text text-anchor="start" x="683.5" y="-409.3" font-family="Helvetica,sans-Serif" font-size="11.00" fill="#000000">&lt; 1</text>
<polygon fill="#ffffff" stroke="transparent" points="778.5,-403.2 778.5,-422.2 828.5,-422.2 828.5,-403.2 778.5,-403.2"/>
<polygon fill="none" stroke="#000000" points="778.5,-403.2 778.5,-422.2 828.5,-422.2 828.5,-403.2 778.5,-403.2"/>
<text text-anchor="start" x="819.3862" y="-409.3" font-family="Helvetica,sans-Serif" font-size="11.00" fill="#000000"> &#160;</text>
<polygon fill="#ffffff" stroke="transparent" points="828.5,-403.2 828.5,-422.2 879.5,-422.2 879.5,-403.2 828.5,-403.2"/>
<polygon fill="none" stroke="#000000" points="828.5,-403.2 828.5,-422.2 879.5,-422.2 879.5,-403.2 828.5,-403.2"/>
<text text-anchor="start" x="870.3862" y="-409.3" font-family="Helvetica,sans-Serif" font-size="11.00" fill="#000000"> &#160;</text>
</a>
</g>
</g>
<!-- alert -->
<g id="node4" class="node">
<title>alert</title>
<g id="a_node4"><a xlink:href="../../tables/alert.html" xlink:title="alert" target="_top">
<polygon fill="#ffffff" stroke="transparent" points="425.5,-271.7 425.5,-508.7 626.5,-508.7 626.5,-271.7 425.5,-271.7"/>
<polygon fill="#f5f5f5" stroke="transparent" points="426,-485.2 426,-508.2 627,-508.2 627,-485.2 426,-485.2"/>
<polygon fill="none" stroke="#000000" points="426,-485.2 426,-508.2 627,-508.2 627,-485.2 426,-485.2"/>
<text text-anchor="start" x="431" y="-493.8" font-family="Helvetica,sans-Serif" font-weight="bold" font-size="11.00" fill="#000000">alert</text>
<text text-anchor="start" x="592.0437" y="-493.3" font-family="Helvetica,sans-Serif" font-size="11.00" fill="#000000">[table]</text>
<polygon fill="none" stroke="#000000" points="426,-463.2 426,-485.2 627,-485.2 627,-463.2 426,-463.2"/>
<image xlink:href="../../images/primaryKeys.png" width="11px" height="12px" preserveAspectRatio="xMinYMin meet" x="431" y="-480.2"/>
<text text-anchor="start" x="446" y="-470.3" font-family="Helvetica,sans-Serif" font-size="11.00" fill="#000000">id</text>
<polygon fill="#ffffff" stroke="transparent" points="426,-441.2 426,-463.2 627,-463.2 627,-441.2 426,-441.2"/>
<polygon fill="none" stroke="#000000" points="426,-441.2 426,-463.2 627,-463.2 627,-441.2 426,-441.2"/>
<image xlink:href="../../images/foreignKeys.png" width="11px" height="12px" preserveAspectRatio="xMinYMin meet" x="431" y="-458.2"/>
<text text-anchor="start" x="446" y="-448.3" font-family="Helvetica,sans-Serif" font-size="11.00" fill="#000000">alert_code_id</text>
<polygon fill="#ffffff" stroke="transparent" points="426,-419.2 426,-441.2 627,-441.2 627,-419.2 426,-419.2"/>
<polygon fill="none" stroke="#000000" points="426,-419.2 426,-441.2 627,-441.2 627,-419.2 426,-419.2"/>
<image xlink:href="../../images/foreignKeys.png" width="11px" height="12px" preserveAspectRatio="xMinYMin meet" x="431" y="-436.2"/>
<text text-anchor="start" x="446" y="-426.3" font-family="Helvetica,sans-Serif" font-size="11.00" fill="#000000">prison_number</text>
<polygon fill="#ffffff" stroke="transparent" points="426,-397.2 426,-419.2 627,-419.2 627,-397.2 426,-397.2"/>
<polygon fill="none" stroke="#000000" points="426,-397.2 426,-419.2 627,-419.2 627,-397.2 426,-397.2"/>
<text text-anchor="start" x="446" y="-404.3" font-family="Helvetica,sans-Serif" font-size="11.00" fill="#000000">active_from</text>
<polygon fill="#ffffff" stroke="transparent" points="426,-375.2 426,-397.2 627,-397.2 627,-375.2 426,-375.2"/>
<polygon fill="none" stroke="#000000" points="426,-375.2 426,-397.2 627,-397.2 627,-375.2 426,-375.2"/>
<text text-anchor="start" x="446" y="-382.3" font-family="Helvetica,sans-Serif" font-size="11.00" fill="#000000">active_to</text>
<polygon fill="#ffffff" stroke="transparent" points="426,-353.2 426,-375.2 627,-375.2 627,-353.2 426,-353.2"/>
<polygon fill="none" stroke="#000000" points="426,-353.2 426,-375.2 627,-375.2 627,-353.2 426,-353.2"/>
<text text-anchor="start" x="446" y="-360.3" font-family="Helvetica,sans-Serif" font-size="11.00" fill="#000000">deleted_at</text>
<polygon fill="#ffffff" stroke="transparent" points="426,-331.2 426,-353.2 627,-353.2 627,-331.2 426,-331.2"/>
<polygon fill="none" stroke="#000000" points="426,-331.2 426,-353.2 627,-353.2 627,-331.2 426,-331.2"/>
<text text-anchor="start" x="446" y="-338.3" font-family="Helvetica,sans-Serif" font-size="11.00" fill="#000000">created_at</text>
<polygon fill="#ffffff" stroke="transparent" points="426,-309.2 426,-331.2 627,-331.2 627,-309.2 426,-309.2"/>
<polygon fill="none" stroke="#000000" points="426,-309.2 426,-331.2 627,-331.2 627,-309.2 426,-309.2"/>
<text text-anchor="start" x="446" y="-316.3" font-family="Helvetica,sans-Serif" font-size="11.00" fill="#000000">last_modified_at</text>
<polygon fill="none" stroke="#000000" points="426,-290.2 426,-309.2 627,-309.2 627,-290.2 426,-290.2"/>
<text text-anchor="start" x="429" y="-296.3" font-family="Helvetica,sans-Serif" font-size="11.00" fill="#000000">...</text>
<polygon fill="#ffffff" stroke="transparent" points="426,-271.2 426,-290.2 520,-290.2 520,-271.2 426,-271.2"/>
<polygon fill="none" stroke="#000000" points="426,-271.2 426,-290.2 520,-290.2 520,-271.2 426,-271.2"/>
<text text-anchor="start" x="429" y="-277.3" font-family="Helvetica,sans-Serif" font-size="11.00" fill="#000000">&lt; 1</text>
<polygon fill="#ffffff" stroke="transparent" points="520,-271.2 520,-290.2 569,-290.2 569,-271.2 520,-271.2"/>
<polygon fill="none" stroke="#000000" points="520,-271.2 520,-290.2 569,-290.2 569,-271.2 520,-271.2"/>
<text text-anchor="start" x="559.8862" y="-277.3" font-family="Helvetica,sans-Serif" font-size="11.00" fill="#000000"> &#160;</text>
<polygon fill="#ffffff" stroke="transparent" points="569,-271.2 569,-290.2 627,-290.2 627,-271.2 569,-271.2"/>
<polygon fill="none" stroke="#000000" points="569,-271.2 569,-290.2 627,-290.2 627,-271.2 569,-271.2"/>
<text text-anchor="start" x="608.4053" y="-277.3" font-family="Helvetica,sans-Serif" font-size="11.00" fill="#000000">1 &gt;</text>
</a>
</g>
</g>
<!-- audit_event&#45;&gt;alert -->
<g id="edge4" class="edge">
<title>audit_event:w&#45;&gt;alert:e</title>
<path fill="none" stroke="#000000" d="M665.8553,-474.2C652.7969,-474.2 645.0191,-474.2 627,-474.2"/>
<polygon fill="#000000" stroke="#000000" points="672.5,-474.2001 680.5,-477.8 676.5,-474.2 680.5,-474.2 680.5,-474.2 680.5,-474.2 676.5,-474.2 680.5,-470.6 672.5,-474.2001 672.5,-474.2001"/>
<ellipse fill="none" stroke="#000000" cx="669.3" cy="-474.2001" rx="3.2" ry="3.2"/>
</g>
<!-- alert_code -->
<g id="node3" class="node">
<title>alert_code</title>
<g id="a_node3"><a xlink:href="../../tables/alert_code.html" xlink:title="alert_code" target="_top">
<polygon fill="#ffffff" stroke="transparent" points="214.5,-293.7 214.5,-486.7 337.5,-486.7 337.5,-293.7 214.5,-293.7"/>
<polygon fill="#f5f5f5" stroke="transparent" points="215,-463.2 215,-486.2 338,-486.2 338,-463.2 215,-463.2"/>
<polygon fill="none" stroke="#000000" points="215,-463.2 215,-486.2 338,-486.2 338,-463.2 215,-463.2"/>
<text text-anchor="start" x="220" y="-471.8" font-family="Helvetica,sans-Serif" font-weight="bold" font-size="11.00" fill="#000000">alert_code</text>
<text text-anchor="start" x="303.0437" y="-471.3" font-family="Helvetica,sans-Serif" font-size="11.00" fill="#000000">[table]</text>
<polygon fill="none" stroke="#000000" points="215,-441.2 215,-463.2 338,-463.2 338,-441.2 215,-441.2"/>
<image xlink:href="../../images/primaryKeys.png" width="11px" height="12px" preserveAspectRatio="xMinYMin meet" x="220" y="-458.2"/>
<text text-anchor="start" x="235" y="-448.3" font-family="Helvetica,sans-Serif" font-size="11.00" fill="#000000">alert_code_id</text>
<polygon fill="#ffffff" stroke="transparent" points="215,-419.2 215,-441.2 338,-441.2 338,-419.2 215,-419.2"/>
<polygon fill="none" stroke="#000000" points="215,-419.2 215,-441.2 338,-441.2 338,-419.2 215,-419.2"/>
<image xlink:href="../../images/foreignKeys.png" width="11px" height="12px" preserveAspectRatio="xMinYMin meet" x="220" y="-436.2"/>
<text text-anchor="start" x="235" y="-426.3" font-family="Helvetica,sans-Serif" font-size="11.00" fill="#000000">alert_type_id</text>
<polygon fill="#ffffff" stroke="transparent" points="215,-397.2 215,-419.2 338,-419.2 338,-397.2 215,-397.2"/>
<polygon fill="none" stroke="#000000" points="215,-397.2 215,-419.2 338,-419.2 338,-397.2 215,-397.2"/>
<text text-anchor="start" x="235" y="-404.3" font-family="Helvetica,sans-Serif" font-size="11.00" fill="#000000">code</text>
<polygon fill="#ffffff" stroke="transparent" points="215,-375.2 215,-397.2 338,-397.2 338,-375.2 215,-375.2"/>
<polygon fill="none" stroke="#000000" points="215,-375.2 215,-397.2 338,-397.2 338,-375.2 215,-375.2"/>
<text text-anchor="start" x="235" y="-382.3" font-family="Helvetica,sans-Serif" font-size="11.00" fill="#000000">list_sequence</text>
<polygon fill="#ffffff" stroke="transparent" points="215,-353.2 215,-375.2 338,-375.2 338,-353.2 215,-353.2"/>
<polygon fill="none" stroke="#000000" points="215,-353.2 215,-375.2 338,-375.2 338,-353.2 215,-353.2"/>
<text text-anchor="start" x="235" y="-360.3" font-family="Helvetica,sans-Serif" font-size="11.00" fill="#000000">created_at</text>
<polygon fill="#ffffff" stroke="transparent" points="215,-331.2 215,-353.2 338,-353.2 338,-331.2 215,-331.2"/>
<polygon fill="none" stroke="#000000" points="215,-331.2 215,-353.2 338,-353.2 338,-331.2 215,-331.2"/>
<text text-anchor="start" x="235" y="-338.3" font-family="Helvetica,sans-Serif" font-size="11.00" fill="#000000">deactivated_at</text>
<polygon fill="none" stroke="#000000" points="215,-312.2 215,-331.2 338,-331.2 338,-312.2 215,-312.2"/>
<text text-anchor="start" x="218" y="-318.3" font-family="Helvetica,sans-Serif" font-size="11.00" fill="#000000">...</text>
<polygon fill="#ffffff" stroke="transparent" points="215,-293.2 215,-312.2 251,-312.2 251,-293.2 215,-293.2"/>
<polygon fill="none" stroke="#000000" points="215,-293.2 215,-312.2 251,-312.2 251,-293.2 215,-293.2"/>
<text text-anchor="start" x="218" y="-299.3" font-family="Helvetica,sans-Serif" font-size="11.00" fill="#000000">&lt; 1</text>
<polygon fill="#ffffff" stroke="transparent" points="251,-293.2 251,-312.2 309,-312.2 309,-293.2 251,-293.2"/>
<polygon fill="none" stroke="#000000" points="251,-293.2 251,-312.2 309,-312.2 309,-293.2 251,-293.2"/>
<text text-anchor="start" x="261.3807" y="-299.3" font-family="Helvetica,sans-Serif" font-size="11.00" fill="#000000">213 rows</text>
<polygon fill="#ffffff" stroke="transparent" points="309,-293.2 309,-312.2 338,-312.2 338,-293.2 309,-293.2"/>
<polygon fill="none" stroke="#000000" points="309,-293.2 309,-312.2 338,-312.2 338,-293.2 309,-293.2"/>
<text text-anchor="start" x="319.4053" y="-299.3" font-family="Helvetica,sans-Serif" font-size="11.00" fill="#000000">1 &gt;</text>
</a>
</g>
</g>
<!-- alert_type -->
<g id="node7" class="node">
<title>alert_type</title>
<g id="a_node7"><a xlink:href="../../tables/alert_type.html" xlink:title="alert_type" target="_top">
<polygon fill="#ffffff" stroke="transparent" points="8,-293.7 8,-464.7 131,-464.7 131,-293.7 8,-293.7"/>
<polygon fill="#f5f5f5" stroke="transparent" points="8.5,-441.2 8.5,-464.2 131.5,-464.2 131.5,-441.2 8.5,-441.2"/>
<polygon fill="none" stroke="#000000" points="8.5,-441.2 8.5,-464.2 131.5,-464.2 131.5,-441.2 8.5,-441.2"/>
<text text-anchor="start" x="13.5" y="-449.8" font-family="Helvetica,sans-Serif" font-weight="bold" font-size="11.00" fill="#000000">alert_type</text>
<text text-anchor="start" x="96.5437" y="-449.3" font-family="Helvetica,sans-Serif" font-size="11.00" fill="#000000">[table]</text>
<polygon fill="none" stroke="#000000" points="8.5,-419.2 8.5,-441.2 131.5,-441.2 131.5,-419.2 8.5,-419.2"/>
<image xlink:href="../../images/primaryKeys.png" width="11px" height="12px" preserveAspectRatio="xMinYMin meet" x="13.5" y="-436.2"/>
<text text-anchor="start" x="28.5" y="-426.3" font-family="Helvetica,sans-Serif" font-size="11.00" fill="#000000">alert_type_id</text>
<polygon fill="#ffffff" stroke="transparent" points="8.5,-397.2 8.5,-419.2 131.5,-419.2 131.5,-397.2 8.5,-397.2"/>
<polygon fill="none" stroke="#000000" points="8.5,-397.2 8.5,-419.2 131.5,-419.2 131.5,-397.2 8.5,-397.2"/>
<text text-anchor="start" x="28.5" y="-404.3" font-family="Helvetica,sans-Serif" font-size="11.00" fill="#000000">code</text>
<polygon fill="#ffffff" stroke="transparent" points="8.5,-375.2 8.5,-397.2 131.5,-397.2 131.5,-375.2 8.5,-375.2"/>
<polygon fill="none" stroke="#000000" points="8.5,-375.2 8.5,-397.2 131.5,-397.2 131.5,-375.2 8.5,-375.2"/>
<text text-anchor="start" x="28.5" y="-382.3" font-family="Helvetica,sans-Serif" font-size="11.00" fill="#000000">list_sequence</text>
<polygon fill="#ffffff" stroke="transparent" points="8.5,-353.2 8.5,-375.2 131.5,-375.2 131.5,-353.2 8.5,-353.2"/>
<polygon fill="none" stroke="#000000" points="8.5,-353.2 8.5,-375.2 131.5,-375.2 131.5,-353.2 8.5,-353.2"/>
<text text-anchor="start" x="28.5" y="-360.3" font-family="Helvetica,sans-Serif" font-size="11.00" fill="#000000">created_at</text>
<polygon fill="#ffffff" stroke="transparent" points="8.5,-331.2 8.5,-353.2 131.5,-353.2 131.5,-331.2 8.5,-331.2"/>
<polygon fill="none" stroke="#000000" points="8.5,-331.2 8.5,-353.2 131.5,-353.2 131.5,-331.2 8.5,-331.2"/>
<text text-anchor="start" x="28.5" y="-338.3" font-family="Helvetica,sans-Serif" font-size="11.00" fill="#000000">deactivated_at</text>
<polygon fill="none" stroke="#000000" points="8.5,-312.2 8.5,-331.2 131.5,-331.2 131.5,-312.2 8.5,-312.2"/>
<text text-anchor="start" x="11.5" y="-318.3" font-family="Helvetica,sans-Serif" font-size="11.00" fill="#000000">...</text>
<polygon fill="#ffffff" stroke="transparent" points="8.5,-293.2 8.5,-312.2 59.5,-312.2 59.5,-293.2 8.5,-293.2"/>
<polygon fill="none" stroke="#000000" points="8.5,-293.2 8.5,-312.2 59.5,-312.2 59.5,-293.2 8.5,-293.2"/>
<text text-anchor="start" x="11.5" y="-299.3" font-family="Helvetica,sans-Serif" font-size="11.00" fill="#000000"> &#160;</text>
<polygon fill="#ffffff" stroke="transparent" points="59.5,-293.2 59.5,-312.2 90.5,-312.2 90.5,-293.2 59.5,-293.2"/>
<polygon fill="none" stroke="#000000" points="59.5,-293.2 59.5,-312.2 90.5,-312.2 90.5,-293.2 59.5,-293.2"/>
<text text-anchor="start" x="81.3862" y="-299.3" font-family="Helvetica,sans-Serif" font-size="11.00" fill="#000000"> &#160;</text>
<polygon fill="#ffffff" stroke="transparent" points="90.5,-293.2 90.5,-312.2 131.5,-312.2 131.5,-293.2 90.5,-293.2"/>
<polygon fill="none" stroke="#000000" points="90.5,-293.2 90.5,-312.2 131.5,-312.2 131.5,-293.2 90.5,-293.2"/>
<text text-anchor="start" x="112.9053" y="-299.3" font-family="Helvetica,sans-Serif" font-size="11.00" fill="#000000">1 &gt;</text>
</a>
</g>
</g>
<!-- alert_code&#45;&gt;alert_type -->
<g id="edge3" class="edge">
<title>alert_code:w&#45;&gt;alert_type:e</title>
<path fill="none" stroke="#000000" d="M200.485,-430.2C174.6256,-430.2 163.2474,-430.2 131.5,-430.2"/>
<polygon fill="#000000" stroke="#000000" points="207,-430.2001 215,-433.8 211,-430.2 215,-430.2 215,-430.2 215,-430.2 211,-430.2 215,-426.6 207,-430.2001 207,-430.2001"/>
<ellipse fill="none" stroke="#000000" cx="203.8" cy="-430.2001" rx="3.2" ry="3.2"/>
</g>
<!-- alert&#45;&gt;alert_code -->
<g id="edge1" class="edge">
<title>alert:w&#45;&gt;alert_code:e</title>
<path fill="none" stroke="#000000" d="M411.4533,-452.2C383.667,-452.2 371.7639,-452.2 338,-452.2"/>
<polygon fill="#000000" stroke="#000000" points="418,-452.2001 426,-455.8 422,-452.2 426,-452.2 426,-452.2 426,-452.2 422,-452.2 426,-448.6 418,-452.2001 418,-452.2001"/>
<ellipse fill="none" stroke="#000000" cx="414.8" cy="-452.2001" rx="3.2" ry="3.2"/>
</g>
<!-- alert&#45;&gt;person_summary -->
<g id="edge2" class="edge">
<title>alert:w&#45;&gt;person_summary:e</title>
<path fill="none" stroke="#000000" stroke-dasharray="5,2" d="M411.5124,-428.4361C333.1678,-406.8398 469.6267,-194.2 367,-194.2"/>
<polygon fill="#000000" stroke="#000000" points="418.0586,-429.2331 425.5649,-433.7736 422.0293,-429.7165 426,-430.2 426,-430.2 426,-430.2 422.0293,-429.7165 426.4351,-426.6264 418.0586,-429.2331 418.0586,-429.2331"/>
<ellipse fill="none" stroke="#000000" cx="414.8821" cy="-428.8463" rx="3.2" ry="3.2"/>
</g>
<!-- bulk_plan -->
<g id="node5" class="node">
<title>bulk_plan</title>
<g id="a_node5"><a xlink:href="../../tables/bulk_plan.html" xlink:title="bulk_plan" target="_top">
<polygon fill="#ffffff" stroke="transparent" points="180,-41.7 180,-124.7 372,-124.7 372,-41.7 180,-41.7"/>
<polygon fill="#f5f5f5" stroke="transparent" points="180,-101.2 180,-124.2 372,-124.2 372,-101.2 180,-101.2"/>
<polygon fill="none" stroke="#000000" points="180,-101.2 180,-124.2 372,-124.2 372,-101.2 180,-101.2"/>
<text text-anchor="start" x="185" y="-109.8" font-family="Helvetica,sans-Serif" font-weight="bold" font-size="11.00" fill="#000000">bulk_plan</text>
<text text-anchor="start" x="337.0437" y="-109.3" font-family="Helvetica,sans-Serif" font-size="11.00" fill="#000000">[table]</text>
<polygon fill="none" stroke="#000000" points="180,-79.2 180,-101.2 372,-101.2 372,-79.2 180,-79.2"/>
<image xlink:href="../../images/primaryKeys.png" width="11px" height="12px" preserveAspectRatio="xMinYMin meet" x="185" y="-96.2"/>
<text text-anchor="start" x="200" y="-86.3" font-family="Helvetica,sans-Serif" font-size="11.00" fill="#000000">id</text>
<polygon fill="none" stroke="#000000" points="180,-60.2 180,-79.2 372,-79.2 372,-60.2 180,-60.2"/>
<text text-anchor="start" x="183" y="-66.3" font-family="Helvetica,sans-Serif" font-size="11.00" fill="#000000">...</text>
<polygon fill="#ffffff" stroke="transparent" points="180,-41.2 180,-60.2 265,-60.2 265,-41.2 180,-41.2"/>
<polygon fill="none" stroke="#000000" points="180,-41.2 180,-60.2 265,-60.2 265,-41.2 180,-41.2"/>
<text text-anchor="start" x="183" y="-47.3" font-family="Helvetica,sans-Serif" font-size="11.00" fill="#000000"> &#160;</text>
<polygon fill="#ffffff" stroke="transparent" points="265,-41.2 265,-60.2 314,-60.2 314,-41.2 265,-41.2"/>
<polygon fill="none" stroke="#000000" points="265,-41.2 265,-60.2 314,-60.2 314,-41.2 265,-41.2"/>
<text text-anchor="start" x="304.8862" y="-47.3" font-family="Helvetica,sans-Serif" font-size="11.00" fill="#000000"> &#160;</text>
<polygon fill="#ffffff" stroke="transparent" points="314,-41.2 314,-60.2 372,-60.2 372,-41.2 314,-41.2"/>
<polygon fill="none" stroke="#000000" points="314,-41.2 314,-60.2 372,-60.2 372,-41.2 314,-41.2"/>
<text text-anchor="start" x="353.4053" y="-47.3" font-family="Helvetica,sans-Serif" font-size="11.00" fill="#000000">1 &gt;</text>
</a>
</g>
</g>
<!-- plan_person -->
<g id="node6" class="node">
<title>plan_person</title>
<g id="a_node6"><a xlink:href="../../tables/plan_person.html" xlink:title="plan_person" target="_top">
<polygon fill="#ffffff" stroke="transparent" points="465.5,-38.2 465.5,-124.2 586.5,-124.2 586.5,-38.2 465.5,-38.2"/>
<polygon fill="#f5f5f5" stroke="transparent" points="466,-101.2 466,-124.2 587,-124.2 587,-101.2 466,-101.2"/>
<polygon fill="none" stroke="#000000" points="466,-101.2 466,-124.2 587,-124.2 587,-101.2 466,-101.2"/>
<text text-anchor="start" x="471" y="-109.8" font-family="Helvetica,sans-Serif" font-weight="bold" font-size="11.00" fill="#000000">plan_person</text>
<text text-anchor="start" x="552.5219" y="-109.3" font-family="Helvetica,sans-Serif" font-size="11.00" fill="#000000">[table]</text>
<polygon fill="none" stroke="#000000" points="466,-79.2 466,-101.2 587,-101.2 587,-79.2 466,-79.2"/>
<image xlink:href="../../images/foreignKeys.png" width="11px" height="12px" preserveAspectRatio="xMinYMin meet" x="471" y="-96.2"/>
<text text-anchor="start" x="486" y="-86.3" font-family="Helvetica,sans-Serif" font-size="11.00" fill="#000000">plan_id</text>
<polygon fill="none" stroke="#000000" points="466,-57.2 466,-79.2 587,-79.2 587,-57.2 466,-57.2"/>
<image xlink:href="../../images/foreignKeys.png" width="11px" height="12px" preserveAspectRatio="xMinYMin meet" x="471" y="-74.2"/>
<text text-anchor="start" x="486" y="-64.3" font-family="Helvetica,sans-Serif" font-size="11.00" fill="#000000">prison_number</text>
<polygon fill="#ffffff" stroke="transparent" points="466,-38.2 466,-57.2 525,-57.2 525,-38.2 466,-38.2"/>
<polygon fill="none" stroke="#000000" points="466,-38.2 466,-57.2 525,-57.2 525,-38.2 466,-38.2"/>
<text text-anchor="start" x="469" y="-44.3" font-family="Helvetica,sans-Serif" font-size="11.00" fill="#000000">&lt; 2</text>
<polygon fill="#ffffff" stroke="transparent" points="525,-38.2 525,-57.2 556,-57.2 556,-38.2 525,-38.2"/>
<polygon fill="none" stroke="#000000" points="525,-38.2 525,-57.2 556,-57.2 556,-38.2 525,-38.2"/>
<text text-anchor="start" x="546.8862" y="-44.3" font-family="Helvetica,sans-Serif" font-size="11.00" fill="#000000"> &#160;</text>
<polygon fill="#ffffff" stroke="transparent" points="556,-38.2 556,-57.2 587,-57.2 587,-38.2 556,-38.2"/>
<polygon fill="none" stroke="#000000" points="556,-38.2 556,-57.2 587,-57.2 587,-38.2 556,-38.2"/>
<text text-anchor="start" x="577.8862" y="-44.3" font-family="Helvetica,sans-Serif" font-size="11.00" fill="#000000"> &#160;</text>
</a>
</g>
</g>
<!-- plan_person&#45;&gt;bulk_plan -->
<g id="edge5" class="edge">
<title>plan_person:w&#45;&gt;bulk_plan:e</title>
<path fill="none" stroke="#000000" d="M451.2715,-90.2C421.0089,-90.2 408.3924,-90.2 372,-90.2"/>
<polygon fill="#000000" stroke="#000000" points="458,-90.2001 466,-93.8 462,-90.2 466,-90.2 466,-90.2 466,-90.2 462,-90.2 466,-86.6 458,-90.2001 458,-90.2001"/>
<ellipse fill="none" stroke="#000000" cx="454.8" cy="-90.2001" rx="3.2" ry="3.2"/>
</g>
<!-- plan_person&#45;&gt;person_summary -->
<g id="edge6" class="edge">
<title>plan_person:w&#45;&gt;person_summary:e</title>
<path fill="none" stroke="#000000" d="M451.6004,-70.6288C429.8573,-79.347 432.878,-109.8885 413,-135.2 392.4634,-161.3501 400.2503,-194.2 367,-194.2"/>
<polygon fill="#000000" stroke="#000000" points="458.1114,-69.5306 466.5988,-71.7499 462.0557,-68.8653 466,-68.2 466,-68.2 466,-68.2 462.0557,-68.8653 465.4012,-64.6501 458.1114,-69.5306 458.1114,-69.5306"/>
<ellipse fill="none" stroke="#000000" cx="454.956" cy="-70.0629" rx="3.2" ry="3.2"/>
</g>
</g>
</svg>
