<?xml version="1.0" encoding="UTF-8" standalone="no"?>
<!DOCTYPE svg PUBLIC "-//W3C//DTD SVG 1.1//EN"
 "http://www.w3.org/Graphics/SVG/1.1/DTD/svg11.dtd">
<!-- Generated by graphviz version 2.40.1 (20161225.0304)
 -->
<!-- Title: compactRelationshipsDiagram Pages: 1 -->
<svg width="921pt" height="657pt"
 viewBox="0.00 0.00 921.00 657.20" xmlns="http://www.w3.org/2000/svg" xmlns:xlink="http://www.w3.org/1999/xlink">
<g id="graph0" class="graph" transform="scale(1 1) rotate(0) translate(4 653.2)">
<title>compactRelationshipsDiagram</title>
<polygon fill="#ffffff" stroke="transparent" points="-4,4 -4,-653.2 917,-653.2 917,4 -4,4"/>
<text text-anchor="middle" x="72.4936" y="-7.3" font-family="Helvetica,sans-Serif" font-size="11.00" fill="#000000">Generated by SchemaSpy</text>
<!-- resync_audit -->
<g id="node1" class="node">
<title>resync_audit</title>
<g id="a_node1"><a xlink:href="../../tables/resync_audit.html" xlink:title="resync_audit" target="_top">
<polygon fill="#ffffff" stroke="transparent" points="680,-458.2 680,-563.2 905,-563.2 905,-458.2 680,-458.2"/>
<polygon fill="#f5f5f5" stroke="transparent" points="680.5,-539.7 680.5,-562.7 905.5,-562.7 905.5,-539.7 680.5,-539.7"/>
<polygon fill="none" stroke="#000000" points="680.5,-539.7 680.5,-562.7 905.5,-562.7 905.5,-539.7 680.5,-539.7"/>
<text text-anchor="start" x="685.5" y="-548.3" font-family="Helvetica,sans-Serif" font-weight="bold" font-size="11.00" fill="#000000">resync_audit</text>
<text text-anchor="start" x="870.5437" y="-547.8" font-family="Helvetica,sans-Serif" font-size="11.00" fill="#000000">[table]</text>
<polygon fill="none" stroke="#000000" points="680.5,-517.7 680.5,-539.7 905.5,-539.7 905.5,-517.7 680.5,-517.7"/>
<image xlink:href="../../images/primaryKeys.png" width="11px" height="12px" preserveAspectRatio="xMinYMin meet" x="685.5" y="-534.7"/>
<text text-anchor="start" x="700.5" y="-524.8" font-family="Helvetica,sans-Serif" font-size="11.00" fill="#000000">id</text>
<polygon fill="#ffffff" stroke="transparent" points="680.5,-495.7 680.5,-517.7 905.5,-517.7 905.5,-495.7 680.5,-495.7"/>
<polygon fill="none" stroke="#000000" points="680.5,-495.7 680.5,-517.7 905.5,-517.7 905.5,-495.7 680.5,-495.7"/>
<image xlink:href="../../images/foreignKeys.png" width="11px" height="12px" preserveAspectRatio="xMinYMin meet" x="685.5" y="-512.7"/>
<text text-anchor="start" x="700.5" y="-502.8" font-family="Helvetica,sans-Serif" font-size="11.00" fill="#000000">prison_number</text>
<polygon fill="none" stroke="#000000" points="680.5,-476.7 680.5,-495.7 905.5,-495.7 905.5,-476.7 680.5,-476.7"/>
<text text-anchor="start" x="683.5" y="-482.8" font-family="Helvetica,sans-Serif" font-size="11.00" fill="#000000">...</text>
<polygon fill="#ffffff" stroke="transparent" points="680.5,-457.7 680.5,-476.7 905.5,-476.7 905.5,-457.7 680.5,-457.7"/>
<polygon fill="none" stroke="#000000" points="680.5,-457.7 680.5,-476.7 905.5,-476.7 905.5,-457.7 680.5,-457.7"/>
<polygon fill="#ffffff" stroke="transparent" points="681.5,-458.7 681.5,-475.7 756.5,-475.7 756.5,-458.7 681.5,-458.7"/>
<text text-anchor="start" x="683.5" y="-463.8" font-family="Helvetica,sans-Serif" font-size="11.00" fill="#000000"> &#160;</text>
<polygon fill="#ffffff" stroke="transparent" points="756.5,-458.7 756.5,-475.7 830.5,-475.7 830.5,-458.7 756.5,-458.7"/>
<text text-anchor="start" x="790.4431" y="-463.8" font-family="Helvetica,sans-Serif" font-size="11.00" fill="#000000"> &#160;</text>
<polygon fill="#ffffff" stroke="transparent" points="830.5,-458.7 830.5,-475.7 904.5,-475.7 904.5,-458.7 830.5,-458.7"/>
<text text-anchor="start" x="896.3862" y="-463.8" font-family="Helvetica,sans-Serif" font-size="11.00" fill="#000000"> &#160;</text>
<polygon fill="#000000" stroke="#000000" points="756.5,-458.7 756.5,-475.7 756.5,-475.7 756.5,-458.7 756.5,-458.7"/>
<polygon fill="#000000" stroke="#000000" points="830.5,-458.7 830.5,-475.7 830.5,-475.7 830.5,-458.7 830.5,-458.7"/>
</a>
</g>
</g>
<!-- alert_code_privileged_user -->
<g id="node2" class="node">
<title>alert_code_privileged_user</title>
<g id="a_node2"><a xlink:href="../../tables/alert_code_privileged_user.html" xlink:title="alert_code_privileged_user" target="_top">
<polygon fill="#ffffff" stroke="transparent" points="370,-296.7 370,-382.7 603,-382.7 603,-296.7 370,-296.7"/>
<polygon fill="#f5f5f5" stroke="transparent" points="370.5,-359.7 370.5,-382.7 603.5,-382.7 603.5,-359.7 370.5,-359.7"/>
<polygon fill="none" stroke="#000000" points="370.5,-359.7 370.5,-382.7 603.5,-382.7 603.5,-359.7 370.5,-359.7"/>
<text text-anchor="start" x="375.5" y="-368.3" font-family="Helvetica,sans-Serif" font-weight="bold" font-size="11.00" fill="#000000">alert_code_privileged_user</text>
<text text-anchor="start" x="569.0219" y="-367.8" font-family="Helvetica,sans-Serif" font-size="11.00" fill="#000000">[table]</text>
<polygon fill="none" stroke="#000000" points="370.5,-337.7 370.5,-359.7 603.5,-359.7 603.5,-337.7 370.5,-337.7"/>
<image xlink:href="../../images/primaryKeys.png" width="11px" height="12px" preserveAspectRatio="xMinYMin meet" x="375.5" y="-354.7"/>
<text text-anchor="start" x="399.5" y="-344.8" font-family="Helvetica,sans-Serif" font-size="11.00" fill="#000000">alert_code_id</text>
<polygon fill="none" stroke="#000000" points="370.5,-315.7 370.5,-337.7 603.5,-337.7 603.5,-315.7 370.5,-315.7"/>
<image xlink:href="../../images/primaryKeys.png" width="11px" height="12px" preserveAspectRatio="xMinYMin meet" x="375.5" y="-332.7"/>
<text text-anchor="start" x="399.5" y="-322.8" font-family="Helvetica,sans-Serif" font-size="11.00" fill="#000000">username</text>
<polygon fill="#ffffff" stroke="transparent" points="370.5,-296.7 370.5,-315.7 603.5,-315.7 603.5,-296.7 370.5,-296.7"/>
<polygon fill="none" stroke="#000000" points="370.5,-296.7 370.5,-315.7 603.5,-315.7 603.5,-296.7 370.5,-296.7"/>
<polygon fill="#ffffff" stroke="transparent" points="371.5,-297.7 371.5,-314.7 454.5,-314.7 454.5,-297.7 371.5,-297.7"/>
<text text-anchor="start" x="373.5" y="-302.8" font-family="Helvetica,sans-Serif" font-size="11.00" fill="#000000">&lt; 1</text>
<polygon fill="#ffffff" stroke="transparent" points="454.5,-297.7 454.5,-314.7 528.5,-314.7 528.5,-297.7 454.5,-297.7"/>
<text text-anchor="start" x="488.4431" y="-302.8" font-family="Helvetica,sans-Serif" font-size="11.00" fill="#000000"> &#160;</text>
<polygon fill="#ffffff" stroke="transparent" points="528.5,-297.7 528.5,-314.7 602.5,-314.7 602.5,-297.7 528.5,-297.7"/>
<text text-anchor="start" x="594.3862" y="-302.8" font-family="Helvetica,sans-Serif" font-size="11.00" fill="#000000"> &#160;</text>
<polygon fill="#000000" stroke="#000000" points="454.5,-297.7 454.5,-314.7 454.5,-314.7 454.5,-297.7 454.5,-297.7"/>
<polygon fill="#000000" stroke="#000000" points="528.5,-297.7 528.5,-314.7 528.5,-314.7 528.5,-297.7 528.5,-297.7"/>
</a>
</g>
</g>
<!-- alert_code -->
<g id="node4" class="node">
<title>alert_code</title>
<g id="a_node4"><a xlink:href="../../tables/alert_code.html" xlink:title="alert_code" target="_top">
<polygon fill="#ffffff" stroke="transparent" points="189,-125.2 189,-318.2 321,-318.2 321,-125.2 189,-125.2"/>
<polygon fill="#f5f5f5" stroke="transparent" points="189,-294.7 189,-317.7 321,-317.7 321,-294.7 189,-294.7"/>
<polygon fill="none" stroke="#000000" points="189,-294.7 189,-317.7 321,-317.7 321,-294.7 189,-294.7"/>
<text text-anchor="start" x="194" y="-303.3" font-family="Helvetica,sans-Serif" font-weight="bold" font-size="11.00" fill="#000000">alert_code</text>
<text text-anchor="start" x="286.0437" y="-302.8" font-family="Helvetica,sans-Serif" font-size="11.00" fill="#000000">[table]</text>
<polygon fill="none" stroke="#000000" points="189,-272.7 189,-294.7 321,-294.7 321,-272.7 189,-272.7"/>
<image xlink:href="../../images/primaryKeys.png" width="11px" height="12px" preserveAspectRatio="xMinYMin meet" x="194" y="-289.7"/>
<text text-anchor="start" x="209" y="-279.8" font-family="Helvetica,sans-Serif" font-size="11.00" fill="#000000">alert_code_id</text>
<polygon fill="#ffffff" stroke="transparent" points="189,-250.7 189,-272.7 321,-272.7 321,-250.7 189,-250.7"/>
<polygon fill="none" stroke="#000000" points="189,-250.7 189,-272.7 321,-272.7 321,-250.7 189,-250.7"/>
<image xlink:href="../../images/foreignKeys.png" width="11px" height="12px" preserveAspectRatio="xMinYMin meet" x="194" y="-267.7"/>
<text text-anchor="start" x="209" y="-257.8" font-family="Helvetica,sans-Serif" font-size="11.00" fill="#000000">alert_type_id</text>
<polygon fill="#ffffff" stroke="transparent" points="189,-228.7 189,-250.7 321,-250.7 321,-228.7 189,-228.7"/>
<polygon fill="none" stroke="#000000" points="189,-228.7 189,-250.7 321,-250.7 321,-228.7 189,-228.7"/>
<text text-anchor="start" x="209" y="-235.8" font-family="Helvetica,sans-Serif" font-size="11.00" fill="#000000">code</text>
<polygon fill="#ffffff" stroke="transparent" points="189,-206.7 189,-228.7 321,-228.7 321,-206.7 189,-206.7"/>
<polygon fill="none" stroke="#000000" points="189,-206.7 189,-228.7 321,-228.7 321,-206.7 189,-206.7"/>
<text text-anchor="start" x="209" y="-213.8" font-family="Helvetica,sans-Serif" font-size="11.00" fill="#000000">list_sequence</text>
<polygon fill="#ffffff" stroke="transparent" points="189,-184.7 189,-206.7 321,-206.7 321,-184.7 189,-184.7"/>
<polygon fill="none" stroke="#000000" points="189,-184.7 189,-206.7 321,-206.7 321,-184.7 189,-184.7"/>
<text text-anchor="start" x="209" y="-191.8" font-family="Helvetica,sans-Serif" font-size="11.00" fill="#000000">created_at</text>
<polygon fill="#ffffff" stroke="transparent" points="189,-162.7 189,-184.7 321,-184.7 321,-162.7 189,-162.7"/>
<polygon fill="none" stroke="#000000" points="189,-162.7 189,-184.7 321,-184.7 321,-162.7 189,-162.7"/>
<text text-anchor="start" x="209" y="-169.8" font-family="Helvetica,sans-Serif" font-size="11.00" fill="#000000">deactivated_at</text>
<polygon fill="none" stroke="#000000" points="189,-143.7 189,-162.7 321,-162.7 321,-143.7 189,-143.7"/>
<text text-anchor="start" x="192" y="-149.8" font-family="Helvetica,sans-Serif" font-size="11.00" fill="#000000">...</text>
<polygon fill="#ffffff" stroke="transparent" points="189,-124.7 189,-143.7 321,-143.7 321,-124.7 189,-124.7"/>
<polygon fill="none" stroke="#000000" points="189,-124.7 189,-143.7 321,-143.7 321,-124.7 189,-124.7"/>
<polygon fill="#ffffff" stroke="transparent" points="190,-125.7 190,-142.7 224,-142.7 224,-125.7 190,-125.7"/>
<text text-anchor="start" x="192" y="-130.8" font-family="Helvetica,sans-Serif" font-size="11.00" fill="#000000">&lt; 1</text>
<polygon fill="#ffffff" stroke="transparent" points="224,-125.7 224,-142.7 287,-142.7 287,-125.7 224,-125.7"/>
<text text-anchor="start" x="233.1903" y="-130.8" font-family="Helvetica,sans-Serif" font-size="11.00" fill="#000000">213 rows</text>
<polygon fill="#ffffff" stroke="transparent" points="287,-125.7 287,-142.7 320,-142.7 320,-125.7 287,-125.7"/>
<text text-anchor="start" x="302.4053" y="-130.8" font-family="Helvetica,sans-Serif" font-size="11.00" fill="#000000">2 &gt;</text>
<polygon fill="#000000" stroke="#000000" points="224,-125.7 224,-142.7 224,-142.7 224,-125.7 224,-125.7"/>
<polygon fill="#000000" stroke="#000000" points="287,-125.7 287,-142.7 287,-142.7 287,-125.7 287,-125.7"/>
</a>
</g>
</g>
<!-- alert_code_privileged_user&#45;&gt;alert_code -->
<g id="edge3" class="edge">
<title>alert_code_privileged_user:w&#45;&gt;alert_code:e</title>
<path fill="none" stroke="#000000" d="M356.4404,-343.5996C340.381,-328.2764 351.0709,-283.7 321,-283.7"/>
<polygon fill="#000000" stroke="#000000" points="362.9796,-345.9717 369.2723,-352.0842 366.7398,-347.3359 370.5,-348.7 370.5,-348.7 370.5,-348.7 366.7398,-347.3359 371.7277,-345.3158 362.9796,-345.9717 362.9796,-345.9717"/>
<ellipse fill="none" stroke="#000000" cx="359.9714" cy="-344.8804" rx="3.2" ry="3.2"/>
</g>
<!-- audit_event -->
<g id="node3" class="node">
<title>audit_event</title>
<g id="a_node3"><a xlink:href="../../tables/audit_event.html" xlink:title="audit_event" target="_top">
<polygon fill="#ffffff" stroke="transparent" points="652,-170.2 652,-341.2 866,-341.2 866,-170.2 652,-170.2"/>
<polygon fill="#f5f5f5" stroke="transparent" points="652,-317.7 652,-340.7 866,-340.7 866,-317.7 652,-317.7"/>
<polygon fill="none" stroke="#000000" points="652,-317.7 652,-340.7 866,-340.7 866,-317.7 652,-317.7"/>
<text text-anchor="start" x="657" y="-326.3" font-family="Helvetica,sans-Serif" font-weight="bold" font-size="11.00" fill="#000000">audit_event</text>
<text text-anchor="start" x="831.0437" y="-325.8" font-family="Helvetica,sans-Serif" font-size="11.00" fill="#000000">[table]</text>
<polygon fill="#ffffff" stroke="transparent" points="652,-295.7 652,-317.7 866,-317.7 866,-295.7 652,-295.7"/>
<polygon fill="none" stroke="#000000" points="652,-295.7 652,-317.7 866,-317.7 866,-295.7 652,-295.7"/>
<text text-anchor="start" x="672" y="-302.8" font-family="Helvetica,sans-Serif" font-size="11.00" fill="#000000">action</text>
<polygon fill="#ffffff" stroke="transparent" points="652,-273.7 652,-295.7 866,-295.7 866,-273.7 652,-273.7"/>
<polygon fill="none" stroke="#000000" points="652,-273.7 652,-295.7 866,-295.7 866,-273.7 652,-273.7"/>
<text text-anchor="start" x="672" y="-280.8" font-family="Helvetica,sans-Serif" font-size="11.00" fill="#000000">actioned_at</text>
<polygon fill="#ffffff" stroke="transparent" points="652,-251.7 652,-273.7 866,-273.7 866,-251.7 652,-251.7"/>
<polygon fill="none" stroke="#000000" points="652,-251.7 652,-273.7 866,-273.7 866,-251.7 652,-251.7"/>
<text text-anchor="start" x="672" y="-258.8" font-family="Helvetica,sans-Serif" font-size="11.00" fill="#000000">actioned_by</text>
<polygon fill="#ffffff" stroke="transparent" points="652,-229.7 652,-251.7 866,-251.7 866,-229.7 652,-229.7"/>
<polygon fill="none" stroke="#000000" points="652,-229.7 652,-251.7 866,-251.7 866,-229.7 652,-229.7"/>
<image xlink:href="../../images/foreignKeys.png" width="11px" height="12px" preserveAspectRatio="xMinYMin meet" x="657" y="-246.7"/>
<text text-anchor="start" x="672" y="-236.8" font-family="Helvetica,sans-Serif" font-size="11.00" fill="#000000">alert_id</text>
<polygon fill="none" stroke="#000000" points="652,-207.7 652,-229.7 866,-229.7 866,-207.7 652,-207.7"/>
<image xlink:href="../../images/primaryKeys.png" width="11px" height="12px" preserveAspectRatio="xMinYMin meet" x="657" y="-224.7"/>
<text text-anchor="start" x="672" y="-214.8" font-family="Helvetica,sans-Serif" font-size="11.00" fill="#000000">id</text>
<polygon fill="none" stroke="#000000" points="652,-188.7 652,-207.7 866,-207.7 866,-188.7 652,-188.7"/>
<text text-anchor="start" x="655" y="-194.8" font-family="Helvetica,sans-Serif" font-size="11.00" fill="#000000">...</text>
<polygon fill="#ffffff" stroke="transparent" points="652,-169.7 652,-188.7 866,-188.7 866,-169.7 652,-169.7"/>
<polygon fill="none" stroke="#000000" points="652,-169.7 652,-188.7 866,-188.7 866,-169.7 652,-169.7"/>
<polygon fill="#ffffff" stroke="transparent" points="653,-170.7 653,-187.7 730,-187.7 730,-170.7 653,-170.7"/>
<text text-anchor="start" x="655" y="-175.8" font-family="Helvetica,sans-Serif" font-size="11.00" fill="#000000">&lt; 1</text>
<polygon fill="#ffffff" stroke="transparent" points="730,-170.7 730,-187.7 798,-187.7 798,-170.7 730,-170.7"/>
<text text-anchor="start" x="760.9431" y="-175.8" font-family="Helvetica,sans-Serif" font-size="11.00" fill="#000000"> &#160;</text>
<polygon fill="#ffffff" stroke="transparent" points="798,-170.7 798,-187.7 865,-187.7 865,-170.7 798,-170.7"/>
<text text-anchor="start" x="856.8862" y="-175.8" font-family="Helvetica,sans-Serif" font-size="11.00" fill="#000000"> &#160;</text>
<polygon fill="#000000" stroke="#000000" points="730,-170.7 730,-187.7 730,-187.7 730,-170.7 730,-170.7"/>
<polygon fill="#000000" stroke="#000000" points="798,-170.7 798,-187.7 798,-187.7 798,-170.7 798,-170.7"/>
</a>
</g>
</g>
<!-- alert -->
<g id="node5" class="node">
<title>alert</title>
<g id="a_node5"><a xlink:href="../../tables/alert.html" xlink:title="alert" target="_top">
<polygon fill="#ffffff" stroke="transparent" points="378.5,-38.2 378.5,-275.2 594.5,-275.2 594.5,-38.2 378.5,-38.2"/>
<polygon fill="#f5f5f5" stroke="transparent" points="378.5,-251.7 378.5,-274.7 594.5,-274.7 594.5,-251.7 378.5,-251.7"/>
<polygon fill="none" stroke="#000000" points="378.5,-251.7 378.5,-274.7 594.5,-274.7 594.5,-251.7 378.5,-251.7"/>
<text text-anchor="start" x="383.5" y="-260.3" font-family="Helvetica,sans-Serif" font-weight="bold" font-size="11.00" fill="#000000">alert</text>
<text text-anchor="start" x="559.5437" y="-259.8" font-family="Helvetica,sans-Serif" font-size="11.00" fill="#000000">[table]</text>
<polygon fill="none" stroke="#000000" points="378.5,-229.7 378.5,-251.7 594.5,-251.7 594.5,-229.7 378.5,-229.7"/>
<image xlink:href="../../images/primaryKeys.png" width="11px" height="12px" preserveAspectRatio="xMinYMin meet" x="383.5" y="-246.7"/>
<text text-anchor="start" x="398.5" y="-236.8" font-family="Helvetica,sans-Serif" font-size="11.00" fill="#000000">id</text>
<polygon fill="#ffffff" stroke="transparent" points="378.5,-207.7 378.5,-229.7 594.5,-229.7 594.5,-207.7 378.5,-207.7"/>
<polygon fill="none" stroke="#000000" points="378.5,-207.7 378.5,-229.7 594.5,-229.7 594.5,-207.7 378.5,-207.7"/>
<image xlink:href="../../images/foreignKeys.png" width="11px" height="12px" preserveAspectRatio="xMinYMin meet" x="383.5" y="-224.7"/>
<text text-anchor="start" x="398.5" y="-214.8" font-family="Helvetica,sans-Serif" font-size="11.00" fill="#000000">alert_code_id</text>
<polygon fill="#ffffff" stroke="transparent" points="378.5,-185.7 378.5,-207.7 594.5,-207.7 594.5,-185.7 378.5,-185.7"/>
<polygon fill="none" stroke="#000000" points="378.5,-185.7 378.5,-207.7 594.5,-207.7 594.5,-185.7 378.5,-185.7"/>
<image xlink:href="../../images/foreignKeys.png" width="11px" height="12px" preserveAspectRatio="xMinYMin meet" x="383.5" y="-202.7"/>
<text text-anchor="start" x="398.5" y="-192.8" font-family="Helvetica,sans-Serif" font-size="11.00" fill="#000000">prison_number</text>
<polygon fill="#ffffff" stroke="transparent" points="378.5,-163.7 378.5,-185.7 594.5,-185.7 594.5,-163.7 378.5,-163.7"/>
<polygon fill="none" stroke="#000000" points="378.5,-163.7 378.5,-185.7 594.5,-185.7 594.5,-163.7 378.5,-163.7"/>
<text text-anchor="start" x="398.5" y="-170.8" font-family="Helvetica,sans-Serif" font-size="11.00" fill="#000000">active_from</text>
<polygon fill="#ffffff" stroke="transparent" points="378.5,-141.7 378.5,-163.7 594.5,-163.7 594.5,-141.7 378.5,-141.7"/>
<polygon fill="none" stroke="#000000" points="378.5,-141.7 378.5,-163.7 594.5,-163.7 594.5,-141.7 378.5,-141.7"/>
<text text-anchor="start" x="398.5" y="-148.8" font-family="Helvetica,sans-Serif" font-size="11.00" fill="#000000">active_to</text>
<polygon fill="#ffffff" stroke="transparent" points="378.5,-119.7 378.5,-141.7 594.5,-141.7 594.5,-119.7 378.5,-119.7"/>
<polygon fill="none" stroke="#000000" points="378.5,-119.7 378.5,-141.7 594.5,-141.7 594.5,-119.7 378.5,-119.7"/>
<text text-anchor="start" x="398.5" y="-126.8" font-family="Helvetica,sans-Serif" font-size="11.00" fill="#000000">deleted_at</text>
<polygon fill="#ffffff" stroke="transparent" points="378.5,-97.7 378.5,-119.7 594.5,-119.7 594.5,-97.7 378.5,-97.7"/>
<polygon fill="none" stroke="#000000" points="378.5,-97.7 378.5,-119.7 594.5,-119.7 594.5,-97.7 378.5,-97.7"/>
<text text-anchor="start" x="398.5" y="-104.8" font-family="Helvetica,sans-Serif" font-size="11.00" fill="#000000">created_at</text>
<polygon fill="#ffffff" stroke="transparent" points="378.5,-75.7 378.5,-97.7 594.5,-97.7 594.5,-75.7 378.5,-75.7"/>
<polygon fill="none" stroke="#000000" points="378.5,-75.7 378.5,-97.7 594.5,-97.7 594.5,-75.7 378.5,-75.7"/>
<text text-anchor="start" x="398.5" y="-82.8" font-family="Helvetica,sans-Serif" font-size="11.00" fill="#000000">last_modified_at</text>
<polygon fill="none" stroke="#000000" points="378.5,-56.7 378.5,-75.7 594.5,-75.7 594.5,-56.7 378.5,-56.7"/>
<text text-anchor="start" x="381.5" y="-62.8" font-family="Helvetica,sans-Serif" font-size="11.00" fill="#000000">...</text>
<polygon fill="#ffffff" stroke="transparent" points="378.5,-37.7 378.5,-56.7 594.5,-56.7 594.5,-37.7 378.5,-37.7"/>
<polygon fill="none" stroke="#000000" points="378.5,-37.7 378.5,-56.7 594.5,-56.7 594.5,-37.7 378.5,-37.7"/>
<polygon fill="#ffffff" stroke="transparent" points="379.5,-38.7 379.5,-55.7 454.5,-55.7 454.5,-38.7 379.5,-38.7"/>
<text text-anchor="start" x="381.5" y="-43.8" font-family="Helvetica,sans-Serif" font-size="11.00" fill="#000000">&lt; 1</text>
<polygon fill="#ffffff" stroke="transparent" points="454.5,-38.7 454.5,-55.7 519.5,-55.7 519.5,-38.7 454.5,-38.7"/>
<text text-anchor="start" x="483.9431" y="-43.8" font-family="Helvetica,sans-Serif" font-size="11.00" fill="#000000"> &#160;</text>
<polygon fill="#ffffff" stroke="transparent" points="519.5,-38.7 519.5,-55.7 593.5,-55.7 593.5,-38.7 519.5,-38.7"/>
<text text-anchor="start" x="575.9053" y="-43.8" font-family="Helvetica,sans-Serif" font-size="11.00" fill="#000000">1 &gt;</text>
<polygon fill="#000000" stroke="#000000" points="454.5,-38.7 454.5,-55.7 454.5,-55.7 454.5,-38.7 454.5,-38.7"/>
<polygon fill="#000000" stroke="#000000" points="519.5,-38.7 519.5,-55.7 519.5,-55.7 519.5,-38.7 519.5,-38.7"/>
</a>
</g>
</g>
<!-- audit_event&#45;&gt;alert -->
<g id="edge4" class="edge">
<title>audit_event:w&#45;&gt;alert:e</title>
<path fill="none" stroke="#000000" d="M637.5794,-240.7C622.7322,-240.7 614.4653,-240.7 594.5,-240.7"/>
<polygon fill="#000000" stroke="#000000" points="644,-240.7001 652,-244.3 648,-240.7 652,-240.7 652,-240.7 652,-240.7 648,-240.7 652,-237.1 644,-240.7001 644,-240.7001"/>
<ellipse fill="none" stroke="#000000" cx="640.8" cy="-240.7001" rx="3.2" ry="3.2"/>
</g>
<!-- alert_type -->
<g id="node8" class="node">
<title>alert_type</title>
<g id="a_node8"><a xlink:href="../../tables/alert_type.html" xlink:title="alert_type" target="_top">
<polygon fill="#ffffff" stroke="transparent" points="8,-125.2 8,-296.2 140,-296.2 140,-125.2 8,-125.2"/>
<polygon fill="#f5f5f5" stroke="transparent" points="8,-272.7 8,-295.7 140,-295.7 140,-272.7 8,-272.7"/>
<polygon fill="none" stroke="#000000" points="8,-272.7 8,-295.7 140,-295.7 140,-272.7 8,-272.7"/>
<text text-anchor="start" x="13" y="-281.3" font-family="Helvetica,sans-Serif" font-weight="bold" font-size="11.00" fill="#000000">alert_type</text>
<text text-anchor="start" x="105.0437" y="-280.8" font-family="Helvetica,sans-Serif" font-size="11.00" fill="#000000">[table]</text>
<polygon fill="none" stroke="#000000" points="8,-250.7 8,-272.7 140,-272.7 140,-250.7 8,-250.7"/>
<image xlink:href="../../images/primaryKeys.png" width="11px" height="12px" preserveAspectRatio="xMinYMin meet" x="13" y="-267.7"/>
<text text-anchor="start" x="28" y="-257.8" font-family="Helvetica,sans-Serif" font-size="11.00" fill="#000000">alert_type_id</text>
<polygon fill="#ffffff" stroke="transparent" points="8,-228.7 8,-250.7 140,-250.7 140,-228.7 8,-228.7"/>
<polygon fill="none" stroke="#000000" points="8,-228.7 8,-250.7 140,-250.7 140,-228.7 8,-228.7"/>
<text text-anchor="start" x="28" y="-235.8" font-family="Helvetica,sans-Serif" font-size="11.00" fill="#000000">code</text>
<polygon fill="#ffffff" stroke="transparent" points="8,-206.7 8,-228.7 140,-228.7 140,-206.7 8,-206.7"/>
<polygon fill="none" stroke="#000000" points="8,-206.7 8,-228.7 140,-228.7 140,-206.7 8,-206.7"/>
<text text-anchor="start" x="28" y="-213.8" font-family="Helvetica,sans-Serif" font-size="11.00" fill="#000000">list_sequence</text>
<polygon fill="#ffffff" stroke="transparent" points="8,-184.7 8,-206.7 140,-206.7 140,-184.7 8,-184.7"/>
<polygon fill="none" stroke="#000000" points="8,-184.7 8,-206.7 140,-206.7 140,-184.7 8,-184.7"/>
<text text-anchor="start" x="28" y="-191.8" font-family="Helvetica,sans-Serif" font-size="11.00" fill="#000000">created_at</text>
<polygon fill="#ffffff" stroke="transparent" points="8,-162.7 8,-184.7 140,-184.7 140,-162.7 8,-162.7"/>
<polygon fill="none" stroke="#000000" points="8,-162.7 8,-184.7 140,-184.7 140,-162.7 8,-162.7"/>
<text text-anchor="start" x="28" y="-169.8" font-family="Helvetica,sans-Serif" font-size="11.00" fill="#000000">deactivated_at</text>
<polygon fill="none" stroke="#000000" points="8,-143.7 8,-162.7 140,-162.7 140,-143.7 8,-143.7"/>
<text text-anchor="start" x="11" y="-149.8" font-family="Helvetica,sans-Serif" font-size="11.00" fill="#000000">...</text>
<polygon fill="#ffffff" stroke="transparent" points="8,-124.7 8,-143.7 140,-143.7 140,-124.7 8,-124.7"/>
<polygon fill="none" stroke="#000000" points="8,-124.7 8,-143.7 140,-143.7 140,-124.7 8,-124.7"/>
<polygon fill="#ffffff" stroke="transparent" points="9,-125.7 9,-142.7 50,-142.7 50,-125.7 9,-125.7"/>
<text text-anchor="start" x="11" y="-130.8" font-family="Helvetica,sans-Serif" font-size="11.00" fill="#000000"> &#160;</text>
<polygon fill="#ffffff" stroke="transparent" points="50,-125.7 50,-142.7 90,-142.7 90,-125.7 50,-125.7"/>
<text text-anchor="start" x="66.9431" y="-130.8" font-family="Helvetica,sans-Serif" font-size="11.00" fill="#000000"> &#160;</text>
<polygon fill="#ffffff" stroke="transparent" points="90,-125.7 90,-142.7 139,-142.7 139,-125.7 90,-125.7"/>
<text text-anchor="start" x="121.4053" y="-130.8" font-family="Helvetica,sans-Serif" font-size="11.00" fill="#000000">1 &gt;</text>
<polygon fill="#000000" stroke="#000000" points="50,-125.7 50,-142.7 50,-142.7 50,-125.7 50,-125.7"/>
<polygon fill="#000000" stroke="#000000" points="90,-125.7 90,-142.7 90,-142.7 90,-125.7 90,-125.7"/>
</a>
</g>
</g>
<!-- alert_code&#45;&gt;alert_type -->
<g id="edge2" class="edge">
<title>alert_code:w&#45;&gt;alert_type:e</title>
<path fill="none" stroke="#000000" d="M174.4909,-261.7C163.1774,-261.7 155.9931,-261.7 140,-261.7"/>
<polygon fill="#000000" stroke="#000000" points="181,-261.7001 189,-265.3 185,-261.7 189,-261.7 189,-261.7 189,-261.7 185,-261.7 189,-258.1 181,-261.7001 181,-261.7001"/>
<ellipse fill="none" stroke="#000000" cx="177.8" cy="-261.7001" rx="3.2" ry="3.2"/>
</g>
<!-- alert&#45;&gt;alert_code -->
<g id="edge1" class="edge">
<title>alert:w&#45;&gt;alert_code:e</title>
<path fill="none" stroke="#000000" d="M364.5136,-222.766C344.563,-236.9961 353.6942,-283.7 321,-283.7"/>
<polygon fill="#000000" stroke="#000000" points="370.818,-220.9333 379.505,-222.1569 374.659,-219.8166 378.5,-218.7 378.5,-218.7 378.5,-218.7 374.659,-219.8166 377.495,-215.2431 370.818,-220.9333 370.818,-220.9333"/>
<ellipse fill="none" stroke="#000000" cx="367.7452" cy="-221.8266" rx="3.2" ry="3.2"/>
</g>
<!-- bulk_plan -->
<g id="node6" class="node">
<title>bulk_plan</title>
<g id="a_node6"><a xlink:href="../../tables/bulk_plan.html" xlink:title="bulk_plan" target="_top">
<polygon fill="#ffffff" stroke="transparent" points="218,-562.2 218,-645.2 425,-645.2 425,-562.2 218,-562.2"/>
<polygon fill="#f5f5f5" stroke="transparent" points="218.5,-621.7 218.5,-644.7 425.5,-644.7 425.5,-621.7 218.5,-621.7"/>
<polygon fill="none" stroke="#000000" points="218.5,-621.7 218.5,-644.7 425.5,-644.7 425.5,-621.7 218.5,-621.7"/>
<text text-anchor="start" x="223.5" y="-630.3" font-family="Helvetica,sans-Serif" font-weight="bold" font-size="11.00" fill="#000000">bulk_plan</text>
<text text-anchor="start" x="390.5437" y="-629.8" font-family="Helvetica,sans-Serif" font-size="11.00" fill="#000000">[table]</text>
<polygon fill="none" stroke="#000000" points="218.5,-599.7 218.5,-621.7 425.5,-621.7 425.5,-599.7 218.5,-599.7"/>
<image xlink:href="../../images/primaryKeys.png" width="11px" height="12px" preserveAspectRatio="xMinYMin meet" x="223.5" y="-616.7"/>
<text text-anchor="start" x="238.5" y="-606.8" font-family="Helvetica,sans-Serif" font-size="11.00" fill="#000000">id</text>
<polygon fill="none" stroke="#000000" points="218.5,-580.7 218.5,-599.7 425.5,-599.7 425.5,-580.7 218.5,-580.7"/>
<text text-anchor="start" x="221.5" y="-586.8" font-family="Helvetica,sans-Serif" font-size="11.00" fill="#000000">...</text>
<polygon fill="#ffffff" stroke="transparent" points="218.5,-561.7 218.5,-580.7 425.5,-580.7 425.5,-561.7 218.5,-561.7"/>
<polygon fill="none" stroke="#000000" points="218.5,-561.7 218.5,-580.7 425.5,-580.7 425.5,-561.7 218.5,-561.7"/>
<polygon fill="#ffffff" stroke="transparent" points="219.5,-562.7 219.5,-579.7 285.5,-579.7 285.5,-562.7 219.5,-562.7"/>
<text text-anchor="start" x="221.5" y="-567.8" font-family="Helvetica,sans-Serif" font-size="11.00" fill="#000000"> &#160;</text>
<polygon fill="#ffffff" stroke="transparent" points="285.5,-562.7 285.5,-579.7 350.5,-579.7 350.5,-562.7 285.5,-562.7"/>
<text text-anchor="start" x="314.9431" y="-567.8" font-family="Helvetica,sans-Serif" font-size="11.00" fill="#000000"> &#160;</text>
<polygon fill="#ffffff" stroke="transparent" points="350.5,-562.7 350.5,-579.7 424.5,-579.7 424.5,-562.7 350.5,-562.7"/>
<text text-anchor="start" x="406.9053" y="-567.8" font-family="Helvetica,sans-Serif" font-size="11.00" fill="#000000">1 &gt;</text>
<polygon fill="#000000" stroke="#000000" points="285.5,-562.7 285.5,-579.7 285.5,-579.7 285.5,-562.7 285.5,-562.7"/>
<polygon fill="#000000" stroke="#000000" points="350.5,-562.7 350.5,-579.7 350.5,-579.7 350.5,-562.7 350.5,-562.7"/>
</a>
</g>
</g>
<!-- plan_person -->
<g id="node7" class="node">
<title>plan_person</title>
<g id="a_node7"><a xlink:href="../../tables/plan_person.html" xlink:title="plan_person" target="_top">
<polygon fill="#ffffff" stroke="transparent" points="474,-517.7 474,-603.7 604,-603.7 604,-517.7 474,-517.7"/>
<polygon fill="#f5f5f5" stroke="transparent" points="474,-580.7 474,-603.7 604,-603.7 604,-580.7 474,-580.7"/>
<polygon fill="none" stroke="#000000" points="474,-580.7 474,-603.7 604,-603.7 604,-580.7 474,-580.7"/>
<text text-anchor="start" x="479" y="-589.3" font-family="Helvetica,sans-Serif" font-weight="bold" font-size="11.00" fill="#000000">plan_person</text>
<text text-anchor="start" x="569.0437" y="-588.8" font-family="Helvetica,sans-Serif" font-size="11.00" fill="#000000">[table]</text>
<polygon fill="none" stroke="#000000" points="474,-558.7 474,-580.7 604,-580.7 604,-558.7 474,-558.7"/>
<image xlink:href="../../images/foreignKeys.png" width="11px" height="12px" preserveAspectRatio="xMinYMin meet" x="479" y="-575.7"/>
<text text-anchor="start" x="494" y="-565.8" font-family="Helvetica,sans-Serif" font-size="11.00" fill="#000000">plan_id</text>
<polygon fill="none" stroke="#000000" points="474,-536.7 474,-558.7 604,-558.7 604,-536.7 474,-536.7"/>
<image xlink:href="../../images/foreignKeys.png" width="11px" height="12px" preserveAspectRatio="xMinYMin meet" x="479" y="-553.7"/>
<text text-anchor="start" x="494" y="-543.8" font-family="Helvetica,sans-Serif" font-size="11.00" fill="#000000">prison_number</text>
<polygon fill="#ffffff" stroke="transparent" points="474,-517.7 474,-536.7 604,-536.7 604,-517.7 474,-517.7"/>
<polygon fill="none" stroke="#000000" points="474,-517.7 474,-536.7 604,-536.7 604,-517.7 474,-517.7"/>
<polygon fill="#ffffff" stroke="transparent" points="475,-518.7 475,-535.7 524,-535.7 524,-518.7 475,-518.7"/>
<text text-anchor="start" x="477" y="-523.8" font-family="Helvetica,sans-Serif" font-size="11.00" fill="#000000">&lt; 2</text>
<polygon fill="#ffffff" stroke="transparent" points="524,-518.7 524,-535.7 564,-535.7 564,-518.7 524,-518.7"/>
<text text-anchor="start" x="540.9431" y="-523.8" font-family="Helvetica,sans-Serif" font-size="11.00" fill="#000000"> &#160;</text>
<polygon fill="#ffffff" stroke="transparent" points="564,-518.7 564,-535.7 603,-535.7 603,-518.7 564,-518.7"/>
<text text-anchor="start" x="594.8862" y="-523.8" font-family="Helvetica,sans-Serif" font-size="11.00" fill="#000000"> &#160;</text>
<polygon fill="#000000" stroke="#000000" points="524,-518.7 524,-535.7 524,-535.7 524,-518.7 524,-518.7"/>
<polygon fill="#000000" stroke="#000000" points="564,-518.7 564,-535.7 564,-535.7 564,-518.7 564,-518.7"/>
</a>
</g>
</g>
<!-- plan_person&#45;&gt;bulk_plan -->
<g id="edge5" class="edge">
<title>plan_person:w&#45;&gt;bulk_plan:e</title>
<path fill="none" stroke="#000000" d="M460.2884,-574.4032C447.5191,-585.1726 447.7719,-610.7 425.5,-610.7"/>
<polygon fill="#000000" stroke="#000000" points="466.4328,-572.2957 475.1681,-573.1052 470.2164,-570.9978 474,-569.7 474,-569.7 474,-569.7 470.2164,-570.9978 472.8319,-566.2948 466.4328,-572.2957 466.4328,-572.2957"/>
<ellipse fill="none" stroke="#000000" cx="463.4059" cy="-573.3339" rx="3.2" ry="3.2"/>
</g>
<!-- person_summary -->
<g id="node9" class="node">
<title>person_summary</title>
<g id="a_node9"><a xlink:href="../../tables/person_summary.html" xlink:title="person_summary" target="_top">
<polygon fill="#ffffff" stroke="transparent" points="224,-458.2 224,-541.2 419,-541.2 419,-458.2 224,-458.2"/>
<polygon fill="#f5f5f5" stroke="transparent" points="224.5,-517.7 224.5,-540.7 419.5,-540.7 419.5,-517.7 224.5,-517.7"/>
<polygon fill="none" stroke="#000000" points="224.5,-517.7 224.5,-540.7 419.5,-540.7 419.5,-517.7 224.5,-517.7"/>
<text text-anchor="start" x="229.5" y="-526.3" font-family="Helvetica,sans-Serif" font-weight="bold" font-size="11.00" fill="#000000">person_summary</text>
<text text-anchor="start" x="384.5437" y="-525.8" font-family="Helvetica,sans-Serif" font-size="11.00" fill="#000000">[table]</text>
<polygon fill="none" stroke="#000000" points="224.5,-495.7 224.5,-517.7 419.5,-517.7 419.5,-495.7 224.5,-495.7"/>
<image xlink:href="../../images/primaryKeys.png" width="11px" height="12px" preserveAspectRatio="xMinYMin meet" x="229.5" y="-512.7"/>
<text text-anchor="start" x="244.5" y="-502.8" font-family="Helvetica,sans-Serif" font-size="11.00" fill="#000000">prison_number</text>
<polygon fill="none" stroke="#000000" points="224.5,-476.7 224.5,-495.7 419.5,-495.7 419.5,-476.7 224.5,-476.7"/>
<text text-anchor="start" x="227.5" y="-482.8" font-family="Helvetica,sans-Serif" font-size="11.00" fill="#000000">...</text>
<polygon fill="#ffffff" stroke="transparent" points="224.5,-457.7 224.5,-476.7 419.5,-476.7 419.5,-457.7 224.5,-457.7"/>
<polygon fill="none" stroke="#000000" points="224.5,-457.7 224.5,-476.7 419.5,-476.7 419.5,-457.7 224.5,-457.7"/>
<polygon fill="#ffffff" stroke="transparent" points="225.5,-458.7 225.5,-475.7 287.5,-475.7 287.5,-458.7 225.5,-458.7"/>
<text text-anchor="start" x="227.5" y="-463.8" font-family="Helvetica,sans-Serif" font-size="11.00" fill="#000000"> &#160;</text>
<polygon fill="#ffffff" stroke="transparent" points="287.5,-458.7 287.5,-475.7 348.5,-475.7 348.5,-458.7 287.5,-458.7"/>
<text text-anchor="start" x="314.9431" y="-463.8" font-family="Helvetica,sans-Serif" font-size="11.00" fill="#000000"> &#160;</text>
<polygon fill="#ffffff" stroke="transparent" points="348.5,-458.7 348.5,-475.7 418.5,-475.7 418.5,-458.7 348.5,-458.7"/>
<text text-anchor="start" x="400.9053" y="-463.8" font-family="Helvetica,sans-Serif" font-size="11.00" fill="#000000">1 &gt;</text>
<polygon fill="#000000" stroke="#000000" points="287.5,-458.7 287.5,-475.7 287.5,-475.7 287.5,-458.7 287.5,-458.7"/>
<polygon fill="#000000" stroke="#000000" points="348.5,-458.7 348.5,-475.7 348.5,-475.7 348.5,-458.7 348.5,-458.7"/>
</a>
</g>
</g>
<!-- plan_person&#45;&gt;person_summary -->
<g id="edge6" class="edge">
<title>plan_person:w&#45;&gt;person_summary:e</title>
<path fill="none" stroke="#000000" d="M459.8661,-543.6189C444.6905,-533.2484 443.891,-506.7 419.5,-506.7"/>
<polygon fill="#000000" stroke="#000000" points="466.314,-545.4806 473.0013,-551.1587 470.157,-546.5903 474,-547.7 474,-547.7 474,-547.7 470.157,-546.5903 474.9987,-544.2413 466.314,-545.4806 466.314,-545.4806"/>
<ellipse fill="none" stroke="#000000" cx="463.2396" cy="-544.5929" rx="3.2" ry="3.2"/>
</g>
</g>
</svg>
