<?xml version="1.0" encoding="UTF-8" standalone="no"?>
<!DOCTYPE svg PUBLIC "-//W3C//DTD SVG 1.1//EN"
 "http://www.w3.org/Graphics/SVG/1.1/DTD/svg11.dtd">
<!-- Generated by graphviz version 2.40.1 (20161225.0304)
 -->
<!-- Title: largeImpliedRelationshipsDiagram Pages: 1 -->
<svg width="895pt" height="1296pt"
 viewBox="0.00 0.00 895.00 1296.20" xmlns="http://www.w3.org/2000/svg" xmlns:xlink="http://www.w3.org/1999/xlink">
<g id="graph0" class="graph" transform="scale(1 1) rotate(0) translate(4 1292.2)">
<title>largeImpliedRelationshipsDiagram</title>
<polygon fill="#ffffff" stroke="transparent" points="-4,4 -4,-1292.2 891,-1292.2 891,4 -4,4"/>
<text text-anchor="middle" x="72.4936" y="-7.3" font-family="Helvetica,sans-Serif" font-size="11.00" fill="#000000">Generated by SchemaSpy</text>
<!-- resync_audit -->
<g id="node1" class="node">
<title>resync_audit</title>
<g id="a_node1"><a xlink:href="../../tables/resync_audit.html" xlink:title="resync_audit" target="_top">
<polygon fill="#ffffff" stroke="transparent" points="421,-453.2 421,-715.2 631,-715.2 631,-453.2 421,-453.2"/>
<polygon fill="#f5f5f5" stroke="transparent" points="421,-692.2 421,-715.2 631,-715.2 631,-692.2 421,-692.2"/>
<polygon fill="none" stroke="#000000" points="421,-692.2 421,-715.2 631,-715.2 631,-692.2 421,-692.2"/>
<text text-anchor="start" x="426" y="-700.8" font-family="Helvetica,sans-Serif" font-weight="bold" font-size="11.00" fill="#000000">resync_audit</text>
<text text-anchor="start" x="596.0437" y="-700.3" font-family="Helvetica,sans-Serif" font-size="11.00" fill="#000000">[table]</text>
<polygon fill="none" stroke="#000000" points="421,-670.2 421,-692.2 631,-692.2 631,-670.2 421,-670.2"/>
<image xlink:href="../../images/primaryKeys.png" width="11px" height="12px" preserveAspectRatio="xMinYMin meet" x="426" y="-687.2"/>
<text text-anchor="start" x="441" y="-677.3" font-family="Helvetica,sans-Serif" font-size="11.00" fill="#000000">id</text>
<polygon fill="#ffffff" stroke="transparent" points="421,-648.2 421,-670.2 631,-670.2 631,-648.2 421,-648.2"/>
<polygon fill="none" stroke="#000000" points="421,-648.2 421,-670.2 631,-670.2 631,-648.2 421,-648.2"/>
<image xlink:href="../../images/foreignKeys.png" width="11px" height="12px" preserveAspectRatio="xMinYMin meet" x="426" y="-665.2"/>
<text text-anchor="start" x="441" y="-655.3" font-family="Helvetica,sans-Serif" font-size="11.00" fill="#000000">prison_number</text>
<polygon fill="none" stroke="#000000" points="421,-626.2 421,-648.2 631,-648.2 631,-626.2 421,-626.2"/>
<text text-anchor="start" x="441" y="-633.3" font-family="Helvetica,sans-Serif" font-size="11.00" fill="#000000">request</text>
<polygon fill="none" stroke="#000000" points="421,-604.2 421,-626.2 631,-626.2 631,-604.2 421,-604.2"/>
<text text-anchor="start" x="441" y="-611.3" font-family="Helvetica,sans-Serif" font-size="11.00" fill="#000000">requested_at</text>
<polygon fill="none" stroke="#000000" points="421,-582.2 421,-604.2 631,-604.2 631,-582.2 421,-582.2"/>
<text text-anchor="start" x="441" y="-589.3" font-family="Helvetica,sans-Serif" font-size="11.00" fill="#000000">requested_by</text>
<polygon fill="none" stroke="#000000" points="421,-560.2 421,-582.2 631,-582.2 631,-560.2 421,-560.2"/>
<text text-anchor="start" x="441" y="-567.3" font-family="Helvetica,sans-Serif" font-size="11.00" fill="#000000">requested_by_display_name</text>
<polygon fill="none" stroke="#000000" points="421,-538.2 421,-560.2 631,-560.2 631,-538.2 421,-538.2"/>
<text text-anchor="start" x="441" y="-545.3" font-family="Helvetica,sans-Serif" font-size="11.00" fill="#000000">source</text>
<polygon fill="none" stroke="#000000" points="421,-516.2 421,-538.2 631,-538.2 631,-516.2 421,-516.2"/>
<text text-anchor="start" x="441" y="-523.3" font-family="Helvetica,sans-Serif" font-size="11.00" fill="#000000">completed_at</text>
<polygon fill="none" stroke="#000000" points="421,-494.2 421,-516.2 631,-516.2 631,-494.2 421,-494.2"/>
<text text-anchor="start" x="441" y="-501.3" font-family="Helvetica,sans-Serif" font-size="11.00" fill="#000000">alerts_deleted</text>
<polygon fill="none" stroke="#000000" points="421,-472.2 421,-494.2 631,-494.2 631,-472.2 421,-472.2"/>
<text text-anchor="start" x="441" y="-479.3" font-family="Helvetica,sans-Serif" font-size="11.00" fill="#000000">alerts_created</text>
<polygon fill="#ffffff" stroke="transparent" points="421,-453.2 421,-472.2 520,-472.2 520,-453.2 421,-453.2"/>
<polygon fill="none" stroke="#000000" points="421,-453.2 421,-472.2 520,-472.2 520,-453.2 421,-453.2"/>
<text text-anchor="start" x="424" y="-459.3" font-family="Helvetica,sans-Serif" font-size="11.00" fill="#000000"> &#160;</text>
<polygon fill="#ffffff" stroke="transparent" points="520,-453.2 520,-472.2 575,-472.2 575,-453.2 520,-453.2"/>
<polygon fill="none" stroke="#000000" points="520,-453.2 520,-472.2 575,-472.2 575,-453.2 520,-453.2"/>
<text text-anchor="start" x="565.8862" y="-459.3" font-family="Helvetica,sans-Serif" font-size="11.00" fill="#000000"> &#160;</text>
<polygon fill="#ffffff" stroke="transparent" points="575,-453.2 575,-472.2 631,-472.2 631,-453.2 575,-453.2"/>
<polygon fill="none" stroke="#000000" points="575,-453.2 575,-472.2 631,-472.2 631,-453.2 575,-453.2"/>
<text text-anchor="start" x="621.8862" y="-459.3" font-family="Helvetica,sans-Serif" font-size="11.00" fill="#000000"> &#160;</text>
</a>
</g>
</g>
<!-- person_summary -->
<g id="node8" class="node">
<title>person_summary</title>
<g id="a_node8"><a xlink:href="../../tables/person_summary.html" xlink:title="person_summary" target="_top">
<polygon fill="#ffffff" stroke="transparent" points="185.5,-453.2 185.5,-693.2 366.5,-693.2 366.5,-453.2 185.5,-453.2"/>
<polygon fill="#f5f5f5" stroke="transparent" points="186,-670.2 186,-693.2 367,-693.2 367,-670.2 186,-670.2"/>
<polygon fill="none" stroke="#000000" points="186,-670.2 186,-693.2 367,-693.2 367,-670.2 186,-670.2"/>
<text text-anchor="start" x="191" y="-678.8" font-family="Helvetica,sans-Serif" font-weight="bold" font-size="11.00" fill="#000000">person_summary</text>
<text text-anchor="start" x="332.0437" y="-678.3" font-family="Helvetica,sans-Serif" font-size="11.00" fill="#000000">[table]</text>
<polygon fill="none" stroke="#000000" points="186,-648.2 186,-670.2 367,-670.2 367,-648.2 186,-648.2"/>
<image xlink:href="../../images/primaryKeys.png" width="11px" height="12px" preserveAspectRatio="xMinYMin meet" x="191" y="-665.2"/>
<text text-anchor="start" x="206" y="-655.3" font-family="Helvetica,sans-Serif" font-size="11.00" fill="#000000">prison_number</text>
<polygon fill="none" stroke="#000000" points="186,-626.2 186,-648.2 367,-648.2 367,-626.2 186,-626.2"/>
<text text-anchor="start" x="206" y="-633.3" font-family="Helvetica,sans-Serif" font-size="11.00" fill="#000000">first_name</text>
<polygon fill="none" stroke="#000000" points="186,-604.2 186,-626.2 367,-626.2 367,-604.2 186,-604.2"/>
<text text-anchor="start" x="206" y="-611.3" font-family="Helvetica,sans-Serif" font-size="11.00" fill="#000000">last_name</text>
<polygon fill="none" stroke="#000000" points="186,-582.2 186,-604.2 367,-604.2 367,-582.2 186,-582.2"/>
<text text-anchor="start" x="206" y="-589.3" font-family="Helvetica,sans-Serif" font-size="11.00" fill="#000000">status</text>
<polygon fill="none" stroke="#000000" points="186,-560.2 186,-582.2 367,-582.2 367,-560.2 186,-560.2"/>
<text text-anchor="start" x="206" y="-567.3" font-family="Helvetica,sans-Serif" font-size="11.00" fill="#000000">restricted_patient</text>
<polygon fill="none" stroke="#000000" points="186,-538.2 186,-560.2 367,-560.2 367,-538.2 186,-538.2"/>
<text text-anchor="start" x="206" y="-545.3" font-family="Helvetica,sans-Serif" font-size="11.00" fill="#000000">prison_code</text>
<polygon fill="none" stroke="#000000" points="186,-516.2 186,-538.2 367,-538.2 367,-516.2 186,-516.2"/>
<text text-anchor="start" x="206" y="-523.3" font-family="Helvetica,sans-Serif" font-size="11.00" fill="#000000">cell_location</text>
<polygon fill="none" stroke="#000000" points="186,-494.2 186,-516.2 367,-516.2 367,-494.2 186,-494.2"/>
<text text-anchor="start" x="206" y="-501.3" font-family="Helvetica,sans-Serif" font-size="11.00" fill="#000000">supporting_prison_code</text>
<polygon fill="none" stroke="#000000" points="186,-472.2 186,-494.2 367,-494.2 367,-472.2 186,-472.2"/>
<text text-anchor="start" x="206" y="-479.3" font-family="Helvetica,sans-Serif" font-size="11.00" fill="#000000">version</text>
<polygon fill="#ffffff" stroke="transparent" points="186,-453.2 186,-472.2 266,-472.2 266,-453.2 186,-453.2"/>
<polygon fill="none" stroke="#000000" points="186,-453.2 186,-472.2 266,-472.2 266,-453.2 186,-453.2"/>
<text text-anchor="start" x="189" y="-459.3" font-family="Helvetica,sans-Serif" font-size="11.00" fill="#000000"> &#160;</text>
<polygon fill="#ffffff" stroke="transparent" points="266,-453.2 266,-472.2 312,-472.2 312,-453.2 266,-453.2"/>
<polygon fill="none" stroke="#000000" points="266,-453.2 266,-472.2 312,-472.2 312,-453.2 266,-453.2"/>
<text text-anchor="start" x="302.8862" y="-459.3" font-family="Helvetica,sans-Serif" font-size="11.00" fill="#000000"> &#160;</text>
<polygon fill="#ffffff" stroke="transparent" points="312,-453.2 312,-472.2 367,-472.2 367,-453.2 312,-453.2"/>
<polygon fill="none" stroke="#000000" points="312,-453.2 312,-472.2 367,-472.2 367,-453.2 312,-453.2"/>
<text text-anchor="start" x="348.4053" y="-459.3" font-family="Helvetica,sans-Serif" font-size="11.00" fill="#000000">1 &gt;</text>
</a>
</g>
</g>
<!-- resync_audit&#45;&gt;person_summary -->
<g id="edge7" class="edge">
<title>resync_audit:w&#45;&gt;person_summary:e</title>
<path fill="none" stroke="#000000" stroke-dasharray="5,2" d="M406.2185,-659.2C393.038,-659.2 385.1875,-659.2 367,-659.2"/>
<polygon fill="#000000" stroke="#000000" points="413,-659.2001 421,-662.8 417,-659.2 421,-659.2 421,-659.2 421,-659.2 417,-659.2 421,-655.6 413,-659.2001 413,-659.2001"/>
<ellipse fill="none" stroke="#000000" cx="409.8" cy="-659.2001" rx="3.2" ry="3.2"/>
</g>
<!-- audit_event -->
<g id="node2" class="node">
<title>audit_event</title>
<g id="a_node2"><a xlink:href="../../tables/audit_event.html" xlink:title="audit_event" target="_top">
<polygon fill="#ffffff" stroke="transparent" points="680,-934.2 680,-1284.2 879,-1284.2 879,-934.2 680,-934.2"/>
<polygon fill="#f5f5f5" stroke="transparent" points="680.5,-1261.2 680.5,-1284.2 879.5,-1284.2 879.5,-1261.2 680.5,-1261.2"/>
<polygon fill="none" stroke="#000000" points="680.5,-1261.2 680.5,-1284.2 879.5,-1284.2 879.5,-1261.2 680.5,-1261.2"/>
<text text-anchor="start" x="685.5" y="-1269.8" font-family="Helvetica,sans-Serif" font-weight="bold" font-size="11.00" fill="#000000">audit_event</text>
<text text-anchor="start" x="844.5437" y="-1269.3" font-family="Helvetica,sans-Serif" font-size="11.00" fill="#000000">[table]</text>
<polygon fill="#ffffff" stroke="transparent" points="680.5,-1239.2 680.5,-1261.2 879.5,-1261.2 879.5,-1239.2 680.5,-1239.2"/>
<polygon fill="none" stroke="#000000" points="680.5,-1239.2 680.5,-1261.2 879.5,-1261.2 879.5,-1239.2 680.5,-1239.2"/>
<text text-anchor="start" x="700.5" y="-1246.3" font-family="Helvetica,sans-Serif" font-size="11.00" fill="#000000">action</text>
<polygon fill="none" stroke="#000000" points="680.5,-1217.2 680.5,-1239.2 879.5,-1239.2 879.5,-1217.2 680.5,-1217.2"/>
<text text-anchor="start" x="700.5" y="-1224.3" font-family="Helvetica,sans-Serif" font-size="11.00" fill="#000000">description</text>
<polygon fill="#ffffff" stroke="transparent" points="680.5,-1195.2 680.5,-1217.2 879.5,-1217.2 879.5,-1195.2 680.5,-1195.2"/>
<polygon fill="none" stroke="#000000" points="680.5,-1195.2 680.5,-1217.2 879.5,-1217.2 879.5,-1195.2 680.5,-1195.2"/>
<text text-anchor="start" x="700.5" y="-1202.3" font-family="Helvetica,sans-Serif" font-size="11.00" fill="#000000">actioned_at</text>
<polygon fill="#ffffff" stroke="transparent" points="680.5,-1173.2 680.5,-1195.2 879.5,-1195.2 879.5,-1173.2 680.5,-1173.2"/>
<polygon fill="none" stroke="#000000" points="680.5,-1173.2 680.5,-1195.2 879.5,-1195.2 879.5,-1173.2 680.5,-1173.2"/>
<text text-anchor="start" x="700.5" y="-1180.3" font-family="Helvetica,sans-Serif" font-size="11.00" fill="#000000">actioned_by</text>
<polygon fill="none" stroke="#000000" points="680.5,-1151.2 680.5,-1173.2 879.5,-1173.2 879.5,-1151.2 680.5,-1151.2"/>
<text text-anchor="start" x="700.5" y="-1158.3" font-family="Helvetica,sans-Serif" font-size="11.00" fill="#000000">actioned_by_display_name</text>
<polygon fill="none" stroke="#000000" points="680.5,-1129.2 680.5,-1151.2 879.5,-1151.2 879.5,-1129.2 680.5,-1129.2"/>
<text text-anchor="start" x="700.5" y="-1136.3" font-family="Helvetica,sans-Serif" font-size="11.00" fill="#000000">source</text>
<polygon fill="none" stroke="#000000" points="680.5,-1107.2 680.5,-1129.2 879.5,-1129.2 879.5,-1107.2 680.5,-1107.2"/>
<text text-anchor="start" x="700.5" y="-1114.3" font-family="Helvetica,sans-Serif" font-size="11.00" fill="#000000">active_case_load_id</text>
<polygon fill="none" stroke="#000000" points="680.5,-1085.2 680.5,-1107.2 879.5,-1107.2 879.5,-1085.2 680.5,-1085.2"/>
<text text-anchor="start" x="700.5" y="-1092.3" font-family="Helvetica,sans-Serif" font-size="11.00" fill="#000000">description_updated</text>
<polygon fill="none" stroke="#000000" points="680.5,-1063.2 680.5,-1085.2 879.5,-1085.2 879.5,-1063.2 680.5,-1063.2"/>
<text text-anchor="start" x="700.5" y="-1070.3" font-family="Helvetica,sans-Serif" font-size="11.00" fill="#000000">authorised_by_updated</text>
<polygon fill="none" stroke="#000000" points="680.5,-1041.2 680.5,-1063.2 879.5,-1063.2 879.5,-1041.2 680.5,-1041.2"/>
<text text-anchor="start" x="700.5" y="-1048.3" font-family="Helvetica,sans-Serif" font-size="11.00" fill="#000000">active_from_updated</text>
<polygon fill="none" stroke="#000000" points="680.5,-1019.2 680.5,-1041.2 879.5,-1041.2 879.5,-1019.2 680.5,-1019.2"/>
<text text-anchor="start" x="700.5" y="-1026.3" font-family="Helvetica,sans-Serif" font-size="11.00" fill="#000000">active_to_updated</text>
<polygon fill="#ffffff" stroke="transparent" points="680.5,-997.2 680.5,-1019.2 879.5,-1019.2 879.5,-997.2 680.5,-997.2"/>
<polygon fill="none" stroke="#000000" points="680.5,-997.2 680.5,-1019.2 879.5,-1019.2 879.5,-997.2 680.5,-997.2"/>
<image xlink:href="../../images/foreignKeys.png" width="11px" height="12px" preserveAspectRatio="xMinYMin meet" x="685.5" y="-1014.2"/>
<text text-anchor="start" x="700.5" y="-1004.3" font-family="Helvetica,sans-Serif" font-size="11.00" fill="#000000">alert_id</text>
<polygon fill="none" stroke="#000000" points="680.5,-975.2 680.5,-997.2 879.5,-997.2 879.5,-975.2 680.5,-975.2"/>
<text text-anchor="start" x="700.5" y="-982.3" font-family="Helvetica,sans-Serif" font-size="11.00" fill="#000000">version</text>
<polygon fill="none" stroke="#000000" points="680.5,-953.2 680.5,-975.2 879.5,-975.2 879.5,-953.2 680.5,-953.2"/>
<image xlink:href="../../images/primaryKeys.png" width="11px" height="12px" preserveAspectRatio="xMinYMin meet" x="685.5" y="-970.2"/>
<text text-anchor="start" x="700.5" y="-960.3" font-family="Helvetica,sans-Serif" font-size="11.00" fill="#000000">id</text>
<polygon fill="#ffffff" stroke="transparent" points="680.5,-934.2 680.5,-953.2 778.5,-953.2 778.5,-934.2 680.5,-934.2"/>
<polygon fill="none" stroke="#000000" points="680.5,-934.2 680.5,-953.2 778.5,-953.2 778.5,-934.2 680.5,-934.2"/>
<text text-anchor="start" x="683.5" y="-940.3" font-family="Helvetica,sans-Serif" font-size="11.00" fill="#000000">&lt; 1</text>
<polygon fill="#ffffff" stroke="transparent" points="778.5,-934.2 778.5,-953.2 828.5,-953.2 828.5,-934.2 778.5,-934.2"/>
<polygon fill="none" stroke="#000000" points="778.5,-934.2 778.5,-953.2 828.5,-953.2 828.5,-934.2 778.5,-934.2"/>
<text text-anchor="start" x="819.3862" y="-940.3" font-family="Helvetica,sans-Serif" font-size="11.00" fill="#000000"> &#160;</text>
<polygon fill="#ffffff" stroke="transparent" points="828.5,-934.2 828.5,-953.2 879.5,-953.2 879.5,-934.2 828.5,-934.2"/>
<polygon fill="none" stroke="#000000" points="828.5,-934.2 828.5,-953.2 879.5,-953.2 879.5,-934.2 828.5,-934.2"/>
<text text-anchor="start" x="870.3862" y="-940.3" font-family="Helvetica,sans-Serif" font-size="11.00" fill="#000000"> &#160;</text>
</a>
</g>
</g>
<!-- alert -->
<g id="node4" class="node">
<title>alert</title>
<g id="a_node4"><a xlink:href="../../tables/alert.html" xlink:title="alert" target="_top">
<polygon fill="#ffffff" stroke="transparent" points="425.5,-736.2 425.5,-1042.2 626.5,-1042.2 626.5,-736.2 425.5,-736.2"/>
<polygon fill="#f5f5f5" stroke="transparent" points="426,-1019.2 426,-1042.2 627,-1042.2 627,-1019.2 426,-1019.2"/>
<polygon fill="none" stroke="#000000" points="426,-1019.2 426,-1042.2 627,-1042.2 627,-1019.2 426,-1019.2"/>
<text text-anchor="start" x="431" y="-1027.8" font-family="Helvetica,sans-Serif" font-weight="bold" font-size="11.00" fill="#000000">alert</text>
<text text-anchor="start" x="592.0437" y="-1027.3" font-family="Helvetica,sans-Serif" font-size="11.00" fill="#000000">[table]</text>
<polygon fill="none" stroke="#000000" points="426,-997.2 426,-1019.2 627,-1019.2 627,-997.2 426,-997.2"/>
<image xlink:href="../../images/primaryKeys.png" width="11px" height="12px" preserveAspectRatio="xMinYMin meet" x="431" y="-1014.2"/>
<text text-anchor="start" x="446" y="-1004.3" font-family="Helvetica,sans-Serif" font-size="11.00" fill="#000000">id</text>
<polygon fill="#ffffff" stroke="transparent" points="426,-975.2 426,-997.2 627,-997.2 627,-975.2 426,-975.2"/>
<polygon fill="none" stroke="#000000" points="426,-975.2 426,-997.2 627,-997.2 627,-975.2 426,-975.2"/>
<image xlink:href="../../images/foreignKeys.png" width="11px" height="12px" preserveAspectRatio="xMinYMin meet" x="431" y="-992.2"/>
<text text-anchor="start" x="446" y="-982.3" font-family="Helvetica,sans-Serif" font-size="11.00" fill="#000000">alert_code_id</text>
<polygon fill="#ffffff" stroke="transparent" points="426,-953.2 426,-975.2 627,-975.2 627,-953.2 426,-953.2"/>
<polygon fill="none" stroke="#000000" points="426,-953.2 426,-975.2 627,-975.2 627,-953.2 426,-953.2"/>
<image xlink:href="../../images/foreignKeys.png" width="11px" height="12px" preserveAspectRatio="xMinYMin meet" x="431" y="-970.2"/>
<text text-anchor="start" x="446" y="-960.3" font-family="Helvetica,sans-Serif" font-size="11.00" fill="#000000">prison_number</text>
<polygon fill="none" stroke="#000000" points="426,-931.2 426,-953.2 627,-953.2 627,-931.2 426,-931.2"/>
<text text-anchor="start" x="446" y="-938.3" font-family="Helvetica,sans-Serif" font-size="11.00" fill="#000000">description</text>
<polygon fill="none" stroke="#000000" points="426,-909.2 426,-931.2 627,-931.2 627,-909.2 426,-909.2"/>
<text text-anchor="start" x="446" y="-916.3" font-family="Helvetica,sans-Serif" font-size="11.00" fill="#000000">authorised_by</text>
<polygon fill="#ffffff" stroke="transparent" points="426,-887.2 426,-909.2 627,-909.2 627,-887.2 426,-887.2"/>
<polygon fill="none" stroke="#000000" points="426,-887.2 426,-909.2 627,-909.2 627,-887.2 426,-887.2"/>
<text text-anchor="start" x="446" y="-894.3" font-family="Helvetica,sans-Serif" font-size="11.00" fill="#000000">active_from</text>
<polygon fill="#ffffff" stroke="transparent" points="426,-865.2 426,-887.2 627,-887.2 627,-865.2 426,-865.2"/>
<polygon fill="none" stroke="#000000" points="426,-865.2 426,-887.2 627,-887.2 627,-865.2 426,-865.2"/>
<text text-anchor="start" x="446" y="-872.3" font-family="Helvetica,sans-Serif" font-size="11.00" fill="#000000">active_to</text>
<polygon fill="#ffffff" stroke="transparent" points="426,-843.2 426,-865.2 627,-865.2 627,-843.2 426,-843.2"/>
<polygon fill="none" stroke="#000000" points="426,-843.2 426,-865.2 627,-865.2 627,-843.2 426,-843.2"/>
<text text-anchor="start" x="446" y="-850.3" font-family="Helvetica,sans-Serif" font-size="11.00" fill="#000000">deleted_at</text>
<polygon fill="#ffffff" stroke="transparent" points="426,-821.2 426,-843.2 627,-843.2 627,-821.2 426,-821.2"/>
<polygon fill="none" stroke="#000000" points="426,-821.2 426,-843.2 627,-843.2 627,-821.2 426,-821.2"/>
<text text-anchor="start" x="446" y="-828.3" font-family="Helvetica,sans-Serif" font-size="11.00" fill="#000000">created_at</text>
<polygon fill="#ffffff" stroke="transparent" points="426,-799.2 426,-821.2 627,-821.2 627,-799.2 426,-799.2"/>
<polygon fill="none" stroke="#000000" points="426,-799.2 426,-821.2 627,-821.2 627,-799.2 426,-799.2"/>
<text text-anchor="start" x="446" y="-806.3" font-family="Helvetica,sans-Serif" font-size="11.00" fill="#000000">last_modified_at</text>
<polygon fill="none" stroke="#000000" points="426,-777.2 426,-799.2 627,-799.2 627,-777.2 426,-777.2"/>
<text text-anchor="start" x="446" y="-784.3" font-family="Helvetica,sans-Serif" font-size="11.00" fill="#000000">prison_code_when_created</text>
<polygon fill="none" stroke="#000000" points="426,-755.2 426,-777.2 627,-777.2 627,-755.2 426,-755.2"/>
<text text-anchor="start" x="446" y="-762.3" font-family="Helvetica,sans-Serif" font-size="11.00" fill="#000000">version</text>
<polygon fill="#ffffff" stroke="transparent" points="426,-736.2 426,-755.2 520,-755.2 520,-736.2 426,-736.2"/>
<polygon fill="none" stroke="#000000" points="426,-736.2 426,-755.2 520,-755.2 520,-736.2 426,-736.2"/>
<text text-anchor="start" x="429" y="-742.3" font-family="Helvetica,sans-Serif" font-size="11.00" fill="#000000">&lt; 1</text>
<polygon fill="#ffffff" stroke="transparent" points="520,-736.2 520,-755.2 569,-755.2 569,-736.2 520,-736.2"/>
<polygon fill="none" stroke="#000000" points="520,-736.2 520,-755.2 569,-755.2 569,-736.2 520,-736.2"/>
<text text-anchor="start" x="559.8862" y="-742.3" font-family="Helvetica,sans-Serif" font-size="11.00" fill="#000000"> &#160;</text>
<polygon fill="#ffffff" stroke="transparent" points="569,-736.2 569,-755.2 627,-755.2 627,-736.2 569,-736.2"/>
<polygon fill="none" stroke="#000000" points="569,-736.2 569,-755.2 627,-755.2 627,-736.2 569,-736.2"/>
<text text-anchor="start" x="608.4053" y="-742.3" font-family="Helvetica,sans-Serif" font-size="11.00" fill="#000000">1 &gt;</text>
</a>
</g>
</g>
<!-- audit_event&#45;&gt;alert -->
<g id="edge4" class="edge">
<title>audit_event:w&#45;&gt;alert:e</title>
<path fill="none" stroke="#000000" d="M665.8553,-1008.2C652.7969,-1008.2 645.0191,-1008.2 627,-1008.2"/>
<polygon fill="#000000" stroke="#000000" points="672.5,-1008.2001 680.5,-1011.8 676.5,-1008.2 680.5,-1008.2 680.5,-1008.2 680.5,-1008.2 676.5,-1008.2 680.5,-1004.6 672.5,-1008.2001 672.5,-1008.2001"/>
<ellipse fill="none" stroke="#000000" cx="669.3" cy="-1008.2001" rx="3.2" ry="3.2"/>
</g>
<!-- alert_code -->
<g id="node3" class="node">
<title>alert_code</title>
<g id="a_node3"><a xlink:href="../../tables/alert_code.html" xlink:title="alert_code" target="_top">
<polygon fill="#ffffff" stroke="transparent" points="214.5,-736.2 214.5,-1020.2 337.5,-1020.2 337.5,-736.2 214.5,-736.2"/>
<polygon fill="#f5f5f5" stroke="transparent" points="215,-997.2 215,-1020.2 338,-1020.2 338,-997.2 215,-997.2"/>
<polygon fill="none" stroke="#000000" points="215,-997.2 215,-1020.2 338,-1020.2 338,-997.2 215,-997.2"/>
<text text-anchor="start" x="220" y="-1005.8" font-family="Helvetica,sans-Serif" font-weight="bold" font-size="11.00" fill="#000000">alert_code</text>
<text text-anchor="start" x="303.0437" y="-1005.3" font-family="Helvetica,sans-Serif" font-size="11.00" fill="#000000">[table]</text>
<polygon fill="none" stroke="#000000" points="215,-975.2 215,-997.2 338,-997.2 338,-975.2 215,-975.2"/>
<image xlink:href="../../images/primaryKeys.png" width="11px" height="12px" preserveAspectRatio="xMinYMin meet" x="220" y="-992.2"/>
<text text-anchor="start" x="235" y="-982.3" font-family="Helvetica,sans-Serif" font-size="11.00" fill="#000000">alert_code_id</text>
<polygon fill="#ffffff" stroke="transparent" points="215,-953.2 215,-975.2 338,-975.2 338,-953.2 215,-953.2"/>
<polygon fill="none" stroke="#000000" points="215,-953.2 215,-975.2 338,-975.2 338,-953.2 215,-953.2"/>
<image xlink:href="../../images/foreignKeys.png" width="11px" height="12px" preserveAspectRatio="xMinYMin meet" x="220" y="-970.2"/>
<text text-anchor="start" x="235" y="-960.3" font-family="Helvetica,sans-Serif" font-size="11.00" fill="#000000">alert_type_id</text>
<polygon fill="#ffffff" stroke="transparent" points="215,-931.2 215,-953.2 338,-953.2 338,-931.2 215,-931.2"/>
<polygon fill="none" stroke="#000000" points="215,-931.2 215,-953.2 338,-953.2 338,-931.2 215,-931.2"/>
<text text-anchor="start" x="235" y="-938.3" font-family="Helvetica,sans-Serif" font-size="11.00" fill="#000000">code</text>
<polygon fill="none" stroke="#000000" points="215,-909.2 215,-931.2 338,-931.2 338,-909.2 215,-909.2"/>
<text text-anchor="start" x="235" y="-916.3" font-family="Helvetica,sans-Serif" font-size="11.00" fill="#000000">description</text>
<polygon fill="#ffffff" stroke="transparent" points="215,-887.2 215,-909.2 338,-909.2 338,-887.2 215,-887.2"/>
<polygon fill="none" stroke="#000000" points="215,-887.2 215,-909.2 338,-909.2 338,-887.2 215,-887.2"/>
<text text-anchor="start" x="235" y="-894.3" font-family="Helvetica,sans-Serif" font-size="11.00" fill="#000000">list_sequence</text>
<polygon fill="#ffffff" stroke="transparent" points="215,-865.2 215,-887.2 338,-887.2 338,-865.2 215,-865.2"/>
<polygon fill="none" stroke="#000000" points="215,-865.2 215,-887.2 338,-887.2 338,-865.2 215,-865.2"/>
<text text-anchor="start" x="235" y="-872.3" font-family="Helvetica,sans-Serif" font-size="11.00" fill="#000000">created_at</text>
<polygon fill="none" stroke="#000000" points="215,-843.2 215,-865.2 338,-865.2 338,-843.2 215,-843.2"/>
<text text-anchor="start" x="235" y="-850.3" font-family="Helvetica,sans-Serif" font-size="11.00" fill="#000000">created_by</text>
<polygon fill="none" stroke="#000000" points="215,-821.2 215,-843.2 338,-843.2 338,-821.2 215,-821.2"/>
<text text-anchor="start" x="235" y="-828.3" font-family="Helvetica,sans-Serif" font-size="11.00" fill="#000000">modified_at</text>
<polygon fill="none" stroke="#000000" points="215,-799.2 215,-821.2 338,-821.2 338,-799.2 215,-799.2"/>
<text text-anchor="start" x="235" y="-806.3" font-family="Helvetica,sans-Serif" font-size="11.00" fill="#000000">modified_by</text>
<polygon fill="#ffffff" stroke="transparent" points="215,-777.2 215,-799.2 338,-799.2 338,-777.2 215,-777.2"/>
<polygon fill="none" stroke="#000000" points="215,-777.2 215,-799.2 338,-799.2 338,-777.2 215,-777.2"/>
<text text-anchor="start" x="235" y="-784.3" font-family="Helvetica,sans-Serif" font-size="11.00" fill="#000000">deactivated_at</text>
<polygon fill="none" stroke="#000000" points="215,-755.2 215,-777.2 338,-777.2 338,-755.2 215,-755.2"/>
<text text-anchor="start" x="235" y="-762.3" font-family="Helvetica,sans-Serif" font-size="11.00" fill="#000000">deactivated_by</text>
<polygon fill="#ffffff" stroke="transparent" points="215,-736.2 215,-755.2 270,-755.2 270,-736.2 215,-736.2"/>
<polygon fill="none" stroke="#000000" points="215,-736.2 215,-755.2 270,-755.2 270,-736.2 215,-736.2"/>
<text text-anchor="start" x="218" y="-742.3" font-family="Helvetica,sans-Serif" font-size="11.00" fill="#000000">&lt; 1</text>
<polygon fill="#ffffff" stroke="transparent" points="270,-736.2 270,-755.2 299,-755.2 299,-736.2 270,-736.2"/>
<polygon fill="none" stroke="#000000" points="270,-736.2 270,-755.2 299,-755.2 299,-736.2 270,-736.2"/>
<text text-anchor="start" x="289.8862" y="-742.3" font-family="Helvetica,sans-Serif" font-size="11.00" fill="#000000"> &#160;</text>
<polygon fill="#ffffff" stroke="transparent" points="299,-736.2 299,-755.2 338,-755.2 338,-736.2 299,-736.2"/>
<polygon fill="none" stroke="#000000" points="299,-736.2 299,-755.2 338,-755.2 338,-736.2 299,-736.2"/>
<text text-anchor="start" x="319.4053" y="-742.3" font-family="Helvetica,sans-Serif" font-size="11.00" fill="#000000">1 &gt;</text>
</a>
</g>
</g>
<!-- alert_type -->
<g id="node7" class="node">
<title>alert_type</title>
<g id="a_node7"><a xlink:href="../../tables/alert_type.html" xlink:title="alert_type" target="_top">
<polygon fill="#ffffff" stroke="transparent" points="8,-736.2 8,-998.2 131,-998.2 131,-736.2 8,-736.2"/>
<polygon fill="#f5f5f5" stroke="transparent" points="8.5,-975.2 8.5,-998.2 131.5,-998.2 131.5,-975.2 8.5,-975.2"/>
<polygon fill="none" stroke="#000000" points="8.5,-975.2 8.5,-998.2 131.5,-998.2 131.5,-975.2 8.5,-975.2"/>
<text text-anchor="start" x="13.5" y="-983.8" font-family="Helvetica,sans-Serif" font-weight="bold" font-size="11.00" fill="#000000">alert_type</text>
<text text-anchor="start" x="96.5437" y="-983.3" font-family="Helvetica,sans-Serif" font-size="11.00" fill="#000000">[table]</text>
<polygon fill="none" stroke="#000000" points="8.5,-953.2 8.5,-975.2 131.5,-975.2 131.5,-953.2 8.5,-953.2"/>
<image xlink:href="../../images/primaryKeys.png" width="11px" height="12px" preserveAspectRatio="xMinYMin meet" x="13.5" y="-970.2"/>
<text text-anchor="start" x="28.5" y="-960.3" font-family="Helvetica,sans-Serif" font-size="11.00" fill="#000000">alert_type_id</text>
<polygon fill="#ffffff" stroke="transparent" points="8.5,-931.2 8.5,-953.2 131.5,-953.2 131.5,-931.2 8.5,-931.2"/>
<polygon fill="none" stroke="#000000" points="8.5,-931.2 8.5,-953.2 131.5,-953.2 131.5,-931.2 8.5,-931.2"/>
<text text-anchor="start" x="28.5" y="-938.3" font-family="Helvetica,sans-Serif" font-size="11.00" fill="#000000">code</text>
<polygon fill="none" stroke="#000000" points="8.5,-909.2 8.5,-931.2 131.5,-931.2 131.5,-909.2 8.5,-909.2"/>
<text text-anchor="start" x="28.5" y="-916.3" font-family="Helvetica,sans-Serif" font-size="11.00" fill="#000000">description</text>
<polygon fill="#ffffff" stroke="transparent" points="8.5,-887.2 8.5,-909.2 131.5,-909.2 131.5,-887.2 8.5,-887.2"/>
<polygon fill="none" stroke="#000000" points="8.5,-887.2 8.5,-909.2 131.5,-909.2 131.5,-887.2 8.5,-887.2"/>
<text text-anchor="start" x="28.5" y="-894.3" font-family="Helvetica,sans-Serif" font-size="11.00" fill="#000000">list_sequence</text>
<polygon fill="#ffffff" stroke="transparent" points="8.5,-865.2 8.5,-887.2 131.5,-887.2 131.5,-865.2 8.5,-865.2"/>
<polygon fill="none" stroke="#000000" points="8.5,-865.2 8.5,-887.2 131.5,-887.2 131.5,-865.2 8.5,-865.2"/>
<text text-anchor="start" x="28.5" y="-872.3" font-family="Helvetica,sans-Serif" font-size="11.00" fill="#000000">created_at</text>
<polygon fill="none" stroke="#000000" points="8.5,-843.2 8.5,-865.2 131.5,-865.2 131.5,-843.2 8.5,-843.2"/>
<text text-anchor="start" x="28.5" y="-850.3" font-family="Helvetica,sans-Serif" font-size="11.00" fill="#000000">created_by</text>
<polygon fill="none" stroke="#000000" points="8.5,-821.2 8.5,-843.2 131.5,-843.2 131.5,-821.2 8.5,-821.2"/>
<text text-anchor="start" x="28.5" y="-828.3" font-family="Helvetica,sans-Serif" font-size="11.00" fill="#000000">modified_at</text>
<polygon fill="none" stroke="#000000" points="8.5,-799.2 8.5,-821.2 131.5,-821.2 131.5,-799.2 8.5,-799.2"/>
<text text-anchor="start" x="28.5" y="-806.3" font-family="Helvetica,sans-Serif" font-size="11.00" fill="#000000">modified_by</text>
<polygon fill="#ffffff" stroke="transparent" points="8.5,-777.2 8.5,-799.2 131.5,-799.2 131.5,-777.2 8.5,-777.2"/>
<polygon fill="none" stroke="#000000" points="8.5,-777.2 8.5,-799.2 131.5,-799.2 131.5,-777.2 8.5,-777.2"/>
<text text-anchor="start" x="28.5" y="-784.3" font-family="Helvetica,sans-Serif" font-size="11.00" fill="#000000">deactivated_at</text>
<polygon fill="none" stroke="#000000" points="8.5,-755.2 8.5,-777.2 131.5,-777.2 131.5,-755.2 8.5,-755.2"/>
<text text-anchor="start" x="28.5" y="-762.3" font-family="Helvetica,sans-Serif" font-size="11.00" fill="#000000">deactivated_by</text>
<polygon fill="#ffffff" stroke="transparent" points="8.5,-736.2 8.5,-755.2 59.5,-755.2 59.5,-736.2 8.5,-736.2"/>
<polygon fill="none" stroke="#000000" points="8.5,-736.2 8.5,-755.2 59.5,-755.2 59.5,-736.2 8.5,-736.2"/>
<text text-anchor="start" x="11.5" y="-742.3" font-family="Helvetica,sans-Serif" font-size="11.00" fill="#000000"> &#160;</text>
<polygon fill="#ffffff" stroke="transparent" points="59.5,-736.2 59.5,-755.2 90.5,-755.2 90.5,-736.2 59.5,-736.2"/>
<polygon fill="none" stroke="#000000" points="59.5,-736.2 59.5,-755.2 90.5,-755.2 90.5,-736.2 59.5,-736.2"/>
<text text-anchor="start" x="81.3862" y="-742.3" font-family="Helvetica,sans-Serif" font-size="11.00" fill="#000000"> &#160;</text>
<polygon fill="#ffffff" stroke="transparent" points="90.5,-736.2 90.5,-755.2 131.5,-755.2 131.5,-736.2 90.5,-736.2"/>
<polygon fill="none" stroke="#000000" points="90.5,-736.2 90.5,-755.2 131.5,-755.2 131.5,-736.2 90.5,-736.2"/>
<text text-anchor="start" x="112.9053" y="-742.3" font-family="Helvetica,sans-Serif" font-size="11.00" fill="#000000">1 &gt;</text>
</a>
</g>
</g>
<!-- alert_code&#45;&gt;alert_type -->
<g id="edge3" class="edge">
<title>alert_code:w&#45;&gt;alert_type:e</title>
<path fill="none" stroke="#000000" d="M200.485,-964.2C174.6256,-964.2 163.2474,-964.2 131.5,-964.2"/>
<polygon fill="#000000" stroke="#000000" points="207,-964.2001 215,-967.8 211,-964.2 215,-964.2 215,-964.2 215,-964.2 211,-964.2 215,-960.6 207,-964.2001 207,-964.2001"/>
<ellipse fill="none" stroke="#000000" cx="203.8" cy="-964.2001" rx="3.2" ry="3.2"/>
</g>
<!-- alert&#45;&gt;alert_code -->
<g id="edge1" class="edge">
<title>alert:w&#45;&gt;alert_code:e</title>
<path fill="none" stroke="#000000" d="M411.4533,-986.2C383.667,-986.2 371.7639,-986.2 338,-986.2"/>
<polygon fill="#000000" stroke="#000000" points="418,-986.2001 426,-989.8 422,-986.2 426,-986.2 426,-986.2 426,-986.2 422,-986.2 426,-982.6 418,-986.2001 418,-986.2001"/>
<ellipse fill="none" stroke="#000000" cx="414.8" cy="-986.2001" rx="3.2" ry="3.2"/>
</g>
<!-- alert&#45;&gt;person_summary -->
<g id="edge2" class="edge">
<title>alert:w&#45;&gt;person_summary:e</title>
<path fill="none" stroke="#000000" stroke-dasharray="5,2" d="M412.3907,-958.9062C368.4163,-918.4053 430.641,-659.2 367,-659.2"/>
<polygon fill="#000000" stroke="#000000" points="418.5442,-961.2998 424.6949,-967.5551 422.2721,-962.7499 426,-964.2 426,-964.2 426,-964.2 422.2721,-962.7499 427.3051,-960.8449 418.5442,-961.2998 418.5442,-961.2998"/>
<ellipse fill="none" stroke="#000000" cx="415.5619" cy="-960.1397" rx="3.2" ry="3.2"/>
</g>
<!-- bulk_plan -->
<g id="node5" class="node">
<title>bulk_plan</title>
<g id="a_node5"><a xlink:href="../../tables/bulk_plan.html" xlink:title="bulk_plan" target="_top">
<polygon fill="#ffffff" stroke="transparent" points="180,-38.2 180,-432.2 372,-432.2 372,-38.2 180,-38.2"/>
<polygon fill="#f5f5f5" stroke="transparent" points="180,-409.2 180,-432.2 372,-432.2 372,-409.2 180,-409.2"/>
<polygon fill="none" stroke="#000000" points="180,-409.2 180,-432.2 372,-432.2 372,-409.2 180,-409.2"/>
<text text-anchor="start" x="185" y="-417.8" font-family="Helvetica,sans-Serif" font-weight="bold" font-size="11.00" fill="#000000">bulk_plan</text>
<text text-anchor="start" x="337.0437" y="-417.3" font-family="Helvetica,sans-Serif" font-size="11.00" fill="#000000">[table]</text>
<polygon fill="none" stroke="#000000" points="180,-387.2 180,-409.2 372,-409.2 372,-387.2 180,-387.2"/>
<image xlink:href="../../images/primaryKeys.png" width="11px" height="12px" preserveAspectRatio="xMinYMin meet" x="185" y="-404.2"/>
<text text-anchor="start" x="200" y="-394.3" font-family="Helvetica,sans-Serif" font-size="11.00" fill="#000000">id</text>
<polygon fill="none" stroke="#000000" points="180,-365.2 180,-387.2 372,-387.2 372,-365.2 180,-365.2"/>
<text text-anchor="start" x="200" y="-372.3" font-family="Helvetica,sans-Serif" font-size="11.00" fill="#000000">alert_code_id</text>
<polygon fill="none" stroke="#000000" points="180,-343.2 180,-365.2 372,-365.2 372,-343.2 180,-343.2"/>
<text text-anchor="start" x="200" y="-350.3" font-family="Helvetica,sans-Serif" font-size="11.00" fill="#000000">description</text>
<polygon fill="none" stroke="#000000" points="180,-321.2 180,-343.2 372,-343.2 372,-321.2 180,-321.2"/>
<text text-anchor="start" x="200" y="-328.3" font-family="Helvetica,sans-Serif" font-size="11.00" fill="#000000">version</text>
<polygon fill="none" stroke="#000000" points="180,-299.2 180,-321.2 372,-321.2 372,-299.2 180,-299.2"/>
<text text-anchor="start" x="200" y="-306.3" font-family="Helvetica,sans-Serif" font-size="11.00" fill="#000000">created_at</text>
<polygon fill="none" stroke="#000000" points="180,-277.2 180,-299.2 372,-299.2 372,-277.2 180,-277.2"/>
<text text-anchor="start" x="200" y="-284.3" font-family="Helvetica,sans-Serif" font-size="11.00" fill="#000000">created_by</text>
<polygon fill="none" stroke="#000000" points="180,-255.2 180,-277.2 372,-277.2 372,-255.2 180,-255.2"/>
<text text-anchor="start" x="200" y="-262.3" font-family="Helvetica,sans-Serif" font-size="11.00" fill="#000000">created_by_display_name</text>
<polygon fill="none" stroke="#000000" points="180,-233.2 180,-255.2 372,-255.2 372,-233.2 180,-233.2"/>
<text text-anchor="start" x="200" y="-240.3" font-family="Helvetica,sans-Serif" font-size="11.00" fill="#000000">cleanup_mode</text>
<polygon fill="none" stroke="#000000" points="180,-211.2 180,-233.2 372,-233.2 372,-211.2 180,-211.2"/>
<text text-anchor="start" x="200" y="-218.3" font-family="Helvetica,sans-Serif" font-size="11.00" fill="#000000">started_at</text>
<polygon fill="none" stroke="#000000" points="180,-189.2 180,-211.2 372,-211.2 372,-189.2 180,-189.2"/>
<text text-anchor="start" x="200" y="-196.3" font-family="Helvetica,sans-Serif" font-size="11.00" fill="#000000">started_by</text>
<polygon fill="none" stroke="#000000" points="180,-167.2 180,-189.2 372,-189.2 372,-167.2 180,-167.2"/>
<text text-anchor="start" x="200" y="-174.3" font-family="Helvetica,sans-Serif" font-size="11.00" fill="#000000">started_by_display_name</text>
<polygon fill="none" stroke="#000000" points="180,-145.2 180,-167.2 372,-167.2 372,-145.2 180,-145.2"/>
<text text-anchor="start" x="200" y="-152.3" font-family="Helvetica,sans-Serif" font-size="11.00" fill="#000000">completed_at</text>
<polygon fill="none" stroke="#000000" points="180,-123.2 180,-145.2 372,-145.2 372,-123.2 180,-123.2"/>
<text text-anchor="start" x="200" y="-130.3" font-family="Helvetica,sans-Serif" font-size="11.00" fill="#000000">created_count</text>
<polygon fill="none" stroke="#000000" points="180,-101.2 180,-123.2 372,-123.2 372,-101.2 180,-101.2"/>
<text text-anchor="start" x="200" y="-108.3" font-family="Helvetica,sans-Serif" font-size="11.00" fill="#000000">updated_count</text>
<polygon fill="none" stroke="#000000" points="180,-79.2 180,-101.2 372,-101.2 372,-79.2 180,-79.2"/>
<text text-anchor="start" x="200" y="-86.3" font-family="Helvetica,sans-Serif" font-size="11.00" fill="#000000">unchanged_count</text>
<polygon fill="none" stroke="#000000" points="180,-57.2 180,-79.2 372,-79.2 372,-57.2 180,-57.2"/>
<text text-anchor="start" x="200" y="-64.3" font-family="Helvetica,sans-Serif" font-size="11.00" fill="#000000">expired_count</text>
<polygon fill="#ffffff" stroke="transparent" points="180,-38.2 180,-57.2 265,-57.2 265,-38.2 180,-38.2"/>
<polygon fill="none" stroke="#000000" points="180,-38.2 180,-57.2 265,-57.2 265,-38.2 180,-38.2"/>
<text text-anchor="start" x="183" y="-44.3" font-family="Helvetica,sans-Serif" font-size="11.00" fill="#000000"> &#160;</text>
<polygon fill="#ffffff" stroke="transparent" points="265,-38.2 265,-57.2 314,-57.2 314,-38.2 265,-38.2"/>
<polygon fill="none" stroke="#000000" points="265,-38.2 265,-57.2 314,-57.2 314,-38.2 265,-38.2"/>
<text text-anchor="start" x="304.8862" y="-44.3" font-family="Helvetica,sans-Serif" font-size="11.00" fill="#000000"> &#160;</text>
<polygon fill="#ffffff" stroke="transparent" points="314,-38.2 314,-57.2 372,-57.2 372,-38.2 314,-38.2"/>
<polygon fill="none" stroke="#000000" points="314,-38.2 314,-57.2 372,-57.2 372,-38.2 314,-38.2"/>
<text text-anchor="start" x="353.4053" y="-44.3" font-family="Helvetica,sans-Serif" font-size="11.00" fill="#000000">1 &gt;</text>
</a>
</g>
</g>
<!-- plan_person -->
<g id="node6" class="node">
<title>plan_person</title>
<g id="a_node6"><a xlink:href="../../tables/plan_person.html" xlink:title="plan_person" target="_top">
<polygon fill="#ffffff" stroke="transparent" points="465.5,-346.2 465.5,-432.2 586.5,-432.2 586.5,-346.2 465.5,-346.2"/>
<polygon fill="#f5f5f5" stroke="transparent" points="466,-409.2 466,-432.2 587,-432.2 587,-409.2 466,-409.2"/>
<polygon fill="none" stroke="#000000" points="466,-409.2 466,-432.2 587,-432.2 587,-409.2 466,-409.2"/>
<text text-anchor="start" x="471" y="-417.8" font-family="Helvetica,sans-Serif" font-weight="bold" font-size="11.00" fill="#000000">plan_person</text>
<text text-anchor="start" x="552.5219" y="-417.3" font-family="Helvetica,sans-Serif" font-size="11.00" fill="#000000">[table]</text>
<polygon fill="none" stroke="#000000" points="466,-387.2 466,-409.2 587,-409.2 587,-387.2 466,-387.2"/>
<image xlink:href="../../images/foreignKeys.png" width="11px" height="12px" preserveAspectRatio="xMinYMin meet" x="471" y="-404.2"/>
<text text-anchor="start" x="486" y="-394.3" font-family="Helvetica,sans-Serif" font-size="11.00" fill="#000000">plan_id</text>
<polygon fill="none" stroke="#000000" points="466,-365.2 466,-387.2 587,-387.2 587,-365.2 466,-365.2"/>
<image xlink:href="../../images/foreignKeys.png" width="11px" height="12px" preserveAspectRatio="xMinYMin meet" x="471" y="-382.2"/>
<text text-anchor="start" x="486" y="-372.3" font-family="Helvetica,sans-Serif" font-size="11.00" fill="#000000">prison_number</text>
<polygon fill="#ffffff" stroke="transparent" points="466,-346.2 466,-365.2 525,-365.2 525,-346.2 466,-346.2"/>
<polygon fill="none" stroke="#000000" points="466,-346.2 466,-365.2 525,-365.2 525,-346.2 466,-346.2"/>
<text text-anchor="start" x="469" y="-352.3" font-family="Helvetica,sans-Serif" font-size="11.00" fill="#000000">&lt; 2</text>
<polygon fill="#ffffff" stroke="transparent" points="525,-346.2 525,-365.2 556,-365.2 556,-346.2 525,-346.2"/>
<polygon fill="none" stroke="#000000" points="525,-346.2 525,-365.2 556,-365.2 556,-346.2 525,-346.2"/>
<text text-anchor="start" x="546.8862" y="-352.3" font-family="Helvetica,sans-Serif" font-size="11.00" fill="#000000"> &#160;</text>
<polygon fill="#ffffff" stroke="transparent" points="556,-346.2 556,-365.2 587,-365.2 587,-346.2 556,-346.2"/>
<polygon fill="none" stroke="#000000" points="556,-346.2 556,-365.2 587,-365.2 587,-346.2 556,-346.2"/>
<text text-anchor="start" x="577.8862" y="-352.3" font-family="Helvetica,sans-Serif" font-size="11.00" fill="#000000"> &#160;</text>
</a>
</g>
</g>
<!-- plan_person&#45;&gt;bulk_plan -->
<g id="edge5" class="edge">
<title>plan_person:w&#45;&gt;bulk_plan:e</title>
<path fill="none" stroke="#000000" d="M451.2715,-398.2C421.0089,-398.2 408.3924,-398.2 372,-398.2"/>
<polygon fill="#000000" stroke="#000000" points="458,-398.2001 466,-401.8 462,-398.2 466,-398.2 466,-398.2 466,-398.2 462,-398.2 466,-394.6 458,-398.2001 458,-398.2001"/>
<ellipse fill="none" stroke="#000000" cx="454.8" cy="-398.2001" rx="3.2" ry="3.2"/>
</g>
<!-- plan_person&#45;&gt;person_summary -->
<g id="edge6" class="edge">
<title>plan_person:w&#45;&gt;person_summary:e</title>
<path fill="none" stroke="#000000" d="M451.602,-378.2175C428.2271,-385.7458 426.7248,-413.2526 413,-442.2 391.8818,-486.741 416.2938,-659.2 367,-659.2"/>
<polygon fill="#000000" stroke="#000000" points="458.0774,-377.3102 466.4996,-379.7652 462.0387,-376.7551 466,-376.2 466,-376.2 466,-376.2 462.0387,-376.7551 465.5004,-372.6348 458.0774,-377.3102 458.0774,-377.3102"/>
<ellipse fill="none" stroke="#000000" cx="454.9084" cy="-377.7543" rx="3.2" ry="3.2"/>
</g>
</g>
</svg>
