<?xml version="1.0" encoding="UTF-8" standalone="no"?>
<!DOCTYPE svg PUBLIC "-//W3C//DTD SVG 1.1//EN"
 "http://www.w3.org/Graphics/SVG/1.1/DTD/svg11.dtd">
<!-- Generated by graphviz version 2.40.1 (20161225.0304)
 -->
<!-- Title: compactImpliedRelationshipsDiagram Pages: 1 -->
<svg width="957pt" height="628pt"
 viewBox="0.00 0.00 957.00 628.20" xmlns="http://www.w3.org/2000/svg" xmlns:xlink="http://www.w3.org/1999/xlink">
<g id="graph0" class="graph" transform="scale(1 1) rotate(0) translate(4 624.2)">
<title>compactImpliedRelationshipsDiagram</title>
<polygon fill="#ffffff" stroke="transparent" points="-4,4 -4,-624.2 953,-624.2 953,4 -4,4"/>
<text text-anchor="middle" x="72.4936" y="-7.3" font-family="Helvetica,sans-Serif" font-size="11.00" fill="#000000">Generated by SchemaSpy</text>
<!-- resync_audit -->
<g id="node1" class="node">
<title>resync_audit</title>
<g id="a_node1"><a xlink:href="../../tables/resync_audit.html" xlink:title="resync_audit" target="_top">
<polygon fill="#ffffff" stroke="transparent" points="449,-145.7 449,-250.7 674,-250.7 674,-145.7 449,-145.7"/>
<polygon fill="#f5f5f5" stroke="transparent" points="449.5,-227.2 449.5,-250.2 674.5,-250.2 674.5,-227.2 449.5,-227.2"/>
<polygon fill="none" stroke="#000000" points="449.5,-227.2 449.5,-250.2 674.5,-250.2 674.5,-227.2 449.5,-227.2"/>
<text text-anchor="start" x="454.5" y="-235.8" font-family="Helvetica,sans-Serif" font-weight="bold" font-size="11.00" fill="#000000">resync_audit</text>
<text text-anchor="start" x="639.5437" y="-235.3" font-family="Helvetica,sans-Serif" font-size="11.00" fill="#000000">[table]</text>
<polygon fill="none" stroke="#000000" points="449.5,-205.2 449.5,-227.2 674.5,-227.2 674.5,-205.2 449.5,-205.2"/>
<image xlink:href="../../images/primaryKeys.png" width="11px" height="12px" preserveAspectRatio="xMinYMin meet" x="454.5" y="-222.2"/>
<text text-anchor="start" x="469.5" y="-212.3" font-family="Helvetica,sans-Serif" font-size="11.00" fill="#000000">id</text>
<polygon fill="#ffffff" stroke="transparent" points="449.5,-183.2 449.5,-205.2 674.5,-205.2 674.5,-183.2 449.5,-183.2"/>
<polygon fill="none" stroke="#000000" points="449.5,-183.2 449.5,-205.2 674.5,-205.2 674.5,-183.2 449.5,-183.2"/>
<image xlink:href="../../images/foreignKeys.png" width="11px" height="12px" preserveAspectRatio="xMinYMin meet" x="454.5" y="-200.2"/>
<text text-anchor="start" x="469.5" y="-190.3" font-family="Helvetica,sans-Serif" font-size="11.00" fill="#000000">prison_number</text>
<polygon fill="none" stroke="#000000" points="449.5,-164.2 449.5,-183.2 674.5,-183.2 674.5,-164.2 449.5,-164.2"/>
<text text-anchor="start" x="452.5" y="-170.3" font-family="Helvetica,sans-Serif" font-size="11.00" fill="#000000">...</text>
<polygon fill="#ffffff" stroke="transparent" points="449.5,-145.2 449.5,-164.2 674.5,-164.2 674.5,-145.2 449.5,-145.2"/>
<polygon fill="none" stroke="#000000" points="449.5,-145.2 449.5,-164.2 674.5,-164.2 674.5,-145.2 449.5,-145.2"/>
<polygon fill="#ffffff" stroke="transparent" points="450.5,-146.2 450.5,-163.2 525.5,-163.2 525.5,-146.2 450.5,-146.2"/>
<text text-anchor="start" x="452.5" y="-151.3" font-family="Helvetica,sans-Serif" font-size="11.00" fill="#000000"> &#160;</text>
<polygon fill="#ffffff" stroke="transparent" points="525.5,-146.2 525.5,-163.2 599.5,-163.2 599.5,-146.2 525.5,-146.2"/>
<text text-anchor="start" x="559.4431" y="-151.3" font-family="Helvetica,sans-Serif" font-size="11.00" fill="#000000"> &#160;</text>
<polygon fill="#ffffff" stroke="transparent" points="599.5,-146.2 599.5,-163.2 673.5,-163.2 673.5,-146.2 599.5,-146.2"/>
<text text-anchor="start" x="665.3862" y="-151.3" font-family="Helvetica,sans-Serif" font-size="11.00" fill="#000000"> &#160;</text>
<polygon fill="#000000" stroke="#000000" points="525.5,-146.2 525.5,-163.2 525.5,-163.2 525.5,-146.2 525.5,-146.2"/>
<polygon fill="#000000" stroke="#000000" points="599.5,-146.2 599.5,-163.2 599.5,-163.2 599.5,-146.2 599.5,-146.2"/>
</a>
</g>
</g>
<!-- person_summary -->
<g id="node9" class="node">
<title>person_summary</title>
<g id="a_node9"><a xlink:href="../../tables/person_summary.html" xlink:title="person_summary" target="_top">
<polygon fill="#ffffff" stroke="transparent" points="195,-145.7 195,-228.7 390,-228.7 390,-145.7 195,-145.7"/>
<polygon fill="#f5f5f5" stroke="transparent" points="195.5,-205.2 195.5,-228.2 390.5,-228.2 390.5,-205.2 195.5,-205.2"/>
<polygon fill="none" stroke="#000000" points="195.5,-205.2 195.5,-228.2 390.5,-228.2 390.5,-205.2 195.5,-205.2"/>
<text text-anchor="start" x="200.5" y="-213.8" font-family="Helvetica,sans-Serif" font-weight="bold" font-size="11.00" fill="#000000">person_summary</text>
<text text-anchor="start" x="355.5437" y="-213.3" font-family="Helvetica,sans-Serif" font-size="11.00" fill="#000000">[table]</text>
<polygon fill="none" stroke="#000000" points="195.5,-183.2 195.5,-205.2 390.5,-205.2 390.5,-183.2 195.5,-183.2"/>
<image xlink:href="../../images/primaryKeys.png" width="11px" height="12px" preserveAspectRatio="xMinYMin meet" x="200.5" y="-200.2"/>
<text text-anchor="start" x="215.5" y="-190.3" font-family="Helvetica,sans-Serif" font-size="11.00" fill="#000000">prison_number</text>
<polygon fill="none" stroke="#000000" points="195.5,-164.2 195.5,-183.2 390.5,-183.2 390.5,-164.2 195.5,-164.2"/>
<text text-anchor="start" x="198.5" y="-170.3" font-family="Helvetica,sans-Serif" font-size="11.00" fill="#000000">...</text>
<polygon fill="#ffffff" stroke="transparent" points="195.5,-145.2 195.5,-164.2 390.5,-164.2 390.5,-145.2 195.5,-145.2"/>
<polygon fill="none" stroke="#000000" points="195.5,-145.2 195.5,-164.2 390.5,-164.2 390.5,-145.2 195.5,-145.2"/>
<polygon fill="#ffffff" stroke="transparent" points="196.5,-146.2 196.5,-163.2 258.5,-163.2 258.5,-146.2 196.5,-146.2"/>
<text text-anchor="start" x="198.5" y="-151.3" font-family="Helvetica,sans-Serif" font-size="11.00" fill="#000000"> &#160;</text>
<polygon fill="#ffffff" stroke="transparent" points="258.5,-146.2 258.5,-163.2 319.5,-163.2 319.5,-146.2 258.5,-146.2"/>
<text text-anchor="start" x="285.9431" y="-151.3" font-family="Helvetica,sans-Serif" font-size="11.00" fill="#000000"> &#160;</text>
<polygon fill="#ffffff" stroke="transparent" points="319.5,-146.2 319.5,-163.2 389.5,-163.2 389.5,-146.2 319.5,-146.2"/>
<text text-anchor="start" x="371.9053" y="-151.3" font-family="Helvetica,sans-Serif" font-size="11.00" fill="#000000">1 &gt;</text>
<polygon fill="#000000" stroke="#000000" points="258.5,-146.2 258.5,-163.2 258.5,-163.2 258.5,-146.2 258.5,-146.2"/>
<polygon fill="#000000" stroke="#000000" points="319.5,-146.2 319.5,-163.2 319.5,-163.2 319.5,-146.2 319.5,-146.2"/>
</a>
</g>
</g>
<!-- resync_audit&#45;&gt;person_summary -->
<g id="edge8" class="edge">
<title>resync_audit:w&#45;&gt;person_summary:e</title>
<path fill="none" stroke="#000000" stroke-dasharray="5,2" d="M434.7032,-194.2C419.4686,-194.2 410.9861,-194.2 390.5,-194.2"/>
<polygon fill="#000000" stroke="#000000" points="441.5,-194.2001 449.5,-197.8 445.5,-194.2 449.5,-194.2 449.5,-194.2 449.5,-194.2 445.5,-194.2 449.5,-190.6 441.5,-194.2001 441.5,-194.2001"/>
<ellipse fill="none" stroke="#000000" cx="438.3" cy="-194.2001" rx="3.2" ry="3.2"/>
</g>
<!-- alert_code_privileged_user -->
<g id="node2" class="node">
<title>alert_code_privileged_user</title>
<g id="a_node2"><a xlink:href="../../tables/alert_code_privileged_user.html" xlink:title="alert_code_privileged_user" target="_top">
<polygon fill="#ffffff" stroke="transparent" points="445,-530.2 445,-616.2 678,-616.2 678,-530.2 445,-530.2"/>
<polygon fill="#f5f5f5" stroke="transparent" points="445.5,-593.2 445.5,-616.2 678.5,-616.2 678.5,-593.2 445.5,-593.2"/>
<polygon fill="none" stroke="#000000" points="445.5,-593.2 445.5,-616.2 678.5,-616.2 678.5,-593.2 445.5,-593.2"/>
<text text-anchor="start" x="450.5" y="-601.8" font-family="Helvetica,sans-Serif" font-weight="bold" font-size="11.00" fill="#000000">alert_code_privileged_user</text>
<text text-anchor="start" x="644.0219" y="-601.3" font-family="Helvetica,sans-Serif" font-size="11.00" fill="#000000">[table]</text>
<polygon fill="none" stroke="#000000" points="445.5,-571.2 445.5,-593.2 678.5,-593.2 678.5,-571.2 445.5,-571.2"/>
<image xlink:href="../../images/primaryKeys.png" width="11px" height="12px" preserveAspectRatio="xMinYMin meet" x="450.5" y="-588.2"/>
<text text-anchor="start" x="474.5" y="-578.3" font-family="Helvetica,sans-Serif" font-size="11.00" fill="#000000">alert_code_id</text>
<polygon fill="none" stroke="#000000" points="445.5,-549.2 445.5,-571.2 678.5,-571.2 678.5,-549.2 445.5,-549.2"/>
<image xlink:href="../../images/primaryKeys.png" width="11px" height="12px" preserveAspectRatio="xMinYMin meet" x="450.5" y="-566.2"/>
<text text-anchor="start" x="474.5" y="-556.3" font-family="Helvetica,sans-Serif" font-size="11.00" fill="#000000">username</text>
<polygon fill="#ffffff" stroke="transparent" points="445.5,-530.2 445.5,-549.2 678.5,-549.2 678.5,-530.2 445.5,-530.2"/>
<polygon fill="none" stroke="#000000" points="445.5,-530.2 445.5,-549.2 678.5,-549.2 678.5,-530.2 445.5,-530.2"/>
<polygon fill="#ffffff" stroke="transparent" points="446.5,-531.2 446.5,-548.2 529.5,-548.2 529.5,-531.2 446.5,-531.2"/>
<text text-anchor="start" x="448.5" y="-536.3" font-family="Helvetica,sans-Serif" font-size="11.00" fill="#000000">&lt; 1</text>
<polygon fill="#ffffff" stroke="transparent" points="529.5,-531.2 529.5,-548.2 603.5,-548.2 603.5,-531.2 529.5,-531.2"/>
<text text-anchor="start" x="563.4431" y="-536.3" font-family="Helvetica,sans-Serif" font-size="11.00" fill="#000000"> &#160;</text>
<polygon fill="#ffffff" stroke="transparent" points="603.5,-531.2 603.5,-548.2 677.5,-548.2 677.5,-531.2 603.5,-531.2"/>
<text text-anchor="start" x="669.3862" y="-536.3" font-family="Helvetica,sans-Serif" font-size="11.00" fill="#000000"> &#160;</text>
<polygon fill="#000000" stroke="#000000" points="529.5,-531.2 529.5,-548.2 529.5,-548.2 529.5,-531.2 529.5,-531.2"/>
<polygon fill="#000000" stroke="#000000" points="603.5,-531.2 603.5,-548.2 603.5,-548.2 603.5,-531.2 603.5,-531.2"/>
</a>
</g>
</g>
<!-- alert_code -->
<g id="node4" class="node">
<title>alert_code</title>
<g id="a_node4"><a xlink:href="../../tables/alert_code.html" xlink:title="alert_code" target="_top">
<polygon fill="#ffffff" stroke="transparent" points="226.5,-358.7 226.5,-551.7 358.5,-551.7 358.5,-358.7 226.5,-358.7"/>
<polygon fill="#f5f5f5" stroke="transparent" points="226.5,-528.2 226.5,-551.2 358.5,-551.2 358.5,-528.2 226.5,-528.2"/>
<polygon fill="none" stroke="#000000" points="226.5,-528.2 226.5,-551.2 358.5,-551.2 358.5,-528.2 226.5,-528.2"/>
<text text-anchor="start" x="231.5" y="-536.8" font-family="Helvetica,sans-Serif" font-weight="bold" font-size="11.00" fill="#000000">alert_code</text>
<text text-anchor="start" x="323.5437" y="-536.3" font-family="Helvetica,sans-Serif" font-size="11.00" fill="#000000">[table]</text>
<polygon fill="none" stroke="#000000" points="226.5,-506.2 226.5,-528.2 358.5,-528.2 358.5,-506.2 226.5,-506.2"/>
<image xlink:href="../../images/primaryKeys.png" width="11px" height="12px" preserveAspectRatio="xMinYMin meet" x="231.5" y="-523.2"/>
<text text-anchor="start" x="246.5" y="-513.3" font-family="Helvetica,sans-Serif" font-size="11.00" fill="#000000">alert_code_id</text>
<polygon fill="#ffffff" stroke="transparent" points="226.5,-484.2 226.5,-506.2 358.5,-506.2 358.5,-484.2 226.5,-484.2"/>
<polygon fill="none" stroke="#000000" points="226.5,-484.2 226.5,-506.2 358.5,-506.2 358.5,-484.2 226.5,-484.2"/>
<image xlink:href="../../images/foreignKeys.png" width="11px" height="12px" preserveAspectRatio="xMinYMin meet" x="231.5" y="-501.2"/>
<text text-anchor="start" x="246.5" y="-491.3" font-family="Helvetica,sans-Serif" font-size="11.00" fill="#000000">alert_type_id</text>
<polygon fill="#ffffff" stroke="transparent" points="226.5,-462.2 226.5,-484.2 358.5,-484.2 358.5,-462.2 226.5,-462.2"/>
<polygon fill="none" stroke="#000000" points="226.5,-462.2 226.5,-484.2 358.5,-484.2 358.5,-462.2 226.5,-462.2"/>
<text text-anchor="start" x="246.5" y="-469.3" font-family="Helvetica,sans-Serif" font-size="11.00" fill="#000000">code</text>
<polygon fill="#ffffff" stroke="transparent" points="226.5,-440.2 226.5,-462.2 358.5,-462.2 358.5,-440.2 226.5,-440.2"/>
<polygon fill="none" stroke="#000000" points="226.5,-440.2 226.5,-462.2 358.5,-462.2 358.5,-440.2 226.5,-440.2"/>
<text text-anchor="start" x="246.5" y="-447.3" font-family="Helvetica,sans-Serif" font-size="11.00" fill="#000000">list_sequence</text>
<polygon fill="#ffffff" stroke="transparent" points="226.5,-418.2 226.5,-440.2 358.5,-440.2 358.5,-418.2 226.5,-418.2"/>
<polygon fill="none" stroke="#000000" points="226.5,-418.2 226.5,-440.2 358.5,-440.2 358.5,-418.2 226.5,-418.2"/>
<text text-anchor="start" x="246.5" y="-425.3" font-family="Helvetica,sans-Serif" font-size="11.00" fill="#000000">created_at</text>
<polygon fill="#ffffff" stroke="transparent" points="226.5,-396.2 226.5,-418.2 358.5,-418.2 358.5,-396.2 226.5,-396.2"/>
<polygon fill="none" stroke="#000000" points="226.5,-396.2 226.5,-418.2 358.5,-418.2 358.5,-396.2 226.5,-396.2"/>
<text text-anchor="start" x="246.5" y="-403.3" font-family="Helvetica,sans-Serif" font-size="11.00" fill="#000000">deactivated_at</text>
<polygon fill="none" stroke="#000000" points="226.5,-377.2 226.5,-396.2 358.5,-396.2 358.5,-377.2 226.5,-377.2"/>
<text text-anchor="start" x="229.5" y="-383.3" font-family="Helvetica,sans-Serif" font-size="11.00" fill="#000000">...</text>
<polygon fill="#ffffff" stroke="transparent" points="226.5,-358.2 226.5,-377.2 358.5,-377.2 358.5,-358.2 226.5,-358.2"/>
<polygon fill="none" stroke="#000000" points="226.5,-358.2 226.5,-377.2 358.5,-377.2 358.5,-358.2 226.5,-358.2"/>
<polygon fill="#ffffff" stroke="transparent" points="227.5,-359.2 227.5,-376.2 261.5,-376.2 261.5,-359.2 227.5,-359.2"/>
<text text-anchor="start" x="229.5" y="-364.3" font-family="Helvetica,sans-Serif" font-size="11.00" fill="#000000">&lt; 1</text>
<polygon fill="#ffffff" stroke="transparent" points="261.5,-359.2 261.5,-376.2 324.5,-376.2 324.5,-359.2 261.5,-359.2"/>
<text text-anchor="start" x="270.6904" y="-364.3" font-family="Helvetica,sans-Serif" font-size="11.00" fill="#000000">213 rows</text>
<polygon fill="#ffffff" stroke="transparent" points="324.5,-359.2 324.5,-376.2 357.5,-376.2 357.5,-359.2 324.5,-359.2"/>
<text text-anchor="start" x="339.9053" y="-364.3" font-family="Helvetica,sans-Serif" font-size="11.00" fill="#000000">2 &gt;</text>
<polygon fill="#000000" stroke="#000000" points="261.5,-359.2 261.5,-376.2 261.5,-376.2 261.5,-359.2 261.5,-359.2"/>
<polygon fill="#000000" stroke="#000000" points="324.5,-359.2 324.5,-376.2 324.5,-376.2 324.5,-359.2 324.5,-359.2"/>
</a>
</g>
</g>
<!-- alert_code_privileged_user&#45;&gt;alert_code -->
<g id="edge4" class="edge">
<title>alert_code_privileged_user:w&#45;&gt;alert_code:e</title>
<path fill="none" stroke="#000000" d="M431.154,-579.8866C398.6515,-568.3076 401.299,-517.2 358.5,-517.2"/>
<polygon fill="#000000" stroke="#000000" points="437.602,-580.9264 444.9269,-585.7541 441.551,-581.5632 445.5,-582.2 445.5,-582.2 445.5,-582.2 441.551,-581.5632 446.0731,-578.6459 437.602,-580.9264 437.602,-580.9264"/>
<ellipse fill="none" stroke="#000000" cx="434.4428" cy="-580.4169" rx="3.2" ry="3.2"/>
</g>
<!-- audit_event -->
<g id="node3" class="node">
<title>audit_event</title>
<g id="a_node3"><a xlink:href="../../tables/audit_event.html" xlink:title="audit_event" target="_top">
<polygon fill="#ffffff" stroke="transparent" points="727,-403.7 727,-574.7 941,-574.7 941,-403.7 727,-403.7"/>
<polygon fill="#f5f5f5" stroke="transparent" points="727,-551.2 727,-574.2 941,-574.2 941,-551.2 727,-551.2"/>
<polygon fill="none" stroke="#000000" points="727,-551.2 727,-574.2 941,-574.2 941,-551.2 727,-551.2"/>
<text text-anchor="start" x="732" y="-559.8" font-family="Helvetica,sans-Serif" font-weight="bold" font-size="11.00" fill="#000000">audit_event</text>
<text text-anchor="start" x="906.0437" y="-559.3" font-family="Helvetica,sans-Serif" font-size="11.00" fill="#000000">[table]</text>
<polygon fill="#ffffff" stroke="transparent" points="727,-529.2 727,-551.2 941,-551.2 941,-529.2 727,-529.2"/>
<polygon fill="none" stroke="#000000" points="727,-529.2 727,-551.2 941,-551.2 941,-529.2 727,-529.2"/>
<text text-anchor="start" x="747" y="-536.3" font-family="Helvetica,sans-Serif" font-size="11.00" fill="#000000">action</text>
<polygon fill="#ffffff" stroke="transparent" points="727,-507.2 727,-529.2 941,-529.2 941,-507.2 727,-507.2"/>
<polygon fill="none" stroke="#000000" points="727,-507.2 727,-529.2 941,-529.2 941,-507.2 727,-507.2"/>
<text text-anchor="start" x="747" y="-514.3" font-family="Helvetica,sans-Serif" font-size="11.00" fill="#000000">actioned_at</text>
<polygon fill="#ffffff" stroke="transparent" points="727,-485.2 727,-507.2 941,-507.2 941,-485.2 727,-485.2"/>
<polygon fill="none" stroke="#000000" points="727,-485.2 727,-507.2 941,-507.2 941,-485.2 727,-485.2"/>
<text text-anchor="start" x="747" y="-492.3" font-family="Helvetica,sans-Serif" font-size="11.00" fill="#000000">actioned_by</text>
<polygon fill="#ffffff" stroke="transparent" points="727,-463.2 727,-485.2 941,-485.2 941,-463.2 727,-463.2"/>
<polygon fill="none" stroke="#000000" points="727,-463.2 727,-485.2 941,-485.2 941,-463.2 727,-463.2"/>
<image xlink:href="../../images/foreignKeys.png" width="11px" height="12px" preserveAspectRatio="xMinYMin meet" x="732" y="-480.2"/>
<text text-anchor="start" x="747" y="-470.3" font-family="Helvetica,sans-Serif" font-size="11.00" fill="#000000">alert_id</text>
<polygon fill="none" stroke="#000000" points="727,-441.2 727,-463.2 941,-463.2 941,-441.2 727,-441.2"/>
<image xlink:href="../../images/primaryKeys.png" width="11px" height="12px" preserveAspectRatio="xMinYMin meet" x="732" y="-458.2"/>
<text text-anchor="start" x="747" y="-448.3" font-family="Helvetica,sans-Serif" font-size="11.00" fill="#000000">id</text>
<polygon fill="none" stroke="#000000" points="727,-422.2 727,-441.2 941,-441.2 941,-422.2 727,-422.2"/>
<text text-anchor="start" x="730" y="-428.3" font-family="Helvetica,sans-Serif" font-size="11.00" fill="#000000">...</text>
<polygon fill="#ffffff" stroke="transparent" points="727,-403.2 727,-422.2 941,-422.2 941,-403.2 727,-403.2"/>
<polygon fill="none" stroke="#000000" points="727,-403.2 727,-422.2 941,-422.2 941,-403.2 727,-403.2"/>
<polygon fill="#ffffff" stroke="transparent" points="728,-404.2 728,-421.2 805,-421.2 805,-404.2 728,-404.2"/>
<text text-anchor="start" x="730" y="-409.3" font-family="Helvetica,sans-Serif" font-size="11.00" fill="#000000">&lt; 1</text>
<polygon fill="#ffffff" stroke="transparent" points="805,-404.2 805,-421.2 873,-421.2 873,-404.2 805,-404.2"/>
<text text-anchor="start" x="835.9431" y="-409.3" font-family="Helvetica,sans-Serif" font-size="11.00" fill="#000000"> &#160;</text>
<polygon fill="#ffffff" stroke="transparent" points="873,-404.2 873,-421.2 940,-421.2 940,-404.2 873,-404.2"/>
<text text-anchor="start" x="931.8862" y="-409.3" font-family="Helvetica,sans-Serif" font-size="11.00" fill="#000000"> &#160;</text>
<polygon fill="#000000" stroke="#000000" points="805,-404.2 805,-421.2 805,-421.2 805,-404.2 805,-404.2"/>
<polygon fill="#000000" stroke="#000000" points="873,-404.2 873,-421.2 873,-421.2 873,-404.2 873,-404.2"/>
</a>
</g>
</g>
<!-- alert -->
<g id="node5" class="node">
<title>alert</title>
<g id="a_node5"><a xlink:href="../../tables/alert.html" xlink:title="alert" target="_top">
<polygon fill="#ffffff" stroke="transparent" points="453.5,-271.7 453.5,-508.7 669.5,-508.7 669.5,-271.7 453.5,-271.7"/>
<polygon fill="#f5f5f5" stroke="transparent" points="453.5,-485.2 453.5,-508.2 669.5,-508.2 669.5,-485.2 453.5,-485.2"/>
<polygon fill="none" stroke="#000000" points="453.5,-485.2 453.5,-508.2 669.5,-508.2 669.5,-485.2 453.5,-485.2"/>
<text text-anchor="start" x="458.5" y="-493.8" font-family="Helvetica,sans-Serif" font-weight="bold" font-size="11.00" fill="#000000">alert</text>
<text text-anchor="start" x="634.5437" y="-493.3" font-family="Helvetica,sans-Serif" font-size="11.00" fill="#000000">[table]</text>
<polygon fill="none" stroke="#000000" points="453.5,-463.2 453.5,-485.2 669.5,-485.2 669.5,-463.2 453.5,-463.2"/>
<image xlink:href="../../images/primaryKeys.png" width="11px" height="12px" preserveAspectRatio="xMinYMin meet" x="458.5" y="-480.2"/>
<text text-anchor="start" x="473.5" y="-470.3" font-family="Helvetica,sans-Serif" font-size="11.00" fill="#000000">id</text>
<polygon fill="#ffffff" stroke="transparent" points="453.5,-441.2 453.5,-463.2 669.5,-463.2 669.5,-441.2 453.5,-441.2"/>
<polygon fill="none" stroke="#000000" points="453.5,-441.2 453.5,-463.2 669.5,-463.2 669.5,-441.2 453.5,-441.2"/>
<image xlink:href="../../images/foreignKeys.png" width="11px" height="12px" preserveAspectRatio="xMinYMin meet" x="458.5" y="-458.2"/>
<text text-anchor="start" x="473.5" y="-448.3" font-family="Helvetica,sans-Serif" font-size="11.00" fill="#000000">alert_code_id</text>
<polygon fill="#ffffff" stroke="transparent" points="453.5,-419.2 453.5,-441.2 669.5,-441.2 669.5,-419.2 453.5,-419.2"/>
<polygon fill="none" stroke="#000000" points="453.5,-419.2 453.5,-441.2 669.5,-441.2 669.5,-419.2 453.5,-419.2"/>
<image xlink:href="../../images/foreignKeys.png" width="11px" height="12px" preserveAspectRatio="xMinYMin meet" x="458.5" y="-436.2"/>
<text text-anchor="start" x="473.5" y="-426.3" font-family="Helvetica,sans-Serif" font-size="11.00" fill="#000000">prison_number</text>
<polygon fill="#ffffff" stroke="transparent" points="453.5,-397.2 453.5,-419.2 669.5,-419.2 669.5,-397.2 453.5,-397.2"/>
<polygon fill="none" stroke="#000000" points="453.5,-397.2 453.5,-419.2 669.5,-419.2 669.5,-397.2 453.5,-397.2"/>
<text text-anchor="start" x="473.5" y="-404.3" font-family="Helvetica,sans-Serif" font-size="11.00" fill="#000000">active_from</text>
<polygon fill="#ffffff" stroke="transparent" points="453.5,-375.2 453.5,-397.2 669.5,-397.2 669.5,-375.2 453.5,-375.2"/>
<polygon fill="none" stroke="#000000" points="453.5,-375.2 453.5,-397.2 669.5,-397.2 669.5,-375.2 453.5,-375.2"/>
<text text-anchor="start" x="473.5" y="-382.3" font-family="Helvetica,sans-Serif" font-size="11.00" fill="#000000">active_to</text>
<polygon fill="#ffffff" stroke="transparent" points="453.5,-353.2 453.5,-375.2 669.5,-375.2 669.5,-353.2 453.5,-353.2"/>
<polygon fill="none" stroke="#000000" points="453.5,-353.2 453.5,-375.2 669.5,-375.2 669.5,-353.2 453.5,-353.2"/>
<text text-anchor="start" x="473.5" y="-360.3" font-family="Helvetica,sans-Serif" font-size="11.00" fill="#000000">deleted_at</text>
<polygon fill="#ffffff" stroke="transparent" points="453.5,-331.2 453.5,-353.2 669.5,-353.2 669.5,-331.2 453.5,-331.2"/>
<polygon fill="none" stroke="#000000" points="453.5,-331.2 453.5,-353.2 669.5,-353.2 669.5,-331.2 453.5,-331.2"/>
<text text-anchor="start" x="473.5" y="-338.3" font-family="Helvetica,sans-Serif" font-size="11.00" fill="#000000">created_at</text>
<polygon fill="#ffffff" stroke="transparent" points="453.5,-309.2 453.5,-331.2 669.5,-331.2 669.5,-309.2 453.5,-309.2"/>
<polygon fill="none" stroke="#000000" points="453.5,-309.2 453.5,-331.2 669.5,-331.2 669.5,-309.2 453.5,-309.2"/>
<text text-anchor="start" x="473.5" y="-316.3" font-family="Helvetica,sans-Serif" font-size="11.00" fill="#000000">last_modified_at</text>
<polygon fill="none" stroke="#000000" points="453.5,-290.2 453.5,-309.2 669.5,-309.2 669.5,-290.2 453.5,-290.2"/>
<text text-anchor="start" x="456.5" y="-296.3" font-family="Helvetica,sans-Serif" font-size="11.00" fill="#000000">...</text>
<polygon fill="#ffffff" stroke="transparent" points="453.5,-271.2 453.5,-290.2 669.5,-290.2 669.5,-271.2 453.5,-271.2"/>
<polygon fill="none" stroke="#000000" points="453.5,-271.2 453.5,-290.2 669.5,-290.2 669.5,-271.2 453.5,-271.2"/>
<polygon fill="#ffffff" stroke="transparent" points="454.5,-272.2 454.5,-289.2 529.5,-289.2 529.5,-272.2 454.5,-272.2"/>
<text text-anchor="start" x="456.5" y="-277.3" font-family="Helvetica,sans-Serif" font-size="11.00" fill="#000000">&lt; 1</text>
<polygon fill="#ffffff" stroke="transparent" points="529.5,-272.2 529.5,-289.2 594.5,-289.2 594.5,-272.2 529.5,-272.2"/>
<text text-anchor="start" x="558.9431" y="-277.3" font-family="Helvetica,sans-Serif" font-size="11.00" fill="#000000"> &#160;</text>
<polygon fill="#ffffff" stroke="transparent" points="594.5,-272.2 594.5,-289.2 668.5,-289.2 668.5,-272.2 594.5,-272.2"/>
<text text-anchor="start" x="650.9053" y="-277.3" font-family="Helvetica,sans-Serif" font-size="11.00" fill="#000000">1 &gt;</text>
<polygon fill="#000000" stroke="#000000" points="529.5,-272.2 529.5,-289.2 529.5,-289.2 529.5,-272.2 529.5,-272.2"/>
<polygon fill="#000000" stroke="#000000" points="594.5,-272.2 594.5,-289.2 594.5,-289.2 594.5,-272.2 594.5,-272.2"/>
</a>
</g>
</g>
<!-- audit_event&#45;&gt;alert -->
<g id="edge5" class="edge">
<title>audit_event:w&#45;&gt;alert:e</title>
<path fill="none" stroke="#000000" d="M712.5794,-474.2C697.7322,-474.2 689.4653,-474.2 669.5,-474.2"/>
<polygon fill="#000000" stroke="#000000" points="719,-474.2001 727,-477.8 723,-474.2 727,-474.2 727,-474.2 727,-474.2 723,-474.2 727,-470.6 719,-474.2001 719,-474.2001"/>
<ellipse fill="none" stroke="#000000" cx="715.8" cy="-474.2001" rx="3.2" ry="3.2"/>
</g>
<!-- alert_type -->
<g id="node8" class="node">
<title>alert_type</title>
<g id="a_node8"><a xlink:href="../../tables/alert_type.html" xlink:title="alert_type" target="_top">
<polygon fill="#ffffff" stroke="transparent" points="8,-358.7 8,-529.7 140,-529.7 140,-358.7 8,-358.7"/>
<polygon fill="#f5f5f5" stroke="transparent" points="8,-506.2 8,-529.2 140,-529.2 140,-506.2 8,-506.2"/>
<polygon fill="none" stroke="#000000" points="8,-506.2 8,-529.2 140,-529.2 140,-506.2 8,-506.2"/>
<text text-anchor="start" x="13" y="-514.8" font-family="Helvetica,sans-Serif" font-weight="bold" font-size="11.00" fill="#000000">alert_type</text>
<text text-anchor="start" x="105.0437" y="-514.3" font-family="Helvetica,sans-Serif" font-size="11.00" fill="#000000">[table]</text>
<polygon fill="none" stroke="#000000" points="8,-484.2 8,-506.2 140,-506.2 140,-484.2 8,-484.2"/>
<image xlink:href="../../images/primaryKeys.png" width="11px" height="12px" preserveAspectRatio="xMinYMin meet" x="13" y="-501.2"/>
<text text-anchor="start" x="28" y="-491.3" font-family="Helvetica,sans-Serif" font-size="11.00" fill="#000000">alert_type_id</text>
<polygon fill="#ffffff" stroke="transparent" points="8,-462.2 8,-484.2 140,-484.2 140,-462.2 8,-462.2"/>
<polygon fill="none" stroke="#000000" points="8,-462.2 8,-484.2 140,-484.2 140,-462.2 8,-462.2"/>
<text text-anchor="start" x="28" y="-469.3" font-family="Helvetica,sans-Serif" font-size="11.00" fill="#000000">code</text>
<polygon fill="#ffffff" stroke="transparent" points="8,-440.2 8,-462.2 140,-462.2 140,-440.2 8,-440.2"/>
<polygon fill="none" stroke="#000000" points="8,-440.2 8,-462.2 140,-462.2 140,-440.2 8,-440.2"/>
<text text-anchor="start" x="28" y="-447.3" font-family="Helvetica,sans-Serif" font-size="11.00" fill="#000000">list_sequence</text>
<polygon fill="#ffffff" stroke="transparent" points="8,-418.2 8,-440.2 140,-440.2 140,-418.2 8,-418.2"/>
<polygon fill="none" stroke="#000000" points="8,-418.2 8,-440.2 140,-440.2 140,-418.2 8,-418.2"/>
<text text-anchor="start" x="28" y="-425.3" font-family="Helvetica,sans-Serif" font-size="11.00" fill="#000000">created_at</text>
<polygon fill="#ffffff" stroke="transparent" points="8,-396.2 8,-418.2 140,-418.2 140,-396.2 8,-396.2"/>
<polygon fill="none" stroke="#000000" points="8,-396.2 8,-418.2 140,-418.2 140,-396.2 8,-396.2"/>
<text text-anchor="start" x="28" y="-403.3" font-family="Helvetica,sans-Serif" font-size="11.00" fill="#000000">deactivated_at</text>
<polygon fill="none" stroke="#000000" points="8,-377.2 8,-396.2 140,-396.2 140,-377.2 8,-377.2"/>
<text text-anchor="start" x="11" y="-383.3" font-family="Helvetica,sans-Serif" font-size="11.00" fill="#000000">...</text>
<polygon fill="#ffffff" stroke="transparent" points="8,-358.2 8,-377.2 140,-377.2 140,-358.2 8,-358.2"/>
<polygon fill="none" stroke="#000000" points="8,-358.2 8,-377.2 140,-377.2 140,-358.2 8,-358.2"/>
<polygon fill="#ffffff" stroke="transparent" points="9,-359.2 9,-376.2 50,-376.2 50,-359.2 9,-359.2"/>
<text text-anchor="start" x="11" y="-364.3" font-family="Helvetica,sans-Serif" font-size="11.00" fill="#000000"> &#160;</text>
<polygon fill="#ffffff" stroke="transparent" points="50,-359.2 50,-376.2 90,-376.2 90,-359.2 50,-359.2"/>
<text text-anchor="start" x="66.9431" y="-364.3" font-family="Helvetica,sans-Serif" font-size="11.00" fill="#000000"> &#160;</text>
<polygon fill="#ffffff" stroke="transparent" points="90,-359.2 90,-376.2 139,-376.2 139,-359.2 90,-359.2"/>
<text text-anchor="start" x="121.4053" y="-364.3" font-family="Helvetica,sans-Serif" font-size="11.00" fill="#000000">1 &gt;</text>
<polygon fill="#000000" stroke="#000000" points="50,-359.2 50,-376.2 50,-376.2 50,-359.2 50,-359.2"/>
<polygon fill="#000000" stroke="#000000" points="90,-359.2 90,-376.2 90,-376.2 90,-359.2 90,-359.2"/>
</a>
</g>
</g>
<!-- alert_code&#45;&gt;alert_type -->
<g id="edge3" class="edge">
<title>alert_code:w&#45;&gt;alert_type:e</title>
<path fill="none" stroke="#000000" d="M211.8315,-495.2C184.7822,-495.2 173.0382,-495.2 140,-495.2"/>
<polygon fill="#000000" stroke="#000000" points="218.5,-495.2001 226.5,-498.8 222.5,-495.2 226.5,-495.2 226.5,-495.2 226.5,-495.2 222.5,-495.2 226.5,-491.6 218.5,-495.2001 218.5,-495.2001"/>
<ellipse fill="none" stroke="#000000" cx="215.3" cy="-495.2001" rx="3.2" ry="3.2"/>
</g>
<!-- alert&#45;&gt;alert_code -->
<g id="edge1" class="edge">
<title>alert:w&#45;&gt;alert_code:e</title>
<path fill="none" stroke="#000000" d="M439.1271,-454.2166C403.2339,-465.1879 404.2637,-517.2 358.5,-517.2"/>
<polygon fill="#000000" stroke="#000000" points="445.5776,-453.3116 454.0002,-455.7651 449.5388,-452.7558 453.5,-452.2 453.5,-452.2 453.5,-452.2 449.5388,-452.7558 452.9998,-448.6349 445.5776,-453.3116 445.5776,-453.3116"/>
<ellipse fill="none" stroke="#000000" cx="442.4086" cy="-453.7562" rx="3.2" ry="3.2"/>
</g>
<!-- alert&#45;&gt;person_summary -->
<g id="edge2" class="edge">
<title>alert:w&#45;&gt;person_summary:e</title>
<path fill="none" stroke="#000000" stroke-dasharray="5,2" d="M438.9247,-428.4361C359.9139,-406.8398 493.549,-194.2 390.5,-194.2"/>
<polygon fill="#000000" stroke="#000000" points="445.5579,-429.2388 453.0675,-433.7739 449.529,-429.7194 453.5,-430.2 453.5,-430.2 453.5,-430.2 449.529,-429.7194 453.9325,-426.6261 445.5579,-429.2388 445.5579,-429.2388"/>
<ellipse fill="none" stroke="#000000" cx="442.3811" cy="-428.8543" rx="3.2" ry="3.2"/>
</g>
<!-- bulk_plan -->
<g id="node6" class="node">
<title>bulk_plan</title>
<g id="a_node6"><a xlink:href="../../tables/bulk_plan.html" xlink:title="bulk_plan" target="_top">
<polygon fill="#ffffff" stroke="transparent" points="189,-41.7 189,-124.7 396,-124.7 396,-41.7 189,-41.7"/>
<polygon fill="#f5f5f5" stroke="transparent" points="189.5,-101.2 189.5,-124.2 396.5,-124.2 396.5,-101.2 189.5,-101.2"/>
<polygon fill="none" stroke="#000000" points="189.5,-101.2 189.5,-124.2 396.5,-124.2 396.5,-101.2 189.5,-101.2"/>
<text text-anchor="start" x="194.5" y="-109.8" font-family="Helvetica,sans-Serif" font-weight="bold" font-size="11.00" fill="#000000">bulk_plan</text>
<text text-anchor="start" x="361.5437" y="-109.3" font-family="Helvetica,sans-Serif" font-size="11.00" fill="#000000">[table]</text>
<polygon fill="none" stroke="#000000" points="189.5,-79.2 189.5,-101.2 396.5,-101.2 396.5,-79.2 189.5,-79.2"/>
<image xlink:href="../../images/primaryKeys.png" width="11px" height="12px" preserveAspectRatio="xMinYMin meet" x="194.5" y="-96.2"/>
<text text-anchor="start" x="209.5" y="-86.3" font-family="Helvetica,sans-Serif" font-size="11.00" fill="#000000">id</text>
<polygon fill="none" stroke="#000000" points="189.5,-60.2 189.5,-79.2 396.5,-79.2 396.5,-60.2 189.5,-60.2"/>
<text text-anchor="start" x="192.5" y="-66.3" font-family="Helvetica,sans-Serif" font-size="11.00" fill="#000000">...</text>
<polygon fill="#ffffff" stroke="transparent" points="189.5,-41.2 189.5,-60.2 396.5,-60.2 396.5,-41.2 189.5,-41.2"/>
<polygon fill="none" stroke="#000000" points="189.5,-41.2 189.5,-60.2 396.5,-60.2 396.5,-41.2 189.5,-41.2"/>
<polygon fill="#ffffff" stroke="transparent" points="190.5,-42.2 190.5,-59.2 256.5,-59.2 256.5,-42.2 190.5,-42.2"/>
<text text-anchor="start" x="192.5" y="-47.3" font-family="Helvetica,sans-Serif" font-size="11.00" fill="#000000"> &#160;</text>
<polygon fill="#ffffff" stroke="transparent" points="256.5,-42.2 256.5,-59.2 321.5,-59.2 321.5,-42.2 256.5,-42.2"/>
<text text-anchor="start" x="285.9431" y="-47.3" font-family="Helvetica,sans-Serif" font-size="11.00" fill="#000000"> &#160;</text>
<polygon fill="#ffffff" stroke="transparent" points="321.5,-42.2 321.5,-59.2 395.5,-59.2 395.5,-42.2 321.5,-42.2"/>
<text text-anchor="start" x="377.9053" y="-47.3" font-family="Helvetica,sans-Serif" font-size="11.00" fill="#000000">1 &gt;</text>
<polygon fill="#000000" stroke="#000000" points="256.5,-42.2 256.5,-59.2 256.5,-59.2 256.5,-42.2 256.5,-42.2"/>
<polygon fill="#000000" stroke="#000000" points="321.5,-42.2 321.5,-59.2 321.5,-59.2 321.5,-42.2 321.5,-42.2"/>
</a>
</g>
</g>
<!-- plan_person -->
<g id="node7" class="node">
<title>plan_person</title>
<g id="a_node7"><a xlink:href="../../tables/plan_person.html" xlink:title="plan_person" target="_top">
<polygon fill="#ffffff" stroke="transparent" points="496.5,-38.2 496.5,-124.2 626.5,-124.2 626.5,-38.2 496.5,-38.2"/>
<polygon fill="#f5f5f5" stroke="transparent" points="496.5,-101.2 496.5,-124.2 626.5,-124.2 626.5,-101.2 496.5,-101.2"/>
<polygon fill="none" stroke="#000000" points="496.5,-101.2 496.5,-124.2 626.5,-124.2 626.5,-101.2 496.5,-101.2"/>
<text text-anchor="start" x="501.5" y="-109.8" font-family="Helvetica,sans-Serif" font-weight="bold" font-size="11.00" fill="#000000">plan_person</text>
<text text-anchor="start" x="591.5437" y="-109.3" font-family="Helvetica,sans-Serif" font-size="11.00" fill="#000000">[table]</text>
<polygon fill="none" stroke="#000000" points="496.5,-79.2 496.5,-101.2 626.5,-101.2 626.5,-79.2 496.5,-79.2"/>
<image xlink:href="../../images/foreignKeys.png" width="11px" height="12px" preserveAspectRatio="xMinYMin meet" x="501.5" y="-96.2"/>
<text text-anchor="start" x="516.5" y="-86.3" font-family="Helvetica,sans-Serif" font-size="11.00" fill="#000000">plan_id</text>
<polygon fill="none" stroke="#000000" points="496.5,-57.2 496.5,-79.2 626.5,-79.2 626.5,-57.2 496.5,-57.2"/>
<image xlink:href="../../images/foreignKeys.png" width="11px" height="12px" preserveAspectRatio="xMinYMin meet" x="501.5" y="-74.2"/>
<text text-anchor="start" x="516.5" y="-64.3" font-family="Helvetica,sans-Serif" font-size="11.00" fill="#000000">prison_number</text>
<polygon fill="#ffffff" stroke="transparent" points="496.5,-38.2 496.5,-57.2 626.5,-57.2 626.5,-38.2 496.5,-38.2"/>
<polygon fill="none" stroke="#000000" points="496.5,-38.2 496.5,-57.2 626.5,-57.2 626.5,-38.2 496.5,-38.2"/>
<polygon fill="#ffffff" stroke="transparent" points="497.5,-39.2 497.5,-56.2 546.5,-56.2 546.5,-39.2 497.5,-39.2"/>
<text text-anchor="start" x="499.5" y="-44.3" font-family="Helvetica,sans-Serif" font-size="11.00" fill="#000000">&lt; 2</text>
<polygon fill="#ffffff" stroke="transparent" points="546.5,-39.2 546.5,-56.2 586.5,-56.2 586.5,-39.2 546.5,-39.2"/>
<text text-anchor="start" x="563.4431" y="-44.3" font-family="Helvetica,sans-Serif" font-size="11.00" fill="#000000"> &#160;</text>
<polygon fill="#ffffff" stroke="transparent" points="586.5,-39.2 586.5,-56.2 625.5,-56.2 625.5,-39.2 586.5,-39.2"/>
<text text-anchor="start" x="617.3862" y="-44.3" font-family="Helvetica,sans-Serif" font-size="11.00" fill="#000000"> &#160;</text>
<polygon fill="#000000" stroke="#000000" points="546.5,-39.2 546.5,-56.2 546.5,-56.2 546.5,-39.2 546.5,-39.2"/>
<polygon fill="#000000" stroke="#000000" points="586.5,-39.2 586.5,-56.2 586.5,-56.2 586.5,-39.2 586.5,-39.2"/>
</a>
</g>
</g>
<!-- plan_person&#45;&gt;bulk_plan -->
<g id="edge6" class="edge">
<title>plan_person:w&#45;&gt;bulk_plan:e</title>
<path fill="none" stroke="#000000" d="M481.7022,-90.2C448.8758,-90.2 435.5625,-90.2 396.5,-90.2"/>
<polygon fill="#000000" stroke="#000000" points="488.5,-90.2001 496.5,-93.8 492.5,-90.2 496.5,-90.2 496.5,-90.2 496.5,-90.2 492.5,-90.2 496.5,-86.6 488.5,-90.2001 488.5,-90.2001"/>
<ellipse fill="none" stroke="#000000" cx="485.3" cy="-90.2001" rx="3.2" ry="3.2"/>
</g>
<!-- plan_person&#45;&gt;person_summary -->
<g id="edge7" class="edge">
<title>plan_person:w&#45;&gt;person_summary:e</title>
<path fill="none" stroke="#000000" d="M482.196,-70.2451C457.7081,-78.337 458.9648,-108.9537 437,-135.2 415.5725,-160.8043 423.8874,-194.2 390.5,-194.2"/>
<polygon fill="#000000" stroke="#000000" points="488.5805,-69.3323 497.0096,-71.7638 492.5403,-68.7662 496.5,-68.2 496.5,-68.2 496.5,-68.2 492.5403,-68.7662 495.9904,-64.6362 488.5805,-69.3323 488.5805,-69.3323"/>
<ellipse fill="none" stroke="#000000" cx="485.4127" cy="-69.7853" rx="3.2" ry="3.2"/>
</g>
</g>
</svg>
