<?xml version="1.0" encoding="UTF-8" standalone="no"?>
<!DOCTYPE svg PUBLIC "-//W3C//DTD SVG 1.1//EN"
 "http://www.w3.org/Graphics/SVG/1.1/DTD/svg11.dtd">
<!-- Generated by graphviz version 2.40.1 (20161225.0304)
 -->
<!-- Title: largeRelationshipsDiagram Pages: 1 -->
<svg width="834pt" height="1139pt"
 viewBox="0.00 0.00 834.00 1139.20" xmlns="http://www.w3.org/2000/svg" xmlns:xlink="http://www.w3.org/1999/xlink">
<g id="graph0" class="graph" transform="scale(1 1) rotate(0) translate(4 1135.2)">
<title>largeRelationshipsDiagram</title>
<polygon fill="#ffffff" stroke="transparent" points="-4,4 -4,-1135.2 830,-1135.2 830,4 -4,4"/>
<text text-anchor="middle" x="72.4936" y="-7.3" font-family="Helvetica,sans-Serif" font-size="11.00" fill="#000000">Generated by SchemaSpy</text>
<!-- alert_code_privileged_user -->
<g id="node1" class="node">
<title>alert_code_privileged_user</title>
<g id="a_node1"><a xlink:href="../../tables/alert_code_privileged_user.html" xlink:title="alert_code_privileged_user" target="_top">
<polygon fill="#ffffff" stroke="transparent" points="352,-365.2 352,-451.2 570,-451.2 570,-365.2 352,-365.2"/>
<polygon fill="#f5f5f5" stroke="transparent" points="352,-428.2 352,-451.2 570,-451.2 570,-428.2 352,-428.2"/>
<polygon fill="none" stroke="#000000" points="352,-428.2 352,-451.2 570,-451.2 570,-428.2 352,-428.2"/>
<text text-anchor="start" x="357" y="-436.8" font-family="Helvetica,sans-Serif" font-weight="bold" font-size="11.00" fill="#000000">alert_code_privileged_user</text>
<text text-anchor="start" x="535.5219" y="-436.3" font-family="Helvetica,sans-Serif" font-size="11.00" fill="#000000">[table]</text>
<polygon fill="none" stroke="#000000" points="352,-406.2 352,-428.2 570,-428.2 570,-406.2 352,-406.2"/>
<image xlink:href="../../images/primaryKeys.png" width="11px" height="12px" preserveAspectRatio="xMinYMin meet" x="357" y="-423.2"/>
<text text-anchor="start" x="381" y="-413.3" font-family="Helvetica,sans-Serif" font-size="11.00" fill="#000000">alert_code_id</text>
<polygon fill="none" stroke="#000000" points="352,-384.2 352,-406.2 570,-406.2 570,-384.2 352,-384.2"/>
<image xlink:href="../../images/primaryKeys.png" width="11px" height="12px" preserveAspectRatio="xMinYMin meet" x="357" y="-401.2"/>
<text text-anchor="start" x="381" y="-391.3" font-family="Helvetica,sans-Serif" font-size="11.00" fill="#000000">username</text>
<polygon fill="#ffffff" stroke="transparent" points="352,-365.2 352,-384.2 459,-384.2 459,-365.2 352,-365.2"/>
<polygon fill="none" stroke="#000000" points="352,-365.2 352,-384.2 459,-384.2 459,-365.2 352,-365.2"/>
<text text-anchor="start" x="355" y="-371.3" font-family="Helvetica,sans-Serif" font-size="11.00" fill="#000000">&lt; 1</text>
<polygon fill="#ffffff" stroke="transparent" points="459,-365.2 459,-384.2 514,-384.2 514,-365.2 459,-365.2"/>
<polygon fill="none" stroke="#000000" points="459,-365.2 459,-384.2 514,-384.2 514,-365.2 459,-365.2"/>
<text text-anchor="start" x="504.8862" y="-371.3" font-family="Helvetica,sans-Serif" font-size="11.00" fill="#000000"> &#160;</text>
<polygon fill="#ffffff" stroke="transparent" points="514,-365.2 514,-384.2 570,-384.2 570,-365.2 514,-365.2"/>
<polygon fill="none" stroke="#000000" points="514,-365.2 514,-384.2 570,-384.2 570,-365.2 514,-365.2"/>
<text text-anchor="start" x="560.8862" y="-371.3" font-family="Helvetica,sans-Serif" font-size="11.00" fill="#000000"> &#160;</text>
</a>
</g>
</g>
<!-- alert_code -->
<g id="node3" class="node">
<title>alert_code</title>
<g id="a_node3"><a xlink:href="../../tables/alert_code.html" xlink:title="alert_code" target="_top">
<polygon fill="#ffffff" stroke="transparent" points="180,-80.2 180,-386.2 303,-386.2 303,-80.2 180,-80.2"/>
<polygon fill="#f5f5f5" stroke="transparent" points="180.5,-363.2 180.5,-386.2 303.5,-386.2 303.5,-363.2 180.5,-363.2"/>
<polygon fill="none" stroke="#000000" points="180.5,-363.2 180.5,-386.2 303.5,-386.2 303.5,-363.2 180.5,-363.2"/>
<text text-anchor="start" x="185.5" y="-371.8" font-family="Helvetica,sans-Serif" font-weight="bold" font-size="11.00" fill="#000000">alert_code</text>
<text text-anchor="start" x="268.5437" y="-371.3" font-family="Helvetica,sans-Serif" font-size="11.00" fill="#000000">[table]</text>
<polygon fill="none" stroke="#000000" points="180.5,-341.2 180.5,-363.2 303.5,-363.2 303.5,-341.2 180.5,-341.2"/>
<image xlink:href="../../images/primaryKeys.png" width="11px" height="12px" preserveAspectRatio="xMinYMin meet" x="185.5" y="-358.2"/>
<text text-anchor="start" x="200.5" y="-348.3" font-family="Helvetica,sans-Serif" font-size="11.00" fill="#000000">alert_code_id</text>
<polygon fill="#ffffff" stroke="transparent" points="180.5,-319.2 180.5,-341.2 303.5,-341.2 303.5,-319.2 180.5,-319.2"/>
<polygon fill="none" stroke="#000000" points="180.5,-319.2 180.5,-341.2 303.5,-341.2 303.5,-319.2 180.5,-319.2"/>
<image xlink:href="../../images/foreignKeys.png" width="11px" height="12px" preserveAspectRatio="xMinYMin meet" x="185.5" y="-336.2"/>
<text text-anchor="start" x="200.5" y="-326.3" font-family="Helvetica,sans-Serif" font-size="11.00" fill="#000000">alert_type_id</text>
<polygon fill="#ffffff" stroke="transparent" points="180.5,-297.2 180.5,-319.2 303.5,-319.2 303.5,-297.2 180.5,-297.2"/>
<polygon fill="none" stroke="#000000" points="180.5,-297.2 180.5,-319.2 303.5,-319.2 303.5,-297.2 180.5,-297.2"/>
<text text-anchor="start" x="200.5" y="-304.3" font-family="Helvetica,sans-Serif" font-size="11.00" fill="#000000">code</text>
<polygon fill="none" stroke="#000000" points="180.5,-275.2 180.5,-297.2 303.5,-297.2 303.5,-275.2 180.5,-275.2"/>
<text text-anchor="start" x="200.5" y="-282.3" font-family="Helvetica,sans-Serif" font-size="11.00" fill="#000000">description</text>
<polygon fill="#ffffff" stroke="transparent" points="180.5,-253.2 180.5,-275.2 303.5,-275.2 303.5,-253.2 180.5,-253.2"/>
<polygon fill="none" stroke="#000000" points="180.5,-253.2 180.5,-275.2 303.5,-275.2 303.5,-253.2 180.5,-253.2"/>
<text text-anchor="start" x="200.5" y="-260.3" font-family="Helvetica,sans-Serif" font-size="11.00" fill="#000000">list_sequence</text>
<polygon fill="#ffffff" stroke="transparent" points="180.5,-231.2 180.5,-253.2 303.5,-253.2 303.5,-231.2 180.5,-231.2"/>
<polygon fill="none" stroke="#000000" points="180.5,-231.2 180.5,-253.2 303.5,-253.2 303.5,-231.2 180.5,-231.2"/>
<text text-anchor="start" x="200.5" y="-238.3" font-family="Helvetica,sans-Serif" font-size="11.00" fill="#000000">created_at</text>
<polygon fill="none" stroke="#000000" points="180.5,-209.2 180.5,-231.2 303.5,-231.2 303.5,-209.2 180.5,-209.2"/>
<text text-anchor="start" x="200.5" y="-216.3" font-family="Helvetica,sans-Serif" font-size="11.00" fill="#000000">created_by</text>
<polygon fill="none" stroke="#000000" points="180.5,-187.2 180.5,-209.2 303.5,-209.2 303.5,-187.2 180.5,-187.2"/>
<text text-anchor="start" x="200.5" y="-194.3" font-family="Helvetica,sans-Serif" font-size="11.00" fill="#000000">modified_at</text>
<polygon fill="none" stroke="#000000" points="180.5,-165.2 180.5,-187.2 303.5,-187.2 303.5,-165.2 180.5,-165.2"/>
<text text-anchor="start" x="200.5" y="-172.3" font-family="Helvetica,sans-Serif" font-size="11.00" fill="#000000">modified_by</text>
<polygon fill="#ffffff" stroke="transparent" points="180.5,-143.2 180.5,-165.2 303.5,-165.2 303.5,-143.2 180.5,-143.2"/>
<polygon fill="none" stroke="#000000" points="180.5,-143.2 180.5,-165.2 303.5,-165.2 303.5,-143.2 180.5,-143.2"/>
<text text-anchor="start" x="200.5" y="-150.3" font-family="Helvetica,sans-Serif" font-size="11.00" fill="#000000">deactivated_at</text>
<polygon fill="none" stroke="#000000" points="180.5,-121.2 180.5,-143.2 303.5,-143.2 303.5,-121.2 180.5,-121.2"/>
<text text-anchor="start" x="200.5" y="-128.3" font-family="Helvetica,sans-Serif" font-size="11.00" fill="#000000">deactivated_by</text>
<polygon fill="none" stroke="#000000" points="180.5,-99.2 180.5,-121.2 303.5,-121.2 303.5,-99.2 180.5,-99.2"/>
<text text-anchor="start" x="200.5" y="-106.3" font-family="Helvetica,sans-Serif" font-size="11.00" fill="#000000">restricted</text>
<polygon fill="#ffffff" stroke="transparent" points="180.5,-80.2 180.5,-99.2 216.5,-99.2 216.5,-80.2 180.5,-80.2"/>
<polygon fill="none" stroke="#000000" points="180.5,-80.2 180.5,-99.2 216.5,-99.2 216.5,-80.2 180.5,-80.2"/>
<text text-anchor="start" x="183.5" y="-86.3" font-family="Helvetica,sans-Serif" font-size="11.00" fill="#000000">&lt; 1</text>
<polygon fill="#ffffff" stroke="transparent" points="216.5,-80.2 216.5,-99.2 274.5,-99.2 274.5,-80.2 216.5,-80.2"/>
<polygon fill="none" stroke="#000000" points="216.5,-80.2 216.5,-99.2 274.5,-99.2 274.5,-80.2 216.5,-80.2"/>
<text text-anchor="start" x="226.8807" y="-86.3" font-family="Helvetica,sans-Serif" font-size="11.00" fill="#000000">213 rows</text>
<polygon fill="#ffffff" stroke="transparent" points="274.5,-80.2 274.5,-99.2 303.5,-99.2 303.5,-80.2 274.5,-80.2"/>
<polygon fill="none" stroke="#000000" points="274.5,-80.2 274.5,-99.2 303.5,-99.2 303.5,-80.2 274.5,-80.2"/>
<text text-anchor="start" x="284.9053" y="-86.3" font-family="Helvetica,sans-Serif" font-size="11.00" fill="#000000">2 &gt;</text>
</a>
</g>
</g>
<!-- alert_code_privileged_user&#45;&gt;alert_code -->
<g id="edge3" class="edge">
<title>alert_code_privileged_user:w&#45;&gt;alert_code:e</title>
<path fill="none" stroke="#000000" d="M338.0939,-412.0996C322.3026,-396.7764 333.3494,-352.2 303.5,-352.2"/>
<polygon fill="#000000" stroke="#000000" points="344.4893,-414.4452 350.7603,-420.5798 348.2446,-415.8226 352,-417.2 352,-417.2 352,-417.2 348.2446,-415.8226 353.2397,-413.8202 344.4893,-414.4452 344.4893,-414.4452"/>
<ellipse fill="none" stroke="#000000" cx="341.485" cy="-413.3433" rx="3.2" ry="3.2"/>
</g>
<!-- audit_event -->
<g id="node2" class="node">
<title>audit_event</title>
<g id="a_node2"><a xlink:href="../../tables/audit_event.html" xlink:title="audit_event" target="_top">
<polygon fill="#ffffff" stroke="transparent" points="619,-236.2 619,-586.2 818,-586.2 818,-236.2 619,-236.2"/>
<polygon fill="#f5f5f5" stroke="transparent" points="619.5,-563.2 619.5,-586.2 818.5,-586.2 818.5,-563.2 619.5,-563.2"/>
<polygon fill="none" stroke="#000000" points="619.5,-563.2 619.5,-586.2 818.5,-586.2 818.5,-563.2 619.5,-563.2"/>
<text text-anchor="start" x="624.5" y="-571.8" font-family="Helvetica,sans-Serif" font-weight="bold" font-size="11.00" fill="#000000">audit_event</text>
<text text-anchor="start" x="783.5437" y="-571.3" font-family="Helvetica,sans-Serif" font-size="11.00" fill="#000000">[table]</text>
<polygon fill="#ffffff" stroke="transparent" points="619.5,-541.2 619.5,-563.2 818.5,-563.2 818.5,-541.2 619.5,-541.2"/>
<polygon fill="none" stroke="#000000" points="619.5,-541.2 619.5,-563.2 818.5,-563.2 818.5,-541.2 619.5,-541.2"/>
<text text-anchor="start" x="639.5" y="-548.3" font-family="Helvetica,sans-Serif" font-size="11.00" fill="#000000">action</text>
<polygon fill="none" stroke="#000000" points="619.5,-519.2 619.5,-541.2 818.5,-541.2 818.5,-519.2 619.5,-519.2"/>
<text text-anchor="start" x="639.5" y="-526.3" font-family="Helvetica,sans-Serif" font-size="11.00" fill="#000000">description</text>
<polygon fill="#ffffff" stroke="transparent" points="619.5,-497.2 619.5,-519.2 818.5,-519.2 818.5,-497.2 619.5,-497.2"/>
<polygon fill="none" stroke="#000000" points="619.5,-497.2 619.5,-519.2 818.5,-519.2 818.5,-497.2 619.5,-497.2"/>
<text text-anchor="start" x="639.5" y="-504.3" font-family="Helvetica,sans-Serif" font-size="11.00" fill="#000000">actioned_at</text>
<polygon fill="#ffffff" stroke="transparent" points="619.5,-475.2 619.5,-497.2 818.5,-497.2 818.5,-475.2 619.5,-475.2"/>
<polygon fill="none" stroke="#000000" points="619.5,-475.2 619.5,-497.2 818.5,-497.2 818.5,-475.2 619.5,-475.2"/>
<text text-anchor="start" x="639.5" y="-482.3" font-family="Helvetica,sans-Serif" font-size="11.00" fill="#000000">actioned_by</text>
<polygon fill="none" stroke="#000000" points="619.5,-453.2 619.5,-475.2 818.5,-475.2 818.5,-453.2 619.5,-453.2"/>
<text text-anchor="start" x="639.5" y="-460.3" font-family="Helvetica,sans-Serif" font-size="11.00" fill="#000000">actioned_by_display_name</text>
<polygon fill="none" stroke="#000000" points="619.5,-431.2 619.5,-453.2 818.5,-453.2 818.5,-431.2 619.5,-431.2"/>
<text text-anchor="start" x="639.5" y="-438.3" font-family="Helvetica,sans-Serif" font-size="11.00" fill="#000000">source</text>
<polygon fill="none" stroke="#000000" points="619.5,-409.2 619.5,-431.2 818.5,-431.2 818.5,-409.2 619.5,-409.2"/>
<text text-anchor="start" x="639.5" y="-416.3" font-family="Helvetica,sans-Serif" font-size="11.00" fill="#000000">active_case_load_id</text>
<polygon fill="none" stroke="#000000" points="619.5,-387.2 619.5,-409.2 818.5,-409.2 818.5,-387.2 619.5,-387.2"/>
<text text-anchor="start" x="639.5" y="-394.3" font-family="Helvetica,sans-Serif" font-size="11.00" fill="#000000">description_updated</text>
<polygon fill="none" stroke="#000000" points="619.5,-365.2 619.5,-387.2 818.5,-387.2 818.5,-365.2 619.5,-365.2"/>
<text text-anchor="start" x="639.5" y="-372.3" font-family="Helvetica,sans-Serif" font-size="11.00" fill="#000000">authorised_by_updated</text>
<polygon fill="none" stroke="#000000" points="619.5,-343.2 619.5,-365.2 818.5,-365.2 818.5,-343.2 619.5,-343.2"/>
<text text-anchor="start" x="639.5" y="-350.3" font-family="Helvetica,sans-Serif" font-size="11.00" fill="#000000">active_from_updated</text>
<polygon fill="none" stroke="#000000" points="619.5,-321.2 619.5,-343.2 818.5,-343.2 818.5,-321.2 619.5,-321.2"/>
<text text-anchor="start" x="639.5" y="-328.3" font-family="Helvetica,sans-Serif" font-size="11.00" fill="#000000">active_to_updated</text>
<polygon fill="#ffffff" stroke="transparent" points="619.5,-299.2 619.5,-321.2 818.5,-321.2 818.5,-299.2 619.5,-299.2"/>
<polygon fill="none" stroke="#000000" points="619.5,-299.2 619.5,-321.2 818.5,-321.2 818.5,-299.2 619.5,-299.2"/>
<image xlink:href="../../images/foreignKeys.png" width="11px" height="12px" preserveAspectRatio="xMinYMin meet" x="624.5" y="-316.2"/>
<text text-anchor="start" x="639.5" y="-306.3" font-family="Helvetica,sans-Serif" font-size="11.00" fill="#000000">alert_id</text>
<polygon fill="none" stroke="#000000" points="619.5,-277.2 619.5,-299.2 818.5,-299.2 818.5,-277.2 619.5,-277.2"/>
<text text-anchor="start" x="639.5" y="-284.3" font-family="Helvetica,sans-Serif" font-size="11.00" fill="#000000">version</text>
<polygon fill="none" stroke="#000000" points="619.5,-255.2 619.5,-277.2 818.5,-277.2 818.5,-255.2 619.5,-255.2"/>
<image xlink:href="../../images/primaryKeys.png" width="11px" height="12px" preserveAspectRatio="xMinYMin meet" x="624.5" y="-272.2"/>
<text text-anchor="start" x="639.5" y="-262.3" font-family="Helvetica,sans-Serif" font-size="11.00" fill="#000000">id</text>
<polygon fill="#ffffff" stroke="transparent" points="619.5,-236.2 619.5,-255.2 717.5,-255.2 717.5,-236.2 619.5,-236.2"/>
<polygon fill="none" stroke="#000000" points="619.5,-236.2 619.5,-255.2 717.5,-255.2 717.5,-236.2 619.5,-236.2"/>
<text text-anchor="start" x="622.5" y="-242.3" font-family="Helvetica,sans-Serif" font-size="11.00" fill="#000000">&lt; 1</text>
<polygon fill="#ffffff" stroke="transparent" points="717.5,-236.2 717.5,-255.2 767.5,-255.2 767.5,-236.2 717.5,-236.2"/>
<polygon fill="none" stroke="#000000" points="717.5,-236.2 717.5,-255.2 767.5,-255.2 767.5,-236.2 717.5,-236.2"/>
<text text-anchor="start" x="758.3862" y="-242.3" font-family="Helvetica,sans-Serif" font-size="11.00" fill="#000000"> &#160;</text>
<polygon fill="#ffffff" stroke="transparent" points="767.5,-236.2 767.5,-255.2 818.5,-255.2 818.5,-236.2 767.5,-236.2"/>
<polygon fill="none" stroke="#000000" points="767.5,-236.2 767.5,-255.2 818.5,-255.2 818.5,-236.2 767.5,-236.2"/>
<text text-anchor="start" x="809.3862" y="-242.3" font-family="Helvetica,sans-Serif" font-size="11.00" fill="#000000"> &#160;</text>
</a>
</g>
</g>
<!-- alert -->
<g id="node4" class="node">
<title>alert</title>
<g id="a_node4"><a xlink:href="../../tables/alert.html" xlink:title="alert" target="_top">
<polygon fill="#ffffff" stroke="transparent" points="360.5,-38.2 360.5,-344.2 561.5,-344.2 561.5,-38.2 360.5,-38.2"/>
<polygon fill="#f5f5f5" stroke="transparent" points="361,-321.2 361,-344.2 562,-344.2 562,-321.2 361,-321.2"/>
<polygon fill="none" stroke="#000000" points="361,-321.2 361,-344.2 562,-344.2 562,-321.2 361,-321.2"/>
<text text-anchor="start" x="366" y="-329.8" font-family="Helvetica,sans-Serif" font-weight="bold" font-size="11.00" fill="#000000">alert</text>
<text text-anchor="start" x="527.0437" y="-329.3" font-family="Helvetica,sans-Serif" font-size="11.00" fill="#000000">[table]</text>
<polygon fill="none" stroke="#000000" points="361,-299.2 361,-321.2 562,-321.2 562,-299.2 361,-299.2"/>
<image xlink:href="../../images/primaryKeys.png" width="11px" height="12px" preserveAspectRatio="xMinYMin meet" x="366" y="-316.2"/>
<text text-anchor="start" x="381" y="-306.3" font-family="Helvetica,sans-Serif" font-size="11.00" fill="#000000">id</text>
<polygon fill="#ffffff" stroke="transparent" points="361,-277.2 361,-299.2 562,-299.2 562,-277.2 361,-277.2"/>
<polygon fill="none" stroke="#000000" points="361,-277.2 361,-299.2 562,-299.2 562,-277.2 361,-277.2"/>
<image xlink:href="../../images/foreignKeys.png" width="11px" height="12px" preserveAspectRatio="xMinYMin meet" x="366" y="-294.2"/>
<text text-anchor="start" x="381" y="-284.3" font-family="Helvetica,sans-Serif" font-size="11.00" fill="#000000">alert_code_id</text>
<polygon fill="#ffffff" stroke="transparent" points="361,-255.2 361,-277.2 562,-277.2 562,-255.2 361,-255.2"/>
<polygon fill="none" stroke="#000000" points="361,-255.2 361,-277.2 562,-277.2 562,-255.2 361,-255.2"/>
<image xlink:href="../../images/foreignKeys.png" width="11px" height="12px" preserveAspectRatio="xMinYMin meet" x="366" y="-272.2"/>
<text text-anchor="start" x="381" y="-262.3" font-family="Helvetica,sans-Serif" font-size="11.00" fill="#000000">prison_number</text>
<polygon fill="none" stroke="#000000" points="361,-233.2 361,-255.2 562,-255.2 562,-233.2 361,-233.2"/>
<text text-anchor="start" x="381" y="-240.3" font-family="Helvetica,sans-Serif" font-size="11.00" fill="#000000">description</text>
<polygon fill="none" stroke="#000000" points="361,-211.2 361,-233.2 562,-233.2 562,-211.2 361,-211.2"/>
<text text-anchor="start" x="381" y="-218.3" font-family="Helvetica,sans-Serif" font-size="11.00" fill="#000000">authorised_by</text>
<polygon fill="#ffffff" stroke="transparent" points="361,-189.2 361,-211.2 562,-211.2 562,-189.2 361,-189.2"/>
<polygon fill="none" stroke="#000000" points="361,-189.2 361,-211.2 562,-211.2 562,-189.2 361,-189.2"/>
<text text-anchor="start" x="381" y="-196.3" font-family="Helvetica,sans-Serif" font-size="11.00" fill="#000000">active_from</text>
<polygon fill="#ffffff" stroke="transparent" points="361,-167.2 361,-189.2 562,-189.2 562,-167.2 361,-167.2"/>
<polygon fill="none" stroke="#000000" points="361,-167.2 361,-189.2 562,-189.2 562,-167.2 361,-167.2"/>
<text text-anchor="start" x="381" y="-174.3" font-family="Helvetica,sans-Serif" font-size="11.00" fill="#000000">active_to</text>
<polygon fill="#ffffff" stroke="transparent" points="361,-145.2 361,-167.2 562,-167.2 562,-145.2 361,-145.2"/>
<polygon fill="none" stroke="#000000" points="361,-145.2 361,-167.2 562,-167.2 562,-145.2 361,-145.2"/>
<text text-anchor="start" x="381" y="-152.3" font-family="Helvetica,sans-Serif" font-size="11.00" fill="#000000">deleted_at</text>
<polygon fill="#ffffff" stroke="transparent" points="361,-123.2 361,-145.2 562,-145.2 562,-123.2 361,-123.2"/>
<polygon fill="none" stroke="#000000" points="361,-123.2 361,-145.2 562,-145.2 562,-123.2 361,-123.2"/>
<text text-anchor="start" x="381" y="-130.3" font-family="Helvetica,sans-Serif" font-size="11.00" fill="#000000">created_at</text>
<polygon fill="#ffffff" stroke="transparent" points="361,-101.2 361,-123.2 562,-123.2 562,-101.2 361,-101.2"/>
<polygon fill="none" stroke="#000000" points="361,-101.2 361,-123.2 562,-123.2 562,-101.2 361,-101.2"/>
<text text-anchor="start" x="381" y="-108.3" font-family="Helvetica,sans-Serif" font-size="11.00" fill="#000000">last_modified_at</text>
<polygon fill="none" stroke="#000000" points="361,-79.2 361,-101.2 562,-101.2 562,-79.2 361,-79.2"/>
<text text-anchor="start" x="381" y="-86.3" font-family="Helvetica,sans-Serif" font-size="11.00" fill="#000000">prison_code_when_created</text>
<polygon fill="none" stroke="#000000" points="361,-57.2 361,-79.2 562,-79.2 562,-57.2 361,-57.2"/>
<text text-anchor="start" x="381" y="-64.3" font-family="Helvetica,sans-Serif" font-size="11.00" fill="#000000">version</text>
<polygon fill="#ffffff" stroke="transparent" points="361,-38.2 361,-57.2 455,-57.2 455,-38.2 361,-38.2"/>
<polygon fill="none" stroke="#000000" points="361,-38.2 361,-57.2 455,-57.2 455,-38.2 361,-38.2"/>
<text text-anchor="start" x="364" y="-44.3" font-family="Helvetica,sans-Serif" font-size="11.00" fill="#000000">&lt; 1</text>
<polygon fill="#ffffff" stroke="transparent" points="455,-38.2 455,-57.2 504,-57.2 504,-38.2 455,-38.2"/>
<polygon fill="none" stroke="#000000" points="455,-38.2 455,-57.2 504,-57.2 504,-38.2 455,-38.2"/>
<text text-anchor="start" x="494.8862" y="-44.3" font-family="Helvetica,sans-Serif" font-size="11.00" fill="#000000"> &#160;</text>
<polygon fill="#ffffff" stroke="transparent" points="504,-38.2 504,-57.2 562,-57.2 562,-38.2 504,-38.2"/>
<polygon fill="none" stroke="#000000" points="504,-38.2 504,-57.2 562,-57.2 562,-38.2 504,-38.2"/>
<text text-anchor="start" x="543.4053" y="-44.3" font-family="Helvetica,sans-Serif" font-size="11.00" fill="#000000">1 &gt;</text>
</a>
</g>
</g>
<!-- audit_event&#45;&gt;alert -->
<g id="edge4" class="edge">
<title>audit_event:w&#45;&gt;alert:e</title>
<path fill="none" stroke="#000000" d="M605.0794,-310.2C590.2322,-310.2 581.9653,-310.2 562,-310.2"/>
<polygon fill="#000000" stroke="#000000" points="611.5,-310.2001 619.5,-313.8 615.5,-310.2 619.5,-310.2 619.5,-310.2 619.5,-310.2 615.5,-310.2 619.5,-306.6 611.5,-310.2001 611.5,-310.2001"/>
<ellipse fill="none" stroke="#000000" cx="608.3" cy="-310.2001" rx="3.2" ry="3.2"/>
</g>
<!-- alert_type -->
<g id="node7" class="node">
<title>alert_type</title>
<g id="a_node7"><a xlink:href="../../tables/alert_type.html" xlink:title="alert_type" target="_top">
<polygon fill="#ffffff" stroke="transparent" points="8,-102.2 8,-364.2 131,-364.2 131,-102.2 8,-102.2"/>
<polygon fill="#f5f5f5" stroke="transparent" points="8.5,-341.2 8.5,-364.2 131.5,-364.2 131.5,-341.2 8.5,-341.2"/>
<polygon fill="none" stroke="#000000" points="8.5,-341.2 8.5,-364.2 131.5,-364.2 131.5,-341.2 8.5,-341.2"/>
<text text-anchor="start" x="13.5" y="-349.8" font-family="Helvetica,sans-Serif" font-weight="bold" font-size="11.00" fill="#000000">alert_type</text>
<text text-anchor="start" x="96.5437" y="-349.3" font-family="Helvetica,sans-Serif" font-size="11.00" fill="#000000">[table]</text>
<polygon fill="none" stroke="#000000" points="8.5,-319.2 8.5,-341.2 131.5,-341.2 131.5,-319.2 8.5,-319.2"/>
<image xlink:href="../../images/primaryKeys.png" width="11px" height="12px" preserveAspectRatio="xMinYMin meet" x="13.5" y="-336.2"/>
<text text-anchor="start" x="28.5" y="-326.3" font-family="Helvetica,sans-Serif" font-size="11.00" fill="#000000">alert_type_id</text>
<polygon fill="#ffffff" stroke="transparent" points="8.5,-297.2 8.5,-319.2 131.5,-319.2 131.5,-297.2 8.5,-297.2"/>
<polygon fill="none" stroke="#000000" points="8.5,-297.2 8.5,-319.2 131.5,-319.2 131.5,-297.2 8.5,-297.2"/>
<text text-anchor="start" x="28.5" y="-304.3" font-family="Helvetica,sans-Serif" font-size="11.00" fill="#000000">code</text>
<polygon fill="none" stroke="#000000" points="8.5,-275.2 8.5,-297.2 131.5,-297.2 131.5,-275.2 8.5,-275.2"/>
<text text-anchor="start" x="28.5" y="-282.3" font-family="Helvetica,sans-Serif" font-size="11.00" fill="#000000">description</text>
<polygon fill="#ffffff" stroke="transparent" points="8.5,-253.2 8.5,-275.2 131.5,-275.2 131.5,-253.2 8.5,-253.2"/>
<polygon fill="none" stroke="#000000" points="8.5,-253.2 8.5,-275.2 131.5,-275.2 131.5,-253.2 8.5,-253.2"/>
<text text-anchor="start" x="28.5" y="-260.3" font-family="Helvetica,sans-Serif" font-size="11.00" fill="#000000">list_sequence</text>
<polygon fill="#ffffff" stroke="transparent" points="8.5,-231.2 8.5,-253.2 131.5,-253.2 131.5,-231.2 8.5,-231.2"/>
<polygon fill="none" stroke="#000000" points="8.5,-231.2 8.5,-253.2 131.5,-253.2 131.5,-231.2 8.5,-231.2"/>
<text text-anchor="start" x="28.5" y="-238.3" font-family="Helvetica,sans-Serif" font-size="11.00" fill="#000000">created_at</text>
<polygon fill="none" stroke="#000000" points="8.5,-209.2 8.5,-231.2 131.5,-231.2 131.5,-209.2 8.5,-209.2"/>
<text text-anchor="start" x="28.5" y="-216.3" font-family="Helvetica,sans-Serif" font-size="11.00" fill="#000000">created_by</text>
<polygon fill="none" stroke="#000000" points="8.5,-187.2 8.5,-209.2 131.5,-209.2 131.5,-187.2 8.5,-187.2"/>
<text text-anchor="start" x="28.5" y="-194.3" font-family="Helvetica,sans-Serif" font-size="11.00" fill="#000000">modified_at</text>
<polygon fill="none" stroke="#000000" points="8.5,-165.2 8.5,-187.2 131.5,-187.2 131.5,-165.2 8.5,-165.2"/>
<text text-anchor="start" x="28.5" y="-172.3" font-family="Helvetica,sans-Serif" font-size="11.00" fill="#000000">modified_by</text>
<polygon fill="#ffffff" stroke="transparent" points="8.5,-143.2 8.5,-165.2 131.5,-165.2 131.5,-143.2 8.5,-143.2"/>
<polygon fill="none" stroke="#000000" points="8.5,-143.2 8.5,-165.2 131.5,-165.2 131.5,-143.2 8.5,-143.2"/>
<text text-anchor="start" x="28.5" y="-150.3" font-family="Helvetica,sans-Serif" font-size="11.00" fill="#000000">deactivated_at</text>
<polygon fill="none" stroke="#000000" points="8.5,-121.2 8.5,-143.2 131.5,-143.2 131.5,-121.2 8.5,-121.2"/>
<text text-anchor="start" x="28.5" y="-128.3" font-family="Helvetica,sans-Serif" font-size="11.00" fill="#000000">deactivated_by</text>
<polygon fill="#ffffff" stroke="transparent" points="8.5,-102.2 8.5,-121.2 59.5,-121.2 59.5,-102.2 8.5,-102.2"/>
<polygon fill="none" stroke="#000000" points="8.5,-102.2 8.5,-121.2 59.5,-121.2 59.5,-102.2 8.5,-102.2"/>
<text text-anchor="start" x="11.5" y="-108.3" font-family="Helvetica,sans-Serif" font-size="11.00" fill="#000000"> &#160;</text>
<polygon fill="#ffffff" stroke="transparent" points="59.5,-102.2 59.5,-121.2 90.5,-121.2 90.5,-102.2 59.5,-102.2"/>
<polygon fill="none" stroke="#000000" points="59.5,-102.2 59.5,-121.2 90.5,-121.2 90.5,-102.2 59.5,-102.2"/>
<text text-anchor="start" x="81.3862" y="-108.3" font-family="Helvetica,sans-Serif" font-size="11.00" fill="#000000"> &#160;</text>
<polygon fill="#ffffff" stroke="transparent" points="90.5,-102.2 90.5,-121.2 131.5,-121.2 131.5,-102.2 90.5,-102.2"/>
<polygon fill="none" stroke="#000000" points="90.5,-102.2 90.5,-121.2 131.5,-121.2 131.5,-102.2 90.5,-102.2"/>
<text text-anchor="start" x="112.9053" y="-108.3" font-family="Helvetica,sans-Serif" font-size="11.00" fill="#000000">1 &gt;</text>
</a>
</g>
</g>
<!-- alert_code&#45;&gt;alert_type -->
<g id="edge2" class="edge">
<title>alert_code:w&#45;&gt;alert_type:e</title>
<path fill="none" stroke="#000000" d="M165.9909,-330.2C154.6774,-330.2 147.4931,-330.2 131.5,-330.2"/>
<polygon fill="#000000" stroke="#000000" points="172.5,-330.2001 180.5,-333.8 176.5,-330.2 180.5,-330.2 180.5,-330.2 180.5,-330.2 176.5,-330.2 180.5,-326.6 172.5,-330.2001 172.5,-330.2001"/>
<ellipse fill="none" stroke="#000000" cx="169.3" cy="-330.2001" rx="3.2" ry="3.2"/>
</g>
<!-- alert&#45;&gt;alert_code -->
<g id="edge1" class="edge">
<title>alert:w&#45;&gt;alert_code:e</title>
<path fill="none" stroke="#000000" d="M347.1029,-292.2035C327.2157,-306.2146 335.913,-352.2 303.5,-352.2"/>
<polygon fill="#000000" stroke="#000000" points="353.3126,-290.4146 361.9966,-291.6593 357.1563,-289.3073 361,-288.2 361,-288.2 361,-288.2 357.1563,-289.3073 360.0034,-284.7407 353.3126,-290.4146 353.3126,-290.4146"/>
<ellipse fill="none" stroke="#000000" cx="350.2377" cy="-291.3005" rx="3.2" ry="3.2"/>
</g>
<!-- bulk_plan -->
<g id="node5" class="node">
<title>bulk_plan</title>
<g id="a_node5"><a xlink:href="../../tables/bulk_plan.html" xlink:title="bulk_plan" target="_top">
<polygon fill="#ffffff" stroke="transparent" points="365,-733.2 365,-1127.2 557,-1127.2 557,-733.2 365,-733.2"/>
<polygon fill="#f5f5f5" stroke="transparent" points="365,-1104.2 365,-1127.2 557,-1127.2 557,-1104.2 365,-1104.2"/>
<polygon fill="none" stroke="#000000" points="365,-1104.2 365,-1127.2 557,-1127.2 557,-1104.2 365,-1104.2"/>
<text text-anchor="start" x="370" y="-1112.8" font-family="Helvetica,sans-Serif" font-weight="bold" font-size="11.00" fill="#000000">bulk_plan</text>
<text text-anchor="start" x="522.0437" y="-1112.3" font-family="Helvetica,sans-Serif" font-size="11.00" fill="#000000">[table]</text>
<polygon fill="none" stroke="#000000" points="365,-1082.2 365,-1104.2 557,-1104.2 557,-1082.2 365,-1082.2"/>
<image xlink:href="../../images/primaryKeys.png" width="11px" height="12px" preserveAspectRatio="xMinYMin meet" x="370" y="-1099.2"/>
<text text-anchor="start" x="385" y="-1089.3" font-family="Helvetica,sans-Serif" font-size="11.00" fill="#000000">id</text>
<polygon fill="none" stroke="#000000" points="365,-1060.2 365,-1082.2 557,-1082.2 557,-1060.2 365,-1060.2"/>
<text text-anchor="start" x="385" y="-1067.3" font-family="Helvetica,sans-Serif" font-size="11.00" fill="#000000">alert_code_id</text>
<polygon fill="none" stroke="#000000" points="365,-1038.2 365,-1060.2 557,-1060.2 557,-1038.2 365,-1038.2"/>
<text text-anchor="start" x="385" y="-1045.3" font-family="Helvetica,sans-Serif" font-size="11.00" fill="#000000">description</text>
<polygon fill="none" stroke="#000000" points="365,-1016.2 365,-1038.2 557,-1038.2 557,-1016.2 365,-1016.2"/>
<text text-anchor="start" x="385" y="-1023.3" font-family="Helvetica,sans-Serif" font-size="11.00" fill="#000000">version</text>
<polygon fill="none" stroke="#000000" points="365,-994.2 365,-1016.2 557,-1016.2 557,-994.2 365,-994.2"/>
<text text-anchor="start" x="385" y="-1001.3" font-family="Helvetica,sans-Serif" font-size="11.00" fill="#000000">created_at</text>
<polygon fill="none" stroke="#000000" points="365,-972.2 365,-994.2 557,-994.2 557,-972.2 365,-972.2"/>
<text text-anchor="start" x="385" y="-979.3" font-family="Helvetica,sans-Serif" font-size="11.00" fill="#000000">created_by</text>
<polygon fill="none" stroke="#000000" points="365,-950.2 365,-972.2 557,-972.2 557,-950.2 365,-950.2"/>
<text text-anchor="start" x="385" y="-957.3" font-family="Helvetica,sans-Serif" font-size="11.00" fill="#000000">created_by_display_name</text>
<polygon fill="none" stroke="#000000" points="365,-928.2 365,-950.2 557,-950.2 557,-928.2 365,-928.2"/>
<text text-anchor="start" x="385" y="-935.3" font-family="Helvetica,sans-Serif" font-size="11.00" fill="#000000">cleanup_mode</text>
<polygon fill="none" stroke="#000000" points="365,-906.2 365,-928.2 557,-928.2 557,-906.2 365,-906.2"/>
<text text-anchor="start" x="385" y="-913.3" font-family="Helvetica,sans-Serif" font-size="11.00" fill="#000000">started_at</text>
<polygon fill="none" stroke="#000000" points="365,-884.2 365,-906.2 557,-906.2 557,-884.2 365,-884.2"/>
<text text-anchor="start" x="385" y="-891.3" font-family="Helvetica,sans-Serif" font-size="11.00" fill="#000000">started_by</text>
<polygon fill="none" stroke="#000000" points="365,-862.2 365,-884.2 557,-884.2 557,-862.2 365,-862.2"/>
<text text-anchor="start" x="385" y="-869.3" font-family="Helvetica,sans-Serif" font-size="11.00" fill="#000000">started_by_display_name</text>
<polygon fill="none" stroke="#000000" points="365,-840.2 365,-862.2 557,-862.2 557,-840.2 365,-840.2"/>
<text text-anchor="start" x="385" y="-847.3" font-family="Helvetica,sans-Serif" font-size="11.00" fill="#000000">completed_at</text>
<polygon fill="none" stroke="#000000" points="365,-818.2 365,-840.2 557,-840.2 557,-818.2 365,-818.2"/>
<text text-anchor="start" x="385" y="-825.3" font-family="Helvetica,sans-Serif" font-size="11.00" fill="#000000">created_count</text>
<polygon fill="none" stroke="#000000" points="365,-796.2 365,-818.2 557,-818.2 557,-796.2 365,-796.2"/>
<text text-anchor="start" x="385" y="-803.3" font-family="Helvetica,sans-Serif" font-size="11.00" fill="#000000">updated_count</text>
<polygon fill="none" stroke="#000000" points="365,-774.2 365,-796.2 557,-796.2 557,-774.2 365,-774.2"/>
<text text-anchor="start" x="385" y="-781.3" font-family="Helvetica,sans-Serif" font-size="11.00" fill="#000000">unchanged_count</text>
<polygon fill="none" stroke="#000000" points="365,-752.2 365,-774.2 557,-774.2 557,-752.2 365,-752.2"/>
<text text-anchor="start" x="385" y="-759.3" font-family="Helvetica,sans-Serif" font-size="11.00" fill="#000000">expired_count</text>
<polygon fill="#ffffff" stroke="transparent" points="365,-733.2 365,-752.2 450,-752.2 450,-733.2 365,-733.2"/>
<polygon fill="none" stroke="#000000" points="365,-733.2 365,-752.2 450,-752.2 450,-733.2 365,-733.2"/>
<text text-anchor="start" x="368" y="-739.3" font-family="Helvetica,sans-Serif" font-size="11.00" fill="#000000"> &#160;</text>
<polygon fill="#ffffff" stroke="transparent" points="450,-733.2 450,-752.2 499,-752.2 499,-733.2 450,-733.2"/>
<polygon fill="none" stroke="#000000" points="450,-733.2 450,-752.2 499,-752.2 499,-733.2 450,-733.2"/>
<text text-anchor="start" x="489.8862" y="-739.3" font-family="Helvetica,sans-Serif" font-size="11.00" fill="#000000"> &#160;</text>
<polygon fill="#ffffff" stroke="transparent" points="499,-733.2 499,-752.2 557,-752.2 557,-733.2 499,-733.2"/>
<polygon fill="none" stroke="#000000" points="499,-733.2 499,-752.2 557,-752.2 557,-733.2 499,-733.2"/>
<text text-anchor="start" x="538.4053" y="-739.3" font-family="Helvetica,sans-Serif" font-size="11.00" fill="#000000">1 &gt;</text>
</a>
</g>
</g>
<!-- plan_person -->
<g id="node6" class="node">
<title>plan_person</title>
<g id="a_node6"><a xlink:href="../../tables/plan_person.html" xlink:title="plan_person" target="_top">
<polygon fill="#ffffff" stroke="transparent" points="658,-844.2 658,-930.2 779,-930.2 779,-844.2 658,-844.2"/>
<polygon fill="#f5f5f5" stroke="transparent" points="658.5,-907.2 658.5,-930.2 779.5,-930.2 779.5,-907.2 658.5,-907.2"/>
<polygon fill="none" stroke="#000000" points="658.5,-907.2 658.5,-930.2 779.5,-930.2 779.5,-907.2 658.5,-907.2"/>
<text text-anchor="start" x="663.5" y="-915.8" font-family="Helvetica,sans-Serif" font-weight="bold" font-size="11.00" fill="#000000">plan_person</text>
<text text-anchor="start" x="745.0219" y="-915.3" font-family="Helvetica,sans-Serif" font-size="11.00" fill="#000000">[table]</text>
<polygon fill="none" stroke="#000000" points="658.5,-885.2 658.5,-907.2 779.5,-907.2 779.5,-885.2 658.5,-885.2"/>
<image xlink:href="../../images/foreignKeys.png" width="11px" height="12px" preserveAspectRatio="xMinYMin meet" x="663.5" y="-902.2"/>
<text text-anchor="start" x="678.5" y="-892.3" font-family="Helvetica,sans-Serif" font-size="11.00" fill="#000000">plan_id</text>
<polygon fill="none" stroke="#000000" points="658.5,-863.2 658.5,-885.2 779.5,-885.2 779.5,-863.2 658.5,-863.2"/>
<image xlink:href="../../images/foreignKeys.png" width="11px" height="12px" preserveAspectRatio="xMinYMin meet" x="663.5" y="-880.2"/>
<text text-anchor="start" x="678.5" y="-870.3" font-family="Helvetica,sans-Serif" font-size="11.00" fill="#000000">prison_number</text>
<polygon fill="#ffffff" stroke="transparent" points="658.5,-844.2 658.5,-863.2 717.5,-863.2 717.5,-844.2 658.5,-844.2"/>
<polygon fill="none" stroke="#000000" points="658.5,-844.2 658.5,-863.2 717.5,-863.2 717.5,-844.2 658.5,-844.2"/>
<text text-anchor="start" x="661.5" y="-850.3" font-family="Helvetica,sans-Serif" font-size="11.00" fill="#000000">&lt; 2</text>
<polygon fill="#ffffff" stroke="transparent" points="717.5,-844.2 717.5,-863.2 748.5,-863.2 748.5,-844.2 717.5,-844.2"/>
<polygon fill="none" stroke="#000000" points="717.5,-844.2 717.5,-863.2 748.5,-863.2 748.5,-844.2 717.5,-844.2"/>
<text text-anchor="start" x="739.3862" y="-850.3" font-family="Helvetica,sans-Serif" font-size="11.00" fill="#000000"> &#160;</text>
<polygon fill="#ffffff" stroke="transparent" points="748.5,-844.2 748.5,-863.2 779.5,-863.2 779.5,-844.2 748.5,-844.2"/>
<polygon fill="none" stroke="#000000" points="748.5,-844.2 748.5,-863.2 779.5,-863.2 779.5,-844.2 748.5,-844.2"/>
<text text-anchor="start" x="770.3862" y="-850.3" font-family="Helvetica,sans-Serif" font-size="11.00" fill="#000000"> &#160;</text>
</a>
</g>
</g>
<!-- plan_person&#45;&gt;bulk_plan -->
<g id="edge5" class="edge">
<title>plan_person:w&#45;&gt;bulk_plan:e</title>
<path fill="none" stroke="#000000" d="M644.0179,-897.9031C569.8702,-917.1577 650.1072,-1093.2 557,-1093.2"/>
<polygon fill="#000000" stroke="#000000" points="650.5548,-897.1344 658.9205,-899.7754 654.5274,-896.6672 658.5,-896.2 658.5,-896.2 658.5,-896.2 654.5274,-896.6672 658.0795,-892.6246 650.5548,-897.1344 650.5548,-897.1344"/>
<ellipse fill="none" stroke="#000000" cx="647.3767" cy="-897.5082" rx="3.2" ry="3.2"/>
</g>
<!-- person_summary -->
<g id="node8" class="node">
<title>person_summary</title>
<g id="a_node8"><a xlink:href="../../tables/person_summary.html" xlink:title="person_summary" target="_top">
<polygon fill="#ffffff" stroke="transparent" points="370.5,-472.2 370.5,-712.2 551.5,-712.2 551.5,-472.2 370.5,-472.2"/>
<polygon fill="#f5f5f5" stroke="transparent" points="371,-689.2 371,-712.2 552,-712.2 552,-689.2 371,-689.2"/>
<polygon fill="none" stroke="#000000" points="371,-689.2 371,-712.2 552,-712.2 552,-689.2 371,-689.2"/>
<text text-anchor="start" x="376" y="-697.8" font-family="Helvetica,sans-Serif" font-weight="bold" font-size="11.00" fill="#000000">person_summary</text>
<text text-anchor="start" x="517.0437" y="-697.3" font-family="Helvetica,sans-Serif" font-size="11.00" fill="#000000">[table]</text>
<polygon fill="none" stroke="#000000" points="371,-667.2 371,-689.2 552,-689.2 552,-667.2 371,-667.2"/>
<image xlink:href="../../images/primaryKeys.png" width="11px" height="12px" preserveAspectRatio="xMinYMin meet" x="376" y="-684.2"/>
<text text-anchor="start" x="391" y="-674.3" font-family="Helvetica,sans-Serif" font-size="11.00" fill="#000000">prison_number</text>
<polygon fill="none" stroke="#000000" points="371,-645.2 371,-667.2 552,-667.2 552,-645.2 371,-645.2"/>
<text text-anchor="start" x="391" y="-652.3" font-family="Helvetica,sans-Serif" font-size="11.00" fill="#000000">first_name</text>
<polygon fill="none" stroke="#000000" points="371,-623.2 371,-645.2 552,-645.2 552,-623.2 371,-623.2"/>
<text text-anchor="start" x="391" y="-630.3" font-family="Helvetica,sans-Serif" font-size="11.00" fill="#000000">last_name</text>
<polygon fill="none" stroke="#000000" points="371,-601.2 371,-623.2 552,-623.2 552,-601.2 371,-601.2"/>
<text text-anchor="start" x="391" y="-608.3" font-family="Helvetica,sans-Serif" font-size="11.00" fill="#000000">status</text>
<polygon fill="none" stroke="#000000" points="371,-579.2 371,-601.2 552,-601.2 552,-579.2 371,-579.2"/>
<text text-anchor="start" x="391" y="-586.3" font-family="Helvetica,sans-Serif" font-size="11.00" fill="#000000">restricted_patient</text>
<polygon fill="none" stroke="#000000" points="371,-557.2 371,-579.2 552,-579.2 552,-557.2 371,-557.2"/>
<text text-anchor="start" x="391" y="-564.3" font-family="Helvetica,sans-Serif" font-size="11.00" fill="#000000">prison_code</text>
<polygon fill="none" stroke="#000000" points="371,-535.2 371,-557.2 552,-557.2 552,-535.2 371,-535.2"/>
<text text-anchor="start" x="391" y="-542.3" font-family="Helvetica,sans-Serif" font-size="11.00" fill="#000000">cell_location</text>
<polygon fill="none" stroke="#000000" points="371,-513.2 371,-535.2 552,-535.2 552,-513.2 371,-513.2"/>
<text text-anchor="start" x="391" y="-520.3" font-family="Helvetica,sans-Serif" font-size="11.00" fill="#000000">supporting_prison_code</text>
<polygon fill="none" stroke="#000000" points="371,-491.2 371,-513.2 552,-513.2 552,-491.2 371,-491.2"/>
<text text-anchor="start" x="391" y="-498.3" font-family="Helvetica,sans-Serif" font-size="11.00" fill="#000000">version</text>
<polygon fill="#ffffff" stroke="transparent" points="371,-472.2 371,-491.2 451,-491.2 451,-472.2 371,-472.2"/>
<polygon fill="none" stroke="#000000" points="371,-472.2 371,-491.2 451,-491.2 451,-472.2 371,-472.2"/>
<text text-anchor="start" x="374" y="-478.3" font-family="Helvetica,sans-Serif" font-size="11.00" fill="#000000"> &#160;</text>
<polygon fill="#ffffff" stroke="transparent" points="451,-472.2 451,-491.2 497,-491.2 497,-472.2 451,-472.2"/>
<polygon fill="none" stroke="#000000" points="451,-472.2 451,-491.2 497,-491.2 497,-472.2 451,-472.2"/>
<text text-anchor="start" x="487.8862" y="-478.3" font-family="Helvetica,sans-Serif" font-size="11.00" fill="#000000"> &#160;</text>
<polygon fill="#ffffff" stroke="transparent" points="497,-472.2 497,-491.2 552,-491.2 552,-472.2 497,-472.2"/>
<polygon fill="none" stroke="#000000" points="497,-472.2 497,-491.2 552,-491.2 552,-472.2 497,-472.2"/>
<text text-anchor="start" x="533.4053" y="-478.3" font-family="Helvetica,sans-Serif" font-size="11.00" fill="#000000">1 &gt;</text>
</a>
</g>
</g>
<!-- plan_person&#45;&gt;person_summary -->
<g id="edge6" class="edge">
<title>plan_person:w&#45;&gt;person_summary:e</title>
<path fill="none" stroke="#000000" d="M643.8853,-872.5056C568.8272,-853.3487 645.7185,-678.2 552,-678.2"/>
<polygon fill="#000000" stroke="#000000" points="650.5532,-873.2786 658.0854,-877.776 654.5266,-873.7393 658.5,-874.2 658.5,-874.2 658.5,-874.2 654.5266,-873.7393 658.9146,-870.624 650.5532,-873.2786 650.5532,-873.2786"/>
<ellipse fill="none" stroke="#000000" cx="647.3745" cy="-872.91" rx="3.2" ry="3.2"/>
</g>
</g>
</svg>
