<?xml version="1.0" encoding="UTF-8" standalone="no"?>
<!DOCTYPE svg PUBLIC "-//W3C//DTD SVG 1.1//EN"
 "http://www.w3.org/Graphics/SVG/1.1/DTD/svg11.dtd">
<!-- Generated by graphviz version 2.40.1 (20161225.0304)
 -->
<!-- Title: largeRelationshipsDiagram Pages: 1 -->
<svg width="817pt" height="1146pt"
 viewBox="0.00 0.00 817.00 1146.20" xmlns="http://www.w3.org/2000/svg" xmlns:xlink="http://www.w3.org/1999/xlink">
<g id="graph0" class="graph" transform="scale(1 1) rotate(0) translate(4 1142.2)">
<title>largeRelationshipsDiagram</title>
<polygon fill="#ffffff" stroke="transparent" points="-4,4 -4,-1142.2 813,-1142.2 813,4 -4,4"/>
<text text-anchor="middle" x="72.4936" y="-7.3" font-family="Helvetica,sans-Serif" font-size="11.00" fill="#000000">Generated by SchemaSpy</text>
<!-- audit_event -->
<g id="node1" class="node">
<title>audit_event</title>
<g id="a_node1"><a xlink:href="../../tables/audit_event.html" xlink:title="audit_event" target="_top">
<polygon fill="#ffffff" stroke="transparent" points="602,-236.2 602,-586.2 801,-586.2 801,-236.2 602,-236.2"/>
<polygon fill="#f5f5f5" stroke="transparent" points="602.5,-563.2 602.5,-586.2 801.5,-586.2 801.5,-563.2 602.5,-563.2"/>
<polygon fill="none" stroke="#000000" points="602.5,-563.2 602.5,-586.2 801.5,-586.2 801.5,-563.2 602.5,-563.2"/>
<text text-anchor="start" x="607.5" y="-571.8" font-family="Helvetica,sans-Serif" font-weight="bold" font-size="11.00" fill="#000000">audit_event</text>
<text text-anchor="start" x="766.5437" y="-571.3" font-family="Helvetica,sans-Serif" font-size="11.00" fill="#000000">[table]</text>
<polygon fill="#ffffff" stroke="transparent" points="602.5,-541.2 602.5,-563.2 801.5,-563.2 801.5,-541.2 602.5,-541.2"/>
<polygon fill="none" stroke="#000000" points="602.5,-541.2 602.5,-563.2 801.5,-563.2 801.5,-541.2 602.5,-541.2"/>
<text text-anchor="start" x="622.5" y="-548.3" font-family="Helvetica,sans-Serif" font-size="11.00" fill="#000000">action</text>
<polygon fill="none" stroke="#000000" points="602.5,-519.2 602.5,-541.2 801.5,-541.2 801.5,-519.2 602.5,-519.2"/>
<text text-anchor="start" x="622.5" y="-526.3" font-family="Helvetica,sans-Serif" font-size="11.00" fill="#000000">description</text>
<polygon fill="#ffffff" stroke="transparent" points="602.5,-497.2 602.5,-519.2 801.5,-519.2 801.5,-497.2 602.5,-497.2"/>
<polygon fill="none" stroke="#000000" points="602.5,-497.2 602.5,-519.2 801.5,-519.2 801.5,-497.2 602.5,-497.2"/>
<text text-anchor="start" x="622.5" y="-504.3" font-family="Helvetica,sans-Serif" font-size="11.00" fill="#000000">actioned_at</text>
<polygon fill="#ffffff" stroke="transparent" points="602.5,-475.2 602.5,-497.2 801.5,-497.2 801.5,-475.2 602.5,-475.2"/>
<polygon fill="none" stroke="#000000" points="602.5,-475.2 602.5,-497.2 801.5,-497.2 801.5,-475.2 602.5,-475.2"/>
<text text-anchor="start" x="622.5" y="-482.3" font-family="Helvetica,sans-Serif" font-size="11.00" fill="#000000">actioned_by</text>
<polygon fill="none" stroke="#000000" points="602.5,-453.2 602.5,-475.2 801.5,-475.2 801.5,-453.2 602.5,-453.2"/>
<text text-anchor="start" x="622.5" y="-460.3" font-family="Helvetica,sans-Serif" font-size="11.00" fill="#000000">actioned_by_display_name</text>
<polygon fill="none" stroke="#000000" points="602.5,-431.2 602.5,-453.2 801.5,-453.2 801.5,-431.2 602.5,-431.2"/>
<text text-anchor="start" x="622.5" y="-438.3" font-family="Helvetica,sans-Serif" font-size="11.00" fill="#000000">source</text>
<polygon fill="none" stroke="#000000" points="602.5,-409.2 602.5,-431.2 801.5,-431.2 801.5,-409.2 602.5,-409.2"/>
<text text-anchor="start" x="622.5" y="-416.3" font-family="Helvetica,sans-Serif" font-size="11.00" fill="#000000">active_case_load_id</text>
<polygon fill="none" stroke="#000000" points="602.5,-387.2 602.5,-409.2 801.5,-409.2 801.5,-387.2 602.5,-387.2"/>
<text text-anchor="start" x="622.5" y="-394.3" font-family="Helvetica,sans-Serif" font-size="11.00" fill="#000000">description_updated</text>
<polygon fill="none" stroke="#000000" points="602.5,-365.2 602.5,-387.2 801.5,-387.2 801.5,-365.2 602.5,-365.2"/>
<text text-anchor="start" x="622.5" y="-372.3" font-family="Helvetica,sans-Serif" font-size="11.00" fill="#000000">authorised_by_updated</text>
<polygon fill="none" stroke="#000000" points="602.5,-343.2 602.5,-365.2 801.5,-365.2 801.5,-343.2 602.5,-343.2"/>
<text text-anchor="start" x="622.5" y="-350.3" font-family="Helvetica,sans-Serif" font-size="11.00" fill="#000000">active_from_updated</text>
<polygon fill="none" stroke="#000000" points="602.5,-321.2 602.5,-343.2 801.5,-343.2 801.5,-321.2 602.5,-321.2"/>
<text text-anchor="start" x="622.5" y="-328.3" font-family="Helvetica,sans-Serif" font-size="11.00" fill="#000000">active_to_updated</text>
<polygon fill="#ffffff" stroke="transparent" points="602.5,-299.2 602.5,-321.2 801.5,-321.2 801.5,-299.2 602.5,-299.2"/>
<polygon fill="none" stroke="#000000" points="602.5,-299.2 602.5,-321.2 801.5,-321.2 801.5,-299.2 602.5,-299.2"/>
<image xlink:href="../../images/foreignKeys.png" width="11px" height="12px" preserveAspectRatio="xMinYMin meet" x="607.5" y="-316.2"/>
<text text-anchor="start" x="622.5" y="-306.3" font-family="Helvetica,sans-Serif" font-size="11.00" fill="#000000">alert_id</text>
<polygon fill="none" stroke="#000000" points="602.5,-277.2 602.5,-299.2 801.5,-299.2 801.5,-277.2 602.5,-277.2"/>
<text text-anchor="start" x="622.5" y="-284.3" font-family="Helvetica,sans-Serif" font-size="11.00" fill="#000000">version</text>
<polygon fill="none" stroke="#000000" points="602.5,-255.2 602.5,-277.2 801.5,-277.2 801.5,-255.2 602.5,-255.2"/>
<image xlink:href="../../images/primaryKeys.png" width="11px" height="12px" preserveAspectRatio="xMinYMin meet" x="607.5" y="-272.2"/>
<text text-anchor="start" x="622.5" y="-262.3" font-family="Helvetica,sans-Serif" font-size="11.00" fill="#000000">id</text>
<polygon fill="#ffffff" stroke="transparent" points="602.5,-236.2 602.5,-255.2 700.5,-255.2 700.5,-236.2 602.5,-236.2"/>
<polygon fill="none" stroke="#000000" points="602.5,-236.2 602.5,-255.2 700.5,-255.2 700.5,-236.2 602.5,-236.2"/>
<text text-anchor="start" x="605.5" y="-242.3" font-family="Helvetica,sans-Serif" font-size="11.00" fill="#000000">&lt; 1</text>
<polygon fill="#ffffff" stroke="transparent" points="700.5,-236.2 700.5,-255.2 750.5,-255.2 750.5,-236.2 700.5,-236.2"/>
<polygon fill="none" stroke="#000000" points="700.5,-236.2 700.5,-255.2 750.5,-255.2 750.5,-236.2 700.5,-236.2"/>
<text text-anchor="start" x="741.3862" y="-242.3" font-family="Helvetica,sans-Serif" font-size="11.00" fill="#000000"> &#160;</text>
<polygon fill="#ffffff" stroke="transparent" points="750.5,-236.2 750.5,-255.2 801.5,-255.2 801.5,-236.2 750.5,-236.2"/>
<polygon fill="none" stroke="#000000" points="750.5,-236.2 750.5,-255.2 801.5,-255.2 801.5,-236.2 750.5,-236.2"/>
<text text-anchor="start" x="792.3862" y="-242.3" font-family="Helvetica,sans-Serif" font-size="11.00" fill="#000000"> &#160;</text>
</a>
</g>
</g>
<!-- alert -->
<g id="node3" class="node">
<title>alert</title>
<g id="a_node3"><a xlink:href="../../tables/alert.html" xlink:title="alert" target="_top">
<polygon fill="#ffffff" stroke="transparent" points="352,-38.2 352,-344.2 553,-344.2 553,-38.2 352,-38.2"/>
<polygon fill="#f5f5f5" stroke="transparent" points="352.5,-321.2 352.5,-344.2 553.5,-344.2 553.5,-321.2 352.5,-321.2"/>
<polygon fill="none" stroke="#000000" points="352.5,-321.2 352.5,-344.2 553.5,-344.2 553.5,-321.2 352.5,-321.2"/>
<text text-anchor="start" x="357.5" y="-329.8" font-family="Helvetica,sans-Serif" font-weight="bold" font-size="11.00" fill="#000000">alert</text>
<text text-anchor="start" x="518.5437" y="-329.3" font-family="Helvetica,sans-Serif" font-size="11.00" fill="#000000">[table]</text>
<polygon fill="none" stroke="#000000" points="352.5,-299.2 352.5,-321.2 553.5,-321.2 553.5,-299.2 352.5,-299.2"/>
<image xlink:href="../../images/primaryKeys.png" width="11px" height="12px" preserveAspectRatio="xMinYMin meet" x="357.5" y="-316.2"/>
<text text-anchor="start" x="372.5" y="-306.3" font-family="Helvetica,sans-Serif" font-size="11.00" fill="#000000">id</text>
<polygon fill="#ffffff" stroke="transparent" points="352.5,-277.2 352.5,-299.2 553.5,-299.2 553.5,-277.2 352.5,-277.2"/>
<polygon fill="none" stroke="#000000" points="352.5,-277.2 352.5,-299.2 553.5,-299.2 553.5,-277.2 352.5,-277.2"/>
<image xlink:href="../../images/foreignKeys.png" width="11px" height="12px" preserveAspectRatio="xMinYMin meet" x="357.5" y="-294.2"/>
<text text-anchor="start" x="372.5" y="-284.3" font-family="Helvetica,sans-Serif" font-size="11.00" fill="#000000">alert_code_id</text>
<polygon fill="#ffffff" stroke="transparent" points="352.5,-255.2 352.5,-277.2 553.5,-277.2 553.5,-255.2 352.5,-255.2"/>
<polygon fill="none" stroke="#000000" points="352.5,-255.2 352.5,-277.2 553.5,-277.2 553.5,-255.2 352.5,-255.2"/>
<image xlink:href="../../images/foreignKeys.png" width="11px" height="12px" preserveAspectRatio="xMinYMin meet" x="357.5" y="-272.2"/>
<text text-anchor="start" x="372.5" y="-262.3" font-family="Helvetica,sans-Serif" font-size="11.00" fill="#000000">prison_number</text>
<polygon fill="none" stroke="#000000" points="352.5,-233.2 352.5,-255.2 553.5,-255.2 553.5,-233.2 352.5,-233.2"/>
<text text-anchor="start" x="372.5" y="-240.3" font-family="Helvetica,sans-Serif" font-size="11.00" fill="#000000">description</text>
<polygon fill="none" stroke="#000000" points="352.5,-211.2 352.5,-233.2 553.5,-233.2 553.5,-211.2 352.5,-211.2"/>
<text text-anchor="start" x="372.5" y="-218.3" font-family="Helvetica,sans-Serif" font-size="11.00" fill="#000000">authorised_by</text>
<polygon fill="#ffffff" stroke="transparent" points="352.5,-189.2 352.5,-211.2 553.5,-211.2 553.5,-189.2 352.5,-189.2"/>
<polygon fill="none" stroke="#000000" points="352.5,-189.2 352.5,-211.2 553.5,-211.2 553.5,-189.2 352.5,-189.2"/>
<text text-anchor="start" x="372.5" y="-196.3" font-family="Helvetica,sans-Serif" font-size="11.00" fill="#000000">active_from</text>
<polygon fill="#ffffff" stroke="transparent" points="352.5,-167.2 352.5,-189.2 553.5,-189.2 553.5,-167.2 352.5,-167.2"/>
<polygon fill="none" stroke="#000000" points="352.5,-167.2 352.5,-189.2 553.5,-189.2 553.5,-167.2 352.5,-167.2"/>
<text text-anchor="start" x="372.5" y="-174.3" font-family="Helvetica,sans-Serif" font-size="11.00" fill="#000000">active_to</text>
<polygon fill="#ffffff" stroke="transparent" points="352.5,-145.2 352.5,-167.2 553.5,-167.2 553.5,-145.2 352.5,-145.2"/>
<polygon fill="none" stroke="#000000" points="352.5,-145.2 352.5,-167.2 553.5,-167.2 553.5,-145.2 352.5,-145.2"/>
<text text-anchor="start" x="372.5" y="-152.3" font-family="Helvetica,sans-Serif" font-size="11.00" fill="#000000">deleted_at</text>
<polygon fill="#ffffff" stroke="transparent" points="352.5,-123.2 352.5,-145.2 553.5,-145.2 553.5,-123.2 352.5,-123.2"/>
<polygon fill="none" stroke="#000000" points="352.5,-123.2 352.5,-145.2 553.5,-145.2 553.5,-123.2 352.5,-123.2"/>
<text text-anchor="start" x="372.5" y="-130.3" font-family="Helvetica,sans-Serif" font-size="11.00" fill="#000000">created_at</text>
<polygon fill="#ffffff" stroke="transparent" points="352.5,-101.2 352.5,-123.2 553.5,-123.2 553.5,-101.2 352.5,-101.2"/>
<polygon fill="none" stroke="#000000" points="352.5,-101.2 352.5,-123.2 553.5,-123.2 553.5,-101.2 352.5,-101.2"/>
<text text-anchor="start" x="372.5" y="-108.3" font-family="Helvetica,sans-Serif" font-size="11.00" fill="#000000">last_modified_at</text>
<polygon fill="none" stroke="#000000" points="352.5,-79.2 352.5,-101.2 553.5,-101.2 553.5,-79.2 352.5,-79.2"/>
<text text-anchor="start" x="372.5" y="-86.3" font-family="Helvetica,sans-Serif" font-size="11.00" fill="#000000">prison_code_when_created</text>
<polygon fill="none" stroke="#000000" points="352.5,-57.2 352.5,-79.2 553.5,-79.2 553.5,-57.2 352.5,-57.2"/>
<text text-anchor="start" x="372.5" y="-64.3" font-family="Helvetica,sans-Serif" font-size="11.00" fill="#000000">version</text>
<polygon fill="#ffffff" stroke="transparent" points="352.5,-38.2 352.5,-57.2 446.5,-57.2 446.5,-38.2 352.5,-38.2"/>
<polygon fill="none" stroke="#000000" points="352.5,-38.2 352.5,-57.2 446.5,-57.2 446.5,-38.2 352.5,-38.2"/>
<text text-anchor="start" x="355.5" y="-44.3" font-family="Helvetica,sans-Serif" font-size="11.00" fill="#000000">&lt; 1</text>
<polygon fill="#ffffff" stroke="transparent" points="446.5,-38.2 446.5,-57.2 495.5,-57.2 495.5,-38.2 446.5,-38.2"/>
<polygon fill="none" stroke="#000000" points="446.5,-38.2 446.5,-57.2 495.5,-57.2 495.5,-38.2 446.5,-38.2"/>
<text text-anchor="start" x="486.3862" y="-44.3" font-family="Helvetica,sans-Serif" font-size="11.00" fill="#000000"> &#160;</text>
<polygon fill="#ffffff" stroke="transparent" points="495.5,-38.2 495.5,-57.2 553.5,-57.2 553.5,-38.2 495.5,-38.2"/>
<polygon fill="none" stroke="#000000" points="495.5,-38.2 495.5,-57.2 553.5,-57.2 553.5,-38.2 495.5,-38.2"/>
<text text-anchor="start" x="534.9053" y="-44.3" font-family="Helvetica,sans-Serif" font-size="11.00" fill="#000000">1 &gt;</text>
</a>
</g>
</g>
<!-- audit_event&#45;&gt;alert -->
<g id="edge3" class="edge">
<title>audit_event:w&#45;&gt;alert:e</title>
<path fill="none" stroke="#000000" d="M587.9909,-310.2C576.6774,-310.2 569.4931,-310.2 553.5,-310.2"/>
<polygon fill="#000000" stroke="#000000" points="594.5,-310.2001 602.5,-313.8 598.5,-310.2 602.5,-310.2 602.5,-310.2 602.5,-310.2 598.5,-310.2 602.5,-306.6 594.5,-310.2001 594.5,-310.2001"/>
<ellipse fill="none" stroke="#000000" cx="591.3" cy="-310.2001" rx="3.2" ry="3.2"/>
</g>
<!-- alert_code -->
<g id="node2" class="node">
<title>alert_code</title>
<g id="a_node2"><a xlink:href="../../tables/alert_code.html" xlink:title="alert_code" target="_top">
<polygon fill="#ffffff" stroke="transparent" points="180,-38.2 180,-322.2 303,-322.2 303,-38.2 180,-38.2"/>
<polygon fill="#f5f5f5" stroke="transparent" points="180.5,-299.2 180.5,-322.2 303.5,-322.2 303.5,-299.2 180.5,-299.2"/>
<polygon fill="none" stroke="#000000" points="180.5,-299.2 180.5,-322.2 303.5,-322.2 303.5,-299.2 180.5,-299.2"/>
<text text-anchor="start" x="185.5" y="-307.8" font-family="Helvetica,sans-Serif" font-weight="bold" font-size="11.00" fill="#000000">alert_code</text>
<text text-anchor="start" x="268.5437" y="-307.3" font-family="Helvetica,sans-Serif" font-size="11.00" fill="#000000">[table]</text>
<polygon fill="none" stroke="#000000" points="180.5,-277.2 180.5,-299.2 303.5,-299.2 303.5,-277.2 180.5,-277.2"/>
<image xlink:href="../../images/primaryKeys.png" width="11px" height="12px" preserveAspectRatio="xMinYMin meet" x="185.5" y="-294.2"/>
<text text-anchor="start" x="200.5" y="-284.3" font-family="Helvetica,sans-Serif" font-size="11.00" fill="#000000">alert_code_id</text>
<polygon fill="#ffffff" stroke="transparent" points="180.5,-255.2 180.5,-277.2 303.5,-277.2 303.5,-255.2 180.5,-255.2"/>
<polygon fill="none" stroke="#000000" points="180.5,-255.2 180.5,-277.2 303.5,-277.2 303.5,-255.2 180.5,-255.2"/>
<image xlink:href="../../images/foreignKeys.png" width="11px" height="12px" preserveAspectRatio="xMinYMin meet" x="185.5" y="-272.2"/>
<text text-anchor="start" x="200.5" y="-262.3" font-family="Helvetica,sans-Serif" font-size="11.00" fill="#000000">alert_type_id</text>
<polygon fill="#ffffff" stroke="transparent" points="180.5,-233.2 180.5,-255.2 303.5,-255.2 303.5,-233.2 180.5,-233.2"/>
<polygon fill="none" stroke="#000000" points="180.5,-233.2 180.5,-255.2 303.5,-255.2 303.5,-233.2 180.5,-233.2"/>
<text text-anchor="start" x="200.5" y="-240.3" font-family="Helvetica,sans-Serif" font-size="11.00" fill="#000000">code</text>
<polygon fill="none" stroke="#000000" points="180.5,-211.2 180.5,-233.2 303.5,-233.2 303.5,-211.2 180.5,-211.2"/>
<text text-anchor="start" x="200.5" y="-218.3" font-family="Helvetica,sans-Serif" font-size="11.00" fill="#000000">description</text>
<polygon fill="#ffffff" stroke="transparent" points="180.5,-189.2 180.5,-211.2 303.5,-211.2 303.5,-189.2 180.5,-189.2"/>
<polygon fill="none" stroke="#000000" points="180.5,-189.2 180.5,-211.2 303.5,-211.2 303.5,-189.2 180.5,-189.2"/>
<text text-anchor="start" x="200.5" y="-196.3" font-family="Helvetica,sans-Serif" font-size="11.00" fill="#000000">list_sequence</text>
<polygon fill="#ffffff" stroke="transparent" points="180.5,-167.2 180.5,-189.2 303.5,-189.2 303.5,-167.2 180.5,-167.2"/>
<polygon fill="none" stroke="#000000" points="180.5,-167.2 180.5,-189.2 303.5,-189.2 303.5,-167.2 180.5,-167.2"/>
<text text-anchor="start" x="200.5" y="-174.3" font-family="Helvetica,sans-Serif" font-size="11.00" fill="#000000">created_at</text>
<polygon fill="none" stroke="#000000" points="180.5,-145.2 180.5,-167.2 303.5,-167.2 303.5,-145.2 180.5,-145.2"/>
<text text-anchor="start" x="200.5" y="-152.3" font-family="Helvetica,sans-Serif" font-size="11.00" fill="#000000">created_by</text>
<polygon fill="none" stroke="#000000" points="180.5,-123.2 180.5,-145.2 303.5,-145.2 303.5,-123.2 180.5,-123.2"/>
<text text-anchor="start" x="200.5" y="-130.3" font-family="Helvetica,sans-Serif" font-size="11.00" fill="#000000">modified_at</text>
<polygon fill="none" stroke="#000000" points="180.5,-101.2 180.5,-123.2 303.5,-123.2 303.5,-101.2 180.5,-101.2"/>
<text text-anchor="start" x="200.5" y="-108.3" font-family="Helvetica,sans-Serif" font-size="11.00" fill="#000000">modified_by</text>
<polygon fill="#ffffff" stroke="transparent" points="180.5,-79.2 180.5,-101.2 303.5,-101.2 303.5,-79.2 180.5,-79.2"/>
<polygon fill="none" stroke="#000000" points="180.5,-79.2 180.5,-101.2 303.5,-101.2 303.5,-79.2 180.5,-79.2"/>
<text text-anchor="start" x="200.5" y="-86.3" font-family="Helvetica,sans-Serif" font-size="11.00" fill="#000000">deactivated_at</text>
<polygon fill="none" stroke="#000000" points="180.5,-57.2 180.5,-79.2 303.5,-79.2 303.5,-57.2 180.5,-57.2"/>
<text text-anchor="start" x="200.5" y="-64.3" font-family="Helvetica,sans-Serif" font-size="11.00" fill="#000000">deactivated_by</text>
<polygon fill="#ffffff" stroke="transparent" points="180.5,-38.2 180.5,-57.2 235.5,-57.2 235.5,-38.2 180.5,-38.2"/>
<polygon fill="none" stroke="#000000" points="180.5,-38.2 180.5,-57.2 235.5,-57.2 235.5,-38.2 180.5,-38.2"/>
<text text-anchor="start" x="183.5" y="-44.3" font-family="Helvetica,sans-Serif" font-size="11.00" fill="#000000">&lt; 1</text>
<polygon fill="#ffffff" stroke="transparent" points="235.5,-38.2 235.5,-57.2 264.5,-57.2 264.5,-38.2 235.5,-38.2"/>
<polygon fill="none" stroke="#000000" points="235.5,-38.2 235.5,-57.2 264.5,-57.2 264.5,-38.2 235.5,-38.2"/>
<text text-anchor="start" x="255.3862" y="-44.3" font-family="Helvetica,sans-Serif" font-size="11.00" fill="#000000"> &#160;</text>
<polygon fill="#ffffff" stroke="transparent" points="264.5,-38.2 264.5,-57.2 303.5,-57.2 303.5,-38.2 264.5,-38.2"/>
<polygon fill="none" stroke="#000000" points="264.5,-38.2 264.5,-57.2 303.5,-57.2 303.5,-38.2 264.5,-38.2"/>
<text text-anchor="start" x="284.9053" y="-44.3" font-family="Helvetica,sans-Serif" font-size="11.00" fill="#000000">1 &gt;</text>
</a>
</g>
</g>
<!-- alert_type -->
<g id="node6" class="node">
<title>alert_type</title>
<g id="a_node6"><a xlink:href="../../tables/alert_type.html" xlink:title="alert_type" target="_top">
<polygon fill="#ffffff" stroke="transparent" points="8,-38.2 8,-300.2 131,-300.2 131,-38.2 8,-38.2"/>
<polygon fill="#f5f5f5" stroke="transparent" points="8.5,-277.2 8.5,-300.2 131.5,-300.2 131.5,-277.2 8.5,-277.2"/>
<polygon fill="none" stroke="#000000" points="8.5,-277.2 8.5,-300.2 131.5,-300.2 131.5,-277.2 8.5,-277.2"/>
<text text-anchor="start" x="13.5" y="-285.8" font-family="Helvetica,sans-Serif" font-weight="bold" font-size="11.00" fill="#000000">alert_type</text>
<text text-anchor="start" x="96.5437" y="-285.3" font-family="Helvetica,sans-Serif" font-size="11.00" fill="#000000">[table]</text>
<polygon fill="none" stroke="#000000" points="8.5,-255.2 8.5,-277.2 131.5,-277.2 131.5,-255.2 8.5,-255.2"/>
<image xlink:href="../../images/primaryKeys.png" width="11px" height="12px" preserveAspectRatio="xMinYMin meet" x="13.5" y="-272.2"/>
<text text-anchor="start" x="28.5" y="-262.3" font-family="Helvetica,sans-Serif" font-size="11.00" fill="#000000">alert_type_id</text>
<polygon fill="#ffffff" stroke="transparent" points="8.5,-233.2 8.5,-255.2 131.5,-255.2 131.5,-233.2 8.5,-233.2"/>
<polygon fill="none" stroke="#000000" points="8.5,-233.2 8.5,-255.2 131.5,-255.2 131.5,-233.2 8.5,-233.2"/>
<text text-anchor="start" x="28.5" y="-240.3" font-family="Helvetica,sans-Serif" font-size="11.00" fill="#000000">code</text>
<polygon fill="none" stroke="#000000" points="8.5,-211.2 8.5,-233.2 131.5,-233.2 131.5,-211.2 8.5,-211.2"/>
<text text-anchor="start" x="28.5" y="-218.3" font-family="Helvetica,sans-Serif" font-size="11.00" fill="#000000">description</text>
<polygon fill="#ffffff" stroke="transparent" points="8.5,-189.2 8.5,-211.2 131.5,-211.2 131.5,-189.2 8.5,-189.2"/>
<polygon fill="none" stroke="#000000" points="8.5,-189.2 8.5,-211.2 131.5,-211.2 131.5,-189.2 8.5,-189.2"/>
<text text-anchor="start" x="28.5" y="-196.3" font-family="Helvetica,sans-Serif" font-size="11.00" fill="#000000">list_sequence</text>
<polygon fill="#ffffff" stroke="transparent" points="8.5,-167.2 8.5,-189.2 131.5,-189.2 131.5,-167.2 8.5,-167.2"/>
<polygon fill="none" stroke="#000000" points="8.5,-167.2 8.5,-189.2 131.5,-189.2 131.5,-167.2 8.5,-167.2"/>
<text text-anchor="start" x="28.5" y="-174.3" font-family="Helvetica,sans-Serif" font-size="11.00" fill="#000000">created_at</text>
<polygon fill="none" stroke="#000000" points="8.5,-145.2 8.5,-167.2 131.5,-167.2 131.5,-145.2 8.5,-145.2"/>
<text text-anchor="start" x="28.5" y="-152.3" font-family="Helvetica,sans-Serif" font-size="11.00" fill="#000000">created_by</text>
<polygon fill="none" stroke="#000000" points="8.5,-123.2 8.5,-145.2 131.5,-145.2 131.5,-123.2 8.5,-123.2"/>
<text text-anchor="start" x="28.5" y="-130.3" font-family="Helvetica,sans-Serif" font-size="11.00" fill="#000000">modified_at</text>
<polygon fill="none" stroke="#000000" points="8.5,-101.2 8.5,-123.2 131.5,-123.2 131.5,-101.2 8.5,-101.2"/>
<text text-anchor="start" x="28.5" y="-108.3" font-family="Helvetica,sans-Serif" font-size="11.00" fill="#000000">modified_by</text>
<polygon fill="#ffffff" stroke="transparent" points="8.5,-79.2 8.5,-101.2 131.5,-101.2 131.5,-79.2 8.5,-79.2"/>
<polygon fill="none" stroke="#000000" points="8.5,-79.2 8.5,-101.2 131.5,-101.2 131.5,-79.2 8.5,-79.2"/>
<text text-anchor="start" x="28.5" y="-86.3" font-family="Helvetica,sans-Serif" font-size="11.00" fill="#000000">deactivated_at</text>
<polygon fill="none" stroke="#000000" points="8.5,-57.2 8.5,-79.2 131.5,-79.2 131.5,-57.2 8.5,-57.2"/>
<text text-anchor="start" x="28.5" y="-64.3" font-family="Helvetica,sans-Serif" font-size="11.00" fill="#000000">deactivated_by</text>
<polygon fill="#ffffff" stroke="transparent" points="8.5,-38.2 8.5,-57.2 59.5,-57.2 59.5,-38.2 8.5,-38.2"/>
<polygon fill="none" stroke="#000000" points="8.5,-38.2 8.5,-57.2 59.5,-57.2 59.5,-38.2 8.5,-38.2"/>
<text text-anchor="start" x="11.5" y="-44.3" font-family="Helvetica,sans-Serif" font-size="11.00" fill="#000000"> &#160;</text>
<polygon fill="#ffffff" stroke="transparent" points="59.5,-38.2 59.5,-57.2 90.5,-57.2 90.5,-38.2 59.5,-38.2"/>
<polygon fill="none" stroke="#000000" points="59.5,-38.2 59.5,-57.2 90.5,-57.2 90.5,-38.2 59.5,-38.2"/>
<text text-anchor="start" x="81.3862" y="-44.3" font-family="Helvetica,sans-Serif" font-size="11.00" fill="#000000"> &#160;</text>
<polygon fill="#ffffff" stroke="transparent" points="90.5,-38.2 90.5,-57.2 131.5,-57.2 131.5,-38.2 90.5,-38.2"/>
<polygon fill="none" stroke="#000000" points="90.5,-38.2 90.5,-57.2 131.5,-57.2 131.5,-38.2 90.5,-38.2"/>
<text text-anchor="start" x="112.9053" y="-44.3" font-family="Helvetica,sans-Serif" font-size="11.00" fill="#000000">1 &gt;</text>
</a>
</g>
</g>
<!-- alert_code&#45;&gt;alert_type -->
<g id="edge2" class="edge">
<title>alert_code:w&#45;&gt;alert_type:e</title>
<path fill="none" stroke="#000000" d="M165.9909,-266.2C154.6774,-266.2 147.4931,-266.2 131.5,-266.2"/>
<polygon fill="#000000" stroke="#000000" points="172.5,-266.2001 180.5,-269.8 176.5,-266.2 180.5,-266.2 180.5,-266.2 180.5,-266.2 176.5,-266.2 180.5,-262.6 172.5,-266.2001 172.5,-266.2001"/>
<ellipse fill="none" stroke="#000000" cx="169.3" cy="-266.2001" rx="3.2" ry="3.2"/>
</g>
<!-- alert&#45;&gt;alert_code -->
<g id="edge1" class="edge">
<title>alert:w&#45;&gt;alert_code:e</title>
<path fill="none" stroke="#000000" d="M337.9909,-288.2C326.6774,-288.2 319.4931,-288.2 303.5,-288.2"/>
<polygon fill="#000000" stroke="#000000" points="344.5,-288.2001 352.5,-291.8 348.5,-288.2 352.5,-288.2 352.5,-288.2 352.5,-288.2 348.5,-288.2 352.5,-284.6 344.5,-288.2001 344.5,-288.2001"/>
<ellipse fill="none" stroke="#000000" cx="341.3" cy="-288.2001" rx="3.2" ry="3.2"/>
</g>
<!-- bulk_plan -->
<g id="node4" class="node">
<title>bulk_plan</title>
<g id="a_node4"><a xlink:href="../../tables/bulk_plan.html" xlink:title="bulk_plan" target="_top">
<polygon fill="#ffffff" stroke="transparent" points="356.5,-740.2 356.5,-1134.2 548.5,-1134.2 548.5,-740.2 356.5,-740.2"/>
<polygon fill="#f5f5f5" stroke="transparent" points="356.5,-1111.2 356.5,-1134.2 548.5,-1134.2 548.5,-1111.2 356.5,-1111.2"/>
<polygon fill="none" stroke="#000000" points="356.5,-1111.2 356.5,-1134.2 548.5,-1134.2 548.5,-1111.2 356.5,-1111.2"/>
<text text-anchor="start" x="361.5" y="-1119.8" font-family="Helvetica,sans-Serif" font-weight="bold" font-size="11.00" fill="#000000">bulk_plan</text>
<text text-anchor="start" x="513.5437" y="-1119.3" font-family="Helvetica,sans-Serif" font-size="11.00" fill="#000000">[table]</text>
<polygon fill="none" stroke="#000000" points="356.5,-1089.2 356.5,-1111.2 548.5,-1111.2 548.5,-1089.2 356.5,-1089.2"/>
<image xlink:href="../../images/primaryKeys.png" width="11px" height="12px" preserveAspectRatio="xMinYMin meet" x="361.5" y="-1106.2"/>
<text text-anchor="start" x="376.5" y="-1096.3" font-family="Helvetica,sans-Serif" font-size="11.00" fill="#000000">id</text>
<polygon fill="none" stroke="#000000" points="356.5,-1067.2 356.5,-1089.2 548.5,-1089.2 548.5,-1067.2 356.5,-1067.2"/>
<text text-anchor="start" x="376.5" y="-1074.3" font-family="Helvetica,sans-Serif" font-size="11.00" fill="#000000">alert_code_id</text>
<polygon fill="none" stroke="#000000" points="356.5,-1045.2 356.5,-1067.2 548.5,-1067.2 548.5,-1045.2 356.5,-1045.2"/>
<text text-anchor="start" x="376.5" y="-1052.3" font-family="Helvetica,sans-Serif" font-size="11.00" fill="#000000">description</text>
<polygon fill="none" stroke="#000000" points="356.5,-1023.2 356.5,-1045.2 548.5,-1045.2 548.5,-1023.2 356.5,-1023.2"/>
<text text-anchor="start" x="376.5" y="-1030.3" font-family="Helvetica,sans-Serif" font-size="11.00" fill="#000000">version</text>
<polygon fill="none" stroke="#000000" points="356.5,-1001.2 356.5,-1023.2 548.5,-1023.2 548.5,-1001.2 356.5,-1001.2"/>
<text text-anchor="start" x="376.5" y="-1008.3" font-family="Helvetica,sans-Serif" font-size="11.00" fill="#000000">created_at</text>
<polygon fill="none" stroke="#000000" points="356.5,-979.2 356.5,-1001.2 548.5,-1001.2 548.5,-979.2 356.5,-979.2"/>
<text text-anchor="start" x="376.5" y="-986.3" font-family="Helvetica,sans-Serif" font-size="11.00" fill="#000000">created_by</text>
<polygon fill="none" stroke="#000000" points="356.5,-957.2 356.5,-979.2 548.5,-979.2 548.5,-957.2 356.5,-957.2"/>
<text text-anchor="start" x="376.5" y="-964.3" font-family="Helvetica,sans-Serif" font-size="11.00" fill="#000000">created_by_display_name</text>
<polygon fill="none" stroke="#000000" points="356.5,-935.2 356.5,-957.2 548.5,-957.2 548.5,-935.2 356.5,-935.2"/>
<text text-anchor="start" x="376.5" y="-942.3" font-family="Helvetica,sans-Serif" font-size="11.00" fill="#000000">cleanup_mode</text>
<polygon fill="none" stroke="#000000" points="356.5,-913.2 356.5,-935.2 548.5,-935.2 548.5,-913.2 356.5,-913.2"/>
<text text-anchor="start" x="376.5" y="-920.3" font-family="Helvetica,sans-Serif" font-size="11.00" fill="#000000">started_at</text>
<polygon fill="none" stroke="#000000" points="356.5,-891.2 356.5,-913.2 548.5,-913.2 548.5,-891.2 356.5,-891.2"/>
<text text-anchor="start" x="376.5" y="-898.3" font-family="Helvetica,sans-Serif" font-size="11.00" fill="#000000">started_by</text>
<polygon fill="none" stroke="#000000" points="356.5,-869.2 356.5,-891.2 548.5,-891.2 548.5,-869.2 356.5,-869.2"/>
<text text-anchor="start" x="376.5" y="-876.3" font-family="Helvetica,sans-Serif" font-size="11.00" fill="#000000">started_by_display_name</text>
<polygon fill="none" stroke="#000000" points="356.5,-847.2 356.5,-869.2 548.5,-869.2 548.5,-847.2 356.5,-847.2"/>
<text text-anchor="start" x="376.5" y="-854.3" font-family="Helvetica,sans-Serif" font-size="11.00" fill="#000000">completed_at</text>
<polygon fill="none" stroke="#000000" points="356.5,-825.2 356.5,-847.2 548.5,-847.2 548.5,-825.2 356.5,-825.2"/>
<text text-anchor="start" x="376.5" y="-832.3" font-family="Helvetica,sans-Serif" font-size="11.00" fill="#000000">created_count</text>
<polygon fill="none" stroke="#000000" points="356.5,-803.2 356.5,-825.2 548.5,-825.2 548.5,-803.2 356.5,-803.2"/>
<text text-anchor="start" x="376.5" y="-810.3" font-family="Helvetica,sans-Serif" font-size="11.00" fill="#000000">updated_count</text>
<polygon fill="none" stroke="#000000" points="356.5,-781.2 356.5,-803.2 548.5,-803.2 548.5,-781.2 356.5,-781.2"/>
<text text-anchor="start" x="376.5" y="-788.3" font-family="Helvetica,sans-Serif" font-size="11.00" fill="#000000">unchanged_count</text>
<polygon fill="none" stroke="#000000" points="356.5,-759.2 356.5,-781.2 548.5,-781.2 548.5,-759.2 356.5,-759.2"/>
<text text-anchor="start" x="376.5" y="-766.3" font-family="Helvetica,sans-Serif" font-size="11.00" fill="#000000">expired_count</text>
<polygon fill="#ffffff" stroke="transparent" points="356.5,-740.2 356.5,-759.2 441.5,-759.2 441.5,-740.2 356.5,-740.2"/>
<polygon fill="none" stroke="#000000" points="356.5,-740.2 356.5,-759.2 441.5,-759.2 441.5,-740.2 356.5,-740.2"/>
<text text-anchor="start" x="359.5" y="-746.3" font-family="Helvetica,sans-Serif" font-size="11.00" fill="#000000"> &#160;</text>
<polygon fill="#ffffff" stroke="transparent" points="441.5,-740.2 441.5,-759.2 490.5,-759.2 490.5,-740.2 441.5,-740.2"/>
<polygon fill="none" stroke="#000000" points="441.5,-740.2 441.5,-759.2 490.5,-759.2 490.5,-740.2 441.5,-740.2"/>
<text text-anchor="start" x="481.3862" y="-746.3" font-family="Helvetica,sans-Serif" font-size="11.00" fill="#000000"> &#160;</text>
<polygon fill="#ffffff" stroke="transparent" points="490.5,-740.2 490.5,-759.2 548.5,-759.2 548.5,-740.2 490.5,-740.2"/>
<polygon fill="none" stroke="#000000" points="490.5,-740.2 490.5,-759.2 548.5,-759.2 548.5,-740.2 490.5,-740.2"/>
<text text-anchor="start" x="529.9053" y="-746.3" font-family="Helvetica,sans-Serif" font-size="11.00" fill="#000000">1 &gt;</text>
</a>
</g>
</g>
<!-- plan_person -->
<g id="node5" class="node">
<title>plan_person</title>
<g id="a_node5"><a xlink:href="../../tables/plan_person.html" xlink:title="plan_person" target="_top">
<polygon fill="#ffffff" stroke="transparent" points="641,-770.2 641,-856.2 762,-856.2 762,-770.2 641,-770.2"/>
<polygon fill="#f5f5f5" stroke="transparent" points="641.5,-833.2 641.5,-856.2 762.5,-856.2 762.5,-833.2 641.5,-833.2"/>
<polygon fill="none" stroke="#000000" points="641.5,-833.2 641.5,-856.2 762.5,-856.2 762.5,-833.2 641.5,-833.2"/>
<text text-anchor="start" x="646.5" y="-841.8" font-family="Helvetica,sans-Serif" font-weight="bold" font-size="11.00" fill="#000000">plan_person</text>
<text text-anchor="start" x="728.0219" y="-841.3" font-family="Helvetica,sans-Serif" font-size="11.00" fill="#000000">[table]</text>
<polygon fill="none" stroke="#000000" points="641.5,-811.2 641.5,-833.2 762.5,-833.2 762.5,-811.2 641.5,-811.2"/>
<image xlink:href="../../images/foreignKeys.png" width="11px" height="12px" preserveAspectRatio="xMinYMin meet" x="646.5" y="-828.2"/>
<text text-anchor="start" x="661.5" y="-818.3" font-family="Helvetica,sans-Serif" font-size="11.00" fill="#000000">plan_id</text>
<polygon fill="none" stroke="#000000" points="641.5,-789.2 641.5,-811.2 762.5,-811.2 762.5,-789.2 641.5,-789.2"/>
<image xlink:href="../../images/foreignKeys.png" width="11px" height="12px" preserveAspectRatio="xMinYMin meet" x="646.5" y="-806.2"/>
<text text-anchor="start" x="661.5" y="-796.3" font-family="Helvetica,sans-Serif" font-size="11.00" fill="#000000">prison_number</text>
<polygon fill="#ffffff" stroke="transparent" points="641.5,-770.2 641.5,-789.2 700.5,-789.2 700.5,-770.2 641.5,-770.2"/>
<polygon fill="none" stroke="#000000" points="641.5,-770.2 641.5,-789.2 700.5,-789.2 700.5,-770.2 641.5,-770.2"/>
<text text-anchor="start" x="644.5" y="-776.3" font-family="Helvetica,sans-Serif" font-size="11.00" fill="#000000">&lt; 2</text>
<polygon fill="#ffffff" stroke="transparent" points="700.5,-770.2 700.5,-789.2 731.5,-789.2 731.5,-770.2 700.5,-770.2"/>
<polygon fill="none" stroke="#000000" points="700.5,-770.2 700.5,-789.2 731.5,-789.2 731.5,-770.2 700.5,-770.2"/>
<text text-anchor="start" x="722.3862" y="-776.3" font-family="Helvetica,sans-Serif" font-size="11.00" fill="#000000"> &#160;</text>
<polygon fill="#ffffff" stroke="transparent" points="731.5,-770.2 731.5,-789.2 762.5,-789.2 762.5,-770.2 731.5,-770.2"/>
<polygon fill="none" stroke="#000000" points="731.5,-770.2 731.5,-789.2 762.5,-789.2 762.5,-770.2 731.5,-770.2"/>
<text text-anchor="start" x="753.3862" y="-776.3" font-family="Helvetica,sans-Serif" font-size="11.00" fill="#000000"> &#160;</text>
</a>
</g>
</g>
<!-- plan_person&#45;&gt;bulk_plan -->
<g id="edge4" class="edge">
<title>plan_person:w&#45;&gt;bulk_plan:e</title>
<path fill="none" stroke="#000000" d="M626.9309,-823.5647C524.4591,-844.537 673.4422,-1100.2 548.5,-1100.2"/>
<polygon fill="#000000" stroke="#000000" points="633.5349,-822.9461 641.8358,-825.7843 637.5174,-822.5731 641.5,-822.2 641.5,-822.2 641.5,-822.2 637.5174,-822.5731 641.1642,-818.6157 633.5349,-822.9461 633.5349,-822.9461"/>
<ellipse fill="none" stroke="#000000" cx="630.3488" cy="-823.2446" rx="3.2" ry="3.2"/>
</g>
<!-- person_summary -->
<g id="node7" class="node">
<title>person_summary</title>
<g id="a_node7"><a xlink:href="../../tables/person_summary.html" xlink:title="person_summary" target="_top">
<polygon fill="#ffffff" stroke="transparent" points="362,-479.2 362,-719.2 543,-719.2 543,-479.2 362,-479.2"/>
<polygon fill="#f5f5f5" stroke="transparent" points="362.5,-696.2 362.5,-719.2 543.5,-719.2 543.5,-696.2 362.5,-696.2"/>
<polygon fill="none" stroke="#000000" points="362.5,-696.2 362.5,-719.2 543.5,-719.2 543.5,-696.2 362.5,-696.2"/>
<text text-anchor="start" x="367.5" y="-704.8" font-family="Helvetica,sans-Serif" font-weight="bold" font-size="11.00" fill="#000000">person_summary</text>
<text text-anchor="start" x="508.5437" y="-704.3" font-family="Helvetica,sans-Serif" font-size="11.00" fill="#000000">[table]</text>
<polygon fill="none" stroke="#000000" points="362.5,-674.2 362.5,-696.2 543.5,-696.2 543.5,-674.2 362.5,-674.2"/>
<image xlink:href="../../images/primaryKeys.png" width="11px" height="12px" preserveAspectRatio="xMinYMin meet" x="367.5" y="-691.2"/>
<text text-anchor="start" x="382.5" y="-681.3" font-family="Helvetica,sans-Serif" font-size="11.00" fill="#000000">prison_number</text>
<polygon fill="none" stroke="#000000" points="362.5,-652.2 362.5,-674.2 543.5,-674.2 543.5,-652.2 362.5,-652.2"/>
<text text-anchor="start" x="382.5" y="-659.3" font-family="Helvetica,sans-Serif" font-size="11.00" fill="#000000">first_name</text>
<polygon fill="none" stroke="#000000" points="362.5,-630.2 362.5,-652.2 543.5,-652.2 543.5,-630.2 362.5,-630.2"/>
<text text-anchor="start" x="382.5" y="-637.3" font-family="Helvetica,sans-Serif" font-size="11.00" fill="#000000">last_name</text>
<polygon fill="none" stroke="#000000" points="362.5,-608.2 362.5,-630.2 543.5,-630.2 543.5,-608.2 362.5,-608.2"/>
<text text-anchor="start" x="382.5" y="-615.3" font-family="Helvetica,sans-Serif" font-size="11.00" fill="#000000">status</text>
<polygon fill="none" stroke="#000000" points="362.5,-586.2 362.5,-608.2 543.5,-608.2 543.5,-586.2 362.5,-586.2"/>
<text text-anchor="start" x="382.5" y="-593.3" font-family="Helvetica,sans-Serif" font-size="11.00" fill="#000000">restricted_patient</text>
<polygon fill="none" stroke="#000000" points="362.5,-564.2 362.5,-586.2 543.5,-586.2 543.5,-564.2 362.5,-564.2"/>
<text text-anchor="start" x="382.5" y="-571.3" font-family="Helvetica,sans-Serif" font-size="11.00" fill="#000000">prison_code</text>
<polygon fill="none" stroke="#000000" points="362.5,-542.2 362.5,-564.2 543.5,-564.2 543.5,-542.2 362.5,-542.2"/>
<text text-anchor="start" x="382.5" y="-549.3" font-family="Helvetica,sans-Serif" font-size="11.00" fill="#000000">cell_location</text>
<polygon fill="none" stroke="#000000" points="362.5,-520.2 362.5,-542.2 543.5,-542.2 543.5,-520.2 362.5,-520.2"/>
<text text-anchor="start" x="382.5" y="-527.3" font-family="Helvetica,sans-Serif" font-size="11.00" fill="#000000">supporting_prison_code</text>
<polygon fill="none" stroke="#000000" points="362.5,-498.2 362.5,-520.2 543.5,-520.2 543.5,-498.2 362.5,-498.2"/>
<text text-anchor="start" x="382.5" y="-505.3" font-family="Helvetica,sans-Serif" font-size="11.00" fill="#000000">version</text>
<polygon fill="#ffffff" stroke="transparent" points="362.5,-479.2 362.5,-498.2 442.5,-498.2 442.5,-479.2 362.5,-479.2"/>
<polygon fill="none" stroke="#000000" points="362.5,-479.2 362.5,-498.2 442.5,-498.2 442.5,-479.2 362.5,-479.2"/>
<text text-anchor="start" x="365.5" y="-485.3" font-family="Helvetica,sans-Serif" font-size="11.00" fill="#000000"> &#160;</text>
<polygon fill="#ffffff" stroke="transparent" points="442.5,-479.2 442.5,-498.2 488.5,-498.2 488.5,-479.2 442.5,-479.2"/>
<polygon fill="none" stroke="#000000" points="442.5,-479.2 442.5,-498.2 488.5,-498.2 488.5,-479.2 442.5,-479.2"/>
<text text-anchor="start" x="479.3862" y="-485.3" font-family="Helvetica,sans-Serif" font-size="11.00" fill="#000000"> &#160;</text>
<polygon fill="#ffffff" stroke="transparent" points="488.5,-479.2 488.5,-498.2 543.5,-498.2 543.5,-479.2 488.5,-479.2"/>
<polygon fill="none" stroke="#000000" points="488.5,-479.2 488.5,-498.2 543.5,-498.2 543.5,-479.2 488.5,-479.2"/>
<text text-anchor="start" x="524.9053" y="-485.3" font-family="Helvetica,sans-Serif" font-size="11.00" fill="#000000">1 &gt;</text>
</a>
</g>
</g>
<!-- plan_person&#45;&gt;person_summary -->
<g id="edge5" class="edge">
<title>plan_person:w&#45;&gt;person_summary:e</title>
<path fill="none" stroke="#000000" d="M627.2517,-798.1058C579.4987,-782.5195 605.2749,-685.2 543.5,-685.2"/>
<polygon fill="#000000" stroke="#000000" points="633.585,-799.0366 640.9765,-803.7617 637.5425,-799.6183 641.5,-800.2 641.5,-800.2 641.5,-800.2 637.5425,-799.6183 642.0235,-796.6383 633.585,-799.0366 633.585,-799.0366"/>
<ellipse fill="none" stroke="#000000" cx="630.4191" cy="-798.5713" rx="3.2" ry="3.2"/>
</g>
</g>
</svg>
