<?xml version="1.0" encoding="UTF-8" standalone="no"?>
<!DOCTYPE svg PUBLIC "-//W3C//DTD SVG 1.1//EN"
 "http://www.w3.org/Graphics/SVG/1.1/DTD/svg11.dtd">
<!-- Generated by graphviz version 2.40.1 (20161225.0304)
 -->
<!-- Title: twoDegreesRelationshipsDiagram Pages: 1 -->
<svg width="943pt" height="443pt"
 viewBox="0.00 0.00 943.00 442.70" xmlns="http://www.w3.org/2000/svg" xmlns:xlink="http://www.w3.org/1999/xlink">
<g id="graph0" class="graph" transform="scale(1 1) rotate(0) translate(4 438.7)">
<title>twoDegreesRelationshipsDiagram</title>
<polygon fill="#ffffff" stroke="transparent" points="-4,4 -4,-438.7 939,-438.7 939,4 -4,4"/>
<text text-anchor="middle" x="72.4936" y="-7.3" font-family="Helvetica,sans-Serif" font-size="11.00" fill="#000000">Generated by SchemaSpy</text>
<!-- alert -->
<g id="node1" class="node">
<title>alert</title>
<g id="a_node1"><a xlink:href="../../tables/alert.html" xlink:title="alert" target="_top">
<polygon fill="#ffffff" stroke="transparent" points="350,-38.2 350,-348.2 664,-348.2 664,-38.2 350,-38.2"/>
<polygon fill="#f5f5f5" stroke="transparent" points="352,-323.2 352,-346.2 662,-346.2 662,-323.2 352,-323.2"/>
<polygon fill="none" stroke="#000000" points="352,-323.2 352,-346.2 662,-346.2 662,-323.2 352,-323.2"/>
<text text-anchor="start" x="357" y="-331.8" font-family="Helvetica,sans-Serif" font-weight="bold" font-size="11.00" fill="#000000">alert</text>
<text text-anchor="start" x="627.0437" y="-331.3" font-family="Helvetica,sans-Serif" font-size="11.00" fill="#000000">[table]</text>
<polygon fill="none" stroke="#000000" points="352,-301.2 352,-323.2 568,-323.2 568,-301.2 352,-301.2"/>
<image xlink:href="../../images/primaryKeys.png" width="11px" height="12px" preserveAspectRatio="xMinYMin meet" x="357" y="-318.2"/>
<text text-anchor="start" x="372" y="-308.3" font-family="Helvetica,sans-Serif" font-size="11.00" fill="#000000">id</text>
<polygon fill="none" stroke="#000000" points="568,-301.2 568,-323.2 662,-323.2 662,-301.2 568,-301.2"/>
<text text-anchor="start" x="570.9758" y="-308.9" font-family="Helvetica,sans-Serif" font-size="11.00" fill="#000000">uuid[2147483647]</text>
<polygon fill="#ffffff" stroke="transparent" points="352,-279.2 352,-301.2 568,-301.2 568,-279.2 352,-279.2"/>
<polygon fill="none" stroke="#000000" points="352,-279.2 352,-301.2 568,-301.2 568,-279.2 352,-279.2"/>
<image xlink:href="../../images/foreignKeys.png" width="11px" height="12px" preserveAspectRatio="xMinYMin meet" x="357" y="-296.2"/>
<text text-anchor="start" x="372" y="-286.3" font-family="Helvetica,sans-Serif" font-size="11.00" fill="#000000">alert_code_id</text>
<polygon fill="none" stroke="#000000" points="568,-279.2 568,-301.2 662,-301.2 662,-279.2 568,-279.2"/>
<text text-anchor="start" x="571" y="-286.9" font-family="Helvetica,sans-Serif" font-size="11.00" fill="#000000">int8[19]</text>
<polygon fill="#ffffff" stroke="transparent" points="352,-257.2 352,-279.2 568,-279.2 568,-257.2 352,-257.2"/>
<polygon fill="none" stroke="#000000" points="352,-257.2 352,-279.2 568,-279.2 568,-257.2 352,-257.2"/>
<image xlink:href="../../images/foreignKeys.png" width="11px" height="12px" preserveAspectRatio="xMinYMin meet" x="357" y="-274.2"/>
<text text-anchor="start" x="372" y="-264.3" font-family="Helvetica,sans-Serif" font-size="11.00" fill="#000000">prison_number</text>
<polygon fill="none" stroke="#000000" points="568,-257.2 568,-279.2 662,-279.2 662,-257.2 568,-257.2"/>
<text text-anchor="start" x="571" y="-264.9" font-family="Helvetica,sans-Serif" font-size="11.00" fill="#000000">varchar[10]</text>
<polygon fill="none" stroke="#000000" points="352,-235.2 352,-257.2 568,-257.2 568,-235.2 352,-235.2"/>
<text text-anchor="start" x="372" y="-242.3" font-family="Helvetica,sans-Serif" font-size="11.00" fill="#000000">description</text>
<polygon fill="none" stroke="#000000" points="568,-235.2 568,-257.2 662,-257.2 662,-235.2 568,-235.2"/>
<text text-anchor="start" x="571" y="-242.9" font-family="Helvetica,sans-Serif" font-size="11.00" fill="#000000">text[2147483647]</text>
<polygon fill="none" stroke="#000000" points="352,-213.2 352,-235.2 568,-235.2 568,-213.2 352,-213.2"/>
<text text-anchor="start" x="372" y="-220.3" font-family="Helvetica,sans-Serif" font-size="11.00" fill="#000000">authorised_by</text>
<polygon fill="none" stroke="#000000" points="568,-213.2 568,-235.2 662,-235.2 662,-213.2 568,-213.2"/>
<text text-anchor="start" x="571" y="-220.9" font-family="Helvetica,sans-Serif" font-size="11.00" fill="#000000">varchar[40]</text>
<polygon fill="#ffffff" stroke="transparent" points="352,-191.2 352,-213.2 568,-213.2 568,-191.2 352,-191.2"/>
<polygon fill="none" stroke="#000000" points="352,-191.2 352,-213.2 568,-213.2 568,-191.2 352,-191.2"/>
<text text-anchor="start" x="372" y="-198.3" font-family="Helvetica,sans-Serif" font-size="11.00" fill="#000000">active_from</text>
<polygon fill="none" stroke="#000000" points="568,-191.2 568,-213.2 662,-213.2 662,-191.2 568,-191.2"/>
<text text-anchor="start" x="571" y="-198.9" font-family="Helvetica,sans-Serif" font-size="11.00" fill="#000000">date[13]</text>
<polygon fill="#ffffff" stroke="transparent" points="352,-169.2 352,-191.2 568,-191.2 568,-169.2 352,-169.2"/>
<polygon fill="none" stroke="#000000" points="352,-169.2 352,-191.2 568,-191.2 568,-169.2 352,-169.2"/>
<text text-anchor="start" x="372" y="-176.3" font-family="Helvetica,sans-Serif" font-size="11.00" fill="#000000">active_to</text>
<polygon fill="none" stroke="#000000" points="568,-169.2 568,-191.2 662,-191.2 662,-169.2 568,-169.2"/>
<text text-anchor="start" x="571" y="-176.9" font-family="Helvetica,sans-Serif" font-size="11.00" fill="#000000">date[13]</text>
<polygon fill="#ffffff" stroke="transparent" points="352,-147.2 352,-169.2 568,-169.2 568,-147.2 352,-147.2"/>
<polygon fill="none" stroke="#000000" points="352,-147.2 352,-169.2 568,-169.2 568,-147.2 352,-147.2"/>
<text text-anchor="start" x="372" y="-154.3" font-family="Helvetica,sans-Serif" font-size="11.00" fill="#000000">deleted_at</text>
<polygon fill="none" stroke="#000000" points="568,-147.2 568,-169.2 662,-169.2 662,-147.2 568,-147.2"/>
<text text-anchor="start" x="571" y="-154.9" font-family="Helvetica,sans-Serif" font-size="11.00" fill="#000000">timestamp[29,6]</text>
<polygon fill="#ffffff" stroke="transparent" points="352,-125.2 352,-147.2 568,-147.2 568,-125.2 352,-125.2"/>
<polygon fill="none" stroke="#000000" points="352,-125.2 352,-147.2 568,-147.2 568,-125.2 352,-125.2"/>
<text text-anchor="start" x="372" y="-132.3" font-family="Helvetica,sans-Serif" font-size="11.00" fill="#000000">created_at</text>
<polygon fill="none" stroke="#000000" points="568,-125.2 568,-147.2 662,-147.2 662,-125.2 568,-125.2"/>
<text text-anchor="start" x="571" y="-132.9" font-family="Helvetica,sans-Serif" font-size="11.00" fill="#000000">timestamp[29,6]</text>
<polygon fill="#ffffff" stroke="transparent" points="352,-103.2 352,-125.2 568,-125.2 568,-103.2 352,-103.2"/>
<polygon fill="none" stroke="#000000" points="352,-103.2 352,-125.2 568,-125.2 568,-103.2 352,-103.2"/>
<text text-anchor="start" x="372" y="-110.3" font-family="Helvetica,sans-Serif" font-size="11.00" fill="#000000">last_modified_at</text>
<polygon fill="none" stroke="#000000" points="568,-103.2 568,-125.2 662,-125.2 662,-103.2 568,-103.2"/>
<text text-anchor="start" x="571" y="-110.9" font-family="Helvetica,sans-Serif" font-size="11.00" fill="#000000">timestamp[29,6]</text>
<polygon fill="none" stroke="#000000" points="352,-81.2 352,-103.2 568,-103.2 568,-81.2 352,-81.2"/>
<text text-anchor="start" x="372" y="-88.3" font-family="Helvetica,sans-Serif" font-size="11.00" fill="#000000">prison_code_when_created</text>
<polygon fill="none" stroke="#000000" points="568,-81.2 568,-103.2 662,-103.2 662,-81.2 568,-81.2"/>
<text text-anchor="start" x="571" y="-88.9" font-family="Helvetica,sans-Serif" font-size="11.00" fill="#000000">varchar[6]</text>
<polygon fill="none" stroke="#000000" points="352,-59.2 352,-81.2 568,-81.2 568,-59.2 352,-59.2"/>
<text text-anchor="start" x="372" y="-66.3" font-family="Helvetica,sans-Serif" font-size="11.00" fill="#000000">version</text>
<polygon fill="none" stroke="#000000" points="568,-59.2 568,-81.2 662,-81.2 662,-59.2 568,-59.2"/>
<text text-anchor="start" x="571" y="-66.9" font-family="Helvetica,sans-Serif" font-size="11.00" fill="#000000">int4[10]</text>
<polygon fill="#ffffff" stroke="transparent" points="352,-40.2 352,-59.2 662,-59.2 662,-40.2 352,-40.2"/>
<polygon fill="none" stroke="#000000" points="352,-40.2 352,-59.2 662,-59.2 662,-40.2 352,-40.2"/>
<polygon fill="#ffffff" stroke="transparent" points="353,-41.2 353,-58.2 459,-58.2 459,-41.2 353,-41.2"/>
<text text-anchor="start" x="355" y="-46.3" font-family="Helvetica,sans-Serif" font-size="11.00" fill="#000000">&lt; 1</text>
<polygon fill="#ffffff" stroke="transparent" points="459,-41.2 459,-58.2 556,-58.2 556,-41.2 459,-41.2"/>
<text text-anchor="start" x="504.4431" y="-46.3" font-family="Helvetica,sans-Serif" font-size="11.00" fill="#000000"> &#160;</text>
<polygon fill="#ffffff" stroke="transparent" points="556,-41.2 556,-58.2 661,-58.2 661,-41.2 556,-41.2"/>
<text text-anchor="start" x="643.4053" y="-46.3" font-family="Helvetica,sans-Serif" font-size="11.00" fill="#000000">1 &gt;</text>
<polygon fill="#000000" stroke="#000000" points="459,-41.2 459,-58.2 459,-58.2 459,-41.2 459,-41.2"/>
<polygon fill="#000000" stroke="#000000" points="556,-41.2 556,-58.2 556,-58.2 556,-41.2 556,-41.2"/>
<polygon fill="none" stroke="#000000" stroke-width="2" points="351,-39.2 351,-347.2 663,-347.2 663,-39.2 351,-39.2"/>
</a>
</g>
</g>
<!-- alert_code -->
<g id="node2" class="node">
<title>alert_code</title>
<g id="a_node2"><a xlink:href="../../tables/alert_code.html" xlink:title="alert_code" target="_top">
<polygon fill="#ffffff" stroke="transparent" points="169,-184.7 169,-377.7 301,-377.7 301,-184.7 169,-184.7"/>
<polygon fill="#f5f5f5" stroke="transparent" points="169,-354.2 169,-377.2 301,-377.2 301,-354.2 169,-354.2"/>
<polygon fill="none" stroke="#000000" points="169,-354.2 169,-377.2 301,-377.2 301,-354.2 169,-354.2"/>
<text text-anchor="start" x="174" y="-362.8" font-family="Helvetica,sans-Serif" font-weight="bold" font-size="11.00" fill="#000000">alert_code</text>
<text text-anchor="start" x="266.0437" y="-362.3" font-family="Helvetica,sans-Serif" font-size="11.00" fill="#000000">[table]</text>
<polygon fill="none" stroke="#000000" points="169,-332.2 169,-354.2 301,-354.2 301,-332.2 169,-332.2"/>
<image xlink:href="../../images/primaryKeys.png" width="11px" height="12px" preserveAspectRatio="xMinYMin meet" x="174" y="-349.2"/>
<text text-anchor="start" x="189" y="-339.3" font-family="Helvetica,sans-Serif" font-size="11.00" fill="#000000">alert_code_id</text>
<polygon fill="#ffffff" stroke="transparent" points="169,-310.2 169,-332.2 301,-332.2 301,-310.2 169,-310.2"/>
<polygon fill="none" stroke="#000000" points="169,-310.2 169,-332.2 301,-332.2 301,-310.2 169,-310.2"/>
<image xlink:href="../../images/foreignKeys.png" width="11px" height="12px" preserveAspectRatio="xMinYMin meet" x="174" y="-327.2"/>
<text text-anchor="start" x="189" y="-317.3" font-family="Helvetica,sans-Serif" font-size="11.00" fill="#000000">alert_type_id</text>
<polygon fill="#ffffff" stroke="transparent" points="169,-288.2 169,-310.2 301,-310.2 301,-288.2 169,-288.2"/>
<polygon fill="none" stroke="#000000" points="169,-288.2 169,-310.2 301,-310.2 301,-288.2 169,-288.2"/>
<text text-anchor="start" x="189" y="-295.3" font-family="Helvetica,sans-Serif" font-size="11.00" fill="#000000">code</text>
<polygon fill="#ffffff" stroke="transparent" points="169,-266.2 169,-288.2 301,-288.2 301,-266.2 169,-266.2"/>
<polygon fill="none" stroke="#000000" points="169,-266.2 169,-288.2 301,-288.2 301,-266.2 169,-266.2"/>
<text text-anchor="start" x="189" y="-273.3" font-family="Helvetica,sans-Serif" font-size="11.00" fill="#000000">list_sequence</text>
<polygon fill="#ffffff" stroke="transparent" points="169,-244.2 169,-266.2 301,-266.2 301,-244.2 169,-244.2"/>
<polygon fill="none" stroke="#000000" points="169,-244.2 169,-266.2 301,-266.2 301,-244.2 169,-244.2"/>
<text text-anchor="start" x="189" y="-251.3" font-family="Helvetica,sans-Serif" font-size="11.00" fill="#000000">created_at</text>
<polygon fill="#ffffff" stroke="transparent" points="169,-222.2 169,-244.2 301,-244.2 301,-222.2 169,-222.2"/>
<polygon fill="none" stroke="#000000" points="169,-222.2 169,-244.2 301,-244.2 301,-222.2 169,-222.2"/>
<text text-anchor="start" x="189" y="-229.3" font-family="Helvetica,sans-Serif" font-size="11.00" fill="#000000">deactivated_at</text>
<polygon fill="none" stroke="#000000" points="169,-203.2 169,-222.2 301,-222.2 301,-203.2 169,-203.2"/>
<text text-anchor="start" x="172" y="-209.3" font-family="Helvetica,sans-Serif" font-size="11.00" fill="#000000">...</text>
<polygon fill="#ffffff" stroke="transparent" points="169,-184.2 169,-203.2 301,-203.2 301,-184.2 169,-184.2"/>
<polygon fill="none" stroke="#000000" points="169,-184.2 169,-203.2 301,-203.2 301,-184.2 169,-184.2"/>
<polygon fill="#ffffff" stroke="transparent" points="170,-185.2 170,-202.2 204,-202.2 204,-185.2 170,-185.2"/>
<text text-anchor="start" x="172" y="-190.3" font-family="Helvetica,sans-Serif" font-size="11.00" fill="#000000">&lt; 1</text>
<polygon fill="#ffffff" stroke="transparent" points="204,-185.2 204,-202.2 267,-202.2 267,-185.2 204,-185.2"/>
<text text-anchor="start" x="213.1904" y="-190.3" font-family="Helvetica,sans-Serif" font-size="11.00" fill="#000000">213 rows</text>
<polygon fill="#ffffff" stroke="transparent" points="267,-185.2 267,-202.2 300,-202.2 300,-185.2 267,-185.2"/>
<text text-anchor="start" x="282.4053" y="-190.3" font-family="Helvetica,sans-Serif" font-size="11.00" fill="#000000">2 &gt;</text>
<polygon fill="#000000" stroke="#000000" points="204,-185.2 204,-202.2 204,-202.2 204,-185.2 204,-185.2"/>
<polygon fill="#000000" stroke="#000000" points="267,-185.2 267,-202.2 267,-202.2 267,-185.2 267,-185.2"/>
</a>
</g>
</g>
<!-- alert&#45;&gt;alert_code -->
<g id="edge1" class="edge">
<title>alert:w&#45;&gt;alert_code:e</title>
<path fill="none" stroke="#000000" d="M337.9557,-295.0911C323.0477,-308.2117 327.5607,-343.2 301,-343.2"/>
<polygon fill="#000000" stroke="#000000" points="344.445,-292.8311 353.184,-293.5997 348.2225,-291.5156 352,-290.2 352,-290.2 352,-290.2 348.2225,-291.5156 350.816,-286.8003 344.445,-292.8311 344.445,-292.8311"/>
<ellipse fill="none" stroke="#000000" cx="341.4231" cy="-293.8836" rx="3.2" ry="3.2"/>
</g>
<!-- alert_type -->
<g id="node3" class="node">
<title>alert_type</title>
<g id="a_node3"><a xlink:href="../../tables/alert_type.html" xlink:title="alert_type" target="_top">
<polygon fill="#ffffff" stroke="transparent" points="8,-293.7 8,-354.7 120,-354.7 120,-293.7 8,-293.7"/>
<polygon fill="#f5f5f5" stroke="transparent" points="8,-331.2 8,-354.2 120,-354.2 120,-331.2 8,-331.2"/>
<polygon fill="none" stroke="#000000" points="8,-331.2 8,-354.2 120,-354.2 120,-331.2 8,-331.2"/>
<text text-anchor="start" x="13" y="-339.8" font-family="Helvetica,sans-Serif" font-weight="bold" font-size="11.00" fill="#000000">alert_type</text>
<text text-anchor="start" x="85.5219" y="-339.3" font-family="Helvetica,sans-Serif" font-size="11.00" fill="#000000">[table]</text>
<polygon fill="none" stroke="#000000" points="8,-312.2 8,-331.2 120,-331.2 120,-312.2 8,-312.2"/>
<text text-anchor="start" x="11" y="-318.3" font-family="Helvetica,sans-Serif" font-size="11.00" fill="#000000">...</text>
<polygon fill="#ffffff" stroke="transparent" points="8,-293.2 8,-312.2 120,-312.2 120,-293.2 8,-293.2"/>
<polygon fill="none" stroke="#000000" points="8,-293.2 8,-312.2 120,-312.2 120,-293.2 8,-293.2"/>
<polygon fill="#ffffff" stroke="transparent" points="9,-294.2 9,-311.2 43,-311.2 43,-294.2 9,-294.2"/>
<text text-anchor="start" x="11" y="-299.3" font-family="Helvetica,sans-Serif" font-size="11.00" fill="#000000"> &#160;</text>
<polygon fill="#ffffff" stroke="transparent" points="43,-294.2 43,-311.2 77,-311.2 77,-294.2 43,-294.2"/>
<text text-anchor="start" x="56.9431" y="-299.3" font-family="Helvetica,sans-Serif" font-size="11.00" fill="#000000"> &#160;</text>
<polygon fill="#ffffff" stroke="transparent" points="77,-294.2 77,-311.2 119,-311.2 119,-294.2 77,-294.2"/>
<text text-anchor="start" x="101.4053" y="-299.3" font-family="Helvetica,sans-Serif" font-size="11.00" fill="#000000">1 &gt;</text>
<polygon fill="#000000" stroke="#000000" points="43,-294.2 43,-311.2 43,-311.2 43,-294.2 43,-294.2"/>
<polygon fill="#000000" stroke="#000000" points="77,-294.2 77,-311.2 77,-311.2 77,-294.2 77,-294.2"/>
</a>
</g>
</g>
<!-- alert_code&#45;&gt;alert_type -->
<g id="edge2" class="edge">
<title>alert_code:w&#45;&gt;alert_type:e</title>
<path fill="none" stroke="#000000" d="M154.4909,-321.2C143.1774,-321.2 135.9931,-321.2 120,-321.2"/>
<polygon fill="#000000" stroke="#000000" points="161,-321.2001 169,-324.8 165,-321.2 169,-321.2 169,-321.2 169,-321.2 165,-321.2 169,-317.6 161,-321.2001 161,-321.2001"/>
<ellipse fill="none" stroke="#000000" cx="157.8" cy="-321.2001" rx="3.2" ry="3.2"/>
</g>
<!-- alert_code_privileged_user -->
<g id="node4" class="node">
<title>alert_code_privileged_user</title>
<g id="a_node4"><a xlink:href="../../tables/alert_code_privileged_user.html" xlink:title="alert_code_privileged_user" target="_top">
<polygon fill="#ffffff" stroke="transparent" points="390.5,-369.7 390.5,-430.7 623.5,-430.7 623.5,-369.7 390.5,-369.7"/>
<polygon fill="#f5f5f5" stroke="transparent" points="391,-407.2 391,-430.2 624,-430.2 624,-407.2 391,-407.2"/>
<polygon fill="none" stroke="#000000" points="391,-407.2 391,-430.2 624,-430.2 624,-407.2 391,-407.2"/>
<text text-anchor="start" x="396" y="-415.8" font-family="Helvetica,sans-Serif" font-weight="bold" font-size="11.00" fill="#000000">alert_code_privileged_user</text>
<text text-anchor="start" x="589.5219" y="-415.3" font-family="Helvetica,sans-Serif" font-size="11.00" fill="#000000">[table]</text>
<polygon fill="none" stroke="#000000" points="391,-388.2 391,-407.2 624,-407.2 624,-388.2 391,-388.2"/>
<text text-anchor="start" x="394" y="-394.3" font-family="Helvetica,sans-Serif" font-size="11.00" fill="#000000">...</text>
<polygon fill="#ffffff" stroke="transparent" points="391,-369.2 391,-388.2 624,-388.2 624,-369.2 391,-369.2"/>
<polygon fill="none" stroke="#000000" points="391,-369.2 391,-388.2 624,-388.2 624,-369.2 391,-369.2"/>
<polygon fill="#ffffff" stroke="transparent" points="392,-370.2 392,-387.2 475,-387.2 475,-370.2 392,-370.2"/>
<text text-anchor="start" x="394" y="-375.3" font-family="Helvetica,sans-Serif" font-size="11.00" fill="#000000">&lt; 1</text>
<polygon fill="#ffffff" stroke="transparent" points="475,-370.2 475,-387.2 549,-387.2 549,-370.2 475,-370.2"/>
<text text-anchor="start" x="508.9431" y="-375.3" font-family="Helvetica,sans-Serif" font-size="11.00" fill="#000000"> &#160;</text>
<polygon fill="#ffffff" stroke="transparent" points="549,-370.2 549,-387.2 623,-387.2 623,-370.2 549,-370.2"/>
<text text-anchor="start" x="614.8862" y="-375.3" font-family="Helvetica,sans-Serif" font-size="11.00" fill="#000000"> &#160;</text>
<polygon fill="#000000" stroke="#000000" points="475,-370.2 475,-387.2 475,-387.2 475,-370.2 475,-370.2"/>
<polygon fill="#000000" stroke="#000000" points="549,-370.2 549,-387.2 549,-387.2 549,-370.2 549,-370.2"/>
</a>
</g>
</g>
<!-- alert_code_privileged_user&#45;&gt;alert_code -->
<g id="edge3" class="edge">
<title>alert_code_privileged_user:w&#45;&gt;alert_code:e</title>
<path fill="none" stroke="#000000" d="M376.4973,-395.1491C344.4388,-385.2853 342.1811,-343.2 301,-343.2"/>
<polygon fill="#000000" stroke="#000000" points="383.0788,-396.0798 390.4959,-400.7645 387.0394,-396.6399 391,-397.2 391,-397.2 391,-397.2 387.0394,-396.6399 391.5041,-393.6355 383.0788,-396.0798 383.0788,-396.0798"/>
<ellipse fill="none" stroke="#000000" cx="379.9103" cy="-395.6317" rx="3.2" ry="3.2"/>
</g>
<!-- audit_event -->
<g id="node5" class="node">
<title>audit_event</title>
<g id="a_node5"><a xlink:href="../../tables/audit_event.html" xlink:title="audit_event" target="_top">
<polygon fill="#ffffff" stroke="transparent" points="713,-241.7 713,-412.7 927,-412.7 927,-241.7 713,-241.7"/>
<polygon fill="#f5f5f5" stroke="transparent" points="713,-389.2 713,-412.2 927,-412.2 927,-389.2 713,-389.2"/>
<polygon fill="none" stroke="#000000" points="713,-389.2 713,-412.2 927,-412.2 927,-389.2 713,-389.2"/>
<text text-anchor="start" x="718" y="-397.8" font-family="Helvetica,sans-Serif" font-weight="bold" font-size="11.00" fill="#000000">audit_event</text>
<text text-anchor="start" x="892.0437" y="-397.3" font-family="Helvetica,sans-Serif" font-size="11.00" fill="#000000">[table]</text>
<polygon fill="#ffffff" stroke="transparent" points="713,-367.2 713,-389.2 927,-389.2 927,-367.2 713,-367.2"/>
<polygon fill="none" stroke="#000000" points="713,-367.2 713,-389.2 927,-389.2 927,-367.2 713,-367.2"/>
<text text-anchor="start" x="733" y="-374.3" font-family="Helvetica,sans-Serif" font-size="11.00" fill="#000000">action</text>
<polygon fill="#ffffff" stroke="transparent" points="713,-345.2 713,-367.2 927,-367.2 927,-345.2 713,-345.2"/>
<polygon fill="none" stroke="#000000" points="713,-345.2 713,-367.2 927,-367.2 927,-345.2 713,-345.2"/>
<text text-anchor="start" x="733" y="-352.3" font-family="Helvetica,sans-Serif" font-size="11.00" fill="#000000">actioned_at</text>
<polygon fill="#ffffff" stroke="transparent" points="713,-323.2 713,-345.2 927,-345.2 927,-323.2 713,-323.2"/>
<polygon fill="none" stroke="#000000" points="713,-323.2 713,-345.2 927,-345.2 927,-323.2 713,-323.2"/>
<text text-anchor="start" x="733" y="-330.3" font-family="Helvetica,sans-Serif" font-size="11.00" fill="#000000">actioned_by</text>
<polygon fill="#ffffff" stroke="transparent" points="713,-301.2 713,-323.2 927,-323.2 927,-301.2 713,-301.2"/>
<polygon fill="none" stroke="#000000" points="713,-301.2 713,-323.2 927,-323.2 927,-301.2 713,-301.2"/>
<image xlink:href="../../images/foreignKeys.png" width="11px" height="12px" preserveAspectRatio="xMinYMin meet" x="718" y="-318.2"/>
<text text-anchor="start" x="733" y="-308.3" font-family="Helvetica,sans-Serif" font-size="11.00" fill="#000000">alert_id</text>
<polygon fill="none" stroke="#000000" points="713,-279.2 713,-301.2 927,-301.2 927,-279.2 713,-279.2"/>
<image xlink:href="../../images/primaryKeys.png" width="11px" height="12px" preserveAspectRatio="xMinYMin meet" x="718" y="-296.2"/>
<text text-anchor="start" x="733" y="-286.3" font-family="Helvetica,sans-Serif" font-size="11.00" fill="#000000">id</text>
<polygon fill="none" stroke="#000000" points="713,-260.2 713,-279.2 927,-279.2 927,-260.2 713,-260.2"/>
<text text-anchor="start" x="716" y="-266.3" font-family="Helvetica,sans-Serif" font-size="11.00" fill="#000000">...</text>
<polygon fill="#ffffff" stroke="transparent" points="713,-241.2 713,-260.2 927,-260.2 927,-241.2 713,-241.2"/>
<polygon fill="none" stroke="#000000" points="713,-241.2 713,-260.2 927,-260.2 927,-241.2 713,-241.2"/>
<polygon fill="#ffffff" stroke="transparent" points="714,-242.2 714,-259.2 791,-259.2 791,-242.2 714,-242.2"/>
<text text-anchor="start" x="716" y="-247.3" font-family="Helvetica,sans-Serif" font-size="11.00" fill="#000000">&lt; 1</text>
<polygon fill="#ffffff" stroke="transparent" points="791,-242.2 791,-259.2 859,-259.2 859,-242.2 791,-242.2"/>
<text text-anchor="start" x="821.9431" y="-247.3" font-family="Helvetica,sans-Serif" font-size="11.00" fill="#000000"> &#160;</text>
<polygon fill="#ffffff" stroke="transparent" points="859,-242.2 859,-259.2 926,-259.2 926,-242.2 859,-242.2"/>
<text text-anchor="start" x="917.8862" y="-247.3" font-family="Helvetica,sans-Serif" font-size="11.00" fill="#000000"> &#160;</text>
<polygon fill="#000000" stroke="#000000" points="791,-242.2 791,-259.2 791,-259.2 791,-242.2 791,-242.2"/>
<polygon fill="#000000" stroke="#000000" points="859,-242.2 859,-259.2 859,-259.2 859,-242.2 859,-242.2"/>
</a>
</g>
</g>
<!-- audit_event&#45;&gt;alert -->
<g id="edge4" class="edge">
<title>audit_event:w&#45;&gt;alert:e</title>
<path fill="none" stroke="#000000" d="M698.276,-312.2C686.2815,-312.2 678.8229,-312.2 662,-312.2"/>
<polygon fill="#000000" stroke="#000000" points="705,-312.2001 713,-315.8 709,-312.2 713,-312.2 713,-312.2 713,-312.2 709,-312.2 713,-308.6 705,-312.2001 705,-312.2001"/>
<ellipse fill="none" stroke="#000000" cx="701.8" cy="-312.2001" rx="3.2" ry="3.2"/>
</g>
</g>
</svg>
