<?xml version="1.0" encoding="UTF-8" standalone="no"?>
<!DOCTYPE svg PUBLIC "-//W3C//DTD SVG 1.1//EN"
 "http://www.w3.org/Graphics/SVG/1.1/DTD/svg11.dtd">
<!-- Generated by graphviz version 2.40.1 (20161225.0304)
 -->
<!-- Title: twoDegreesRelationshipsDiagramImplied Pages: 1 -->
<svg width="881pt" height="486pt"
 viewBox="0.00 0.00 881.00 485.70" xmlns="http://www.w3.org/2000/svg" xmlns:xlink="http://www.w3.org/1999/xlink">
<g id="graph0" class="graph" transform="scale(1 1) rotate(0) translate(4 481.7)">
<title>twoDegreesRelationshipsDiagramImplied</title>
<polygon fill="#ffffff" stroke="transparent" points="-4,4 -4,-481.7 877,-481.7 877,4 -4,4"/>
<text text-anchor="middle" x="72.4936" y="-7.3" font-family="Helvetica,sans-Serif" font-size="11.00" fill="#000000">Generated by SchemaSpy</text>
<!-- alert -->
<g id="node1" class="node">
<title>alert</title>
<g id="a_node1"><a xlink:href="../../tables/alert.html" xlink:title="alert" target="_top">
<polygon fill="#ffffff" stroke="transparent" points="466.5,-38.2 466.5,-275.2 682.5,-275.2 682.5,-38.2 466.5,-38.2"/>
<polygon fill="#f5f5f5" stroke="transparent" points="466.5,-251.7 466.5,-274.7 682.5,-274.7 682.5,-251.7 466.5,-251.7"/>
<polygon fill="none" stroke="#000000" points="466.5,-251.7 466.5,-274.7 682.5,-274.7 682.5,-251.7 466.5,-251.7"/>
<text text-anchor="start" x="471.5" y="-260.3" font-family="Helvetica,sans-Serif" font-weight="bold" font-size="11.00" fill="#000000">alert</text>
<text text-anchor="start" x="647.5437" y="-259.8" font-family="Helvetica,sans-Serif" font-size="11.00" fill="#000000">[table]</text>
<polygon fill="none" stroke="#000000" points="466.5,-229.7 466.5,-251.7 682.5,-251.7 682.5,-229.7 466.5,-229.7"/>
<image xlink:href="../../images/primaryKeys.png" width="11px" height="12px" preserveAspectRatio="xMinYMin meet" x="471.5" y="-246.7"/>
<text text-anchor="start" x="486.5" y="-236.8" font-family="Helvetica,sans-Serif" font-size="11.00" fill="#000000">id</text>
<polygon fill="#ffffff" stroke="transparent" points="466.5,-207.7 466.5,-229.7 682.5,-229.7 682.5,-207.7 466.5,-207.7"/>
<polygon fill="none" stroke="#000000" points="466.5,-207.7 466.5,-229.7 682.5,-229.7 682.5,-207.7 466.5,-207.7"/>
<image xlink:href="../../images/foreignKeys.png" width="11px" height="12px" preserveAspectRatio="xMinYMin meet" x="471.5" y="-224.7"/>
<text text-anchor="start" x="486.5" y="-214.8" font-family="Helvetica,sans-Serif" font-size="11.00" fill="#000000">alert_code_id</text>
<polygon fill="#ffffff" stroke="transparent" points="466.5,-185.7 466.5,-207.7 682.5,-207.7 682.5,-185.7 466.5,-185.7"/>
<polygon fill="none" stroke="#000000" points="466.5,-185.7 466.5,-207.7 682.5,-207.7 682.5,-185.7 466.5,-185.7"/>
<image xlink:href="../../images/foreignKeys.png" width="11px" height="12px" preserveAspectRatio="xMinYMin meet" x="471.5" y="-202.7"/>
<text text-anchor="start" x="486.5" y="-192.8" font-family="Helvetica,sans-Serif" font-size="11.00" fill="#000000">prison_number</text>
<polygon fill="#ffffff" stroke="transparent" points="466.5,-163.7 466.5,-185.7 682.5,-185.7 682.5,-163.7 466.5,-163.7"/>
<polygon fill="none" stroke="#000000" points="466.5,-163.7 466.5,-185.7 682.5,-185.7 682.5,-163.7 466.5,-163.7"/>
<text text-anchor="start" x="486.5" y="-170.8" font-family="Helvetica,sans-Serif" font-size="11.00" fill="#000000">active_from</text>
<polygon fill="#ffffff" stroke="transparent" points="466.5,-141.7 466.5,-163.7 682.5,-163.7 682.5,-141.7 466.5,-141.7"/>
<polygon fill="none" stroke="#000000" points="466.5,-141.7 466.5,-163.7 682.5,-163.7 682.5,-141.7 466.5,-141.7"/>
<text text-anchor="start" x="486.5" y="-148.8" font-family="Helvetica,sans-Serif" font-size="11.00" fill="#000000">active_to</text>
<polygon fill="#ffffff" stroke="transparent" points="466.5,-119.7 466.5,-141.7 682.5,-141.7 682.5,-119.7 466.5,-119.7"/>
<polygon fill="none" stroke="#000000" points="466.5,-119.7 466.5,-141.7 682.5,-141.7 682.5,-119.7 466.5,-119.7"/>
<text text-anchor="start" x="486.5" y="-126.8" font-family="Helvetica,sans-Serif" font-size="11.00" fill="#000000">deleted_at</text>
<polygon fill="#ffffff" stroke="transparent" points="466.5,-97.7 466.5,-119.7 682.5,-119.7 682.5,-97.7 466.5,-97.7"/>
<polygon fill="none" stroke="#000000" points="466.5,-97.7 466.5,-119.7 682.5,-119.7 682.5,-97.7 466.5,-97.7"/>
<text text-anchor="start" x="486.5" y="-104.8" font-family="Helvetica,sans-Serif" font-size="11.00" fill="#000000">created_at</text>
<polygon fill="#ffffff" stroke="transparent" points="466.5,-75.7 466.5,-97.7 682.5,-97.7 682.5,-75.7 466.5,-75.7"/>
<polygon fill="none" stroke="#000000" points="466.5,-75.7 466.5,-97.7 682.5,-97.7 682.5,-75.7 466.5,-75.7"/>
<text text-anchor="start" x="486.5" y="-82.8" font-family="Helvetica,sans-Serif" font-size="11.00" fill="#000000">last_modified_at</text>
<polygon fill="none" stroke="#000000" points="466.5,-56.7 466.5,-75.7 682.5,-75.7 682.5,-56.7 466.5,-56.7"/>
<text text-anchor="start" x="469.5" y="-62.8" font-family="Helvetica,sans-Serif" font-size="11.00" fill="#000000">...</text>
<polygon fill="#ffffff" stroke="transparent" points="466.5,-37.7 466.5,-56.7 682.5,-56.7 682.5,-37.7 466.5,-37.7"/>
<polygon fill="none" stroke="#000000" points="466.5,-37.7 466.5,-56.7 682.5,-56.7 682.5,-37.7 466.5,-37.7"/>
<polygon fill="#ffffff" stroke="transparent" points="467.5,-38.7 467.5,-55.7 542.5,-55.7 542.5,-38.7 467.5,-38.7"/>
<text text-anchor="start" x="469.5" y="-43.8" font-family="Helvetica,sans-Serif" font-size="11.00" fill="#000000">&lt; 2</text>
<polygon fill="#ffffff" stroke="transparent" points="542.5,-38.7 542.5,-55.7 607.5,-55.7 607.5,-38.7 542.5,-38.7"/>
<text text-anchor="start" x="571.9431" y="-43.8" font-family="Helvetica,sans-Serif" font-size="11.00" fill="#000000"> &#160;</text>
<polygon fill="#ffffff" stroke="transparent" points="607.5,-38.7 607.5,-55.7 681.5,-55.7 681.5,-38.7 607.5,-38.7"/>
<text text-anchor="start" x="663.9053" y="-43.8" font-family="Helvetica,sans-Serif" font-size="11.00" fill="#000000">1 &gt;</text>
<polygon fill="#000000" stroke="#000000" points="542.5,-38.7 542.5,-55.7 542.5,-55.7 542.5,-38.7 542.5,-38.7"/>
<polygon fill="#000000" stroke="#000000" points="607.5,-38.7 607.5,-55.7 607.5,-55.7 607.5,-38.7 607.5,-38.7"/>
</a>
</g>
</g>
<!-- alert_code -->
<g id="node2" class="node">
<title>alert_code</title>
<g id="a_node2"><a xlink:href="../../tables/alert_code.html" xlink:title="alert_code" target="_top">
<polygon fill="#ffffff" stroke="transparent" points="189,-163.7 189,-473.7 409,-473.7 409,-163.7 189,-163.7"/>
<polygon fill="#f5f5f5" stroke="transparent" points="191,-448.7 191,-471.7 407,-471.7 407,-448.7 191,-448.7"/>
<polygon fill="none" stroke="#000000" points="191,-448.7 191,-471.7 407,-471.7 407,-448.7 191,-448.7"/>
<text text-anchor="start" x="196" y="-457.3" font-family="Helvetica,sans-Serif" font-weight="bold" font-size="11.00" fill="#000000">alert_code</text>
<text text-anchor="start" x="372.0437" y="-456.8" font-family="Helvetica,sans-Serif" font-size="11.00" fill="#000000">[table]</text>
<polygon fill="none" stroke="#000000" points="191,-426.7 191,-448.7 323,-448.7 323,-426.7 191,-426.7"/>
<image xlink:href="../../images/primaryKeys.png" width="11px" height="12px" preserveAspectRatio="xMinYMin meet" x="196" y="-443.7"/>
<text text-anchor="start" x="211" y="-433.8" font-family="Helvetica,sans-Serif" font-size="11.00" fill="#000000">alert_code_id</text>
<polygon fill="none" stroke="#000000" points="323,-426.7 323,-448.7 407,-448.7 407,-426.7 323,-426.7"/>
<text text-anchor="start" x="326" y="-434.4" font-family="Helvetica,sans-Serif" font-size="11.00" fill="#000000">bigserial[19]</text>
<polygon fill="#ffffff" stroke="transparent" points="191,-404.7 191,-426.7 323,-426.7 323,-404.7 191,-404.7"/>
<polygon fill="none" stroke="#000000" points="191,-404.7 191,-426.7 323,-426.7 323,-404.7 191,-404.7"/>
<image xlink:href="../../images/foreignKeys.png" width="11px" height="12px" preserveAspectRatio="xMinYMin meet" x="196" y="-421.7"/>
<text text-anchor="start" x="211" y="-411.8" font-family="Helvetica,sans-Serif" font-size="11.00" fill="#000000">alert_type_id</text>
<polygon fill="none" stroke="#000000" points="323,-404.7 323,-426.7 407,-426.7 407,-404.7 323,-404.7"/>
<text text-anchor="start" x="326" y="-412.4" font-family="Helvetica,sans-Serif" font-size="11.00" fill="#000000">int8[19]</text>
<polygon fill="#ffffff" stroke="transparent" points="191,-382.7 191,-404.7 323,-404.7 323,-382.7 191,-382.7"/>
<polygon fill="none" stroke="#000000" points="191,-382.7 191,-404.7 323,-404.7 323,-382.7 191,-382.7"/>
<text text-anchor="start" x="211" y="-389.8" font-family="Helvetica,sans-Serif" font-size="11.00" fill="#000000">code</text>
<polygon fill="none" stroke="#000000" points="323,-382.7 323,-404.7 407,-404.7 407,-382.7 323,-382.7"/>
<text text-anchor="start" x="326" y="-390.4" font-family="Helvetica,sans-Serif" font-size="11.00" fill="#000000">varchar[12]</text>
<polygon fill="none" stroke="#000000" points="191,-360.7 191,-382.7 323,-382.7 323,-360.7 191,-360.7"/>
<text text-anchor="start" x="211" y="-367.8" font-family="Helvetica,sans-Serif" font-size="11.00" fill="#000000">description</text>
<polygon fill="none" stroke="#000000" points="323,-360.7 323,-382.7 407,-382.7 407,-360.7 323,-360.7"/>
<text text-anchor="start" x="326" y="-368.4" font-family="Helvetica,sans-Serif" font-size="11.00" fill="#000000">varchar[40]</text>
<polygon fill="#ffffff" stroke="transparent" points="191,-338.7 191,-360.7 323,-360.7 323,-338.7 191,-338.7"/>
<polygon fill="none" stroke="#000000" points="191,-338.7 191,-360.7 323,-360.7 323,-338.7 191,-338.7"/>
<text text-anchor="start" x="211" y="-345.8" font-family="Helvetica,sans-Serif" font-size="11.00" fill="#000000">list_sequence</text>
<polygon fill="none" stroke="#000000" points="323,-338.7 323,-360.7 407,-360.7 407,-338.7 323,-338.7"/>
<text text-anchor="start" x="326" y="-346.4" font-family="Helvetica,sans-Serif" font-size="11.00" fill="#000000">int4[10]</text>
<polygon fill="#ffffff" stroke="transparent" points="191,-316.7 191,-338.7 323,-338.7 323,-316.7 191,-316.7"/>
<polygon fill="none" stroke="#000000" points="191,-316.7 191,-338.7 323,-338.7 323,-316.7 191,-316.7"/>
<text text-anchor="start" x="211" y="-323.8" font-family="Helvetica,sans-Serif" font-size="11.00" fill="#000000">created_at</text>
<polygon fill="none" stroke="#000000" points="323,-316.7 323,-338.7 407,-338.7 407,-316.7 323,-316.7"/>
<text text-anchor="start" x="325.8807" y="-324.4" font-family="Helvetica,sans-Serif" font-size="11.00" fill="#000000">timestamp[29,6]</text>
<polygon fill="none" stroke="#000000" points="191,-294.7 191,-316.7 323,-316.7 323,-294.7 191,-294.7"/>
<text text-anchor="start" x="211" y="-301.8" font-family="Helvetica,sans-Serif" font-size="11.00" fill="#000000">created_by</text>
<polygon fill="none" stroke="#000000" points="323,-294.7 323,-316.7 407,-316.7 407,-294.7 323,-294.7"/>
<text text-anchor="start" x="326" y="-302.4" font-family="Helvetica,sans-Serif" font-size="11.00" fill="#000000">varchar[64]</text>
<polygon fill="none" stroke="#000000" points="191,-272.7 191,-294.7 323,-294.7 323,-272.7 191,-272.7"/>
<text text-anchor="start" x="211" y="-279.8" font-family="Helvetica,sans-Serif" font-size="11.00" fill="#000000">modified_at</text>
<polygon fill="none" stroke="#000000" points="323,-272.7 323,-294.7 407,-294.7 407,-272.7 323,-272.7"/>
<text text-anchor="start" x="325.8807" y="-280.4" font-family="Helvetica,sans-Serif" font-size="11.00" fill="#000000">timestamp[29,6]</text>
<polygon fill="none" stroke="#000000" points="191,-250.7 191,-272.7 323,-272.7 323,-250.7 191,-250.7"/>
<text text-anchor="start" x="211" y="-257.8" font-family="Helvetica,sans-Serif" font-size="11.00" fill="#000000">modified_by</text>
<polygon fill="none" stroke="#000000" points="323,-250.7 323,-272.7 407,-272.7 407,-250.7 323,-250.7"/>
<text text-anchor="start" x="326" y="-258.4" font-family="Helvetica,sans-Serif" font-size="11.00" fill="#000000">varchar[64]</text>
<polygon fill="#ffffff" stroke="transparent" points="191,-228.7 191,-250.7 323,-250.7 323,-228.7 191,-228.7"/>
<polygon fill="none" stroke="#000000" points="191,-228.7 191,-250.7 323,-250.7 323,-228.7 191,-228.7"/>
<text text-anchor="start" x="211" y="-235.8" font-family="Helvetica,sans-Serif" font-size="11.00" fill="#000000">deactivated_at</text>
<polygon fill="none" stroke="#000000" points="323,-228.7 323,-250.7 407,-250.7 407,-228.7 323,-228.7"/>
<text text-anchor="start" x="325.8807" y="-236.4" font-family="Helvetica,sans-Serif" font-size="11.00" fill="#000000">timestamp[29,6]</text>
<polygon fill="none" stroke="#000000" points="191,-206.7 191,-228.7 323,-228.7 323,-206.7 191,-206.7"/>
<text text-anchor="start" x="211" y="-213.8" font-family="Helvetica,sans-Serif" font-size="11.00" fill="#000000">deactivated_by</text>
<polygon fill="none" stroke="#000000" points="323,-206.7 323,-228.7 407,-228.7 407,-206.7 323,-206.7"/>
<text text-anchor="start" x="326" y="-214.4" font-family="Helvetica,sans-Serif" font-size="11.00" fill="#000000">varchar[64]</text>
<polygon fill="none" stroke="#000000" points="191,-184.7 191,-206.7 323,-206.7 323,-184.7 191,-184.7"/>
<text text-anchor="start" x="211" y="-191.8" font-family="Helvetica,sans-Serif" font-size="11.00" fill="#000000">restricted</text>
<polygon fill="none" stroke="#000000" points="323,-184.7 323,-206.7 407,-206.7 407,-184.7 323,-184.7"/>
<text text-anchor="start" x="326" y="-192.4" font-family="Helvetica,sans-Serif" font-size="11.00" fill="#000000">bool[1]</text>
<polygon fill="#ffffff" stroke="transparent" points="191,-165.7 191,-184.7 407,-184.7 407,-165.7 191,-165.7"/>
<polygon fill="none" stroke="#000000" points="191,-165.7 191,-184.7 407,-184.7 407,-165.7 191,-165.7"/>
<polygon fill="#ffffff" stroke="transparent" points="192,-166.7 192,-183.7 267,-183.7 267,-166.7 192,-166.7"/>
<text text-anchor="start" x="194" y="-171.8" font-family="Helvetica,sans-Serif" font-size="11.00" fill="#000000">&lt; 1</text>
<polygon fill="#ffffff" stroke="transparent" points="267,-166.7 267,-183.7 332,-183.7 332,-166.7 267,-166.7"/>
<text text-anchor="start" x="296.4431" y="-171.8" font-family="Helvetica,sans-Serif" font-size="11.00" fill="#000000"> &#160;</text>
<polygon fill="#ffffff" stroke="transparent" points="332,-166.7 332,-183.7 406,-183.7 406,-166.7 332,-166.7"/>
<text text-anchor="start" x="388.4053" y="-171.8" font-family="Helvetica,sans-Serif" font-size="11.00" fill="#000000">2 &gt;</text>
<polygon fill="#000000" stroke="#000000" points="267,-166.7 267,-183.7 267,-183.7 267,-166.7 267,-166.7"/>
<polygon fill="#000000" stroke="#000000" points="332,-166.7 332,-183.7 332,-183.7 332,-166.7 332,-166.7"/>
<polygon fill="none" stroke="#000000" stroke-width="2" points="190,-164.7 190,-472.7 408,-472.7 408,-164.7 190,-164.7"/>
</a>
</g>
</g>
<!-- alert&#45;&gt;alert_code -->
<g id="edge1" class="edge">
<title>alert:w&#45;&gt;alert_code:e</title>
<path fill="none" stroke="#000000" d="M452.0539,-220.5933C380.467,-241.9982 502.3458,-437.7 407,-437.7"/>
<polygon fill="#000000" stroke="#000000" points="458.5678,-219.7396 466.9678,-222.2695 462.5339,-219.2198 466.5,-218.7 466.5,-218.7 466.5,-218.7 462.5339,-219.2198 466.0322,-215.1305 458.5678,-219.7396 458.5678,-219.7396"/>
<ellipse fill="none" stroke="#000000" cx="455.395" cy="-220.1555" rx="3.2" ry="3.2"/>
</g>
<!-- person_summary -->
<g id="node3" class="node">
<title>person_summary</title>
<g id="a_node3"><a xlink:href="../../tables/person_summary.html" xlink:title="person_summary" target="_top">
<polygon fill="#ffffff" stroke="transparent" points="217.5,-81.2 217.5,-142.2 380.5,-142.2 380.5,-81.2 217.5,-81.2"/>
<polygon fill="#f5f5f5" stroke="transparent" points="218,-118.7 218,-141.7 381,-141.7 381,-118.7 218,-118.7"/>
<polygon fill="none" stroke="#000000" points="218,-118.7 218,-141.7 381,-141.7 381,-118.7 218,-118.7"/>
<text text-anchor="start" x="223" y="-127.3" font-family="Helvetica,sans-Serif" font-weight="bold" font-size="11.00" fill="#000000">person_summary</text>
<text text-anchor="start" x="346.5219" y="-126.8" font-family="Helvetica,sans-Serif" font-size="11.00" fill="#000000">[table]</text>
<polygon fill="none" stroke="#000000" points="218,-99.7 218,-118.7 381,-118.7 381,-99.7 218,-99.7"/>
<text text-anchor="start" x="221" y="-105.8" font-family="Helvetica,sans-Serif" font-size="11.00" fill="#000000">...</text>
<polygon fill="#ffffff" stroke="transparent" points="218,-80.7 218,-99.7 381,-99.7 381,-80.7 218,-80.7"/>
<polygon fill="none" stroke="#000000" points="218,-80.7 218,-99.7 381,-99.7 381,-80.7 218,-80.7"/>
<polygon fill="#ffffff" stroke="transparent" points="219,-81.7 219,-98.7 270,-98.7 270,-81.7 219,-81.7"/>
<text text-anchor="start" x="221" y="-86.8" font-family="Helvetica,sans-Serif" font-size="11.00" fill="#000000"> &#160;</text>
<polygon fill="#ffffff" stroke="transparent" points="270,-81.7 270,-98.7 321,-98.7 321,-81.7 270,-81.7"/>
<text text-anchor="start" x="292.4431" y="-86.8" font-family="Helvetica,sans-Serif" font-size="11.00" fill="#000000"> &#160;</text>
<polygon fill="#ffffff" stroke="transparent" points="321,-81.7 321,-98.7 380,-98.7 380,-81.7 321,-81.7"/>
<text text-anchor="start" x="362.4053" y="-86.8" font-family="Helvetica,sans-Serif" font-size="11.00" fill="#000000">3 &gt;</text>
<polygon fill="#000000" stroke="#000000" points="270,-81.7 270,-98.7 270,-98.7 270,-81.7 270,-81.7"/>
<polygon fill="#000000" stroke="#000000" points="321,-81.7 321,-98.7 321,-98.7 321,-81.7 321,-81.7"/>
</a>
</g>
</g>
<!-- alert&#45;&gt;person_summary -->
<g id="edge2" class="edge">
<title>alert:w&#45;&gt;person_summary:e</title>
<path fill="none" stroke="#000000" stroke-dasharray="5,2" d="M452.1379,-194.1612C415.9492,-179.7327 429.9931,-108.7 381,-108.7"/>
<polygon fill="#000000" stroke="#000000" points="458.6221,-195.3074 465.8733,-200.245 462.5611,-196.0037 466.5,-196.7 466.5,-196.7 466.5,-196.7 462.5611,-196.0037 467.1267,-193.155 458.6221,-195.3074 458.6221,-195.3074"/>
<ellipse fill="none" stroke="#000000" cx="455.471" cy="-194.7504" rx="3.2" ry="3.2"/>
</g>
<!-- alert_type -->
<g id="node4" class="node">
<title>alert_type</title>
<g id="a_node4"><a xlink:href="../../tables/alert_type.html" xlink:title="alert_type" target="_top">
<polygon fill="#ffffff" stroke="transparent" points="8,-279.2 8,-450.2 140,-450.2 140,-279.2 8,-279.2"/>
<polygon fill="#f5f5f5" stroke="transparent" points="8,-426.7 8,-449.7 140,-449.7 140,-426.7 8,-426.7"/>
<polygon fill="none" stroke="#000000" points="8,-426.7 8,-449.7 140,-449.7 140,-426.7 8,-426.7"/>
<text text-anchor="start" x="13" y="-435.3" font-family="Helvetica,sans-Serif" font-weight="bold" font-size="11.00" fill="#000000">alert_type</text>
<text text-anchor="start" x="105.0437" y="-434.8" font-family="Helvetica,sans-Serif" font-size="11.00" fill="#000000">[table]</text>
<polygon fill="none" stroke="#000000" points="8,-404.7 8,-426.7 140,-426.7 140,-404.7 8,-404.7"/>
<image xlink:href="../../images/primaryKeys.png" width="11px" height="12px" preserveAspectRatio="xMinYMin meet" x="13" y="-421.7"/>
<text text-anchor="start" x="28" y="-411.8" font-family="Helvetica,sans-Serif" font-size="11.00" fill="#000000">alert_type_id</text>
<polygon fill="#ffffff" stroke="transparent" points="8,-382.7 8,-404.7 140,-404.7 140,-382.7 8,-382.7"/>
<polygon fill="none" stroke="#000000" points="8,-382.7 8,-404.7 140,-404.7 140,-382.7 8,-382.7"/>
<text text-anchor="start" x="28" y="-389.8" font-family="Helvetica,sans-Serif" font-size="11.00" fill="#000000">code</text>
<polygon fill="#ffffff" stroke="transparent" points="8,-360.7 8,-382.7 140,-382.7 140,-360.7 8,-360.7"/>
<polygon fill="none" stroke="#000000" points="8,-360.7 8,-382.7 140,-382.7 140,-360.7 8,-360.7"/>
<text text-anchor="start" x="28" y="-367.8" font-family="Helvetica,sans-Serif" font-size="11.00" fill="#000000">list_sequence</text>
<polygon fill="#ffffff" stroke="transparent" points="8,-338.7 8,-360.7 140,-360.7 140,-338.7 8,-338.7"/>
<polygon fill="none" stroke="#000000" points="8,-338.7 8,-360.7 140,-360.7 140,-338.7 8,-338.7"/>
<text text-anchor="start" x="28" y="-345.8" font-family="Helvetica,sans-Serif" font-size="11.00" fill="#000000">created_at</text>
<polygon fill="#ffffff" stroke="transparent" points="8,-316.7 8,-338.7 140,-338.7 140,-316.7 8,-316.7"/>
<polygon fill="none" stroke="#000000" points="8,-316.7 8,-338.7 140,-338.7 140,-316.7 8,-316.7"/>
<text text-anchor="start" x="28" y="-323.8" font-family="Helvetica,sans-Serif" font-size="11.00" fill="#000000">deactivated_at</text>
<polygon fill="none" stroke="#000000" points="8,-297.7 8,-316.7 140,-316.7 140,-297.7 8,-297.7"/>
<text text-anchor="start" x="11" y="-303.8" font-family="Helvetica,sans-Serif" font-size="11.00" fill="#000000">...</text>
<polygon fill="#ffffff" stroke="transparent" points="8,-278.7 8,-297.7 140,-297.7 140,-278.7 8,-278.7"/>
<polygon fill="none" stroke="#000000" points="8,-278.7 8,-297.7 140,-297.7 140,-278.7 8,-278.7"/>
<polygon fill="#ffffff" stroke="transparent" points="9,-279.7 9,-296.7 50,-296.7 50,-279.7 9,-279.7"/>
<text text-anchor="start" x="11" y="-284.8" font-family="Helvetica,sans-Serif" font-size="11.00" fill="#000000"> &#160;</text>
<polygon fill="#ffffff" stroke="transparent" points="50,-279.7 50,-296.7 90,-296.7 90,-279.7 50,-279.7"/>
<text text-anchor="start" x="66.9431" y="-284.8" font-family="Helvetica,sans-Serif" font-size="11.00" fill="#000000"> &#160;</text>
<polygon fill="#ffffff" stroke="transparent" points="90,-279.7 90,-296.7 139,-296.7 139,-279.7 90,-279.7"/>
<text text-anchor="start" x="121.4053" y="-284.8" font-family="Helvetica,sans-Serif" font-size="11.00" fill="#000000">1 &gt;</text>
<polygon fill="#000000" stroke="#000000" points="50,-279.7 50,-296.7 50,-296.7 50,-279.7 50,-279.7"/>
<polygon fill="#000000" stroke="#000000" points="90,-279.7 90,-296.7 90,-296.7 90,-279.7 90,-279.7"/>
</a>
</g>
</g>
<!-- alert_code&#45;&gt;alert_type -->
<g id="edge3" class="edge">
<title>alert_code:w&#45;&gt;alert_type:e</title>
<path fill="none" stroke="#000000" d="M176.276,-415.7C164.2815,-415.7 156.8229,-415.7 140,-415.7"/>
<polygon fill="#000000" stroke="#000000" points="183,-415.7001 191,-419.3 187,-415.7 191,-415.7 191,-415.7 191,-415.7 187,-415.7 191,-412.1 183,-415.7001 183,-415.7001"/>
<ellipse fill="none" stroke="#000000" cx="179.8" cy="-415.7001" rx="3.2" ry="3.2"/>
</g>
<!-- alert_code_privileged_user -->
<g id="node5" class="node">
<title>alert_code_privileged_user</title>
<g id="a_node5"><a xlink:href="../../tables/alert_code_privileged_user.html" xlink:title="alert_code_privileged_user" target="_top">
<polygon fill="#ffffff" stroke="transparent" points="458,-385.7 458,-471.7 691,-471.7 691,-385.7 458,-385.7"/>
<polygon fill="#f5f5f5" stroke="transparent" points="458.5,-448.7 458.5,-471.7 691.5,-471.7 691.5,-448.7 458.5,-448.7"/>
<polygon fill="none" stroke="#000000" points="458.5,-448.7 458.5,-471.7 691.5,-471.7 691.5,-448.7 458.5,-448.7"/>
<text text-anchor="start" x="463.5" y="-457.3" font-family="Helvetica,sans-Serif" font-weight="bold" font-size="11.00" fill="#000000">alert_code_privileged_user</text>
<text text-anchor="start" x="657.0219" y="-456.8" font-family="Helvetica,sans-Serif" font-size="11.00" fill="#000000">[table]</text>
<polygon fill="none" stroke="#000000" points="458.5,-426.7 458.5,-448.7 691.5,-448.7 691.5,-426.7 458.5,-426.7"/>
<image xlink:href="../../images/primaryKeys.png" width="11px" height="12px" preserveAspectRatio="xMinYMin meet" x="463.5" y="-443.7"/>
<text text-anchor="start" x="487.5" y="-433.8" font-family="Helvetica,sans-Serif" font-size="11.00" fill="#000000">alert_code_id</text>
<polygon fill="none" stroke="#000000" points="458.5,-404.7 458.5,-426.7 691.5,-426.7 691.5,-404.7 458.5,-404.7"/>
<image xlink:href="../../images/primaryKeys.png" width="11px" height="12px" preserveAspectRatio="xMinYMin meet" x="463.5" y="-421.7"/>
<text text-anchor="start" x="487.5" y="-411.8" font-family="Helvetica,sans-Serif" font-size="11.00" fill="#000000">username</text>
<polygon fill="#ffffff" stroke="transparent" points="458.5,-385.7 458.5,-404.7 691.5,-404.7 691.5,-385.7 458.5,-385.7"/>
<polygon fill="none" stroke="#000000" points="458.5,-385.7 458.5,-404.7 691.5,-404.7 691.5,-385.7 458.5,-385.7"/>
<polygon fill="#ffffff" stroke="transparent" points="459.5,-386.7 459.5,-403.7 542.5,-403.7 542.5,-386.7 459.5,-386.7"/>
<text text-anchor="start" x="461.5" y="-391.8" font-family="Helvetica,sans-Serif" font-size="11.00" fill="#000000">&lt; 1</text>
<polygon fill="#ffffff" stroke="transparent" points="542.5,-386.7 542.5,-403.7 616.5,-403.7 616.5,-386.7 542.5,-386.7"/>
<text text-anchor="start" x="576.4431" y="-391.8" font-family="Helvetica,sans-Serif" font-size="11.00" fill="#000000"> &#160;</text>
<polygon fill="#ffffff" stroke="transparent" points="616.5,-386.7 616.5,-403.7 690.5,-403.7 690.5,-386.7 616.5,-386.7"/>
<text text-anchor="start" x="682.3862" y="-391.8" font-family="Helvetica,sans-Serif" font-size="11.00" fill="#000000"> &#160;</text>
<polygon fill="#000000" stroke="#000000" points="542.5,-386.7 542.5,-403.7 542.5,-403.7 542.5,-386.7 542.5,-386.7"/>
<polygon fill="#000000" stroke="#000000" points="616.5,-386.7 616.5,-403.7 616.5,-403.7 616.5,-386.7 616.5,-386.7"/>
</a>
</g>
</g>
<!-- alert_code_privileged_user&#45;&gt;alert_code -->
<g id="edge4" class="edge">
<title>alert_code_privileged_user:w&#45;&gt;alert_code:e</title>
<path fill="none" stroke="#000000" d="M444.0156,-437.7C431.6771,-437.7 424.1667,-437.7 407,-437.7"/>
<polygon fill="#000000" stroke="#000000" points="450.5,-437.7001 458.5,-441.3 454.5,-437.7 458.5,-437.7 458.5,-437.7 458.5,-437.7 454.5,-437.7 458.5,-434.1 450.5,-437.7001 450.5,-437.7001"/>
<ellipse fill="none" stroke="#000000" cx="447.3" cy="-437.7001" rx="3.2" ry="3.2"/>
</g>
<!-- audit_event -->
<g id="node6" class="node">
<title>audit_event</title>
<g id="a_node6"><a xlink:href="../../tables/audit_event.html" xlink:title="audit_event" target="_top">
<polygon fill="#ffffff" stroke="transparent" points="740,-213.2 740,-274.2 865,-274.2 865,-213.2 740,-213.2"/>
<polygon fill="#f5f5f5" stroke="transparent" points="740.5,-250.7 740.5,-273.7 865.5,-273.7 865.5,-250.7 740.5,-250.7"/>
<polygon fill="none" stroke="#000000" points="740.5,-250.7 740.5,-273.7 865.5,-273.7 865.5,-250.7 740.5,-250.7"/>
<text text-anchor="start" x="745.5" y="-259.3" font-family="Helvetica,sans-Serif" font-weight="bold" font-size="11.00" fill="#000000">audit_event</text>
<text text-anchor="start" x="831.0219" y="-258.8" font-family="Helvetica,sans-Serif" font-size="11.00" fill="#000000">[table]</text>
<polygon fill="none" stroke="#000000" points="740.5,-231.7 740.5,-250.7 865.5,-250.7 865.5,-231.7 740.5,-231.7"/>
<text text-anchor="start" x="743.5" y="-237.8" font-family="Helvetica,sans-Serif" font-size="11.00" fill="#000000">...</text>
<polygon fill="#ffffff" stroke="transparent" points="740.5,-212.7 740.5,-231.7 865.5,-231.7 865.5,-212.7 740.5,-212.7"/>
<polygon fill="none" stroke="#000000" points="740.5,-212.7 740.5,-231.7 865.5,-231.7 865.5,-212.7 740.5,-212.7"/>
<polygon fill="#ffffff" stroke="transparent" points="741.5,-213.7 741.5,-230.7 788.5,-230.7 788.5,-213.7 741.5,-213.7"/>
<text text-anchor="start" x="743.5" y="-218.8" font-family="Helvetica,sans-Serif" font-size="11.00" fill="#000000">&lt; 1</text>
<polygon fill="#ffffff" stroke="transparent" points="788.5,-213.7 788.5,-230.7 826.5,-230.7 826.5,-213.7 788.5,-213.7"/>
<text text-anchor="start" x="804.4431" y="-218.8" font-family="Helvetica,sans-Serif" font-size="11.00" fill="#000000"> &#160;</text>
<polygon fill="#ffffff" stroke="transparent" points="826.5,-213.7 826.5,-230.7 864.5,-230.7 864.5,-213.7 826.5,-213.7"/>
<text text-anchor="start" x="856.3862" y="-218.8" font-family="Helvetica,sans-Serif" font-size="11.00" fill="#000000"> &#160;</text>
<polygon fill="#000000" stroke="#000000" points="788.5,-213.7 788.5,-230.7 788.5,-230.7 788.5,-213.7 788.5,-213.7"/>
<polygon fill="#000000" stroke="#000000" points="826.5,-213.7 826.5,-230.7 826.5,-230.7 826.5,-213.7 826.5,-213.7"/>
</a>
</g>
</g>
<!-- audit_event&#45;&gt;alert -->
<g id="edge5" class="edge">
<title>audit_event:w&#45;&gt;alert:e</title>
<path fill="none" stroke="#000000" d="M725.954,-240.7C710.9776,-240.7 702.6389,-240.7 682.5,-240.7"/>
<polygon fill="#000000" stroke="#000000" points="732.5,-240.7001 740.5,-244.3 736.5,-240.7 740.5,-240.7 740.5,-240.7 740.5,-240.7 736.5,-240.7 740.5,-237.1 732.5,-240.7001 732.5,-240.7001"/>
<ellipse fill="none" stroke="#000000" cx="729.3" cy="-240.7001" rx="3.2" ry="3.2"/>
</g>
</g>
</svg>
