<?xml version="1.0" encoding="UTF-8" standalone="no"?>
<!DOCTYPE svg PUBLIC "-//W3C//DTD SVG 1.1//EN"
 "http://www.w3.org/Graphics/SVG/1.1/DTD/svg11.dtd">
<!-- Generated by graphviz version 2.40.1 (20161225.0304)
 -->
<!-- Title: oneDegreeRelationshipsDiagram Pages: 1 -->
<svg width="674pt" height="499pt"
 viewBox="0.00 0.00 674.00 498.70" xmlns="http://www.w3.org/2000/svg" xmlns:xlink="http://www.w3.org/1999/xlink">
<g id="graph0" class="graph" transform="scale(1 1) rotate(0) translate(4 494.7)">
<title>oneDegreeRelationshipsDiagram</title>
<polygon fill="#ffffff" stroke="transparent" points="-4,4 -4,-494.7 670,-494.7 670,4 -4,4"/>
<text text-anchor="middle" x="72.4936" y="-7.3" font-family="Helvetica,sans-Serif" font-size="11.00" fill="#000000">Generated by SchemaSpy</text>
<!-- alert -->
<g id="node1" class="node">
<title>alert</title>
<g id="a_node1"><a xlink:href="../../tables/alert.html" xlink:title="alert" target="_top">
<polygon fill="#ffffff" stroke="transparent" points="448.5,-249.7 448.5,-486.7 649.5,-486.7 649.5,-249.7 448.5,-249.7"/>
<polygon fill="#f5f5f5" stroke="transparent" points="449,-463.2 449,-486.2 650,-486.2 650,-463.2 449,-463.2"/>
<polygon fill="none" stroke="#000000" points="449,-463.2 449,-486.2 650,-486.2 650,-463.2 449,-463.2"/>
<text text-anchor="start" x="454" y="-471.8" font-family="Helvetica,sans-Serif" font-weight="bold" font-size="11.00" fill="#000000">alert</text>
<text text-anchor="start" x="615.0437" y="-471.3" font-family="Helvetica,sans-Serif" font-size="11.00" fill="#000000">[table]</text>
<polygon fill="none" stroke="#000000" points="449,-441.2 449,-463.2 650,-463.2 650,-441.2 449,-441.2"/>
<image xlink:href="../../images/primaryKeys.png" width="11px" height="12px" preserveAspectRatio="xMinYMin meet" x="454" y="-458.2"/>
<text text-anchor="start" x="469" y="-448.3" font-family="Helvetica,sans-Serif" font-size="11.00" fill="#000000">id</text>
<polygon fill="#ffffff" stroke="transparent" points="449,-419.2 449,-441.2 650,-441.2 650,-419.2 449,-419.2"/>
<polygon fill="none" stroke="#000000" points="449,-419.2 449,-441.2 650,-441.2 650,-419.2 449,-419.2"/>
<image xlink:href="../../images/foreignKeys.png" width="11px" height="12px" preserveAspectRatio="xMinYMin meet" x="454" y="-436.2"/>
<text text-anchor="start" x="469" y="-426.3" font-family="Helvetica,sans-Serif" font-size="11.00" fill="#000000">alert_code_id</text>
<polygon fill="#ffffff" stroke="transparent" points="449,-397.2 449,-419.2 650,-419.2 650,-397.2 449,-397.2"/>
<polygon fill="none" stroke="#000000" points="449,-397.2 449,-419.2 650,-419.2 650,-397.2 449,-397.2"/>
<image xlink:href="../../images/foreignKeys.png" width="11px" height="12px" preserveAspectRatio="xMinYMin meet" x="454" y="-414.2"/>
<text text-anchor="start" x="469" y="-404.3" font-family="Helvetica,sans-Serif" font-size="11.00" fill="#000000">prison_number</text>
<polygon fill="#ffffff" stroke="transparent" points="449,-375.2 449,-397.2 650,-397.2 650,-375.2 449,-375.2"/>
<polygon fill="none" stroke="#000000" points="449,-375.2 449,-397.2 650,-397.2 650,-375.2 449,-375.2"/>
<text text-anchor="start" x="469" y="-382.3" font-family="Helvetica,sans-Serif" font-size="11.00" fill="#000000">active_from</text>
<polygon fill="#ffffff" stroke="transparent" points="449,-353.2 449,-375.2 650,-375.2 650,-353.2 449,-353.2"/>
<polygon fill="none" stroke="#000000" points="449,-353.2 449,-375.2 650,-375.2 650,-353.2 449,-353.2"/>
<text text-anchor="start" x="469" y="-360.3" font-family="Helvetica,sans-Serif" font-size="11.00" fill="#000000">active_to</text>
<polygon fill="#ffffff" stroke="transparent" points="449,-331.2 449,-353.2 650,-353.2 650,-331.2 449,-331.2"/>
<polygon fill="none" stroke="#000000" points="449,-331.2 449,-353.2 650,-353.2 650,-331.2 449,-331.2"/>
<text text-anchor="start" x="469" y="-338.3" font-family="Helvetica,sans-Serif" font-size="11.00" fill="#000000">deleted_at</text>
<polygon fill="#ffffff" stroke="transparent" points="449,-309.2 449,-331.2 650,-331.2 650,-309.2 449,-309.2"/>
<polygon fill="none" stroke="#000000" points="449,-309.2 449,-331.2 650,-331.2 650,-309.2 449,-309.2"/>
<text text-anchor="start" x="469" y="-316.3" font-family="Helvetica,sans-Serif" font-size="11.00" fill="#000000">created_at</text>
<polygon fill="#ffffff" stroke="transparent" points="449,-287.2 449,-309.2 650,-309.2 650,-287.2 449,-287.2"/>
<polygon fill="none" stroke="#000000" points="449,-287.2 449,-309.2 650,-309.2 650,-287.2 449,-287.2"/>
<text text-anchor="start" x="469" y="-294.3" font-family="Helvetica,sans-Serif" font-size="11.00" fill="#000000">last_modified_at</text>
<polygon fill="none" stroke="#000000" points="449,-268.2 449,-287.2 650,-287.2 650,-268.2 449,-268.2"/>
<text text-anchor="start" x="452" y="-274.3" font-family="Helvetica,sans-Serif" font-size="11.00" fill="#000000">...</text>
<polygon fill="#ffffff" stroke="transparent" points="449,-249.2 449,-268.2 543,-268.2 543,-249.2 449,-249.2"/>
<polygon fill="none" stroke="#000000" points="449,-249.2 449,-268.2 543,-268.2 543,-249.2 449,-249.2"/>
<text text-anchor="start" x="452" y="-255.3" font-family="Helvetica,sans-Serif" font-size="11.00" fill="#000000">&lt; 1</text>
<polygon fill="#ffffff" stroke="transparent" points="543,-249.2 543,-268.2 592,-268.2 592,-249.2 543,-249.2"/>
<polygon fill="none" stroke="#000000" points="543,-249.2 543,-268.2 592,-268.2 592,-249.2 543,-249.2"/>
<text text-anchor="start" x="582.8862" y="-255.3" font-family="Helvetica,sans-Serif" font-size="11.00" fill="#000000"> &#160;</text>
<polygon fill="#ffffff" stroke="transparent" points="592,-249.2 592,-268.2 650,-268.2 650,-249.2 592,-249.2"/>
<polygon fill="none" stroke="#000000" points="592,-249.2 592,-268.2 650,-268.2 650,-249.2 592,-249.2"/>
<text text-anchor="start" x="631.4053" y="-255.3" font-family="Helvetica,sans-Serif" font-size="11.00" fill="#000000">1 &gt;</text>
</a>
</g>
</g>
<!-- alert_code -->
<g id="node2" class="node">
<title>alert_code</title>
<g id="a_node2"><a xlink:href="../../tables/alert_code.html" xlink:title="alert_code" target="_top">
<polygon fill="#ffffff" stroke="transparent" points="180,-38.2 180,-348.2 391,-348.2 391,-38.2 180,-38.2"/>
<polygon fill="#f5f5f5" stroke="transparent" points="182.5,-323.2 182.5,-346.2 389.5,-346.2 389.5,-323.2 182.5,-323.2"/>
<polygon fill="none" stroke="#000000" points="182.5,-323.2 182.5,-346.2 389.5,-346.2 389.5,-323.2 182.5,-323.2"/>
<text text-anchor="start" x="187.5" y="-331.8" font-family="Helvetica,sans-Serif" font-weight="bold" font-size="11.00" fill="#000000">alert_code</text>
<text text-anchor="start" x="354.5437" y="-331.3" font-family="Helvetica,sans-Serif" font-size="11.00" fill="#000000">[table]</text>
<polygon fill="none" stroke="#000000" points="182.5,-301.2 182.5,-323.2 305.5,-323.2 305.5,-301.2 182.5,-301.2"/>
<image xlink:href="../../images/primaryKeys.png" width="11px" height="12px" preserveAspectRatio="xMinYMin meet" x="187.5" y="-318.2"/>
<text text-anchor="start" x="202.5" y="-308.3" font-family="Helvetica,sans-Serif" font-size="11.00" fill="#000000">alert_code_id</text>
<polygon fill="none" stroke="#000000" points="305.5,-301.2 305.5,-323.2 389.5,-323.2 389.5,-301.2 305.5,-301.2"/>
<text text-anchor="start" x="308.5" y="-308.9" font-family="Helvetica,sans-Serif" font-size="11.00" fill="#000000">bigserial[19]</text>
<polygon fill="#ffffff" stroke="transparent" points="182.5,-279.2 182.5,-301.2 305.5,-301.2 305.5,-279.2 182.5,-279.2"/>
<polygon fill="none" stroke="#000000" points="182.5,-279.2 182.5,-301.2 305.5,-301.2 305.5,-279.2 182.5,-279.2"/>
<image xlink:href="../../images/foreignKeys.png" width="11px" height="12px" preserveAspectRatio="xMinYMin meet" x="187.5" y="-296.2"/>
<text text-anchor="start" x="202.5" y="-286.3" font-family="Helvetica,sans-Serif" font-size="11.00" fill="#000000">alert_type_id</text>
<polygon fill="none" stroke="#000000" points="305.5,-279.2 305.5,-301.2 389.5,-301.2 389.5,-279.2 305.5,-279.2"/>
<text text-anchor="start" x="308.5" y="-286.9" font-family="Helvetica,sans-Serif" font-size="11.00" fill="#000000">int8[19]</text>
<polygon fill="#ffffff" stroke="transparent" points="182.5,-257.2 182.5,-279.2 305.5,-279.2 305.5,-257.2 182.5,-257.2"/>
<polygon fill="none" stroke="#000000" points="182.5,-257.2 182.5,-279.2 305.5,-279.2 305.5,-257.2 182.5,-257.2"/>
<text text-anchor="start" x="202.5" y="-264.3" font-family="Helvetica,sans-Serif" font-size="11.00" fill="#000000">code</text>
<polygon fill="none" stroke="#000000" points="305.5,-257.2 305.5,-279.2 389.5,-279.2 389.5,-257.2 305.5,-257.2"/>
<text text-anchor="start" x="308.5" y="-264.9" font-family="Helvetica,sans-Serif" font-size="11.00" fill="#000000">varchar[12]</text>
<polygon fill="none" stroke="#000000" points="182.5,-235.2 182.5,-257.2 305.5,-257.2 305.5,-235.2 182.5,-235.2"/>
<text text-anchor="start" x="202.5" y="-242.3" font-family="Helvetica,sans-Serif" font-size="11.00" fill="#000000">description</text>
<polygon fill="none" stroke="#000000" points="305.5,-235.2 305.5,-257.2 389.5,-257.2 389.5,-235.2 305.5,-235.2"/>
<text text-anchor="start" x="308.5" y="-242.9" font-family="Helvetica,sans-Serif" font-size="11.00" fill="#000000">varchar[40]</text>
<polygon fill="#ffffff" stroke="transparent" points="182.5,-213.2 182.5,-235.2 305.5,-235.2 305.5,-213.2 182.5,-213.2"/>
<polygon fill="none" stroke="#000000" points="182.5,-213.2 182.5,-235.2 305.5,-235.2 305.5,-213.2 182.5,-213.2"/>
<text text-anchor="start" x="202.5" y="-220.3" font-family="Helvetica,sans-Serif" font-size="11.00" fill="#000000">list_sequence</text>
<polygon fill="none" stroke="#000000" points="305.5,-213.2 305.5,-235.2 389.5,-235.2 389.5,-213.2 305.5,-213.2"/>
<text text-anchor="start" x="308.5" y="-220.9" font-family="Helvetica,sans-Serif" font-size="11.00" fill="#000000">int4[10]</text>
<polygon fill="#ffffff" stroke="transparent" points="182.5,-191.2 182.5,-213.2 305.5,-213.2 305.5,-191.2 182.5,-191.2"/>
<polygon fill="none" stroke="#000000" points="182.5,-191.2 182.5,-213.2 305.5,-213.2 305.5,-191.2 182.5,-191.2"/>
<text text-anchor="start" x="202.5" y="-198.3" font-family="Helvetica,sans-Serif" font-size="11.00" fill="#000000">created_at</text>
<polygon fill="none" stroke="#000000" points="305.5,-191.2 305.5,-213.2 389.5,-213.2 389.5,-191.2 305.5,-191.2"/>
<text text-anchor="start" x="308.3807" y="-198.9" font-family="Helvetica,sans-Serif" font-size="11.00" fill="#000000">timestamp[29,6]</text>
<polygon fill="none" stroke="#000000" points="182.5,-169.2 182.5,-191.2 305.5,-191.2 305.5,-169.2 182.5,-169.2"/>
<text text-anchor="start" x="202.5" y="-176.3" font-family="Helvetica,sans-Serif" font-size="11.00" fill="#000000">created_by</text>
<polygon fill="none" stroke="#000000" points="305.5,-169.2 305.5,-191.2 389.5,-191.2 389.5,-169.2 305.5,-169.2"/>
<text text-anchor="start" x="308.5" y="-176.9" font-family="Helvetica,sans-Serif" font-size="11.00" fill="#000000">varchar[64]</text>
<polygon fill="none" stroke="#000000" points="182.5,-147.2 182.5,-169.2 305.5,-169.2 305.5,-147.2 182.5,-147.2"/>
<text text-anchor="start" x="202.5" y="-154.3" font-family="Helvetica,sans-Serif" font-size="11.00" fill="#000000">modified_at</text>
<polygon fill="none" stroke="#000000" points="305.5,-147.2 305.5,-169.2 389.5,-169.2 389.5,-147.2 305.5,-147.2"/>
<text text-anchor="start" x="308.3807" y="-154.9" font-family="Helvetica,sans-Serif" font-size="11.00" fill="#000000">timestamp[29,6]</text>
<polygon fill="none" stroke="#000000" points="182.5,-125.2 182.5,-147.2 305.5,-147.2 305.5,-125.2 182.5,-125.2"/>
<text text-anchor="start" x="202.5" y="-132.3" font-family="Helvetica,sans-Serif" font-size="11.00" fill="#000000">modified_by</text>
<polygon fill="none" stroke="#000000" points="305.5,-125.2 305.5,-147.2 389.5,-147.2 389.5,-125.2 305.5,-125.2"/>
<text text-anchor="start" x="308.5" y="-132.9" font-family="Helvetica,sans-Serif" font-size="11.00" fill="#000000">varchar[64]</text>
<polygon fill="#ffffff" stroke="transparent" points="182.5,-103.2 182.5,-125.2 305.5,-125.2 305.5,-103.2 182.5,-103.2"/>
<polygon fill="none" stroke="#000000" points="182.5,-103.2 182.5,-125.2 305.5,-125.2 305.5,-103.2 182.5,-103.2"/>
<text text-anchor="start" x="202.5" y="-110.3" font-family="Helvetica,sans-Serif" font-size="11.00" fill="#000000">deactivated_at</text>
<polygon fill="none" stroke="#000000" points="305.5,-103.2 305.5,-125.2 389.5,-125.2 389.5,-103.2 305.5,-103.2"/>
<text text-anchor="start" x="308.3807" y="-110.9" font-family="Helvetica,sans-Serif" font-size="11.00" fill="#000000">timestamp[29,6]</text>
<polygon fill="none" stroke="#000000" points="182.5,-81.2 182.5,-103.2 305.5,-103.2 305.5,-81.2 182.5,-81.2"/>
<text text-anchor="start" x="202.5" y="-88.3" font-family="Helvetica,sans-Serif" font-size="11.00" fill="#000000">deactivated_by</text>
<polygon fill="none" stroke="#000000" points="305.5,-81.2 305.5,-103.2 389.5,-103.2 389.5,-81.2 305.5,-81.2"/>
<text text-anchor="start" x="308.5" y="-88.9" font-family="Helvetica,sans-Serif" font-size="11.00" fill="#000000">varchar[64]</text>
<polygon fill="none" stroke="#000000" points="182.5,-59.2 182.5,-81.2 305.5,-81.2 305.5,-59.2 182.5,-59.2"/>
<text text-anchor="start" x="202.5" y="-66.3" font-family="Helvetica,sans-Serif" font-size="11.00" fill="#000000">restricted</text>
<polygon fill="none" stroke="#000000" points="305.5,-59.2 305.5,-81.2 389.5,-81.2 389.5,-59.2 305.5,-59.2"/>
<text text-anchor="start" x="308.5" y="-66.9" font-family="Helvetica,sans-Serif" font-size="11.00" fill="#000000">bool[1]</text>
<polygon fill="#ffffff" stroke="transparent" points="182.5,-40.2 182.5,-59.2 229.5,-59.2 229.5,-40.2 182.5,-40.2"/>
<polygon fill="none" stroke="#000000" points="182.5,-40.2 182.5,-59.2 229.5,-59.2 229.5,-40.2 182.5,-40.2"/>
<text text-anchor="start" x="185.5" y="-46.3" font-family="Helvetica,sans-Serif" font-size="11.00" fill="#000000">&lt; 1</text>
<polygon fill="#ffffff" stroke="transparent" points="229.5,-40.2 229.5,-59.2 305.5,-59.2 305.5,-40.2 229.5,-40.2"/>
<polygon fill="none" stroke="#000000" points="229.5,-40.2 229.5,-59.2 305.5,-59.2 305.5,-40.2 229.5,-40.2"/>
<text text-anchor="start" x="257.8807" y="-46.3" font-family="Helvetica,sans-Serif" font-size="11.00" fill="#000000">213 rows</text>
<polygon fill="#ffffff" stroke="transparent" points="305.5,-40.2 305.5,-59.2 389.5,-59.2 389.5,-40.2 305.5,-40.2"/>
<polygon fill="none" stroke="#000000" points="305.5,-40.2 305.5,-59.2 389.5,-59.2 389.5,-40.2 305.5,-40.2"/>
<text text-anchor="start" x="370.9053" y="-46.3" font-family="Helvetica,sans-Serif" font-size="11.00" fill="#000000">2 &gt;</text>
<polygon fill="none" stroke="#000000" stroke-width="2" points="181,-39.2 181,-347.2 390,-347.2 390,-39.2 181,-39.2"/>
</a>
</g>
</g>
<!-- alert&#45;&gt;alert_code -->
<g id="edge1" class="edge">
<title>alert:w&#45;&gt;alert_code:e</title>
<path fill="none" stroke="#000000" d="M434.9142,-427.0438C400.4747,-408.2785 442.4986,-312.2 389.5,-312.2"/>
<polygon fill="#000000" stroke="#000000" points="441.1936,-428.4508 448.2128,-433.7129 445.0968,-429.3254 449,-430.2 449,-430.2 449,-430.2 445.0968,-429.3254 449.7872,-426.6871 441.1936,-428.4508 441.1936,-428.4508"/>
<ellipse fill="none" stroke="#000000" cx="438.071" cy="-427.7511" rx="3.2" ry="3.2"/>
</g>
<!-- alert_type -->
<g id="node3" class="node">
<title>alert_type</title>
<g id="a_node3"><a xlink:href="../../tables/alert_type.html" xlink:title="alert_type" target="_top">
<polygon fill="#ffffff" stroke="transparent" points="8,-153.7 8,-324.7 131,-324.7 131,-153.7 8,-153.7"/>
<polygon fill="#f5f5f5" stroke="transparent" points="8.5,-301.2 8.5,-324.2 131.5,-324.2 131.5,-301.2 8.5,-301.2"/>
<polygon fill="none" stroke="#000000" points="8.5,-301.2 8.5,-324.2 131.5,-324.2 131.5,-301.2 8.5,-301.2"/>
<text text-anchor="start" x="13.5" y="-309.8" font-family="Helvetica,sans-Serif" font-weight="bold" font-size="11.00" fill="#000000">alert_type</text>
<text text-anchor="start" x="96.5437" y="-309.3" font-family="Helvetica,sans-Serif" font-size="11.00" fill="#000000">[table]</text>
<polygon fill="none" stroke="#000000" points="8.5,-279.2 8.5,-301.2 131.5,-301.2 131.5,-279.2 8.5,-279.2"/>
<image xlink:href="../../images/primaryKeys.png" width="11px" height="12px" preserveAspectRatio="xMinYMin meet" x="13.5" y="-296.2"/>
<text text-anchor="start" x="28.5" y="-286.3" font-family="Helvetica,sans-Serif" font-size="11.00" fill="#000000">alert_type_id</text>
<polygon fill="#ffffff" stroke="transparent" points="8.5,-257.2 8.5,-279.2 131.5,-279.2 131.5,-257.2 8.5,-257.2"/>
<polygon fill="none" stroke="#000000" points="8.5,-257.2 8.5,-279.2 131.5,-279.2 131.5,-257.2 8.5,-257.2"/>
<text text-anchor="start" x="28.5" y="-264.3" font-family="Helvetica,sans-Serif" font-size="11.00" fill="#000000">code</text>
<polygon fill="#ffffff" stroke="transparent" points="8.5,-235.2 8.5,-257.2 131.5,-257.2 131.5,-235.2 8.5,-235.2"/>
<polygon fill="none" stroke="#000000" points="8.5,-235.2 8.5,-257.2 131.5,-257.2 131.5,-235.2 8.5,-235.2"/>
<text text-anchor="start" x="28.5" y="-242.3" font-family="Helvetica,sans-Serif" font-size="11.00" fill="#000000">list_sequence</text>
<polygon fill="#ffffff" stroke="transparent" points="8.5,-213.2 8.5,-235.2 131.5,-235.2 131.5,-213.2 8.5,-213.2"/>
<polygon fill="none" stroke="#000000" points="8.5,-213.2 8.5,-235.2 131.5,-235.2 131.5,-213.2 8.5,-213.2"/>
<text text-anchor="start" x="28.5" y="-220.3" font-family="Helvetica,sans-Serif" font-size="11.00" fill="#000000">created_at</text>
<polygon fill="#ffffff" stroke="transparent" points="8.5,-191.2 8.5,-213.2 131.5,-213.2 131.5,-191.2 8.5,-191.2"/>
<polygon fill="none" stroke="#000000" points="8.5,-191.2 8.5,-213.2 131.5,-213.2 131.5,-191.2 8.5,-191.2"/>
<text text-anchor="start" x="28.5" y="-198.3" font-family="Helvetica,sans-Serif" font-size="11.00" fill="#000000">deactivated_at</text>
<polygon fill="none" stroke="#000000" points="8.5,-172.2 8.5,-191.2 131.5,-191.2 131.5,-172.2 8.5,-172.2"/>
<text text-anchor="start" x="11.5" y="-178.3" font-family="Helvetica,sans-Serif" font-size="11.00" fill="#000000">...</text>
<polygon fill="#ffffff" stroke="transparent" points="8.5,-153.2 8.5,-172.2 59.5,-172.2 59.5,-153.2 8.5,-153.2"/>
<polygon fill="none" stroke="#000000" points="8.5,-153.2 8.5,-172.2 59.5,-172.2 59.5,-153.2 8.5,-153.2"/>
<text text-anchor="start" x="11.5" y="-159.3" font-family="Helvetica,sans-Serif" font-size="11.00" fill="#000000"> &#160;</text>
<polygon fill="#ffffff" stroke="transparent" points="59.5,-153.2 59.5,-172.2 90.5,-172.2 90.5,-153.2 59.5,-153.2"/>
<polygon fill="none" stroke="#000000" points="59.5,-153.2 59.5,-172.2 90.5,-172.2 90.5,-153.2 59.5,-153.2"/>
<text text-anchor="start" x="81.3862" y="-159.3" font-family="Helvetica,sans-Serif" font-size="11.00" fill="#000000"> &#160;</text>
<polygon fill="#ffffff" stroke="transparent" points="90.5,-153.2 90.5,-172.2 131.5,-172.2 131.5,-153.2 90.5,-153.2"/>
<polygon fill="none" stroke="#000000" points="90.5,-153.2 90.5,-172.2 131.5,-172.2 131.5,-153.2 90.5,-153.2"/>
<text text-anchor="start" x="112.9053" y="-159.3" font-family="Helvetica,sans-Serif" font-size="11.00" fill="#000000">1 &gt;</text>
</a>
</g>
</g>
<!-- alert_code&#45;&gt;alert_type -->
<g id="edge2" class="edge">
<title>alert_code:w&#45;&gt;alert_type:e</title>
<path fill="none" stroke="#000000" d="M167.776,-290.2C155.7815,-290.2 148.3229,-290.2 131.5,-290.2"/>
<polygon fill="#000000" stroke="#000000" points="174.5,-290.2001 182.5,-293.8 178.5,-290.2 182.5,-290.2 182.5,-290.2 182.5,-290.2 178.5,-290.2 182.5,-286.6 174.5,-290.2001 174.5,-290.2001"/>
<ellipse fill="none" stroke="#000000" cx="171.3" cy="-290.2001" rx="3.2" ry="3.2"/>
</g>
<!-- alert_code_privileged_user -->
<g id="node4" class="node">
<title>alert_code_privileged_user</title>
<g id="a_node4"><a xlink:href="../../tables/alert_code_privileged_user.html" xlink:title="alert_code_privileged_user" target="_top">
<polygon fill="#ffffff" stroke="transparent" points="440,-142.2 440,-228.2 658,-228.2 658,-142.2 440,-142.2"/>
<polygon fill="#f5f5f5" stroke="transparent" points="440,-205.2 440,-228.2 658,-228.2 658,-205.2 440,-205.2"/>
<polygon fill="none" stroke="#000000" points="440,-205.2 440,-228.2 658,-228.2 658,-205.2 440,-205.2"/>
<text text-anchor="start" x="445" y="-213.8" font-family="Helvetica,sans-Serif" font-weight="bold" font-size="11.00" fill="#000000">alert_code_privileged_user</text>
<text text-anchor="start" x="623.5219" y="-213.3" font-family="Helvetica,sans-Serif" font-size="11.00" fill="#000000">[table]</text>
<polygon fill="none" stroke="#000000" points="440,-183.2 440,-205.2 658,-205.2 658,-183.2 440,-183.2"/>
<image xlink:href="../../images/primaryKeys.png" width="11px" height="12px" preserveAspectRatio="xMinYMin meet" x="445" y="-200.2"/>
<text text-anchor="start" x="469" y="-190.3" font-family="Helvetica,sans-Serif" font-size="11.00" fill="#000000">alert_code_id</text>
<polygon fill="none" stroke="#000000" points="440,-161.2 440,-183.2 658,-183.2 658,-161.2 440,-161.2"/>
<image xlink:href="../../images/primaryKeys.png" width="11px" height="12px" preserveAspectRatio="xMinYMin meet" x="445" y="-178.2"/>
<text text-anchor="start" x="469" y="-168.3" font-family="Helvetica,sans-Serif" font-size="11.00" fill="#000000">username</text>
<polygon fill="#ffffff" stroke="transparent" points="440,-142.2 440,-161.2 547,-161.2 547,-142.2 440,-142.2"/>
<polygon fill="none" stroke="#000000" points="440,-142.2 440,-161.2 547,-161.2 547,-142.2 440,-142.2"/>
<text text-anchor="start" x="443" y="-148.3" font-family="Helvetica,sans-Serif" font-size="11.00" fill="#000000">&lt; 1</text>
<polygon fill="#ffffff" stroke="transparent" points="547,-142.2 547,-161.2 602,-161.2 602,-142.2 547,-142.2"/>
<polygon fill="none" stroke="#000000" points="547,-142.2 547,-161.2 602,-161.2 602,-142.2 547,-142.2"/>
<text text-anchor="start" x="592.8862" y="-148.3" font-family="Helvetica,sans-Serif" font-size="11.00" fill="#000000"> &#160;</text>
<polygon fill="#ffffff" stroke="transparent" points="602,-142.2 602,-161.2 658,-161.2 658,-142.2 602,-142.2"/>
<polygon fill="none" stroke="#000000" points="602,-142.2 602,-161.2 658,-161.2 658,-142.2 602,-142.2"/>
<text text-anchor="start" x="648.8862" y="-148.3" font-family="Helvetica,sans-Serif" font-size="11.00" fill="#000000"> &#160;</text>
</a>
</g>
</g>
<!-- alert_code_privileged_user&#45;&gt;alert_code -->
<g id="edge3" class="edge">
<title>alert_code_privileged_user:w&#45;&gt;alert_code:e</title>
<path fill="none" stroke="#000000" d="M425.6932,-197.8609C395.0264,-217.778 440.5289,-312.2 389.5,-312.2"/>
<polygon fill="#000000" stroke="#000000" points="432.2497,-196.1832 440.8925,-197.6876 436.1249,-195.1916 440,-194.2 440,-194.2 440,-194.2 436.1249,-195.1916 439.1075,-190.7124 432.2497,-196.1832 432.2497,-196.1832"/>
<ellipse fill="none" stroke="#000000" cx="429.1496" cy="-196.9765" rx="3.2" ry="3.2"/>
</g>
</g>
</svg>
