<?xml version="1.0" encoding="UTF-8" standalone="no"?>
<!DOCTYPE svg PUBLIC "-//W3C//DTD SVG 1.1//EN"
 "http://www.w3.org/Graphics/SVG/1.1/DTD/svg11.dtd">
<!-- Generated by graphviz version 2.40.1 (20161225.0304)
 -->
<!-- Title: twoDegreesRelationshipsDiagram Pages: 1 -->
<svg width="621pt" height="285pt"
 viewBox="0.00 0.00 621.00 285.20" xmlns="http://www.w3.org/2000/svg" xmlns:xlink="http://www.w3.org/1999/xlink">
<g id="graph0" class="graph" transform="scale(1 1) rotate(0) translate(4 281.2)">
<title>twoDegreesRelationshipsDiagram</title>
<polygon fill="#ffffff" stroke="transparent" points="-4,4 -4,-281.2 617,-281.2 617,4 -4,4"/>
<text text-anchor="middle" x="72.4936" y="-7.3" font-family="Helvetica,sans-Serif" font-size="11.00" fill="#000000">Generated by SchemaSpy</text>
<!-- alert -->
<g id="node1" class="node">
<title>alert</title>
<g id="a_node1"><a xlink:href="../../tables/alert.html" xlink:title="alert" target="_top">
<polygon fill="#ffffff" stroke="transparent" points="435,-212.2 435,-273.2 506,-273.2 506,-212.2 435,-212.2"/>
<polygon fill="#f5f5f5" stroke="transparent" points="435.5,-249.7 435.5,-272.7 506.5,-272.7 506.5,-249.7 435.5,-249.7"/>
<polygon fill="none" stroke="#000000" points="435.5,-249.7 435.5,-272.7 506.5,-272.7 506.5,-249.7 435.5,-249.7"/>
<text text-anchor="start" x="440.5" y="-258.3" font-family="Helvetica,sans-Serif" font-weight="bold" font-size="11.00" fill="#000000">alert</text>
<text text-anchor="start" x="472.0219" y="-257.8" font-family="Helvetica,sans-Serif" font-size="11.00" fill="#000000">[table]</text>
<polygon fill="none" stroke="#000000" points="435.5,-230.7 435.5,-249.7 506.5,-249.7 506.5,-230.7 435.5,-230.7"/>
<text text-anchor="start" x="438.5" y="-236.8" font-family="Helvetica,sans-Serif" font-size="11.00" fill="#000000">...</text>
<polygon fill="#ffffff" stroke="transparent" points="435.5,-211.7 435.5,-230.7 464.5,-230.7 464.5,-211.7 435.5,-211.7"/>
<polygon fill="none" stroke="#000000" points="435.5,-211.7 435.5,-230.7 464.5,-230.7 464.5,-211.7 435.5,-211.7"/>
<text text-anchor="start" x="438.5" y="-217.8" font-family="Helvetica,sans-Serif" font-size="11.00" fill="#000000">&lt; 1</text>
<polygon fill="#ffffff" stroke="transparent" points="464.5,-211.7 464.5,-230.7 480.5,-230.7 480.5,-211.7 464.5,-211.7"/>
<polygon fill="none" stroke="#000000" points="464.5,-211.7 464.5,-230.7 480.5,-230.7 480.5,-211.7 464.5,-211.7"/>
<text text-anchor="start" x="471.3862" y="-217.8" font-family="Helvetica,sans-Serif" font-size="11.00" fill="#000000"> &#160;</text>
<polygon fill="#ffffff" stroke="transparent" points="480.5,-211.7 480.5,-230.7 506.5,-230.7 506.5,-211.7 480.5,-211.7"/>
<polygon fill="none" stroke="#000000" points="480.5,-211.7 480.5,-230.7 506.5,-230.7 506.5,-211.7 480.5,-211.7"/>
<text text-anchor="start" x="487.9053" y="-217.8" font-family="Helvetica,sans-Serif" font-size="11.00" fill="#000000">1 &gt;</text>
</a>
</g>
</g>
<!-- alert_code -->
<g id="node2" class="node">
<title>alert_code</title>
<g id="a_node2"><a xlink:href="../../tables/alert_code.html" xlink:title="alert_code" target="_top">
<polygon fill="#ffffff" stroke="transparent" points="164,-38.2 164,-231.2 287,-231.2 287,-38.2 164,-38.2"/>
<polygon fill="#f5f5f5" stroke="transparent" points="164.5,-207.7 164.5,-230.7 287.5,-230.7 287.5,-207.7 164.5,-207.7"/>
<polygon fill="none" stroke="#000000" points="164.5,-207.7 164.5,-230.7 287.5,-230.7 287.5,-207.7 164.5,-207.7"/>
<text text-anchor="start" x="169.5" y="-216.3" font-family="Helvetica,sans-Serif" font-weight="bold" font-size="11.00" fill="#000000">alert_code</text>
<text text-anchor="start" x="252.5437" y="-215.8" font-family="Helvetica,sans-Serif" font-size="11.00" fill="#000000">[table]</text>
<polygon fill="none" stroke="#000000" points="164.5,-185.7 164.5,-207.7 287.5,-207.7 287.5,-185.7 164.5,-185.7"/>
<image xlink:href="../../images/primaryKeys.png" width="11px" height="12px" preserveAspectRatio="xMinYMin meet" x="169.5" y="-202.7"/>
<text text-anchor="start" x="184.5" y="-192.8" font-family="Helvetica,sans-Serif" font-size="11.00" fill="#000000">alert_code_id</text>
<polygon fill="#ffffff" stroke="transparent" points="164.5,-163.7 164.5,-185.7 287.5,-185.7 287.5,-163.7 164.5,-163.7"/>
<polygon fill="none" stroke="#000000" points="164.5,-163.7 164.5,-185.7 287.5,-185.7 287.5,-163.7 164.5,-163.7"/>
<image xlink:href="../../images/foreignKeys.png" width="11px" height="12px" preserveAspectRatio="xMinYMin meet" x="169.5" y="-180.7"/>
<text text-anchor="start" x="184.5" y="-170.8" font-family="Helvetica,sans-Serif" font-size="11.00" fill="#000000">alert_type_id</text>
<polygon fill="#ffffff" stroke="transparent" points="164.5,-141.7 164.5,-163.7 287.5,-163.7 287.5,-141.7 164.5,-141.7"/>
<polygon fill="none" stroke="#000000" points="164.5,-141.7 164.5,-163.7 287.5,-163.7 287.5,-141.7 164.5,-141.7"/>
<text text-anchor="start" x="184.5" y="-148.8" font-family="Helvetica,sans-Serif" font-size="11.00" fill="#000000">code</text>
<polygon fill="#ffffff" stroke="transparent" points="164.5,-119.7 164.5,-141.7 287.5,-141.7 287.5,-119.7 164.5,-119.7"/>
<polygon fill="none" stroke="#000000" points="164.5,-119.7 164.5,-141.7 287.5,-141.7 287.5,-119.7 164.5,-119.7"/>
<text text-anchor="start" x="184.5" y="-126.8" font-family="Helvetica,sans-Serif" font-size="11.00" fill="#000000">list_sequence</text>
<polygon fill="#ffffff" stroke="transparent" points="164.5,-97.7 164.5,-119.7 287.5,-119.7 287.5,-97.7 164.5,-97.7"/>
<polygon fill="none" stroke="#000000" points="164.5,-97.7 164.5,-119.7 287.5,-119.7 287.5,-97.7 164.5,-97.7"/>
<text text-anchor="start" x="184.5" y="-104.8" font-family="Helvetica,sans-Serif" font-size="11.00" fill="#000000">created_at</text>
<polygon fill="#ffffff" stroke="transparent" points="164.5,-75.7 164.5,-97.7 287.5,-97.7 287.5,-75.7 164.5,-75.7"/>
<polygon fill="none" stroke="#000000" points="164.5,-75.7 164.5,-97.7 287.5,-97.7 287.5,-75.7 164.5,-75.7"/>
<text text-anchor="start" x="184.5" y="-82.8" font-family="Helvetica,sans-Serif" font-size="11.00" fill="#000000">deactivated_at</text>
<polygon fill="none" stroke="#000000" points="164.5,-56.7 164.5,-75.7 287.5,-75.7 287.5,-56.7 164.5,-56.7"/>
<text text-anchor="start" x="167.5" y="-62.8" font-family="Helvetica,sans-Serif" font-size="11.00" fill="#000000">...</text>
<polygon fill="#ffffff" stroke="transparent" points="164.5,-37.7 164.5,-56.7 219.5,-56.7 219.5,-37.7 164.5,-37.7"/>
<polygon fill="none" stroke="#000000" points="164.5,-37.7 164.5,-56.7 219.5,-56.7 219.5,-37.7 164.5,-37.7"/>
<text text-anchor="start" x="167.5" y="-43.8" font-family="Helvetica,sans-Serif" font-size="11.00" fill="#000000">&lt; 1</text>
<polygon fill="#ffffff" stroke="transparent" points="219.5,-37.7 219.5,-56.7 248.5,-56.7 248.5,-37.7 219.5,-37.7"/>
<polygon fill="none" stroke="#000000" points="219.5,-37.7 219.5,-56.7 248.5,-56.7 248.5,-37.7 219.5,-37.7"/>
<text text-anchor="start" x="239.3862" y="-43.8" font-family="Helvetica,sans-Serif" font-size="11.00" fill="#000000"> &#160;</text>
<polygon fill="#ffffff" stroke="transparent" points="248.5,-37.7 248.5,-56.7 287.5,-56.7 287.5,-37.7 248.5,-37.7"/>
<polygon fill="none" stroke="#000000" points="248.5,-37.7 248.5,-56.7 287.5,-56.7 287.5,-37.7 248.5,-37.7"/>
<text text-anchor="start" x="268.9053" y="-43.8" font-family="Helvetica,sans-Serif" font-size="11.00" fill="#000000">2 &gt;</text>
</a>
</g>
</g>
<!-- alert&#45;&gt;alert_code -->
<g id="edge1" class="edge">
<title>alert:w&#45;&gt;alert_code:e</title>
<path fill="none" stroke="#000000" d="M420.7971,-238.9895C364.9922,-233.3987 350.7802,-196.7 287.5,-196.7"/>
<polygon fill="#000000" stroke="#000000" points="427.5093,-239.3138 435.3262,-243.2958 431.5047,-239.5069 435.5,-239.7 435.5,-239.7 435.5,-239.7 431.5047,-239.5069 435.6738,-236.1042 427.5093,-239.3138 427.5093,-239.3138"/>
<ellipse fill="none" stroke="#000000" cx="424.3131" cy="-239.1594" rx="3.2" ry="3.2"/>
</g>
<!-- alert_type -->
<g id="node3" class="node">
<title>alert_type</title>
<g id="a_node3"><a xlink:href="../../tables/alert_type.html" xlink:title="alert_type" target="_top">
<polygon fill="#ffffff" stroke="transparent" points="8,-147.2 8,-208.2 115,-208.2 115,-147.2 8,-147.2"/>
<polygon fill="#f5f5f5" stroke="transparent" points="8.5,-184.7 8.5,-207.7 115.5,-207.7 115.5,-184.7 8.5,-184.7"/>
<polygon fill="none" stroke="#000000" points="8.5,-184.7 8.5,-207.7 115.5,-207.7 115.5,-184.7 8.5,-184.7"/>
<text text-anchor="start" x="13.5" y="-193.3" font-family="Helvetica,sans-Serif" font-weight="bold" font-size="11.00" fill="#000000">alert_type</text>
<text text-anchor="start" x="81.0219" y="-192.8" font-family="Helvetica,sans-Serif" font-size="11.00" fill="#000000">[table]</text>
<polygon fill="none" stroke="#000000" points="8.5,-165.7 8.5,-184.7 115.5,-184.7 115.5,-165.7 8.5,-165.7"/>
<text text-anchor="start" x="11.5" y="-171.8" font-family="Helvetica,sans-Serif" font-size="11.00" fill="#000000">...</text>
<polygon fill="#ffffff" stroke="transparent" points="8.5,-146.7 8.5,-165.7 51.5,-165.7 51.5,-146.7 8.5,-146.7"/>
<polygon fill="none" stroke="#000000" points="8.5,-146.7 8.5,-165.7 51.5,-165.7 51.5,-146.7 8.5,-146.7"/>
<text text-anchor="start" x="11.5" y="-152.8" font-family="Helvetica,sans-Serif" font-size="11.00" fill="#000000"> &#160;</text>
<polygon fill="#ffffff" stroke="transparent" points="51.5,-146.7 51.5,-165.7 78.5,-165.7 78.5,-146.7 51.5,-146.7"/>
<polygon fill="none" stroke="#000000" points="51.5,-146.7 51.5,-165.7 78.5,-165.7 78.5,-146.7 51.5,-146.7"/>
<text text-anchor="start" x="69.3862" y="-152.8" font-family="Helvetica,sans-Serif" font-size="11.00" fill="#000000"> &#160;</text>
<polygon fill="#ffffff" stroke="transparent" points="78.5,-146.7 78.5,-165.7 115.5,-165.7 115.5,-146.7 78.5,-146.7"/>
<polygon fill="none" stroke="#000000" points="78.5,-146.7 78.5,-165.7 115.5,-165.7 115.5,-146.7 78.5,-146.7"/>
<text text-anchor="start" x="96.9053" y="-152.8" font-family="Helvetica,sans-Serif" font-size="11.00" fill="#000000">1 &gt;</text>
</a>
</g>
</g>
<!-- alert_code&#45;&gt;alert_type -->
<g id="edge2" class="edge">
<title>alert_code:w&#45;&gt;alert_type:e</title>
<path fill="none" stroke="#000000" d="M149.9909,-174.7C138.6774,-174.7 131.4931,-174.7 115.5,-174.7"/>
<polygon fill="#000000" stroke="#000000" points="156.5,-174.7001 164.5,-178.3 160.5,-174.7 164.5,-174.7 164.5,-174.7 164.5,-174.7 160.5,-174.7 164.5,-171.1 156.5,-174.7001 156.5,-174.7001"/>
<ellipse fill="none" stroke="#000000" cx="153.3" cy="-174.7001" rx="3.2" ry="3.2"/>
</g>
<!-- alert_code_privileged_user -->
<g id="node4" class="node">
<title>alert_code_privileged_user</title>
<g id="a_node4"><a xlink:href="../../tables/alert_code_privileged_user.html" xlink:title="alert_code_privileged_user" target="_top">
<polygon fill="#ffffff" stroke="transparent" points="336,-100.7 336,-190.7 605,-190.7 605,-100.7 336,-100.7"/>
<polygon fill="#f5f5f5" stroke="transparent" points="338.5,-165.7 338.5,-188.7 603.5,-188.7 603.5,-165.7 338.5,-165.7"/>
<polygon fill="none" stroke="#000000" points="338.5,-165.7 338.5,-188.7 603.5,-188.7 603.5,-165.7 338.5,-165.7"/>
<text text-anchor="start" x="343.5" y="-174.3" font-family="Helvetica,sans-Serif" font-weight="bold" font-size="11.00" fill="#000000">alert_code_privileged_user</text>
<text text-anchor="start" x="568.5437" y="-173.8" font-family="Helvetica,sans-Serif" font-size="11.00" fill="#000000">[table]</text>
<polygon fill="none" stroke="#000000" points="338.5,-143.7 338.5,-165.7 538.5,-165.7 538.5,-143.7 338.5,-143.7"/>
<image xlink:href="../../images/primaryKeys.png" width="11px" height="12px" preserveAspectRatio="xMinYMin meet" x="343.5" y="-160.7"/>
<text text-anchor="start" x="358.5" y="-150.8" font-family="Helvetica,sans-Serif" font-size="11.00" fill="#000000">alert_code_id</text>
<polygon fill="none" stroke="#000000" points="538.5,-143.7 538.5,-165.7 603.5,-165.7 603.5,-143.7 538.5,-143.7"/>
<text text-anchor="start" x="541.3561" y="-151.4" font-family="Helvetica,sans-Serif" font-size="11.00" fill="#000000">bigserial[19]</text>
<polygon fill="none" stroke="#000000" points="338.5,-121.7 338.5,-143.7 538.5,-143.7 538.5,-121.7 338.5,-121.7"/>
<image xlink:href="../../images/primaryKeys.png" width="11px" height="12px" preserveAspectRatio="xMinYMin meet" x="343.5" y="-138.7"/>
<text text-anchor="start" x="358.5" y="-128.8" font-family="Helvetica,sans-Serif" font-size="11.00" fill="#000000">username</text>
<polygon fill="none" stroke="#000000" points="538.5,-121.7 538.5,-143.7 603.5,-143.7 603.5,-121.7 538.5,-121.7"/>
<text text-anchor="start" x="541.5" y="-129.4" font-family="Helvetica,sans-Serif" font-size="11.00" fill="#000000">varchar[64]</text>
<polygon fill="#ffffff" stroke="transparent" points="338.5,-102.7 338.5,-121.7 442.5,-121.7 442.5,-102.7 338.5,-102.7"/>
<polygon fill="none" stroke="#000000" points="338.5,-102.7 338.5,-121.7 442.5,-121.7 442.5,-102.7 338.5,-102.7"/>
<text text-anchor="start" x="341.5" y="-108.8" font-family="Helvetica,sans-Serif" font-size="11.00" fill="#000000">&lt; 1</text>
<polygon fill="#ffffff" stroke="transparent" points="442.5,-102.7 442.5,-121.7 538.5,-121.7 538.5,-102.7 442.5,-102.7"/>
<polygon fill="none" stroke="#000000" points="442.5,-102.7 442.5,-121.7 538.5,-121.7 538.5,-102.7 442.5,-102.7"/>
<text text-anchor="start" x="529.3862" y="-108.8" font-family="Helvetica,sans-Serif" font-size="11.00" fill="#000000"> &#160;</text>
<polygon fill="#ffffff" stroke="transparent" points="538.5,-102.7 538.5,-121.7 603.5,-121.7 603.5,-102.7 538.5,-102.7"/>
<polygon fill="none" stroke="#000000" points="538.5,-102.7 538.5,-121.7 603.5,-121.7 603.5,-102.7 538.5,-102.7"/>
<text text-anchor="start" x="584.9053" y="-108.8" font-family="Helvetica,sans-Serif" font-size="11.00" fill="#000000">0 &gt;</text>
<polygon fill="none" stroke="#000000" stroke-width="2" points="337,-101.7 337,-189.7 604,-189.7 604,-101.7 337,-101.7"/>
</a>
</g>
</g>
<!-- alert_code_privileged_user&#45;&gt;alert_code -->
<g id="edge3" class="edge">
<title>alert_code_privileged_user:w&#45;&gt;alert_code:e</title>
<path fill="none" stroke="#000000" d="M324.5759,-159.1947C310.7452,-170.0296 310.8991,-196.7 287.5,-196.7"/>
<polygon fill="#000000" stroke="#000000" points="330.8868,-157.1576 339.6059,-158.1259 334.6934,-155.9288 338.5,-154.7 338.5,-154.7 338.5,-154.7 334.6934,-155.9288 337.3941,-151.2741 330.8868,-157.1576 330.8868,-157.1576"/>
<ellipse fill="none" stroke="#000000" cx="327.8416" cy="-158.1406" rx="3.2" ry="3.2"/>
</g>
</g>
</svg>
