<?xml version="1.0" encoding="UTF-8" standalone="no"?>
<!DOCTYPE svg PUBLIC "-//W3C//DTD SVG 1.1//EN"
 "http://www.w3.org/Graphics/SVG/1.1/DTD/svg11.dtd">
<!-- Generated by graphviz version 2.40.1 (20161225.0304)
 -->
<!-- Title: oneDegreeRelationshipsDiagram Pages: 1 -->
<svg width="782pt" height="425pt"
 viewBox="0.00 0.00 782.00 424.70" xmlns="http://www.w3.org/2000/svg" xmlns:xlink="http://www.w3.org/1999/xlink">
<g id="graph0" class="graph" transform="scale(1 1) rotate(0) translate(4 420.7)">
<title>oneDegreeRelationshipsDiagram</title>
<polygon fill="#ffffff" stroke="transparent" points="-4,4 -4,-420.7 778,-420.7 778,4 -4,4"/>
<text text-anchor="middle" x="72.4936" y="-7.3" font-family="Helvetica,sans-Serif" font-size="11.00" fill="#000000">Generated by SchemaSpy</text>
<!-- alert -->
<g id="node1" class="node">
<title>alert</title>
<g id="a_node1"><a xlink:href="../../tables/alert.html" xlink:title="alert" target="_top">
<polygon fill="#ffffff" stroke="transparent" points="189,-38.2 189,-348.2 503,-348.2 503,-38.2 189,-38.2"/>
<polygon fill="#f5f5f5" stroke="transparent" points="191,-323.2 191,-346.2 501,-346.2 501,-323.2 191,-323.2"/>
<polygon fill="none" stroke="#000000" points="191,-323.2 191,-346.2 501,-346.2 501,-323.2 191,-323.2"/>
<text text-anchor="start" x="196" y="-331.8" font-family="Helvetica,sans-Serif" font-weight="bold" font-size="11.00" fill="#000000">alert</text>
<text text-anchor="start" x="466.0437" y="-331.3" font-family="Helvetica,sans-Serif" font-size="11.00" fill="#000000">[table]</text>
<polygon fill="none" stroke="#000000" points="191,-301.2 191,-323.2 407,-323.2 407,-301.2 191,-301.2"/>
<image xlink:href="../../images/primaryKeys.png" width="11px" height="12px" preserveAspectRatio="xMinYMin meet" x="196" y="-318.2"/>
<text text-anchor="start" x="211" y="-308.3" font-family="Helvetica,sans-Serif" font-size="11.00" fill="#000000">id</text>
<polygon fill="none" stroke="#000000" points="407,-301.2 407,-323.2 501,-323.2 501,-301.2 407,-301.2"/>
<text text-anchor="start" x="409.9758" y="-308.9" font-family="Helvetica,sans-Serif" font-size="11.00" fill="#000000">uuid[2147483647]</text>
<polygon fill="#ffffff" stroke="transparent" points="191,-279.2 191,-301.2 407,-301.2 407,-279.2 191,-279.2"/>
<polygon fill="none" stroke="#000000" points="191,-279.2 191,-301.2 407,-301.2 407,-279.2 191,-279.2"/>
<image xlink:href="../../images/foreignKeys.png" width="11px" height="12px" preserveAspectRatio="xMinYMin meet" x="196" y="-296.2"/>
<text text-anchor="start" x="211" y="-286.3" font-family="Helvetica,sans-Serif" font-size="11.00" fill="#000000">alert_code_id</text>
<polygon fill="none" stroke="#000000" points="407,-279.2 407,-301.2 501,-301.2 501,-279.2 407,-279.2"/>
<text text-anchor="start" x="410" y="-286.9" font-family="Helvetica,sans-Serif" font-size="11.00" fill="#000000">int8[19]</text>
<polygon fill="#ffffff" stroke="transparent" points="191,-257.2 191,-279.2 407,-279.2 407,-257.2 191,-257.2"/>
<polygon fill="none" stroke="#000000" points="191,-257.2 191,-279.2 407,-279.2 407,-257.2 191,-257.2"/>
<image xlink:href="../../images/foreignKeys.png" width="11px" height="12px" preserveAspectRatio="xMinYMin meet" x="196" y="-274.2"/>
<text text-anchor="start" x="211" y="-264.3" font-family="Helvetica,sans-Serif" font-size="11.00" fill="#000000">prison_number</text>
<polygon fill="none" stroke="#000000" points="407,-257.2 407,-279.2 501,-279.2 501,-257.2 407,-257.2"/>
<text text-anchor="start" x="410" y="-264.9" font-family="Helvetica,sans-Serif" font-size="11.00" fill="#000000">varchar[10]</text>
<polygon fill="none" stroke="#000000" points="191,-235.2 191,-257.2 407,-257.2 407,-235.2 191,-235.2"/>
<text text-anchor="start" x="211" y="-242.3" font-family="Helvetica,sans-Serif" font-size="11.00" fill="#000000">description</text>
<polygon fill="none" stroke="#000000" points="407,-235.2 407,-257.2 501,-257.2 501,-235.2 407,-235.2"/>
<text text-anchor="start" x="410" y="-242.9" font-family="Helvetica,sans-Serif" font-size="11.00" fill="#000000">text[2147483647]</text>
<polygon fill="none" stroke="#000000" points="191,-213.2 191,-235.2 407,-235.2 407,-213.2 191,-213.2"/>
<text text-anchor="start" x="211" y="-220.3" font-family="Helvetica,sans-Serif" font-size="11.00" fill="#000000">authorised_by</text>
<polygon fill="none" stroke="#000000" points="407,-213.2 407,-235.2 501,-235.2 501,-213.2 407,-213.2"/>
<text text-anchor="start" x="410" y="-220.9" font-family="Helvetica,sans-Serif" font-size="11.00" fill="#000000">varchar[40]</text>
<polygon fill="#ffffff" stroke="transparent" points="191,-191.2 191,-213.2 407,-213.2 407,-191.2 191,-191.2"/>
<polygon fill="none" stroke="#000000" points="191,-191.2 191,-213.2 407,-213.2 407,-191.2 191,-191.2"/>
<text text-anchor="start" x="211" y="-198.3" font-family="Helvetica,sans-Serif" font-size="11.00" fill="#000000">active_from</text>
<polygon fill="none" stroke="#000000" points="407,-191.2 407,-213.2 501,-213.2 501,-191.2 407,-191.2"/>
<text text-anchor="start" x="410" y="-198.9" font-family="Helvetica,sans-Serif" font-size="11.00" fill="#000000">date[13]</text>
<polygon fill="#ffffff" stroke="transparent" points="191,-169.2 191,-191.2 407,-191.2 407,-169.2 191,-169.2"/>
<polygon fill="none" stroke="#000000" points="191,-169.2 191,-191.2 407,-191.2 407,-169.2 191,-169.2"/>
<text text-anchor="start" x="211" y="-176.3" font-family="Helvetica,sans-Serif" font-size="11.00" fill="#000000">active_to</text>
<polygon fill="none" stroke="#000000" points="407,-169.2 407,-191.2 501,-191.2 501,-169.2 407,-169.2"/>
<text text-anchor="start" x="410" y="-176.9" font-family="Helvetica,sans-Serif" font-size="11.00" fill="#000000">date[13]</text>
<polygon fill="#ffffff" stroke="transparent" points="191,-147.2 191,-169.2 407,-169.2 407,-147.2 191,-147.2"/>
<polygon fill="none" stroke="#000000" points="191,-147.2 191,-169.2 407,-169.2 407,-147.2 191,-147.2"/>
<text text-anchor="start" x="211" y="-154.3" font-family="Helvetica,sans-Serif" font-size="11.00" fill="#000000">deleted_at</text>
<polygon fill="none" stroke="#000000" points="407,-147.2 407,-169.2 501,-169.2 501,-147.2 407,-147.2"/>
<text text-anchor="start" x="410" y="-154.9" font-family="Helvetica,sans-Serif" font-size="11.00" fill="#000000">timestamp[29,6]</text>
<polygon fill="#ffffff" stroke="transparent" points="191,-125.2 191,-147.2 407,-147.2 407,-125.2 191,-125.2"/>
<polygon fill="none" stroke="#000000" points="191,-125.2 191,-147.2 407,-147.2 407,-125.2 191,-125.2"/>
<text text-anchor="start" x="211" y="-132.3" font-family="Helvetica,sans-Serif" font-size="11.00" fill="#000000">created_at</text>
<polygon fill="none" stroke="#000000" points="407,-125.2 407,-147.2 501,-147.2 501,-125.2 407,-125.2"/>
<text text-anchor="start" x="410" y="-132.9" font-family="Helvetica,sans-Serif" font-size="11.00" fill="#000000">timestamp[29,6]</text>
<polygon fill="#ffffff" stroke="transparent" points="191,-103.2 191,-125.2 407,-125.2 407,-103.2 191,-103.2"/>
<polygon fill="none" stroke="#000000" points="191,-103.2 191,-125.2 407,-125.2 407,-103.2 191,-103.2"/>
<text text-anchor="start" x="211" y="-110.3" font-family="Helvetica,sans-Serif" font-size="11.00" fill="#000000">last_modified_at</text>
<polygon fill="none" stroke="#000000" points="407,-103.2 407,-125.2 501,-125.2 501,-103.2 407,-103.2"/>
<text text-anchor="start" x="410" y="-110.9" font-family="Helvetica,sans-Serif" font-size="11.00" fill="#000000">timestamp[29,6]</text>
<polygon fill="none" stroke="#000000" points="191,-81.2 191,-103.2 407,-103.2 407,-81.2 191,-81.2"/>
<text text-anchor="start" x="211" y="-88.3" font-family="Helvetica,sans-Serif" font-size="11.00" fill="#000000">prison_code_when_created</text>
<polygon fill="none" stroke="#000000" points="407,-81.2 407,-103.2 501,-103.2 501,-81.2 407,-81.2"/>
<text text-anchor="start" x="410" y="-88.9" font-family="Helvetica,sans-Serif" font-size="11.00" fill="#000000">varchar[6]</text>
<polygon fill="none" stroke="#000000" points="191,-59.2 191,-81.2 407,-81.2 407,-59.2 191,-59.2"/>
<text text-anchor="start" x="211" y="-66.3" font-family="Helvetica,sans-Serif" font-size="11.00" fill="#000000">version</text>
<polygon fill="none" stroke="#000000" points="407,-59.2 407,-81.2 501,-81.2 501,-59.2 407,-59.2"/>
<text text-anchor="start" x="410" y="-66.9" font-family="Helvetica,sans-Serif" font-size="11.00" fill="#000000">int4[10]</text>
<polygon fill="#ffffff" stroke="transparent" points="191,-40.2 191,-59.2 501,-59.2 501,-40.2 191,-40.2"/>
<polygon fill="none" stroke="#000000" points="191,-40.2 191,-59.2 501,-59.2 501,-40.2 191,-40.2"/>
<polygon fill="#ffffff" stroke="transparent" points="192,-41.2 192,-58.2 298,-58.2 298,-41.2 192,-41.2"/>
<text text-anchor="start" x="194" y="-46.3" font-family="Helvetica,sans-Serif" font-size="11.00" fill="#000000">&lt; 1</text>
<polygon fill="#ffffff" stroke="transparent" points="298,-41.2 298,-58.2 395,-58.2 395,-41.2 298,-41.2"/>
<text text-anchor="start" x="343.4431" y="-46.3" font-family="Helvetica,sans-Serif" font-size="11.00" fill="#000000"> &#160;</text>
<polygon fill="#ffffff" stroke="transparent" points="395,-41.2 395,-58.2 500,-58.2 500,-41.2 395,-41.2"/>
<text text-anchor="start" x="482.4053" y="-46.3" font-family="Helvetica,sans-Serif" font-size="11.00" fill="#000000">1 &gt;</text>
<polygon fill="#000000" stroke="#000000" points="298,-41.2 298,-58.2 298,-58.2 298,-41.2 298,-41.2"/>
<polygon fill="#000000" stroke="#000000" points="395,-41.2 395,-58.2 395,-58.2 395,-41.2 395,-41.2"/>
<polygon fill="none" stroke="#000000" stroke-width="2" points="190,-39.2 190,-347.2 502,-347.2 502,-39.2 190,-39.2"/>
</a>
</g>
</g>
<!-- alert_code -->
<g id="node2" class="node">
<title>alert_code</title>
<g id="a_node2"><a xlink:href="../../tables/alert_code.html" xlink:title="alert_code" target="_top">
<polygon fill="#ffffff" stroke="transparent" points="8,-131.7 8,-324.7 140,-324.7 140,-131.7 8,-131.7"/>
<polygon fill="#f5f5f5" stroke="transparent" points="8,-301.2 8,-324.2 140,-324.2 140,-301.2 8,-301.2"/>
<polygon fill="none" stroke="#000000" points="8,-301.2 8,-324.2 140,-324.2 140,-301.2 8,-301.2"/>
<text text-anchor="start" x="13" y="-309.8" font-family="Helvetica,sans-Serif" font-weight="bold" font-size="11.00" fill="#000000">alert_code</text>
<text text-anchor="start" x="105.0437" y="-309.3" font-family="Helvetica,sans-Serif" font-size="11.00" fill="#000000">[table]</text>
<polygon fill="none" stroke="#000000" points="8,-279.2 8,-301.2 140,-301.2 140,-279.2 8,-279.2"/>
<image xlink:href="../../images/primaryKeys.png" width="11px" height="12px" preserveAspectRatio="xMinYMin meet" x="13" y="-296.2"/>
<text text-anchor="start" x="28" y="-286.3" font-family="Helvetica,sans-Serif" font-size="11.00" fill="#000000">alert_code_id</text>
<polygon fill="#ffffff" stroke="transparent" points="8,-257.2 8,-279.2 140,-279.2 140,-257.2 8,-257.2"/>
<polygon fill="none" stroke="#000000" points="8,-257.2 8,-279.2 140,-279.2 140,-257.2 8,-257.2"/>
<image xlink:href="../../images/foreignKeys.png" width="11px" height="12px" preserveAspectRatio="xMinYMin meet" x="13" y="-274.2"/>
<text text-anchor="start" x="28" y="-264.3" font-family="Helvetica,sans-Serif" font-size="11.00" fill="#000000">alert_type_id</text>
<polygon fill="#ffffff" stroke="transparent" points="8,-235.2 8,-257.2 140,-257.2 140,-235.2 8,-235.2"/>
<polygon fill="none" stroke="#000000" points="8,-235.2 8,-257.2 140,-257.2 140,-235.2 8,-235.2"/>
<text text-anchor="start" x="28" y="-242.3" font-family="Helvetica,sans-Serif" font-size="11.00" fill="#000000">code</text>
<polygon fill="#ffffff" stroke="transparent" points="8,-213.2 8,-235.2 140,-235.2 140,-213.2 8,-213.2"/>
<polygon fill="none" stroke="#000000" points="8,-213.2 8,-235.2 140,-235.2 140,-213.2 8,-213.2"/>
<text text-anchor="start" x="28" y="-220.3" font-family="Helvetica,sans-Serif" font-size="11.00" fill="#000000">list_sequence</text>
<polygon fill="#ffffff" stroke="transparent" points="8,-191.2 8,-213.2 140,-213.2 140,-191.2 8,-191.2"/>
<polygon fill="none" stroke="#000000" points="8,-191.2 8,-213.2 140,-213.2 140,-191.2 8,-191.2"/>
<text text-anchor="start" x="28" y="-198.3" font-family="Helvetica,sans-Serif" font-size="11.00" fill="#000000">created_at</text>
<polygon fill="#ffffff" stroke="transparent" points="8,-169.2 8,-191.2 140,-191.2 140,-169.2 8,-169.2"/>
<polygon fill="none" stroke="#000000" points="8,-169.2 8,-191.2 140,-191.2 140,-169.2 8,-169.2"/>
<text text-anchor="start" x="28" y="-176.3" font-family="Helvetica,sans-Serif" font-size="11.00" fill="#000000">deactivated_at</text>
<polygon fill="none" stroke="#000000" points="8,-150.2 8,-169.2 140,-169.2 140,-150.2 8,-150.2"/>
<text text-anchor="start" x="11" y="-156.3" font-family="Helvetica,sans-Serif" font-size="11.00" fill="#000000">...</text>
<polygon fill="#ffffff" stroke="transparent" points="8,-131.2 8,-150.2 140,-150.2 140,-131.2 8,-131.2"/>
<polygon fill="none" stroke="#000000" points="8,-131.2 8,-150.2 140,-150.2 140,-131.2 8,-131.2"/>
<polygon fill="#ffffff" stroke="transparent" points="9,-132.2 9,-149.2 56,-149.2 56,-132.2 9,-132.2"/>
<text text-anchor="start" x="11" y="-137.3" font-family="Helvetica,sans-Serif" font-size="11.00" fill="#000000">&lt; 1</text>
<polygon fill="#ffffff" stroke="transparent" points="56,-132.2 56,-149.2 93,-149.2 93,-132.2 56,-132.2"/>
<text text-anchor="start" x="71.4431" y="-137.3" font-family="Helvetica,sans-Serif" font-size="11.00" fill="#000000"> &#160;</text>
<polygon fill="#ffffff" stroke="transparent" points="93,-132.2 93,-149.2 139,-149.2 139,-132.2 93,-132.2"/>
<text text-anchor="start" x="121.4053" y="-137.3" font-family="Helvetica,sans-Serif" font-size="11.00" fill="#000000">2 &gt;</text>
<polygon fill="#000000" stroke="#000000" points="56,-132.2 56,-149.2 56,-149.2 56,-132.2 56,-132.2"/>
<polygon fill="#000000" stroke="#000000" points="93,-132.2 93,-149.2 93,-149.2 93,-132.2 93,-132.2"/>
</a>
</g>
</g>
<!-- alert&#45;&gt;alert_code -->
<g id="edge1" class="edge">
<title>alert:w&#45;&gt;alert_code:e</title>
<path fill="none" stroke="#000000" d="M176.276,-290.2C164.2815,-290.2 156.8229,-290.2 140,-290.2"/>
<polygon fill="#000000" stroke="#000000" points="183,-290.2001 191,-293.8 187,-290.2 191,-290.2 191,-290.2 191,-290.2 187,-290.2 191,-286.6 183,-290.2001 183,-290.2001"/>
<ellipse fill="none" stroke="#000000" cx="179.8" cy="-290.2001" rx="3.2" ry="3.2"/>
</g>
<!-- audit_event -->
<g id="node3" class="node">
<title>audit_event</title>
<g id="a_node3"><a xlink:href="../../tables/audit_event.html" xlink:title="audit_event" target="_top">
<polygon fill="#ffffff" stroke="transparent" points="552,-241.7 552,-412.7 766,-412.7 766,-241.7 552,-241.7"/>
<polygon fill="#f5f5f5" stroke="transparent" points="552,-389.2 552,-412.2 766,-412.2 766,-389.2 552,-389.2"/>
<polygon fill="none" stroke="#000000" points="552,-389.2 552,-412.2 766,-412.2 766,-389.2 552,-389.2"/>
<text text-anchor="start" x="557" y="-397.8" font-family="Helvetica,sans-Serif" font-weight="bold" font-size="11.00" fill="#000000">audit_event</text>
<text text-anchor="start" x="731.0437" y="-397.3" font-family="Helvetica,sans-Serif" font-size="11.00" fill="#000000">[table]</text>
<polygon fill="#ffffff" stroke="transparent" points="552,-367.2 552,-389.2 766,-389.2 766,-367.2 552,-367.2"/>
<polygon fill="none" stroke="#000000" points="552,-367.2 552,-389.2 766,-389.2 766,-367.2 552,-367.2"/>
<text text-anchor="start" x="572" y="-374.3" font-family="Helvetica,sans-Serif" font-size="11.00" fill="#000000">action</text>
<polygon fill="#ffffff" stroke="transparent" points="552,-345.2 552,-367.2 766,-367.2 766,-345.2 552,-345.2"/>
<polygon fill="none" stroke="#000000" points="552,-345.2 552,-367.2 766,-367.2 766,-345.2 552,-345.2"/>
<text text-anchor="start" x="572" y="-352.3" font-family="Helvetica,sans-Serif" font-size="11.00" fill="#000000">actioned_at</text>
<polygon fill="#ffffff" stroke="transparent" points="552,-323.2 552,-345.2 766,-345.2 766,-323.2 552,-323.2"/>
<polygon fill="none" stroke="#000000" points="552,-323.2 552,-345.2 766,-345.2 766,-323.2 552,-323.2"/>
<text text-anchor="start" x="572" y="-330.3" font-family="Helvetica,sans-Serif" font-size="11.00" fill="#000000">actioned_by</text>
<polygon fill="#ffffff" stroke="transparent" points="552,-301.2 552,-323.2 766,-323.2 766,-301.2 552,-301.2"/>
<polygon fill="none" stroke="#000000" points="552,-301.2 552,-323.2 766,-323.2 766,-301.2 552,-301.2"/>
<image xlink:href="../../images/foreignKeys.png" width="11px" height="12px" preserveAspectRatio="xMinYMin meet" x="557" y="-318.2"/>
<text text-anchor="start" x="572" y="-308.3" font-family="Helvetica,sans-Serif" font-size="11.00" fill="#000000">alert_id</text>
<polygon fill="none" stroke="#000000" points="552,-279.2 552,-301.2 766,-301.2 766,-279.2 552,-279.2"/>
<image xlink:href="../../images/primaryKeys.png" width="11px" height="12px" preserveAspectRatio="xMinYMin meet" x="557" y="-296.2"/>
<text text-anchor="start" x="572" y="-286.3" font-family="Helvetica,sans-Serif" font-size="11.00" fill="#000000">id</text>
<polygon fill="none" stroke="#000000" points="552,-260.2 552,-279.2 766,-279.2 766,-260.2 552,-260.2"/>
<text text-anchor="start" x="555" y="-266.3" font-family="Helvetica,sans-Serif" font-size="11.00" fill="#000000">...</text>
<polygon fill="#ffffff" stroke="transparent" points="552,-241.2 552,-260.2 766,-260.2 766,-241.2 552,-241.2"/>
<polygon fill="none" stroke="#000000" points="552,-241.2 552,-260.2 766,-260.2 766,-241.2 552,-241.2"/>
<polygon fill="#ffffff" stroke="transparent" points="553,-242.2 553,-259.2 630,-259.2 630,-242.2 553,-242.2"/>
<text text-anchor="start" x="555" y="-247.3" font-family="Helvetica,sans-Serif" font-size="11.00" fill="#000000">&lt; 1</text>
<polygon fill="#ffffff" stroke="transparent" points="630,-242.2 630,-259.2 698,-259.2 698,-242.2 630,-242.2"/>
<text text-anchor="start" x="660.9431" y="-247.3" font-family="Helvetica,sans-Serif" font-size="11.00" fill="#000000"> &#160;</text>
<polygon fill="#ffffff" stroke="transparent" points="698,-242.2 698,-259.2 765,-259.2 765,-242.2 698,-242.2"/>
<text text-anchor="start" x="756.8862" y="-247.3" font-family="Helvetica,sans-Serif" font-size="11.00" fill="#000000"> &#160;</text>
<polygon fill="#000000" stroke="#000000" points="630,-242.2 630,-259.2 630,-259.2 630,-242.2 630,-242.2"/>
<polygon fill="#000000" stroke="#000000" points="698,-242.2 698,-259.2 698,-259.2 698,-242.2 698,-242.2"/>
</a>
</g>
</g>
<!-- audit_event&#45;&gt;alert -->
<g id="edge2" class="edge">
<title>audit_event:w&#45;&gt;alert:e</title>
<path fill="none" stroke="#000000" d="M537.276,-312.2C525.2815,-312.2 517.8229,-312.2 501,-312.2"/>
<polygon fill="#000000" stroke="#000000" points="544,-312.2001 552,-315.8 548,-312.2 552,-312.2 552,-312.2 552,-312.2 548,-312.2 552,-308.6 544,-312.2001 544,-312.2001"/>
<ellipse fill="none" stroke="#000000" cx="540.8" cy="-312.2001" rx="3.2" ry="3.2"/>
</g>
</g>
</svg>
