<?xml version="1.0" encoding="UTF-8" standalone="no"?>
<!DOCTYPE svg PUBLIC "-//W3C//DTD SVG 1.1//EN"
 "http://www.w3.org/Graphics/SVG/1.1/DTD/svg11.dtd">
<!-- Generated by graphviz version 2.40.1 (20161225.0304)
 -->
<!-- Title: oneDegreeRelationshipsDiagramImplied Pages: 1 -->
<svg width="707pt" height="499pt"
 viewBox="0.00 0.00 707.00 498.70" xmlns="http://www.w3.org/2000/svg" xmlns:xlink="http://www.w3.org/1999/xlink">
<g id="graph0" class="graph" transform="scale(1 1) rotate(0) translate(4 494.7)">
<title>oneDegreeRelationshipsDiagramImplied</title>
<polygon fill="#ffffff" stroke="transparent" points="-4,4 -4,-494.7 703,-494.7 703,4 -4,4"/>
<text text-anchor="middle" x="72.4936" y="-7.3" font-family="Helvetica,sans-Serif" font-size="11.00" fill="#000000">Generated by SchemaSpy</text>
<!-- alert -->
<g id="node1" class="node">
<title>alert</title>
<g id="a_node1"><a xlink:href="../../tables/alert.html" xlink:title="alert" target="_top">
<polygon fill="#ffffff" stroke="transparent" points="466.5,-249.7 466.5,-486.7 682.5,-486.7 682.5,-249.7 466.5,-249.7"/>
<polygon fill="#f5f5f5" stroke="transparent" points="466.5,-463.2 466.5,-486.2 682.5,-486.2 682.5,-463.2 466.5,-463.2"/>
<polygon fill="none" stroke="#000000" points="466.5,-463.2 466.5,-486.2 682.5,-486.2 682.5,-463.2 466.5,-463.2"/>
<text text-anchor="start" x="471.5" y="-471.8" font-family="Helvetica,sans-Serif" font-weight="bold" font-size="11.00" fill="#000000">alert</text>
<text text-anchor="start" x="647.5437" y="-471.3" font-family="Helvetica,sans-Serif" font-size="11.00" fill="#000000">[table]</text>
<polygon fill="none" stroke="#000000" points="466.5,-441.2 466.5,-463.2 682.5,-463.2 682.5,-441.2 466.5,-441.2"/>
<image xlink:href="../../images/primaryKeys.png" width="11px" height="12px" preserveAspectRatio="xMinYMin meet" x="471.5" y="-458.2"/>
<text text-anchor="start" x="486.5" y="-448.3" font-family="Helvetica,sans-Serif" font-size="11.00" fill="#000000">id</text>
<polygon fill="#ffffff" stroke="transparent" points="466.5,-419.2 466.5,-441.2 682.5,-441.2 682.5,-419.2 466.5,-419.2"/>
<polygon fill="none" stroke="#000000" points="466.5,-419.2 466.5,-441.2 682.5,-441.2 682.5,-419.2 466.5,-419.2"/>
<image xlink:href="../../images/foreignKeys.png" width="11px" height="12px" preserveAspectRatio="xMinYMin meet" x="471.5" y="-436.2"/>
<text text-anchor="start" x="486.5" y="-426.3" font-family="Helvetica,sans-Serif" font-size="11.00" fill="#000000">alert_code_id</text>
<polygon fill="#ffffff" stroke="transparent" points="466.5,-397.2 466.5,-419.2 682.5,-419.2 682.5,-397.2 466.5,-397.2"/>
<polygon fill="none" stroke="#000000" points="466.5,-397.2 466.5,-419.2 682.5,-419.2 682.5,-397.2 466.5,-397.2"/>
<image xlink:href="../../images/foreignKeys.png" width="11px" height="12px" preserveAspectRatio="xMinYMin meet" x="471.5" y="-414.2"/>
<text text-anchor="start" x="486.5" y="-404.3" font-family="Helvetica,sans-Serif" font-size="11.00" fill="#000000">prison_number</text>
<polygon fill="#ffffff" stroke="transparent" points="466.5,-375.2 466.5,-397.2 682.5,-397.2 682.5,-375.2 466.5,-375.2"/>
<polygon fill="none" stroke="#000000" points="466.5,-375.2 466.5,-397.2 682.5,-397.2 682.5,-375.2 466.5,-375.2"/>
<text text-anchor="start" x="486.5" y="-382.3" font-family="Helvetica,sans-Serif" font-size="11.00" fill="#000000">active_from</text>
<polygon fill="#ffffff" stroke="transparent" points="466.5,-353.2 466.5,-375.2 682.5,-375.2 682.5,-353.2 466.5,-353.2"/>
<polygon fill="none" stroke="#000000" points="466.5,-353.2 466.5,-375.2 682.5,-375.2 682.5,-353.2 466.5,-353.2"/>
<text text-anchor="start" x="486.5" y="-360.3" font-family="Helvetica,sans-Serif" font-size="11.00" fill="#000000">active_to</text>
<polygon fill="#ffffff" stroke="transparent" points="466.5,-331.2 466.5,-353.2 682.5,-353.2 682.5,-331.2 466.5,-331.2"/>
<polygon fill="none" stroke="#000000" points="466.5,-331.2 466.5,-353.2 682.5,-353.2 682.5,-331.2 466.5,-331.2"/>
<text text-anchor="start" x="486.5" y="-338.3" font-family="Helvetica,sans-Serif" font-size="11.00" fill="#000000">deleted_at</text>
<polygon fill="#ffffff" stroke="transparent" points="466.5,-309.2 466.5,-331.2 682.5,-331.2 682.5,-309.2 466.5,-309.2"/>
<polygon fill="none" stroke="#000000" points="466.5,-309.2 466.5,-331.2 682.5,-331.2 682.5,-309.2 466.5,-309.2"/>
<text text-anchor="start" x="486.5" y="-316.3" font-family="Helvetica,sans-Serif" font-size="11.00" fill="#000000">created_at</text>
<polygon fill="#ffffff" stroke="transparent" points="466.5,-287.2 466.5,-309.2 682.5,-309.2 682.5,-287.2 466.5,-287.2"/>
<polygon fill="none" stroke="#000000" points="466.5,-287.2 466.5,-309.2 682.5,-309.2 682.5,-287.2 466.5,-287.2"/>
<text text-anchor="start" x="486.5" y="-294.3" font-family="Helvetica,sans-Serif" font-size="11.00" fill="#000000">last_modified_at</text>
<polygon fill="none" stroke="#000000" points="466.5,-268.2 466.5,-287.2 682.5,-287.2 682.5,-268.2 466.5,-268.2"/>
<text text-anchor="start" x="469.5" y="-274.3" font-family="Helvetica,sans-Serif" font-size="11.00" fill="#000000">...</text>
<polygon fill="#ffffff" stroke="transparent" points="466.5,-249.2 466.5,-268.2 682.5,-268.2 682.5,-249.2 466.5,-249.2"/>
<polygon fill="none" stroke="#000000" points="466.5,-249.2 466.5,-268.2 682.5,-268.2 682.5,-249.2 466.5,-249.2"/>
<polygon fill="#ffffff" stroke="transparent" points="467.5,-250.2 467.5,-267.2 542.5,-267.2 542.5,-250.2 467.5,-250.2"/>
<text text-anchor="start" x="469.5" y="-255.3" font-family="Helvetica,sans-Serif" font-size="11.00" fill="#000000">&lt; 1</text>
<polygon fill="#ffffff" stroke="transparent" points="542.5,-250.2 542.5,-267.2 607.5,-267.2 607.5,-250.2 542.5,-250.2"/>
<text text-anchor="start" x="571.9431" y="-255.3" font-family="Helvetica,sans-Serif" font-size="11.00" fill="#000000"> &#160;</text>
<polygon fill="#ffffff" stroke="transparent" points="607.5,-250.2 607.5,-267.2 681.5,-267.2 681.5,-250.2 607.5,-250.2"/>
<text text-anchor="start" x="663.9053" y="-255.3" font-family="Helvetica,sans-Serif" font-size="11.00" fill="#000000">1 &gt;</text>
<polygon fill="#000000" stroke="#000000" points="542.5,-250.2 542.5,-267.2 542.5,-267.2 542.5,-250.2 542.5,-250.2"/>
<polygon fill="#000000" stroke="#000000" points="607.5,-250.2 607.5,-267.2 607.5,-267.2 607.5,-250.2 607.5,-250.2"/>
</a>
</g>
</g>
<!-- alert_code -->
<g id="node2" class="node">
<title>alert_code</title>
<g id="a_node2"><a xlink:href="../../tables/alert_code.html" xlink:title="alert_code" target="_top">
<polygon fill="#ffffff" stroke="transparent" points="189,-38.2 189,-348.2 409,-348.2 409,-38.2 189,-38.2"/>
<polygon fill="#f5f5f5" stroke="transparent" points="191,-323.2 191,-346.2 407,-346.2 407,-323.2 191,-323.2"/>
<polygon fill="none" stroke="#000000" points="191,-323.2 191,-346.2 407,-346.2 407,-323.2 191,-323.2"/>
<text text-anchor="start" x="196" y="-331.8" font-family="Helvetica,sans-Serif" font-weight="bold" font-size="11.00" fill="#000000">alert_code</text>
<text text-anchor="start" x="372.0437" y="-331.3" font-family="Helvetica,sans-Serif" font-size="11.00" fill="#000000">[table]</text>
<polygon fill="none" stroke="#000000" points="191,-301.2 191,-323.2 323,-323.2 323,-301.2 191,-301.2"/>
<image xlink:href="../../images/primaryKeys.png" width="11px" height="12px" preserveAspectRatio="xMinYMin meet" x="196" y="-318.2"/>
<text text-anchor="start" x="211" y="-308.3" font-family="Helvetica,sans-Serif" font-size="11.00" fill="#000000">alert_code_id</text>
<polygon fill="none" stroke="#000000" points="323,-301.2 323,-323.2 407,-323.2 407,-301.2 323,-301.2"/>
<text text-anchor="start" x="326" y="-308.9" font-family="Helvetica,sans-Serif" font-size="11.00" fill="#000000">bigserial[19]</text>
<polygon fill="#ffffff" stroke="transparent" points="191,-279.2 191,-301.2 323,-301.2 323,-279.2 191,-279.2"/>
<polygon fill="none" stroke="#000000" points="191,-279.2 191,-301.2 323,-301.2 323,-279.2 191,-279.2"/>
<image xlink:href="../../images/foreignKeys.png" width="11px" height="12px" preserveAspectRatio="xMinYMin meet" x="196" y="-296.2"/>
<text text-anchor="start" x="211" y="-286.3" font-family="Helvetica,sans-Serif" font-size="11.00" fill="#000000">alert_type_id</text>
<polygon fill="none" stroke="#000000" points="323,-279.2 323,-301.2 407,-301.2 407,-279.2 323,-279.2"/>
<text text-anchor="start" x="326" y="-286.9" font-family="Helvetica,sans-Serif" font-size="11.00" fill="#000000">int8[19]</text>
<polygon fill="#ffffff" stroke="transparent" points="191,-257.2 191,-279.2 323,-279.2 323,-257.2 191,-257.2"/>
<polygon fill="none" stroke="#000000" points="191,-257.2 191,-279.2 323,-279.2 323,-257.2 191,-257.2"/>
<text text-anchor="start" x="211" y="-264.3" font-family="Helvetica,sans-Serif" font-size="11.00" fill="#000000">code</text>
<polygon fill="none" stroke="#000000" points="323,-257.2 323,-279.2 407,-279.2 407,-257.2 323,-257.2"/>
<text text-anchor="start" x="326" y="-264.9" font-family="Helvetica,sans-Serif" font-size="11.00" fill="#000000">varchar[12]</text>
<polygon fill="none" stroke="#000000" points="191,-235.2 191,-257.2 323,-257.2 323,-235.2 191,-235.2"/>
<text text-anchor="start" x="211" y="-242.3" font-family="Helvetica,sans-Serif" font-size="11.00" fill="#000000">description</text>
<polygon fill="none" stroke="#000000" points="323,-235.2 323,-257.2 407,-257.2 407,-235.2 323,-235.2"/>
<text text-anchor="start" x="326" y="-242.9" font-family="Helvetica,sans-Serif" font-size="11.00" fill="#000000">varchar[40]</text>
<polygon fill="#ffffff" stroke="transparent" points="191,-213.2 191,-235.2 323,-235.2 323,-213.2 191,-213.2"/>
<polygon fill="none" stroke="#000000" points="191,-213.2 191,-235.2 323,-235.2 323,-213.2 191,-213.2"/>
<text text-anchor="start" x="211" y="-220.3" font-family="Helvetica,sans-Serif" font-size="11.00" fill="#000000">list_sequence</text>
<polygon fill="none" stroke="#000000" points="323,-213.2 323,-235.2 407,-235.2 407,-213.2 323,-213.2"/>
<text text-anchor="start" x="326" y="-220.9" font-family="Helvetica,sans-Serif" font-size="11.00" fill="#000000">int4[10]</text>
<polygon fill="#ffffff" stroke="transparent" points="191,-191.2 191,-213.2 323,-213.2 323,-191.2 191,-191.2"/>
<polygon fill="none" stroke="#000000" points="191,-191.2 191,-213.2 323,-213.2 323,-191.2 191,-191.2"/>
<text text-anchor="start" x="211" y="-198.3" font-family="Helvetica,sans-Serif" font-size="11.00" fill="#000000">created_at</text>
<polygon fill="none" stroke="#000000" points="323,-191.2 323,-213.2 407,-213.2 407,-191.2 323,-191.2"/>
<text text-anchor="start" x="325.8807" y="-198.9" font-family="Helvetica,sans-Serif" font-size="11.00" fill="#000000">timestamp[29,6]</text>
<polygon fill="none" stroke="#000000" points="191,-169.2 191,-191.2 323,-191.2 323,-169.2 191,-169.2"/>
<text text-anchor="start" x="211" y="-176.3" font-family="Helvetica,sans-Serif" font-size="11.00" fill="#000000">created_by</text>
<polygon fill="none" stroke="#000000" points="323,-169.2 323,-191.2 407,-191.2 407,-169.2 323,-169.2"/>
<text text-anchor="start" x="326" y="-176.9" font-family="Helvetica,sans-Serif" font-size="11.00" fill="#000000">varchar[64]</text>
<polygon fill="none" stroke="#000000" points="191,-147.2 191,-169.2 323,-169.2 323,-147.2 191,-147.2"/>
<text text-anchor="start" x="211" y="-154.3" font-family="Helvetica,sans-Serif" font-size="11.00" fill="#000000">modified_at</text>
<polygon fill="none" stroke="#000000" points="323,-147.2 323,-169.2 407,-169.2 407,-147.2 323,-147.2"/>
<text text-anchor="start" x="325.8807" y="-154.9" font-family="Helvetica,sans-Serif" font-size="11.00" fill="#000000">timestamp[29,6]</text>
<polygon fill="none" stroke="#000000" points="191,-125.2 191,-147.2 323,-147.2 323,-125.2 191,-125.2"/>
<text text-anchor="start" x="211" y="-132.3" font-family="Helvetica,sans-Serif" font-size="11.00" fill="#000000">modified_by</text>
<polygon fill="none" stroke="#000000" points="323,-125.2 323,-147.2 407,-147.2 407,-125.2 323,-125.2"/>
<text text-anchor="start" x="326" y="-132.9" font-family="Helvetica,sans-Serif" font-size="11.00" fill="#000000">varchar[64]</text>
<polygon fill="#ffffff" stroke="transparent" points="191,-103.2 191,-125.2 323,-125.2 323,-103.2 191,-103.2"/>
<polygon fill="none" stroke="#000000" points="191,-103.2 191,-125.2 323,-125.2 323,-103.2 191,-103.2"/>
<text text-anchor="start" x="211" y="-110.3" font-family="Helvetica,sans-Serif" font-size="11.00" fill="#000000">deactivated_at</text>
<polygon fill="none" stroke="#000000" points="323,-103.2 323,-125.2 407,-125.2 407,-103.2 323,-103.2"/>
<text text-anchor="start" x="325.8807" y="-110.9" font-family="Helvetica,sans-Serif" font-size="11.00" fill="#000000">timestamp[29,6]</text>
<polygon fill="none" stroke="#000000" points="191,-81.2 191,-103.2 323,-103.2 323,-81.2 191,-81.2"/>
<text text-anchor="start" x="211" y="-88.3" font-family="Helvetica,sans-Serif" font-size="11.00" fill="#000000">deactivated_by</text>
<polygon fill="none" stroke="#000000" points="323,-81.2 323,-103.2 407,-103.2 407,-81.2 323,-81.2"/>
<text text-anchor="start" x="326" y="-88.9" font-family="Helvetica,sans-Serif" font-size="11.00" fill="#000000">varchar[64]</text>
<polygon fill="none" stroke="#000000" points="191,-59.2 191,-81.2 323,-81.2 323,-59.2 191,-59.2"/>
<text text-anchor="start" x="211" y="-66.3" font-family="Helvetica,sans-Serif" font-size="11.00" fill="#000000">restricted</text>
<polygon fill="none" stroke="#000000" points="323,-59.2 323,-81.2 407,-81.2 407,-59.2 323,-59.2"/>
<text text-anchor="start" x="326" y="-66.9" font-family="Helvetica,sans-Serif" font-size="11.00" fill="#000000">bool[1]</text>
<polygon fill="#ffffff" stroke="transparent" points="191,-40.2 191,-59.2 407,-59.2 407,-40.2 191,-40.2"/>
<polygon fill="none" stroke="#000000" points="191,-40.2 191,-59.2 407,-59.2 407,-40.2 191,-40.2"/>
<polygon fill="#ffffff" stroke="transparent" points="192,-41.2 192,-58.2 254,-58.2 254,-41.2 192,-41.2"/>
<text text-anchor="start" x="194" y="-46.3" font-family="Helvetica,sans-Serif" font-size="11.00" fill="#000000">&lt; 1</text>
<polygon fill="#ffffff" stroke="transparent" points="254,-41.2 254,-58.2 345,-58.2 345,-41.2 254,-41.2"/>
<text text-anchor="start" x="277.1904" y="-46.3" font-family="Helvetica,sans-Serif" font-size="11.00" fill="#000000">213 rows</text>
<polygon fill="#ffffff" stroke="transparent" points="345,-41.2 345,-58.2 406,-58.2 406,-41.2 345,-41.2"/>
<text text-anchor="start" x="388.4053" y="-46.3" font-family="Helvetica,sans-Serif" font-size="11.00" fill="#000000">2 &gt;</text>
<polygon fill="#000000" stroke="#000000" points="254,-41.2 254,-58.2 254,-58.2 254,-41.2 254,-41.2"/>
<polygon fill="#000000" stroke="#000000" points="345,-41.2 345,-58.2 345,-58.2 345,-41.2 345,-41.2"/>
<polygon fill="none" stroke="#000000" stroke-width="2" points="190,-39.2 190,-347.2 408,-347.2 408,-39.2 190,-39.2"/>
</a>
</g>
</g>
<!-- alert&#45;&gt;alert_code -->
<g id="edge1" class="edge">
<title>alert:w&#45;&gt;alert_code:e</title>
<path fill="none" stroke="#000000" d="M452.4142,-427.0438C417.9747,-408.2785 459.9986,-312.2 407,-312.2"/>
<polygon fill="#000000" stroke="#000000" points="458.6936,-428.4508 465.7128,-433.7129 462.5968,-429.3254 466.5,-430.2 466.5,-430.2 466.5,-430.2 462.5968,-429.3254 467.2872,-426.6871 458.6936,-428.4508 458.6936,-428.4508"/>
<ellipse fill="none" stroke="#000000" cx="455.571" cy="-427.7511" rx="3.2" ry="3.2"/>
</g>
<!-- alert_type -->
<g id="node3" class="node">
<title>alert_type</title>
<g id="a_node3"><a xlink:href="../../tables/alert_type.html" xlink:title="alert_type" target="_top">
<polygon fill="#ffffff" stroke="transparent" points="8,-153.7 8,-324.7 140,-324.7 140,-153.7 8,-153.7"/>
<polygon fill="#f5f5f5" stroke="transparent" points="8,-301.2 8,-324.2 140,-324.2 140,-301.2 8,-301.2"/>
<polygon fill="none" stroke="#000000" points="8,-301.2 8,-324.2 140,-324.2 140,-301.2 8,-301.2"/>
<text text-anchor="start" x="13" y="-309.8" font-family="Helvetica,sans-Serif" font-weight="bold" font-size="11.00" fill="#000000">alert_type</text>
<text text-anchor="start" x="105.0437" y="-309.3" font-family="Helvetica,sans-Serif" font-size="11.00" fill="#000000">[table]</text>
<polygon fill="none" stroke="#000000" points="8,-279.2 8,-301.2 140,-301.2 140,-279.2 8,-279.2"/>
<image xlink:href="../../images/primaryKeys.png" width="11px" height="12px" preserveAspectRatio="xMinYMin meet" x="13" y="-296.2"/>
<text text-anchor="start" x="28" y="-286.3" font-family="Helvetica,sans-Serif" font-size="11.00" fill="#000000">alert_type_id</text>
<polygon fill="#ffffff" stroke="transparent" points="8,-257.2 8,-279.2 140,-279.2 140,-257.2 8,-257.2"/>
<polygon fill="none" stroke="#000000" points="8,-257.2 8,-279.2 140,-279.2 140,-257.2 8,-257.2"/>
<text text-anchor="start" x="28" y="-264.3" font-family="Helvetica,sans-Serif" font-size="11.00" fill="#000000">code</text>
<polygon fill="#ffffff" stroke="transparent" points="8,-235.2 8,-257.2 140,-257.2 140,-235.2 8,-235.2"/>
<polygon fill="none" stroke="#000000" points="8,-235.2 8,-257.2 140,-257.2 140,-235.2 8,-235.2"/>
<text text-anchor="start" x="28" y="-242.3" font-family="Helvetica,sans-Serif" font-size="11.00" fill="#000000">list_sequence</text>
<polygon fill="#ffffff" stroke="transparent" points="8,-213.2 8,-235.2 140,-235.2 140,-213.2 8,-213.2"/>
<polygon fill="none" stroke="#000000" points="8,-213.2 8,-235.2 140,-235.2 140,-213.2 8,-213.2"/>
<text text-anchor="start" x="28" y="-220.3" font-family="Helvetica,sans-Serif" font-size="11.00" fill="#000000">created_at</text>
<polygon fill="#ffffff" stroke="transparent" points="8,-191.2 8,-213.2 140,-213.2 140,-191.2 8,-191.2"/>
<polygon fill="none" stroke="#000000" points="8,-191.2 8,-213.2 140,-213.2 140,-191.2 8,-191.2"/>
<text text-anchor="start" x="28" y="-198.3" font-family="Helvetica,sans-Serif" font-size="11.00" fill="#000000">deactivated_at</text>
<polygon fill="none" stroke="#000000" points="8,-172.2 8,-191.2 140,-191.2 140,-172.2 8,-172.2"/>
<text text-anchor="start" x="11" y="-178.3" font-family="Helvetica,sans-Serif" font-size="11.00" fill="#000000">...</text>
<polygon fill="#ffffff" stroke="transparent" points="8,-153.2 8,-172.2 140,-172.2 140,-153.2 8,-153.2"/>
<polygon fill="none" stroke="#000000" points="8,-153.2 8,-172.2 140,-172.2 140,-153.2 8,-153.2"/>
<polygon fill="#ffffff" stroke="transparent" points="9,-154.2 9,-171.2 50,-171.2 50,-154.2 9,-154.2"/>
<text text-anchor="start" x="11" y="-159.3" font-family="Helvetica,sans-Serif" font-size="11.00" fill="#000000"> &#160;</text>
<polygon fill="#ffffff" stroke="transparent" points="50,-154.2 50,-171.2 90,-171.2 90,-154.2 50,-154.2"/>
<text text-anchor="start" x="66.9431" y="-159.3" font-family="Helvetica,sans-Serif" font-size="11.00" fill="#000000"> &#160;</text>
<polygon fill="#ffffff" stroke="transparent" points="90,-154.2 90,-171.2 139,-171.2 139,-154.2 90,-154.2"/>
<text text-anchor="start" x="121.4053" y="-159.3" font-family="Helvetica,sans-Serif" font-size="11.00" fill="#000000">1 &gt;</text>
<polygon fill="#000000" stroke="#000000" points="50,-154.2 50,-171.2 50,-171.2 50,-154.2 50,-154.2"/>
<polygon fill="#000000" stroke="#000000" points="90,-154.2 90,-171.2 90,-171.2 90,-154.2 90,-154.2"/>
</a>
</g>
</g>
<!-- alert_code&#45;&gt;alert_type -->
<g id="edge2" class="edge">
<title>alert_code:w&#45;&gt;alert_type:e</title>
<path fill="none" stroke="#000000" d="M176.276,-290.2C164.2815,-290.2 156.8229,-290.2 140,-290.2"/>
<polygon fill="#000000" stroke="#000000" points="183,-290.2001 191,-293.8 187,-290.2 191,-290.2 191,-290.2 191,-290.2 187,-290.2 191,-286.6 183,-290.2001 183,-290.2001"/>
<ellipse fill="none" stroke="#000000" cx="179.8" cy="-290.2001" rx="3.2" ry="3.2"/>
</g>
<!-- alert_code_privileged_user -->
<g id="node4" class="node">
<title>alert_code_privileged_user</title>
<g id="a_node4"><a xlink:href="../../tables/alert_code_privileged_user.html" xlink:title="alert_code_privileged_user" target="_top">
<polygon fill="#ffffff" stroke="transparent" points="458,-142.2 458,-228.2 691,-228.2 691,-142.2 458,-142.2"/>
<polygon fill="#f5f5f5" stroke="transparent" points="458.5,-205.2 458.5,-228.2 691.5,-228.2 691.5,-205.2 458.5,-205.2"/>
<polygon fill="none" stroke="#000000" points="458.5,-205.2 458.5,-228.2 691.5,-228.2 691.5,-205.2 458.5,-205.2"/>
<text text-anchor="start" x="463.5" y="-213.8" font-family="Helvetica,sans-Serif" font-weight="bold" font-size="11.00" fill="#000000">alert_code_privileged_user</text>
<text text-anchor="start" x="657.0219" y="-213.3" font-family="Helvetica,sans-Serif" font-size="11.00" fill="#000000">[table]</text>
<polygon fill="none" stroke="#000000" points="458.5,-183.2 458.5,-205.2 691.5,-205.2 691.5,-183.2 458.5,-183.2"/>
<image xlink:href="../../images/primaryKeys.png" width="11px" height="12px" preserveAspectRatio="xMinYMin meet" x="463.5" y="-200.2"/>
<text text-anchor="start" x="487.5" y="-190.3" font-family="Helvetica,sans-Serif" font-size="11.00" fill="#000000">alert_code_id</text>
<polygon fill="none" stroke="#000000" points="458.5,-161.2 458.5,-183.2 691.5,-183.2 691.5,-161.2 458.5,-161.2"/>
<image xlink:href="../../images/primaryKeys.png" width="11px" height="12px" preserveAspectRatio="xMinYMin meet" x="463.5" y="-178.2"/>
<text text-anchor="start" x="487.5" y="-168.3" font-family="Helvetica,sans-Serif" font-size="11.00" fill="#000000">username</text>
<polygon fill="#ffffff" stroke="transparent" points="458.5,-142.2 458.5,-161.2 691.5,-161.2 691.5,-142.2 458.5,-142.2"/>
<polygon fill="none" stroke="#000000" points="458.5,-142.2 458.5,-161.2 691.5,-161.2 691.5,-142.2 458.5,-142.2"/>
<polygon fill="#ffffff" stroke="transparent" points="459.5,-143.2 459.5,-160.2 542.5,-160.2 542.5,-143.2 459.5,-143.2"/>
<text text-anchor="start" x="461.5" y="-148.3" font-family="Helvetica,sans-Serif" font-size="11.00" fill="#000000">&lt; 1</text>
<polygon fill="#ffffff" stroke="transparent" points="542.5,-143.2 542.5,-160.2 616.5,-160.2 616.5,-143.2 542.5,-143.2"/>
<text text-anchor="start" x="576.4431" y="-148.3" font-family="Helvetica,sans-Serif" font-size="11.00" fill="#000000"> &#160;</text>
<polygon fill="#ffffff" stroke="transparent" points="616.5,-143.2 616.5,-160.2 690.5,-160.2 690.5,-143.2 616.5,-143.2"/>
<text text-anchor="start" x="682.3862" y="-148.3" font-family="Helvetica,sans-Serif" font-size="11.00" fill="#000000"> &#160;</text>
<polygon fill="#000000" stroke="#000000" points="542.5,-143.2 542.5,-160.2 542.5,-160.2 542.5,-143.2 542.5,-143.2"/>
<polygon fill="#000000" stroke="#000000" points="616.5,-143.2 616.5,-160.2 616.5,-160.2 616.5,-143.2 616.5,-143.2"/>
</a>
</g>
</g>
<!-- alert_code_privileged_user&#45;&gt;alert_code -->
<g id="edge3" class="edge">
<title>alert_code_privileged_user:w&#45;&gt;alert_code:e</title>
<path fill="none" stroke="#000000" d="M444.1228,-197.8609C413.2188,-217.778 458.1866,-312.2 407,-312.2"/>
<polygon fill="#000000" stroke="#000000" points="450.7474,-196.1741 459.3883,-197.6887 454.6237,-195.1871 458.5,-194.2 458.5,-194.2 458.5,-194.2 454.6237,-195.1871 457.6117,-190.7113 450.7474,-196.1741 450.7474,-196.1741"/>
<ellipse fill="none" stroke="#000000" cx="447.6463" cy="-196.9637" rx="3.2" ry="3.2"/>
</g>
</g>
</svg>
