<?xml version="1.0" encoding="UTF-8" standalone="no"?>
<!DOCTYPE svg PUBLIC "-//W3C//DTD SVG 1.1//EN"
 "http://www.w3.org/Graphics/SVG/1.1/DTD/svg11.dtd">
<!-- Generated by graphviz version 2.40.1 (20161225.0304)
 -->
<!-- Title: oneDegreeRelationshipsDiagram Pages: 1 -->
<svg width="489pt" height="245pt"
 viewBox="0.00 0.00 489.00 244.70" xmlns="http://www.w3.org/2000/svg" xmlns:xlink="http://www.w3.org/1999/xlink">
<g id="graph0" class="graph" transform="scale(1 1) rotate(0) translate(4 240.7)">
<title>oneDegreeRelationshipsDiagram</title>
<polygon fill="#ffffff" stroke="transparent" points="-4,4 -4,-240.7 485,-240.7 485,4 -4,4"/>
<text text-anchor="middle" x="72.4936" y="-7.3" font-family="Helvetica,sans-Serif" font-size="11.00" fill="#000000">Generated by SchemaSpy</text>
<!-- alert_code_privileged_user -->
<g id="node1" class="node">
<title>alert_code_privileged_user</title>
<g id="a_node1"><a xlink:href="../../tables/alert_code_privileged_user.html" xlink:title="alert_code_privileged_user" target="_top">
<polygon fill="#ffffff" stroke="transparent" points="189,-142.7 189,-232.7 473,-232.7 473,-142.7 189,-142.7"/>
<polygon fill="#f5f5f5" stroke="transparent" points="191,-207.7 191,-230.7 471,-230.7 471,-207.7 191,-207.7"/>
<polygon fill="none" stroke="#000000" points="191,-207.7 191,-230.7 471,-230.7 471,-207.7 191,-207.7"/>
<text text-anchor="start" x="196" y="-216.3" font-family="Helvetica,sans-Serif" font-weight="bold" font-size="11.00" fill="#000000">alert_code_privileged_user</text>
<text text-anchor="start" x="436.0437" y="-215.8" font-family="Helvetica,sans-Serif" font-size="11.00" fill="#000000">[table]</text>
<polygon fill="none" stroke="#000000" points="191,-185.7 191,-207.7 406,-207.7 406,-185.7 191,-185.7"/>
<image xlink:href="../../images/primaryKeys.png" width="11px" height="12px" preserveAspectRatio="xMinYMin meet" x="196" y="-202.7"/>
<text text-anchor="start" x="211" y="-192.8" font-family="Helvetica,sans-Serif" font-size="11.00" fill="#000000">alert_code_id</text>
<polygon fill="none" stroke="#000000" points="406,-185.7 406,-207.7 471,-207.7 471,-185.7 406,-185.7"/>
<text text-anchor="start" x="408.8561" y="-193.4" font-family="Helvetica,sans-Serif" font-size="11.00" fill="#000000">bigserial[19]</text>
<polygon fill="none" stroke="#000000" points="191,-163.7 191,-185.7 406,-185.7 406,-163.7 191,-163.7"/>
<image xlink:href="../../images/primaryKeys.png" width="11px" height="12px" preserveAspectRatio="xMinYMin meet" x="196" y="-180.7"/>
<text text-anchor="start" x="211" y="-170.8" font-family="Helvetica,sans-Serif" font-size="11.00" fill="#000000">username</text>
<polygon fill="none" stroke="#000000" points="406,-163.7 406,-185.7 471,-185.7 471,-163.7 406,-163.7"/>
<text text-anchor="start" x="409" y="-171.4" font-family="Helvetica,sans-Serif" font-size="11.00" fill="#000000">varchar[64]</text>
<polygon fill="#ffffff" stroke="transparent" points="191,-144.7 191,-163.7 471,-163.7 471,-144.7 191,-144.7"/>
<polygon fill="none" stroke="#000000" points="191,-144.7 191,-163.7 471,-163.7 471,-144.7 191,-144.7"/>
<polygon fill="#ffffff" stroke="transparent" points="192,-145.7 192,-162.7 288,-162.7 288,-145.7 192,-145.7"/>
<text text-anchor="start" x="194" y="-150.8" font-family="Helvetica,sans-Serif" font-size="11.00" fill="#000000">&lt; 1</text>
<polygon fill="#ffffff" stroke="transparent" points="288,-145.7 288,-162.7 375,-162.7 375,-145.7 288,-145.7"/>
<text text-anchor="start" x="328.4431" y="-150.8" font-family="Helvetica,sans-Serif" font-size="11.00" fill="#000000"> &#160;</text>
<polygon fill="#ffffff" stroke="transparent" points="375,-145.7 375,-162.7 470,-162.7 470,-145.7 375,-145.7"/>
<text text-anchor="start" x="452.4053" y="-150.8" font-family="Helvetica,sans-Serif" font-size="11.00" fill="#000000">0 &gt;</text>
<polygon fill="#000000" stroke="#000000" points="288,-145.7 288,-162.7 288,-162.7 288,-145.7 288,-145.7"/>
<polygon fill="#000000" stroke="#000000" points="375,-145.7 375,-162.7 375,-162.7 375,-145.7 375,-145.7"/>
<polygon fill="none" stroke="#000000" stroke-width="2" points="190,-143.7 190,-231.7 472,-231.7 472,-143.7 190,-143.7"/>
</a>
</g>
</g>
<!-- alert_code -->
<g id="node2" class="node">
<title>alert_code</title>
<g id="a_node2"><a xlink:href="../../tables/alert_code.html" xlink:title="alert_code" target="_top">
<polygon fill="#ffffff" stroke="transparent" points="8,-38.2 8,-231.2 140,-231.2 140,-38.2 8,-38.2"/>
<polygon fill="#f5f5f5" stroke="transparent" points="8,-207.7 8,-230.7 140,-230.7 140,-207.7 8,-207.7"/>
<polygon fill="none" stroke="#000000" points="8,-207.7 8,-230.7 140,-230.7 140,-207.7 8,-207.7"/>
<text text-anchor="start" x="13" y="-216.3" font-family="Helvetica,sans-Serif" font-weight="bold" font-size="11.00" fill="#000000">alert_code</text>
<text text-anchor="start" x="105.0437" y="-215.8" font-family="Helvetica,sans-Serif" font-size="11.00" fill="#000000">[table]</text>
<polygon fill="none" stroke="#000000" points="8,-185.7 8,-207.7 140,-207.7 140,-185.7 8,-185.7"/>
<image xlink:href="../../images/primaryKeys.png" width="11px" height="12px" preserveAspectRatio="xMinYMin meet" x="13" y="-202.7"/>
<text text-anchor="start" x="28" y="-192.8" font-family="Helvetica,sans-Serif" font-size="11.00" fill="#000000">alert_code_id</text>
<polygon fill="#ffffff" stroke="transparent" points="8,-163.7 8,-185.7 140,-185.7 140,-163.7 8,-163.7"/>
<polygon fill="none" stroke="#000000" points="8,-163.7 8,-185.7 140,-185.7 140,-163.7 8,-163.7"/>
<image xlink:href="../../images/foreignKeys.png" width="11px" height="12px" preserveAspectRatio="xMinYMin meet" x="13" y="-180.7"/>
<text text-anchor="start" x="28" y="-170.8" font-family="Helvetica,sans-Serif" font-size="11.00" fill="#000000">alert_type_id</text>
<polygon fill="#ffffff" stroke="transparent" points="8,-141.7 8,-163.7 140,-163.7 140,-141.7 8,-141.7"/>
<polygon fill="none" stroke="#000000" points="8,-141.7 8,-163.7 140,-163.7 140,-141.7 8,-141.7"/>
<text text-anchor="start" x="28" y="-148.8" font-family="Helvetica,sans-Serif" font-size="11.00" fill="#000000">code</text>
<polygon fill="#ffffff" stroke="transparent" points="8,-119.7 8,-141.7 140,-141.7 140,-119.7 8,-119.7"/>
<polygon fill="none" stroke="#000000" points="8,-119.7 8,-141.7 140,-141.7 140,-119.7 8,-119.7"/>
<text text-anchor="start" x="28" y="-126.8" font-family="Helvetica,sans-Serif" font-size="11.00" fill="#000000">list_sequence</text>
<polygon fill="#ffffff" stroke="transparent" points="8,-97.7 8,-119.7 140,-119.7 140,-97.7 8,-97.7"/>
<polygon fill="none" stroke="#000000" points="8,-97.7 8,-119.7 140,-119.7 140,-97.7 8,-97.7"/>
<text text-anchor="start" x="28" y="-104.8" font-family="Helvetica,sans-Serif" font-size="11.00" fill="#000000">created_at</text>
<polygon fill="#ffffff" stroke="transparent" points="8,-75.7 8,-97.7 140,-97.7 140,-75.7 8,-75.7"/>
<polygon fill="none" stroke="#000000" points="8,-75.7 8,-97.7 140,-97.7 140,-75.7 8,-75.7"/>
<text text-anchor="start" x="28" y="-82.8" font-family="Helvetica,sans-Serif" font-size="11.00" fill="#000000">deactivated_at</text>
<polygon fill="none" stroke="#000000" points="8,-56.7 8,-75.7 140,-75.7 140,-56.7 8,-56.7"/>
<text text-anchor="start" x="11" y="-62.8" font-family="Helvetica,sans-Serif" font-size="11.00" fill="#000000">...</text>
<polygon fill="#ffffff" stroke="transparent" points="8,-37.7 8,-56.7 140,-56.7 140,-37.7 8,-37.7"/>
<polygon fill="none" stroke="#000000" points="8,-37.7 8,-56.7 140,-56.7 140,-37.7 8,-37.7"/>
<polygon fill="#ffffff" stroke="transparent" points="9,-38.7 9,-55.7 43,-55.7 43,-38.7 9,-38.7"/>
<text text-anchor="start" x="11" y="-43.8" font-family="Helvetica,sans-Serif" font-size="11.00" fill="#000000">&lt; 1</text>
<polygon fill="#ffffff" stroke="transparent" points="43,-38.7 43,-55.7 106,-55.7 106,-38.7 43,-38.7"/>
<text text-anchor="start" x="52.1903" y="-43.8" font-family="Helvetica,sans-Serif" font-size="11.00" fill="#000000">213 rows</text>
<polygon fill="#ffffff" stroke="transparent" points="106,-38.7 106,-55.7 139,-55.7 139,-38.7 106,-38.7"/>
<text text-anchor="start" x="121.4053" y="-43.8" font-family="Helvetica,sans-Serif" font-size="11.00" fill="#000000">2 &gt;</text>
<polygon fill="#000000" stroke="#000000" points="43,-38.7 43,-55.7 43,-55.7 43,-38.7 43,-38.7"/>
<polygon fill="#000000" stroke="#000000" points="106,-38.7 106,-55.7 106,-55.7 106,-38.7 106,-38.7"/>
</a>
</g>
</g>
<!-- alert_code_privileged_user&#45;&gt;alert_code -->
<g id="edge1" class="edge">
<title>alert_code_privileged_user:w&#45;&gt;alert_code:e</title>
<path fill="none" stroke="#000000" d="M176.276,-196.7C164.2815,-196.7 156.8229,-196.7 140,-196.7"/>
<polygon fill="#000000" stroke="#000000" points="183,-196.7001 191,-200.3 187,-196.7 191,-196.7 191,-196.7 191,-196.7 187,-196.7 191,-193.1 183,-196.7001 183,-196.7001"/>
<ellipse fill="none" stroke="#000000" cx="179.8" cy="-196.7001" rx="3.2" ry="3.2"/>
</g>
</g>
</svg>
