<?xml version="1.0" encoding="UTF-8" standalone="no"?>
<!DOCTYPE svg PUBLIC "-//W3C//DTD SVG 1.1//EN"
 "http://www.w3.org/Graphics/SVG/1.1/DTD/svg11.dtd">
<!-- Generated by graphviz version 2.40.1 (20161225.0304)
 -->
<!-- Title: twoDegreesRelationshipsDiagram Pages: 1 -->
<svg width="707pt" height="377pt"
 viewBox="0.00 0.00 707.00 376.70" xmlns="http://www.w3.org/2000/svg" xmlns:xlink="http://www.w3.org/1999/xlink">
<g id="graph0" class="graph" transform="scale(1 1) rotate(0) translate(4 372.7)">
<title>twoDegreesRelationshipsDiagram</title>
<polygon fill="#ffffff" stroke="transparent" points="-4,4 -4,-372.7 703,-372.7 703,4 -4,4"/>
<text text-anchor="middle" x="72.4936" y="-7.3" font-family="Helvetica,sans-Serif" font-size="11.00" fill="#000000">Generated by SchemaSpy</text>
<!-- alert -->
<g id="node1" class="node">
<title>alert</title>
<g id="a_node1"><a xlink:href="../../tables/alert.html" xlink:title="alert" target="_top">
<polygon fill="#ffffff" stroke="transparent" points="538,-303.7 538,-364.7 611,-364.7 611,-303.7 538,-303.7"/>
<polygon fill="#f5f5f5" stroke="transparent" points="538.5,-341.2 538.5,-364.2 611.5,-364.2 611.5,-341.2 538.5,-341.2"/>
<polygon fill="none" stroke="#000000" points="538.5,-341.2 538.5,-364.2 611.5,-364.2 611.5,-341.2 538.5,-341.2"/>
<text text-anchor="start" x="543.5" y="-349.8" font-family="Helvetica,sans-Serif" font-weight="bold" font-size="11.00" fill="#000000">alert</text>
<text text-anchor="start" x="577.0219" y="-349.3" font-family="Helvetica,sans-Serif" font-size="11.00" fill="#000000">[table]</text>
<polygon fill="none" stroke="#000000" points="538.5,-322.2 538.5,-341.2 611.5,-341.2 611.5,-322.2 538.5,-322.2"/>
<text text-anchor="start" x="541.5" y="-328.3" font-family="Helvetica,sans-Serif" font-size="11.00" fill="#000000">...</text>
<polygon fill="#ffffff" stroke="transparent" points="538.5,-303.2 538.5,-322.2 611.5,-322.2 611.5,-303.2 538.5,-303.2"/>
<polygon fill="none" stroke="#000000" points="538.5,-303.2 538.5,-322.2 611.5,-322.2 611.5,-303.2 538.5,-303.2"/>
<polygon fill="#ffffff" stroke="transparent" points="539.5,-304.2 539.5,-321.2 566.5,-321.2 566.5,-304.2 539.5,-304.2"/>
<text text-anchor="start" x="541.5" y="-309.3" font-family="Helvetica,sans-Serif" font-size="11.00" fill="#000000">&lt; 1</text>
<polygon fill="#ffffff" stroke="transparent" points="566.5,-304.2 566.5,-321.2 584.5,-321.2 584.5,-304.2 566.5,-304.2"/>
<text text-anchor="start" x="572.4431" y="-309.3" font-family="Helvetica,sans-Serif" font-size="11.00" fill="#000000"> &#160;</text>
<polygon fill="#ffffff" stroke="transparent" points="584.5,-304.2 584.5,-321.2 610.5,-321.2 610.5,-304.2 584.5,-304.2"/>
<text text-anchor="start" x="592.9053" y="-309.3" font-family="Helvetica,sans-Serif" font-size="11.00" fill="#000000">1 &gt;</text>
<polygon fill="#000000" stroke="#000000" points="566.5,-304.2 566.5,-321.2 566.5,-321.2 566.5,-304.2 566.5,-304.2"/>
<polygon fill="#000000" stroke="#000000" points="584.5,-304.2 584.5,-321.2 584.5,-321.2 584.5,-304.2 584.5,-304.2"/>
</a>
</g>
</g>
<!-- alert_code -->
<g id="node2" class="node">
<title>alert_code</title>
<g id="a_node2"><a xlink:href="../../tables/alert_code.html" xlink:title="alert_code" target="_top">
<polygon fill="#ffffff" stroke="transparent" points="277,-131.7 277,-324.7 409,-324.7 409,-131.7 277,-131.7"/>
<polygon fill="#f5f5f5" stroke="transparent" points="277,-301.2 277,-324.2 409,-324.2 409,-301.2 277,-301.2"/>
<polygon fill="none" stroke="#000000" points="277,-301.2 277,-324.2 409,-324.2 409,-301.2 277,-301.2"/>
<text text-anchor="start" x="282" y="-309.8" font-family="Helvetica,sans-Serif" font-weight="bold" font-size="11.00" fill="#000000">alert_code</text>
<text text-anchor="start" x="374.0437" y="-309.3" font-family="Helvetica,sans-Serif" font-size="11.00" fill="#000000">[table]</text>
<polygon fill="none" stroke="#000000" points="277,-279.2 277,-301.2 409,-301.2 409,-279.2 277,-279.2"/>
<image xlink:href="../../images/primaryKeys.png" width="11px" height="12px" preserveAspectRatio="xMinYMin meet" x="282" y="-296.2"/>
<text text-anchor="start" x="297" y="-286.3" font-family="Helvetica,sans-Serif" font-size="11.00" fill="#000000">alert_code_id</text>
<polygon fill="#ffffff" stroke="transparent" points="277,-257.2 277,-279.2 409,-279.2 409,-257.2 277,-257.2"/>
<polygon fill="none" stroke="#000000" points="277,-257.2 277,-279.2 409,-279.2 409,-257.2 277,-257.2"/>
<image xlink:href="../../images/foreignKeys.png" width="11px" height="12px" preserveAspectRatio="xMinYMin meet" x="282" y="-274.2"/>
<text text-anchor="start" x="297" y="-264.3" font-family="Helvetica,sans-Serif" font-size="11.00" fill="#000000">alert_type_id</text>
<polygon fill="#ffffff" stroke="transparent" points="277,-235.2 277,-257.2 409,-257.2 409,-235.2 277,-235.2"/>
<polygon fill="none" stroke="#000000" points="277,-235.2 277,-257.2 409,-257.2 409,-235.2 277,-235.2"/>
<text text-anchor="start" x="297" y="-242.3" font-family="Helvetica,sans-Serif" font-size="11.00" fill="#000000">code</text>
<polygon fill="#ffffff" stroke="transparent" points="277,-213.2 277,-235.2 409,-235.2 409,-213.2 277,-213.2"/>
<polygon fill="none" stroke="#000000" points="277,-213.2 277,-235.2 409,-235.2 409,-213.2 277,-213.2"/>
<text text-anchor="start" x="297" y="-220.3" font-family="Helvetica,sans-Serif" font-size="11.00" fill="#000000">list_sequence</text>
<polygon fill="#ffffff" stroke="transparent" points="277,-191.2 277,-213.2 409,-213.2 409,-191.2 277,-191.2"/>
<polygon fill="none" stroke="#000000" points="277,-191.2 277,-213.2 409,-213.2 409,-191.2 277,-191.2"/>
<text text-anchor="start" x="297" y="-198.3" font-family="Helvetica,sans-Serif" font-size="11.00" fill="#000000">created_at</text>
<polygon fill="#ffffff" stroke="transparent" points="277,-169.2 277,-191.2 409,-191.2 409,-169.2 277,-169.2"/>
<polygon fill="none" stroke="#000000" points="277,-169.2 277,-191.2 409,-191.2 409,-169.2 277,-169.2"/>
<text text-anchor="start" x="297" y="-176.3" font-family="Helvetica,sans-Serif" font-size="11.00" fill="#000000">deactivated_at</text>
<polygon fill="none" stroke="#000000" points="277,-150.2 277,-169.2 409,-169.2 409,-150.2 277,-150.2"/>
<text text-anchor="start" x="280" y="-156.3" font-family="Helvetica,sans-Serif" font-size="11.00" fill="#000000">...</text>
<polygon fill="#ffffff" stroke="transparent" points="277,-131.2 277,-150.2 409,-150.2 409,-131.2 277,-131.2"/>
<polygon fill="none" stroke="#000000" points="277,-131.2 277,-150.2 409,-150.2 409,-131.2 277,-131.2"/>
<polygon fill="#ffffff" stroke="transparent" points="278,-132.2 278,-149.2 325,-149.2 325,-132.2 278,-132.2"/>
<text text-anchor="start" x="280" y="-137.3" font-family="Helvetica,sans-Serif" font-size="11.00" fill="#000000">&lt; 1</text>
<polygon fill="#ffffff" stroke="transparent" points="325,-132.2 325,-149.2 362,-149.2 362,-132.2 325,-132.2"/>
<text text-anchor="start" x="340.4431" y="-137.3" font-family="Helvetica,sans-Serif" font-size="11.00" fill="#000000"> &#160;</text>
<polygon fill="#ffffff" stroke="transparent" points="362,-132.2 362,-149.2 408,-149.2 408,-132.2 362,-132.2"/>
<text text-anchor="start" x="390.4053" y="-137.3" font-family="Helvetica,sans-Serif" font-size="11.00" fill="#000000">2 &gt;</text>
<polygon fill="#000000" stroke="#000000" points="325,-132.2 325,-149.2 325,-149.2 325,-132.2 325,-132.2"/>
<polygon fill="#000000" stroke="#000000" points="362,-132.2 362,-149.2 362,-149.2 362,-132.2 362,-132.2"/>
</a>
</g>
</g>
<!-- alert&#45;&gt;alert_code -->
<g id="edge1" class="edge">
<title>alert:w&#45;&gt;alert_code:e</title>
<path fill="none" stroke="#000000" d="M524.0136,-330.3437C476.2424,-324.4559 464.1831,-290.2 409,-290.2"/>
<polygon fill="#000000" stroke="#000000" points="530.5139,-330.7279 538.2875,-334.7937 534.507,-330.9639 538.5,-331.2 538.5,-331.2 538.5,-331.2 534.507,-330.9639 538.7125,-327.6063 530.5139,-330.7279 530.5139,-330.7279"/>
<ellipse fill="none" stroke="#000000" cx="527.3195" cy="-330.539" rx="3.2" ry="3.2"/>
</g>
<!-- alert_type -->
<g id="node3" class="node">
<title>alert_type</title>
<g id="a_node3"><a xlink:href="../../tables/alert_type.html" xlink:title="alert_type" target="_top">
<polygon fill="#ffffff" stroke="transparent" points="8,-38.2 8,-304.2 228,-304.2 228,-38.2 8,-38.2"/>
<polygon fill="#f5f5f5" stroke="transparent" points="10,-279.2 10,-302.2 226,-302.2 226,-279.2 10,-279.2"/>
<polygon fill="none" stroke="#000000" points="10,-279.2 10,-302.2 226,-302.2 226,-279.2 10,-279.2"/>
<text text-anchor="start" x="15" y="-287.8" font-family="Helvetica,sans-Serif" font-weight="bold" font-size="11.00" fill="#000000">alert_type</text>
<text text-anchor="start" x="191.0437" y="-287.3" font-family="Helvetica,sans-Serif" font-size="11.00" fill="#000000">[table]</text>
<polygon fill="none" stroke="#000000" points="10,-257.2 10,-279.2 142,-279.2 142,-257.2 10,-257.2"/>
<image xlink:href="../../images/primaryKeys.png" width="11px" height="12px" preserveAspectRatio="xMinYMin meet" x="15" y="-274.2"/>
<text text-anchor="start" x="30" y="-264.3" font-family="Helvetica,sans-Serif" font-size="11.00" fill="#000000">alert_type_id</text>
<polygon fill="none" stroke="#000000" points="142,-257.2 142,-279.2 226,-279.2 226,-257.2 142,-257.2"/>
<text text-anchor="start" x="145" y="-264.9" font-family="Helvetica,sans-Serif" font-size="11.00" fill="#000000">bigserial[19]</text>
<polygon fill="#ffffff" stroke="transparent" points="10,-235.2 10,-257.2 142,-257.2 142,-235.2 10,-235.2"/>
<polygon fill="none" stroke="#000000" points="10,-235.2 10,-257.2 142,-257.2 142,-235.2 10,-235.2"/>
<text text-anchor="start" x="30" y="-242.3" font-family="Helvetica,sans-Serif" font-size="11.00" fill="#000000">code</text>
<polygon fill="none" stroke="#000000" points="142,-235.2 142,-257.2 226,-257.2 226,-235.2 142,-235.2"/>
<text text-anchor="start" x="145" y="-242.9" font-family="Helvetica,sans-Serif" font-size="11.00" fill="#000000">varchar[12]</text>
<polygon fill="none" stroke="#000000" points="10,-213.2 10,-235.2 142,-235.2 142,-213.2 10,-213.2"/>
<text text-anchor="start" x="30" y="-220.3" font-family="Helvetica,sans-Serif" font-size="11.00" fill="#000000">description</text>
<polygon fill="none" stroke="#000000" points="142,-213.2 142,-235.2 226,-235.2 226,-213.2 142,-213.2"/>
<text text-anchor="start" x="145" y="-220.9" font-family="Helvetica,sans-Serif" font-size="11.00" fill="#000000">varchar[40]</text>
<polygon fill="#ffffff" stroke="transparent" points="10,-191.2 10,-213.2 142,-213.2 142,-191.2 10,-191.2"/>
<polygon fill="none" stroke="#000000" points="10,-191.2 10,-213.2 142,-213.2 142,-191.2 10,-191.2"/>
<text text-anchor="start" x="30" y="-198.3" font-family="Helvetica,sans-Serif" font-size="11.00" fill="#000000">list_sequence</text>
<polygon fill="none" stroke="#000000" points="142,-191.2 142,-213.2 226,-213.2 226,-191.2 142,-191.2"/>
<text text-anchor="start" x="145" y="-198.9" font-family="Helvetica,sans-Serif" font-size="11.00" fill="#000000">int4[10]</text>
<polygon fill="#ffffff" stroke="transparent" points="10,-169.2 10,-191.2 142,-191.2 142,-169.2 10,-169.2"/>
<polygon fill="none" stroke="#000000" points="10,-169.2 10,-191.2 142,-191.2 142,-169.2 10,-169.2"/>
<text text-anchor="start" x="30" y="-176.3" font-family="Helvetica,sans-Serif" font-size="11.00" fill="#000000">created_at</text>
<polygon fill="none" stroke="#000000" points="142,-169.2 142,-191.2 226,-191.2 226,-169.2 142,-169.2"/>
<text text-anchor="start" x="144.8807" y="-176.9" font-family="Helvetica,sans-Serif" font-size="11.00" fill="#000000">timestamp[29,6]</text>
<polygon fill="none" stroke="#000000" points="10,-147.2 10,-169.2 142,-169.2 142,-147.2 10,-147.2"/>
<text text-anchor="start" x="30" y="-154.3" font-family="Helvetica,sans-Serif" font-size="11.00" fill="#000000">created_by</text>
<polygon fill="none" stroke="#000000" points="142,-147.2 142,-169.2 226,-169.2 226,-147.2 142,-147.2"/>
<text text-anchor="start" x="145" y="-154.9" font-family="Helvetica,sans-Serif" font-size="11.00" fill="#000000">varchar[64]</text>
<polygon fill="none" stroke="#000000" points="10,-125.2 10,-147.2 142,-147.2 142,-125.2 10,-125.2"/>
<text text-anchor="start" x="30" y="-132.3" font-family="Helvetica,sans-Serif" font-size="11.00" fill="#000000">modified_at</text>
<polygon fill="none" stroke="#000000" points="142,-125.2 142,-147.2 226,-147.2 226,-125.2 142,-125.2"/>
<text text-anchor="start" x="144.8807" y="-132.9" font-family="Helvetica,sans-Serif" font-size="11.00" fill="#000000">timestamp[29,6]</text>
<polygon fill="none" stroke="#000000" points="10,-103.2 10,-125.2 142,-125.2 142,-103.2 10,-103.2"/>
<text text-anchor="start" x="30" y="-110.3" font-family="Helvetica,sans-Serif" font-size="11.00" fill="#000000">modified_by</text>
<polygon fill="none" stroke="#000000" points="142,-103.2 142,-125.2 226,-125.2 226,-103.2 142,-103.2"/>
<text text-anchor="start" x="145" y="-110.9" font-family="Helvetica,sans-Serif" font-size="11.00" fill="#000000">varchar[64]</text>
<polygon fill="#ffffff" stroke="transparent" points="10,-81.2 10,-103.2 142,-103.2 142,-81.2 10,-81.2"/>
<polygon fill="none" stroke="#000000" points="10,-81.2 10,-103.2 142,-103.2 142,-81.2 10,-81.2"/>
<text text-anchor="start" x="30" y="-88.3" font-family="Helvetica,sans-Serif" font-size="11.00" fill="#000000">deactivated_at</text>
<polygon fill="none" stroke="#000000" points="142,-81.2 142,-103.2 226,-103.2 226,-81.2 142,-81.2"/>
<text text-anchor="start" x="144.8807" y="-88.9" font-family="Helvetica,sans-Serif" font-size="11.00" fill="#000000">timestamp[29,6]</text>
<polygon fill="none" stroke="#000000" points="10,-59.2 10,-81.2 142,-81.2 142,-59.2 10,-59.2"/>
<text text-anchor="start" x="30" y="-66.3" font-family="Helvetica,sans-Serif" font-size="11.00" fill="#000000">deactivated_by</text>
<polygon fill="none" stroke="#000000" points="142,-59.2 142,-81.2 226,-81.2 226,-59.2 142,-59.2"/>
<text text-anchor="start" x="145" y="-66.9" font-family="Helvetica,sans-Serif" font-size="11.00" fill="#000000">varchar[64]</text>
<polygon fill="#ffffff" stroke="transparent" points="10,-40.2 10,-59.2 226,-59.2 226,-40.2 10,-40.2"/>
<polygon fill="none" stroke="#000000" points="10,-40.2 10,-59.2 226,-59.2 226,-40.2 10,-40.2"/>
<polygon fill="#ffffff" stroke="transparent" points="11,-41.2 11,-58.2 86,-58.2 86,-41.2 11,-41.2"/>
<text text-anchor="start" x="13" y="-46.3" font-family="Helvetica,sans-Serif" font-size="11.00" fill="#000000">&lt; 0</text>
<polygon fill="#ffffff" stroke="transparent" points="86,-41.2 86,-58.2 151,-58.2 151,-41.2 86,-41.2"/>
<text text-anchor="start" x="115.4431" y="-46.3" font-family="Helvetica,sans-Serif" font-size="11.00" fill="#000000"> &#160;</text>
<polygon fill="#ffffff" stroke="transparent" points="151,-41.2 151,-58.2 225,-58.2 225,-41.2 151,-41.2"/>
<text text-anchor="start" x="207.4053" y="-46.3" font-family="Helvetica,sans-Serif" font-size="11.00" fill="#000000">1 &gt;</text>
<polygon fill="#000000" stroke="#000000" points="86,-41.2 86,-58.2 86,-58.2 86,-41.2 86,-41.2"/>
<polygon fill="#000000" stroke="#000000" points="151,-41.2 151,-58.2 151,-58.2 151,-41.2 151,-41.2"/>
<polygon fill="none" stroke="#000000" stroke-width="2" points="9,-39.2 9,-303.2 227,-303.2 227,-39.2 9,-39.2"/>
</a>
</g>
</g>
<!-- alert_code&#45;&gt;alert_type -->
<g id="edge2" class="edge">
<title>alert_code:w&#45;&gt;alert_type:e</title>
<path fill="none" stroke="#000000" d="M262.276,-268.2C250.2815,-268.2 242.8229,-268.2 226,-268.2"/>
<polygon fill="#000000" stroke="#000000" points="269,-268.2001 277,-271.8 273,-268.2 277,-268.2 277,-268.2 277,-268.2 273,-268.2 277,-264.6 269,-268.2001 269,-268.2001"/>
<ellipse fill="none" stroke="#000000" cx="265.8" cy="-268.2001" rx="3.2" ry="3.2"/>
</g>
<!-- alert_code_privileged_user -->
<g id="node4" class="node">
<title>alert_code_privileged_user</title>
<g id="a_node4"><a xlink:href="../../tables/alert_code_privileged_user.html" xlink:title="alert_code_privileged_user" target="_top">
<polygon fill="#ffffff" stroke="transparent" points="458,-221.7 458,-282.7 691,-282.7 691,-221.7 458,-221.7"/>
<polygon fill="#f5f5f5" stroke="transparent" points="458.5,-259.2 458.5,-282.2 691.5,-282.2 691.5,-259.2 458.5,-259.2"/>
<polygon fill="none" stroke="#000000" points="458.5,-259.2 458.5,-282.2 691.5,-282.2 691.5,-259.2 458.5,-259.2"/>
<text text-anchor="start" x="463.5" y="-267.8" font-family="Helvetica,sans-Serif" font-weight="bold" font-size="11.00" fill="#000000">alert_code_privileged_user</text>
<text text-anchor="start" x="657.0219" y="-267.3" font-family="Helvetica,sans-Serif" font-size="11.00" fill="#000000">[table]</text>
<polygon fill="none" stroke="#000000" points="458.5,-240.2 458.5,-259.2 691.5,-259.2 691.5,-240.2 458.5,-240.2"/>
<text text-anchor="start" x="461.5" y="-246.3" font-family="Helvetica,sans-Serif" font-size="11.00" fill="#000000">...</text>
<polygon fill="#ffffff" stroke="transparent" points="458.5,-221.2 458.5,-240.2 691.5,-240.2 691.5,-221.2 458.5,-221.2"/>
<polygon fill="none" stroke="#000000" points="458.5,-221.2 458.5,-240.2 691.5,-240.2 691.5,-221.2 458.5,-221.2"/>
<polygon fill="#ffffff" stroke="transparent" points="459.5,-222.2 459.5,-239.2 542.5,-239.2 542.5,-222.2 459.5,-222.2"/>
<text text-anchor="start" x="461.5" y="-227.3" font-family="Helvetica,sans-Serif" font-size="11.00" fill="#000000">&lt; 1</text>
<polygon fill="#ffffff" stroke="transparent" points="542.5,-222.2 542.5,-239.2 616.5,-239.2 616.5,-222.2 542.5,-222.2"/>
<text text-anchor="start" x="576.4431" y="-227.3" font-family="Helvetica,sans-Serif" font-size="11.00" fill="#000000"> &#160;</text>
<polygon fill="#ffffff" stroke="transparent" points="616.5,-222.2 616.5,-239.2 690.5,-239.2 690.5,-222.2 616.5,-222.2"/>
<text text-anchor="start" x="682.3862" y="-227.3" font-family="Helvetica,sans-Serif" font-size="11.00" fill="#000000"> &#160;</text>
<polygon fill="#000000" stroke="#000000" points="542.5,-222.2 542.5,-239.2 542.5,-239.2 542.5,-222.2 542.5,-222.2"/>
<polygon fill="#000000" stroke="#000000" points="616.5,-222.2 616.5,-239.2 616.5,-239.2 616.5,-222.2 616.5,-222.2"/>
</a>
</g>
</g>
<!-- alert_code_privileged_user&#45;&gt;alert_code -->
<g id="edge3" class="edge">
<title>alert_code_privileged_user:w&#45;&gt;alert_code:e</title>
<path fill="none" stroke="#000000" d="M444.5753,-253.9032C431.543,-264.6726 431.5408,-290.2 409,-290.2"/>
<polygon fill="#000000" stroke="#000000" points="450.9207,-251.76 459.652,-252.6107 454.7103,-250.48 458.5,-249.2 458.5,-249.2 458.5,-249.2 454.7103,-250.48 457.348,-245.7893 450.9207,-251.76 450.9207,-251.76"/>
<ellipse fill="none" stroke="#000000" cx="447.8889" cy="-252.7841" rx="3.2" ry="3.2"/>
</g>
</g>
</svg>
