<?xml version="1.0" encoding="UTF-8" standalone="no"?>
<!DOCTYPE svg PUBLIC "-//W3C//DTD SVG 1.1//EN"
 "http://www.w3.org/Graphics/SVG/1.1/DTD/svg11.dtd">
<!-- Generated by graphviz version 2.40.1 (20161225.0304)
 -->
<!-- Title: oneDegreeRelationshipsDiagram Pages: 1 -->
<svg width="743pt" height="425pt"
 viewBox="0.00 0.00 743.00 424.70" xmlns="http://www.w3.org/2000/svg" xmlns:xlink="http://www.w3.org/1999/xlink">
<g id="graph0" class="graph" transform="scale(1 1) rotate(0) translate(4 420.7)">
<title>oneDegreeRelationshipsDiagram</title>
<polygon fill="#ffffff" stroke="transparent" points="-4,4 -4,-420.7 739,-420.7 739,4 -4,4"/>
<text text-anchor="middle" x="72.4936" y="-7.3" font-family="Helvetica,sans-Serif" font-size="11.00" fill="#000000">Generated by SchemaSpy</text>
<!-- alert -->
<g id="node1" class="node">
<title>alert</title>
<g id="a_node1"><a xlink:href="../../tables/alert.html" xlink:title="alert" target="_top">
<polygon fill="#ffffff" stroke="transparent" points="180,-38.2 180,-348.2 479,-348.2 479,-38.2 180,-38.2"/>
<polygon fill="#f5f5f5" stroke="transparent" points="182.5,-323.2 182.5,-346.2 477.5,-346.2 477.5,-323.2 182.5,-323.2"/>
<polygon fill="none" stroke="#000000" points="182.5,-323.2 182.5,-346.2 477.5,-346.2 477.5,-323.2 182.5,-323.2"/>
<text text-anchor="start" x="187.5" y="-331.8" font-family="Helvetica,sans-Serif" font-weight="bold" font-size="11.00" fill="#000000">alert</text>
<text text-anchor="start" x="442.5437" y="-331.3" font-family="Helvetica,sans-Serif" font-size="11.00" fill="#000000">[table]</text>
<polygon fill="none" stroke="#000000" points="182.5,-301.2 182.5,-323.2 383.5,-323.2 383.5,-301.2 182.5,-301.2"/>
<image xlink:href="../../images/primaryKeys.png" width="11px" height="12px" preserveAspectRatio="xMinYMin meet" x="187.5" y="-318.2"/>
<text text-anchor="start" x="202.5" y="-308.3" font-family="Helvetica,sans-Serif" font-size="11.00" fill="#000000">id</text>
<polygon fill="none" stroke="#000000" points="383.5,-301.2 383.5,-323.2 477.5,-323.2 477.5,-301.2 383.5,-301.2"/>
<text text-anchor="start" x="386.4758" y="-308.9" font-family="Helvetica,sans-Serif" font-size="11.00" fill="#000000">uuid[2147483647]</text>
<polygon fill="#ffffff" stroke="transparent" points="182.5,-279.2 182.5,-301.2 383.5,-301.2 383.5,-279.2 182.5,-279.2"/>
<polygon fill="none" stroke="#000000" points="182.5,-279.2 182.5,-301.2 383.5,-301.2 383.5,-279.2 182.5,-279.2"/>
<image xlink:href="../../images/foreignKeys.png" width="11px" height="12px" preserveAspectRatio="xMinYMin meet" x="187.5" y="-296.2"/>
<text text-anchor="start" x="202.5" y="-286.3" font-family="Helvetica,sans-Serif" font-size="11.00" fill="#000000">alert_code_id</text>
<polygon fill="none" stroke="#000000" points="383.5,-279.2 383.5,-301.2 477.5,-301.2 477.5,-279.2 383.5,-279.2"/>
<text text-anchor="start" x="386.5" y="-286.9" font-family="Helvetica,sans-Serif" font-size="11.00" fill="#000000">int8[19]</text>
<polygon fill="#ffffff" stroke="transparent" points="182.5,-257.2 182.5,-279.2 383.5,-279.2 383.5,-257.2 182.5,-257.2"/>
<polygon fill="none" stroke="#000000" points="182.5,-257.2 182.5,-279.2 383.5,-279.2 383.5,-257.2 182.5,-257.2"/>
<image xlink:href="../../images/foreignKeys.png" width="11px" height="12px" preserveAspectRatio="xMinYMin meet" x="187.5" y="-274.2"/>
<text text-anchor="start" x="202.5" y="-264.3" font-family="Helvetica,sans-Serif" font-size="11.00" fill="#000000">prison_number</text>
<polygon fill="none" stroke="#000000" points="383.5,-257.2 383.5,-279.2 477.5,-279.2 477.5,-257.2 383.5,-257.2"/>
<text text-anchor="start" x="386.5" y="-264.9" font-family="Helvetica,sans-Serif" font-size="11.00" fill="#000000">varchar[10]</text>
<polygon fill="none" stroke="#000000" points="182.5,-235.2 182.5,-257.2 383.5,-257.2 383.5,-235.2 182.5,-235.2"/>
<text text-anchor="start" x="202.5" y="-242.3" font-family="Helvetica,sans-Serif" font-size="11.00" fill="#000000">description</text>
<polygon fill="none" stroke="#000000" points="383.5,-235.2 383.5,-257.2 477.5,-257.2 477.5,-235.2 383.5,-235.2"/>
<text text-anchor="start" x="386.5" y="-242.9" font-family="Helvetica,sans-Serif" font-size="11.00" fill="#000000">text[2147483647]</text>
<polygon fill="none" stroke="#000000" points="182.5,-213.2 182.5,-235.2 383.5,-235.2 383.5,-213.2 182.5,-213.2"/>
<text text-anchor="start" x="202.5" y="-220.3" font-family="Helvetica,sans-Serif" font-size="11.00" fill="#000000">authorised_by</text>
<polygon fill="none" stroke="#000000" points="383.5,-213.2 383.5,-235.2 477.5,-235.2 477.5,-213.2 383.5,-213.2"/>
<text text-anchor="start" x="386.5" y="-220.9" font-family="Helvetica,sans-Serif" font-size="11.00" fill="#000000">varchar[40]</text>
<polygon fill="#ffffff" stroke="transparent" points="182.5,-191.2 182.5,-213.2 383.5,-213.2 383.5,-191.2 182.5,-191.2"/>
<polygon fill="none" stroke="#000000" points="182.5,-191.2 182.5,-213.2 383.5,-213.2 383.5,-191.2 182.5,-191.2"/>
<text text-anchor="start" x="202.5" y="-198.3" font-family="Helvetica,sans-Serif" font-size="11.00" fill="#000000">active_from</text>
<polygon fill="none" stroke="#000000" points="383.5,-191.2 383.5,-213.2 477.5,-213.2 477.5,-191.2 383.5,-191.2"/>
<text text-anchor="start" x="386.5" y="-198.9" font-family="Helvetica,sans-Serif" font-size="11.00" fill="#000000">date[13]</text>
<polygon fill="#ffffff" stroke="transparent" points="182.5,-169.2 182.5,-191.2 383.5,-191.2 383.5,-169.2 182.5,-169.2"/>
<polygon fill="none" stroke="#000000" points="182.5,-169.2 182.5,-191.2 383.5,-191.2 383.5,-169.2 182.5,-169.2"/>
<text text-anchor="start" x="202.5" y="-176.3" font-family="Helvetica,sans-Serif" font-size="11.00" fill="#000000">active_to</text>
<polygon fill="none" stroke="#000000" points="383.5,-169.2 383.5,-191.2 477.5,-191.2 477.5,-169.2 383.5,-169.2"/>
<text text-anchor="start" x="386.5" y="-176.9" font-family="Helvetica,sans-Serif" font-size="11.00" fill="#000000">date[13]</text>
<polygon fill="#ffffff" stroke="transparent" points="182.5,-147.2 182.5,-169.2 383.5,-169.2 383.5,-147.2 182.5,-147.2"/>
<polygon fill="none" stroke="#000000" points="182.5,-147.2 182.5,-169.2 383.5,-169.2 383.5,-147.2 182.5,-147.2"/>
<text text-anchor="start" x="202.5" y="-154.3" font-family="Helvetica,sans-Serif" font-size="11.00" fill="#000000">deleted_at</text>
<polygon fill="none" stroke="#000000" points="383.5,-147.2 383.5,-169.2 477.5,-169.2 477.5,-147.2 383.5,-147.2"/>
<text text-anchor="start" x="386.5" y="-154.9" font-family="Helvetica,sans-Serif" font-size="11.00" fill="#000000">timestamp[29,6]</text>
<polygon fill="#ffffff" stroke="transparent" points="182.5,-125.2 182.5,-147.2 383.5,-147.2 383.5,-125.2 182.5,-125.2"/>
<polygon fill="none" stroke="#000000" points="182.5,-125.2 182.5,-147.2 383.5,-147.2 383.5,-125.2 182.5,-125.2"/>
<text text-anchor="start" x="202.5" y="-132.3" font-family="Helvetica,sans-Serif" font-size="11.00" fill="#000000">created_at</text>
<polygon fill="none" stroke="#000000" points="383.5,-125.2 383.5,-147.2 477.5,-147.2 477.5,-125.2 383.5,-125.2"/>
<text text-anchor="start" x="386.5" y="-132.9" font-family="Helvetica,sans-Serif" font-size="11.00" fill="#000000">timestamp[29,6]</text>
<polygon fill="#ffffff" stroke="transparent" points="182.5,-103.2 182.5,-125.2 383.5,-125.2 383.5,-103.2 182.5,-103.2"/>
<polygon fill="none" stroke="#000000" points="182.5,-103.2 182.5,-125.2 383.5,-125.2 383.5,-103.2 182.5,-103.2"/>
<text text-anchor="start" x="202.5" y="-110.3" font-family="Helvetica,sans-Serif" font-size="11.00" fill="#000000">last_modified_at</text>
<polygon fill="none" stroke="#000000" points="383.5,-103.2 383.5,-125.2 477.5,-125.2 477.5,-103.2 383.5,-103.2"/>
<text text-anchor="start" x="386.5" y="-110.9" font-family="Helvetica,sans-Serif" font-size="11.00" fill="#000000">timestamp[29,6]</text>
<polygon fill="none" stroke="#000000" points="182.5,-81.2 182.5,-103.2 383.5,-103.2 383.5,-81.2 182.5,-81.2"/>
<text text-anchor="start" x="202.5" y="-88.3" font-family="Helvetica,sans-Serif" font-size="11.00" fill="#000000">prison_code_when_created</text>
<polygon fill="none" stroke="#000000" points="383.5,-81.2 383.5,-103.2 477.5,-103.2 477.5,-81.2 383.5,-81.2"/>
<text text-anchor="start" x="386.5" y="-88.9" font-family="Helvetica,sans-Serif" font-size="11.00" fill="#000000">varchar[6]</text>
<polygon fill="none" stroke="#000000" points="182.5,-59.2 182.5,-81.2 383.5,-81.2 383.5,-59.2 182.5,-59.2"/>
<text text-anchor="start" x="202.5" y="-66.3" font-family="Helvetica,sans-Serif" font-size="11.00" fill="#000000">version</text>
<polygon fill="none" stroke="#000000" points="383.5,-59.2 383.5,-81.2 477.5,-81.2 477.5,-59.2 383.5,-59.2"/>
<text text-anchor="start" x="386.5" y="-66.9" font-family="Helvetica,sans-Serif" font-size="11.00" fill="#000000">int4[10]</text>
<polygon fill="#ffffff" stroke="transparent" points="182.5,-40.2 182.5,-59.2 287.5,-59.2 287.5,-40.2 182.5,-40.2"/>
<polygon fill="none" stroke="#000000" points="182.5,-40.2 182.5,-59.2 287.5,-59.2 287.5,-40.2 182.5,-40.2"/>
<text text-anchor="start" x="185.5" y="-46.3" font-family="Helvetica,sans-Serif" font-size="11.00" fill="#000000">&lt; 1</text>
<polygon fill="#ffffff" stroke="transparent" points="287.5,-40.2 287.5,-59.2 383.5,-59.2 383.5,-40.2 287.5,-40.2"/>
<polygon fill="none" stroke="#000000" points="287.5,-40.2 287.5,-59.2 383.5,-59.2 383.5,-40.2 287.5,-40.2"/>
<text text-anchor="start" x="374.3862" y="-46.3" font-family="Helvetica,sans-Serif" font-size="11.00" fill="#000000"> &#160;</text>
<polygon fill="#ffffff" stroke="transparent" points="383.5,-40.2 383.5,-59.2 477.5,-59.2 477.5,-40.2 383.5,-40.2"/>
<polygon fill="none" stroke="#000000" points="383.5,-40.2 383.5,-59.2 477.5,-59.2 477.5,-40.2 383.5,-40.2"/>
<text text-anchor="start" x="458.9053" y="-46.3" font-family="Helvetica,sans-Serif" font-size="11.00" fill="#000000">1 &gt;</text>
<polygon fill="none" stroke="#000000" stroke-width="2" points="181,-39.2 181,-347.2 478,-347.2 478,-39.2 181,-39.2"/>
</a>
</g>
</g>
<!-- alert_code -->
<g id="node2" class="node">
<title>alert_code</title>
<g id="a_node2"><a xlink:href="../../tables/alert_code.html" xlink:title="alert_code" target="_top">
<polygon fill="#ffffff" stroke="transparent" points="8,-131.7 8,-324.7 131,-324.7 131,-131.7 8,-131.7"/>
<polygon fill="#f5f5f5" stroke="transparent" points="8.5,-301.2 8.5,-324.2 131.5,-324.2 131.5,-301.2 8.5,-301.2"/>
<polygon fill="none" stroke="#000000" points="8.5,-301.2 8.5,-324.2 131.5,-324.2 131.5,-301.2 8.5,-301.2"/>
<text text-anchor="start" x="13.5" y="-309.8" font-family="Helvetica,sans-Serif" font-weight="bold" font-size="11.00" fill="#000000">alert_code</text>
<text text-anchor="start" x="96.5437" y="-309.3" font-family="Helvetica,sans-Serif" font-size="11.00" fill="#000000">[table]</text>
<polygon fill="none" stroke="#000000" points="8.5,-279.2 8.5,-301.2 131.5,-301.2 131.5,-279.2 8.5,-279.2"/>
<image xlink:href="../../images/primaryKeys.png" width="11px" height="12px" preserveAspectRatio="xMinYMin meet" x="13.5" y="-296.2"/>
<text text-anchor="start" x="28.5" y="-286.3" font-family="Helvetica,sans-Serif" font-size="11.00" fill="#000000">alert_code_id</text>
<polygon fill="#ffffff" stroke="transparent" points="8.5,-257.2 8.5,-279.2 131.5,-279.2 131.5,-257.2 8.5,-257.2"/>
<polygon fill="none" stroke="#000000" points="8.5,-257.2 8.5,-279.2 131.5,-279.2 131.5,-257.2 8.5,-257.2"/>
<image xlink:href="../../images/foreignKeys.png" width="11px" height="12px" preserveAspectRatio="xMinYMin meet" x="13.5" y="-274.2"/>
<text text-anchor="start" x="28.5" y="-264.3" font-family="Helvetica,sans-Serif" font-size="11.00" fill="#000000">alert_type_id</text>
<polygon fill="#ffffff" stroke="transparent" points="8.5,-235.2 8.5,-257.2 131.5,-257.2 131.5,-235.2 8.5,-235.2"/>
<polygon fill="none" stroke="#000000" points="8.5,-235.2 8.5,-257.2 131.5,-257.2 131.5,-235.2 8.5,-235.2"/>
<text text-anchor="start" x="28.5" y="-242.3" font-family="Helvetica,sans-Serif" font-size="11.00" fill="#000000">code</text>
<polygon fill="#ffffff" stroke="transparent" points="8.5,-213.2 8.5,-235.2 131.5,-235.2 131.5,-213.2 8.5,-213.2"/>
<polygon fill="none" stroke="#000000" points="8.5,-213.2 8.5,-235.2 131.5,-235.2 131.5,-213.2 8.5,-213.2"/>
<text text-anchor="start" x="28.5" y="-220.3" font-family="Helvetica,sans-Serif" font-size="11.00" fill="#000000">list_sequence</text>
<polygon fill="#ffffff" stroke="transparent" points="8.5,-191.2 8.5,-213.2 131.5,-213.2 131.5,-191.2 8.5,-191.2"/>
<polygon fill="none" stroke="#000000" points="8.5,-191.2 8.5,-213.2 131.5,-213.2 131.5,-191.2 8.5,-191.2"/>
<text text-anchor="start" x="28.5" y="-198.3" font-family="Helvetica,sans-Serif" font-size="11.00" fill="#000000">created_at</text>
<polygon fill="#ffffff" stroke="transparent" points="8.5,-169.2 8.5,-191.2 131.5,-191.2 131.5,-169.2 8.5,-169.2"/>
<polygon fill="none" stroke="#000000" points="8.5,-169.2 8.5,-191.2 131.5,-191.2 131.5,-169.2 8.5,-169.2"/>
<text text-anchor="start" x="28.5" y="-176.3" font-family="Helvetica,sans-Serif" font-size="11.00" fill="#000000">deactivated_at</text>
<polygon fill="none" stroke="#000000" points="8.5,-150.2 8.5,-169.2 131.5,-169.2 131.5,-150.2 8.5,-150.2"/>
<text text-anchor="start" x="11.5" y="-156.3" font-family="Helvetica,sans-Serif" font-size="11.00" fill="#000000">...</text>
<polygon fill="#ffffff" stroke="transparent" points="8.5,-131.2 8.5,-150.2 44.5,-150.2 44.5,-131.2 8.5,-131.2"/>
<polygon fill="none" stroke="#000000" points="8.5,-131.2 8.5,-150.2 44.5,-150.2 44.5,-131.2 8.5,-131.2"/>
<text text-anchor="start" x="11.5" y="-137.3" font-family="Helvetica,sans-Serif" font-size="11.00" fill="#000000">&lt; 1</text>
<polygon fill="#ffffff" stroke="transparent" points="44.5,-131.2 44.5,-150.2 102.5,-150.2 102.5,-131.2 44.5,-131.2"/>
<polygon fill="none" stroke="#000000" points="44.5,-131.2 44.5,-150.2 102.5,-150.2 102.5,-131.2 44.5,-131.2"/>
<text text-anchor="start" x="54.8807" y="-137.3" font-family="Helvetica,sans-Serif" font-size="11.00" fill="#000000">213 rows</text>
<polygon fill="#ffffff" stroke="transparent" points="102.5,-131.2 102.5,-150.2 131.5,-150.2 131.5,-131.2 102.5,-131.2"/>
<polygon fill="none" stroke="#000000" points="102.5,-131.2 102.5,-150.2 131.5,-150.2 131.5,-131.2 102.5,-131.2"/>
<text text-anchor="start" x="112.9053" y="-137.3" font-family="Helvetica,sans-Serif" font-size="11.00" fill="#000000">1 &gt;</text>
</a>
</g>
</g>
<!-- alert&#45;&gt;alert_code -->
<g id="edge1" class="edge">
<title>alert:w&#45;&gt;alert_code:e</title>
<path fill="none" stroke="#000000" d="M167.776,-290.2C155.7815,-290.2 148.3229,-290.2 131.5,-290.2"/>
<polygon fill="#000000" stroke="#000000" points="174.5,-290.2001 182.5,-293.8 178.5,-290.2 182.5,-290.2 182.5,-290.2 182.5,-290.2 178.5,-290.2 182.5,-286.6 174.5,-290.2001 174.5,-290.2001"/>
<ellipse fill="none" stroke="#000000" cx="171.3" cy="-290.2001" rx="3.2" ry="3.2"/>
</g>
<!-- audit_event -->
<g id="node3" class="node">
<title>audit_event</title>
<g id="a_node3"><a xlink:href="../../tables/audit_event.html" xlink:title="audit_event" target="_top">
<polygon fill="#ffffff" stroke="transparent" points="528,-241.7 528,-412.7 727,-412.7 727,-241.7 528,-241.7"/>
<polygon fill="#f5f5f5" stroke="transparent" points="528.5,-389.2 528.5,-412.2 727.5,-412.2 727.5,-389.2 528.5,-389.2"/>
<polygon fill="none" stroke="#000000" points="528.5,-389.2 528.5,-412.2 727.5,-412.2 727.5,-389.2 528.5,-389.2"/>
<text text-anchor="start" x="533.5" y="-397.8" font-family="Helvetica,sans-Serif" font-weight="bold" font-size="11.00" fill="#000000">audit_event</text>
<text text-anchor="start" x="692.5437" y="-397.3" font-family="Helvetica,sans-Serif" font-size="11.00" fill="#000000">[table]</text>
<polygon fill="#ffffff" stroke="transparent" points="528.5,-367.2 528.5,-389.2 727.5,-389.2 727.5,-367.2 528.5,-367.2"/>
<polygon fill="none" stroke="#000000" points="528.5,-367.2 528.5,-389.2 727.5,-389.2 727.5,-367.2 528.5,-367.2"/>
<text text-anchor="start" x="548.5" y="-374.3" font-family="Helvetica,sans-Serif" font-size="11.00" fill="#000000">action</text>
<polygon fill="#ffffff" stroke="transparent" points="528.5,-345.2 528.5,-367.2 727.5,-367.2 727.5,-345.2 528.5,-345.2"/>
<polygon fill="none" stroke="#000000" points="528.5,-345.2 528.5,-367.2 727.5,-367.2 727.5,-345.2 528.5,-345.2"/>
<text text-anchor="start" x="548.5" y="-352.3" font-family="Helvetica,sans-Serif" font-size="11.00" fill="#000000">actioned_at</text>
<polygon fill="#ffffff" stroke="transparent" points="528.5,-323.2 528.5,-345.2 727.5,-345.2 727.5,-323.2 528.5,-323.2"/>
<polygon fill="none" stroke="#000000" points="528.5,-323.2 528.5,-345.2 727.5,-345.2 727.5,-323.2 528.5,-323.2"/>
<text text-anchor="start" x="548.5" y="-330.3" font-family="Helvetica,sans-Serif" font-size="11.00" fill="#000000">actioned_by</text>
<polygon fill="#ffffff" stroke="transparent" points="528.5,-301.2 528.5,-323.2 727.5,-323.2 727.5,-301.2 528.5,-301.2"/>
<polygon fill="none" stroke="#000000" points="528.5,-301.2 528.5,-323.2 727.5,-323.2 727.5,-301.2 528.5,-301.2"/>
<image xlink:href="../../images/foreignKeys.png" width="11px" height="12px" preserveAspectRatio="xMinYMin meet" x="533.5" y="-318.2"/>
<text text-anchor="start" x="548.5" y="-308.3" font-family="Helvetica,sans-Serif" font-size="11.00" fill="#000000">alert_id</text>
<polygon fill="none" stroke="#000000" points="528.5,-279.2 528.5,-301.2 727.5,-301.2 727.5,-279.2 528.5,-279.2"/>
<image xlink:href="../../images/primaryKeys.png" width="11px" height="12px" preserveAspectRatio="xMinYMin meet" x="533.5" y="-296.2"/>
<text text-anchor="start" x="548.5" y="-286.3" font-family="Helvetica,sans-Serif" font-size="11.00" fill="#000000">id</text>
<polygon fill="none" stroke="#000000" points="528.5,-260.2 528.5,-279.2 727.5,-279.2 727.5,-260.2 528.5,-260.2"/>
<text text-anchor="start" x="531.5" y="-266.3" font-family="Helvetica,sans-Serif" font-size="11.00" fill="#000000">...</text>
<polygon fill="#ffffff" stroke="transparent" points="528.5,-241.2 528.5,-260.2 626.5,-260.2 626.5,-241.2 528.5,-241.2"/>
<polygon fill="none" stroke="#000000" points="528.5,-241.2 528.5,-260.2 626.5,-260.2 626.5,-241.2 528.5,-241.2"/>
<text text-anchor="start" x="531.5" y="-247.3" font-family="Helvetica,sans-Serif" font-size="11.00" fill="#000000">&lt; 1</text>
<polygon fill="#ffffff" stroke="transparent" points="626.5,-241.2 626.5,-260.2 676.5,-260.2 676.5,-241.2 626.5,-241.2"/>
<polygon fill="none" stroke="#000000" points="626.5,-241.2 626.5,-260.2 676.5,-260.2 676.5,-241.2 626.5,-241.2"/>
<text text-anchor="start" x="667.3862" y="-247.3" font-family="Helvetica,sans-Serif" font-size="11.00" fill="#000000"> &#160;</text>
<polygon fill="#ffffff" stroke="transparent" points="676.5,-241.2 676.5,-260.2 727.5,-260.2 727.5,-241.2 676.5,-241.2"/>
<polygon fill="none" stroke="#000000" points="676.5,-241.2 676.5,-260.2 727.5,-260.2 727.5,-241.2 676.5,-241.2"/>
<text text-anchor="start" x="718.3862" y="-247.3" font-family="Helvetica,sans-Serif" font-size="11.00" fill="#000000"> &#160;</text>
</a>
</g>
</g>
<!-- audit_event&#45;&gt;alert -->
<g id="edge2" class="edge">
<title>audit_event:w&#45;&gt;alert:e</title>
<path fill="none" stroke="#000000" d="M513.776,-312.2C501.7815,-312.2 494.3229,-312.2 477.5,-312.2"/>
<polygon fill="#000000" stroke="#000000" points="520.5,-312.2001 528.5,-315.8 524.5,-312.2 528.5,-312.2 528.5,-312.2 528.5,-312.2 524.5,-312.2 528.5,-308.6 520.5,-312.2001 520.5,-312.2001"/>
<ellipse fill="none" stroke="#000000" cx="517.3" cy="-312.2001" rx="3.2" ry="3.2"/>
</g>
</g>
</svg>
