<?xml version="1.0" encoding="UTF-8" standalone="no"?>
<!DOCTYPE svg PUBLIC "-//W3C//DTD SVG 1.1//EN"
 "http://www.w3.org/Graphics/SVG/1.1/DTD/svg11.dtd">
<!-- Generated by graphviz version 2.40.1 (20161225.0304)
 -->
<!-- Title: twoDegreesRelationshipsDiagramImplied Pages: 1 -->
<svg width="957pt" height="589pt"
 viewBox="0.00 0.00 957.00 589.20" xmlns="http://www.w3.org/2000/svg" xmlns:xlink="http://www.w3.org/1999/xlink">
<g id="graph0" class="graph" transform="scale(1 1) rotate(0) translate(4 585.2)">
<title>twoDegreesRelationshipsDiagramImplied</title>
<polygon fill="#ffffff" stroke="transparent" points="-4,4 -4,-585.2 953,-585.2 953,4 -4,4"/>
<text text-anchor="middle" x="72.4936" y="-7.3" font-family="Helvetica,sans-Serif" font-size="11.00" fill="#000000">Generated by SchemaSpy</text>
<!-- alert -->
<g id="node1" class="node">
<title>alert</title>
<g id="a_node1"><a xlink:href="../../tables/alert.html" xlink:title="alert" target="_top">
<polygon fill="#ffffff" stroke="transparent" points="394,-202.7 394,-512.7 693,-512.7 693,-202.7 394,-202.7"/>
<polygon fill="#f5f5f5" stroke="transparent" points="396.5,-487.7 396.5,-510.7 691.5,-510.7 691.5,-487.7 396.5,-487.7"/>
<polygon fill="none" stroke="#000000" points="396.5,-487.7 396.5,-510.7 691.5,-510.7 691.5,-487.7 396.5,-487.7"/>
<text text-anchor="start" x="401.5" y="-496.3" font-family="Helvetica,sans-Serif" font-weight="bold" font-size="11.00" fill="#000000">alert</text>
<text text-anchor="start" x="656.5437" y="-495.8" font-family="Helvetica,sans-Serif" font-size="11.00" fill="#000000">[table]</text>
<polygon fill="none" stroke="#000000" points="396.5,-465.7 396.5,-487.7 597.5,-487.7 597.5,-465.7 396.5,-465.7"/>
<image xlink:href="../../images/primaryKeys.png" width="11px" height="12px" preserveAspectRatio="xMinYMin meet" x="401.5" y="-482.7"/>
<text text-anchor="start" x="416.5" y="-472.8" font-family="Helvetica,sans-Serif" font-size="11.00" fill="#000000">id</text>
<polygon fill="none" stroke="#000000" points="597.5,-465.7 597.5,-487.7 691.5,-487.7 691.5,-465.7 597.5,-465.7"/>
<text text-anchor="start" x="600.4758" y="-473.4" font-family="Helvetica,sans-Serif" font-size="11.00" fill="#000000">uuid[2147483647]</text>
<polygon fill="#ffffff" stroke="transparent" points="396.5,-443.7 396.5,-465.7 597.5,-465.7 597.5,-443.7 396.5,-443.7"/>
<polygon fill="none" stroke="#000000" points="396.5,-443.7 396.5,-465.7 597.5,-465.7 597.5,-443.7 396.5,-443.7"/>
<image xlink:href="../../images/foreignKeys.png" width="11px" height="12px" preserveAspectRatio="xMinYMin meet" x="401.5" y="-460.7"/>
<text text-anchor="start" x="416.5" y="-450.8" font-family="Helvetica,sans-Serif" font-size="11.00" fill="#000000">alert_code_id</text>
<polygon fill="none" stroke="#000000" points="597.5,-443.7 597.5,-465.7 691.5,-465.7 691.5,-443.7 597.5,-443.7"/>
<text text-anchor="start" x="600.5" y="-451.4" font-family="Helvetica,sans-Serif" font-size="11.00" fill="#000000">int8[19]</text>
<polygon fill="#ffffff" stroke="transparent" points="396.5,-421.7 396.5,-443.7 597.5,-443.7 597.5,-421.7 396.5,-421.7"/>
<polygon fill="none" stroke="#000000" points="396.5,-421.7 396.5,-443.7 597.5,-443.7 597.5,-421.7 396.5,-421.7"/>
<image xlink:href="../../images/foreignKeys.png" width="11px" height="12px" preserveAspectRatio="xMinYMin meet" x="401.5" y="-438.7"/>
<text text-anchor="start" x="416.5" y="-428.8" font-family="Helvetica,sans-Serif" font-size="11.00" fill="#000000">prison_number</text>
<polygon fill="none" stroke="#000000" points="597.5,-421.7 597.5,-443.7 691.5,-443.7 691.5,-421.7 597.5,-421.7"/>
<text text-anchor="start" x="600.5" y="-429.4" font-family="Helvetica,sans-Serif" font-size="11.00" fill="#000000">varchar[10]</text>
<polygon fill="none" stroke="#000000" points="396.5,-399.7 396.5,-421.7 597.5,-421.7 597.5,-399.7 396.5,-399.7"/>
<text text-anchor="start" x="416.5" y="-406.8" font-family="Helvetica,sans-Serif" font-size="11.00" fill="#000000">description</text>
<polygon fill="none" stroke="#000000" points="597.5,-399.7 597.5,-421.7 691.5,-421.7 691.5,-399.7 597.5,-399.7"/>
<text text-anchor="start" x="600.5" y="-407.4" font-family="Helvetica,sans-Serif" font-size="11.00" fill="#000000">text[2147483647]</text>
<polygon fill="none" stroke="#000000" points="396.5,-377.7 396.5,-399.7 597.5,-399.7 597.5,-377.7 396.5,-377.7"/>
<text text-anchor="start" x="416.5" y="-384.8" font-family="Helvetica,sans-Serif" font-size="11.00" fill="#000000">authorised_by</text>
<polygon fill="none" stroke="#000000" points="597.5,-377.7 597.5,-399.7 691.5,-399.7 691.5,-377.7 597.5,-377.7"/>
<text text-anchor="start" x="600.5" y="-385.4" font-family="Helvetica,sans-Serif" font-size="11.00" fill="#000000">varchar[40]</text>
<polygon fill="#ffffff" stroke="transparent" points="396.5,-355.7 396.5,-377.7 597.5,-377.7 597.5,-355.7 396.5,-355.7"/>
<polygon fill="none" stroke="#000000" points="396.5,-355.7 396.5,-377.7 597.5,-377.7 597.5,-355.7 396.5,-355.7"/>
<text text-anchor="start" x="416.5" y="-362.8" font-family="Helvetica,sans-Serif" font-size="11.00" fill="#000000">active_from</text>
<polygon fill="none" stroke="#000000" points="597.5,-355.7 597.5,-377.7 691.5,-377.7 691.5,-355.7 597.5,-355.7"/>
<text text-anchor="start" x="600.5" y="-363.4" font-family="Helvetica,sans-Serif" font-size="11.00" fill="#000000">date[13]</text>
<polygon fill="#ffffff" stroke="transparent" points="396.5,-333.7 396.5,-355.7 597.5,-355.7 597.5,-333.7 396.5,-333.7"/>
<polygon fill="none" stroke="#000000" points="396.5,-333.7 396.5,-355.7 597.5,-355.7 597.5,-333.7 396.5,-333.7"/>
<text text-anchor="start" x="416.5" y="-340.8" font-family="Helvetica,sans-Serif" font-size="11.00" fill="#000000">active_to</text>
<polygon fill="none" stroke="#000000" points="597.5,-333.7 597.5,-355.7 691.5,-355.7 691.5,-333.7 597.5,-333.7"/>
<text text-anchor="start" x="600.5" y="-341.4" font-family="Helvetica,sans-Serif" font-size="11.00" fill="#000000">date[13]</text>
<polygon fill="#ffffff" stroke="transparent" points="396.5,-311.7 396.5,-333.7 597.5,-333.7 597.5,-311.7 396.5,-311.7"/>
<polygon fill="none" stroke="#000000" points="396.5,-311.7 396.5,-333.7 597.5,-333.7 597.5,-311.7 396.5,-311.7"/>
<text text-anchor="start" x="416.5" y="-318.8" font-family="Helvetica,sans-Serif" font-size="11.00" fill="#000000">deleted_at</text>
<polygon fill="none" stroke="#000000" points="597.5,-311.7 597.5,-333.7 691.5,-333.7 691.5,-311.7 597.5,-311.7"/>
<text text-anchor="start" x="600.5" y="-319.4" font-family="Helvetica,sans-Serif" font-size="11.00" fill="#000000">timestamp[29,6]</text>
<polygon fill="#ffffff" stroke="transparent" points="396.5,-289.7 396.5,-311.7 597.5,-311.7 597.5,-289.7 396.5,-289.7"/>
<polygon fill="none" stroke="#000000" points="396.5,-289.7 396.5,-311.7 597.5,-311.7 597.5,-289.7 396.5,-289.7"/>
<text text-anchor="start" x="416.5" y="-296.8" font-family="Helvetica,sans-Serif" font-size="11.00" fill="#000000">created_at</text>
<polygon fill="none" stroke="#000000" points="597.5,-289.7 597.5,-311.7 691.5,-311.7 691.5,-289.7 597.5,-289.7"/>
<text text-anchor="start" x="600.5" y="-297.4" font-family="Helvetica,sans-Serif" font-size="11.00" fill="#000000">timestamp[29,6]</text>
<polygon fill="#ffffff" stroke="transparent" points="396.5,-267.7 396.5,-289.7 597.5,-289.7 597.5,-267.7 396.5,-267.7"/>
<polygon fill="none" stroke="#000000" points="396.5,-267.7 396.5,-289.7 597.5,-289.7 597.5,-267.7 396.5,-267.7"/>
<text text-anchor="start" x="416.5" y="-274.8" font-family="Helvetica,sans-Serif" font-size="11.00" fill="#000000">last_modified_at</text>
<polygon fill="none" stroke="#000000" points="597.5,-267.7 597.5,-289.7 691.5,-289.7 691.5,-267.7 597.5,-267.7"/>
<text text-anchor="start" x="600.5" y="-275.4" font-family="Helvetica,sans-Serif" font-size="11.00" fill="#000000">timestamp[29,6]</text>
<polygon fill="none" stroke="#000000" points="396.5,-245.7 396.5,-267.7 597.5,-267.7 597.5,-245.7 396.5,-245.7"/>
<text text-anchor="start" x="416.5" y="-252.8" font-family="Helvetica,sans-Serif" font-size="11.00" fill="#000000">prison_code_when_created</text>
<polygon fill="none" stroke="#000000" points="597.5,-245.7 597.5,-267.7 691.5,-267.7 691.5,-245.7 597.5,-245.7"/>
<text text-anchor="start" x="600.5" y="-253.4" font-family="Helvetica,sans-Serif" font-size="11.00" fill="#000000">varchar[6]</text>
<polygon fill="none" stroke="#000000" points="396.5,-223.7 396.5,-245.7 597.5,-245.7 597.5,-223.7 396.5,-223.7"/>
<text text-anchor="start" x="416.5" y="-230.8" font-family="Helvetica,sans-Serif" font-size="11.00" fill="#000000">version</text>
<polygon fill="none" stroke="#000000" points="597.5,-223.7 597.5,-245.7 691.5,-245.7 691.5,-223.7 597.5,-223.7"/>
<text text-anchor="start" x="600.5" y="-231.4" font-family="Helvetica,sans-Serif" font-size="11.00" fill="#000000">int4[10]</text>
<polygon fill="#ffffff" stroke="transparent" points="396.5,-204.7 396.5,-223.7 501.5,-223.7 501.5,-204.7 396.5,-204.7"/>
<polygon fill="none" stroke="#000000" points="396.5,-204.7 396.5,-223.7 501.5,-223.7 501.5,-204.7 396.5,-204.7"/>
<text text-anchor="start" x="399.5" y="-210.8" font-family="Helvetica,sans-Serif" font-size="11.00" fill="#000000">&lt; 2</text>
<polygon fill="#ffffff" stroke="transparent" points="501.5,-204.7 501.5,-223.7 597.5,-223.7 597.5,-204.7 501.5,-204.7"/>
<polygon fill="none" stroke="#000000" points="501.5,-204.7 501.5,-223.7 597.5,-223.7 597.5,-204.7 501.5,-204.7"/>
<text text-anchor="start" x="588.3862" y="-210.8" font-family="Helvetica,sans-Serif" font-size="11.00" fill="#000000"> &#160;</text>
<polygon fill="#ffffff" stroke="transparent" points="597.5,-204.7 597.5,-223.7 691.5,-223.7 691.5,-204.7 597.5,-204.7"/>
<polygon fill="none" stroke="#000000" points="597.5,-204.7 597.5,-223.7 691.5,-223.7 691.5,-204.7 597.5,-204.7"/>
<text text-anchor="start" x="672.9053" y="-210.8" font-family="Helvetica,sans-Serif" font-size="11.00" fill="#000000">1 &gt;</text>
<polygon fill="none" stroke="#000000" stroke-width="2" points="395,-203.7 395,-511.7 692,-511.7 692,-203.7 395,-203.7"/>
</a>
</g>
</g>
<!-- alert_code -->
<g id="node2" class="node">
<title>alert_code</title>
<g id="a_node2"><a xlink:href="../../tables/alert_code.html" xlink:title="alert_code" target="_top">
<polygon fill="#ffffff" stroke="transparent" points="193,-296.2 193,-489.2 316,-489.2 316,-296.2 193,-296.2"/>
<polygon fill="#f5f5f5" stroke="transparent" points="193.5,-465.7 193.5,-488.7 316.5,-488.7 316.5,-465.7 193.5,-465.7"/>
<polygon fill="none" stroke="#000000" points="193.5,-465.7 193.5,-488.7 316.5,-488.7 316.5,-465.7 193.5,-465.7"/>
<text text-anchor="start" x="198.5" y="-474.3" font-family="Helvetica,sans-Serif" font-weight="bold" font-size="11.00" fill="#000000">alert_code</text>
<text text-anchor="start" x="281.5437" y="-473.8" font-family="Helvetica,sans-Serif" font-size="11.00" fill="#000000">[table]</text>
<polygon fill="none" stroke="#000000" points="193.5,-443.7 193.5,-465.7 316.5,-465.7 316.5,-443.7 193.5,-443.7"/>
<image xlink:href="../../images/primaryKeys.png" width="11px" height="12px" preserveAspectRatio="xMinYMin meet" x="198.5" y="-460.7"/>
<text text-anchor="start" x="213.5" y="-450.8" font-family="Helvetica,sans-Serif" font-size="11.00" fill="#000000">alert_code_id</text>
<polygon fill="#ffffff" stroke="transparent" points="193.5,-421.7 193.5,-443.7 316.5,-443.7 316.5,-421.7 193.5,-421.7"/>
<polygon fill="none" stroke="#000000" points="193.5,-421.7 193.5,-443.7 316.5,-443.7 316.5,-421.7 193.5,-421.7"/>
<image xlink:href="../../images/foreignKeys.png" width="11px" height="12px" preserveAspectRatio="xMinYMin meet" x="198.5" y="-438.7"/>
<text text-anchor="start" x="213.5" y="-428.8" font-family="Helvetica,sans-Serif" font-size="11.00" fill="#000000">alert_type_id</text>
<polygon fill="#ffffff" stroke="transparent" points="193.5,-399.7 193.5,-421.7 316.5,-421.7 316.5,-399.7 193.5,-399.7"/>
<polygon fill="none" stroke="#000000" points="193.5,-399.7 193.5,-421.7 316.5,-421.7 316.5,-399.7 193.5,-399.7"/>
<text text-anchor="start" x="213.5" y="-406.8" font-family="Helvetica,sans-Serif" font-size="11.00" fill="#000000">code</text>
<polygon fill="#ffffff" stroke="transparent" points="193.5,-377.7 193.5,-399.7 316.5,-399.7 316.5,-377.7 193.5,-377.7"/>
<polygon fill="none" stroke="#000000" points="193.5,-377.7 193.5,-399.7 316.5,-399.7 316.5,-377.7 193.5,-377.7"/>
<text text-anchor="start" x="213.5" y="-384.8" font-family="Helvetica,sans-Serif" font-size="11.00" fill="#000000">list_sequence</text>
<polygon fill="#ffffff" stroke="transparent" points="193.5,-355.7 193.5,-377.7 316.5,-377.7 316.5,-355.7 193.5,-355.7"/>
<polygon fill="none" stroke="#000000" points="193.5,-355.7 193.5,-377.7 316.5,-377.7 316.5,-355.7 193.5,-355.7"/>
<text text-anchor="start" x="213.5" y="-362.8" font-family="Helvetica,sans-Serif" font-size="11.00" fill="#000000">created_at</text>
<polygon fill="#ffffff" stroke="transparent" points="193.5,-333.7 193.5,-355.7 316.5,-355.7 316.5,-333.7 193.5,-333.7"/>
<polygon fill="none" stroke="#000000" points="193.5,-333.7 193.5,-355.7 316.5,-355.7 316.5,-333.7 193.5,-333.7"/>
<text text-anchor="start" x="213.5" y="-340.8" font-family="Helvetica,sans-Serif" font-size="11.00" fill="#000000">deactivated_at</text>
<polygon fill="none" stroke="#000000" points="193.5,-314.7 193.5,-333.7 316.5,-333.7 316.5,-314.7 193.5,-314.7"/>
<text text-anchor="start" x="196.5" y="-320.8" font-family="Helvetica,sans-Serif" font-size="11.00" fill="#000000">...</text>
<polygon fill="#ffffff" stroke="transparent" points="193.5,-295.7 193.5,-314.7 229.5,-314.7 229.5,-295.7 193.5,-295.7"/>
<polygon fill="none" stroke="#000000" points="193.5,-295.7 193.5,-314.7 229.5,-314.7 229.5,-295.7 193.5,-295.7"/>
<text text-anchor="start" x="196.5" y="-301.8" font-family="Helvetica,sans-Serif" font-size="11.00" fill="#000000">&lt; 1</text>
<polygon fill="#ffffff" stroke="transparent" points="229.5,-295.7 229.5,-314.7 287.5,-314.7 287.5,-295.7 229.5,-295.7"/>
<polygon fill="none" stroke="#000000" points="229.5,-295.7 229.5,-314.7 287.5,-314.7 287.5,-295.7 229.5,-295.7"/>
<text text-anchor="start" x="239.8807" y="-301.8" font-family="Helvetica,sans-Serif" font-size="11.00" fill="#000000">213 rows</text>
<polygon fill="#ffffff" stroke="transparent" points="287.5,-295.7 287.5,-314.7 316.5,-314.7 316.5,-295.7 287.5,-295.7"/>
<polygon fill="none" stroke="#000000" points="287.5,-295.7 287.5,-314.7 316.5,-314.7 316.5,-295.7 287.5,-295.7"/>
<text text-anchor="start" x="297.9053" y="-301.8" font-family="Helvetica,sans-Serif" font-size="11.00" fill="#000000">1 &gt;</text>
</a>
</g>
</g>
<!-- alert&#45;&gt;alert_code -->
<g id="edge1" class="edge">
<title>alert:w&#45;&gt;alert_code:e</title>
<path fill="none" stroke="#000000" d="M381.9181,-454.7C357.6172,-454.7 346.6389,-454.7 316.5,-454.7"/>
<polygon fill="#000000" stroke="#000000" points="388.5,-454.7001 396.5,-458.3 392.5,-454.7 396.5,-454.7 396.5,-454.7 396.5,-454.7 392.5,-454.7 396.5,-451.1 388.5,-454.7001 388.5,-454.7001"/>
<ellipse fill="none" stroke="#000000" cx="385.3" cy="-454.7001" rx="3.2" ry="3.2"/>
</g>
<!-- person_summary -->
<g id="node3" class="node">
<title>person_summary</title>
<g id="a_node3"><a xlink:href="../../tables/person_summary.html" xlink:title="person_summary" target="_top">
<polygon fill="#ffffff" stroke="transparent" points="164,-99.2 164,-182.2 345,-182.2 345,-99.2 164,-99.2"/>
<polygon fill="#f5f5f5" stroke="transparent" points="164.5,-158.7 164.5,-181.7 345.5,-181.7 345.5,-158.7 164.5,-158.7"/>
<polygon fill="none" stroke="#000000" points="164.5,-158.7 164.5,-181.7 345.5,-181.7 345.5,-158.7 164.5,-158.7"/>
<text text-anchor="start" x="169.5" y="-167.3" font-family="Helvetica,sans-Serif" font-weight="bold" font-size="11.00" fill="#000000">person_summary</text>
<text text-anchor="start" x="310.5437" y="-166.8" font-family="Helvetica,sans-Serif" font-size="11.00" fill="#000000">[table]</text>
<polygon fill="none" stroke="#000000" points="164.5,-136.7 164.5,-158.7 345.5,-158.7 345.5,-136.7 164.5,-136.7"/>
<image xlink:href="../../images/primaryKeys.png" width="11px" height="12px" preserveAspectRatio="xMinYMin meet" x="169.5" y="-153.7"/>
<text text-anchor="start" x="184.5" y="-143.8" font-family="Helvetica,sans-Serif" font-size="11.00" fill="#000000">prison_number</text>
<polygon fill="none" stroke="#000000" points="164.5,-117.7 164.5,-136.7 345.5,-136.7 345.5,-117.7 164.5,-117.7"/>
<text text-anchor="start" x="167.5" y="-123.8" font-family="Helvetica,sans-Serif" font-size="11.00" fill="#000000">...</text>
<polygon fill="#ffffff" stroke="transparent" points="164.5,-98.7 164.5,-117.7 244.5,-117.7 244.5,-98.7 164.5,-98.7"/>
<polygon fill="none" stroke="#000000" points="164.5,-98.7 164.5,-117.7 244.5,-117.7 244.5,-98.7 164.5,-98.7"/>
<text text-anchor="start" x="167.5" y="-104.8" font-family="Helvetica,sans-Serif" font-size="11.00" fill="#000000"> &#160;</text>
<polygon fill="#ffffff" stroke="transparent" points="244.5,-98.7 244.5,-117.7 290.5,-117.7 290.5,-98.7 244.5,-98.7"/>
<polygon fill="none" stroke="#000000" points="244.5,-98.7 244.5,-117.7 290.5,-117.7 290.5,-98.7 244.5,-98.7"/>
<text text-anchor="start" x="281.3862" y="-104.8" font-family="Helvetica,sans-Serif" font-size="11.00" fill="#000000"> &#160;</text>
<polygon fill="#ffffff" stroke="transparent" points="290.5,-98.7 290.5,-117.7 345.5,-117.7 345.5,-98.7 290.5,-98.7"/>
<polygon fill="none" stroke="#000000" points="290.5,-98.7 290.5,-117.7 345.5,-117.7 345.5,-98.7 290.5,-98.7"/>
<text text-anchor="start" x="326.9053" y="-104.8" font-family="Helvetica,sans-Serif" font-size="11.00" fill="#000000">3 &gt;</text>
</a>
</g>
</g>
<!-- alert&#45;&gt;person_summary -->
<g id="edge2" class="edge">
<title>alert:w&#45;&gt;person_summary:e</title>
<path fill="none" stroke="#000000" stroke-dasharray="5,2" d="M383.1264,-427.007C344.2065,-386.8391 404.4359,-147.7 345.5,-147.7"/>
<polygon fill="#000000" stroke="#000000" points="389.1392,-429.5666 395.09,-436.0124 392.8196,-431.1333 396.5,-432.7 396.5,-432.7 396.5,-432.7 392.8196,-431.1333 397.91,-429.3876 389.1392,-429.5666 389.1392,-429.5666"/>
<ellipse fill="none" stroke="#000000" cx="386.1948" cy="-428.3132" rx="3.2" ry="3.2"/>
</g>
<!-- alert_type -->
<g id="node4" class="node">
<title>alert_type</title>
<g id="a_node4"><a xlink:href="../../tables/alert_type.html" xlink:title="alert_type" target="_top">
<polygon fill="#ffffff" stroke="transparent" points="8,-405.2 8,-466.2 115,-466.2 115,-405.2 8,-405.2"/>
<polygon fill="#f5f5f5" stroke="transparent" points="8.5,-442.7 8.5,-465.7 115.5,-465.7 115.5,-442.7 8.5,-442.7"/>
<polygon fill="none" stroke="#000000" points="8.5,-442.7 8.5,-465.7 115.5,-465.7 115.5,-442.7 8.5,-442.7"/>
<text text-anchor="start" x="13.5" y="-451.3" font-family="Helvetica,sans-Serif" font-weight="bold" font-size="11.00" fill="#000000">alert_type</text>
<text text-anchor="start" x="81.0219" y="-450.8" font-family="Helvetica,sans-Serif" font-size="11.00" fill="#000000">[table]</text>
<polygon fill="none" stroke="#000000" points="8.5,-423.7 8.5,-442.7 115.5,-442.7 115.5,-423.7 8.5,-423.7"/>
<text text-anchor="start" x="11.5" y="-429.8" font-family="Helvetica,sans-Serif" font-size="11.00" fill="#000000">...</text>
<polygon fill="#ffffff" stroke="transparent" points="8.5,-404.7 8.5,-423.7 51.5,-423.7 51.5,-404.7 8.5,-404.7"/>
<polygon fill="none" stroke="#000000" points="8.5,-404.7 8.5,-423.7 51.5,-423.7 51.5,-404.7 8.5,-404.7"/>
<text text-anchor="start" x="11.5" y="-410.8" font-family="Helvetica,sans-Serif" font-size="11.00" fill="#000000"> &#160;</text>
<polygon fill="#ffffff" stroke="transparent" points="51.5,-404.7 51.5,-423.7 78.5,-423.7 78.5,-404.7 51.5,-404.7"/>
<polygon fill="none" stroke="#000000" points="51.5,-404.7 51.5,-423.7 78.5,-423.7 78.5,-404.7 51.5,-404.7"/>
<text text-anchor="start" x="69.3862" y="-410.8" font-family="Helvetica,sans-Serif" font-size="11.00" fill="#000000"> &#160;</text>
<polygon fill="#ffffff" stroke="transparent" points="78.5,-404.7 78.5,-423.7 115.5,-423.7 115.5,-404.7 78.5,-404.7"/>
<polygon fill="none" stroke="#000000" points="78.5,-404.7 78.5,-423.7 115.5,-423.7 115.5,-404.7 78.5,-404.7"/>
<text text-anchor="start" x="96.9053" y="-410.8" font-family="Helvetica,sans-Serif" font-size="11.00" fill="#000000">1 &gt;</text>
</a>
</g>
</g>
<!-- alert_code&#45;&gt;alert_type -->
<g id="edge3" class="edge">
<title>alert_code:w&#45;&gt;alert_type:e</title>
<path fill="none" stroke="#000000" d="M178.9559,-432.7C155.4902,-432.7 144.75,-432.7 115.5,-432.7"/>
<polygon fill="#000000" stroke="#000000" points="185.5,-432.7001 193.5,-436.3 189.5,-432.7 193.5,-432.7 193.5,-432.7 193.5,-432.7 189.5,-432.7 193.5,-429.1 185.5,-432.7001 185.5,-432.7001"/>
<ellipse fill="none" stroke="#000000" cx="182.3" cy="-432.7001" rx="3.2" ry="3.2"/>
</g>
<!-- audit_event -->
<g id="node5" class="node">
<title>audit_event</title>
<g id="a_node5"><a xlink:href="../../tables/audit_event.html" xlink:title="audit_event" target="_top">
<polygon fill="#ffffff" stroke="transparent" points="742,-406.2 742,-577.2 941,-577.2 941,-406.2 742,-406.2"/>
<polygon fill="#f5f5f5" stroke="transparent" points="742.5,-553.7 742.5,-576.7 941.5,-576.7 941.5,-553.7 742.5,-553.7"/>
<polygon fill="none" stroke="#000000" points="742.5,-553.7 742.5,-576.7 941.5,-576.7 941.5,-553.7 742.5,-553.7"/>
<text text-anchor="start" x="747.5" y="-562.3" font-family="Helvetica,sans-Serif" font-weight="bold" font-size="11.00" fill="#000000">audit_event</text>
<text text-anchor="start" x="906.5437" y="-561.8" font-family="Helvetica,sans-Serif" font-size="11.00" fill="#000000">[table]</text>
<polygon fill="#ffffff" stroke="transparent" points="742.5,-531.7 742.5,-553.7 941.5,-553.7 941.5,-531.7 742.5,-531.7"/>
<polygon fill="none" stroke="#000000" points="742.5,-531.7 742.5,-553.7 941.5,-553.7 941.5,-531.7 742.5,-531.7"/>
<text text-anchor="start" x="762.5" y="-538.8" font-family="Helvetica,sans-Serif" font-size="11.00" fill="#000000">action</text>
<polygon fill="#ffffff" stroke="transparent" points="742.5,-509.7 742.5,-531.7 941.5,-531.7 941.5,-509.7 742.5,-509.7"/>
<polygon fill="none" stroke="#000000" points="742.5,-509.7 742.5,-531.7 941.5,-531.7 941.5,-509.7 742.5,-509.7"/>
<text text-anchor="start" x="762.5" y="-516.8" font-family="Helvetica,sans-Serif" font-size="11.00" fill="#000000">actioned_at</text>
<polygon fill="#ffffff" stroke="transparent" points="742.5,-487.7 742.5,-509.7 941.5,-509.7 941.5,-487.7 742.5,-487.7"/>
<polygon fill="none" stroke="#000000" points="742.5,-487.7 742.5,-509.7 941.5,-509.7 941.5,-487.7 742.5,-487.7"/>
<text text-anchor="start" x="762.5" y="-494.8" font-family="Helvetica,sans-Serif" font-size="11.00" fill="#000000">actioned_by</text>
<polygon fill="#ffffff" stroke="transparent" points="742.5,-465.7 742.5,-487.7 941.5,-487.7 941.5,-465.7 742.5,-465.7"/>
<polygon fill="none" stroke="#000000" points="742.5,-465.7 742.5,-487.7 941.5,-487.7 941.5,-465.7 742.5,-465.7"/>
<image xlink:href="../../images/foreignKeys.png" width="11px" height="12px" preserveAspectRatio="xMinYMin meet" x="747.5" y="-482.7"/>
<text text-anchor="start" x="762.5" y="-472.8" font-family="Helvetica,sans-Serif" font-size="11.00" fill="#000000">alert_id</text>
<polygon fill="none" stroke="#000000" points="742.5,-443.7 742.5,-465.7 941.5,-465.7 941.5,-443.7 742.5,-443.7"/>
<image xlink:href="../../images/primaryKeys.png" width="11px" height="12px" preserveAspectRatio="xMinYMin meet" x="747.5" y="-460.7"/>
<text text-anchor="start" x="762.5" y="-450.8" font-family="Helvetica,sans-Serif" font-size="11.00" fill="#000000">id</text>
<polygon fill="none" stroke="#000000" points="742.5,-424.7 742.5,-443.7 941.5,-443.7 941.5,-424.7 742.5,-424.7"/>
<text text-anchor="start" x="745.5" y="-430.8" font-family="Helvetica,sans-Serif" font-size="11.00" fill="#000000">...</text>
<polygon fill="#ffffff" stroke="transparent" points="742.5,-405.7 742.5,-424.7 840.5,-424.7 840.5,-405.7 742.5,-405.7"/>
<polygon fill="none" stroke="#000000" points="742.5,-405.7 742.5,-424.7 840.5,-424.7 840.5,-405.7 742.5,-405.7"/>
<text text-anchor="start" x="745.5" y="-411.8" font-family="Helvetica,sans-Serif" font-size="11.00" fill="#000000">&lt; 1</text>
<polygon fill="#ffffff" stroke="transparent" points="840.5,-405.7 840.5,-424.7 890.5,-424.7 890.5,-405.7 840.5,-405.7"/>
<polygon fill="none" stroke="#000000" points="840.5,-405.7 840.5,-424.7 890.5,-424.7 890.5,-405.7 840.5,-405.7"/>
<text text-anchor="start" x="881.3862" y="-411.8" font-family="Helvetica,sans-Serif" font-size="11.00" fill="#000000"> &#160;</text>
<polygon fill="#ffffff" stroke="transparent" points="890.5,-405.7 890.5,-424.7 941.5,-424.7 941.5,-405.7 890.5,-405.7"/>
<polygon fill="none" stroke="#000000" points="890.5,-405.7 890.5,-424.7 941.5,-424.7 941.5,-405.7 890.5,-405.7"/>
<text text-anchor="start" x="932.3862" y="-411.8" font-family="Helvetica,sans-Serif" font-size="11.00" fill="#000000"> &#160;</text>
</a>
</g>
</g>
<!-- audit_event&#45;&gt;alert -->
<g id="edge4" class="edge">
<title>audit_event:w&#45;&gt;alert:e</title>
<path fill="none" stroke="#000000" d="M727.776,-476.7C715.7815,-476.7 708.3229,-476.7 691.5,-476.7"/>
<polygon fill="#000000" stroke="#000000" points="734.5,-476.7001 742.5,-480.3 738.5,-476.7 742.5,-476.7 742.5,-476.7 742.5,-476.7 738.5,-476.7 742.5,-473.1 734.5,-476.7001 734.5,-476.7001"/>
<ellipse fill="none" stroke="#000000" cx="731.3" cy="-476.7001" rx="3.2" ry="3.2"/>
</g>
<!-- plan_person -->
<g id="node6" class="node">
<title>plan_person</title>
<g id="a_node6"><a xlink:href="../../tables/plan_person.html" xlink:title="plan_person" target="_top">
<polygon fill="#ffffff" stroke="transparent" points="483.5,-120.2 483.5,-181.2 603.5,-181.2 603.5,-120.2 483.5,-120.2"/>
<polygon fill="#f5f5f5" stroke="transparent" points="483.5,-157.7 483.5,-180.7 603.5,-180.7 603.5,-157.7 483.5,-157.7"/>
<polygon fill="none" stroke="#000000" points="483.5,-157.7 483.5,-180.7 603.5,-180.7 603.5,-157.7 483.5,-157.7"/>
<text text-anchor="start" x="488.5" y="-166.3" font-family="Helvetica,sans-Serif" font-weight="bold" font-size="11.00" fill="#000000">plan_person</text>
<text text-anchor="start" x="569.0219" y="-165.8" font-family="Helvetica,sans-Serif" font-size="11.00" fill="#000000">[table]</text>
<polygon fill="none" stroke="#000000" points="483.5,-138.7 483.5,-157.7 603.5,-157.7 603.5,-138.7 483.5,-138.7"/>
<text text-anchor="start" x="486.5" y="-144.8" font-family="Helvetica,sans-Serif" font-size="11.00" fill="#000000">...</text>
<polygon fill="#ffffff" stroke="transparent" points="483.5,-119.7 483.5,-138.7 541.5,-138.7 541.5,-119.7 483.5,-119.7"/>
<polygon fill="none" stroke="#000000" points="483.5,-119.7 483.5,-138.7 541.5,-138.7 541.5,-119.7 483.5,-119.7"/>
<text text-anchor="start" x="486.5" y="-125.8" font-family="Helvetica,sans-Serif" font-size="11.00" fill="#000000">&lt; 2</text>
<polygon fill="#ffffff" stroke="transparent" points="541.5,-119.7 541.5,-138.7 572.5,-138.7 572.5,-119.7 541.5,-119.7"/>
<polygon fill="none" stroke="#000000" points="541.5,-119.7 541.5,-138.7 572.5,-138.7 572.5,-119.7 541.5,-119.7"/>
<text text-anchor="start" x="563.3862" y="-125.8" font-family="Helvetica,sans-Serif" font-size="11.00" fill="#000000"> &#160;</text>
<polygon fill="#ffffff" stroke="transparent" points="572.5,-119.7 572.5,-138.7 603.5,-138.7 603.5,-119.7 572.5,-119.7"/>
<polygon fill="none" stroke="#000000" points="572.5,-119.7 572.5,-138.7 603.5,-138.7 603.5,-119.7 572.5,-119.7"/>
<text text-anchor="start" x="594.3862" y="-125.8" font-family="Helvetica,sans-Serif" font-size="11.00" fill="#000000"> &#160;</text>
</a>
</g>
</g>
<!-- plan_person&#45;&gt;person_summary -->
<g id="edge5" class="edge">
<title>plan_person:w&#45;&gt;person_summary:e</title>
<path fill="none" stroke="#000000" d="M468.9657,-147.7C419.2667,-147.7 401.6823,-147.7 345.5,-147.7"/>
<polygon fill="#000000" stroke="#000000" points="475.5,-147.7001 483.5,-151.3 479.5,-147.7 483.5,-147.7 483.5,-147.7 483.5,-147.7 479.5,-147.7 483.5,-144.1 475.5,-147.7001 475.5,-147.7001"/>
<ellipse fill="none" stroke="#000000" cx="472.3" cy="-147.7001" rx="3.2" ry="3.2"/>
</g>
<!-- resync_audit -->
<g id="node7" class="node">
<title>resync_audit</title>
<g id="a_node7"><a xlink:href="../../tables/resync_audit.html" xlink:title="resync_audit" target="_top">
<polygon fill="#ffffff" stroke="transparent" points="481.5,-38.2 481.5,-99.2 605.5,-99.2 605.5,-38.2 481.5,-38.2"/>
<polygon fill="#f5f5f5" stroke="transparent" points="481.5,-75.7 481.5,-98.7 605.5,-98.7 605.5,-75.7 481.5,-75.7"/>
<polygon fill="none" stroke="#000000" points="481.5,-75.7 481.5,-98.7 605.5,-98.7 605.5,-75.7 481.5,-75.7"/>
<text text-anchor="start" x="486.5" y="-84.3" font-family="Helvetica,sans-Serif" font-weight="bold" font-size="11.00" fill="#000000">resync_audit</text>
<text text-anchor="start" x="571.0219" y="-83.8" font-family="Helvetica,sans-Serif" font-size="11.00" fill="#000000">[table]</text>
<polygon fill="none" stroke="#000000" points="481.5,-56.7 481.5,-75.7 605.5,-75.7 605.5,-56.7 481.5,-56.7"/>
<text text-anchor="start" x="484.5" y="-62.8" font-family="Helvetica,sans-Serif" font-size="11.00" fill="#000000">...</text>
<polygon fill="#ffffff" stroke="transparent" points="481.5,-37.7 481.5,-56.7 541.5,-56.7 541.5,-37.7 481.5,-37.7"/>
<polygon fill="none" stroke="#000000" points="481.5,-37.7 481.5,-56.7 541.5,-56.7 541.5,-37.7 481.5,-37.7"/>
<text text-anchor="start" x="484.5" y="-43.8" font-family="Helvetica,sans-Serif" font-size="11.00" fill="#000000">&lt; 1</text>
<polygon fill="#ffffff" stroke="transparent" points="541.5,-37.7 541.5,-56.7 573.5,-56.7 573.5,-37.7 541.5,-37.7"/>
<polygon fill="none" stroke="#000000" points="541.5,-37.7 541.5,-56.7 573.5,-56.7 573.5,-37.7 541.5,-37.7"/>
<text text-anchor="start" x="564.3862" y="-43.8" font-family="Helvetica,sans-Serif" font-size="11.00" fill="#000000"> &#160;</text>
<polygon fill="#ffffff" stroke="transparent" points="573.5,-37.7 573.5,-56.7 605.5,-56.7 605.5,-37.7 573.5,-37.7"/>
<polygon fill="none" stroke="#000000" points="573.5,-37.7 573.5,-56.7 605.5,-56.7 605.5,-37.7 573.5,-37.7"/>
<text text-anchor="start" x="596.3862" y="-43.8" font-family="Helvetica,sans-Serif" font-size="11.00" fill="#000000"> &#160;</text>
</a>
</g>
</g>
<!-- resync_audit&#45;&gt;person_summary -->
<g id="edge6" class="edge">
<title>resync_audit:w&#45;&gt;person_summary:e</title>
<path fill="none" stroke="#000000" stroke-dasharray="5,2" d="M466.9369,-66.3749C432.1316,-69.8601 420.3719,-86.5538 386,-109.7 365.5267,-123.4868 370.1827,-147.7 345.5,-147.7"/>
<polygon fill="#000000" stroke="#000000" points="473.5086,-66.0704 481.6667,-69.2961 477.5043,-65.8852 481.5,-65.7 481.5,-65.7 481.5,-65.7 477.5043,-65.8852 481.3333,-62.1039 473.5086,-66.0704 473.5086,-66.0704"/>
<ellipse fill="none" stroke="#000000" cx="470.312" cy="-66.2186" rx="3.2" ry="3.2"/>
</g>
</g>
</svg>
