<?xml version="1.0" encoding="UTF-8" standalone="no"?>
<!DOCTYPE svg PUBLIC "-//W3C//DTD SVG 1.1//EN"
 "http://www.w3.org/Graphics/SVG/1.1/DTD/svg11.dtd">
<!-- Generated by graphviz version 2.40.1 (20161225.0304)
 -->
<!-- Title: twoDegreesRelationshipsDiagram Pages: 1 -->
<svg width="650pt" height="285pt"
 viewBox="0.00 0.00 650.00 285.20" xmlns="http://www.w3.org/2000/svg" xmlns:xlink="http://www.w3.org/1999/xlink">
<g id="graph0" class="graph" transform="scale(1 1) rotate(0) translate(4 281.2)">
<title>twoDegreesRelationshipsDiagram</title>
<polygon fill="#ffffff" stroke="transparent" points="-4,4 -4,-281.2 646,-281.2 646,4 -4,4"/>
<text text-anchor="middle" x="72.4936" y="-7.3" font-family="Helvetica,sans-Serif" font-size="11.00" fill="#000000">Generated by SchemaSpy</text>
<!-- alert -->
<g id="node1" class="node">
<title>alert</title>
<g id="a_node1"><a xlink:href="../../tables/alert.html" xlink:title="alert" target="_top">
<polygon fill="#ffffff" stroke="transparent" points="455.5,-212.2 455.5,-273.2 528.5,-273.2 528.5,-212.2 455.5,-212.2"/>
<polygon fill="#f5f5f5" stroke="transparent" points="456,-249.7 456,-272.7 529,-272.7 529,-249.7 456,-249.7"/>
<polygon fill="none" stroke="#000000" points="456,-249.7 456,-272.7 529,-272.7 529,-249.7 456,-249.7"/>
<text text-anchor="start" x="461" y="-258.3" font-family="Helvetica,sans-Serif" font-weight="bold" font-size="11.00" fill="#000000">alert</text>
<text text-anchor="start" x="494.5219" y="-257.8" font-family="Helvetica,sans-Serif" font-size="11.00" fill="#000000">[table]</text>
<polygon fill="none" stroke="#000000" points="456,-230.7 456,-249.7 529,-249.7 529,-230.7 456,-230.7"/>
<text text-anchor="start" x="459" y="-236.8" font-family="Helvetica,sans-Serif" font-size="11.00" fill="#000000">...</text>
<polygon fill="#ffffff" stroke="transparent" points="456,-211.7 456,-230.7 529,-230.7 529,-211.7 456,-211.7"/>
<polygon fill="none" stroke="#000000" points="456,-211.7 456,-230.7 529,-230.7 529,-211.7 456,-211.7"/>
<polygon fill="#ffffff" stroke="transparent" points="457,-212.7 457,-229.7 484,-229.7 484,-212.7 457,-212.7"/>
<text text-anchor="start" x="459" y="-217.8" font-family="Helvetica,sans-Serif" font-size="11.00" fill="#000000">&lt; 1</text>
<polygon fill="#ffffff" stroke="transparent" points="484,-212.7 484,-229.7 502,-229.7 502,-212.7 484,-212.7"/>
<text text-anchor="start" x="489.9431" y="-217.8" font-family="Helvetica,sans-Serif" font-size="11.00" fill="#000000"> &#160;</text>
<polygon fill="#ffffff" stroke="transparent" points="502,-212.7 502,-229.7 528,-229.7 528,-212.7 502,-212.7"/>
<text text-anchor="start" x="510.4053" y="-217.8" font-family="Helvetica,sans-Serif" font-size="11.00" fill="#000000">1 &gt;</text>
<polygon fill="#000000" stroke="#000000" points="484,-212.7 484,-229.7 484,-229.7 484,-212.7 484,-212.7"/>
<polygon fill="#000000" stroke="#000000" points="502,-212.7 502,-229.7 502,-229.7 502,-212.7 502,-212.7"/>
</a>
</g>
</g>
<!-- alert_code -->
<g id="node2" class="node">
<title>alert_code</title>
<g id="a_node2"><a xlink:href="../../tables/alert_code.html" xlink:title="alert_code" target="_top">
<polygon fill="#ffffff" stroke="transparent" points="169,-38.2 169,-231.2 301,-231.2 301,-38.2 169,-38.2"/>
<polygon fill="#f5f5f5" stroke="transparent" points="169,-207.7 169,-230.7 301,-230.7 301,-207.7 169,-207.7"/>
<polygon fill="none" stroke="#000000" points="169,-207.7 169,-230.7 301,-230.7 301,-207.7 169,-207.7"/>
<text text-anchor="start" x="174" y="-216.3" font-family="Helvetica,sans-Serif" font-weight="bold" font-size="11.00" fill="#000000">alert_code</text>
<text text-anchor="start" x="266.0437" y="-215.8" font-family="Helvetica,sans-Serif" font-size="11.00" fill="#000000">[table]</text>
<polygon fill="none" stroke="#000000" points="169,-185.7 169,-207.7 301,-207.7 301,-185.7 169,-185.7"/>
<image xlink:href="../../images/primaryKeys.png" width="11px" height="12px" preserveAspectRatio="xMinYMin meet" x="174" y="-202.7"/>
<text text-anchor="start" x="189" y="-192.8" font-family="Helvetica,sans-Serif" font-size="11.00" fill="#000000">alert_code_id</text>
<polygon fill="#ffffff" stroke="transparent" points="169,-163.7 169,-185.7 301,-185.7 301,-163.7 169,-163.7"/>
<polygon fill="none" stroke="#000000" points="169,-163.7 169,-185.7 301,-185.7 301,-163.7 169,-163.7"/>
<image xlink:href="../../images/foreignKeys.png" width="11px" height="12px" preserveAspectRatio="xMinYMin meet" x="174" y="-180.7"/>
<text text-anchor="start" x="189" y="-170.8" font-family="Helvetica,sans-Serif" font-size="11.00" fill="#000000">alert_type_id</text>
<polygon fill="#ffffff" stroke="transparent" points="169,-141.7 169,-163.7 301,-163.7 301,-141.7 169,-141.7"/>
<polygon fill="none" stroke="#000000" points="169,-141.7 169,-163.7 301,-163.7 301,-141.7 169,-141.7"/>
<text text-anchor="start" x="189" y="-148.8" font-family="Helvetica,sans-Serif" font-size="11.00" fill="#000000">code</text>
<polygon fill="#ffffff" stroke="transparent" points="169,-119.7 169,-141.7 301,-141.7 301,-119.7 169,-119.7"/>
<polygon fill="none" stroke="#000000" points="169,-119.7 169,-141.7 301,-141.7 301,-119.7 169,-119.7"/>
<text text-anchor="start" x="189" y="-126.8" font-family="Helvetica,sans-Serif" font-size="11.00" fill="#000000">list_sequence</text>
<polygon fill="#ffffff" stroke="transparent" points="169,-97.7 169,-119.7 301,-119.7 301,-97.7 169,-97.7"/>
<polygon fill="none" stroke="#000000" points="169,-97.7 169,-119.7 301,-119.7 301,-97.7 169,-97.7"/>
<text text-anchor="start" x="189" y="-104.8" font-family="Helvetica,sans-Serif" font-size="11.00" fill="#000000">created_at</text>
<polygon fill="#ffffff" stroke="transparent" points="169,-75.7 169,-97.7 301,-97.7 301,-75.7 169,-75.7"/>
<polygon fill="none" stroke="#000000" points="169,-75.7 169,-97.7 301,-97.7 301,-75.7 169,-75.7"/>
<text text-anchor="start" x="189" y="-82.8" font-family="Helvetica,sans-Serif" font-size="11.00" fill="#000000">deactivated_at</text>
<polygon fill="none" stroke="#000000" points="169,-56.7 169,-75.7 301,-75.7 301,-56.7 169,-56.7"/>
<text text-anchor="start" x="172" y="-62.8" font-family="Helvetica,sans-Serif" font-size="11.00" fill="#000000">...</text>
<polygon fill="#ffffff" stroke="transparent" points="169,-37.7 169,-56.7 301,-56.7 301,-37.7 169,-37.7"/>
<polygon fill="none" stroke="#000000" points="169,-37.7 169,-56.7 301,-56.7 301,-37.7 169,-37.7"/>
<polygon fill="#ffffff" stroke="transparent" points="170,-38.7 170,-55.7 217,-55.7 217,-38.7 170,-38.7"/>
<text text-anchor="start" x="172" y="-43.8" font-family="Helvetica,sans-Serif" font-size="11.00" fill="#000000">&lt; 1</text>
<polygon fill="#ffffff" stroke="transparent" points="217,-38.7 217,-55.7 254,-55.7 254,-38.7 217,-38.7"/>
<text text-anchor="start" x="232.4431" y="-43.8" font-family="Helvetica,sans-Serif" font-size="11.00" fill="#000000"> &#160;</text>
<polygon fill="#ffffff" stroke="transparent" points="254,-38.7 254,-55.7 300,-55.7 300,-38.7 254,-38.7"/>
<text text-anchor="start" x="282.4053" y="-43.8" font-family="Helvetica,sans-Serif" font-size="11.00" fill="#000000">2 &gt;</text>
<polygon fill="#000000" stroke="#000000" points="217,-38.7 217,-55.7 217,-55.7 217,-38.7 217,-38.7"/>
<polygon fill="#000000" stroke="#000000" points="254,-38.7 254,-55.7 254,-55.7 254,-38.7 254,-38.7"/>
</a>
</g>
</g>
<!-- alert&#45;&gt;alert_code -->
<g id="edge1" class="edge">
<title>alert:w&#45;&gt;alert_code:e</title>
<path fill="none" stroke="#000000" d="M441.3879,-239.0588C382.4617,-233.7097 367.3243,-196.7 301,-196.7"/>
<polygon fill="#000000" stroke="#000000" points="448.0077,-239.3492 455.8421,-243.2965 452.0038,-239.5246 456,-239.7 456,-239.7 456,-239.7 452.0038,-239.5246 456.1579,-236.1035 448.0077,-239.3492 448.0077,-239.3492"/>
<ellipse fill="none" stroke="#000000" cx="444.8108" cy="-239.2089" rx="3.2" ry="3.2"/>
</g>
<!-- alert_type -->
<g id="node3" class="node">
<title>alert_type</title>
<g id="a_node3"><a xlink:href="../../tables/alert_type.html" xlink:title="alert_type" target="_top">
<polygon fill="#ffffff" stroke="transparent" points="8,-147.2 8,-208.2 120,-208.2 120,-147.2 8,-147.2"/>
<polygon fill="#f5f5f5" stroke="transparent" points="8,-184.7 8,-207.7 120,-207.7 120,-184.7 8,-184.7"/>
<polygon fill="none" stroke="#000000" points="8,-184.7 8,-207.7 120,-207.7 120,-184.7 8,-184.7"/>
<text text-anchor="start" x="13" y="-193.3" font-family="Helvetica,sans-Serif" font-weight="bold" font-size="11.00" fill="#000000">alert_type</text>
<text text-anchor="start" x="85.5219" y="-192.8" font-family="Helvetica,sans-Serif" font-size="11.00" fill="#000000">[table]</text>
<polygon fill="none" stroke="#000000" points="8,-165.7 8,-184.7 120,-184.7 120,-165.7 8,-165.7"/>
<text text-anchor="start" x="11" y="-171.8" font-family="Helvetica,sans-Serif" font-size="11.00" fill="#000000">...</text>
<polygon fill="#ffffff" stroke="transparent" points="8,-146.7 8,-165.7 120,-165.7 120,-146.7 8,-146.7"/>
<polygon fill="none" stroke="#000000" points="8,-146.7 8,-165.7 120,-165.7 120,-146.7 8,-146.7"/>
<polygon fill="#ffffff" stroke="transparent" points="9,-147.7 9,-164.7 43,-164.7 43,-147.7 9,-147.7"/>
<text text-anchor="start" x="11" y="-152.8" font-family="Helvetica,sans-Serif" font-size="11.00" fill="#000000"> &#160;</text>
<polygon fill="#ffffff" stroke="transparent" points="43,-147.7 43,-164.7 77,-164.7 77,-147.7 43,-147.7"/>
<text text-anchor="start" x="56.9431" y="-152.8" font-family="Helvetica,sans-Serif" font-size="11.00" fill="#000000"> &#160;</text>
<polygon fill="#ffffff" stroke="transparent" points="77,-147.7 77,-164.7 119,-164.7 119,-147.7 77,-147.7"/>
<text text-anchor="start" x="101.4053" y="-152.8" font-family="Helvetica,sans-Serif" font-size="11.00" fill="#000000">1 &gt;</text>
<polygon fill="#000000" stroke="#000000" points="43,-147.7 43,-164.7 43,-164.7 43,-147.7 43,-147.7"/>
<polygon fill="#000000" stroke="#000000" points="77,-147.7 77,-164.7 77,-164.7 77,-147.7 77,-147.7"/>
</a>
</g>
</g>
<!-- alert_code&#45;&gt;alert_type -->
<g id="edge2" class="edge">
<title>alert_code:w&#45;&gt;alert_type:e</title>
<path fill="none" stroke="#000000" d="M154.4909,-174.7C143.1774,-174.7 135.9931,-174.7 120,-174.7"/>
<polygon fill="#000000" stroke="#000000" points="161,-174.7001 169,-178.3 165,-174.7 169,-174.7 169,-174.7 169,-174.7 165,-174.7 169,-171.1 161,-174.7001 161,-174.7001"/>
<ellipse fill="none" stroke="#000000" cx="157.8" cy="-174.7001" rx="3.2" ry="3.2"/>
</g>
<!-- alert_code_privileged_user -->
<g id="node4" class="node">
<title>alert_code_privileged_user</title>
<g id="a_node4"><a xlink:href="../../tables/alert_code_privileged_user.html" xlink:title="alert_code_privileged_user" target="_top">
<polygon fill="#ffffff" stroke="transparent" points="350,-100.7 350,-190.7 634,-190.7 634,-100.7 350,-100.7"/>
<polygon fill="#f5f5f5" stroke="transparent" points="352,-165.7 352,-188.7 632,-188.7 632,-165.7 352,-165.7"/>
<polygon fill="none" stroke="#000000" points="352,-165.7 352,-188.7 632,-188.7 632,-165.7 352,-165.7"/>
<text text-anchor="start" x="357" y="-174.3" font-family="Helvetica,sans-Serif" font-weight="bold" font-size="11.00" fill="#000000">alert_code_privileged_user</text>
<text text-anchor="start" x="597.0437" y="-173.8" font-family="Helvetica,sans-Serif" font-size="11.00" fill="#000000">[table]</text>
<polygon fill="none" stroke="#000000" points="352,-143.7 352,-165.7 567,-165.7 567,-143.7 352,-143.7"/>
<image xlink:href="../../images/primaryKeys.png" width="11px" height="12px" preserveAspectRatio="xMinYMin meet" x="357" y="-160.7"/>
<text text-anchor="start" x="372" y="-150.8" font-family="Helvetica,sans-Serif" font-size="11.00" fill="#000000">alert_code_id</text>
<polygon fill="none" stroke="#000000" points="567,-143.7 567,-165.7 632,-165.7 632,-143.7 567,-143.7"/>
<text text-anchor="start" x="569.8561" y="-151.4" font-family="Helvetica,sans-Serif" font-size="11.00" fill="#000000">bigserial[19]</text>
<polygon fill="none" stroke="#000000" points="352,-121.7 352,-143.7 567,-143.7 567,-121.7 352,-121.7"/>
<image xlink:href="../../images/primaryKeys.png" width="11px" height="12px" preserveAspectRatio="xMinYMin meet" x="357" y="-138.7"/>
<text text-anchor="start" x="372" y="-128.8" font-family="Helvetica,sans-Serif" font-size="11.00" fill="#000000">username</text>
<polygon fill="none" stroke="#000000" points="567,-121.7 567,-143.7 632,-143.7 632,-121.7 567,-121.7"/>
<text text-anchor="start" x="570" y="-129.4" font-family="Helvetica,sans-Serif" font-size="11.00" fill="#000000">varchar[64]</text>
<polygon fill="#ffffff" stroke="transparent" points="352,-102.7 352,-121.7 632,-121.7 632,-102.7 352,-102.7"/>
<polygon fill="none" stroke="#000000" points="352,-102.7 352,-121.7 632,-121.7 632,-102.7 352,-102.7"/>
<polygon fill="#ffffff" stroke="transparent" points="353,-103.7 353,-120.7 449,-120.7 449,-103.7 353,-103.7"/>
<text text-anchor="start" x="355" y="-108.8" font-family="Helvetica,sans-Serif" font-size="11.00" fill="#000000">&lt; 1</text>
<polygon fill="#ffffff" stroke="transparent" points="449,-103.7 449,-120.7 536,-120.7 536,-103.7 449,-103.7"/>
<text text-anchor="start" x="489.4431" y="-108.8" font-family="Helvetica,sans-Serif" font-size="11.00" fill="#000000"> &#160;</text>
<polygon fill="#ffffff" stroke="transparent" points="536,-103.7 536,-120.7 631,-120.7 631,-103.7 536,-103.7"/>
<text text-anchor="start" x="613.4053" y="-108.8" font-family="Helvetica,sans-Serif" font-size="11.00" fill="#000000">0 &gt;</text>
<polygon fill="#000000" stroke="#000000" points="449,-103.7 449,-120.7 449,-120.7 449,-103.7 449,-103.7"/>
<polygon fill="#000000" stroke="#000000" points="536,-103.7 536,-120.7 536,-120.7 536,-103.7 536,-103.7"/>
<polygon fill="none" stroke="#000000" stroke-width="2" points="351,-101.7 351,-189.7 633,-189.7 633,-101.7 351,-101.7"/>
</a>
</g>
</g>
<!-- alert_code_privileged_user&#45;&gt;alert_code -->
<g id="edge3" class="edge">
<title>alert_code_privileged_user:w&#45;&gt;alert_code:e</title>
<path fill="none" stroke="#000000" d="M338.0759,-159.1947C324.2452,-170.0296 324.3991,-196.7 301,-196.7"/>
<polygon fill="#000000" stroke="#000000" points="344.3868,-157.1576 353.1059,-158.1259 348.1934,-155.9288 352,-154.7 352,-154.7 352,-154.7 348.1934,-155.9288 350.8941,-151.2741 344.3868,-157.1576 344.3868,-157.1576"/>
<ellipse fill="none" stroke="#000000" cx="341.3416" cy="-158.1406" rx="3.2" ry="3.2"/>
</g>
</g>
</svg>
