<?xml version="1.0" encoding="UTF-8" standalone="no"?>
<!DOCTYPE svg PUBLIC "-//W3C//DTD SVG 1.1//EN"
 "http://www.w3.org/Graphics/SVG/1.1/DTD/svg11.dtd">
<!-- Generated by graphviz version 2.40.1 (20161225.0304)
 -->
<!-- Title: twoDegreesRelationshipsDiagramImplied Pages: 1 -->
<svg width="1006pt" height="607pt"
 viewBox="0.00 0.00 1006.00 607.20" xmlns="http://www.w3.org/2000/svg" xmlns:xlink="http://www.w3.org/1999/xlink">
<g id="graph0" class="graph" transform="scale(1 1) rotate(0) translate(4 603.2)">
<title>twoDegreesRelationshipsDiagramImplied</title>
<polygon fill="#ffffff" stroke="transparent" points="-4,4 -4,-603.2 1002,-603.2 1002,4 -4,4"/>
<text text-anchor="middle" x="72.4936" y="-7.3" font-family="Helvetica,sans-Serif" font-size="11.00" fill="#000000">Generated by SchemaSpy</text>
<!-- alert -->
<g id="node1" class="node">
<title>alert</title>
<g id="a_node1"><a xlink:href="../../tables/alert.html" xlink:title="alert" target="_top">
<polygon fill="#ffffff" stroke="transparent" points="413,-202.7 413,-512.7 727,-512.7 727,-202.7 413,-202.7"/>
<polygon fill="#f5f5f5" stroke="transparent" points="415,-487.7 415,-510.7 725,-510.7 725,-487.7 415,-487.7"/>
<polygon fill="none" stroke="#000000" points="415,-487.7 415,-510.7 725,-510.7 725,-487.7 415,-487.7"/>
<text text-anchor="start" x="420" y="-496.3" font-family="Helvetica,sans-Serif" font-weight="bold" font-size="11.00" fill="#000000">alert</text>
<text text-anchor="start" x="690.0437" y="-495.8" font-family="Helvetica,sans-Serif" font-size="11.00" fill="#000000">[table]</text>
<polygon fill="none" stroke="#000000" points="415,-465.7 415,-487.7 631,-487.7 631,-465.7 415,-465.7"/>
<image xlink:href="../../images/primaryKeys.png" width="11px" height="12px" preserveAspectRatio="xMinYMin meet" x="420" y="-482.7"/>
<text text-anchor="start" x="435" y="-472.8" font-family="Helvetica,sans-Serif" font-size="11.00" fill="#000000">id</text>
<polygon fill="none" stroke="#000000" points="631,-465.7 631,-487.7 725,-487.7 725,-465.7 631,-465.7"/>
<text text-anchor="start" x="633.9758" y="-473.4" font-family="Helvetica,sans-Serif" font-size="11.00" fill="#000000">uuid[2147483647]</text>
<polygon fill="#ffffff" stroke="transparent" points="415,-443.7 415,-465.7 631,-465.7 631,-443.7 415,-443.7"/>
<polygon fill="none" stroke="#000000" points="415,-443.7 415,-465.7 631,-465.7 631,-443.7 415,-443.7"/>
<image xlink:href="../../images/foreignKeys.png" width="11px" height="12px" preserveAspectRatio="xMinYMin meet" x="420" y="-460.7"/>
<text text-anchor="start" x="435" y="-450.8" font-family="Helvetica,sans-Serif" font-size="11.00" fill="#000000">alert_code_id</text>
<polygon fill="none" stroke="#000000" points="631,-443.7 631,-465.7 725,-465.7 725,-443.7 631,-443.7"/>
<text text-anchor="start" x="634" y="-451.4" font-family="Helvetica,sans-Serif" font-size="11.00" fill="#000000">int8[19]</text>
<polygon fill="#ffffff" stroke="transparent" points="415,-421.7 415,-443.7 631,-443.7 631,-421.7 415,-421.7"/>
<polygon fill="none" stroke="#000000" points="415,-421.7 415,-443.7 631,-443.7 631,-421.7 415,-421.7"/>
<image xlink:href="../../images/foreignKeys.png" width="11px" height="12px" preserveAspectRatio="xMinYMin meet" x="420" y="-438.7"/>
<text text-anchor="start" x="435" y="-428.8" font-family="Helvetica,sans-Serif" font-size="11.00" fill="#000000">prison_number</text>
<polygon fill="none" stroke="#000000" points="631,-421.7 631,-443.7 725,-443.7 725,-421.7 631,-421.7"/>
<text text-anchor="start" x="634" y="-429.4" font-family="Helvetica,sans-Serif" font-size="11.00" fill="#000000">varchar[10]</text>
<polygon fill="none" stroke="#000000" points="415,-399.7 415,-421.7 631,-421.7 631,-399.7 415,-399.7"/>
<text text-anchor="start" x="435" y="-406.8" font-family="Helvetica,sans-Serif" font-size="11.00" fill="#000000">description</text>
<polygon fill="none" stroke="#000000" points="631,-399.7 631,-421.7 725,-421.7 725,-399.7 631,-399.7"/>
<text text-anchor="start" x="634" y="-407.4" font-family="Helvetica,sans-Serif" font-size="11.00" fill="#000000">text[2147483647]</text>
<polygon fill="none" stroke="#000000" points="415,-377.7 415,-399.7 631,-399.7 631,-377.7 415,-377.7"/>
<text text-anchor="start" x="435" y="-384.8" font-family="Helvetica,sans-Serif" font-size="11.00" fill="#000000">authorised_by</text>
<polygon fill="none" stroke="#000000" points="631,-377.7 631,-399.7 725,-399.7 725,-377.7 631,-377.7"/>
<text text-anchor="start" x="634" y="-385.4" font-family="Helvetica,sans-Serif" font-size="11.00" fill="#000000">varchar[40]</text>
<polygon fill="#ffffff" stroke="transparent" points="415,-355.7 415,-377.7 631,-377.7 631,-355.7 415,-355.7"/>
<polygon fill="none" stroke="#000000" points="415,-355.7 415,-377.7 631,-377.7 631,-355.7 415,-355.7"/>
<text text-anchor="start" x="435" y="-362.8" font-family="Helvetica,sans-Serif" font-size="11.00" fill="#000000">active_from</text>
<polygon fill="none" stroke="#000000" points="631,-355.7 631,-377.7 725,-377.7 725,-355.7 631,-355.7"/>
<text text-anchor="start" x="634" y="-363.4" font-family="Helvetica,sans-Serif" font-size="11.00" fill="#000000">date[13]</text>
<polygon fill="#ffffff" stroke="transparent" points="415,-333.7 415,-355.7 631,-355.7 631,-333.7 415,-333.7"/>
<polygon fill="none" stroke="#000000" points="415,-333.7 415,-355.7 631,-355.7 631,-333.7 415,-333.7"/>
<text text-anchor="start" x="435" y="-340.8" font-family="Helvetica,sans-Serif" font-size="11.00" fill="#000000">active_to</text>
<polygon fill="none" stroke="#000000" points="631,-333.7 631,-355.7 725,-355.7 725,-333.7 631,-333.7"/>
<text text-anchor="start" x="634" y="-341.4" font-family="Helvetica,sans-Serif" font-size="11.00" fill="#000000">date[13]</text>
<polygon fill="#ffffff" stroke="transparent" points="415,-311.7 415,-333.7 631,-333.7 631,-311.7 415,-311.7"/>
<polygon fill="none" stroke="#000000" points="415,-311.7 415,-333.7 631,-333.7 631,-311.7 415,-311.7"/>
<text text-anchor="start" x="435" y="-318.8" font-family="Helvetica,sans-Serif" font-size="11.00" fill="#000000">deleted_at</text>
<polygon fill="none" stroke="#000000" points="631,-311.7 631,-333.7 725,-333.7 725,-311.7 631,-311.7"/>
<text text-anchor="start" x="634" y="-319.4" font-family="Helvetica,sans-Serif" font-size="11.00" fill="#000000">timestamp[29,6]</text>
<polygon fill="#ffffff" stroke="transparent" points="415,-289.7 415,-311.7 631,-311.7 631,-289.7 415,-289.7"/>
<polygon fill="none" stroke="#000000" points="415,-289.7 415,-311.7 631,-311.7 631,-289.7 415,-289.7"/>
<text text-anchor="start" x="435" y="-296.8" font-family="Helvetica,sans-Serif" font-size="11.00" fill="#000000">created_at</text>
<polygon fill="none" stroke="#000000" points="631,-289.7 631,-311.7 725,-311.7 725,-289.7 631,-289.7"/>
<text text-anchor="start" x="634" y="-297.4" font-family="Helvetica,sans-Serif" font-size="11.00" fill="#000000">timestamp[29,6]</text>
<polygon fill="#ffffff" stroke="transparent" points="415,-267.7 415,-289.7 631,-289.7 631,-267.7 415,-267.7"/>
<polygon fill="none" stroke="#000000" points="415,-267.7 415,-289.7 631,-289.7 631,-267.7 415,-267.7"/>
<text text-anchor="start" x="435" y="-274.8" font-family="Helvetica,sans-Serif" font-size="11.00" fill="#000000">last_modified_at</text>
<polygon fill="none" stroke="#000000" points="631,-267.7 631,-289.7 725,-289.7 725,-267.7 631,-267.7"/>
<text text-anchor="start" x="634" y="-275.4" font-family="Helvetica,sans-Serif" font-size="11.00" fill="#000000">timestamp[29,6]</text>
<polygon fill="none" stroke="#000000" points="415,-245.7 415,-267.7 631,-267.7 631,-245.7 415,-245.7"/>
<text text-anchor="start" x="435" y="-252.8" font-family="Helvetica,sans-Serif" font-size="11.00" fill="#000000">prison_code_when_created</text>
<polygon fill="none" stroke="#000000" points="631,-245.7 631,-267.7 725,-267.7 725,-245.7 631,-245.7"/>
<text text-anchor="start" x="634" y="-253.4" font-family="Helvetica,sans-Serif" font-size="11.00" fill="#000000">varchar[6]</text>
<polygon fill="none" stroke="#000000" points="415,-223.7 415,-245.7 631,-245.7 631,-223.7 415,-223.7"/>
<text text-anchor="start" x="435" y="-230.8" font-family="Helvetica,sans-Serif" font-size="11.00" fill="#000000">version</text>
<polygon fill="none" stroke="#000000" points="631,-223.7 631,-245.7 725,-245.7 725,-223.7 631,-223.7"/>
<text text-anchor="start" x="634" y="-231.4" font-family="Helvetica,sans-Serif" font-size="11.00" fill="#000000">int4[10]</text>
<polygon fill="#ffffff" stroke="transparent" points="415,-204.7 415,-223.7 725,-223.7 725,-204.7 415,-204.7"/>
<polygon fill="none" stroke="#000000" points="415,-204.7 415,-223.7 725,-223.7 725,-204.7 415,-204.7"/>
<polygon fill="#ffffff" stroke="transparent" points="416,-205.7 416,-222.7 522,-222.7 522,-205.7 416,-205.7"/>
<text text-anchor="start" x="418" y="-210.8" font-family="Helvetica,sans-Serif" font-size="11.00" fill="#000000">&lt; 2</text>
<polygon fill="#ffffff" stroke="transparent" points="522,-205.7 522,-222.7 619,-222.7 619,-205.7 522,-205.7"/>
<text text-anchor="start" x="567.4431" y="-210.8" font-family="Helvetica,sans-Serif" font-size="11.00" fill="#000000"> &#160;</text>
<polygon fill="#ffffff" stroke="transparent" points="619,-205.7 619,-222.7 724,-222.7 724,-205.7 619,-205.7"/>
<text text-anchor="start" x="706.4053" y="-210.8" font-family="Helvetica,sans-Serif" font-size="11.00" fill="#000000">1 &gt;</text>
<polygon fill="#000000" stroke="#000000" points="522,-205.7 522,-222.7 522,-222.7 522,-205.7 522,-205.7"/>
<polygon fill="#000000" stroke="#000000" points="619,-205.7 619,-222.7 619,-222.7 619,-205.7 619,-205.7"/>
<polygon fill="none" stroke="#000000" stroke-width="2" points="414,-203.7 414,-511.7 726,-511.7 726,-203.7 414,-203.7"/>
</a>
</g>
</g>
<!-- alert_code -->
<g id="node2" class="node">
<title>alert_code</title>
<g id="a_node2"><a xlink:href="../../tables/alert_code.html" xlink:title="alert_code" target="_top">
<polygon fill="#ffffff" stroke="transparent" points="200.5,-349.2 200.5,-542.2 332.5,-542.2 332.5,-349.2 200.5,-349.2"/>
<polygon fill="#f5f5f5" stroke="transparent" points="200.5,-518.7 200.5,-541.7 332.5,-541.7 332.5,-518.7 200.5,-518.7"/>
<polygon fill="none" stroke="#000000" points="200.5,-518.7 200.5,-541.7 332.5,-541.7 332.5,-518.7 200.5,-518.7"/>
<text text-anchor="start" x="205.5" y="-527.3" font-family="Helvetica,sans-Serif" font-weight="bold" font-size="11.00" fill="#000000">alert_code</text>
<text text-anchor="start" x="297.5437" y="-526.8" font-family="Helvetica,sans-Serif" font-size="11.00" fill="#000000">[table]</text>
<polygon fill="none" stroke="#000000" points="200.5,-496.7 200.5,-518.7 332.5,-518.7 332.5,-496.7 200.5,-496.7"/>
<image xlink:href="../../images/primaryKeys.png" width="11px" height="12px" preserveAspectRatio="xMinYMin meet" x="205.5" y="-513.7"/>
<text text-anchor="start" x="220.5" y="-503.8" font-family="Helvetica,sans-Serif" font-size="11.00" fill="#000000">alert_code_id</text>
<polygon fill="#ffffff" stroke="transparent" points="200.5,-474.7 200.5,-496.7 332.5,-496.7 332.5,-474.7 200.5,-474.7"/>
<polygon fill="none" stroke="#000000" points="200.5,-474.7 200.5,-496.7 332.5,-496.7 332.5,-474.7 200.5,-474.7"/>
<image xlink:href="../../images/foreignKeys.png" width="11px" height="12px" preserveAspectRatio="xMinYMin meet" x="205.5" y="-491.7"/>
<text text-anchor="start" x="220.5" y="-481.8" font-family="Helvetica,sans-Serif" font-size="11.00" fill="#000000">alert_type_id</text>
<polygon fill="#ffffff" stroke="transparent" points="200.5,-452.7 200.5,-474.7 332.5,-474.7 332.5,-452.7 200.5,-452.7"/>
<polygon fill="none" stroke="#000000" points="200.5,-452.7 200.5,-474.7 332.5,-474.7 332.5,-452.7 200.5,-452.7"/>
<text text-anchor="start" x="220.5" y="-459.8" font-family="Helvetica,sans-Serif" font-size="11.00" fill="#000000">code</text>
<polygon fill="#ffffff" stroke="transparent" points="200.5,-430.7 200.5,-452.7 332.5,-452.7 332.5,-430.7 200.5,-430.7"/>
<polygon fill="none" stroke="#000000" points="200.5,-430.7 200.5,-452.7 332.5,-452.7 332.5,-430.7 200.5,-430.7"/>
<text text-anchor="start" x="220.5" y="-437.8" font-family="Helvetica,sans-Serif" font-size="11.00" fill="#000000">list_sequence</text>
<polygon fill="#ffffff" stroke="transparent" points="200.5,-408.7 200.5,-430.7 332.5,-430.7 332.5,-408.7 200.5,-408.7"/>
<polygon fill="none" stroke="#000000" points="200.5,-408.7 200.5,-430.7 332.5,-430.7 332.5,-408.7 200.5,-408.7"/>
<text text-anchor="start" x="220.5" y="-415.8" font-family="Helvetica,sans-Serif" font-size="11.00" fill="#000000">created_at</text>
<polygon fill="#ffffff" stroke="transparent" points="200.5,-386.7 200.5,-408.7 332.5,-408.7 332.5,-386.7 200.5,-386.7"/>
<polygon fill="none" stroke="#000000" points="200.5,-386.7 200.5,-408.7 332.5,-408.7 332.5,-386.7 200.5,-386.7"/>
<text text-anchor="start" x="220.5" y="-393.8" font-family="Helvetica,sans-Serif" font-size="11.00" fill="#000000">deactivated_at</text>
<polygon fill="none" stroke="#000000" points="200.5,-367.7 200.5,-386.7 332.5,-386.7 332.5,-367.7 200.5,-367.7"/>
<text text-anchor="start" x="203.5" y="-373.8" font-family="Helvetica,sans-Serif" font-size="11.00" fill="#000000">...</text>
<polygon fill="#ffffff" stroke="transparent" points="200.5,-348.7 200.5,-367.7 332.5,-367.7 332.5,-348.7 200.5,-348.7"/>
<polygon fill="none" stroke="#000000" points="200.5,-348.7 200.5,-367.7 332.5,-367.7 332.5,-348.7 200.5,-348.7"/>
<polygon fill="#ffffff" stroke="transparent" points="201.5,-349.7 201.5,-366.7 248.5,-366.7 248.5,-349.7 201.5,-349.7"/>
<text text-anchor="start" x="203.5" y="-354.8" font-family="Helvetica,sans-Serif" font-size="11.00" fill="#000000">&lt; 1</text>
<polygon fill="#ffffff" stroke="transparent" points="248.5,-349.7 248.5,-366.7 285.5,-366.7 285.5,-349.7 248.5,-349.7"/>
<text text-anchor="start" x="263.9431" y="-354.8" font-family="Helvetica,sans-Serif" font-size="11.00" fill="#000000"> &#160;</text>
<polygon fill="#ffffff" stroke="transparent" points="285.5,-349.7 285.5,-366.7 331.5,-366.7 331.5,-349.7 285.5,-349.7"/>
<text text-anchor="start" x="313.9053" y="-354.8" font-family="Helvetica,sans-Serif" font-size="11.00" fill="#000000">2 &gt;</text>
<polygon fill="#000000" stroke="#000000" points="248.5,-349.7 248.5,-366.7 248.5,-366.7 248.5,-349.7 248.5,-349.7"/>
<polygon fill="#000000" stroke="#000000" points="285.5,-349.7 285.5,-366.7 285.5,-366.7 285.5,-349.7 285.5,-349.7"/>
</a>
</g>
</g>
<!-- alert&#45;&gt;alert_code -->
<g id="edge1" class="edge">
<title>alert:w&#45;&gt;alert_code:e</title>
<path fill="none" stroke="#000000" d="M400.7301,-456.9773C371.8307,-467.1219 370.6334,-507.7 332.5,-507.7"/>
<polygon fill="#000000" stroke="#000000" points="407.1,-455.9608 415.5674,-458.255 411.05,-455.3304 415,-454.7 415,-454.7 415,-454.7 411.05,-455.3304 414.4326,-451.145 407.1,-455.9608 407.1,-455.9608"/>
<ellipse fill="none" stroke="#000000" cx="403.94" cy="-456.4651" rx="3.2" ry="3.2"/>
</g>
<!-- person_summary -->
<g id="node3" class="node">
<title>person_summary</title>
<g id="a_node3"><a xlink:href="../../tables/person_summary.html" xlink:title="person_summary" target="_top">
<polygon fill="#ffffff" stroke="transparent" points="169,-99.2 169,-182.2 364,-182.2 364,-99.2 169,-99.2"/>
<polygon fill="#f5f5f5" stroke="transparent" points="169.5,-158.7 169.5,-181.7 364.5,-181.7 364.5,-158.7 169.5,-158.7"/>
<polygon fill="none" stroke="#000000" points="169.5,-158.7 169.5,-181.7 364.5,-181.7 364.5,-158.7 169.5,-158.7"/>
<text text-anchor="start" x="174.5" y="-167.3" font-family="Helvetica,sans-Serif" font-weight="bold" font-size="11.00" fill="#000000">person_summary</text>
<text text-anchor="start" x="329.5437" y="-166.8" font-family="Helvetica,sans-Serif" font-size="11.00" fill="#000000">[table]</text>
<polygon fill="none" stroke="#000000" points="169.5,-136.7 169.5,-158.7 364.5,-158.7 364.5,-136.7 169.5,-136.7"/>
<image xlink:href="../../images/primaryKeys.png" width="11px" height="12px" preserveAspectRatio="xMinYMin meet" x="174.5" y="-153.7"/>
<text text-anchor="start" x="189.5" y="-143.8" font-family="Helvetica,sans-Serif" font-size="11.00" fill="#000000">prison_number</text>
<polygon fill="none" stroke="#000000" points="169.5,-117.7 169.5,-136.7 364.5,-136.7 364.5,-117.7 169.5,-117.7"/>
<text text-anchor="start" x="172.5" y="-123.8" font-family="Helvetica,sans-Serif" font-size="11.00" fill="#000000">...</text>
<polygon fill="#ffffff" stroke="transparent" points="169.5,-98.7 169.5,-117.7 364.5,-117.7 364.5,-98.7 169.5,-98.7"/>
<polygon fill="none" stroke="#000000" points="169.5,-98.7 169.5,-117.7 364.5,-117.7 364.5,-98.7 169.5,-98.7"/>
<polygon fill="#ffffff" stroke="transparent" points="170.5,-99.7 170.5,-116.7 232.5,-116.7 232.5,-99.7 170.5,-99.7"/>
<text text-anchor="start" x="172.5" y="-104.8" font-family="Helvetica,sans-Serif" font-size="11.00" fill="#000000"> &#160;</text>
<polygon fill="#ffffff" stroke="transparent" points="232.5,-99.7 232.5,-116.7 293.5,-116.7 293.5,-99.7 232.5,-99.7"/>
<text text-anchor="start" x="259.9431" y="-104.8" font-family="Helvetica,sans-Serif" font-size="11.00" fill="#000000"> &#160;</text>
<polygon fill="#ffffff" stroke="transparent" points="293.5,-99.7 293.5,-116.7 363.5,-116.7 363.5,-99.7 293.5,-99.7"/>
<text text-anchor="start" x="345.9053" y="-104.8" font-family="Helvetica,sans-Serif" font-size="11.00" fill="#000000">3 &gt;</text>
<polygon fill="#000000" stroke="#000000" points="232.5,-99.7 232.5,-116.7 232.5,-116.7 232.5,-99.7 232.5,-99.7"/>
<polygon fill="#000000" stroke="#000000" points="293.5,-99.7 293.5,-116.7 293.5,-116.7 293.5,-99.7 293.5,-99.7"/>
</a>
</g>
</g>
<!-- alert&#45;&gt;person_summary -->
<g id="edge2" class="edge">
<title>alert:w&#45;&gt;person_summary:e</title>
<path fill="none" stroke="#000000" stroke-dasharray="5,2" d="M401.6401,-427.007C362.8003,-386.8391 423.418,-147.7 364.5,-147.7"/>
<polygon fill="#000000" stroke="#000000" points="407.6403,-429.5638 413.5887,-436.0119 411.3202,-431.1319 415,-432.7 415,-432.7 415,-432.7 411.3202,-431.1319 416.4113,-429.3881 407.6403,-429.5638 407.6403,-429.5638"/>
<ellipse fill="none" stroke="#000000" cx="404.6965" cy="-428.3094" rx="3.2" ry="3.2"/>
</g>
<!-- alert_type -->
<g id="node4" class="node">
<title>alert_type</title>
<g id="a_node4"><a xlink:href="../../tables/alert_type.html" xlink:title="alert_type" target="_top">
<polygon fill="#ffffff" stroke="transparent" points="8,-458.2 8,-519.2 120,-519.2 120,-458.2 8,-458.2"/>
<polygon fill="#f5f5f5" stroke="transparent" points="8,-495.7 8,-518.7 120,-518.7 120,-495.7 8,-495.7"/>
<polygon fill="none" stroke="#000000" points="8,-495.7 8,-518.7 120,-518.7 120,-495.7 8,-495.7"/>
<text text-anchor="start" x="13" y="-504.3" font-family="Helvetica,sans-Serif" font-weight="bold" font-size="11.00" fill="#000000">alert_type</text>
<text text-anchor="start" x="85.5219" y="-503.8" font-family="Helvetica,sans-Serif" font-size="11.00" fill="#000000">[table]</text>
<polygon fill="none" stroke="#000000" points="8,-476.7 8,-495.7 120,-495.7 120,-476.7 8,-476.7"/>
<text text-anchor="start" x="11" y="-482.8" font-family="Helvetica,sans-Serif" font-size="11.00" fill="#000000">...</text>
<polygon fill="#ffffff" stroke="transparent" points="8,-457.7 8,-476.7 120,-476.7 120,-457.7 8,-457.7"/>
<polygon fill="none" stroke="#000000" points="8,-457.7 8,-476.7 120,-476.7 120,-457.7 8,-457.7"/>
<polygon fill="#ffffff" stroke="transparent" points="9,-458.7 9,-475.7 43,-475.7 43,-458.7 9,-458.7"/>
<text text-anchor="start" x="11" y="-463.8" font-family="Helvetica,sans-Serif" font-size="11.00" fill="#000000"> &#160;</text>
<polygon fill="#ffffff" stroke="transparent" points="43,-458.7 43,-475.7 77,-475.7 77,-458.7 43,-458.7"/>
<text text-anchor="start" x="56.9431" y="-463.8" font-family="Helvetica,sans-Serif" font-size="11.00" fill="#000000"> &#160;</text>
<polygon fill="#ffffff" stroke="transparent" points="77,-458.7 77,-475.7 119,-475.7 119,-458.7 77,-458.7"/>
<text text-anchor="start" x="101.4053" y="-463.8" font-family="Helvetica,sans-Serif" font-size="11.00" fill="#000000">1 &gt;</text>
<polygon fill="#000000" stroke="#000000" points="43,-458.7 43,-475.7 43,-475.7 43,-458.7 43,-458.7"/>
<polygon fill="#000000" stroke="#000000" points="77,-458.7 77,-475.7 77,-475.7 77,-458.7 77,-458.7"/>
</a>
</g>
</g>
<!-- alert_code&#45;&gt;alert_type -->
<g id="edge3" class="edge">
<title>alert_code:w&#45;&gt;alert_type:e</title>
<path fill="none" stroke="#000000" d="M185.827,-485.7C161.3742,-485.7 150.3273,-485.7 120,-485.7"/>
<polygon fill="#000000" stroke="#000000" points="192.5,-485.7001 200.5,-489.3 196.5,-485.7 200.5,-485.7 200.5,-485.7 200.5,-485.7 196.5,-485.7 200.5,-482.1 192.5,-485.7001 192.5,-485.7001"/>
<ellipse fill="none" stroke="#000000" cx="189.3" cy="-485.7001" rx="3.2" ry="3.2"/>
</g>
<!-- alert_code_privileged_user -->
<g id="node5" class="node">
<title>alert_code_privileged_user</title>
<g id="a_node5"><a xlink:href="../../tables/alert_code_privileged_user.html" xlink:title="alert_code_privileged_user" target="_top">
<polygon fill="#ffffff" stroke="transparent" points="453.5,-534.2 453.5,-595.2 686.5,-595.2 686.5,-534.2 453.5,-534.2"/>
<polygon fill="#f5f5f5" stroke="transparent" points="454,-571.7 454,-594.7 687,-594.7 687,-571.7 454,-571.7"/>
<polygon fill="none" stroke="#000000" points="454,-571.7 454,-594.7 687,-594.7 687,-571.7 454,-571.7"/>
<text text-anchor="start" x="459" y="-580.3" font-family="Helvetica,sans-Serif" font-weight="bold" font-size="11.00" fill="#000000">alert_code_privileged_user</text>
<text text-anchor="start" x="652.5219" y="-579.8" font-family="Helvetica,sans-Serif" font-size="11.00" fill="#000000">[table]</text>
<polygon fill="none" stroke="#000000" points="454,-552.7 454,-571.7 687,-571.7 687,-552.7 454,-552.7"/>
<text text-anchor="start" x="457" y="-558.8" font-family="Helvetica,sans-Serif" font-size="11.00" fill="#000000">...</text>
<polygon fill="#ffffff" stroke="transparent" points="454,-533.7 454,-552.7 687,-552.7 687,-533.7 454,-533.7"/>
<polygon fill="none" stroke="#000000" points="454,-533.7 454,-552.7 687,-552.7 687,-533.7 454,-533.7"/>
<polygon fill="#ffffff" stroke="transparent" points="455,-534.7 455,-551.7 538,-551.7 538,-534.7 455,-534.7"/>
<text text-anchor="start" x="457" y="-539.8" font-family="Helvetica,sans-Serif" font-size="11.00" fill="#000000">&lt; 1</text>
<polygon fill="#ffffff" stroke="transparent" points="538,-534.7 538,-551.7 612,-551.7 612,-534.7 538,-534.7"/>
<text text-anchor="start" x="571.9431" y="-539.8" font-family="Helvetica,sans-Serif" font-size="11.00" fill="#000000"> &#160;</text>
<polygon fill="#ffffff" stroke="transparent" points="612,-534.7 612,-551.7 686,-551.7 686,-534.7 612,-534.7"/>
<text text-anchor="start" x="677.8862" y="-539.8" font-family="Helvetica,sans-Serif" font-size="11.00" fill="#000000"> &#160;</text>
<polygon fill="#000000" stroke="#000000" points="538,-534.7 538,-551.7 538,-551.7 538,-534.7 538,-534.7"/>
<polygon fill="#000000" stroke="#000000" points="612,-534.7 612,-551.7 612,-551.7 612,-534.7 612,-534.7"/>
</a>
</g>
</g>
<!-- alert_code_privileged_user&#45;&gt;alert_code -->
<g id="edge4" class="edge">
<title>alert_code_privileged_user:w&#45;&gt;alert_code:e</title>
<path fill="none" stroke="#000000" d="M439.6357,-560.5219C393.8935,-552.6249 386.3994,-507.7 332.5,-507.7"/>
<polygon fill="#000000" stroke="#000000" points="446.0268,-561.046 453.7057,-565.288 450.0134,-561.373 454,-561.7 454,-561.7 454,-561.7 450.0134,-561.373 454.2943,-558.112 446.0268,-561.046 446.0268,-561.046"/>
<ellipse fill="none" stroke="#000000" cx="442.8375" cy="-560.7844" rx="3.2" ry="3.2"/>
</g>
<!-- audit_event -->
<g id="node6" class="node">
<title>audit_event</title>
<g id="a_node6"><a xlink:href="../../tables/audit_event.html" xlink:title="audit_event" target="_top">
<polygon fill="#ffffff" stroke="transparent" points="776,-406.2 776,-577.2 990,-577.2 990,-406.2 776,-406.2"/>
<polygon fill="#f5f5f5" stroke="transparent" points="776,-553.7 776,-576.7 990,-576.7 990,-553.7 776,-553.7"/>
<polygon fill="none" stroke="#000000" points="776,-553.7 776,-576.7 990,-576.7 990,-553.7 776,-553.7"/>
<text text-anchor="start" x="781" y="-562.3" font-family="Helvetica,sans-Serif" font-weight="bold" font-size="11.00" fill="#000000">audit_event</text>
<text text-anchor="start" x="955.0437" y="-561.8" font-family="Helvetica,sans-Serif" font-size="11.00" fill="#000000">[table]</text>
<polygon fill="#ffffff" stroke="transparent" points="776,-531.7 776,-553.7 990,-553.7 990,-531.7 776,-531.7"/>
<polygon fill="none" stroke="#000000" points="776,-531.7 776,-553.7 990,-553.7 990,-531.7 776,-531.7"/>
<text text-anchor="start" x="796" y="-538.8" font-family="Helvetica,sans-Serif" font-size="11.00" fill="#000000">action</text>
<polygon fill="#ffffff" stroke="transparent" points="776,-509.7 776,-531.7 990,-531.7 990,-509.7 776,-509.7"/>
<polygon fill="none" stroke="#000000" points="776,-509.7 776,-531.7 990,-531.7 990,-509.7 776,-509.7"/>
<text text-anchor="start" x="796" y="-516.8" font-family="Helvetica,sans-Serif" font-size="11.00" fill="#000000">actioned_at</text>
<polygon fill="#ffffff" stroke="transparent" points="776,-487.7 776,-509.7 990,-509.7 990,-487.7 776,-487.7"/>
<polygon fill="none" stroke="#000000" points="776,-487.7 776,-509.7 990,-509.7 990,-487.7 776,-487.7"/>
<text text-anchor="start" x="796" y="-494.8" font-family="Helvetica,sans-Serif" font-size="11.00" fill="#000000">actioned_by</text>
<polygon fill="#ffffff" stroke="transparent" points="776,-465.7 776,-487.7 990,-487.7 990,-465.7 776,-465.7"/>
<polygon fill="none" stroke="#000000" points="776,-465.7 776,-487.7 990,-487.7 990,-465.7 776,-465.7"/>
<image xlink:href="../../images/foreignKeys.png" width="11px" height="12px" preserveAspectRatio="xMinYMin meet" x="781" y="-482.7"/>
<text text-anchor="start" x="796" y="-472.8" font-family="Helvetica,sans-Serif" font-size="11.00" fill="#000000">alert_id</text>
<polygon fill="none" stroke="#000000" points="776,-443.7 776,-465.7 990,-465.7 990,-443.7 776,-443.7"/>
<image xlink:href="../../images/primaryKeys.png" width="11px" height="12px" preserveAspectRatio="xMinYMin meet" x="781" y="-460.7"/>
<text text-anchor="start" x="796" y="-450.8" font-family="Helvetica,sans-Serif" font-size="11.00" fill="#000000">id</text>
<polygon fill="none" stroke="#000000" points="776,-424.7 776,-443.7 990,-443.7 990,-424.7 776,-424.7"/>
<text text-anchor="start" x="779" y="-430.8" font-family="Helvetica,sans-Serif" font-size="11.00" fill="#000000">...</text>
<polygon fill="#ffffff" stroke="transparent" points="776,-405.7 776,-424.7 990,-424.7 990,-405.7 776,-405.7"/>
<polygon fill="none" stroke="#000000" points="776,-405.7 776,-424.7 990,-424.7 990,-405.7 776,-405.7"/>
<polygon fill="#ffffff" stroke="transparent" points="777,-406.7 777,-423.7 854,-423.7 854,-406.7 777,-406.7"/>
<text text-anchor="start" x="779" y="-411.8" font-family="Helvetica,sans-Serif" font-size="11.00" fill="#000000">&lt; 1</text>
<polygon fill="#ffffff" stroke="transparent" points="854,-406.7 854,-423.7 922,-423.7 922,-406.7 854,-406.7"/>
<text text-anchor="start" x="884.9431" y="-411.8" font-family="Helvetica,sans-Serif" font-size="11.00" fill="#000000"> &#160;</text>
<polygon fill="#ffffff" stroke="transparent" points="922,-406.7 922,-423.7 989,-423.7 989,-406.7 922,-406.7"/>
<text text-anchor="start" x="980.8862" y="-411.8" font-family="Helvetica,sans-Serif" font-size="11.00" fill="#000000"> &#160;</text>
<polygon fill="#000000" stroke="#000000" points="854,-406.7 854,-423.7 854,-423.7 854,-406.7 854,-406.7"/>
<polygon fill="#000000" stroke="#000000" points="922,-406.7 922,-423.7 922,-423.7 922,-406.7 922,-406.7"/>
</a>
</g>
</g>
<!-- audit_event&#45;&gt;alert -->
<g id="edge5" class="edge">
<title>audit_event:w&#45;&gt;alert:e</title>
<path fill="none" stroke="#000000" d="M761.276,-476.7C749.2815,-476.7 741.8229,-476.7 725,-476.7"/>
<polygon fill="#000000" stroke="#000000" points="768,-476.7001 776,-480.3 772,-476.7 776,-476.7 776,-476.7 776,-476.7 772,-476.7 776,-473.1 768,-476.7001 768,-476.7001"/>
<ellipse fill="none" stroke="#000000" cx="764.8" cy="-476.7001" rx="3.2" ry="3.2"/>
</g>
<!-- plan_person -->
<g id="node7" class="node">
<title>plan_person</title>
<g id="a_node7"><a xlink:href="../../tables/plan_person.html" xlink:title="plan_person" target="_top">
<polygon fill="#ffffff" stroke="transparent" points="506.5,-120.2 506.5,-181.2 633.5,-181.2 633.5,-120.2 506.5,-120.2"/>
<polygon fill="#f5f5f5" stroke="transparent" points="507,-157.7 507,-180.7 634,-180.7 634,-157.7 507,-157.7"/>
<polygon fill="none" stroke="#000000" points="507,-157.7 507,-180.7 634,-180.7 634,-157.7 507,-157.7"/>
<text text-anchor="start" x="512" y="-166.3" font-family="Helvetica,sans-Serif" font-weight="bold" font-size="11.00" fill="#000000">plan_person</text>
<text text-anchor="start" x="599.5219" y="-165.8" font-family="Helvetica,sans-Serif" font-size="11.00" fill="#000000">[table]</text>
<polygon fill="none" stroke="#000000" points="507,-138.7 507,-157.7 634,-157.7 634,-138.7 507,-138.7"/>
<text text-anchor="start" x="510" y="-144.8" font-family="Helvetica,sans-Serif" font-size="11.00" fill="#000000">...</text>
<polygon fill="#ffffff" stroke="transparent" points="507,-119.7 507,-138.7 634,-138.7 634,-119.7 507,-119.7"/>
<polygon fill="none" stroke="#000000" points="507,-119.7 507,-138.7 634,-138.7 634,-119.7 507,-119.7"/>
<polygon fill="#ffffff" stroke="transparent" points="508,-120.7 508,-137.7 556,-137.7 556,-120.7 508,-120.7"/>
<text text-anchor="start" x="510" y="-125.8" font-family="Helvetica,sans-Serif" font-size="11.00" fill="#000000">&lt; 2</text>
<polygon fill="#ffffff" stroke="transparent" points="556,-120.7 556,-137.7 595,-137.7 595,-120.7 556,-120.7"/>
<text text-anchor="start" x="572.4431" y="-125.8" font-family="Helvetica,sans-Serif" font-size="11.00" fill="#000000"> &#160;</text>
<polygon fill="#ffffff" stroke="transparent" points="595,-120.7 595,-137.7 633,-137.7 633,-120.7 595,-120.7"/>
<text text-anchor="start" x="624.8862" y="-125.8" font-family="Helvetica,sans-Serif" font-size="11.00" fill="#000000"> &#160;</text>
<polygon fill="#000000" stroke="#000000" points="556,-120.7 556,-137.7 556,-137.7 556,-120.7 556,-120.7"/>
<polygon fill="#000000" stroke="#000000" points="595,-120.7 595,-137.7 595,-137.7 595,-120.7 595,-120.7"/>
</a>
</g>
</g>
<!-- plan_person&#45;&gt;person_summary -->
<g id="edge6" class="edge">
<title>plan_person:w&#45;&gt;person_summary:e</title>
<path fill="none" stroke="#000000" d="M492.3205,-147.7C440.7494,-147.7 422.638,-147.7 364.5,-147.7"/>
<polygon fill="#000000" stroke="#000000" points="499,-147.7001 507,-151.3 503,-147.7 507,-147.7 507,-147.7 507,-147.7 503,-147.7 507,-144.1 499,-147.7001 499,-147.7001"/>
<ellipse fill="none" stroke="#000000" cx="495.8" cy="-147.7001" rx="3.2" ry="3.2"/>
</g>
<!-- resync_audit -->
<g id="node8" class="node">
<title>resync_audit</title>
<g id="a_node8"><a xlink:href="../../tables/resync_audit.html" xlink:title="resync_audit" target="_top">
<polygon fill="#ffffff" stroke="transparent" points="504.5,-38.2 504.5,-99.2 635.5,-99.2 635.5,-38.2 504.5,-38.2"/>
<polygon fill="#f5f5f5" stroke="transparent" points="505,-75.7 505,-98.7 636,-98.7 636,-75.7 505,-75.7"/>
<polygon fill="none" stroke="#000000" points="505,-75.7 505,-98.7 636,-98.7 636,-75.7 505,-75.7"/>
<text text-anchor="start" x="510" y="-84.3" font-family="Helvetica,sans-Serif" font-weight="bold" font-size="11.00" fill="#000000">resync_audit</text>
<text text-anchor="start" x="601.5219" y="-83.8" font-family="Helvetica,sans-Serif" font-size="11.00" fill="#000000">[table]</text>
<polygon fill="none" stroke="#000000" points="505,-56.7 505,-75.7 636,-75.7 636,-56.7 505,-56.7"/>
<text text-anchor="start" x="508" y="-62.8" font-family="Helvetica,sans-Serif" font-size="11.00" fill="#000000">...</text>
<polygon fill="#ffffff" stroke="transparent" points="505,-37.7 505,-56.7 636,-56.7 636,-37.7 505,-37.7"/>
<polygon fill="none" stroke="#000000" points="505,-37.7 505,-56.7 636,-56.7 636,-37.7 505,-37.7"/>
<polygon fill="#ffffff" stroke="transparent" points="506,-38.7 506,-55.7 555,-55.7 555,-38.7 506,-38.7"/>
<text text-anchor="start" x="508" y="-43.8" font-family="Helvetica,sans-Serif" font-size="11.00" fill="#000000">&lt; 1</text>
<polygon fill="#ffffff" stroke="transparent" points="555,-38.7 555,-55.7 595,-55.7 595,-38.7 555,-38.7"/>
<text text-anchor="start" x="571.9431" y="-43.8" font-family="Helvetica,sans-Serif" font-size="11.00" fill="#000000"> &#160;</text>
<polygon fill="#ffffff" stroke="transparent" points="595,-38.7 595,-55.7 635,-55.7 635,-38.7 595,-38.7"/>
<text text-anchor="start" x="626.8862" y="-43.8" font-family="Helvetica,sans-Serif" font-size="11.00" fill="#000000"> &#160;</text>
<polygon fill="#000000" stroke="#000000" points="555,-38.7 555,-55.7 555,-55.7 555,-38.7 555,-38.7"/>
<polygon fill="#000000" stroke="#000000" points="595,-38.7 595,-55.7 595,-55.7 595,-38.7 595,-38.7"/>
</a>
</g>
</g>
<!-- resync_audit&#45;&gt;person_summary -->
<g id="edge7" class="edge">
<title>resync_audit:w&#45;&gt;person_summary:e</title>
<path fill="none" stroke="#000000" stroke-dasharray="5,2" d="M490.3297,-66.3082C453.6976,-69.5825 441.0774,-85.8546 405,-109.7 384.4086,-123.3099 389.1827,-147.7 364.5,-147.7"/>
<polygon fill="#000000" stroke="#000000" points="497.0069,-66.0314 505.1491,-69.2969 501.0034,-65.8657 505,-65.7 505,-65.7 505,-65.7 501.0034,-65.8657 504.8509,-62.1031 497.0069,-66.0314 497.0069,-66.0314"/>
<ellipse fill="none" stroke="#000000" cx="493.8096" cy="-66.164" rx="3.2" ry="3.2"/>
</g>
</g>
</svg>
