<?xml version="1.0" encoding="UTF-8" standalone="no"?>
<!DOCTYPE svg PUBLIC "-//W3C//DTD SVG 1.1//EN"
 "http://www.w3.org/Graphics/SVG/1.1/DTD/svg11.dtd">
<!-- Generated by graphviz version 2.40.1 (20161225.0304)
 -->
<!-- Title: twoDegreesRelationshipsDiagramImplied Pages: 1 -->
<svg width="841pt" height="486pt"
 viewBox="0.00 0.00 841.00 485.70" xmlns="http://www.w3.org/2000/svg" xmlns:xlink="http://www.w3.org/1999/xlink">
<g id="graph0" class="graph" transform="scale(1 1) rotate(0) translate(4 481.7)">
<title>twoDegreesRelationshipsDiagramImplied</title>
<polygon fill="#ffffff" stroke="transparent" points="-4,4 -4,-481.7 837,-481.7 837,4 -4,4"/>
<text text-anchor="middle" x="72.4936" y="-7.3" font-family="Helvetica,sans-Serif" font-size="11.00" fill="#000000">Generated by SchemaSpy</text>
<!-- alert -->
<g id="node1" class="node">
<title>alert</title>
<g id="a_node1"><a xlink:href="../../tables/alert.html" xlink:title="alert" target="_top">
<polygon fill="#ffffff" stroke="transparent" points="448.5,-38.2 448.5,-275.2 649.5,-275.2 649.5,-38.2 448.5,-38.2"/>
<polygon fill="#f5f5f5" stroke="transparent" points="449,-251.7 449,-274.7 650,-274.7 650,-251.7 449,-251.7"/>
<polygon fill="none" stroke="#000000" points="449,-251.7 449,-274.7 650,-274.7 650,-251.7 449,-251.7"/>
<text text-anchor="start" x="454" y="-260.3" font-family="Helvetica,sans-Serif" font-weight="bold" font-size="11.00" fill="#000000">alert</text>
<text text-anchor="start" x="615.0437" y="-259.8" font-family="Helvetica,sans-Serif" font-size="11.00" fill="#000000">[table]</text>
<polygon fill="none" stroke="#000000" points="449,-229.7 449,-251.7 650,-251.7 650,-229.7 449,-229.7"/>
<image xlink:href="../../images/primaryKeys.png" width="11px" height="12px" preserveAspectRatio="xMinYMin meet" x="454" y="-246.7"/>
<text text-anchor="start" x="469" y="-236.8" font-family="Helvetica,sans-Serif" font-size="11.00" fill="#000000">id</text>
<polygon fill="#ffffff" stroke="transparent" points="449,-207.7 449,-229.7 650,-229.7 650,-207.7 449,-207.7"/>
<polygon fill="none" stroke="#000000" points="449,-207.7 449,-229.7 650,-229.7 650,-207.7 449,-207.7"/>
<image xlink:href="../../images/foreignKeys.png" width="11px" height="12px" preserveAspectRatio="xMinYMin meet" x="454" y="-224.7"/>
<text text-anchor="start" x="469" y="-214.8" font-family="Helvetica,sans-Serif" font-size="11.00" fill="#000000">alert_code_id</text>
<polygon fill="#ffffff" stroke="transparent" points="449,-185.7 449,-207.7 650,-207.7 650,-185.7 449,-185.7"/>
<polygon fill="none" stroke="#000000" points="449,-185.7 449,-207.7 650,-207.7 650,-185.7 449,-185.7"/>
<image xlink:href="../../images/foreignKeys.png" width="11px" height="12px" preserveAspectRatio="xMinYMin meet" x="454" y="-202.7"/>
<text text-anchor="start" x="469" y="-192.8" font-family="Helvetica,sans-Serif" font-size="11.00" fill="#000000">prison_number</text>
<polygon fill="#ffffff" stroke="transparent" points="449,-163.7 449,-185.7 650,-185.7 650,-163.7 449,-163.7"/>
<polygon fill="none" stroke="#000000" points="449,-163.7 449,-185.7 650,-185.7 650,-163.7 449,-163.7"/>
<text text-anchor="start" x="469" y="-170.8" font-family="Helvetica,sans-Serif" font-size="11.00" fill="#000000">active_from</text>
<polygon fill="#ffffff" stroke="transparent" points="449,-141.7 449,-163.7 650,-163.7 650,-141.7 449,-141.7"/>
<polygon fill="none" stroke="#000000" points="449,-141.7 449,-163.7 650,-163.7 650,-141.7 449,-141.7"/>
<text text-anchor="start" x="469" y="-148.8" font-family="Helvetica,sans-Serif" font-size="11.00" fill="#000000">active_to</text>
<polygon fill="#ffffff" stroke="transparent" points="449,-119.7 449,-141.7 650,-141.7 650,-119.7 449,-119.7"/>
<polygon fill="none" stroke="#000000" points="449,-119.7 449,-141.7 650,-141.7 650,-119.7 449,-119.7"/>
<text text-anchor="start" x="469" y="-126.8" font-family="Helvetica,sans-Serif" font-size="11.00" fill="#000000">deleted_at</text>
<polygon fill="#ffffff" stroke="transparent" points="449,-97.7 449,-119.7 650,-119.7 650,-97.7 449,-97.7"/>
<polygon fill="none" stroke="#000000" points="449,-97.7 449,-119.7 650,-119.7 650,-97.7 449,-97.7"/>
<text text-anchor="start" x="469" y="-104.8" font-family="Helvetica,sans-Serif" font-size="11.00" fill="#000000">created_at</text>
<polygon fill="#ffffff" stroke="transparent" points="449,-75.7 449,-97.7 650,-97.7 650,-75.7 449,-75.7"/>
<polygon fill="none" stroke="#000000" points="449,-75.7 449,-97.7 650,-97.7 650,-75.7 449,-75.7"/>
<text text-anchor="start" x="469" y="-82.8" font-family="Helvetica,sans-Serif" font-size="11.00" fill="#000000">last_modified_at</text>
<polygon fill="none" stroke="#000000" points="449,-56.7 449,-75.7 650,-75.7 650,-56.7 449,-56.7"/>
<text text-anchor="start" x="452" y="-62.8" font-family="Helvetica,sans-Serif" font-size="11.00" fill="#000000">...</text>
<polygon fill="#ffffff" stroke="transparent" points="449,-37.7 449,-56.7 543,-56.7 543,-37.7 449,-37.7"/>
<polygon fill="none" stroke="#000000" points="449,-37.7 449,-56.7 543,-56.7 543,-37.7 449,-37.7"/>
<text text-anchor="start" x="452" y="-43.8" font-family="Helvetica,sans-Serif" font-size="11.00" fill="#000000">&lt; 2</text>
<polygon fill="#ffffff" stroke="transparent" points="543,-37.7 543,-56.7 592,-56.7 592,-37.7 543,-37.7"/>
<polygon fill="none" stroke="#000000" points="543,-37.7 543,-56.7 592,-56.7 592,-37.7 543,-37.7"/>
<text text-anchor="start" x="582.8862" y="-43.8" font-family="Helvetica,sans-Serif" font-size="11.00" fill="#000000"> &#160;</text>
<polygon fill="#ffffff" stroke="transparent" points="592,-37.7 592,-56.7 650,-56.7 650,-37.7 592,-37.7"/>
<polygon fill="none" stroke="#000000" points="592,-37.7 592,-56.7 650,-56.7 650,-37.7 592,-37.7"/>
<text text-anchor="start" x="631.4053" y="-43.8" font-family="Helvetica,sans-Serif" font-size="11.00" fill="#000000">1 &gt;</text>
</a>
</g>
</g>
<!-- alert_code -->
<g id="node2" class="node">
<title>alert_code</title>
<g id="a_node2"><a xlink:href="../../tables/alert_code.html" xlink:title="alert_code" target="_top">
<polygon fill="#ffffff" stroke="transparent" points="180,-163.7 180,-473.7 391,-473.7 391,-163.7 180,-163.7"/>
<polygon fill="#f5f5f5" stroke="transparent" points="182.5,-448.7 182.5,-471.7 389.5,-471.7 389.5,-448.7 182.5,-448.7"/>
<polygon fill="none" stroke="#000000" points="182.5,-448.7 182.5,-471.7 389.5,-471.7 389.5,-448.7 182.5,-448.7"/>
<text text-anchor="start" x="187.5" y="-457.3" font-family="Helvetica,sans-Serif" font-weight="bold" font-size="11.00" fill="#000000">alert_code</text>
<text text-anchor="start" x="354.5437" y="-456.8" font-family="Helvetica,sans-Serif" font-size="11.00" fill="#000000">[table]</text>
<polygon fill="none" stroke="#000000" points="182.5,-426.7 182.5,-448.7 305.5,-448.7 305.5,-426.7 182.5,-426.7"/>
<image xlink:href="../../images/primaryKeys.png" width="11px" height="12px" preserveAspectRatio="xMinYMin meet" x="187.5" y="-443.7"/>
<text text-anchor="start" x="202.5" y="-433.8" font-family="Helvetica,sans-Serif" font-size="11.00" fill="#000000">alert_code_id</text>
<polygon fill="none" stroke="#000000" points="305.5,-426.7 305.5,-448.7 389.5,-448.7 389.5,-426.7 305.5,-426.7"/>
<text text-anchor="start" x="308.5" y="-434.4" font-family="Helvetica,sans-Serif" font-size="11.00" fill="#000000">bigserial[19]</text>
<polygon fill="#ffffff" stroke="transparent" points="182.5,-404.7 182.5,-426.7 305.5,-426.7 305.5,-404.7 182.5,-404.7"/>
<polygon fill="none" stroke="#000000" points="182.5,-404.7 182.5,-426.7 305.5,-426.7 305.5,-404.7 182.5,-404.7"/>
<image xlink:href="../../images/foreignKeys.png" width="11px" height="12px" preserveAspectRatio="xMinYMin meet" x="187.5" y="-421.7"/>
<text text-anchor="start" x="202.5" y="-411.8" font-family="Helvetica,sans-Serif" font-size="11.00" fill="#000000">alert_type_id</text>
<polygon fill="none" stroke="#000000" points="305.5,-404.7 305.5,-426.7 389.5,-426.7 389.5,-404.7 305.5,-404.7"/>
<text text-anchor="start" x="308.5" y="-412.4" font-family="Helvetica,sans-Serif" font-size="11.00" fill="#000000">int8[19]</text>
<polygon fill="#ffffff" stroke="transparent" points="182.5,-382.7 182.5,-404.7 305.5,-404.7 305.5,-382.7 182.5,-382.7"/>
<polygon fill="none" stroke="#000000" points="182.5,-382.7 182.5,-404.7 305.5,-404.7 305.5,-382.7 182.5,-382.7"/>
<text text-anchor="start" x="202.5" y="-389.8" font-family="Helvetica,sans-Serif" font-size="11.00" fill="#000000">code</text>
<polygon fill="none" stroke="#000000" points="305.5,-382.7 305.5,-404.7 389.5,-404.7 389.5,-382.7 305.5,-382.7"/>
<text text-anchor="start" x="308.5" y="-390.4" font-family="Helvetica,sans-Serif" font-size="11.00" fill="#000000">varchar[12]</text>
<polygon fill="none" stroke="#000000" points="182.5,-360.7 182.5,-382.7 305.5,-382.7 305.5,-360.7 182.5,-360.7"/>
<text text-anchor="start" x="202.5" y="-367.8" font-family="Helvetica,sans-Serif" font-size="11.00" fill="#000000">description</text>
<polygon fill="none" stroke="#000000" points="305.5,-360.7 305.5,-382.7 389.5,-382.7 389.5,-360.7 305.5,-360.7"/>
<text text-anchor="start" x="308.5" y="-368.4" font-family="Helvetica,sans-Serif" font-size="11.00" fill="#000000">varchar[40]</text>
<polygon fill="#ffffff" stroke="transparent" points="182.5,-338.7 182.5,-360.7 305.5,-360.7 305.5,-338.7 182.5,-338.7"/>
<polygon fill="none" stroke="#000000" points="182.5,-338.7 182.5,-360.7 305.5,-360.7 305.5,-338.7 182.5,-338.7"/>
<text text-anchor="start" x="202.5" y="-345.8" font-family="Helvetica,sans-Serif" font-size="11.00" fill="#000000">list_sequence</text>
<polygon fill="none" stroke="#000000" points="305.5,-338.7 305.5,-360.7 389.5,-360.7 389.5,-338.7 305.5,-338.7"/>
<text text-anchor="start" x="308.5" y="-346.4" font-family="Helvetica,sans-Serif" font-size="11.00" fill="#000000">int4[10]</text>
<polygon fill="#ffffff" stroke="transparent" points="182.5,-316.7 182.5,-338.7 305.5,-338.7 305.5,-316.7 182.5,-316.7"/>
<polygon fill="none" stroke="#000000" points="182.5,-316.7 182.5,-338.7 305.5,-338.7 305.5,-316.7 182.5,-316.7"/>
<text text-anchor="start" x="202.5" y="-323.8" font-family="Helvetica,sans-Serif" font-size="11.00" fill="#000000">created_at</text>
<polygon fill="none" stroke="#000000" points="305.5,-316.7 305.5,-338.7 389.5,-338.7 389.5,-316.7 305.5,-316.7"/>
<text text-anchor="start" x="308.3807" y="-324.4" font-family="Helvetica,sans-Serif" font-size="11.00" fill="#000000">timestamp[29,6]</text>
<polygon fill="none" stroke="#000000" points="182.5,-294.7 182.5,-316.7 305.5,-316.7 305.5,-294.7 182.5,-294.7"/>
<text text-anchor="start" x="202.5" y="-301.8" font-family="Helvetica,sans-Serif" font-size="11.00" fill="#000000">created_by</text>
<polygon fill="none" stroke="#000000" points="305.5,-294.7 305.5,-316.7 389.5,-316.7 389.5,-294.7 305.5,-294.7"/>
<text text-anchor="start" x="308.5" y="-302.4" font-family="Helvetica,sans-Serif" font-size="11.00" fill="#000000">varchar[64]</text>
<polygon fill="none" stroke="#000000" points="182.5,-272.7 182.5,-294.7 305.5,-294.7 305.5,-272.7 182.5,-272.7"/>
<text text-anchor="start" x="202.5" y="-279.8" font-family="Helvetica,sans-Serif" font-size="11.00" fill="#000000">modified_at</text>
<polygon fill="none" stroke="#000000" points="305.5,-272.7 305.5,-294.7 389.5,-294.7 389.5,-272.7 305.5,-272.7"/>
<text text-anchor="start" x="308.3807" y="-280.4" font-family="Helvetica,sans-Serif" font-size="11.00" fill="#000000">timestamp[29,6]</text>
<polygon fill="none" stroke="#000000" points="182.5,-250.7 182.5,-272.7 305.5,-272.7 305.5,-250.7 182.5,-250.7"/>
<text text-anchor="start" x="202.5" y="-257.8" font-family="Helvetica,sans-Serif" font-size="11.00" fill="#000000">modified_by</text>
<polygon fill="none" stroke="#000000" points="305.5,-250.7 305.5,-272.7 389.5,-272.7 389.5,-250.7 305.5,-250.7"/>
<text text-anchor="start" x="308.5" y="-258.4" font-family="Helvetica,sans-Serif" font-size="11.00" fill="#000000">varchar[64]</text>
<polygon fill="#ffffff" stroke="transparent" points="182.5,-228.7 182.5,-250.7 305.5,-250.7 305.5,-228.7 182.5,-228.7"/>
<polygon fill="none" stroke="#000000" points="182.5,-228.7 182.5,-250.7 305.5,-250.7 305.5,-228.7 182.5,-228.7"/>
<text text-anchor="start" x="202.5" y="-235.8" font-family="Helvetica,sans-Serif" font-size="11.00" fill="#000000">deactivated_at</text>
<polygon fill="none" stroke="#000000" points="305.5,-228.7 305.5,-250.7 389.5,-250.7 389.5,-228.7 305.5,-228.7"/>
<text text-anchor="start" x="308.3807" y="-236.4" font-family="Helvetica,sans-Serif" font-size="11.00" fill="#000000">timestamp[29,6]</text>
<polygon fill="none" stroke="#000000" points="182.5,-206.7 182.5,-228.7 305.5,-228.7 305.5,-206.7 182.5,-206.7"/>
<text text-anchor="start" x="202.5" y="-213.8" font-family="Helvetica,sans-Serif" font-size="11.00" fill="#000000">deactivated_by</text>
<polygon fill="none" stroke="#000000" points="305.5,-206.7 305.5,-228.7 389.5,-228.7 389.5,-206.7 305.5,-206.7"/>
<text text-anchor="start" x="308.5" y="-214.4" font-family="Helvetica,sans-Serif" font-size="11.00" fill="#000000">varchar[64]</text>
<polygon fill="none" stroke="#000000" points="182.5,-184.7 182.5,-206.7 305.5,-206.7 305.5,-184.7 182.5,-184.7"/>
<text text-anchor="start" x="202.5" y="-191.8" font-family="Helvetica,sans-Serif" font-size="11.00" fill="#000000">restricted</text>
<polygon fill="none" stroke="#000000" points="305.5,-184.7 305.5,-206.7 389.5,-206.7 389.5,-184.7 305.5,-184.7"/>
<text text-anchor="start" x="308.5" y="-192.4" font-family="Helvetica,sans-Serif" font-size="11.00" fill="#000000">bool[1]</text>
<polygon fill="#ffffff" stroke="transparent" points="182.5,-165.7 182.5,-184.7 248.5,-184.7 248.5,-165.7 182.5,-165.7"/>
<polygon fill="none" stroke="#000000" points="182.5,-165.7 182.5,-184.7 248.5,-184.7 248.5,-165.7 182.5,-165.7"/>
<text text-anchor="start" x="185.5" y="-171.8" font-family="Helvetica,sans-Serif" font-size="11.00" fill="#000000">&lt; 1</text>
<polygon fill="#ffffff" stroke="transparent" points="248.5,-165.7 248.5,-184.7 305.5,-184.7 305.5,-165.7 248.5,-165.7"/>
<polygon fill="none" stroke="#000000" points="248.5,-165.7 248.5,-184.7 305.5,-184.7 305.5,-165.7 248.5,-165.7"/>
<text text-anchor="start" x="296.3862" y="-171.8" font-family="Helvetica,sans-Serif" font-size="11.00" fill="#000000"> &#160;</text>
<polygon fill="#ffffff" stroke="transparent" points="305.5,-165.7 305.5,-184.7 389.5,-184.7 389.5,-165.7 305.5,-165.7"/>
<polygon fill="none" stroke="#000000" points="305.5,-165.7 305.5,-184.7 389.5,-184.7 389.5,-165.7 305.5,-165.7"/>
<text text-anchor="start" x="370.9053" y="-171.8" font-family="Helvetica,sans-Serif" font-size="11.00" fill="#000000">2 &gt;</text>
<polygon fill="none" stroke="#000000" stroke-width="2" points="181,-164.7 181,-472.7 390,-472.7 390,-164.7 181,-164.7"/>
</a>
</g>
</g>
<!-- alert&#45;&gt;alert_code -->
<g id="edge1" class="edge">
<title>alert:w&#45;&gt;alert_code:e</title>
<path fill="none" stroke="#000000" d="M434.5539,-220.5933C362.967,-241.9982 484.8458,-437.7 389.5,-437.7"/>
<polygon fill="#000000" stroke="#000000" points="441.0678,-219.7396 449.4678,-222.2695 445.0339,-219.2198 449,-218.7 449,-218.7 449,-218.7 445.0339,-219.2198 448.5322,-215.1305 441.0678,-219.7396 441.0678,-219.7396"/>
<ellipse fill="none" stroke="#000000" cx="437.895" cy="-220.1555" rx="3.2" ry="3.2"/>
</g>
<!-- person_summary -->
<g id="node3" class="node">
<title>person_summary</title>
<g id="a_node3"><a xlink:href="../../tables/person_summary.html" xlink:title="person_summary" target="_top">
<polygon fill="#ffffff" stroke="transparent" points="208.5,-81.2 208.5,-142.2 362.5,-142.2 362.5,-81.2 208.5,-81.2"/>
<polygon fill="#f5f5f5" stroke="transparent" points="208.5,-118.7 208.5,-141.7 362.5,-141.7 362.5,-118.7 208.5,-118.7"/>
<polygon fill="none" stroke="#000000" points="208.5,-118.7 208.5,-141.7 362.5,-141.7 362.5,-118.7 208.5,-118.7"/>
<text text-anchor="start" x="213.5" y="-127.3" font-family="Helvetica,sans-Serif" font-weight="bold" font-size="11.00" fill="#000000">person_summary</text>
<text text-anchor="start" x="328.0219" y="-126.8" font-family="Helvetica,sans-Serif" font-size="11.00" fill="#000000">[table]</text>
<polygon fill="none" stroke="#000000" points="208.5,-99.7 208.5,-118.7 362.5,-118.7 362.5,-99.7 208.5,-99.7"/>
<text text-anchor="start" x="211.5" y="-105.8" font-family="Helvetica,sans-Serif" font-size="11.00" fill="#000000">...</text>
<polygon fill="#ffffff" stroke="transparent" points="208.5,-80.7 208.5,-99.7 274.5,-99.7 274.5,-80.7 208.5,-80.7"/>
<polygon fill="none" stroke="#000000" points="208.5,-80.7 208.5,-99.7 274.5,-99.7 274.5,-80.7 208.5,-80.7"/>
<text text-anchor="start" x="211.5" y="-86.8" font-family="Helvetica,sans-Serif" font-size="11.00" fill="#000000"> &#160;</text>
<polygon fill="#ffffff" stroke="transparent" points="274.5,-80.7 274.5,-99.7 313.5,-99.7 313.5,-80.7 274.5,-80.7"/>
<polygon fill="none" stroke="#000000" points="274.5,-80.7 274.5,-99.7 313.5,-99.7 313.5,-80.7 274.5,-80.7"/>
<text text-anchor="start" x="304.3862" y="-86.8" font-family="Helvetica,sans-Serif" font-size="11.00" fill="#000000"> &#160;</text>
<polygon fill="#ffffff" stroke="transparent" points="313.5,-80.7 313.5,-99.7 362.5,-99.7 362.5,-80.7 313.5,-80.7"/>
<polygon fill="none" stroke="#000000" points="313.5,-80.7 313.5,-99.7 362.5,-99.7 362.5,-80.7 313.5,-80.7"/>
<text text-anchor="start" x="343.9053" y="-86.8" font-family="Helvetica,sans-Serif" font-size="11.00" fill="#000000">3 &gt;</text>
</a>
</g>
</g>
<!-- alert&#45;&gt;person_summary -->
<g id="edge2" class="edge">
<title>alert:w&#45;&gt;person_summary:e</title>
<path fill="none" stroke="#000000" stroke-dasharray="5,2" d="M434.5413,-194.1612C398.0624,-179.7327 411.7722,-108.7 362.5,-108.7"/>
<polygon fill="#000000" stroke="#000000" points="441.1205,-195.3164 448.3774,-200.2458 445.0603,-196.0082 449,-196.7 449,-196.7 449,-196.7 445.0603,-196.0082 449.6226,-193.1542 441.1205,-195.3164 441.1205,-195.3164"/>
<ellipse fill="none" stroke="#000000" cx="437.9688" cy="-194.763" rx="3.2" ry="3.2"/>
</g>
<!-- alert_type -->
<g id="node4" class="node">
<title>alert_type</title>
<g id="a_node4"><a xlink:href="../../tables/alert_type.html" xlink:title="alert_type" target="_top">
<polygon fill="#ffffff" stroke="transparent" points="8,-279.2 8,-450.2 131,-450.2 131,-279.2 8,-279.2"/>
<polygon fill="#f5f5f5" stroke="transparent" points="8.5,-426.7 8.5,-449.7 131.5,-449.7 131.5,-426.7 8.5,-426.7"/>
<polygon fill="none" stroke="#000000" points="8.5,-426.7 8.5,-449.7 131.5,-449.7 131.5,-426.7 8.5,-426.7"/>
<text text-anchor="start" x="13.5" y="-435.3" font-family="Helvetica,sans-Serif" font-weight="bold" font-size="11.00" fill="#000000">alert_type</text>
<text text-anchor="start" x="96.5437" y="-434.8" font-family="Helvetica,sans-Serif" font-size="11.00" fill="#000000">[table]</text>
<polygon fill="none" stroke="#000000" points="8.5,-404.7 8.5,-426.7 131.5,-426.7 131.5,-404.7 8.5,-404.7"/>
<image xlink:href="../../images/primaryKeys.png" width="11px" height="12px" preserveAspectRatio="xMinYMin meet" x="13.5" y="-421.7"/>
<text text-anchor="start" x="28.5" y="-411.8" font-family="Helvetica,sans-Serif" font-size="11.00" fill="#000000">alert_type_id</text>
<polygon fill="#ffffff" stroke="transparent" points="8.5,-382.7 8.5,-404.7 131.5,-404.7 131.5,-382.7 8.5,-382.7"/>
<polygon fill="none" stroke="#000000" points="8.5,-382.7 8.5,-404.7 131.5,-404.7 131.5,-382.7 8.5,-382.7"/>
<text text-anchor="start" x="28.5" y="-389.8" font-family="Helvetica,sans-Serif" font-size="11.00" fill="#000000">code</text>
<polygon fill="#ffffff" stroke="transparent" points="8.5,-360.7 8.5,-382.7 131.5,-382.7 131.5,-360.7 8.5,-360.7"/>
<polygon fill="none" stroke="#000000" points="8.5,-360.7 8.5,-382.7 131.5,-382.7 131.5,-360.7 8.5,-360.7"/>
<text text-anchor="start" x="28.5" y="-367.8" font-family="Helvetica,sans-Serif" font-size="11.00" fill="#000000">list_sequence</text>
<polygon fill="#ffffff" stroke="transparent" points="8.5,-338.7 8.5,-360.7 131.5,-360.7 131.5,-338.7 8.5,-338.7"/>
<polygon fill="none" stroke="#000000" points="8.5,-338.7 8.5,-360.7 131.5,-360.7 131.5,-338.7 8.5,-338.7"/>
<text text-anchor="start" x="28.5" y="-345.8" font-family="Helvetica,sans-Serif" font-size="11.00" fill="#000000">created_at</text>
<polygon fill="#ffffff" stroke="transparent" points="8.5,-316.7 8.5,-338.7 131.5,-338.7 131.5,-316.7 8.5,-316.7"/>
<polygon fill="none" stroke="#000000" points="8.5,-316.7 8.5,-338.7 131.5,-338.7 131.5,-316.7 8.5,-316.7"/>
<text text-anchor="start" x="28.5" y="-323.8" font-family="Helvetica,sans-Serif" font-size="11.00" fill="#000000">deactivated_at</text>
<polygon fill="none" stroke="#000000" points="8.5,-297.7 8.5,-316.7 131.5,-316.7 131.5,-297.7 8.5,-297.7"/>
<text text-anchor="start" x="11.5" y="-303.8" font-family="Helvetica,sans-Serif" font-size="11.00" fill="#000000">...</text>
<polygon fill="#ffffff" stroke="transparent" points="8.5,-278.7 8.5,-297.7 59.5,-297.7 59.5,-278.7 8.5,-278.7"/>
<polygon fill="none" stroke="#000000" points="8.5,-278.7 8.5,-297.7 59.5,-297.7 59.5,-278.7 8.5,-278.7"/>
<text text-anchor="start" x="11.5" y="-284.8" font-family="Helvetica,sans-Serif" font-size="11.00" fill="#000000"> &#160;</text>
<polygon fill="#ffffff" stroke="transparent" points="59.5,-278.7 59.5,-297.7 90.5,-297.7 90.5,-278.7 59.5,-278.7"/>
<polygon fill="none" stroke="#000000" points="59.5,-278.7 59.5,-297.7 90.5,-297.7 90.5,-278.7 59.5,-278.7"/>
<text text-anchor="start" x="81.3862" y="-284.8" font-family="Helvetica,sans-Serif" font-size="11.00" fill="#000000"> &#160;</text>
<polygon fill="#ffffff" stroke="transparent" points="90.5,-278.7 90.5,-297.7 131.5,-297.7 131.5,-278.7 90.5,-278.7"/>
<polygon fill="none" stroke="#000000" points="90.5,-278.7 90.5,-297.7 131.5,-297.7 131.5,-278.7 90.5,-278.7"/>
<text text-anchor="start" x="112.9053" y="-284.8" font-family="Helvetica,sans-Serif" font-size="11.00" fill="#000000">1 &gt;</text>
</a>
</g>
</g>
<!-- alert_code&#45;&gt;alert_type -->
<g id="edge3" class="edge">
<title>alert_code:w&#45;&gt;alert_type:e</title>
<path fill="none" stroke="#000000" d="M167.776,-415.7C155.7815,-415.7 148.3229,-415.7 131.5,-415.7"/>
<polygon fill="#000000" stroke="#000000" points="174.5,-415.7001 182.5,-419.3 178.5,-415.7 182.5,-415.7 182.5,-415.7 182.5,-415.7 178.5,-415.7 182.5,-412.1 174.5,-415.7001 174.5,-415.7001"/>
<ellipse fill="none" stroke="#000000" cx="171.3" cy="-415.7001" rx="3.2" ry="3.2"/>
</g>
<!-- alert_code_privileged_user -->
<g id="node5" class="node">
<title>alert_code_privileged_user</title>
<g id="a_node5"><a xlink:href="../../tables/alert_code_privileged_user.html" xlink:title="alert_code_privileged_user" target="_top">
<polygon fill="#ffffff" stroke="transparent" points="440,-385.7 440,-471.7 658,-471.7 658,-385.7 440,-385.7"/>
<polygon fill="#f5f5f5" stroke="transparent" points="440,-448.7 440,-471.7 658,-471.7 658,-448.7 440,-448.7"/>
<polygon fill="none" stroke="#000000" points="440,-448.7 440,-471.7 658,-471.7 658,-448.7 440,-448.7"/>
<text text-anchor="start" x="445" y="-457.3" font-family="Helvetica,sans-Serif" font-weight="bold" font-size="11.00" fill="#000000">alert_code_privileged_user</text>
<text text-anchor="start" x="623.5219" y="-456.8" font-family="Helvetica,sans-Serif" font-size="11.00" fill="#000000">[table]</text>
<polygon fill="none" stroke="#000000" points="440,-426.7 440,-448.7 658,-448.7 658,-426.7 440,-426.7"/>
<image xlink:href="../../images/primaryKeys.png" width="11px" height="12px" preserveAspectRatio="xMinYMin meet" x="445" y="-443.7"/>
<text text-anchor="start" x="469" y="-433.8" font-family="Helvetica,sans-Serif" font-size="11.00" fill="#000000">alert_code_id</text>
<polygon fill="none" stroke="#000000" points="440,-404.7 440,-426.7 658,-426.7 658,-404.7 440,-404.7"/>
<image xlink:href="../../images/primaryKeys.png" width="11px" height="12px" preserveAspectRatio="xMinYMin meet" x="445" y="-421.7"/>
<text text-anchor="start" x="469" y="-411.8" font-family="Helvetica,sans-Serif" font-size="11.00" fill="#000000">username</text>
<polygon fill="#ffffff" stroke="transparent" points="440,-385.7 440,-404.7 547,-404.7 547,-385.7 440,-385.7"/>
<polygon fill="none" stroke="#000000" points="440,-385.7 440,-404.7 547,-404.7 547,-385.7 440,-385.7"/>
<text text-anchor="start" x="443" y="-391.8" font-family="Helvetica,sans-Serif" font-size="11.00" fill="#000000">&lt; 1</text>
<polygon fill="#ffffff" stroke="transparent" points="547,-385.7 547,-404.7 602,-404.7 602,-385.7 547,-385.7"/>
<polygon fill="none" stroke="#000000" points="547,-385.7 547,-404.7 602,-404.7 602,-385.7 547,-385.7"/>
<text text-anchor="start" x="592.8862" y="-391.8" font-family="Helvetica,sans-Serif" font-size="11.00" fill="#000000"> &#160;</text>
<polygon fill="#ffffff" stroke="transparent" points="602,-385.7 602,-404.7 658,-404.7 658,-385.7 602,-385.7"/>
<polygon fill="none" stroke="#000000" points="602,-385.7 602,-404.7 658,-404.7 658,-385.7 602,-385.7"/>
<text text-anchor="start" x="648.8862" y="-391.8" font-family="Helvetica,sans-Serif" font-size="11.00" fill="#000000"> &#160;</text>
</a>
</g>
</g>
<!-- alert_code_privileged_user&#45;&gt;alert_code -->
<g id="edge4" class="edge">
<title>alert_code_privileged_user:w&#45;&gt;alert_code:e</title>
<path fill="none" stroke="#000000" d="M425.4203,-437.7C413.5435,-437.7 406.158,-437.7 389.5,-437.7"/>
<polygon fill="#000000" stroke="#000000" points="432,-437.7001 440,-441.3 436,-437.7 440,-437.7 440,-437.7 440,-437.7 436,-437.7 440,-434.1 432,-437.7001 432,-437.7001"/>
<ellipse fill="none" stroke="#000000" cx="428.8" cy="-437.7001" rx="3.2" ry="3.2"/>
</g>
<!-- audit_event -->
<g id="node6" class="node">
<title>audit_event</title>
<g id="a_node6"><a xlink:href="../../tables/audit_event.html" xlink:title="audit_event" target="_top">
<polygon fill="#ffffff" stroke="transparent" points="707,-213.2 707,-274.2 825,-274.2 825,-213.2 707,-213.2"/>
<polygon fill="#f5f5f5" stroke="transparent" points="707,-250.7 707,-273.7 825,-273.7 825,-250.7 707,-250.7"/>
<polygon fill="none" stroke="#000000" points="707,-250.7 707,-273.7 825,-273.7 825,-250.7 707,-250.7"/>
<text text-anchor="start" x="712" y="-259.3" font-family="Helvetica,sans-Serif" font-weight="bold" font-size="11.00" fill="#000000">audit_event</text>
<text text-anchor="start" x="790.5219" y="-258.8" font-family="Helvetica,sans-Serif" font-size="11.00" fill="#000000">[table]</text>
<polygon fill="none" stroke="#000000" points="707,-231.7 707,-250.7 825,-250.7 825,-231.7 707,-231.7"/>
<text text-anchor="start" x="710" y="-237.8" font-family="Helvetica,sans-Serif" font-size="11.00" fill="#000000">...</text>
<polygon fill="#ffffff" stroke="transparent" points="707,-212.7 707,-231.7 764,-231.7 764,-212.7 707,-212.7"/>
<polygon fill="none" stroke="#000000" points="707,-212.7 707,-231.7 764,-231.7 764,-212.7 707,-212.7"/>
<text text-anchor="start" x="710" y="-218.8" font-family="Helvetica,sans-Serif" font-size="11.00" fill="#000000">&lt; 1</text>
<polygon fill="#ffffff" stroke="transparent" points="764,-212.7 764,-231.7 794,-231.7 794,-212.7 764,-212.7"/>
<polygon fill="none" stroke="#000000" points="764,-212.7 764,-231.7 794,-231.7 794,-212.7 764,-212.7"/>
<text text-anchor="start" x="784.8862" y="-218.8" font-family="Helvetica,sans-Serif" font-size="11.00" fill="#000000"> &#160;</text>
<polygon fill="#ffffff" stroke="transparent" points="794,-212.7 794,-231.7 825,-231.7 825,-212.7 794,-212.7"/>
<polygon fill="none" stroke="#000000" points="794,-212.7 794,-231.7 825,-231.7 825,-212.7 794,-212.7"/>
<text text-anchor="start" x="815.8862" y="-218.8" font-family="Helvetica,sans-Serif" font-size="11.00" fill="#000000"> &#160;</text>
</a>
</g>
</g>
<!-- audit_event&#45;&gt;alert -->
<g id="edge5" class="edge">
<title>audit_event:w&#45;&gt;alert:e</title>
<path fill="none" stroke="#000000" d="M692.2652,-240.7C677.8216,-240.7 669.5938,-240.7 650,-240.7"/>
<polygon fill="#000000" stroke="#000000" points="699,-240.7001 707,-244.3 703,-240.7 707,-240.7 707,-240.7 707,-240.7 703,-240.7 707,-237.1 699,-240.7001 699,-240.7001"/>
<ellipse fill="none" stroke="#000000" cx="695.8" cy="-240.7001" rx="3.2" ry="3.2"/>
</g>
</g>
</svg>
