<?xml version="1.0" encoding="UTF-8" standalone="no"?>
<!DOCTYPE svg PUBLIC "-//W3C//DTD SVG 1.1//EN"
 "http://www.w3.org/Graphics/SVG/1.1/DTD/svg11.dtd">
<!-- Generated by graphviz version 2.40.1 (20161225.0304)
 -->
<!-- Title: oneDegreeRelationshipsDiagramImplied Pages: 1 -->
<svg width="657pt" height="359pt"
 viewBox="0.00 0.00 657.00 358.70" xmlns="http://www.w3.org/2000/svg" xmlns:xlink="http://www.w3.org/1999/xlink">
<g id="graph0" class="graph" transform="scale(1 1) rotate(0) translate(4 354.7)">
<title>oneDegreeRelationshipsDiagramImplied</title>
<polygon fill="#ffffff" stroke="transparent" points="-4,4 -4,-354.7 653,-354.7 653,4 -4,4"/>
<text text-anchor="middle" x="72.4936" y="-7.3" font-family="Helvetica,sans-Serif" font-size="11.00" fill="#000000">Generated by SchemaSpy</text>
<!-- alert -->
<g id="node1" class="node">
<title>alert</title>
<g id="a_node1"><a xlink:href="../../tables/alert.html" xlink:title="alert" target="_top">
<polygon fill="#ffffff" stroke="transparent" points="440,-109.7 440,-346.7 641,-346.7 641,-109.7 440,-109.7"/>
<polygon fill="#f5f5f5" stroke="transparent" points="440.5,-323.2 440.5,-346.2 641.5,-346.2 641.5,-323.2 440.5,-323.2"/>
<polygon fill="none" stroke="#000000" points="440.5,-323.2 440.5,-346.2 641.5,-346.2 641.5,-323.2 440.5,-323.2"/>
<text text-anchor="start" x="445.5" y="-331.8" font-family="Helvetica,sans-Serif" font-weight="bold" font-size="11.00" fill="#000000">alert</text>
<text text-anchor="start" x="606.5437" y="-331.3" font-family="Helvetica,sans-Serif" font-size="11.00" fill="#000000">[table]</text>
<polygon fill="none" stroke="#000000" points="440.5,-301.2 440.5,-323.2 641.5,-323.2 641.5,-301.2 440.5,-301.2"/>
<image xlink:href="../../images/primaryKeys.png" width="11px" height="12px" preserveAspectRatio="xMinYMin meet" x="445.5" y="-318.2"/>
<text text-anchor="start" x="460.5" y="-308.3" font-family="Helvetica,sans-Serif" font-size="11.00" fill="#000000">id</text>
<polygon fill="#ffffff" stroke="transparent" points="440.5,-279.2 440.5,-301.2 641.5,-301.2 641.5,-279.2 440.5,-279.2"/>
<polygon fill="none" stroke="#000000" points="440.5,-279.2 440.5,-301.2 641.5,-301.2 641.5,-279.2 440.5,-279.2"/>
<image xlink:href="../../images/foreignKeys.png" width="11px" height="12px" preserveAspectRatio="xMinYMin meet" x="445.5" y="-296.2"/>
<text text-anchor="start" x="460.5" y="-286.3" font-family="Helvetica,sans-Serif" font-size="11.00" fill="#000000">alert_code_id</text>
<polygon fill="#ffffff" stroke="transparent" points="440.5,-257.2 440.5,-279.2 641.5,-279.2 641.5,-257.2 440.5,-257.2"/>
<polygon fill="none" stroke="#000000" points="440.5,-257.2 440.5,-279.2 641.5,-279.2 641.5,-257.2 440.5,-257.2"/>
<image xlink:href="../../images/foreignKeys.png" width="11px" height="12px" preserveAspectRatio="xMinYMin meet" x="445.5" y="-274.2"/>
<text text-anchor="start" x="460.5" y="-264.3" font-family="Helvetica,sans-Serif" font-size="11.00" fill="#000000">prison_number</text>
<polygon fill="#ffffff" stroke="transparent" points="440.5,-235.2 440.5,-257.2 641.5,-257.2 641.5,-235.2 440.5,-235.2"/>
<polygon fill="none" stroke="#000000" points="440.5,-235.2 440.5,-257.2 641.5,-257.2 641.5,-235.2 440.5,-235.2"/>
<text text-anchor="start" x="460.5" y="-242.3" font-family="Helvetica,sans-Serif" font-size="11.00" fill="#000000">active_from</text>
<polygon fill="#ffffff" stroke="transparent" points="440.5,-213.2 440.5,-235.2 641.5,-235.2 641.5,-213.2 440.5,-213.2"/>
<polygon fill="none" stroke="#000000" points="440.5,-213.2 440.5,-235.2 641.5,-235.2 641.5,-213.2 440.5,-213.2"/>
<text text-anchor="start" x="460.5" y="-220.3" font-family="Helvetica,sans-Serif" font-size="11.00" fill="#000000">active_to</text>
<polygon fill="#ffffff" stroke="transparent" points="440.5,-191.2 440.5,-213.2 641.5,-213.2 641.5,-191.2 440.5,-191.2"/>
<polygon fill="none" stroke="#000000" points="440.5,-191.2 440.5,-213.2 641.5,-213.2 641.5,-191.2 440.5,-191.2"/>
<text text-anchor="start" x="460.5" y="-198.3" font-family="Helvetica,sans-Serif" font-size="11.00" fill="#000000">deleted_at</text>
<polygon fill="#ffffff" stroke="transparent" points="440.5,-169.2 440.5,-191.2 641.5,-191.2 641.5,-169.2 440.5,-169.2"/>
<polygon fill="none" stroke="#000000" points="440.5,-169.2 440.5,-191.2 641.5,-191.2 641.5,-169.2 440.5,-169.2"/>
<text text-anchor="start" x="460.5" y="-176.3" font-family="Helvetica,sans-Serif" font-size="11.00" fill="#000000">created_at</text>
<polygon fill="#ffffff" stroke="transparent" points="440.5,-147.2 440.5,-169.2 641.5,-169.2 641.5,-147.2 440.5,-147.2"/>
<polygon fill="none" stroke="#000000" points="440.5,-147.2 440.5,-169.2 641.5,-169.2 641.5,-147.2 440.5,-147.2"/>
<text text-anchor="start" x="460.5" y="-154.3" font-family="Helvetica,sans-Serif" font-size="11.00" fill="#000000">last_modified_at</text>
<polygon fill="none" stroke="#000000" points="440.5,-128.2 440.5,-147.2 641.5,-147.2 641.5,-128.2 440.5,-128.2"/>
<text text-anchor="start" x="443.5" y="-134.3" font-family="Helvetica,sans-Serif" font-size="11.00" fill="#000000">...</text>
<polygon fill="#ffffff" stroke="transparent" points="440.5,-109.2 440.5,-128.2 534.5,-128.2 534.5,-109.2 440.5,-109.2"/>
<polygon fill="none" stroke="#000000" points="440.5,-109.2 440.5,-128.2 534.5,-128.2 534.5,-109.2 440.5,-109.2"/>
<text text-anchor="start" x="443.5" y="-115.3" font-family="Helvetica,sans-Serif" font-size="11.00" fill="#000000">&lt; 1</text>
<polygon fill="#ffffff" stroke="transparent" points="534.5,-109.2 534.5,-128.2 583.5,-128.2 583.5,-109.2 534.5,-109.2"/>
<polygon fill="none" stroke="#000000" points="534.5,-109.2 534.5,-128.2 583.5,-128.2 583.5,-109.2 534.5,-109.2"/>
<text text-anchor="start" x="574.3862" y="-115.3" font-family="Helvetica,sans-Serif" font-size="11.00" fill="#000000"> &#160;</text>
<polygon fill="#ffffff" stroke="transparent" points="583.5,-109.2 583.5,-128.2 641.5,-128.2 641.5,-109.2 583.5,-109.2"/>
<polygon fill="none" stroke="#000000" points="583.5,-109.2 583.5,-128.2 641.5,-128.2 641.5,-109.2 583.5,-109.2"/>
<text text-anchor="start" x="622.9053" y="-115.3" font-family="Helvetica,sans-Serif" font-size="11.00" fill="#000000">1 &gt;</text>
</a>
</g>
</g>
<!-- alert_code -->
<g id="node2" class="node">
<title>alert_code</title>
<g id="a_node2"><a xlink:href="../../tables/alert_code.html" xlink:title="alert_code" target="_top">
<polygon fill="#ffffff" stroke="transparent" points="180,-38.2 180,-326.2 391,-326.2 391,-38.2 180,-38.2"/>
<polygon fill="#f5f5f5" stroke="transparent" points="182.5,-301.2 182.5,-324.2 389.5,-324.2 389.5,-301.2 182.5,-301.2"/>
<polygon fill="none" stroke="#000000" points="182.5,-301.2 182.5,-324.2 389.5,-324.2 389.5,-301.2 182.5,-301.2"/>
<text text-anchor="start" x="187.5" y="-309.8" font-family="Helvetica,sans-Serif" font-weight="bold" font-size="11.00" fill="#000000">alert_code</text>
<text text-anchor="start" x="354.5437" y="-309.3" font-family="Helvetica,sans-Serif" font-size="11.00" fill="#000000">[table]</text>
<polygon fill="none" stroke="#000000" points="182.5,-279.2 182.5,-301.2 305.5,-301.2 305.5,-279.2 182.5,-279.2"/>
<image xlink:href="../../images/primaryKeys.png" width="11px" height="12px" preserveAspectRatio="xMinYMin meet" x="187.5" y="-296.2"/>
<text text-anchor="start" x="202.5" y="-286.3" font-family="Helvetica,sans-Serif" font-size="11.00" fill="#000000">alert_code_id</text>
<polygon fill="none" stroke="#000000" points="305.5,-279.2 305.5,-301.2 389.5,-301.2 389.5,-279.2 305.5,-279.2"/>
<text text-anchor="start" x="308.5" y="-286.9" font-family="Helvetica,sans-Serif" font-size="11.00" fill="#000000">bigserial[19]</text>
<polygon fill="#ffffff" stroke="transparent" points="182.5,-257.2 182.5,-279.2 305.5,-279.2 305.5,-257.2 182.5,-257.2"/>
<polygon fill="none" stroke="#000000" points="182.5,-257.2 182.5,-279.2 305.5,-279.2 305.5,-257.2 182.5,-257.2"/>
<image xlink:href="../../images/foreignKeys.png" width="11px" height="12px" preserveAspectRatio="xMinYMin meet" x="187.5" y="-274.2"/>
<text text-anchor="start" x="202.5" y="-264.3" font-family="Helvetica,sans-Serif" font-size="11.00" fill="#000000">alert_type_id</text>
<polygon fill="none" stroke="#000000" points="305.5,-257.2 305.5,-279.2 389.5,-279.2 389.5,-257.2 305.5,-257.2"/>
<text text-anchor="start" x="308.5" y="-264.9" font-family="Helvetica,sans-Serif" font-size="11.00" fill="#000000">int8[19]</text>
<polygon fill="#ffffff" stroke="transparent" points="182.5,-235.2 182.5,-257.2 305.5,-257.2 305.5,-235.2 182.5,-235.2"/>
<polygon fill="none" stroke="#000000" points="182.5,-235.2 182.5,-257.2 305.5,-257.2 305.5,-235.2 182.5,-235.2"/>
<text text-anchor="start" x="202.5" y="-242.3" font-family="Helvetica,sans-Serif" font-size="11.00" fill="#000000">code</text>
<polygon fill="none" stroke="#000000" points="305.5,-235.2 305.5,-257.2 389.5,-257.2 389.5,-235.2 305.5,-235.2"/>
<text text-anchor="start" x="308.5" y="-242.9" font-family="Helvetica,sans-Serif" font-size="11.00" fill="#000000">varchar[12]</text>
<polygon fill="none" stroke="#000000" points="182.5,-213.2 182.5,-235.2 305.5,-235.2 305.5,-213.2 182.5,-213.2"/>
<text text-anchor="start" x="202.5" y="-220.3" font-family="Helvetica,sans-Serif" font-size="11.00" fill="#000000">description</text>
<polygon fill="none" stroke="#000000" points="305.5,-213.2 305.5,-235.2 389.5,-235.2 389.5,-213.2 305.5,-213.2"/>
<text text-anchor="start" x="308.5" y="-220.9" font-family="Helvetica,sans-Serif" font-size="11.00" fill="#000000">varchar[40]</text>
<polygon fill="#ffffff" stroke="transparent" points="182.5,-191.2 182.5,-213.2 305.5,-213.2 305.5,-191.2 182.5,-191.2"/>
<polygon fill="none" stroke="#000000" points="182.5,-191.2 182.5,-213.2 305.5,-213.2 305.5,-191.2 182.5,-191.2"/>
<text text-anchor="start" x="202.5" y="-198.3" font-family="Helvetica,sans-Serif" font-size="11.00" fill="#000000">list_sequence</text>
<polygon fill="none" stroke="#000000" points="305.5,-191.2 305.5,-213.2 389.5,-213.2 389.5,-191.2 305.5,-191.2"/>
<text text-anchor="start" x="308.5" y="-198.9" font-family="Helvetica,sans-Serif" font-size="11.00" fill="#000000">int4[10]</text>
<polygon fill="#ffffff" stroke="transparent" points="182.5,-169.2 182.5,-191.2 305.5,-191.2 305.5,-169.2 182.5,-169.2"/>
<polygon fill="none" stroke="#000000" points="182.5,-169.2 182.5,-191.2 305.5,-191.2 305.5,-169.2 182.5,-169.2"/>
<text text-anchor="start" x="202.5" y="-176.3" font-family="Helvetica,sans-Serif" font-size="11.00" fill="#000000">created_at</text>
<polygon fill="none" stroke="#000000" points="305.5,-169.2 305.5,-191.2 389.5,-191.2 389.5,-169.2 305.5,-169.2"/>
<text text-anchor="start" x="308.3807" y="-176.9" font-family="Helvetica,sans-Serif" font-size="11.00" fill="#000000">timestamp[29,6]</text>
<polygon fill="none" stroke="#000000" points="182.5,-147.2 182.5,-169.2 305.5,-169.2 305.5,-147.2 182.5,-147.2"/>
<text text-anchor="start" x="202.5" y="-154.3" font-family="Helvetica,sans-Serif" font-size="11.00" fill="#000000">created_by</text>
<polygon fill="none" stroke="#000000" points="305.5,-147.2 305.5,-169.2 389.5,-169.2 389.5,-147.2 305.5,-147.2"/>
<text text-anchor="start" x="308.5" y="-154.9" font-family="Helvetica,sans-Serif" font-size="11.00" fill="#000000">varchar[64]</text>
<polygon fill="none" stroke="#000000" points="182.5,-125.2 182.5,-147.2 305.5,-147.2 305.5,-125.2 182.5,-125.2"/>
<text text-anchor="start" x="202.5" y="-132.3" font-family="Helvetica,sans-Serif" font-size="11.00" fill="#000000">modified_at</text>
<polygon fill="none" stroke="#000000" points="305.5,-125.2 305.5,-147.2 389.5,-147.2 389.5,-125.2 305.5,-125.2"/>
<text text-anchor="start" x="308.3807" y="-132.9" font-family="Helvetica,sans-Serif" font-size="11.00" fill="#000000">timestamp[29,6]</text>
<polygon fill="none" stroke="#000000" points="182.5,-103.2 182.5,-125.2 305.5,-125.2 305.5,-103.2 182.5,-103.2"/>
<text text-anchor="start" x="202.5" y="-110.3" font-family="Helvetica,sans-Serif" font-size="11.00" fill="#000000">modified_by</text>
<polygon fill="none" stroke="#000000" points="305.5,-103.2 305.5,-125.2 389.5,-125.2 389.5,-103.2 305.5,-103.2"/>
<text text-anchor="start" x="308.5" y="-110.9" font-family="Helvetica,sans-Serif" font-size="11.00" fill="#000000">varchar[64]</text>
<polygon fill="#ffffff" stroke="transparent" points="182.5,-81.2 182.5,-103.2 305.5,-103.2 305.5,-81.2 182.5,-81.2"/>
<polygon fill="none" stroke="#000000" points="182.5,-81.2 182.5,-103.2 305.5,-103.2 305.5,-81.2 182.5,-81.2"/>
<text text-anchor="start" x="202.5" y="-88.3" font-family="Helvetica,sans-Serif" font-size="11.00" fill="#000000">deactivated_at</text>
<polygon fill="none" stroke="#000000" points="305.5,-81.2 305.5,-103.2 389.5,-103.2 389.5,-81.2 305.5,-81.2"/>
<text text-anchor="start" x="308.3807" y="-88.9" font-family="Helvetica,sans-Serif" font-size="11.00" fill="#000000">timestamp[29,6]</text>
<polygon fill="none" stroke="#000000" points="182.5,-59.2 182.5,-81.2 305.5,-81.2 305.5,-59.2 182.5,-59.2"/>
<text text-anchor="start" x="202.5" y="-66.3" font-family="Helvetica,sans-Serif" font-size="11.00" fill="#000000">deactivated_by</text>
<polygon fill="none" stroke="#000000" points="305.5,-59.2 305.5,-81.2 389.5,-81.2 389.5,-59.2 305.5,-59.2"/>
<text text-anchor="start" x="308.5" y="-66.9" font-family="Helvetica,sans-Serif" font-size="11.00" fill="#000000">varchar[64]</text>
<polygon fill="#ffffff" stroke="transparent" points="182.5,-40.2 182.5,-59.2 248.5,-59.2 248.5,-40.2 182.5,-40.2"/>
<polygon fill="none" stroke="#000000" points="182.5,-40.2 182.5,-59.2 248.5,-59.2 248.5,-40.2 182.5,-40.2"/>
<text text-anchor="start" x="185.5" y="-46.3" font-family="Helvetica,sans-Serif" font-size="11.00" fill="#000000">&lt; 1</text>
<polygon fill="#ffffff" stroke="transparent" points="248.5,-40.2 248.5,-59.2 305.5,-59.2 305.5,-40.2 248.5,-40.2"/>
<polygon fill="none" stroke="#000000" points="248.5,-40.2 248.5,-59.2 305.5,-59.2 305.5,-40.2 248.5,-40.2"/>
<text text-anchor="start" x="296.3862" y="-46.3" font-family="Helvetica,sans-Serif" font-size="11.00" fill="#000000"> &#160;</text>
<polygon fill="#ffffff" stroke="transparent" points="305.5,-40.2 305.5,-59.2 389.5,-59.2 389.5,-40.2 305.5,-40.2"/>
<polygon fill="none" stroke="#000000" points="305.5,-40.2 305.5,-59.2 389.5,-59.2 389.5,-40.2 305.5,-40.2"/>
<text text-anchor="start" x="370.9053" y="-46.3" font-family="Helvetica,sans-Serif" font-size="11.00" fill="#000000">1 &gt;</text>
<polygon fill="none" stroke="#000000" stroke-width="2" points="181,-39.2 181,-325.2 390,-325.2 390,-39.2 181,-39.2"/>
</a>
</g>
</g>
<!-- alert&#45;&gt;alert_code -->
<g id="edge1" class="edge">
<title>alert:w&#45;&gt;alert_code:e</title>
<path fill="none" stroke="#000000" d="M425.776,-290.2C413.7815,-290.2 406.3229,-290.2 389.5,-290.2"/>
<polygon fill="#000000" stroke="#000000" points="432.5,-290.2001 440.5,-293.8 436.5,-290.2 440.5,-290.2 440.5,-290.2 440.5,-290.2 436.5,-290.2 440.5,-286.6 432.5,-290.2001 432.5,-290.2001"/>
<ellipse fill="none" stroke="#000000" cx="429.3" cy="-290.2001" rx="3.2" ry="3.2"/>
</g>
<!-- alert_type -->
<g id="node3" class="node">
<title>alert_type</title>
<g id="a_node3"><a xlink:href="../../tables/alert_type.html" xlink:title="alert_type" target="_top">
<polygon fill="#ffffff" stroke="transparent" points="8,-131.7 8,-302.7 131,-302.7 131,-131.7 8,-131.7"/>
<polygon fill="#f5f5f5" stroke="transparent" points="8.5,-279.2 8.5,-302.2 131.5,-302.2 131.5,-279.2 8.5,-279.2"/>
<polygon fill="none" stroke="#000000" points="8.5,-279.2 8.5,-302.2 131.5,-302.2 131.5,-279.2 8.5,-279.2"/>
<text text-anchor="start" x="13.5" y="-287.8" font-family="Helvetica,sans-Serif" font-weight="bold" font-size="11.00" fill="#000000">alert_type</text>
<text text-anchor="start" x="96.5437" y="-287.3" font-family="Helvetica,sans-Serif" font-size="11.00" fill="#000000">[table]</text>
<polygon fill="none" stroke="#000000" points="8.5,-257.2 8.5,-279.2 131.5,-279.2 131.5,-257.2 8.5,-257.2"/>
<image xlink:href="../../images/primaryKeys.png" width="11px" height="12px" preserveAspectRatio="xMinYMin meet" x="13.5" y="-274.2"/>
<text text-anchor="start" x="28.5" y="-264.3" font-family="Helvetica,sans-Serif" font-size="11.00" fill="#000000">alert_type_id</text>
<polygon fill="#ffffff" stroke="transparent" points="8.5,-235.2 8.5,-257.2 131.5,-257.2 131.5,-235.2 8.5,-235.2"/>
<polygon fill="none" stroke="#000000" points="8.5,-235.2 8.5,-257.2 131.5,-257.2 131.5,-235.2 8.5,-235.2"/>
<text text-anchor="start" x="28.5" y="-242.3" font-family="Helvetica,sans-Serif" font-size="11.00" fill="#000000">code</text>
<polygon fill="#ffffff" stroke="transparent" points="8.5,-213.2 8.5,-235.2 131.5,-235.2 131.5,-213.2 8.5,-213.2"/>
<polygon fill="none" stroke="#000000" points="8.5,-213.2 8.5,-235.2 131.5,-235.2 131.5,-213.2 8.5,-213.2"/>
<text text-anchor="start" x="28.5" y="-220.3" font-family="Helvetica,sans-Serif" font-size="11.00" fill="#000000">list_sequence</text>
<polygon fill="#ffffff" stroke="transparent" points="8.5,-191.2 8.5,-213.2 131.5,-213.2 131.5,-191.2 8.5,-191.2"/>
<polygon fill="none" stroke="#000000" points="8.5,-191.2 8.5,-213.2 131.5,-213.2 131.5,-191.2 8.5,-191.2"/>
<text text-anchor="start" x="28.5" y="-198.3" font-family="Helvetica,sans-Serif" font-size="11.00" fill="#000000">created_at</text>
<polygon fill="#ffffff" stroke="transparent" points="8.5,-169.2 8.5,-191.2 131.5,-191.2 131.5,-169.2 8.5,-169.2"/>
<polygon fill="none" stroke="#000000" points="8.5,-169.2 8.5,-191.2 131.5,-191.2 131.5,-169.2 8.5,-169.2"/>
<text text-anchor="start" x="28.5" y="-176.3" font-family="Helvetica,sans-Serif" font-size="11.00" fill="#000000">deactivated_at</text>
<polygon fill="none" stroke="#000000" points="8.5,-150.2 8.5,-169.2 131.5,-169.2 131.5,-150.2 8.5,-150.2"/>
<text text-anchor="start" x="11.5" y="-156.3" font-family="Helvetica,sans-Serif" font-size="11.00" fill="#000000">...</text>
<polygon fill="#ffffff" stroke="transparent" points="8.5,-131.2 8.5,-150.2 59.5,-150.2 59.5,-131.2 8.5,-131.2"/>
<polygon fill="none" stroke="#000000" points="8.5,-131.2 8.5,-150.2 59.5,-150.2 59.5,-131.2 8.5,-131.2"/>
<text text-anchor="start" x="11.5" y="-137.3" font-family="Helvetica,sans-Serif" font-size="11.00" fill="#000000"> &#160;</text>
<polygon fill="#ffffff" stroke="transparent" points="59.5,-131.2 59.5,-150.2 90.5,-150.2 90.5,-131.2 59.5,-131.2"/>
<polygon fill="none" stroke="#000000" points="59.5,-131.2 59.5,-150.2 90.5,-150.2 90.5,-131.2 59.5,-131.2"/>
<text text-anchor="start" x="81.3862" y="-137.3" font-family="Helvetica,sans-Serif" font-size="11.00" fill="#000000"> &#160;</text>
<polygon fill="#ffffff" stroke="transparent" points="90.5,-131.2 90.5,-150.2 131.5,-150.2 131.5,-131.2 90.5,-131.2"/>
<polygon fill="none" stroke="#000000" points="90.5,-131.2 90.5,-150.2 131.5,-150.2 131.5,-131.2 90.5,-131.2"/>
<text text-anchor="start" x="112.9053" y="-137.3" font-family="Helvetica,sans-Serif" font-size="11.00" fill="#000000">1 &gt;</text>
</a>
</g>
</g>
<!-- alert_code&#45;&gt;alert_type -->
<g id="edge2" class="edge">
<title>alert_code:w&#45;&gt;alert_type:e</title>
<path fill="none" stroke="#000000" d="M167.776,-268.2C155.7815,-268.2 148.3229,-268.2 131.5,-268.2"/>
<polygon fill="#000000" stroke="#000000" points="174.5,-268.2001 182.5,-271.8 178.5,-268.2 182.5,-268.2 182.5,-268.2 182.5,-268.2 178.5,-268.2 182.5,-264.6 174.5,-268.2001 174.5,-268.2001"/>
<ellipse fill="none" stroke="#000000" cx="171.3" cy="-268.2001" rx="3.2" ry="3.2"/>
</g>
</g>
</svg>
