<?xml version="1.0" encoding="UTF-8" standalone="no"?>
<!DOCTYPE svg PUBLIC "-//W3C//DTD SVG 1.1//EN"
 "http://www.w3.org/Graphics/SVG/1.1/DTD/svg11.dtd">
<!-- Generated by graphviz version 2.40.1 (20161225.0304)
 -->
<!-- Title: twoDegreesRelationshipsDiagram Pages: 1 -->
<svg width="881pt" height="423pt"
 viewBox="0.00 0.00 881.00 423.20" xmlns="http://www.w3.org/2000/svg" xmlns:xlink="http://www.w3.org/1999/xlink">
<g id="graph0" class="graph" transform="scale(1 1) rotate(0) translate(4 419.2)">
<title>twoDegreesRelationshipsDiagram</title>
<polygon fill="#ffffff" stroke="transparent" points="-4,4 -4,-419.2 877,-419.2 877,4 -4,4"/>
<text text-anchor="middle" x="72.4936" y="-7.3" font-family="Helvetica,sans-Serif" font-size="11.00" fill="#000000">Generated by SchemaSpy</text>
<!-- alert -->
<g id="node1" class="node">
<title>alert</title>
<g id="a_node1"><a xlink:href="../../tables/alert.html" xlink:title="alert" target="_top">
<polygon fill="#ffffff" stroke="transparent" points="466.5,-66.7 466.5,-303.7 682.5,-303.7 682.5,-66.7 466.5,-66.7"/>
<polygon fill="#f5f5f5" stroke="transparent" points="466.5,-280.2 466.5,-303.2 682.5,-303.2 682.5,-280.2 466.5,-280.2"/>
<polygon fill="none" stroke="#000000" points="466.5,-280.2 466.5,-303.2 682.5,-303.2 682.5,-280.2 466.5,-280.2"/>
<text text-anchor="start" x="471.5" y="-288.8" font-family="Helvetica,sans-Serif" font-weight="bold" font-size="11.00" fill="#000000">alert</text>
<text text-anchor="start" x="647.5437" y="-288.3" font-family="Helvetica,sans-Serif" font-size="11.00" fill="#000000">[table]</text>
<polygon fill="none" stroke="#000000" points="466.5,-258.2 466.5,-280.2 682.5,-280.2 682.5,-258.2 466.5,-258.2"/>
<image xlink:href="../../images/primaryKeys.png" width="11px" height="12px" preserveAspectRatio="xMinYMin meet" x="471.5" y="-275.2"/>
<text text-anchor="start" x="486.5" y="-265.3" font-family="Helvetica,sans-Serif" font-size="11.00" fill="#000000">id</text>
<polygon fill="#ffffff" stroke="transparent" points="466.5,-236.2 466.5,-258.2 682.5,-258.2 682.5,-236.2 466.5,-236.2"/>
<polygon fill="none" stroke="#000000" points="466.5,-236.2 466.5,-258.2 682.5,-258.2 682.5,-236.2 466.5,-236.2"/>
<image xlink:href="../../images/foreignKeys.png" width="11px" height="12px" preserveAspectRatio="xMinYMin meet" x="471.5" y="-253.2"/>
<text text-anchor="start" x="486.5" y="-243.3" font-family="Helvetica,sans-Serif" font-size="11.00" fill="#000000">alert_code_id</text>
<polygon fill="#ffffff" stroke="transparent" points="466.5,-214.2 466.5,-236.2 682.5,-236.2 682.5,-214.2 466.5,-214.2"/>
<polygon fill="none" stroke="#000000" points="466.5,-214.2 466.5,-236.2 682.5,-236.2 682.5,-214.2 466.5,-214.2"/>
<image xlink:href="../../images/foreignKeys.png" width="11px" height="12px" preserveAspectRatio="xMinYMin meet" x="471.5" y="-231.2"/>
<text text-anchor="start" x="486.5" y="-221.3" font-family="Helvetica,sans-Serif" font-size="11.00" fill="#000000">prison_number</text>
<polygon fill="#ffffff" stroke="transparent" points="466.5,-192.2 466.5,-214.2 682.5,-214.2 682.5,-192.2 466.5,-192.2"/>
<polygon fill="none" stroke="#000000" points="466.5,-192.2 466.5,-214.2 682.5,-214.2 682.5,-192.2 466.5,-192.2"/>
<text text-anchor="start" x="486.5" y="-199.3" font-family="Helvetica,sans-Serif" font-size="11.00" fill="#000000">active_from</text>
<polygon fill="#ffffff" stroke="transparent" points="466.5,-170.2 466.5,-192.2 682.5,-192.2 682.5,-170.2 466.5,-170.2"/>
<polygon fill="none" stroke="#000000" points="466.5,-170.2 466.5,-192.2 682.5,-192.2 682.5,-170.2 466.5,-170.2"/>
<text text-anchor="start" x="486.5" y="-177.3" font-family="Helvetica,sans-Serif" font-size="11.00" fill="#000000">active_to</text>
<polygon fill="#ffffff" stroke="transparent" points="466.5,-148.2 466.5,-170.2 682.5,-170.2 682.5,-148.2 466.5,-148.2"/>
<polygon fill="none" stroke="#000000" points="466.5,-148.2 466.5,-170.2 682.5,-170.2 682.5,-148.2 466.5,-148.2"/>
<text text-anchor="start" x="486.5" y="-155.3" font-family="Helvetica,sans-Serif" font-size="11.00" fill="#000000">deleted_at</text>
<polygon fill="#ffffff" stroke="transparent" points="466.5,-126.2 466.5,-148.2 682.5,-148.2 682.5,-126.2 466.5,-126.2"/>
<polygon fill="none" stroke="#000000" points="466.5,-126.2 466.5,-148.2 682.5,-148.2 682.5,-126.2 466.5,-126.2"/>
<text text-anchor="start" x="486.5" y="-133.3" font-family="Helvetica,sans-Serif" font-size="11.00" fill="#000000">created_at</text>
<polygon fill="#ffffff" stroke="transparent" points="466.5,-104.2 466.5,-126.2 682.5,-126.2 682.5,-104.2 466.5,-104.2"/>
<polygon fill="none" stroke="#000000" points="466.5,-104.2 466.5,-126.2 682.5,-126.2 682.5,-104.2 466.5,-104.2"/>
<text text-anchor="start" x="486.5" y="-111.3" font-family="Helvetica,sans-Serif" font-size="11.00" fill="#000000">last_modified_at</text>
<polygon fill="none" stroke="#000000" points="466.5,-85.2 466.5,-104.2 682.5,-104.2 682.5,-85.2 466.5,-85.2"/>
<text text-anchor="start" x="469.5" y="-91.3" font-family="Helvetica,sans-Serif" font-size="11.00" fill="#000000">...</text>
<polygon fill="#ffffff" stroke="transparent" points="466.5,-66.2 466.5,-85.2 682.5,-85.2 682.5,-66.2 466.5,-66.2"/>
<polygon fill="none" stroke="#000000" points="466.5,-66.2 466.5,-85.2 682.5,-85.2 682.5,-66.2 466.5,-66.2"/>
<polygon fill="#ffffff" stroke="transparent" points="467.5,-67.2 467.5,-84.2 542.5,-84.2 542.5,-67.2 467.5,-67.2"/>
<text text-anchor="start" x="469.5" y="-72.3" font-family="Helvetica,sans-Serif" font-size="11.00" fill="#000000">&lt; 1</text>
<polygon fill="#ffffff" stroke="transparent" points="542.5,-67.2 542.5,-84.2 607.5,-84.2 607.5,-67.2 542.5,-67.2"/>
<text text-anchor="start" x="571.9431" y="-72.3" font-family="Helvetica,sans-Serif" font-size="11.00" fill="#000000"> &#160;</text>
<polygon fill="#ffffff" stroke="transparent" points="607.5,-67.2 607.5,-84.2 681.5,-84.2 681.5,-67.2 607.5,-67.2"/>
<text text-anchor="start" x="663.9053" y="-72.3" font-family="Helvetica,sans-Serif" font-size="11.00" fill="#000000">1 &gt;</text>
<polygon fill="#000000" stroke="#000000" points="542.5,-67.2 542.5,-84.2 542.5,-84.2 542.5,-67.2 542.5,-67.2"/>
<polygon fill="#000000" stroke="#000000" points="607.5,-67.2 607.5,-84.2 607.5,-84.2 607.5,-67.2 607.5,-67.2"/>
</a>
</g>
</g>
<!-- alert_code -->
<g id="node2" class="node">
<title>alert_code</title>
<g id="a_node2"><a xlink:href="../../tables/alert_code.html" xlink:title="alert_code" target="_top">
<polygon fill="#ffffff" stroke="transparent" points="189,-38.2 189,-348.2 409,-348.2 409,-38.2 189,-38.2"/>
<polygon fill="#f5f5f5" stroke="transparent" points="191,-323.2 191,-346.2 407,-346.2 407,-323.2 191,-323.2"/>
<polygon fill="none" stroke="#000000" points="191,-323.2 191,-346.2 407,-346.2 407,-323.2 191,-323.2"/>
<text text-anchor="start" x="196" y="-331.8" font-family="Helvetica,sans-Serif" font-weight="bold" font-size="11.00" fill="#000000">alert_code</text>
<text text-anchor="start" x="372.0437" y="-331.3" font-family="Helvetica,sans-Serif" font-size="11.00" fill="#000000">[table]</text>
<polygon fill="none" stroke="#000000" points="191,-301.2 191,-323.2 323,-323.2 323,-301.2 191,-301.2"/>
<image xlink:href="../../images/primaryKeys.png" width="11px" height="12px" preserveAspectRatio="xMinYMin meet" x="196" y="-318.2"/>
<text text-anchor="start" x="211" y="-308.3" font-family="Helvetica,sans-Serif" font-size="11.00" fill="#000000">alert_code_id</text>
<polygon fill="none" stroke="#000000" points="323,-301.2 323,-323.2 407,-323.2 407,-301.2 323,-301.2"/>
<text text-anchor="start" x="326" y="-308.9" font-family="Helvetica,sans-Serif" font-size="11.00" fill="#000000">bigserial[19]</text>
<polygon fill="#ffffff" stroke="transparent" points="191,-279.2 191,-301.2 323,-301.2 323,-279.2 191,-279.2"/>
<polygon fill="none" stroke="#000000" points="191,-279.2 191,-301.2 323,-301.2 323,-279.2 191,-279.2"/>
<image xlink:href="../../images/foreignKeys.png" width="11px" height="12px" preserveAspectRatio="xMinYMin meet" x="196" y="-296.2"/>
<text text-anchor="start" x="211" y="-286.3" font-family="Helvetica,sans-Serif" font-size="11.00" fill="#000000">alert_type_id</text>
<polygon fill="none" stroke="#000000" points="323,-279.2 323,-301.2 407,-301.2 407,-279.2 323,-279.2"/>
<text text-anchor="start" x="326" y="-286.9" font-family="Helvetica,sans-Serif" font-size="11.00" fill="#000000">int8[19]</text>
<polygon fill="#ffffff" stroke="transparent" points="191,-257.2 191,-279.2 323,-279.2 323,-257.2 191,-257.2"/>
<polygon fill="none" stroke="#000000" points="191,-257.2 191,-279.2 323,-279.2 323,-257.2 191,-257.2"/>
<text text-anchor="start" x="211" y="-264.3" font-family="Helvetica,sans-Serif" font-size="11.00" fill="#000000">code</text>
<polygon fill="none" stroke="#000000" points="323,-257.2 323,-279.2 407,-279.2 407,-257.2 323,-257.2"/>
<text text-anchor="start" x="326" y="-264.9" font-family="Helvetica,sans-Serif" font-size="11.00" fill="#000000">varchar[12]</text>
<polygon fill="none" stroke="#000000" points="191,-235.2 191,-257.2 323,-257.2 323,-235.2 191,-235.2"/>
<text text-anchor="start" x="211" y="-242.3" font-family="Helvetica,sans-Serif" font-size="11.00" fill="#000000">description</text>
<polygon fill="none" stroke="#000000" points="323,-235.2 323,-257.2 407,-257.2 407,-235.2 323,-235.2"/>
<text text-anchor="start" x="326" y="-242.9" font-family="Helvetica,sans-Serif" font-size="11.00" fill="#000000">varchar[40]</text>
<polygon fill="#ffffff" stroke="transparent" points="191,-213.2 191,-235.2 323,-235.2 323,-213.2 191,-213.2"/>
<polygon fill="none" stroke="#000000" points="191,-213.2 191,-235.2 323,-235.2 323,-213.2 191,-213.2"/>
<text text-anchor="start" x="211" y="-220.3" font-family="Helvetica,sans-Serif" font-size="11.00" fill="#000000">list_sequence</text>
<polygon fill="none" stroke="#000000" points="323,-213.2 323,-235.2 407,-235.2 407,-213.2 323,-213.2"/>
<text text-anchor="start" x="326" y="-220.9" font-family="Helvetica,sans-Serif" font-size="11.00" fill="#000000">int4[10]</text>
<polygon fill="#ffffff" stroke="transparent" points="191,-191.2 191,-213.2 323,-213.2 323,-191.2 191,-191.2"/>
<polygon fill="none" stroke="#000000" points="191,-191.2 191,-213.2 323,-213.2 323,-191.2 191,-191.2"/>
<text text-anchor="start" x="211" y="-198.3" font-family="Helvetica,sans-Serif" font-size="11.00" fill="#000000">created_at</text>
<polygon fill="none" stroke="#000000" points="323,-191.2 323,-213.2 407,-213.2 407,-191.2 323,-191.2"/>
<text text-anchor="start" x="325.8807" y="-198.9" font-family="Helvetica,sans-Serif" font-size="11.00" fill="#000000">timestamp[29,6]</text>
<polygon fill="none" stroke="#000000" points="191,-169.2 191,-191.2 323,-191.2 323,-169.2 191,-169.2"/>
<text text-anchor="start" x="211" y="-176.3" font-family="Helvetica,sans-Serif" font-size="11.00" fill="#000000">created_by</text>
<polygon fill="none" stroke="#000000" points="323,-169.2 323,-191.2 407,-191.2 407,-169.2 323,-169.2"/>
<text text-anchor="start" x="326" y="-176.9" font-family="Helvetica,sans-Serif" font-size="11.00" fill="#000000">varchar[64]</text>
<polygon fill="none" stroke="#000000" points="191,-147.2 191,-169.2 323,-169.2 323,-147.2 191,-147.2"/>
<text text-anchor="start" x="211" y="-154.3" font-family="Helvetica,sans-Serif" font-size="11.00" fill="#000000">modified_at</text>
<polygon fill="none" stroke="#000000" points="323,-147.2 323,-169.2 407,-169.2 407,-147.2 323,-147.2"/>
<text text-anchor="start" x="325.8807" y="-154.9" font-family="Helvetica,sans-Serif" font-size="11.00" fill="#000000">timestamp[29,6]</text>
<polygon fill="none" stroke="#000000" points="191,-125.2 191,-147.2 323,-147.2 323,-125.2 191,-125.2"/>
<text text-anchor="start" x="211" y="-132.3" font-family="Helvetica,sans-Serif" font-size="11.00" fill="#000000">modified_by</text>
<polygon fill="none" stroke="#000000" points="323,-125.2 323,-147.2 407,-147.2 407,-125.2 323,-125.2"/>
<text text-anchor="start" x="326" y="-132.9" font-family="Helvetica,sans-Serif" font-size="11.00" fill="#000000">varchar[64]</text>
<polygon fill="#ffffff" stroke="transparent" points="191,-103.2 191,-125.2 323,-125.2 323,-103.2 191,-103.2"/>
<polygon fill="none" stroke="#000000" points="191,-103.2 191,-125.2 323,-125.2 323,-103.2 191,-103.2"/>
<text text-anchor="start" x="211" y="-110.3" font-family="Helvetica,sans-Serif" font-size="11.00" fill="#000000">deactivated_at</text>
<polygon fill="none" stroke="#000000" points="323,-103.2 323,-125.2 407,-125.2 407,-103.2 323,-103.2"/>
<text text-anchor="start" x="325.8807" y="-110.9" font-family="Helvetica,sans-Serif" font-size="11.00" fill="#000000">timestamp[29,6]</text>
<polygon fill="none" stroke="#000000" points="191,-81.2 191,-103.2 323,-103.2 323,-81.2 191,-81.2"/>
<text text-anchor="start" x="211" y="-88.3" font-family="Helvetica,sans-Serif" font-size="11.00" fill="#000000">deactivated_by</text>
<polygon fill="none" stroke="#000000" points="323,-81.2 323,-103.2 407,-103.2 407,-81.2 323,-81.2"/>
<text text-anchor="start" x="326" y="-88.9" font-family="Helvetica,sans-Serif" font-size="11.00" fill="#000000">varchar[64]</text>
<polygon fill="none" stroke="#000000" points="191,-59.2 191,-81.2 323,-81.2 323,-59.2 191,-59.2"/>
<text text-anchor="start" x="211" y="-66.3" font-family="Helvetica,sans-Serif" font-size="11.00" fill="#000000">restricted</text>
<polygon fill="none" stroke="#000000" points="323,-59.2 323,-81.2 407,-81.2 407,-59.2 323,-59.2"/>
<text text-anchor="start" x="326" y="-66.9" font-family="Helvetica,sans-Serif" font-size="11.00" fill="#000000">bool[1]</text>
<polygon fill="#ffffff" stroke="transparent" points="191,-40.2 191,-59.2 407,-59.2 407,-40.2 191,-40.2"/>
<polygon fill="none" stroke="#000000" points="191,-40.2 191,-59.2 407,-59.2 407,-40.2 191,-40.2"/>
<polygon fill="#ffffff" stroke="transparent" points="192,-41.2 192,-58.2 267,-58.2 267,-41.2 192,-41.2"/>
<text text-anchor="start" x="194" y="-46.3" font-family="Helvetica,sans-Serif" font-size="11.00" fill="#000000">&lt; 1</text>
<polygon fill="#ffffff" stroke="transparent" points="267,-41.2 267,-58.2 332,-58.2 332,-41.2 267,-41.2"/>
<text text-anchor="start" x="296.4431" y="-46.3" font-family="Helvetica,sans-Serif" font-size="11.00" fill="#000000"> &#160;</text>
<polygon fill="#ffffff" stroke="transparent" points="332,-41.2 332,-58.2 406,-58.2 406,-41.2 332,-41.2"/>
<text text-anchor="start" x="388.4053" y="-46.3" font-family="Helvetica,sans-Serif" font-size="11.00" fill="#000000">2 &gt;</text>
<polygon fill="#000000" stroke="#000000" points="267,-41.2 267,-58.2 267,-58.2 267,-41.2 267,-41.2"/>
<polygon fill="#000000" stroke="#000000" points="332,-41.2 332,-58.2 332,-58.2 332,-41.2 332,-41.2"/>
<polygon fill="none" stroke="#000000" stroke-width="2" points="190,-39.2 190,-347.2 408,-347.2 408,-39.2 190,-39.2"/>
</a>
</g>
</g>
<!-- alert&#45;&gt;alert_code -->
<g id="edge1" class="edge">
<title>alert:w&#45;&gt;alert_code:e</title>
<path fill="none" stroke="#000000" d="M452.5136,-251.0714C431.6474,-265.0647 440.3512,-312.2 407,-312.2"/>
<polygon fill="#000000" stroke="#000000" points="458.7899,-249.3342 467.4604,-250.6695 462.645,-248.2671 466.5,-247.2 466.5,-247.2 466.5,-247.2 462.645,-248.2671 465.5396,-243.7305 458.7899,-249.3342 458.7899,-249.3342"/>
<ellipse fill="none" stroke="#000000" cx="455.7059" cy="-250.1878" rx="3.2" ry="3.2"/>
</g>
<!-- alert_type -->
<g id="node3" class="node">
<title>alert_type</title>
<g id="a_node3"><a xlink:href="../../tables/alert_type.html" xlink:title="alert_type" target="_top">
<polygon fill="#ffffff" stroke="transparent" points="8,-153.7 8,-324.7 140,-324.7 140,-153.7 8,-153.7"/>
<polygon fill="#f5f5f5" stroke="transparent" points="8,-301.2 8,-324.2 140,-324.2 140,-301.2 8,-301.2"/>
<polygon fill="none" stroke="#000000" points="8,-301.2 8,-324.2 140,-324.2 140,-301.2 8,-301.2"/>
<text text-anchor="start" x="13" y="-309.8" font-family="Helvetica,sans-Serif" font-weight="bold" font-size="11.00" fill="#000000">alert_type</text>
<text text-anchor="start" x="105.0437" y="-309.3" font-family="Helvetica,sans-Serif" font-size="11.00" fill="#000000">[table]</text>
<polygon fill="none" stroke="#000000" points="8,-279.2 8,-301.2 140,-301.2 140,-279.2 8,-279.2"/>
<image xlink:href="../../images/primaryKeys.png" width="11px" height="12px" preserveAspectRatio="xMinYMin meet" x="13" y="-296.2"/>
<text text-anchor="start" x="28" y="-286.3" font-family="Helvetica,sans-Serif" font-size="11.00" fill="#000000">alert_type_id</text>
<polygon fill="#ffffff" stroke="transparent" points="8,-257.2 8,-279.2 140,-279.2 140,-257.2 8,-257.2"/>
<polygon fill="none" stroke="#000000" points="8,-257.2 8,-279.2 140,-279.2 140,-257.2 8,-257.2"/>
<text text-anchor="start" x="28" y="-264.3" font-family="Helvetica,sans-Serif" font-size="11.00" fill="#000000">code</text>
<polygon fill="#ffffff" stroke="transparent" points="8,-235.2 8,-257.2 140,-257.2 140,-235.2 8,-235.2"/>
<polygon fill="none" stroke="#000000" points="8,-235.2 8,-257.2 140,-257.2 140,-235.2 8,-235.2"/>
<text text-anchor="start" x="28" y="-242.3" font-family="Helvetica,sans-Serif" font-size="11.00" fill="#000000">list_sequence</text>
<polygon fill="#ffffff" stroke="transparent" points="8,-213.2 8,-235.2 140,-235.2 140,-213.2 8,-213.2"/>
<polygon fill="none" stroke="#000000" points="8,-213.2 8,-235.2 140,-235.2 140,-213.2 8,-213.2"/>
<text text-anchor="start" x="28" y="-220.3" font-family="Helvetica,sans-Serif" font-size="11.00" fill="#000000">created_at</text>
<polygon fill="#ffffff" stroke="transparent" points="8,-191.2 8,-213.2 140,-213.2 140,-191.2 8,-191.2"/>
<polygon fill="none" stroke="#000000" points="8,-191.2 8,-213.2 140,-213.2 140,-191.2 8,-191.2"/>
<text text-anchor="start" x="28" y="-198.3" font-family="Helvetica,sans-Serif" font-size="11.00" fill="#000000">deactivated_at</text>
<polygon fill="none" stroke="#000000" points="8,-172.2 8,-191.2 140,-191.2 140,-172.2 8,-172.2"/>
<text text-anchor="start" x="11" y="-178.3" font-family="Helvetica,sans-Serif" font-size="11.00" fill="#000000">...</text>
<polygon fill="#ffffff" stroke="transparent" points="8,-153.2 8,-172.2 140,-172.2 140,-153.2 8,-153.2"/>
<polygon fill="none" stroke="#000000" points="8,-153.2 8,-172.2 140,-172.2 140,-153.2 8,-153.2"/>
<polygon fill="#ffffff" stroke="transparent" points="9,-154.2 9,-171.2 50,-171.2 50,-154.2 9,-154.2"/>
<text text-anchor="start" x="11" y="-159.3" font-family="Helvetica,sans-Serif" font-size="11.00" fill="#000000"> &#160;</text>
<polygon fill="#ffffff" stroke="transparent" points="50,-154.2 50,-171.2 90,-171.2 90,-154.2 50,-154.2"/>
<text text-anchor="start" x="66.9431" y="-159.3" font-family="Helvetica,sans-Serif" font-size="11.00" fill="#000000"> &#160;</text>
<polygon fill="#ffffff" stroke="transparent" points="90,-154.2 90,-171.2 139,-171.2 139,-154.2 90,-154.2"/>
<text text-anchor="start" x="121.4053" y="-159.3" font-family="Helvetica,sans-Serif" font-size="11.00" fill="#000000">1 &gt;</text>
<polygon fill="#000000" stroke="#000000" points="50,-154.2 50,-171.2 50,-171.2 50,-154.2 50,-154.2"/>
<polygon fill="#000000" stroke="#000000" points="90,-154.2 90,-171.2 90,-171.2 90,-154.2 90,-154.2"/>
</a>
</g>
</g>
<!-- alert_code&#45;&gt;alert_type -->
<g id="edge2" class="edge">
<title>alert_code:w&#45;&gt;alert_type:e</title>
<path fill="none" stroke="#000000" d="M176.276,-290.2C164.2815,-290.2 156.8229,-290.2 140,-290.2"/>
<polygon fill="#000000" stroke="#000000" points="183,-290.2001 191,-293.8 187,-290.2 191,-290.2 191,-290.2 191,-290.2 187,-290.2 191,-286.6 183,-290.2001 183,-290.2001"/>
<ellipse fill="none" stroke="#000000" cx="179.8" cy="-290.2001" rx="3.2" ry="3.2"/>
</g>
<!-- alert_code_privileged_user -->
<g id="node4" class="node">
<title>alert_code_privileged_user</title>
<g id="a_node4"><a xlink:href="../../tables/alert_code_privileged_user.html" xlink:title="alert_code_privileged_user" target="_top">
<polygon fill="#ffffff" stroke="transparent" points="458,-325.2 458,-411.2 691,-411.2 691,-325.2 458,-325.2"/>
<polygon fill="#f5f5f5" stroke="transparent" points="458.5,-388.2 458.5,-411.2 691.5,-411.2 691.5,-388.2 458.5,-388.2"/>
<polygon fill="none" stroke="#000000" points="458.5,-388.2 458.5,-411.2 691.5,-411.2 691.5,-388.2 458.5,-388.2"/>
<text text-anchor="start" x="463.5" y="-396.8" font-family="Helvetica,sans-Serif" font-weight="bold" font-size="11.00" fill="#000000">alert_code_privileged_user</text>
<text text-anchor="start" x="657.0219" y="-396.3" font-family="Helvetica,sans-Serif" font-size="11.00" fill="#000000">[table]</text>
<polygon fill="none" stroke="#000000" points="458.5,-366.2 458.5,-388.2 691.5,-388.2 691.5,-366.2 458.5,-366.2"/>
<image xlink:href="../../images/primaryKeys.png" width="11px" height="12px" preserveAspectRatio="xMinYMin meet" x="463.5" y="-383.2"/>
<text text-anchor="start" x="487.5" y="-373.3" font-family="Helvetica,sans-Serif" font-size="11.00" fill="#000000">alert_code_id</text>
<polygon fill="none" stroke="#000000" points="458.5,-344.2 458.5,-366.2 691.5,-366.2 691.5,-344.2 458.5,-344.2"/>
<image xlink:href="../../images/primaryKeys.png" width="11px" height="12px" preserveAspectRatio="xMinYMin meet" x="463.5" y="-361.2"/>
<text text-anchor="start" x="487.5" y="-351.3" font-family="Helvetica,sans-Serif" font-size="11.00" fill="#000000">username</text>
<polygon fill="#ffffff" stroke="transparent" points="458.5,-325.2 458.5,-344.2 691.5,-344.2 691.5,-325.2 458.5,-325.2"/>
<polygon fill="none" stroke="#000000" points="458.5,-325.2 458.5,-344.2 691.5,-344.2 691.5,-325.2 458.5,-325.2"/>
<polygon fill="#ffffff" stroke="transparent" points="459.5,-326.2 459.5,-343.2 542.5,-343.2 542.5,-326.2 459.5,-326.2"/>
<text text-anchor="start" x="461.5" y="-331.3" font-family="Helvetica,sans-Serif" font-size="11.00" fill="#000000">&lt; 1</text>
<polygon fill="#ffffff" stroke="transparent" points="542.5,-326.2 542.5,-343.2 616.5,-343.2 616.5,-326.2 542.5,-326.2"/>
<text text-anchor="start" x="576.4431" y="-331.3" font-family="Helvetica,sans-Serif" font-size="11.00" fill="#000000"> &#160;</text>
<polygon fill="#ffffff" stroke="transparent" points="616.5,-326.2 616.5,-343.2 690.5,-343.2 690.5,-326.2 616.5,-326.2"/>
<text text-anchor="start" x="682.3862" y="-331.3" font-family="Helvetica,sans-Serif" font-size="11.00" fill="#000000"> &#160;</text>
<polygon fill="#000000" stroke="#000000" points="542.5,-326.2 542.5,-343.2 542.5,-343.2 542.5,-326.2 542.5,-326.2"/>
<polygon fill="#000000" stroke="#000000" points="616.5,-326.2 616.5,-343.2 616.5,-343.2 616.5,-326.2 616.5,-326.2"/>
</a>
</g>
</g>
<!-- alert_code_privileged_user&#45;&gt;alert_code -->
<g id="edge3" class="edge">
<title>alert_code_privileged_user:w&#45;&gt;alert_code:e</title>
<path fill="none" stroke="#000000" d="M444.6076,-372.5254C427.3418,-357.6214 437.8105,-312.2 407,-312.2"/>
<polygon fill="#000000" stroke="#000000" points="450.9177,-374.6486 457.3519,-380.612 454.7089,-375.9243 458.5,-377.2 458.5,-377.2 458.5,-377.2 454.7089,-375.9243 459.6481,-373.788 450.9177,-374.6486 450.9177,-374.6486"/>
<ellipse fill="none" stroke="#000000" cx="447.8848" cy="-373.6281" rx="3.2" ry="3.2"/>
</g>
<!-- audit_event -->
<g id="node5" class="node">
<title>audit_event</title>
<g id="a_node5"><a xlink:href="../../tables/audit_event.html" xlink:title="audit_event" target="_top">
<polygon fill="#ffffff" stroke="transparent" points="740,-241.7 740,-302.7 865,-302.7 865,-241.7 740,-241.7"/>
<polygon fill="#f5f5f5" stroke="transparent" points="740.5,-279.2 740.5,-302.2 865.5,-302.2 865.5,-279.2 740.5,-279.2"/>
<polygon fill="none" stroke="#000000" points="740.5,-279.2 740.5,-302.2 865.5,-302.2 865.5,-279.2 740.5,-279.2"/>
<text text-anchor="start" x="745.5" y="-287.8" font-family="Helvetica,sans-Serif" font-weight="bold" font-size="11.00" fill="#000000">audit_event</text>
<text text-anchor="start" x="831.0219" y="-287.3" font-family="Helvetica,sans-Serif" font-size="11.00" fill="#000000">[table]</text>
<polygon fill="none" stroke="#000000" points="740.5,-260.2 740.5,-279.2 865.5,-279.2 865.5,-260.2 740.5,-260.2"/>
<text text-anchor="start" x="743.5" y="-266.3" font-family="Helvetica,sans-Serif" font-size="11.00" fill="#000000">...</text>
<polygon fill="#ffffff" stroke="transparent" points="740.5,-241.2 740.5,-260.2 865.5,-260.2 865.5,-241.2 740.5,-241.2"/>
<polygon fill="none" stroke="#000000" points="740.5,-241.2 740.5,-260.2 865.5,-260.2 865.5,-241.2 740.5,-241.2"/>
<polygon fill="#ffffff" stroke="transparent" points="741.5,-242.2 741.5,-259.2 788.5,-259.2 788.5,-242.2 741.5,-242.2"/>
<text text-anchor="start" x="743.5" y="-247.3" font-family="Helvetica,sans-Serif" font-size="11.00" fill="#000000">&lt; 1</text>
<polygon fill="#ffffff" stroke="transparent" points="788.5,-242.2 788.5,-259.2 826.5,-259.2 826.5,-242.2 788.5,-242.2"/>
<text text-anchor="start" x="804.4431" y="-247.3" font-family="Helvetica,sans-Serif" font-size="11.00" fill="#000000"> &#160;</text>
<polygon fill="#ffffff" stroke="transparent" points="826.5,-242.2 826.5,-259.2 864.5,-259.2 864.5,-242.2 826.5,-242.2"/>
<text text-anchor="start" x="856.3862" y="-247.3" font-family="Helvetica,sans-Serif" font-size="11.00" fill="#000000"> &#160;</text>
<polygon fill="#000000" stroke="#000000" points="788.5,-242.2 788.5,-259.2 788.5,-259.2 788.5,-242.2 788.5,-242.2"/>
<polygon fill="#000000" stroke="#000000" points="826.5,-242.2 826.5,-259.2 826.5,-259.2 826.5,-242.2 826.5,-242.2"/>
</a>
</g>
</g>
<!-- audit_event&#45;&gt;alert -->
<g id="edge4" class="edge">
<title>audit_event:w&#45;&gt;alert:e</title>
<path fill="none" stroke="#000000" d="M725.954,-269.2C710.9776,-269.2 702.6389,-269.2 682.5,-269.2"/>
<polygon fill="#000000" stroke="#000000" points="732.5,-269.2001 740.5,-272.8 736.5,-269.2 740.5,-269.2 740.5,-269.2 740.5,-269.2 736.5,-269.2 740.5,-265.6 732.5,-269.2001 732.5,-269.2001"/>
<ellipse fill="none" stroke="#000000" cx="729.3" cy="-269.2001" rx="3.2" ry="3.2"/>
</g>
</g>
</svg>
