<?xml version="1.0" encoding="UTF-8" standalone="no"?>
<!DOCTYPE svg PUBLIC "-//W3C//DTD SVG 1.1//EN"
 "http://www.w3.org/Graphics/SVG/1.1/DTD/svg11.dtd">
<!-- Generated by graphviz version 2.40.1 (20161225.0304)
 -->
<!-- Title: twoDegreesRelationshipsDiagram Pages: 1 -->
<svg width="841pt" height="423pt"
 viewBox="0.00 0.00 841.00 423.20" xmlns="http://www.w3.org/2000/svg" xmlns:xlink="http://www.w3.org/1999/xlink">
<g id="graph0" class="graph" transform="scale(1 1) rotate(0) translate(4 419.2)">
<title>twoDegreesRelationshipsDiagram</title>
<polygon fill="#ffffff" stroke="transparent" points="-4,4 -4,-419.2 837,-419.2 837,4 -4,4"/>
<text text-anchor="middle" x="72.4936" y="-7.3" font-family="Helvetica,sans-Serif" font-size="11.00" fill="#000000">Generated by SchemaSpy</text>
<!-- alert -->
<g id="node1" class="node">
<title>alert</title>
<g id="a_node1"><a xlink:href="../../tables/alert.html" xlink:title="alert" target="_top">
<polygon fill="#ffffff" stroke="transparent" points="448.5,-66.7 448.5,-303.7 649.5,-303.7 649.5,-66.7 448.5,-66.7"/>
<polygon fill="#f5f5f5" stroke="transparent" points="449,-280.2 449,-303.2 650,-303.2 650,-280.2 449,-280.2"/>
<polygon fill="none" stroke="#000000" points="449,-280.2 449,-303.2 650,-303.2 650,-280.2 449,-280.2"/>
<text text-anchor="start" x="454" y="-288.8" font-family="Helvetica,sans-Serif" font-weight="bold" font-size="11.00" fill="#000000">alert</text>
<text text-anchor="start" x="615.0437" y="-288.3" font-family="Helvetica,sans-Serif" font-size="11.00" fill="#000000">[table]</text>
<polygon fill="none" stroke="#000000" points="449,-258.2 449,-280.2 650,-280.2 650,-258.2 449,-258.2"/>
<image xlink:href="../../images/primaryKeys.png" width="11px" height="12px" preserveAspectRatio="xMinYMin meet" x="454" y="-275.2"/>
<text text-anchor="start" x="469" y="-265.3" font-family="Helvetica,sans-Serif" font-size="11.00" fill="#000000">id</text>
<polygon fill="#ffffff" stroke="transparent" points="449,-236.2 449,-258.2 650,-258.2 650,-236.2 449,-236.2"/>
<polygon fill="none" stroke="#000000" points="449,-236.2 449,-258.2 650,-258.2 650,-236.2 449,-236.2"/>
<image xlink:href="../../images/foreignKeys.png" width="11px" height="12px" preserveAspectRatio="xMinYMin meet" x="454" y="-253.2"/>
<text text-anchor="start" x="469" y="-243.3" font-family="Helvetica,sans-Serif" font-size="11.00" fill="#000000">alert_code_id</text>
<polygon fill="#ffffff" stroke="transparent" points="449,-214.2 449,-236.2 650,-236.2 650,-214.2 449,-214.2"/>
<polygon fill="none" stroke="#000000" points="449,-214.2 449,-236.2 650,-236.2 650,-214.2 449,-214.2"/>
<image xlink:href="../../images/foreignKeys.png" width="11px" height="12px" preserveAspectRatio="xMinYMin meet" x="454" y="-231.2"/>
<text text-anchor="start" x="469" y="-221.3" font-family="Helvetica,sans-Serif" font-size="11.00" fill="#000000">prison_number</text>
<polygon fill="#ffffff" stroke="transparent" points="449,-192.2 449,-214.2 650,-214.2 650,-192.2 449,-192.2"/>
<polygon fill="none" stroke="#000000" points="449,-192.2 449,-214.2 650,-214.2 650,-192.2 449,-192.2"/>
<text text-anchor="start" x="469" y="-199.3" font-family="Helvetica,sans-Serif" font-size="11.00" fill="#000000">active_from</text>
<polygon fill="#ffffff" stroke="transparent" points="449,-170.2 449,-192.2 650,-192.2 650,-170.2 449,-170.2"/>
<polygon fill="none" stroke="#000000" points="449,-170.2 449,-192.2 650,-192.2 650,-170.2 449,-170.2"/>
<text text-anchor="start" x="469" y="-177.3" font-family="Helvetica,sans-Serif" font-size="11.00" fill="#000000">active_to</text>
<polygon fill="#ffffff" stroke="transparent" points="449,-148.2 449,-170.2 650,-170.2 650,-148.2 449,-148.2"/>
<polygon fill="none" stroke="#000000" points="449,-148.2 449,-170.2 650,-170.2 650,-148.2 449,-148.2"/>
<text text-anchor="start" x="469" y="-155.3" font-family="Helvetica,sans-Serif" font-size="11.00" fill="#000000">deleted_at</text>
<polygon fill="#ffffff" stroke="transparent" points="449,-126.2 449,-148.2 650,-148.2 650,-126.2 449,-126.2"/>
<polygon fill="none" stroke="#000000" points="449,-126.2 449,-148.2 650,-148.2 650,-126.2 449,-126.2"/>
<text text-anchor="start" x="469" y="-133.3" font-family="Helvetica,sans-Serif" font-size="11.00" fill="#000000">created_at</text>
<polygon fill="#ffffff" stroke="transparent" points="449,-104.2 449,-126.2 650,-126.2 650,-104.2 449,-104.2"/>
<polygon fill="none" stroke="#000000" points="449,-104.2 449,-126.2 650,-126.2 650,-104.2 449,-104.2"/>
<text text-anchor="start" x="469" y="-111.3" font-family="Helvetica,sans-Serif" font-size="11.00" fill="#000000">last_modified_at</text>
<polygon fill="none" stroke="#000000" points="449,-85.2 449,-104.2 650,-104.2 650,-85.2 449,-85.2"/>
<text text-anchor="start" x="452" y="-91.3" font-family="Helvetica,sans-Serif" font-size="11.00" fill="#000000">...</text>
<polygon fill="#ffffff" stroke="transparent" points="449,-66.2 449,-85.2 543,-85.2 543,-66.2 449,-66.2"/>
<polygon fill="none" stroke="#000000" points="449,-66.2 449,-85.2 543,-85.2 543,-66.2 449,-66.2"/>
<text text-anchor="start" x="452" y="-72.3" font-family="Helvetica,sans-Serif" font-size="11.00" fill="#000000">&lt; 1</text>
<polygon fill="#ffffff" stroke="transparent" points="543,-66.2 543,-85.2 592,-85.2 592,-66.2 543,-66.2"/>
<polygon fill="none" stroke="#000000" points="543,-66.2 543,-85.2 592,-85.2 592,-66.2 543,-66.2"/>
<text text-anchor="start" x="582.8862" y="-72.3" font-family="Helvetica,sans-Serif" font-size="11.00" fill="#000000"> &#160;</text>
<polygon fill="#ffffff" stroke="transparent" points="592,-66.2 592,-85.2 650,-85.2 650,-66.2 592,-66.2"/>
<polygon fill="none" stroke="#000000" points="592,-66.2 592,-85.2 650,-85.2 650,-66.2 592,-66.2"/>
<text text-anchor="start" x="631.4053" y="-72.3" font-family="Helvetica,sans-Serif" font-size="11.00" fill="#000000">1 &gt;</text>
</a>
</g>
</g>
<!-- alert_code -->
<g id="node2" class="node">
<title>alert_code</title>
<g id="a_node2"><a xlink:href="../../tables/alert_code.html" xlink:title="alert_code" target="_top">
<polygon fill="#ffffff" stroke="transparent" points="180,-38.2 180,-348.2 391,-348.2 391,-38.2 180,-38.2"/>
<polygon fill="#f5f5f5" stroke="transparent" points="182.5,-323.2 182.5,-346.2 389.5,-346.2 389.5,-323.2 182.5,-323.2"/>
<polygon fill="none" stroke="#000000" points="182.5,-323.2 182.5,-346.2 389.5,-346.2 389.5,-323.2 182.5,-323.2"/>
<text text-anchor="start" x="187.5" y="-331.8" font-family="Helvetica,sans-Serif" font-weight="bold" font-size="11.00" fill="#000000">alert_code</text>
<text text-anchor="start" x="354.5437" y="-331.3" font-family="Helvetica,sans-Serif" font-size="11.00" fill="#000000">[table]</text>
<polygon fill="none" stroke="#000000" points="182.5,-301.2 182.5,-323.2 305.5,-323.2 305.5,-301.2 182.5,-301.2"/>
<image xlink:href="../../images/primaryKeys.png" width="11px" height="12px" preserveAspectRatio="xMinYMin meet" x="187.5" y="-318.2"/>
<text text-anchor="start" x="202.5" y="-308.3" font-family="Helvetica,sans-Serif" font-size="11.00" fill="#000000">alert_code_id</text>
<polygon fill="none" stroke="#000000" points="305.5,-301.2 305.5,-323.2 389.5,-323.2 389.5,-301.2 305.5,-301.2"/>
<text text-anchor="start" x="308.5" y="-308.9" font-family="Helvetica,sans-Serif" font-size="11.00" fill="#000000">bigserial[19]</text>
<polygon fill="#ffffff" stroke="transparent" points="182.5,-279.2 182.5,-301.2 305.5,-301.2 305.5,-279.2 182.5,-279.2"/>
<polygon fill="none" stroke="#000000" points="182.5,-279.2 182.5,-301.2 305.5,-301.2 305.5,-279.2 182.5,-279.2"/>
<image xlink:href="../../images/foreignKeys.png" width="11px" height="12px" preserveAspectRatio="xMinYMin meet" x="187.5" y="-296.2"/>
<text text-anchor="start" x="202.5" y="-286.3" font-family="Helvetica,sans-Serif" font-size="11.00" fill="#000000">alert_type_id</text>
<polygon fill="none" stroke="#000000" points="305.5,-279.2 305.5,-301.2 389.5,-301.2 389.5,-279.2 305.5,-279.2"/>
<text text-anchor="start" x="308.5" y="-286.9" font-family="Helvetica,sans-Serif" font-size="11.00" fill="#000000">int8[19]</text>
<polygon fill="#ffffff" stroke="transparent" points="182.5,-257.2 182.5,-279.2 305.5,-279.2 305.5,-257.2 182.5,-257.2"/>
<polygon fill="none" stroke="#000000" points="182.5,-257.2 182.5,-279.2 305.5,-279.2 305.5,-257.2 182.5,-257.2"/>
<text text-anchor="start" x="202.5" y="-264.3" font-family="Helvetica,sans-Serif" font-size="11.00" fill="#000000">code</text>
<polygon fill="none" stroke="#000000" points="305.5,-257.2 305.5,-279.2 389.5,-279.2 389.5,-257.2 305.5,-257.2"/>
<text text-anchor="start" x="308.5" y="-264.9" font-family="Helvetica,sans-Serif" font-size="11.00" fill="#000000">varchar[12]</text>
<polygon fill="none" stroke="#000000" points="182.5,-235.2 182.5,-257.2 305.5,-257.2 305.5,-235.2 182.5,-235.2"/>
<text text-anchor="start" x="202.5" y="-242.3" font-family="Helvetica,sans-Serif" font-size="11.00" fill="#000000">description</text>
<polygon fill="none" stroke="#000000" points="305.5,-235.2 305.5,-257.2 389.5,-257.2 389.5,-235.2 305.5,-235.2"/>
<text text-anchor="start" x="308.5" y="-242.9" font-family="Helvetica,sans-Serif" font-size="11.00" fill="#000000">varchar[40]</text>
<polygon fill="#ffffff" stroke="transparent" points="182.5,-213.2 182.5,-235.2 305.5,-235.2 305.5,-213.2 182.5,-213.2"/>
<polygon fill="none" stroke="#000000" points="182.5,-213.2 182.5,-235.2 305.5,-235.2 305.5,-213.2 182.5,-213.2"/>
<text text-anchor="start" x="202.5" y="-220.3" font-family="Helvetica,sans-Serif" font-size="11.00" fill="#000000">list_sequence</text>
<polygon fill="none" stroke="#000000" points="305.5,-213.2 305.5,-235.2 389.5,-235.2 389.5,-213.2 305.5,-213.2"/>
<text text-anchor="start" x="308.5" y="-220.9" font-family="Helvetica,sans-Serif" font-size="11.00" fill="#000000">int4[10]</text>
<polygon fill="#ffffff" stroke="transparent" points="182.5,-191.2 182.5,-213.2 305.5,-213.2 305.5,-191.2 182.5,-191.2"/>
<polygon fill="none" stroke="#000000" points="182.5,-191.2 182.5,-213.2 305.5,-213.2 305.5,-191.2 182.5,-191.2"/>
<text text-anchor="start" x="202.5" y="-198.3" font-family="Helvetica,sans-Serif" font-size="11.00" fill="#000000">created_at</text>
<polygon fill="none" stroke="#000000" points="305.5,-191.2 305.5,-213.2 389.5,-213.2 389.5,-191.2 305.5,-191.2"/>
<text text-anchor="start" x="308.3807" y="-198.9" font-family="Helvetica,sans-Serif" font-size="11.00" fill="#000000">timestamp[29,6]</text>
<polygon fill="none" stroke="#000000" points="182.5,-169.2 182.5,-191.2 305.5,-191.2 305.5,-169.2 182.5,-169.2"/>
<text text-anchor="start" x="202.5" y="-176.3" font-family="Helvetica,sans-Serif" font-size="11.00" fill="#000000">created_by</text>
<polygon fill="none" stroke="#000000" points="305.5,-169.2 305.5,-191.2 389.5,-191.2 389.5,-169.2 305.5,-169.2"/>
<text text-anchor="start" x="308.5" y="-176.9" font-family="Helvetica,sans-Serif" font-size="11.00" fill="#000000">varchar[64]</text>
<polygon fill="none" stroke="#000000" points="182.5,-147.2 182.5,-169.2 305.5,-169.2 305.5,-147.2 182.5,-147.2"/>
<text text-anchor="start" x="202.5" y="-154.3" font-family="Helvetica,sans-Serif" font-size="11.00" fill="#000000">modified_at</text>
<polygon fill="none" stroke="#000000" points="305.5,-147.2 305.5,-169.2 389.5,-169.2 389.5,-147.2 305.5,-147.2"/>
<text text-anchor="start" x="308.3807" y="-154.9" font-family="Helvetica,sans-Serif" font-size="11.00" fill="#000000">timestamp[29,6]</text>
<polygon fill="none" stroke="#000000" points="182.5,-125.2 182.5,-147.2 305.5,-147.2 305.5,-125.2 182.5,-125.2"/>
<text text-anchor="start" x="202.5" y="-132.3" font-family="Helvetica,sans-Serif" font-size="11.00" fill="#000000">modified_by</text>
<polygon fill="none" stroke="#000000" points="305.5,-125.2 305.5,-147.2 389.5,-147.2 389.5,-125.2 305.5,-125.2"/>
<text text-anchor="start" x="308.5" y="-132.9" font-family="Helvetica,sans-Serif" font-size="11.00" fill="#000000">varchar[64]</text>
<polygon fill="#ffffff" stroke="transparent" points="182.5,-103.2 182.5,-125.2 305.5,-125.2 305.5,-103.2 182.5,-103.2"/>
<polygon fill="none" stroke="#000000" points="182.5,-103.2 182.5,-125.2 305.5,-125.2 305.5,-103.2 182.5,-103.2"/>
<text text-anchor="start" x="202.5" y="-110.3" font-family="Helvetica,sans-Serif" font-size="11.00" fill="#000000">deactivated_at</text>
<polygon fill="none" stroke="#000000" points="305.5,-103.2 305.5,-125.2 389.5,-125.2 389.5,-103.2 305.5,-103.2"/>
<text text-anchor="start" x="308.3807" y="-110.9" font-family="Helvetica,sans-Serif" font-size="11.00" fill="#000000">timestamp[29,6]</text>
<polygon fill="none" stroke="#000000" points="182.5,-81.2 182.5,-103.2 305.5,-103.2 305.5,-81.2 182.5,-81.2"/>
<text text-anchor="start" x="202.5" y="-88.3" font-family="Helvetica,sans-Serif" font-size="11.00" fill="#000000">deactivated_by</text>
<polygon fill="none" stroke="#000000" points="305.5,-81.2 305.5,-103.2 389.5,-103.2 389.5,-81.2 305.5,-81.2"/>
<text text-anchor="start" x="308.5" y="-88.9" font-family="Helvetica,sans-Serif" font-size="11.00" fill="#000000">varchar[64]</text>
<polygon fill="none" stroke="#000000" points="182.5,-59.2 182.5,-81.2 305.5,-81.2 305.5,-59.2 182.5,-59.2"/>
<text text-anchor="start" x="202.5" y="-66.3" font-family="Helvetica,sans-Serif" font-size="11.00" fill="#000000">restricted</text>
<polygon fill="none" stroke="#000000" points="305.5,-59.2 305.5,-81.2 389.5,-81.2 389.5,-59.2 305.5,-59.2"/>
<text text-anchor="start" x="308.5" y="-66.9" font-family="Helvetica,sans-Serif" font-size="11.00" fill="#000000">bool[1]</text>
<polygon fill="#ffffff" stroke="transparent" points="182.5,-40.2 182.5,-59.2 248.5,-59.2 248.5,-40.2 182.5,-40.2"/>
<polygon fill="none" stroke="#000000" points="182.5,-40.2 182.5,-59.2 248.5,-59.2 248.5,-40.2 182.5,-40.2"/>
<text text-anchor="start" x="185.5" y="-46.3" font-family="Helvetica,sans-Serif" font-size="11.00" fill="#000000">&lt; 1</text>
<polygon fill="#ffffff" stroke="transparent" points="248.5,-40.2 248.5,-59.2 305.5,-59.2 305.5,-40.2 248.5,-40.2"/>
<polygon fill="none" stroke="#000000" points="248.5,-40.2 248.5,-59.2 305.5,-59.2 305.5,-40.2 248.5,-40.2"/>
<text text-anchor="start" x="296.3862" y="-46.3" font-family="Helvetica,sans-Serif" font-size="11.00" fill="#000000"> &#160;</text>
<polygon fill="#ffffff" stroke="transparent" points="305.5,-40.2 305.5,-59.2 389.5,-59.2 389.5,-40.2 305.5,-40.2"/>
<polygon fill="none" stroke="#000000" points="305.5,-40.2 305.5,-59.2 389.5,-59.2 389.5,-40.2 305.5,-40.2"/>
<text text-anchor="start" x="370.9053" y="-46.3" font-family="Helvetica,sans-Serif" font-size="11.00" fill="#000000">2 &gt;</text>
<polygon fill="none" stroke="#000000" stroke-width="2" points="181,-39.2 181,-347.2 390,-347.2 390,-39.2 181,-39.2"/>
</a>
</g>
</g>
<!-- alert&#45;&gt;alert_code -->
<g id="edge1" class="edge">
<title>alert:w&#45;&gt;alert_code:e</title>
<path fill="none" stroke="#000000" d="M435.0136,-251.0714C414.1474,-265.0647 422.8512,-312.2 389.5,-312.2"/>
<polygon fill="#000000" stroke="#000000" points="441.2899,-249.3342 449.9604,-250.6695 445.145,-248.2671 449,-247.2 449,-247.2 449,-247.2 445.145,-248.2671 448.0396,-243.7305 441.2899,-249.3342 441.2899,-249.3342"/>
<ellipse fill="none" stroke="#000000" cx="438.2059" cy="-250.1878" rx="3.2" ry="3.2"/>
</g>
<!-- alert_type -->
<g id="node3" class="node">
<title>alert_type</title>
<g id="a_node3"><a xlink:href="../../tables/alert_type.html" xlink:title="alert_type" target="_top">
<polygon fill="#ffffff" stroke="transparent" points="8,-153.7 8,-324.7 131,-324.7 131,-153.7 8,-153.7"/>
<polygon fill="#f5f5f5" stroke="transparent" points="8.5,-301.2 8.5,-324.2 131.5,-324.2 131.5,-301.2 8.5,-301.2"/>
<polygon fill="none" stroke="#000000" points="8.5,-301.2 8.5,-324.2 131.5,-324.2 131.5,-301.2 8.5,-301.2"/>
<text text-anchor="start" x="13.5" y="-309.8" font-family="Helvetica,sans-Serif" font-weight="bold" font-size="11.00" fill="#000000">alert_type</text>
<text text-anchor="start" x="96.5437" y="-309.3" font-family="Helvetica,sans-Serif" font-size="11.00" fill="#000000">[table]</text>
<polygon fill="none" stroke="#000000" points="8.5,-279.2 8.5,-301.2 131.5,-301.2 131.5,-279.2 8.5,-279.2"/>
<image xlink:href="../../images/primaryKeys.png" width="11px" height="12px" preserveAspectRatio="xMinYMin meet" x="13.5" y="-296.2"/>
<text text-anchor="start" x="28.5" y="-286.3" font-family="Helvetica,sans-Serif" font-size="11.00" fill="#000000">alert_type_id</text>
<polygon fill="#ffffff" stroke="transparent" points="8.5,-257.2 8.5,-279.2 131.5,-279.2 131.5,-257.2 8.5,-257.2"/>
<polygon fill="none" stroke="#000000" points="8.5,-257.2 8.5,-279.2 131.5,-279.2 131.5,-257.2 8.5,-257.2"/>
<text text-anchor="start" x="28.5" y="-264.3" font-family="Helvetica,sans-Serif" font-size="11.00" fill="#000000">code</text>
<polygon fill="#ffffff" stroke="transparent" points="8.5,-235.2 8.5,-257.2 131.5,-257.2 131.5,-235.2 8.5,-235.2"/>
<polygon fill="none" stroke="#000000" points="8.5,-235.2 8.5,-257.2 131.5,-257.2 131.5,-235.2 8.5,-235.2"/>
<text text-anchor="start" x="28.5" y="-242.3" font-family="Helvetica,sans-Serif" font-size="11.00" fill="#000000">list_sequence</text>
<polygon fill="#ffffff" stroke="transparent" points="8.5,-213.2 8.5,-235.2 131.5,-235.2 131.5,-213.2 8.5,-213.2"/>
<polygon fill="none" stroke="#000000" points="8.5,-213.2 8.5,-235.2 131.5,-235.2 131.5,-213.2 8.5,-213.2"/>
<text text-anchor="start" x="28.5" y="-220.3" font-family="Helvetica,sans-Serif" font-size="11.00" fill="#000000">created_at</text>
<polygon fill="#ffffff" stroke="transparent" points="8.5,-191.2 8.5,-213.2 131.5,-213.2 131.5,-191.2 8.5,-191.2"/>
<polygon fill="none" stroke="#000000" points="8.5,-191.2 8.5,-213.2 131.5,-213.2 131.5,-191.2 8.5,-191.2"/>
<text text-anchor="start" x="28.5" y="-198.3" font-family="Helvetica,sans-Serif" font-size="11.00" fill="#000000">deactivated_at</text>
<polygon fill="none" stroke="#000000" points="8.5,-172.2 8.5,-191.2 131.5,-191.2 131.5,-172.2 8.5,-172.2"/>
<text text-anchor="start" x="11.5" y="-178.3" font-family="Helvetica,sans-Serif" font-size="11.00" fill="#000000">...</text>
<polygon fill="#ffffff" stroke="transparent" points="8.5,-153.2 8.5,-172.2 59.5,-172.2 59.5,-153.2 8.5,-153.2"/>
<polygon fill="none" stroke="#000000" points="8.5,-153.2 8.5,-172.2 59.5,-172.2 59.5,-153.2 8.5,-153.2"/>
<text text-anchor="start" x="11.5" y="-159.3" font-family="Helvetica,sans-Serif" font-size="11.00" fill="#000000"> &#160;</text>
<polygon fill="#ffffff" stroke="transparent" points="59.5,-153.2 59.5,-172.2 90.5,-172.2 90.5,-153.2 59.5,-153.2"/>
<polygon fill="none" stroke="#000000" points="59.5,-153.2 59.5,-172.2 90.5,-172.2 90.5,-153.2 59.5,-153.2"/>
<text text-anchor="start" x="81.3862" y="-159.3" font-family="Helvetica,sans-Serif" font-size="11.00" fill="#000000"> &#160;</text>
<polygon fill="#ffffff" stroke="transparent" points="90.5,-153.2 90.5,-172.2 131.5,-172.2 131.5,-153.2 90.5,-153.2"/>
<polygon fill="none" stroke="#000000" points="90.5,-153.2 90.5,-172.2 131.5,-172.2 131.5,-153.2 90.5,-153.2"/>
<text text-anchor="start" x="112.9053" y="-159.3" font-family="Helvetica,sans-Serif" font-size="11.00" fill="#000000">1 &gt;</text>
</a>
</g>
</g>
<!-- alert_code&#45;&gt;alert_type -->
<g id="edge2" class="edge">
<title>alert_code:w&#45;&gt;alert_type:e</title>
<path fill="none" stroke="#000000" d="M167.776,-290.2C155.7815,-290.2 148.3229,-290.2 131.5,-290.2"/>
<polygon fill="#000000" stroke="#000000" points="174.5,-290.2001 182.5,-293.8 178.5,-290.2 182.5,-290.2 182.5,-290.2 182.5,-290.2 178.5,-290.2 182.5,-286.6 174.5,-290.2001 174.5,-290.2001"/>
<ellipse fill="none" stroke="#000000" cx="171.3" cy="-290.2001" rx="3.2" ry="3.2"/>
</g>
<!-- alert_code_privileged_user -->
<g id="node4" class="node">
<title>alert_code_privileged_user</title>
<g id="a_node4"><a xlink:href="../../tables/alert_code_privileged_user.html" xlink:title="alert_code_privileged_user" target="_top">
<polygon fill="#ffffff" stroke="transparent" points="440,-325.2 440,-411.2 658,-411.2 658,-325.2 440,-325.2"/>
<polygon fill="#f5f5f5" stroke="transparent" points="440,-388.2 440,-411.2 658,-411.2 658,-388.2 440,-388.2"/>
<polygon fill="none" stroke="#000000" points="440,-388.2 440,-411.2 658,-411.2 658,-388.2 440,-388.2"/>
<text text-anchor="start" x="445" y="-396.8" font-family="Helvetica,sans-Serif" font-weight="bold" font-size="11.00" fill="#000000">alert_code_privileged_user</text>
<text text-anchor="start" x="623.5219" y="-396.3" font-family="Helvetica,sans-Serif" font-size="11.00" fill="#000000">[table]</text>
<polygon fill="none" stroke="#000000" points="440,-366.2 440,-388.2 658,-388.2 658,-366.2 440,-366.2"/>
<image xlink:href="../../images/primaryKeys.png" width="11px" height="12px" preserveAspectRatio="xMinYMin meet" x="445" y="-383.2"/>
<text text-anchor="start" x="469" y="-373.3" font-family="Helvetica,sans-Serif" font-size="11.00" fill="#000000">alert_code_id</text>
<polygon fill="none" stroke="#000000" points="440,-344.2 440,-366.2 658,-366.2 658,-344.2 440,-344.2"/>
<image xlink:href="../../images/primaryKeys.png" width="11px" height="12px" preserveAspectRatio="xMinYMin meet" x="445" y="-361.2"/>
<text text-anchor="start" x="469" y="-351.3" font-family="Helvetica,sans-Serif" font-size="11.00" fill="#000000">username</text>
<polygon fill="#ffffff" stroke="transparent" points="440,-325.2 440,-344.2 547,-344.2 547,-325.2 440,-325.2"/>
<polygon fill="none" stroke="#000000" points="440,-325.2 440,-344.2 547,-344.2 547,-325.2 440,-325.2"/>
<text text-anchor="start" x="443" y="-331.3" font-family="Helvetica,sans-Serif" font-size="11.00" fill="#000000">&lt; 1</text>
<polygon fill="#ffffff" stroke="transparent" points="547,-325.2 547,-344.2 602,-344.2 602,-325.2 547,-325.2"/>
<polygon fill="none" stroke="#000000" points="547,-325.2 547,-344.2 602,-344.2 602,-325.2 547,-325.2"/>
<text text-anchor="start" x="592.8862" y="-331.3" font-family="Helvetica,sans-Serif" font-size="11.00" fill="#000000"> &#160;</text>
<polygon fill="#ffffff" stroke="transparent" points="602,-325.2 602,-344.2 658,-344.2 658,-325.2 602,-325.2"/>
<polygon fill="none" stroke="#000000" points="602,-325.2 602,-344.2 658,-344.2 658,-325.2 602,-325.2"/>
<text text-anchor="start" x="648.8862" y="-331.3" font-family="Helvetica,sans-Serif" font-size="11.00" fill="#000000"> &#160;</text>
</a>
</g>
</g>
<!-- alert_code_privileged_user&#45;&gt;alert_code -->
<g id="edge3" class="edge">
<title>alert_code_privileged_user:w&#45;&gt;alert_code:e</title>
<path fill="none" stroke="#000000" d="M426.2553,-372.5254C409.2595,-357.6214 420.0812,-312.2 389.5,-312.2"/>
<polygon fill="#000000" stroke="#000000" points="432.4261,-374.624 438.8408,-380.6083 436.213,-375.912 440,-377.2 440,-377.2 440,-377.2 436.213,-375.912 441.1592,-373.7917 432.4261,-374.624 432.4261,-374.624"/>
<ellipse fill="none" stroke="#000000" cx="429.3965" cy="-373.5936" rx="3.2" ry="3.2"/>
</g>
<!-- audit_event -->
<g id="node5" class="node">
<title>audit_event</title>
<g id="a_node5"><a xlink:href="../../tables/audit_event.html" xlink:title="audit_event" target="_top">
<polygon fill="#ffffff" stroke="transparent" points="707,-241.7 707,-302.7 825,-302.7 825,-241.7 707,-241.7"/>
<polygon fill="#f5f5f5" stroke="transparent" points="707,-279.2 707,-302.2 825,-302.2 825,-279.2 707,-279.2"/>
<polygon fill="none" stroke="#000000" points="707,-279.2 707,-302.2 825,-302.2 825,-279.2 707,-279.2"/>
<text text-anchor="start" x="712" y="-287.8" font-family="Helvetica,sans-Serif" font-weight="bold" font-size="11.00" fill="#000000">audit_event</text>
<text text-anchor="start" x="790.5219" y="-287.3" font-family="Helvetica,sans-Serif" font-size="11.00" fill="#000000">[table]</text>
<polygon fill="none" stroke="#000000" points="707,-260.2 707,-279.2 825,-279.2 825,-260.2 707,-260.2"/>
<text text-anchor="start" x="710" y="-266.3" font-family="Helvetica,sans-Serif" font-size="11.00" fill="#000000">...</text>
<polygon fill="#ffffff" stroke="transparent" points="707,-241.2 707,-260.2 764,-260.2 764,-241.2 707,-241.2"/>
<polygon fill="none" stroke="#000000" points="707,-241.2 707,-260.2 764,-260.2 764,-241.2 707,-241.2"/>
<text text-anchor="start" x="710" y="-247.3" font-family="Helvetica,sans-Serif" font-size="11.00" fill="#000000">&lt; 1</text>
<polygon fill="#ffffff" stroke="transparent" points="764,-241.2 764,-260.2 794,-260.2 794,-241.2 764,-241.2"/>
<polygon fill="none" stroke="#000000" points="764,-241.2 764,-260.2 794,-260.2 794,-241.2 764,-241.2"/>
<text text-anchor="start" x="784.8862" y="-247.3" font-family="Helvetica,sans-Serif" font-size="11.00" fill="#000000"> &#160;</text>
<polygon fill="#ffffff" stroke="transparent" points="794,-241.2 794,-260.2 825,-260.2 825,-241.2 794,-241.2"/>
<polygon fill="none" stroke="#000000" points="794,-241.2 794,-260.2 825,-260.2 825,-241.2 794,-241.2"/>
<text text-anchor="start" x="815.8862" y="-247.3" font-family="Helvetica,sans-Serif" font-size="11.00" fill="#000000"> &#160;</text>
</a>
</g>
</g>
<!-- audit_event&#45;&gt;alert -->
<g id="edge4" class="edge">
<title>audit_event:w&#45;&gt;alert:e</title>
<path fill="none" stroke="#000000" d="M692.2652,-269.2C677.8216,-269.2 669.5938,-269.2 650,-269.2"/>
<polygon fill="#000000" stroke="#000000" points="699,-269.2001 707,-272.8 703,-269.2 707,-269.2 707,-269.2 707,-269.2 703,-269.2 707,-265.6 699,-269.2001 699,-269.2001"/>
<ellipse fill="none" stroke="#000000" cx="695.8" cy="-269.2001" rx="3.2" ry="3.2"/>
</g>
</g>
</svg>
