<?xml version="1.0" encoding="UTF-8" standalone="no"?>
<!DOCTYPE svg PUBLIC "-//W3C//DTD SVG 1.1//EN"
 "http://www.w3.org/Graphics/SVG/1.1/DTD/svg11.dtd">
<!-- Generated by graphviz version 2.40.1 (20161225.0304)
 -->
<!-- Title: oneDegreeRelationshipsDiagramImplied Pages: 1 -->
<svg width="845pt" height="433pt"
 viewBox="0.00 0.00 845.00 432.70" xmlns="http://www.w3.org/2000/svg" xmlns:xlink="http://www.w3.org/1999/xlink">
<g id="graph0" class="graph" transform="scale(1 1) rotate(0) translate(4 428.7)">
<title>oneDegreeRelationshipsDiagramImplied</title>
<polygon fill="#ffffff" stroke="transparent" points="-4,4 -4,-428.7 841,-428.7 841,4 -4,4"/>
<text text-anchor="middle" x="72.4936" y="-7.3" font-family="Helvetica,sans-Serif" font-size="11.00" fill="#000000">Generated by SchemaSpy</text>
<!-- alert -->
<g id="node1" class="node">
<title>alert</title>
<g id="a_node1"><a xlink:href="../../tables/alert.html" xlink:title="alert" target="_top">
<polygon fill="#ffffff" stroke="transparent" points="252,-38.2 252,-348.2 566,-348.2 566,-38.2 252,-38.2"/>
<polygon fill="#f5f5f5" stroke="transparent" points="254,-323.2 254,-346.2 564,-346.2 564,-323.2 254,-323.2"/>
<polygon fill="none" stroke="#000000" points="254,-323.2 254,-346.2 564,-346.2 564,-323.2 254,-323.2"/>
<text text-anchor="start" x="259" y="-331.8" font-family="Helvetica,sans-Serif" font-weight="bold" font-size="11.00" fill="#000000">alert</text>
<text text-anchor="start" x="529.0437" y="-331.3" font-family="Helvetica,sans-Serif" font-size="11.00" fill="#000000">[table]</text>
<polygon fill="none" stroke="#000000" points="254,-301.2 254,-323.2 470,-323.2 470,-301.2 254,-301.2"/>
<image xlink:href="../../images/primaryKeys.png" width="11px" height="12px" preserveAspectRatio="xMinYMin meet" x="259" y="-318.2"/>
<text text-anchor="start" x="274" y="-308.3" font-family="Helvetica,sans-Serif" font-size="11.00" fill="#000000">id</text>
<polygon fill="none" stroke="#000000" points="470,-301.2 470,-323.2 564,-323.2 564,-301.2 470,-301.2"/>
<text text-anchor="start" x="472.9758" y="-308.9" font-family="Helvetica,sans-Serif" font-size="11.00" fill="#000000">uuid[2147483647]</text>
<polygon fill="#ffffff" stroke="transparent" points="254,-279.2 254,-301.2 470,-301.2 470,-279.2 254,-279.2"/>
<polygon fill="none" stroke="#000000" points="254,-279.2 254,-301.2 470,-301.2 470,-279.2 254,-279.2"/>
<image xlink:href="../../images/foreignKeys.png" width="11px" height="12px" preserveAspectRatio="xMinYMin meet" x="259" y="-296.2"/>
<text text-anchor="start" x="274" y="-286.3" font-family="Helvetica,sans-Serif" font-size="11.00" fill="#000000">alert_code_id</text>
<polygon fill="none" stroke="#000000" points="470,-279.2 470,-301.2 564,-301.2 564,-279.2 470,-279.2"/>
<text text-anchor="start" x="473" y="-286.9" font-family="Helvetica,sans-Serif" font-size="11.00" fill="#000000">int8[19]</text>
<polygon fill="#ffffff" stroke="transparent" points="254,-257.2 254,-279.2 470,-279.2 470,-257.2 254,-257.2"/>
<polygon fill="none" stroke="#000000" points="254,-257.2 254,-279.2 470,-279.2 470,-257.2 254,-257.2"/>
<image xlink:href="../../images/foreignKeys.png" width="11px" height="12px" preserveAspectRatio="xMinYMin meet" x="259" y="-274.2"/>
<text text-anchor="start" x="274" y="-264.3" font-family="Helvetica,sans-Serif" font-size="11.00" fill="#000000">prison_number</text>
<polygon fill="none" stroke="#000000" points="470,-257.2 470,-279.2 564,-279.2 564,-257.2 470,-257.2"/>
<text text-anchor="start" x="473" y="-264.9" font-family="Helvetica,sans-Serif" font-size="11.00" fill="#000000">varchar[10]</text>
<polygon fill="none" stroke="#000000" points="254,-235.2 254,-257.2 470,-257.2 470,-235.2 254,-235.2"/>
<text text-anchor="start" x="274" y="-242.3" font-family="Helvetica,sans-Serif" font-size="11.00" fill="#000000">description</text>
<polygon fill="none" stroke="#000000" points="470,-235.2 470,-257.2 564,-257.2 564,-235.2 470,-235.2"/>
<text text-anchor="start" x="473" y="-242.9" font-family="Helvetica,sans-Serif" font-size="11.00" fill="#000000">text[2147483647]</text>
<polygon fill="none" stroke="#000000" points="254,-213.2 254,-235.2 470,-235.2 470,-213.2 254,-213.2"/>
<text text-anchor="start" x="274" y="-220.3" font-family="Helvetica,sans-Serif" font-size="11.00" fill="#000000">authorised_by</text>
<polygon fill="none" stroke="#000000" points="470,-213.2 470,-235.2 564,-235.2 564,-213.2 470,-213.2"/>
<text text-anchor="start" x="473" y="-220.9" font-family="Helvetica,sans-Serif" font-size="11.00" fill="#000000">varchar[40]</text>
<polygon fill="#ffffff" stroke="transparent" points="254,-191.2 254,-213.2 470,-213.2 470,-191.2 254,-191.2"/>
<polygon fill="none" stroke="#000000" points="254,-191.2 254,-213.2 470,-213.2 470,-191.2 254,-191.2"/>
<text text-anchor="start" x="274" y="-198.3" font-family="Helvetica,sans-Serif" font-size="11.00" fill="#000000">active_from</text>
<polygon fill="none" stroke="#000000" points="470,-191.2 470,-213.2 564,-213.2 564,-191.2 470,-191.2"/>
<text text-anchor="start" x="473" y="-198.9" font-family="Helvetica,sans-Serif" font-size="11.00" fill="#000000">date[13]</text>
<polygon fill="#ffffff" stroke="transparent" points="254,-169.2 254,-191.2 470,-191.2 470,-169.2 254,-169.2"/>
<polygon fill="none" stroke="#000000" points="254,-169.2 254,-191.2 470,-191.2 470,-169.2 254,-169.2"/>
<text text-anchor="start" x="274" y="-176.3" font-family="Helvetica,sans-Serif" font-size="11.00" fill="#000000">active_to</text>
<polygon fill="none" stroke="#000000" points="470,-169.2 470,-191.2 564,-191.2 564,-169.2 470,-169.2"/>
<text text-anchor="start" x="473" y="-176.9" font-family="Helvetica,sans-Serif" font-size="11.00" fill="#000000">date[13]</text>
<polygon fill="#ffffff" stroke="transparent" points="254,-147.2 254,-169.2 470,-169.2 470,-147.2 254,-147.2"/>
<polygon fill="none" stroke="#000000" points="254,-147.2 254,-169.2 470,-169.2 470,-147.2 254,-147.2"/>
<text text-anchor="start" x="274" y="-154.3" font-family="Helvetica,sans-Serif" font-size="11.00" fill="#000000">deleted_at</text>
<polygon fill="none" stroke="#000000" points="470,-147.2 470,-169.2 564,-169.2 564,-147.2 470,-147.2"/>
<text text-anchor="start" x="473" y="-154.9" font-family="Helvetica,sans-Serif" font-size="11.00" fill="#000000">timestamp[29,6]</text>
<polygon fill="#ffffff" stroke="transparent" points="254,-125.2 254,-147.2 470,-147.2 470,-125.2 254,-125.2"/>
<polygon fill="none" stroke="#000000" points="254,-125.2 254,-147.2 470,-147.2 470,-125.2 254,-125.2"/>
<text text-anchor="start" x="274" y="-132.3" font-family="Helvetica,sans-Serif" font-size="11.00" fill="#000000">created_at</text>
<polygon fill="none" stroke="#000000" points="470,-125.2 470,-147.2 564,-147.2 564,-125.2 470,-125.2"/>
<text text-anchor="start" x="473" y="-132.9" font-family="Helvetica,sans-Serif" font-size="11.00" fill="#000000">timestamp[29,6]</text>
<polygon fill="#ffffff" stroke="transparent" points="254,-103.2 254,-125.2 470,-125.2 470,-103.2 254,-103.2"/>
<polygon fill="none" stroke="#000000" points="254,-103.2 254,-125.2 470,-125.2 470,-103.2 254,-103.2"/>
<text text-anchor="start" x="274" y="-110.3" font-family="Helvetica,sans-Serif" font-size="11.00" fill="#000000">last_modified_at</text>
<polygon fill="none" stroke="#000000" points="470,-103.2 470,-125.2 564,-125.2 564,-103.2 470,-103.2"/>
<text text-anchor="start" x="473" y="-110.9" font-family="Helvetica,sans-Serif" font-size="11.00" fill="#000000">timestamp[29,6]</text>
<polygon fill="none" stroke="#000000" points="254,-81.2 254,-103.2 470,-103.2 470,-81.2 254,-81.2"/>
<text text-anchor="start" x="274" y="-88.3" font-family="Helvetica,sans-Serif" font-size="11.00" fill="#000000">prison_code_when_created</text>
<polygon fill="none" stroke="#000000" points="470,-81.2 470,-103.2 564,-103.2 564,-81.2 470,-81.2"/>
<text text-anchor="start" x="473" y="-88.9" font-family="Helvetica,sans-Serif" font-size="11.00" fill="#000000">varchar[6]</text>
<polygon fill="none" stroke="#000000" points="254,-59.2 254,-81.2 470,-81.2 470,-59.2 254,-59.2"/>
<text text-anchor="start" x="274" y="-66.3" font-family="Helvetica,sans-Serif" font-size="11.00" fill="#000000">version</text>
<polygon fill="none" stroke="#000000" points="470,-59.2 470,-81.2 564,-81.2 564,-59.2 470,-59.2"/>
<text text-anchor="start" x="473" y="-66.9" font-family="Helvetica,sans-Serif" font-size="11.00" fill="#000000">int4[10]</text>
<polygon fill="#ffffff" stroke="transparent" points="254,-40.2 254,-59.2 564,-59.2 564,-40.2 254,-40.2"/>
<polygon fill="none" stroke="#000000" points="254,-40.2 254,-59.2 564,-59.2 564,-40.2 254,-40.2"/>
<polygon fill="#ffffff" stroke="transparent" points="255,-41.2 255,-58.2 361,-58.2 361,-41.2 255,-41.2"/>
<text text-anchor="start" x="257" y="-46.3" font-family="Helvetica,sans-Serif" font-size="11.00" fill="#000000">&lt; 2</text>
<polygon fill="#ffffff" stroke="transparent" points="361,-41.2 361,-58.2 458,-58.2 458,-41.2 361,-41.2"/>
<text text-anchor="start" x="406.4431" y="-46.3" font-family="Helvetica,sans-Serif" font-size="11.00" fill="#000000"> &#160;</text>
<polygon fill="#ffffff" stroke="transparent" points="458,-41.2 458,-58.2 563,-58.2 563,-41.2 458,-41.2"/>
<text text-anchor="start" x="545.4053" y="-46.3" font-family="Helvetica,sans-Serif" font-size="11.00" fill="#000000">1 &gt;</text>
<polygon fill="#000000" stroke="#000000" points="361,-41.2 361,-58.2 361,-58.2 361,-41.2 361,-41.2"/>
<polygon fill="#000000" stroke="#000000" points="458,-41.2 458,-58.2 458,-58.2 458,-41.2 458,-41.2"/>
<polygon fill="none" stroke="#000000" stroke-width="2" points="253,-39.2 253,-347.2 565,-347.2 565,-39.2 253,-39.2"/>
</a>
</g>
</g>
<!-- alert_code -->
<g id="node2" class="node">
<title>alert_code</title>
<g id="a_node2"><a xlink:href="../../tables/alert_code.html" xlink:title="alert_code" target="_top">
<polygon fill="#ffffff" stroke="transparent" points="39.5,-227.7 39.5,-420.7 171.5,-420.7 171.5,-227.7 39.5,-227.7"/>
<polygon fill="#f5f5f5" stroke="transparent" points="39.5,-397.2 39.5,-420.2 171.5,-420.2 171.5,-397.2 39.5,-397.2"/>
<polygon fill="none" stroke="#000000" points="39.5,-397.2 39.5,-420.2 171.5,-420.2 171.5,-397.2 39.5,-397.2"/>
<text text-anchor="start" x="44.5" y="-405.8" font-family="Helvetica,sans-Serif" font-weight="bold" font-size="11.00" fill="#000000">alert_code</text>
<text text-anchor="start" x="136.5437" y="-405.3" font-family="Helvetica,sans-Serif" font-size="11.00" fill="#000000">[table]</text>
<polygon fill="none" stroke="#000000" points="39.5,-375.2 39.5,-397.2 171.5,-397.2 171.5,-375.2 39.5,-375.2"/>
<image xlink:href="../../images/primaryKeys.png" width="11px" height="12px" preserveAspectRatio="xMinYMin meet" x="44.5" y="-392.2"/>
<text text-anchor="start" x="59.5" y="-382.3" font-family="Helvetica,sans-Serif" font-size="11.00" fill="#000000">alert_code_id</text>
<polygon fill="#ffffff" stroke="transparent" points="39.5,-353.2 39.5,-375.2 171.5,-375.2 171.5,-353.2 39.5,-353.2"/>
<polygon fill="none" stroke="#000000" points="39.5,-353.2 39.5,-375.2 171.5,-375.2 171.5,-353.2 39.5,-353.2"/>
<image xlink:href="../../images/foreignKeys.png" width="11px" height="12px" preserveAspectRatio="xMinYMin meet" x="44.5" y="-370.2"/>
<text text-anchor="start" x="59.5" y="-360.3" font-family="Helvetica,sans-Serif" font-size="11.00" fill="#000000">alert_type_id</text>
<polygon fill="#ffffff" stroke="transparent" points="39.5,-331.2 39.5,-353.2 171.5,-353.2 171.5,-331.2 39.5,-331.2"/>
<polygon fill="none" stroke="#000000" points="39.5,-331.2 39.5,-353.2 171.5,-353.2 171.5,-331.2 39.5,-331.2"/>
<text text-anchor="start" x="59.5" y="-338.3" font-family="Helvetica,sans-Serif" font-size="11.00" fill="#000000">code</text>
<polygon fill="#ffffff" stroke="transparent" points="39.5,-309.2 39.5,-331.2 171.5,-331.2 171.5,-309.2 39.5,-309.2"/>
<polygon fill="none" stroke="#000000" points="39.5,-309.2 39.5,-331.2 171.5,-331.2 171.5,-309.2 39.5,-309.2"/>
<text text-anchor="start" x="59.5" y="-316.3" font-family="Helvetica,sans-Serif" font-size="11.00" fill="#000000">list_sequence</text>
<polygon fill="#ffffff" stroke="transparent" points="39.5,-287.2 39.5,-309.2 171.5,-309.2 171.5,-287.2 39.5,-287.2"/>
<polygon fill="none" stroke="#000000" points="39.5,-287.2 39.5,-309.2 171.5,-309.2 171.5,-287.2 39.5,-287.2"/>
<text text-anchor="start" x="59.5" y="-294.3" font-family="Helvetica,sans-Serif" font-size="11.00" fill="#000000">created_at</text>
<polygon fill="#ffffff" stroke="transparent" points="39.5,-265.2 39.5,-287.2 171.5,-287.2 171.5,-265.2 39.5,-265.2"/>
<polygon fill="none" stroke="#000000" points="39.5,-265.2 39.5,-287.2 171.5,-287.2 171.5,-265.2 39.5,-265.2"/>
<text text-anchor="start" x="59.5" y="-272.3" font-family="Helvetica,sans-Serif" font-size="11.00" fill="#000000">deactivated_at</text>
<polygon fill="none" stroke="#000000" points="39.5,-246.2 39.5,-265.2 171.5,-265.2 171.5,-246.2 39.5,-246.2"/>
<text text-anchor="start" x="42.5" y="-252.3" font-family="Helvetica,sans-Serif" font-size="11.00" fill="#000000">...</text>
<polygon fill="#ffffff" stroke="transparent" points="39.5,-227.2 39.5,-246.2 171.5,-246.2 171.5,-227.2 39.5,-227.2"/>
<polygon fill="none" stroke="#000000" points="39.5,-227.2 39.5,-246.2 171.5,-246.2 171.5,-227.2 39.5,-227.2"/>
<polygon fill="#ffffff" stroke="transparent" points="40.5,-228.2 40.5,-245.2 74.5,-245.2 74.5,-228.2 40.5,-228.2"/>
<text text-anchor="start" x="42.5" y="-233.3" font-family="Helvetica,sans-Serif" font-size="11.00" fill="#000000">&lt; 1</text>
<polygon fill="#ffffff" stroke="transparent" points="74.5,-228.2 74.5,-245.2 137.5,-245.2 137.5,-228.2 74.5,-228.2"/>
<text text-anchor="start" x="83.6904" y="-233.3" font-family="Helvetica,sans-Serif" font-size="11.00" fill="#000000">213 rows</text>
<polygon fill="#ffffff" stroke="transparent" points="137.5,-228.2 137.5,-245.2 170.5,-245.2 170.5,-228.2 137.5,-228.2"/>
<text text-anchor="start" x="152.9053" y="-233.3" font-family="Helvetica,sans-Serif" font-size="11.00" fill="#000000">2 &gt;</text>
<polygon fill="#000000" stroke="#000000" points="74.5,-228.2 74.5,-245.2 74.5,-245.2 74.5,-228.2 74.5,-228.2"/>
<polygon fill="#000000" stroke="#000000" points="137.5,-228.2 137.5,-245.2 137.5,-245.2 137.5,-228.2 137.5,-228.2"/>
</a>
</g>
</g>
<!-- alert&#45;&gt;alert_code -->
<g id="edge1" class="edge">
<title>alert:w&#45;&gt;alert_code:e</title>
<path fill="none" stroke="#000000" d="M239.8259,-292.7678C202.7821,-308.0345 222.2635,-386.2 171.5,-386.2"/>
<polygon fill="#000000" stroke="#000000" points="246.1281,-291.6261 254.6417,-293.7423 250.0641,-290.9131 254,-290.2 254,-290.2 254,-290.2 250.0641,-290.9131 253.3583,-286.6577 246.1281,-291.6261 246.1281,-291.6261"/>
<ellipse fill="none" stroke="#000000" cx="242.9794" cy="-292.1966" rx="3.2" ry="3.2"/>
</g>
<!-- person_summary -->
<g id="node3" class="node">
<title>person_summary</title>
<g id="a_node3"><a xlink:href="../../tables/person_summary.html" xlink:title="person_summary" target="_top">
<polygon fill="#ffffff" stroke="transparent" points="8,-123.7 8,-206.7 203,-206.7 203,-123.7 8,-123.7"/>
<polygon fill="#f5f5f5" stroke="transparent" points="8.5,-183.2 8.5,-206.2 203.5,-206.2 203.5,-183.2 8.5,-183.2"/>
<polygon fill="none" stroke="#000000" points="8.5,-183.2 8.5,-206.2 203.5,-206.2 203.5,-183.2 8.5,-183.2"/>
<text text-anchor="start" x="13.5" y="-191.8" font-family="Helvetica,sans-Serif" font-weight="bold" font-size="11.00" fill="#000000">person_summary</text>
<text text-anchor="start" x="168.5437" y="-191.3" font-family="Helvetica,sans-Serif" font-size="11.00" fill="#000000">[table]</text>
<polygon fill="none" stroke="#000000" points="8.5,-161.2 8.5,-183.2 203.5,-183.2 203.5,-161.2 8.5,-161.2"/>
<image xlink:href="../../images/primaryKeys.png" width="11px" height="12px" preserveAspectRatio="xMinYMin meet" x="13.5" y="-178.2"/>
<text text-anchor="start" x="28.5" y="-168.3" font-family="Helvetica,sans-Serif" font-size="11.00" fill="#000000">prison_number</text>
<polygon fill="none" stroke="#000000" points="8.5,-142.2 8.5,-161.2 203.5,-161.2 203.5,-142.2 8.5,-142.2"/>
<text text-anchor="start" x="11.5" y="-148.3" font-family="Helvetica,sans-Serif" font-size="11.00" fill="#000000">...</text>
<polygon fill="#ffffff" stroke="transparent" points="8.5,-123.2 8.5,-142.2 203.5,-142.2 203.5,-123.2 8.5,-123.2"/>
<polygon fill="none" stroke="#000000" points="8.5,-123.2 8.5,-142.2 203.5,-142.2 203.5,-123.2 8.5,-123.2"/>
<polygon fill="#ffffff" stroke="transparent" points="9.5,-124.2 9.5,-141.2 71.5,-141.2 71.5,-124.2 9.5,-124.2"/>
<text text-anchor="start" x="11.5" y="-129.3" font-family="Helvetica,sans-Serif" font-size="11.00" fill="#000000"> &#160;</text>
<polygon fill="#ffffff" stroke="transparent" points="71.5,-124.2 71.5,-141.2 132.5,-141.2 132.5,-124.2 71.5,-124.2"/>
<text text-anchor="start" x="98.9431" y="-129.3" font-family="Helvetica,sans-Serif" font-size="11.00" fill="#000000"> &#160;</text>
<polygon fill="#ffffff" stroke="transparent" points="132.5,-124.2 132.5,-141.2 202.5,-141.2 202.5,-124.2 132.5,-124.2"/>
<text text-anchor="start" x="184.9053" y="-129.3" font-family="Helvetica,sans-Serif" font-size="11.00" fill="#000000">3 &gt;</text>
<polygon fill="#000000" stroke="#000000" points="71.5,-124.2 71.5,-141.2 71.5,-141.2 71.5,-124.2 71.5,-124.2"/>
<polygon fill="#000000" stroke="#000000" points="132.5,-124.2 132.5,-141.2 132.5,-141.2 132.5,-124.2 132.5,-124.2"/>
</a>
</g>
</g>
<!-- alert&#45;&gt;person_summary -->
<g id="edge2" class="edge">
<title>alert:w&#45;&gt;person_summary:e</title>
<path fill="none" stroke="#000000" stroke-dasharray="5,2" d="M239.9659,-264.075C215.7993,-245.7 245.6837,-172.2 203.5,-172.2"/>
<polygon fill="#000000" stroke="#000000" points="246.3247,-265.944 252.9848,-271.6539 250.1623,-267.072 254,-268.2 254,-268.2 254,-268.2 250.1623,-267.072 255.0152,-264.7461 246.3247,-265.944 246.3247,-265.944"/>
<ellipse fill="none" stroke="#000000" cx="243.2545" cy="-265.0416" rx="3.2" ry="3.2"/>
</g>
<!-- audit_event -->
<g id="node4" class="node">
<title>audit_event</title>
<g id="a_node4"><a xlink:href="../../tables/audit_event.html" xlink:title="audit_event" target="_top">
<polygon fill="#ffffff" stroke="transparent" points="615,-241.7 615,-412.7 829,-412.7 829,-241.7 615,-241.7"/>
<polygon fill="#f5f5f5" stroke="transparent" points="615,-389.2 615,-412.2 829,-412.2 829,-389.2 615,-389.2"/>
<polygon fill="none" stroke="#000000" points="615,-389.2 615,-412.2 829,-412.2 829,-389.2 615,-389.2"/>
<text text-anchor="start" x="620" y="-397.8" font-family="Helvetica,sans-Serif" font-weight="bold" font-size="11.00" fill="#000000">audit_event</text>
<text text-anchor="start" x="794.0437" y="-397.3" font-family="Helvetica,sans-Serif" font-size="11.00" fill="#000000">[table]</text>
<polygon fill="#ffffff" stroke="transparent" points="615,-367.2 615,-389.2 829,-389.2 829,-367.2 615,-367.2"/>
<polygon fill="none" stroke="#000000" points="615,-367.2 615,-389.2 829,-389.2 829,-367.2 615,-367.2"/>
<text text-anchor="start" x="635" y="-374.3" font-family="Helvetica,sans-Serif" font-size="11.00" fill="#000000">action</text>
<polygon fill="#ffffff" stroke="transparent" points="615,-345.2 615,-367.2 829,-367.2 829,-345.2 615,-345.2"/>
<polygon fill="none" stroke="#000000" points="615,-345.2 615,-367.2 829,-367.2 829,-345.2 615,-345.2"/>
<text text-anchor="start" x="635" y="-352.3" font-family="Helvetica,sans-Serif" font-size="11.00" fill="#000000">actioned_at</text>
<polygon fill="#ffffff" stroke="transparent" points="615,-323.2 615,-345.2 829,-345.2 829,-323.2 615,-323.2"/>
<polygon fill="none" stroke="#000000" points="615,-323.2 615,-345.2 829,-345.2 829,-323.2 615,-323.2"/>
<text text-anchor="start" x="635" y="-330.3" font-family="Helvetica,sans-Serif" font-size="11.00" fill="#000000">actioned_by</text>
<polygon fill="#ffffff" stroke="transparent" points="615,-301.2 615,-323.2 829,-323.2 829,-301.2 615,-301.2"/>
<polygon fill="none" stroke="#000000" points="615,-301.2 615,-323.2 829,-323.2 829,-301.2 615,-301.2"/>
<image xlink:href="../../images/foreignKeys.png" width="11px" height="12px" preserveAspectRatio="xMinYMin meet" x="620" y="-318.2"/>
<text text-anchor="start" x="635" y="-308.3" font-family="Helvetica,sans-Serif" font-size="11.00" fill="#000000">alert_id</text>
<polygon fill="none" stroke="#000000" points="615,-279.2 615,-301.2 829,-301.2 829,-279.2 615,-279.2"/>
<image xlink:href="../../images/primaryKeys.png" width="11px" height="12px" preserveAspectRatio="xMinYMin meet" x="620" y="-296.2"/>
<text text-anchor="start" x="635" y="-286.3" font-family="Helvetica,sans-Serif" font-size="11.00" fill="#000000">id</text>
<polygon fill="none" stroke="#000000" points="615,-260.2 615,-279.2 829,-279.2 829,-260.2 615,-260.2"/>
<text text-anchor="start" x="618" y="-266.3" font-family="Helvetica,sans-Serif" font-size="11.00" fill="#000000">...</text>
<polygon fill="#ffffff" stroke="transparent" points="615,-241.2 615,-260.2 829,-260.2 829,-241.2 615,-241.2"/>
<polygon fill="none" stroke="#000000" points="615,-241.2 615,-260.2 829,-260.2 829,-241.2 615,-241.2"/>
<polygon fill="#ffffff" stroke="transparent" points="616,-242.2 616,-259.2 693,-259.2 693,-242.2 616,-242.2"/>
<text text-anchor="start" x="618" y="-247.3" font-family="Helvetica,sans-Serif" font-size="11.00" fill="#000000">&lt; 1</text>
<polygon fill="#ffffff" stroke="transparent" points="693,-242.2 693,-259.2 761,-259.2 761,-242.2 693,-242.2"/>
<text text-anchor="start" x="723.9431" y="-247.3" font-family="Helvetica,sans-Serif" font-size="11.00" fill="#000000"> &#160;</text>
<polygon fill="#ffffff" stroke="transparent" points="761,-242.2 761,-259.2 828,-259.2 828,-242.2 761,-242.2"/>
<text text-anchor="start" x="819.8862" y="-247.3" font-family="Helvetica,sans-Serif" font-size="11.00" fill="#000000"> &#160;</text>
<polygon fill="#000000" stroke="#000000" points="693,-242.2 693,-259.2 693,-259.2 693,-242.2 693,-242.2"/>
<polygon fill="#000000" stroke="#000000" points="761,-242.2 761,-259.2 761,-259.2 761,-242.2 761,-242.2"/>
</a>
</g>
</g>
<!-- audit_event&#45;&gt;alert -->
<g id="edge3" class="edge">
<title>audit_event:w&#45;&gt;alert:e</title>
<path fill="none" stroke="#000000" d="M600.276,-312.2C588.2815,-312.2 580.8229,-312.2 564,-312.2"/>
<polygon fill="#000000" stroke="#000000" points="607,-312.2001 615,-315.8 611,-312.2 615,-312.2 615,-312.2 615,-312.2 611,-312.2 615,-308.6 607,-312.2001 607,-312.2001"/>
<ellipse fill="none" stroke="#000000" cx="603.8" cy="-312.2001" rx="3.2" ry="3.2"/>
</g>
</g>
</svg>
