<?xml version="1.0" encoding="UTF-8" standalone="no"?>
<!DOCTYPE svg PUBLIC "-//W3C//DTD SVG 1.1//EN"
 "http://www.w3.org/Graphics/SVG/1.1/DTD/svg11.dtd">
<!-- Generated by graphviz version 2.40.1 (20161225.0304)
 -->
<!-- Title: oneDegreeRelationshipsDiagramImplied Pages: 1 -->
<svg width="801pt" height="433pt"
 viewBox="0.00 0.00 801.00 432.70" xmlns="http://www.w3.org/2000/svg" xmlns:xlink="http://www.w3.org/1999/xlink">
<g id="graph0" class="graph" transform="scale(1 1) rotate(0) translate(4 428.7)">
<title>oneDegreeRelationshipsDiagramImplied</title>
<polygon fill="#ffffff" stroke="transparent" points="-4,4 -4,-428.7 797,-428.7 797,4 -4,4"/>
<text text-anchor="middle" x="72.4936" y="-7.3" font-family="Helvetica,sans-Serif" font-size="11.00" fill="#000000">Generated by SchemaSpy</text>
<!-- alert -->
<g id="node1" class="node">
<title>alert</title>
<g id="a_node1"><a xlink:href="../../tables/alert.html" xlink:title="alert" target="_top">
<polygon fill="#ffffff" stroke="transparent" points="238,-38.2 238,-348.2 537,-348.2 537,-38.2 238,-38.2"/>
<polygon fill="#f5f5f5" stroke="transparent" points="240.5,-323.2 240.5,-346.2 535.5,-346.2 535.5,-323.2 240.5,-323.2"/>
<polygon fill="none" stroke="#000000" points="240.5,-323.2 240.5,-346.2 535.5,-346.2 535.5,-323.2 240.5,-323.2"/>
<text text-anchor="start" x="245.5" y="-331.8" font-family="Helvetica,sans-Serif" font-weight="bold" font-size="11.00" fill="#000000">alert</text>
<text text-anchor="start" x="500.5437" y="-331.3" font-family="Helvetica,sans-Serif" font-size="11.00" fill="#000000">[table]</text>
<polygon fill="none" stroke="#000000" points="240.5,-301.2 240.5,-323.2 441.5,-323.2 441.5,-301.2 240.5,-301.2"/>
<image xlink:href="../../images/primaryKeys.png" width="11px" height="12px" preserveAspectRatio="xMinYMin meet" x="245.5" y="-318.2"/>
<text text-anchor="start" x="260.5" y="-308.3" font-family="Helvetica,sans-Serif" font-size="11.00" fill="#000000">id</text>
<polygon fill="none" stroke="#000000" points="441.5,-301.2 441.5,-323.2 535.5,-323.2 535.5,-301.2 441.5,-301.2"/>
<text text-anchor="start" x="444.4758" y="-308.9" font-family="Helvetica,sans-Serif" font-size="11.00" fill="#000000">uuid[2147483647]</text>
<polygon fill="#ffffff" stroke="transparent" points="240.5,-279.2 240.5,-301.2 441.5,-301.2 441.5,-279.2 240.5,-279.2"/>
<polygon fill="none" stroke="#000000" points="240.5,-279.2 240.5,-301.2 441.5,-301.2 441.5,-279.2 240.5,-279.2"/>
<image xlink:href="../../images/foreignKeys.png" width="11px" height="12px" preserveAspectRatio="xMinYMin meet" x="245.5" y="-296.2"/>
<text text-anchor="start" x="260.5" y="-286.3" font-family="Helvetica,sans-Serif" font-size="11.00" fill="#000000">alert_code_id</text>
<polygon fill="none" stroke="#000000" points="441.5,-279.2 441.5,-301.2 535.5,-301.2 535.5,-279.2 441.5,-279.2"/>
<text text-anchor="start" x="444.5" y="-286.9" font-family="Helvetica,sans-Serif" font-size="11.00" fill="#000000">int8[19]</text>
<polygon fill="#ffffff" stroke="transparent" points="240.5,-257.2 240.5,-279.2 441.5,-279.2 441.5,-257.2 240.5,-257.2"/>
<polygon fill="none" stroke="#000000" points="240.5,-257.2 240.5,-279.2 441.5,-279.2 441.5,-257.2 240.5,-257.2"/>
<image xlink:href="../../images/foreignKeys.png" width="11px" height="12px" preserveAspectRatio="xMinYMin meet" x="245.5" y="-274.2"/>
<text text-anchor="start" x="260.5" y="-264.3" font-family="Helvetica,sans-Serif" font-size="11.00" fill="#000000">prison_number</text>
<polygon fill="none" stroke="#000000" points="441.5,-257.2 441.5,-279.2 535.5,-279.2 535.5,-257.2 441.5,-257.2"/>
<text text-anchor="start" x="444.5" y="-264.9" font-family="Helvetica,sans-Serif" font-size="11.00" fill="#000000">varchar[10]</text>
<polygon fill="none" stroke="#000000" points="240.5,-235.2 240.5,-257.2 441.5,-257.2 441.5,-235.2 240.5,-235.2"/>
<text text-anchor="start" x="260.5" y="-242.3" font-family="Helvetica,sans-Serif" font-size="11.00" fill="#000000">description</text>
<polygon fill="none" stroke="#000000" points="441.5,-235.2 441.5,-257.2 535.5,-257.2 535.5,-235.2 441.5,-235.2"/>
<text text-anchor="start" x="444.5" y="-242.9" font-family="Helvetica,sans-Serif" font-size="11.00" fill="#000000">text[2147483647]</text>
<polygon fill="none" stroke="#000000" points="240.5,-213.2 240.5,-235.2 441.5,-235.2 441.5,-213.2 240.5,-213.2"/>
<text text-anchor="start" x="260.5" y="-220.3" font-family="Helvetica,sans-Serif" font-size="11.00" fill="#000000">authorised_by</text>
<polygon fill="none" stroke="#000000" points="441.5,-213.2 441.5,-235.2 535.5,-235.2 535.5,-213.2 441.5,-213.2"/>
<text text-anchor="start" x="444.5" y="-220.9" font-family="Helvetica,sans-Serif" font-size="11.00" fill="#000000">varchar[40]</text>
<polygon fill="#ffffff" stroke="transparent" points="240.5,-191.2 240.5,-213.2 441.5,-213.2 441.5,-191.2 240.5,-191.2"/>
<polygon fill="none" stroke="#000000" points="240.5,-191.2 240.5,-213.2 441.5,-213.2 441.5,-191.2 240.5,-191.2"/>
<text text-anchor="start" x="260.5" y="-198.3" font-family="Helvetica,sans-Serif" font-size="11.00" fill="#000000">active_from</text>
<polygon fill="none" stroke="#000000" points="441.5,-191.2 441.5,-213.2 535.5,-213.2 535.5,-191.2 441.5,-191.2"/>
<text text-anchor="start" x="444.5" y="-198.9" font-family="Helvetica,sans-Serif" font-size="11.00" fill="#000000">date[13]</text>
<polygon fill="#ffffff" stroke="transparent" points="240.5,-169.2 240.5,-191.2 441.5,-191.2 441.5,-169.2 240.5,-169.2"/>
<polygon fill="none" stroke="#000000" points="240.5,-169.2 240.5,-191.2 441.5,-191.2 441.5,-169.2 240.5,-169.2"/>
<text text-anchor="start" x="260.5" y="-176.3" font-family="Helvetica,sans-Serif" font-size="11.00" fill="#000000">active_to</text>
<polygon fill="none" stroke="#000000" points="441.5,-169.2 441.5,-191.2 535.5,-191.2 535.5,-169.2 441.5,-169.2"/>
<text text-anchor="start" x="444.5" y="-176.9" font-family="Helvetica,sans-Serif" font-size="11.00" fill="#000000">date[13]</text>
<polygon fill="#ffffff" stroke="transparent" points="240.5,-147.2 240.5,-169.2 441.5,-169.2 441.5,-147.2 240.5,-147.2"/>
<polygon fill="none" stroke="#000000" points="240.5,-147.2 240.5,-169.2 441.5,-169.2 441.5,-147.2 240.5,-147.2"/>
<text text-anchor="start" x="260.5" y="-154.3" font-family="Helvetica,sans-Serif" font-size="11.00" fill="#000000">deleted_at</text>
<polygon fill="none" stroke="#000000" points="441.5,-147.2 441.5,-169.2 535.5,-169.2 535.5,-147.2 441.5,-147.2"/>
<text text-anchor="start" x="444.5" y="-154.9" font-family="Helvetica,sans-Serif" font-size="11.00" fill="#000000">timestamp[29,6]</text>
<polygon fill="#ffffff" stroke="transparent" points="240.5,-125.2 240.5,-147.2 441.5,-147.2 441.5,-125.2 240.5,-125.2"/>
<polygon fill="none" stroke="#000000" points="240.5,-125.2 240.5,-147.2 441.5,-147.2 441.5,-125.2 240.5,-125.2"/>
<text text-anchor="start" x="260.5" y="-132.3" font-family="Helvetica,sans-Serif" font-size="11.00" fill="#000000">created_at</text>
<polygon fill="none" stroke="#000000" points="441.5,-125.2 441.5,-147.2 535.5,-147.2 535.5,-125.2 441.5,-125.2"/>
<text text-anchor="start" x="444.5" y="-132.9" font-family="Helvetica,sans-Serif" font-size="11.00" fill="#000000">timestamp[29,6]</text>
<polygon fill="#ffffff" stroke="transparent" points="240.5,-103.2 240.5,-125.2 441.5,-125.2 441.5,-103.2 240.5,-103.2"/>
<polygon fill="none" stroke="#000000" points="240.5,-103.2 240.5,-125.2 441.5,-125.2 441.5,-103.2 240.5,-103.2"/>
<text text-anchor="start" x="260.5" y="-110.3" font-family="Helvetica,sans-Serif" font-size="11.00" fill="#000000">last_modified_at</text>
<polygon fill="none" stroke="#000000" points="441.5,-103.2 441.5,-125.2 535.5,-125.2 535.5,-103.2 441.5,-103.2"/>
<text text-anchor="start" x="444.5" y="-110.9" font-family="Helvetica,sans-Serif" font-size="11.00" fill="#000000">timestamp[29,6]</text>
<polygon fill="none" stroke="#000000" points="240.5,-81.2 240.5,-103.2 441.5,-103.2 441.5,-81.2 240.5,-81.2"/>
<text text-anchor="start" x="260.5" y="-88.3" font-family="Helvetica,sans-Serif" font-size="11.00" fill="#000000">prison_code_when_created</text>
<polygon fill="none" stroke="#000000" points="441.5,-81.2 441.5,-103.2 535.5,-103.2 535.5,-81.2 441.5,-81.2"/>
<text text-anchor="start" x="444.5" y="-88.9" font-family="Helvetica,sans-Serif" font-size="11.00" fill="#000000">varchar[6]</text>
<polygon fill="none" stroke="#000000" points="240.5,-59.2 240.5,-81.2 441.5,-81.2 441.5,-59.2 240.5,-59.2"/>
<text text-anchor="start" x="260.5" y="-66.3" font-family="Helvetica,sans-Serif" font-size="11.00" fill="#000000">version</text>
<polygon fill="none" stroke="#000000" points="441.5,-59.2 441.5,-81.2 535.5,-81.2 535.5,-59.2 441.5,-59.2"/>
<text text-anchor="start" x="444.5" y="-66.9" font-family="Helvetica,sans-Serif" font-size="11.00" fill="#000000">int4[10]</text>
<polygon fill="#ffffff" stroke="transparent" points="240.5,-40.2 240.5,-59.2 345.5,-59.2 345.5,-40.2 240.5,-40.2"/>
<polygon fill="none" stroke="#000000" points="240.5,-40.2 240.5,-59.2 345.5,-59.2 345.5,-40.2 240.5,-40.2"/>
<text text-anchor="start" x="243.5" y="-46.3" font-family="Helvetica,sans-Serif" font-size="11.00" fill="#000000">&lt; 2</text>
<polygon fill="#ffffff" stroke="transparent" points="345.5,-40.2 345.5,-59.2 441.5,-59.2 441.5,-40.2 345.5,-40.2"/>
<polygon fill="none" stroke="#000000" points="345.5,-40.2 345.5,-59.2 441.5,-59.2 441.5,-40.2 345.5,-40.2"/>
<text text-anchor="start" x="432.3862" y="-46.3" font-family="Helvetica,sans-Serif" font-size="11.00" fill="#000000"> &#160;</text>
<polygon fill="#ffffff" stroke="transparent" points="441.5,-40.2 441.5,-59.2 535.5,-59.2 535.5,-40.2 441.5,-40.2"/>
<polygon fill="none" stroke="#000000" points="441.5,-40.2 441.5,-59.2 535.5,-59.2 535.5,-40.2 441.5,-40.2"/>
<text text-anchor="start" x="516.9053" y="-46.3" font-family="Helvetica,sans-Serif" font-size="11.00" fill="#000000">1 &gt;</text>
<polygon fill="none" stroke="#000000" stroke-width="2" points="239,-39.2 239,-347.2 536,-347.2 536,-39.2 239,-39.2"/>
</a>
</g>
</g>
<!-- alert_code -->
<g id="node2" class="node">
<title>alert_code</title>
<g id="a_node2"><a xlink:href="../../tables/alert_code.html" xlink:title="alert_code" target="_top">
<polygon fill="#ffffff" stroke="transparent" points="37,-227.7 37,-420.7 160,-420.7 160,-227.7 37,-227.7"/>
<polygon fill="#f5f5f5" stroke="transparent" points="37.5,-397.2 37.5,-420.2 160.5,-420.2 160.5,-397.2 37.5,-397.2"/>
<polygon fill="none" stroke="#000000" points="37.5,-397.2 37.5,-420.2 160.5,-420.2 160.5,-397.2 37.5,-397.2"/>
<text text-anchor="start" x="42.5" y="-405.8" font-family="Helvetica,sans-Serif" font-weight="bold" font-size="11.00" fill="#000000">alert_code</text>
<text text-anchor="start" x="125.5437" y="-405.3" font-family="Helvetica,sans-Serif" font-size="11.00" fill="#000000">[table]</text>
<polygon fill="none" stroke="#000000" points="37.5,-375.2 37.5,-397.2 160.5,-397.2 160.5,-375.2 37.5,-375.2"/>
<image xlink:href="../../images/primaryKeys.png" width="11px" height="12px" preserveAspectRatio="xMinYMin meet" x="42.5" y="-392.2"/>
<text text-anchor="start" x="57.5" y="-382.3" font-family="Helvetica,sans-Serif" font-size="11.00" fill="#000000">alert_code_id</text>
<polygon fill="#ffffff" stroke="transparent" points="37.5,-353.2 37.5,-375.2 160.5,-375.2 160.5,-353.2 37.5,-353.2"/>
<polygon fill="none" stroke="#000000" points="37.5,-353.2 37.5,-375.2 160.5,-375.2 160.5,-353.2 37.5,-353.2"/>
<image xlink:href="../../images/foreignKeys.png" width="11px" height="12px" preserveAspectRatio="xMinYMin meet" x="42.5" y="-370.2"/>
<text text-anchor="start" x="57.5" y="-360.3" font-family="Helvetica,sans-Serif" font-size="11.00" fill="#000000">alert_type_id</text>
<polygon fill="#ffffff" stroke="transparent" points="37.5,-331.2 37.5,-353.2 160.5,-353.2 160.5,-331.2 37.5,-331.2"/>
<polygon fill="none" stroke="#000000" points="37.5,-331.2 37.5,-353.2 160.5,-353.2 160.5,-331.2 37.5,-331.2"/>
<text text-anchor="start" x="57.5" y="-338.3" font-family="Helvetica,sans-Serif" font-size="11.00" fill="#000000">code</text>
<polygon fill="#ffffff" stroke="transparent" points="37.5,-309.2 37.5,-331.2 160.5,-331.2 160.5,-309.2 37.5,-309.2"/>
<polygon fill="none" stroke="#000000" points="37.5,-309.2 37.5,-331.2 160.5,-331.2 160.5,-309.2 37.5,-309.2"/>
<text text-anchor="start" x="57.5" y="-316.3" font-family="Helvetica,sans-Serif" font-size="11.00" fill="#000000">list_sequence</text>
<polygon fill="#ffffff" stroke="transparent" points="37.5,-287.2 37.5,-309.2 160.5,-309.2 160.5,-287.2 37.5,-287.2"/>
<polygon fill="none" stroke="#000000" points="37.5,-287.2 37.5,-309.2 160.5,-309.2 160.5,-287.2 37.5,-287.2"/>
<text text-anchor="start" x="57.5" y="-294.3" font-family="Helvetica,sans-Serif" font-size="11.00" fill="#000000">created_at</text>
<polygon fill="#ffffff" stroke="transparent" points="37.5,-265.2 37.5,-287.2 160.5,-287.2 160.5,-265.2 37.5,-265.2"/>
<polygon fill="none" stroke="#000000" points="37.5,-265.2 37.5,-287.2 160.5,-287.2 160.5,-265.2 37.5,-265.2"/>
<text text-anchor="start" x="57.5" y="-272.3" font-family="Helvetica,sans-Serif" font-size="11.00" fill="#000000">deactivated_at</text>
<polygon fill="none" stroke="#000000" points="37.5,-246.2 37.5,-265.2 160.5,-265.2 160.5,-246.2 37.5,-246.2"/>
<text text-anchor="start" x="40.5" y="-252.3" font-family="Helvetica,sans-Serif" font-size="11.00" fill="#000000">...</text>
<polygon fill="#ffffff" stroke="transparent" points="37.5,-227.2 37.5,-246.2 73.5,-246.2 73.5,-227.2 37.5,-227.2"/>
<polygon fill="none" stroke="#000000" points="37.5,-227.2 37.5,-246.2 73.5,-246.2 73.5,-227.2 37.5,-227.2"/>
<text text-anchor="start" x="40.5" y="-233.3" font-family="Helvetica,sans-Serif" font-size="11.00" fill="#000000">&lt; 1</text>
<polygon fill="#ffffff" stroke="transparent" points="73.5,-227.2 73.5,-246.2 131.5,-246.2 131.5,-227.2 73.5,-227.2"/>
<polygon fill="none" stroke="#000000" points="73.5,-227.2 73.5,-246.2 131.5,-246.2 131.5,-227.2 73.5,-227.2"/>
<text text-anchor="start" x="83.8807" y="-233.3" font-family="Helvetica,sans-Serif" font-size="11.00" fill="#000000">213 rows</text>
<polygon fill="#ffffff" stroke="transparent" points="131.5,-227.2 131.5,-246.2 160.5,-246.2 160.5,-227.2 131.5,-227.2"/>
<polygon fill="none" stroke="#000000" points="131.5,-227.2 131.5,-246.2 160.5,-246.2 160.5,-227.2 131.5,-227.2"/>
<text text-anchor="start" x="141.9053" y="-233.3" font-family="Helvetica,sans-Serif" font-size="11.00" fill="#000000">2 &gt;</text>
</a>
</g>
</g>
<!-- alert&#45;&gt;alert_code -->
<g id="edge1" class="edge">
<title>alert:w&#45;&gt;alert_code:e</title>
<path fill="none" stroke="#000000" d="M226.0767,-292.9696C190.3799,-308.7098 210.3988,-386.2 160.5,-386.2"/>
<polygon fill="#000000" stroke="#000000" points="232.6435,-291.7086 241.1789,-293.7354 236.5718,-290.9543 240.5,-290.2 240.5,-290.2 240.5,-290.2 236.5718,-290.9543 239.8211,-286.6646 232.6435,-291.7086 232.6435,-291.7086"/>
<ellipse fill="none" stroke="#000000" cx="229.5009" cy="-292.3121" rx="3.2" ry="3.2"/>
</g>
<!-- person_summary -->
<g id="node3" class="node">
<title>person_summary</title>
<g id="a_node3"><a xlink:href="../../tables/person_summary.html" xlink:title="person_summary" target="_top">
<polygon fill="#ffffff" stroke="transparent" points="8,-123.7 8,-206.7 189,-206.7 189,-123.7 8,-123.7"/>
<polygon fill="#f5f5f5" stroke="transparent" points="8.5,-183.2 8.5,-206.2 189.5,-206.2 189.5,-183.2 8.5,-183.2"/>
<polygon fill="none" stroke="#000000" points="8.5,-183.2 8.5,-206.2 189.5,-206.2 189.5,-183.2 8.5,-183.2"/>
<text text-anchor="start" x="13.5" y="-191.8" font-family="Helvetica,sans-Serif" font-weight="bold" font-size="11.00" fill="#000000">person_summary</text>
<text text-anchor="start" x="154.5437" y="-191.3" font-family="Helvetica,sans-Serif" font-size="11.00" fill="#000000">[table]</text>
<polygon fill="none" stroke="#000000" points="8.5,-161.2 8.5,-183.2 189.5,-183.2 189.5,-161.2 8.5,-161.2"/>
<image xlink:href="../../images/primaryKeys.png" width="11px" height="12px" preserveAspectRatio="xMinYMin meet" x="13.5" y="-178.2"/>
<text text-anchor="start" x="28.5" y="-168.3" font-family="Helvetica,sans-Serif" font-size="11.00" fill="#000000">prison_number</text>
<polygon fill="none" stroke="#000000" points="8.5,-142.2 8.5,-161.2 189.5,-161.2 189.5,-142.2 8.5,-142.2"/>
<text text-anchor="start" x="11.5" y="-148.3" font-family="Helvetica,sans-Serif" font-size="11.00" fill="#000000">...</text>
<polygon fill="#ffffff" stroke="transparent" points="8.5,-123.2 8.5,-142.2 88.5,-142.2 88.5,-123.2 8.5,-123.2"/>
<polygon fill="none" stroke="#000000" points="8.5,-123.2 8.5,-142.2 88.5,-142.2 88.5,-123.2 8.5,-123.2"/>
<text text-anchor="start" x="11.5" y="-129.3" font-family="Helvetica,sans-Serif" font-size="11.00" fill="#000000"> &#160;</text>
<polygon fill="#ffffff" stroke="transparent" points="88.5,-123.2 88.5,-142.2 134.5,-142.2 134.5,-123.2 88.5,-123.2"/>
<polygon fill="none" stroke="#000000" points="88.5,-123.2 88.5,-142.2 134.5,-142.2 134.5,-123.2 88.5,-123.2"/>
<text text-anchor="start" x="125.3862" y="-129.3" font-family="Helvetica,sans-Serif" font-size="11.00" fill="#000000"> &#160;</text>
<polygon fill="#ffffff" stroke="transparent" points="134.5,-123.2 134.5,-142.2 189.5,-142.2 189.5,-123.2 134.5,-123.2"/>
<polygon fill="none" stroke="#000000" points="134.5,-123.2 134.5,-142.2 189.5,-142.2 189.5,-123.2 134.5,-123.2"/>
<text text-anchor="start" x="170.9053" y="-129.3" font-family="Helvetica,sans-Serif" font-size="11.00" fill="#000000">3 &gt;</text>
</a>
</g>
</g>
<!-- alert&#45;&gt;person_summary -->
<g id="edge2" class="edge">
<title>alert:w&#45;&gt;person_summary:e</title>
<path fill="none" stroke="#000000" stroke-dasharray="5,2" d="M226.4189,-264.075C202.1253,-245.7 231.7746,-172.2 189.5,-172.2"/>
<polygon fill="#000000" stroke="#000000" points="232.8226,-265.9509 239.4879,-271.6548 236.6613,-267.0755 240.5,-268.2 240.5,-268.2 240.5,-268.2 236.6613,-267.0755 241.5121,-264.7452 232.8226,-265.9509 232.8226,-265.9509"/>
<ellipse fill="none" stroke="#000000" cx="229.7517" cy="-265.0513" rx="3.2" ry="3.2"/>
</g>
<!-- audit_event -->
<g id="node4" class="node">
<title>audit_event</title>
<g id="a_node4"><a xlink:href="../../tables/audit_event.html" xlink:title="audit_event" target="_top">
<polygon fill="#ffffff" stroke="transparent" points="586,-241.7 586,-412.7 785,-412.7 785,-241.7 586,-241.7"/>
<polygon fill="#f5f5f5" stroke="transparent" points="586.5,-389.2 586.5,-412.2 785.5,-412.2 785.5,-389.2 586.5,-389.2"/>
<polygon fill="none" stroke="#000000" points="586.5,-389.2 586.5,-412.2 785.5,-412.2 785.5,-389.2 586.5,-389.2"/>
<text text-anchor="start" x="591.5" y="-397.8" font-family="Helvetica,sans-Serif" font-weight="bold" font-size="11.00" fill="#000000">audit_event</text>
<text text-anchor="start" x="750.5437" y="-397.3" font-family="Helvetica,sans-Serif" font-size="11.00" fill="#000000">[table]</text>
<polygon fill="#ffffff" stroke="transparent" points="586.5,-367.2 586.5,-389.2 785.5,-389.2 785.5,-367.2 586.5,-367.2"/>
<polygon fill="none" stroke="#000000" points="586.5,-367.2 586.5,-389.2 785.5,-389.2 785.5,-367.2 586.5,-367.2"/>
<text text-anchor="start" x="606.5" y="-374.3" font-family="Helvetica,sans-Serif" font-size="11.00" fill="#000000">action</text>
<polygon fill="#ffffff" stroke="transparent" points="586.5,-345.2 586.5,-367.2 785.5,-367.2 785.5,-345.2 586.5,-345.2"/>
<polygon fill="none" stroke="#000000" points="586.5,-345.2 586.5,-367.2 785.5,-367.2 785.5,-345.2 586.5,-345.2"/>
<text text-anchor="start" x="606.5" y="-352.3" font-family="Helvetica,sans-Serif" font-size="11.00" fill="#000000">actioned_at</text>
<polygon fill="#ffffff" stroke="transparent" points="586.5,-323.2 586.5,-345.2 785.5,-345.2 785.5,-323.2 586.5,-323.2"/>
<polygon fill="none" stroke="#000000" points="586.5,-323.2 586.5,-345.2 785.5,-345.2 785.5,-323.2 586.5,-323.2"/>
<text text-anchor="start" x="606.5" y="-330.3" font-family="Helvetica,sans-Serif" font-size="11.00" fill="#000000">actioned_by</text>
<polygon fill="#ffffff" stroke="transparent" points="586.5,-301.2 586.5,-323.2 785.5,-323.2 785.5,-301.2 586.5,-301.2"/>
<polygon fill="none" stroke="#000000" points="586.5,-301.2 586.5,-323.2 785.5,-323.2 785.5,-301.2 586.5,-301.2"/>
<image xlink:href="../../images/foreignKeys.png" width="11px" height="12px" preserveAspectRatio="xMinYMin meet" x="591.5" y="-318.2"/>
<text text-anchor="start" x="606.5" y="-308.3" font-family="Helvetica,sans-Serif" font-size="11.00" fill="#000000">alert_id</text>
<polygon fill="none" stroke="#000000" points="586.5,-279.2 586.5,-301.2 785.5,-301.2 785.5,-279.2 586.5,-279.2"/>
<image xlink:href="../../images/primaryKeys.png" width="11px" height="12px" preserveAspectRatio="xMinYMin meet" x="591.5" y="-296.2"/>
<text text-anchor="start" x="606.5" y="-286.3" font-family="Helvetica,sans-Serif" font-size="11.00" fill="#000000">id</text>
<polygon fill="none" stroke="#000000" points="586.5,-260.2 586.5,-279.2 785.5,-279.2 785.5,-260.2 586.5,-260.2"/>
<text text-anchor="start" x="589.5" y="-266.3" font-family="Helvetica,sans-Serif" font-size="11.00" fill="#000000">...</text>
<polygon fill="#ffffff" stroke="transparent" points="586.5,-241.2 586.5,-260.2 684.5,-260.2 684.5,-241.2 586.5,-241.2"/>
<polygon fill="none" stroke="#000000" points="586.5,-241.2 586.5,-260.2 684.5,-260.2 684.5,-241.2 586.5,-241.2"/>
<text text-anchor="start" x="589.5" y="-247.3" font-family="Helvetica,sans-Serif" font-size="11.00" fill="#000000">&lt; 1</text>
<polygon fill="#ffffff" stroke="transparent" points="684.5,-241.2 684.5,-260.2 734.5,-260.2 734.5,-241.2 684.5,-241.2"/>
<polygon fill="none" stroke="#000000" points="684.5,-241.2 684.5,-260.2 734.5,-260.2 734.5,-241.2 684.5,-241.2"/>
<text text-anchor="start" x="725.3862" y="-247.3" font-family="Helvetica,sans-Serif" font-size="11.00" fill="#000000"> &#160;</text>
<polygon fill="#ffffff" stroke="transparent" points="734.5,-241.2 734.5,-260.2 785.5,-260.2 785.5,-241.2 734.5,-241.2"/>
<polygon fill="none" stroke="#000000" points="734.5,-241.2 734.5,-260.2 785.5,-260.2 785.5,-241.2 734.5,-241.2"/>
<text text-anchor="start" x="776.3862" y="-247.3" font-family="Helvetica,sans-Serif" font-size="11.00" fill="#000000"> &#160;</text>
</a>
</g>
</g>
<!-- audit_event&#45;&gt;alert -->
<g id="edge3" class="edge">
<title>audit_event:w&#45;&gt;alert:e</title>
<path fill="none" stroke="#000000" d="M571.776,-312.2C559.7815,-312.2 552.3229,-312.2 535.5,-312.2"/>
<polygon fill="#000000" stroke="#000000" points="578.5,-312.2001 586.5,-315.8 582.5,-312.2 586.5,-312.2 586.5,-312.2 586.5,-312.2 582.5,-312.2 586.5,-308.6 578.5,-312.2001 578.5,-312.2001"/>
<ellipse fill="none" stroke="#000000" cx="575.3" cy="-312.2001" rx="3.2" ry="3.2"/>
</g>
</g>
</svg>
