<?xml version="1.0" encoding="UTF-8" standalone="no"?>
<!DOCTYPE svg PUBLIC "-//W3C//DTD SVG 1.1//EN"
 "http://www.w3.org/Graphics/SVG/1.1/DTD/svg11.dtd">
<!-- Generated by graphviz version 2.40.1 (20161225.0304)
 -->
<!-- Title: twoDegreesRelationshipsDiagram Pages: 1 -->
<svg width="674pt" height="377pt"
 viewBox="0.00 0.00 674.00 376.70" xmlns="http://www.w3.org/2000/svg" xmlns:xlink="http://www.w3.org/1999/xlink">
<g id="graph0" class="graph" transform="scale(1 1) rotate(0) translate(4 372.7)">
<title>twoDegreesRelationshipsDiagram</title>
<polygon fill="#ffffff" stroke="transparent" points="-4,4 -4,-372.7 670,-372.7 670,4 -4,4"/>
<text text-anchor="middle" x="72.4936" y="-7.3" font-family="Helvetica,sans-Serif" font-size="11.00" fill="#000000">Generated by SchemaSpy</text>
<!-- alert -->
<g id="node1" class="node">
<title>alert</title>
<g id="a_node1"><a xlink:href="../../tables/alert.html" xlink:title="alert" target="_top">
<polygon fill="#ffffff" stroke="transparent" points="513.5,-303.7 513.5,-364.7 584.5,-364.7 584.5,-303.7 513.5,-303.7"/>
<polygon fill="#f5f5f5" stroke="transparent" points="514,-341.2 514,-364.2 585,-364.2 585,-341.2 514,-341.2"/>
<polygon fill="none" stroke="#000000" points="514,-341.2 514,-364.2 585,-364.2 585,-341.2 514,-341.2"/>
<text text-anchor="start" x="519" y="-349.8" font-family="Helvetica,sans-Serif" font-weight="bold" font-size="11.00" fill="#000000">alert</text>
<text text-anchor="start" x="550.5219" y="-349.3" font-family="Helvetica,sans-Serif" font-size="11.00" fill="#000000">[table]</text>
<polygon fill="none" stroke="#000000" points="514,-322.2 514,-341.2 585,-341.2 585,-322.2 514,-322.2"/>
<text text-anchor="start" x="517" y="-328.3" font-family="Helvetica,sans-Serif" font-size="11.00" fill="#000000">...</text>
<polygon fill="#ffffff" stroke="transparent" points="514,-303.2 514,-322.2 543,-322.2 543,-303.2 514,-303.2"/>
<polygon fill="none" stroke="#000000" points="514,-303.2 514,-322.2 543,-322.2 543,-303.2 514,-303.2"/>
<text text-anchor="start" x="517" y="-309.3" font-family="Helvetica,sans-Serif" font-size="11.00" fill="#000000">&lt; 1</text>
<polygon fill="#ffffff" stroke="transparent" points="543,-303.2 543,-322.2 559,-322.2 559,-303.2 543,-303.2"/>
<polygon fill="none" stroke="#000000" points="543,-303.2 543,-322.2 559,-322.2 559,-303.2 543,-303.2"/>
<text text-anchor="start" x="549.8862" y="-309.3" font-family="Helvetica,sans-Serif" font-size="11.00" fill="#000000"> &#160;</text>
<polygon fill="#ffffff" stroke="transparent" points="559,-303.2 559,-322.2 585,-322.2 585,-303.2 559,-303.2"/>
<polygon fill="none" stroke="#000000" points="559,-303.2 559,-322.2 585,-322.2 585,-303.2 559,-303.2"/>
<text text-anchor="start" x="566.4053" y="-309.3" font-family="Helvetica,sans-Serif" font-size="11.00" fill="#000000">1 &gt;</text>
</a>
</g>
</g>
<!-- alert_code -->
<g id="node2" class="node">
<title>alert_code</title>
<g id="a_node2"><a xlink:href="../../tables/alert_code.html" xlink:title="alert_code" target="_top">
<polygon fill="#ffffff" stroke="transparent" points="268,-131.7 268,-324.7 391,-324.7 391,-131.7 268,-131.7"/>
<polygon fill="#f5f5f5" stroke="transparent" points="268.5,-301.2 268.5,-324.2 391.5,-324.2 391.5,-301.2 268.5,-301.2"/>
<polygon fill="none" stroke="#000000" points="268.5,-301.2 268.5,-324.2 391.5,-324.2 391.5,-301.2 268.5,-301.2"/>
<text text-anchor="start" x="273.5" y="-309.8" font-family="Helvetica,sans-Serif" font-weight="bold" font-size="11.00" fill="#000000">alert_code</text>
<text text-anchor="start" x="356.5437" y="-309.3" font-family="Helvetica,sans-Serif" font-size="11.00" fill="#000000">[table]</text>
<polygon fill="none" stroke="#000000" points="268.5,-279.2 268.5,-301.2 391.5,-301.2 391.5,-279.2 268.5,-279.2"/>
<image xlink:href="../../images/primaryKeys.png" width="11px" height="12px" preserveAspectRatio="xMinYMin meet" x="273.5" y="-296.2"/>
<text text-anchor="start" x="288.5" y="-286.3" font-family="Helvetica,sans-Serif" font-size="11.00" fill="#000000">alert_code_id</text>
<polygon fill="#ffffff" stroke="transparent" points="268.5,-257.2 268.5,-279.2 391.5,-279.2 391.5,-257.2 268.5,-257.2"/>
<polygon fill="none" stroke="#000000" points="268.5,-257.2 268.5,-279.2 391.5,-279.2 391.5,-257.2 268.5,-257.2"/>
<image xlink:href="../../images/foreignKeys.png" width="11px" height="12px" preserveAspectRatio="xMinYMin meet" x="273.5" y="-274.2"/>
<text text-anchor="start" x="288.5" y="-264.3" font-family="Helvetica,sans-Serif" font-size="11.00" fill="#000000">alert_type_id</text>
<polygon fill="#ffffff" stroke="transparent" points="268.5,-235.2 268.5,-257.2 391.5,-257.2 391.5,-235.2 268.5,-235.2"/>
<polygon fill="none" stroke="#000000" points="268.5,-235.2 268.5,-257.2 391.5,-257.2 391.5,-235.2 268.5,-235.2"/>
<text text-anchor="start" x="288.5" y="-242.3" font-family="Helvetica,sans-Serif" font-size="11.00" fill="#000000">code</text>
<polygon fill="#ffffff" stroke="transparent" points="268.5,-213.2 268.5,-235.2 391.5,-235.2 391.5,-213.2 268.5,-213.2"/>
<polygon fill="none" stroke="#000000" points="268.5,-213.2 268.5,-235.2 391.5,-235.2 391.5,-213.2 268.5,-213.2"/>
<text text-anchor="start" x="288.5" y="-220.3" font-family="Helvetica,sans-Serif" font-size="11.00" fill="#000000">list_sequence</text>
<polygon fill="#ffffff" stroke="transparent" points="268.5,-191.2 268.5,-213.2 391.5,-213.2 391.5,-191.2 268.5,-191.2"/>
<polygon fill="none" stroke="#000000" points="268.5,-191.2 268.5,-213.2 391.5,-213.2 391.5,-191.2 268.5,-191.2"/>
<text text-anchor="start" x="288.5" y="-198.3" font-family="Helvetica,sans-Serif" font-size="11.00" fill="#000000">created_at</text>
<polygon fill="#ffffff" stroke="transparent" points="268.5,-169.2 268.5,-191.2 391.5,-191.2 391.5,-169.2 268.5,-169.2"/>
<polygon fill="none" stroke="#000000" points="268.5,-169.2 268.5,-191.2 391.5,-191.2 391.5,-169.2 268.5,-169.2"/>
<text text-anchor="start" x="288.5" y="-176.3" font-family="Helvetica,sans-Serif" font-size="11.00" fill="#000000">deactivated_at</text>
<polygon fill="none" stroke="#000000" points="268.5,-150.2 268.5,-169.2 391.5,-169.2 391.5,-150.2 268.5,-150.2"/>
<text text-anchor="start" x="271.5" y="-156.3" font-family="Helvetica,sans-Serif" font-size="11.00" fill="#000000">...</text>
<polygon fill="#ffffff" stroke="transparent" points="268.5,-131.2 268.5,-150.2 304.5,-150.2 304.5,-131.2 268.5,-131.2"/>
<polygon fill="none" stroke="#000000" points="268.5,-131.2 268.5,-150.2 304.5,-150.2 304.5,-131.2 268.5,-131.2"/>
<text text-anchor="start" x="271.5" y="-137.3" font-family="Helvetica,sans-Serif" font-size="11.00" fill="#000000">&lt; 1</text>
<polygon fill="#ffffff" stroke="transparent" points="304.5,-131.2 304.5,-150.2 362.5,-150.2 362.5,-131.2 304.5,-131.2"/>
<polygon fill="none" stroke="#000000" points="304.5,-131.2 304.5,-150.2 362.5,-150.2 362.5,-131.2 304.5,-131.2"/>
<text text-anchor="start" x="314.8807" y="-137.3" font-family="Helvetica,sans-Serif" font-size="11.00" fill="#000000">213 rows</text>
<polygon fill="#ffffff" stroke="transparent" points="362.5,-131.2 362.5,-150.2 391.5,-150.2 391.5,-131.2 362.5,-131.2"/>
<polygon fill="none" stroke="#000000" points="362.5,-131.2 362.5,-150.2 391.5,-150.2 391.5,-131.2 362.5,-131.2"/>
<text text-anchor="start" x="372.9053" y="-137.3" font-family="Helvetica,sans-Serif" font-size="11.00" fill="#000000">2 &gt;</text>
</a>
</g>
</g>
<!-- alert&#45;&gt;alert_code -->
<g id="edge1" class="edge">
<title>alert:w&#45;&gt;alert_code:e</title>
<path fill="none" stroke="#000000" d="M499.3695,-330.227C454.759,-324.0181 443.6426,-290.2 391.5,-290.2"/>
<polygon fill="#000000" stroke="#000000" points="506.0176,-330.6691 513.7611,-334.7921 510.0088,-330.9345 514,-331.2 514,-331.2 514,-331.2 510.0088,-330.9345 514.2389,-327.6079 506.0176,-330.6691 506.0176,-330.6691"/>
<ellipse fill="none" stroke="#000000" cx="502.8247" cy="-330.4567" rx="3.2" ry="3.2"/>
</g>
<!-- alert_type -->
<g id="node3" class="node">
<title>alert_type</title>
<g id="a_node3"><a xlink:href="../../tables/alert_type.html" xlink:title="alert_type" target="_top">
<polygon fill="#ffffff" stroke="transparent" points="8,-38.2 8,-304.2 219,-304.2 219,-38.2 8,-38.2"/>
<polygon fill="#f5f5f5" stroke="transparent" points="10.5,-279.2 10.5,-302.2 217.5,-302.2 217.5,-279.2 10.5,-279.2"/>
<polygon fill="none" stroke="#000000" points="10.5,-279.2 10.5,-302.2 217.5,-302.2 217.5,-279.2 10.5,-279.2"/>
<text text-anchor="start" x="15.5" y="-287.8" font-family="Helvetica,sans-Serif" font-weight="bold" font-size="11.00" fill="#000000">alert_type</text>
<text text-anchor="start" x="182.5437" y="-287.3" font-family="Helvetica,sans-Serif" font-size="11.00" fill="#000000">[table]</text>
<polygon fill="none" stroke="#000000" points="10.5,-257.2 10.5,-279.2 133.5,-279.2 133.5,-257.2 10.5,-257.2"/>
<image xlink:href="../../images/primaryKeys.png" width="11px" height="12px" preserveAspectRatio="xMinYMin meet" x="15.5" y="-274.2"/>
<text text-anchor="start" x="30.5" y="-264.3" font-family="Helvetica,sans-Serif" font-size="11.00" fill="#000000">alert_type_id</text>
<polygon fill="none" stroke="#000000" points="133.5,-257.2 133.5,-279.2 217.5,-279.2 217.5,-257.2 133.5,-257.2"/>
<text text-anchor="start" x="136.5" y="-264.9" font-family="Helvetica,sans-Serif" font-size="11.00" fill="#000000">bigserial[19]</text>
<polygon fill="#ffffff" stroke="transparent" points="10.5,-235.2 10.5,-257.2 133.5,-257.2 133.5,-235.2 10.5,-235.2"/>
<polygon fill="none" stroke="#000000" points="10.5,-235.2 10.5,-257.2 133.5,-257.2 133.5,-235.2 10.5,-235.2"/>
<text text-anchor="start" x="30.5" y="-242.3" font-family="Helvetica,sans-Serif" font-size="11.00" fill="#000000">code</text>
<polygon fill="none" stroke="#000000" points="133.5,-235.2 133.5,-257.2 217.5,-257.2 217.5,-235.2 133.5,-235.2"/>
<text text-anchor="start" x="136.5" y="-242.9" font-family="Helvetica,sans-Serif" font-size="11.00" fill="#000000">varchar[12]</text>
<polygon fill="none" stroke="#000000" points="10.5,-213.2 10.5,-235.2 133.5,-235.2 133.5,-213.2 10.5,-213.2"/>
<text text-anchor="start" x="30.5" y="-220.3" font-family="Helvetica,sans-Serif" font-size="11.00" fill="#000000">description</text>
<polygon fill="none" stroke="#000000" points="133.5,-213.2 133.5,-235.2 217.5,-235.2 217.5,-213.2 133.5,-213.2"/>
<text text-anchor="start" x="136.5" y="-220.9" font-family="Helvetica,sans-Serif" font-size="11.00" fill="#000000">varchar[40]</text>
<polygon fill="#ffffff" stroke="transparent" points="10.5,-191.2 10.5,-213.2 133.5,-213.2 133.5,-191.2 10.5,-191.2"/>
<polygon fill="none" stroke="#000000" points="10.5,-191.2 10.5,-213.2 133.5,-213.2 133.5,-191.2 10.5,-191.2"/>
<text text-anchor="start" x="30.5" y="-198.3" font-family="Helvetica,sans-Serif" font-size="11.00" fill="#000000">list_sequence</text>
<polygon fill="none" stroke="#000000" points="133.5,-191.2 133.5,-213.2 217.5,-213.2 217.5,-191.2 133.5,-191.2"/>
<text text-anchor="start" x="136.5" y="-198.9" font-family="Helvetica,sans-Serif" font-size="11.00" fill="#000000">int4[10]</text>
<polygon fill="#ffffff" stroke="transparent" points="10.5,-169.2 10.5,-191.2 133.5,-191.2 133.5,-169.2 10.5,-169.2"/>
<polygon fill="none" stroke="#000000" points="10.5,-169.2 10.5,-191.2 133.5,-191.2 133.5,-169.2 10.5,-169.2"/>
<text text-anchor="start" x="30.5" y="-176.3" font-family="Helvetica,sans-Serif" font-size="11.00" fill="#000000">created_at</text>
<polygon fill="none" stroke="#000000" points="133.5,-169.2 133.5,-191.2 217.5,-191.2 217.5,-169.2 133.5,-169.2"/>
<text text-anchor="start" x="136.3807" y="-176.9" font-family="Helvetica,sans-Serif" font-size="11.00" fill="#000000">timestamp[29,6]</text>
<polygon fill="none" stroke="#000000" points="10.5,-147.2 10.5,-169.2 133.5,-169.2 133.5,-147.2 10.5,-147.2"/>
<text text-anchor="start" x="30.5" y="-154.3" font-family="Helvetica,sans-Serif" font-size="11.00" fill="#000000">created_by</text>
<polygon fill="none" stroke="#000000" points="133.5,-147.2 133.5,-169.2 217.5,-169.2 217.5,-147.2 133.5,-147.2"/>
<text text-anchor="start" x="136.5" y="-154.9" font-family="Helvetica,sans-Serif" font-size="11.00" fill="#000000">varchar[64]</text>
<polygon fill="none" stroke="#000000" points="10.5,-125.2 10.5,-147.2 133.5,-147.2 133.5,-125.2 10.5,-125.2"/>
<text text-anchor="start" x="30.5" y="-132.3" font-family="Helvetica,sans-Serif" font-size="11.00" fill="#000000">modified_at</text>
<polygon fill="none" stroke="#000000" points="133.5,-125.2 133.5,-147.2 217.5,-147.2 217.5,-125.2 133.5,-125.2"/>
<text text-anchor="start" x="136.3807" y="-132.9" font-family="Helvetica,sans-Serif" font-size="11.00" fill="#000000">timestamp[29,6]</text>
<polygon fill="none" stroke="#000000" points="10.5,-103.2 10.5,-125.2 133.5,-125.2 133.5,-103.2 10.5,-103.2"/>
<text text-anchor="start" x="30.5" y="-110.3" font-family="Helvetica,sans-Serif" font-size="11.00" fill="#000000">modified_by</text>
<polygon fill="none" stroke="#000000" points="133.5,-103.2 133.5,-125.2 217.5,-125.2 217.5,-103.2 133.5,-103.2"/>
<text text-anchor="start" x="136.5" y="-110.9" font-family="Helvetica,sans-Serif" font-size="11.00" fill="#000000">varchar[64]</text>
<polygon fill="#ffffff" stroke="transparent" points="10.5,-81.2 10.5,-103.2 133.5,-103.2 133.5,-81.2 10.5,-81.2"/>
<polygon fill="none" stroke="#000000" points="10.5,-81.2 10.5,-103.2 133.5,-103.2 133.5,-81.2 10.5,-81.2"/>
<text text-anchor="start" x="30.5" y="-88.3" font-family="Helvetica,sans-Serif" font-size="11.00" fill="#000000">deactivated_at</text>
<polygon fill="none" stroke="#000000" points="133.5,-81.2 133.5,-103.2 217.5,-103.2 217.5,-81.2 133.5,-81.2"/>
<text text-anchor="start" x="136.3807" y="-88.9" font-family="Helvetica,sans-Serif" font-size="11.00" fill="#000000">timestamp[29,6]</text>
<polygon fill="none" stroke="#000000" points="10.5,-59.2 10.5,-81.2 133.5,-81.2 133.5,-59.2 10.5,-59.2"/>
<text text-anchor="start" x="30.5" y="-66.3" font-family="Helvetica,sans-Serif" font-size="11.00" fill="#000000">deactivated_by</text>
<polygon fill="none" stroke="#000000" points="133.5,-59.2 133.5,-81.2 217.5,-81.2 217.5,-59.2 133.5,-59.2"/>
<text text-anchor="start" x="136.5" y="-66.9" font-family="Helvetica,sans-Serif" font-size="11.00" fill="#000000">varchar[64]</text>
<polygon fill="#ffffff" stroke="transparent" points="10.5,-40.2 10.5,-59.2 76.5,-59.2 76.5,-40.2 10.5,-40.2"/>
<polygon fill="none" stroke="#000000" points="10.5,-40.2 10.5,-59.2 76.5,-59.2 76.5,-40.2 10.5,-40.2"/>
<text text-anchor="start" x="13.5" y="-46.3" font-family="Helvetica,sans-Serif" font-size="11.00" fill="#000000">&lt; 0</text>
<polygon fill="#ffffff" stroke="transparent" points="76.5,-40.2 76.5,-59.2 133.5,-59.2 133.5,-40.2 76.5,-40.2"/>
<polygon fill="none" stroke="#000000" points="76.5,-40.2 76.5,-59.2 133.5,-59.2 133.5,-40.2 76.5,-40.2"/>
<text text-anchor="start" x="124.3862" y="-46.3" font-family="Helvetica,sans-Serif" font-size="11.00" fill="#000000"> &#160;</text>
<polygon fill="#ffffff" stroke="transparent" points="133.5,-40.2 133.5,-59.2 217.5,-59.2 217.5,-40.2 133.5,-40.2"/>
<polygon fill="none" stroke="#000000" points="133.5,-40.2 133.5,-59.2 217.5,-59.2 217.5,-40.2 133.5,-40.2"/>
<text text-anchor="start" x="198.9053" y="-46.3" font-family="Helvetica,sans-Serif" font-size="11.00" fill="#000000">1 &gt;</text>
<polygon fill="none" stroke="#000000" stroke-width="2" points="9,-39.2 9,-303.2 218,-303.2 218,-39.2 9,-39.2"/>
</a>
</g>
</g>
<!-- alert_code&#45;&gt;alert_type -->
<g id="edge2" class="edge">
<title>alert_code:w&#45;&gt;alert_type:e</title>
<path fill="none" stroke="#000000" d="M253.776,-268.2C241.7815,-268.2 234.3229,-268.2 217.5,-268.2"/>
<polygon fill="#000000" stroke="#000000" points="260.5,-268.2001 268.5,-271.8 264.5,-268.2 268.5,-268.2 268.5,-268.2 268.5,-268.2 264.5,-268.2 268.5,-264.6 260.5,-268.2001 260.5,-268.2001"/>
<ellipse fill="none" stroke="#000000" cx="257.3" cy="-268.2001" rx="3.2" ry="3.2"/>
</g>
<!-- alert_code_privileged_user -->
<g id="node4" class="node">
<title>alert_code_privileged_user</title>
<g id="a_node4"><a xlink:href="../../tables/alert_code_privileged_user.html" xlink:title="alert_code_privileged_user" target="_top">
<polygon fill="#ffffff" stroke="transparent" points="440,-221.7 440,-282.7 658,-282.7 658,-221.7 440,-221.7"/>
<polygon fill="#f5f5f5" stroke="transparent" points="440,-259.2 440,-282.2 658,-282.2 658,-259.2 440,-259.2"/>
<polygon fill="none" stroke="#000000" points="440,-259.2 440,-282.2 658,-282.2 658,-259.2 440,-259.2"/>
<text text-anchor="start" x="445" y="-267.8" font-family="Helvetica,sans-Serif" font-weight="bold" font-size="11.00" fill="#000000">alert_code_privileged_user</text>
<text text-anchor="start" x="623.5219" y="-267.3" font-family="Helvetica,sans-Serif" font-size="11.00" fill="#000000">[table]</text>
<polygon fill="none" stroke="#000000" points="440,-240.2 440,-259.2 658,-259.2 658,-240.2 440,-240.2"/>
<text text-anchor="start" x="443" y="-246.3" font-family="Helvetica,sans-Serif" font-size="11.00" fill="#000000">...</text>
<polygon fill="#ffffff" stroke="transparent" points="440,-221.2 440,-240.2 547,-240.2 547,-221.2 440,-221.2"/>
<polygon fill="none" stroke="#000000" points="440,-221.2 440,-240.2 547,-240.2 547,-221.2 440,-221.2"/>
<text text-anchor="start" x="443" y="-227.3" font-family="Helvetica,sans-Serif" font-size="11.00" fill="#000000">&lt; 1</text>
<polygon fill="#ffffff" stroke="transparent" points="547,-221.2 547,-240.2 602,-240.2 602,-221.2 547,-221.2"/>
<polygon fill="none" stroke="#000000" points="547,-221.2 547,-240.2 602,-240.2 602,-221.2 547,-221.2"/>
<text text-anchor="start" x="592.8862" y="-227.3" font-family="Helvetica,sans-Serif" font-size="11.00" fill="#000000"> &#160;</text>
<polygon fill="#ffffff" stroke="transparent" points="602,-221.2 602,-240.2 658,-240.2 658,-221.2 602,-221.2"/>
<polygon fill="none" stroke="#000000" points="602,-221.2 602,-240.2 658,-240.2 658,-221.2 602,-221.2"/>
<text text-anchor="start" x="648.8862" y="-227.3" font-family="Helvetica,sans-Serif" font-size="11.00" fill="#000000"> &#160;</text>
</a>
</g>
</g>
<!-- alert_code_privileged_user&#45;&gt;alert_code -->
<g id="edge3" class="edge">
<title>alert_code_privileged_user:w&#45;&gt;alert_code:e</title>
<path fill="none" stroke="#000000" d="M426.2884,-253.9032C413.5191,-264.6726 413.7719,-290.2 391.5,-290.2"/>
<polygon fill="#000000" stroke="#000000" points="432.4328,-251.7957 441.1681,-252.6052 436.2164,-250.4978 440,-249.2 440,-249.2 440,-249.2 436.2164,-250.4978 438.8319,-245.7948 432.4328,-251.7957 432.4328,-251.7957"/>
<ellipse fill="none" stroke="#000000" cx="429.4059" cy="-252.8339" rx="3.2" ry="3.2"/>
</g>
</g>
</svg>
