<?xml version="1.0" encoding="UTF-8" standalone="no"?>
<!DOCTYPE svg PUBLIC "-//W3C//DTD SVG 1.1//EN"
 "http://www.w3.org/Graphics/SVG/1.1/DTD/svg11.dtd">
<!-- Generated by graphviz version 2.40.1 (20161225.0304)
 -->
<!-- Title: twoDegreesRelationshipsDiagram Pages: 1 -->
<svg width="899pt" height="443pt"
 viewBox="0.00 0.00 899.00 442.70" xmlns="http://www.w3.org/2000/svg" xmlns:xlink="http://www.w3.org/1999/xlink">
<g id="graph0" class="graph" transform="scale(1 1) rotate(0) translate(4 438.7)">
<title>twoDegreesRelationshipsDiagram</title>
<polygon fill="#ffffff" stroke="transparent" points="-4,4 -4,-438.7 895,-438.7 895,4 -4,4"/>
<text text-anchor="middle" x="72.4936" y="-7.3" font-family="Helvetica,sans-Serif" font-size="11.00" fill="#000000">Generated by SchemaSpy</text>
<!-- alert -->
<g id="node1" class="node">
<title>alert</title>
<g id="a_node1"><a xlink:href="../../tables/alert.html" xlink:title="alert" target="_top">
<polygon fill="#ffffff" stroke="transparent" points="336,-38.2 336,-348.2 635,-348.2 635,-38.2 336,-38.2"/>
<polygon fill="#f5f5f5" stroke="transparent" points="338.5,-323.2 338.5,-346.2 633.5,-346.2 633.5,-323.2 338.5,-323.2"/>
<polygon fill="none" stroke="#000000" points="338.5,-323.2 338.5,-346.2 633.5,-346.2 633.5,-323.2 338.5,-323.2"/>
<text text-anchor="start" x="343.5" y="-331.8" font-family="Helvetica,sans-Serif" font-weight="bold" font-size="11.00" fill="#000000">alert</text>
<text text-anchor="start" x="598.5437" y="-331.3" font-family="Helvetica,sans-Serif" font-size="11.00" fill="#000000">[table]</text>
<polygon fill="none" stroke="#000000" points="338.5,-301.2 338.5,-323.2 539.5,-323.2 539.5,-301.2 338.5,-301.2"/>
<image xlink:href="../../images/primaryKeys.png" width="11px" height="12px" preserveAspectRatio="xMinYMin meet" x="343.5" y="-318.2"/>
<text text-anchor="start" x="358.5" y="-308.3" font-family="Helvetica,sans-Serif" font-size="11.00" fill="#000000">id</text>
<polygon fill="none" stroke="#000000" points="539.5,-301.2 539.5,-323.2 633.5,-323.2 633.5,-301.2 539.5,-301.2"/>
<text text-anchor="start" x="542.4758" y="-308.9" font-family="Helvetica,sans-Serif" font-size="11.00" fill="#000000">uuid[2147483647]</text>
<polygon fill="#ffffff" stroke="transparent" points="338.5,-279.2 338.5,-301.2 539.5,-301.2 539.5,-279.2 338.5,-279.2"/>
<polygon fill="none" stroke="#000000" points="338.5,-279.2 338.5,-301.2 539.5,-301.2 539.5,-279.2 338.5,-279.2"/>
<image xlink:href="../../images/foreignKeys.png" width="11px" height="12px" preserveAspectRatio="xMinYMin meet" x="343.5" y="-296.2"/>
<text text-anchor="start" x="358.5" y="-286.3" font-family="Helvetica,sans-Serif" font-size="11.00" fill="#000000">alert_code_id</text>
<polygon fill="none" stroke="#000000" points="539.5,-279.2 539.5,-301.2 633.5,-301.2 633.5,-279.2 539.5,-279.2"/>
<text text-anchor="start" x="542.5" y="-286.9" font-family="Helvetica,sans-Serif" font-size="11.00" fill="#000000">int8[19]</text>
<polygon fill="#ffffff" stroke="transparent" points="338.5,-257.2 338.5,-279.2 539.5,-279.2 539.5,-257.2 338.5,-257.2"/>
<polygon fill="none" stroke="#000000" points="338.5,-257.2 338.5,-279.2 539.5,-279.2 539.5,-257.2 338.5,-257.2"/>
<image xlink:href="../../images/foreignKeys.png" width="11px" height="12px" preserveAspectRatio="xMinYMin meet" x="343.5" y="-274.2"/>
<text text-anchor="start" x="358.5" y="-264.3" font-family="Helvetica,sans-Serif" font-size="11.00" fill="#000000">prison_number</text>
<polygon fill="none" stroke="#000000" points="539.5,-257.2 539.5,-279.2 633.5,-279.2 633.5,-257.2 539.5,-257.2"/>
<text text-anchor="start" x="542.5" y="-264.9" font-family="Helvetica,sans-Serif" font-size="11.00" fill="#000000">varchar[10]</text>
<polygon fill="none" stroke="#000000" points="338.5,-235.2 338.5,-257.2 539.5,-257.2 539.5,-235.2 338.5,-235.2"/>
<text text-anchor="start" x="358.5" y="-242.3" font-family="Helvetica,sans-Serif" font-size="11.00" fill="#000000">description</text>
<polygon fill="none" stroke="#000000" points="539.5,-235.2 539.5,-257.2 633.5,-257.2 633.5,-235.2 539.5,-235.2"/>
<text text-anchor="start" x="542.5" y="-242.9" font-family="Helvetica,sans-Serif" font-size="11.00" fill="#000000">text[2147483647]</text>
<polygon fill="none" stroke="#000000" points="338.5,-213.2 338.5,-235.2 539.5,-235.2 539.5,-213.2 338.5,-213.2"/>
<text text-anchor="start" x="358.5" y="-220.3" font-family="Helvetica,sans-Serif" font-size="11.00" fill="#000000">authorised_by</text>
<polygon fill="none" stroke="#000000" points="539.5,-213.2 539.5,-235.2 633.5,-235.2 633.5,-213.2 539.5,-213.2"/>
<text text-anchor="start" x="542.5" y="-220.9" font-family="Helvetica,sans-Serif" font-size="11.00" fill="#000000">varchar[40]</text>
<polygon fill="#ffffff" stroke="transparent" points="338.5,-191.2 338.5,-213.2 539.5,-213.2 539.5,-191.2 338.5,-191.2"/>
<polygon fill="none" stroke="#000000" points="338.5,-191.2 338.5,-213.2 539.5,-213.2 539.5,-191.2 338.5,-191.2"/>
<text text-anchor="start" x="358.5" y="-198.3" font-family="Helvetica,sans-Serif" font-size="11.00" fill="#000000">active_from</text>
<polygon fill="none" stroke="#000000" points="539.5,-191.2 539.5,-213.2 633.5,-213.2 633.5,-191.2 539.5,-191.2"/>
<text text-anchor="start" x="542.5" y="-198.9" font-family="Helvetica,sans-Serif" font-size="11.00" fill="#000000">date[13]</text>
<polygon fill="#ffffff" stroke="transparent" points="338.5,-169.2 338.5,-191.2 539.5,-191.2 539.5,-169.2 338.5,-169.2"/>
<polygon fill="none" stroke="#000000" points="338.5,-169.2 338.5,-191.2 539.5,-191.2 539.5,-169.2 338.5,-169.2"/>
<text text-anchor="start" x="358.5" y="-176.3" font-family="Helvetica,sans-Serif" font-size="11.00" fill="#000000">active_to</text>
<polygon fill="none" stroke="#000000" points="539.5,-169.2 539.5,-191.2 633.5,-191.2 633.5,-169.2 539.5,-169.2"/>
<text text-anchor="start" x="542.5" y="-176.9" font-family="Helvetica,sans-Serif" font-size="11.00" fill="#000000">date[13]</text>
<polygon fill="#ffffff" stroke="transparent" points="338.5,-147.2 338.5,-169.2 539.5,-169.2 539.5,-147.2 338.5,-147.2"/>
<polygon fill="none" stroke="#000000" points="338.5,-147.2 338.5,-169.2 539.5,-169.2 539.5,-147.2 338.5,-147.2"/>
<text text-anchor="start" x="358.5" y="-154.3" font-family="Helvetica,sans-Serif" font-size="11.00" fill="#000000">deleted_at</text>
<polygon fill="none" stroke="#000000" points="539.5,-147.2 539.5,-169.2 633.5,-169.2 633.5,-147.2 539.5,-147.2"/>
<text text-anchor="start" x="542.5" y="-154.9" font-family="Helvetica,sans-Serif" font-size="11.00" fill="#000000">timestamp[29,6]</text>
<polygon fill="#ffffff" stroke="transparent" points="338.5,-125.2 338.5,-147.2 539.5,-147.2 539.5,-125.2 338.5,-125.2"/>
<polygon fill="none" stroke="#000000" points="338.5,-125.2 338.5,-147.2 539.5,-147.2 539.5,-125.2 338.5,-125.2"/>
<text text-anchor="start" x="358.5" y="-132.3" font-family="Helvetica,sans-Serif" font-size="11.00" fill="#000000">created_at</text>
<polygon fill="none" stroke="#000000" points="539.5,-125.2 539.5,-147.2 633.5,-147.2 633.5,-125.2 539.5,-125.2"/>
<text text-anchor="start" x="542.5" y="-132.9" font-family="Helvetica,sans-Serif" font-size="11.00" fill="#000000">timestamp[29,6]</text>
<polygon fill="#ffffff" stroke="transparent" points="338.5,-103.2 338.5,-125.2 539.5,-125.2 539.5,-103.2 338.5,-103.2"/>
<polygon fill="none" stroke="#000000" points="338.5,-103.2 338.5,-125.2 539.5,-125.2 539.5,-103.2 338.5,-103.2"/>
<text text-anchor="start" x="358.5" y="-110.3" font-family="Helvetica,sans-Serif" font-size="11.00" fill="#000000">last_modified_at</text>
<polygon fill="none" stroke="#000000" points="539.5,-103.2 539.5,-125.2 633.5,-125.2 633.5,-103.2 539.5,-103.2"/>
<text text-anchor="start" x="542.5" y="-110.9" font-family="Helvetica,sans-Serif" font-size="11.00" fill="#000000">timestamp[29,6]</text>
<polygon fill="none" stroke="#000000" points="338.5,-81.2 338.5,-103.2 539.5,-103.2 539.5,-81.2 338.5,-81.2"/>
<text text-anchor="start" x="358.5" y="-88.3" font-family="Helvetica,sans-Serif" font-size="11.00" fill="#000000">prison_code_when_created</text>
<polygon fill="none" stroke="#000000" points="539.5,-81.2 539.5,-103.2 633.5,-103.2 633.5,-81.2 539.5,-81.2"/>
<text text-anchor="start" x="542.5" y="-88.9" font-family="Helvetica,sans-Serif" font-size="11.00" fill="#000000">varchar[6]</text>
<polygon fill="none" stroke="#000000" points="338.5,-59.2 338.5,-81.2 539.5,-81.2 539.5,-59.2 338.5,-59.2"/>
<text text-anchor="start" x="358.5" y="-66.3" font-family="Helvetica,sans-Serif" font-size="11.00" fill="#000000">version</text>
<polygon fill="none" stroke="#000000" points="539.5,-59.2 539.5,-81.2 633.5,-81.2 633.5,-59.2 539.5,-59.2"/>
<text text-anchor="start" x="542.5" y="-66.9" font-family="Helvetica,sans-Serif" font-size="11.00" fill="#000000">int4[10]</text>
<polygon fill="#ffffff" stroke="transparent" points="338.5,-40.2 338.5,-59.2 443.5,-59.2 443.5,-40.2 338.5,-40.2"/>
<polygon fill="none" stroke="#000000" points="338.5,-40.2 338.5,-59.2 443.5,-59.2 443.5,-40.2 338.5,-40.2"/>
<text text-anchor="start" x="341.5" y="-46.3" font-family="Helvetica,sans-Serif" font-size="11.00" fill="#000000">&lt; 1</text>
<polygon fill="#ffffff" stroke="transparent" points="443.5,-40.2 443.5,-59.2 539.5,-59.2 539.5,-40.2 443.5,-40.2"/>
<polygon fill="none" stroke="#000000" points="443.5,-40.2 443.5,-59.2 539.5,-59.2 539.5,-40.2 443.5,-40.2"/>
<text text-anchor="start" x="530.3862" y="-46.3" font-family="Helvetica,sans-Serif" font-size="11.00" fill="#000000"> &#160;</text>
<polygon fill="#ffffff" stroke="transparent" points="539.5,-40.2 539.5,-59.2 633.5,-59.2 633.5,-40.2 539.5,-40.2"/>
<polygon fill="none" stroke="#000000" points="539.5,-40.2 539.5,-59.2 633.5,-59.2 633.5,-40.2 539.5,-40.2"/>
<text text-anchor="start" x="614.9053" y="-46.3" font-family="Helvetica,sans-Serif" font-size="11.00" fill="#000000">1 &gt;</text>
<polygon fill="none" stroke="#000000" stroke-width="2" points="337,-39.2 337,-347.2 634,-347.2 634,-39.2 337,-39.2"/>
</a>
</g>
</g>
<!-- alert_code -->
<g id="node2" class="node">
<title>alert_code</title>
<g id="a_node2"><a xlink:href="../../tables/alert_code.html" xlink:title="alert_code" target="_top">
<polygon fill="#ffffff" stroke="transparent" points="164,-184.7 164,-377.7 287,-377.7 287,-184.7 164,-184.7"/>
<polygon fill="#f5f5f5" stroke="transparent" points="164.5,-354.2 164.5,-377.2 287.5,-377.2 287.5,-354.2 164.5,-354.2"/>
<polygon fill="none" stroke="#000000" points="164.5,-354.2 164.5,-377.2 287.5,-377.2 287.5,-354.2 164.5,-354.2"/>
<text text-anchor="start" x="169.5" y="-362.8" font-family="Helvetica,sans-Serif" font-weight="bold" font-size="11.00" fill="#000000">alert_code</text>
<text text-anchor="start" x="252.5437" y="-362.3" font-family="Helvetica,sans-Serif" font-size="11.00" fill="#000000">[table]</text>
<polygon fill="none" stroke="#000000" points="164.5,-332.2 164.5,-354.2 287.5,-354.2 287.5,-332.2 164.5,-332.2"/>
<image xlink:href="../../images/primaryKeys.png" width="11px" height="12px" preserveAspectRatio="xMinYMin meet" x="169.5" y="-349.2"/>
<text text-anchor="start" x="184.5" y="-339.3" font-family="Helvetica,sans-Serif" font-size="11.00" fill="#000000">alert_code_id</text>
<polygon fill="#ffffff" stroke="transparent" points="164.5,-310.2 164.5,-332.2 287.5,-332.2 287.5,-310.2 164.5,-310.2"/>
<polygon fill="none" stroke="#000000" points="164.5,-310.2 164.5,-332.2 287.5,-332.2 287.5,-310.2 164.5,-310.2"/>
<image xlink:href="../../images/foreignKeys.png" width="11px" height="12px" preserveAspectRatio="xMinYMin meet" x="169.5" y="-327.2"/>
<text text-anchor="start" x="184.5" y="-317.3" font-family="Helvetica,sans-Serif" font-size="11.00" fill="#000000">alert_type_id</text>
<polygon fill="#ffffff" stroke="transparent" points="164.5,-288.2 164.5,-310.2 287.5,-310.2 287.5,-288.2 164.5,-288.2"/>
<polygon fill="none" stroke="#000000" points="164.5,-288.2 164.5,-310.2 287.5,-310.2 287.5,-288.2 164.5,-288.2"/>
<text text-anchor="start" x="184.5" y="-295.3" font-family="Helvetica,sans-Serif" font-size="11.00" fill="#000000">code</text>
<polygon fill="#ffffff" stroke="transparent" points="164.5,-266.2 164.5,-288.2 287.5,-288.2 287.5,-266.2 164.5,-266.2"/>
<polygon fill="none" stroke="#000000" points="164.5,-266.2 164.5,-288.2 287.5,-288.2 287.5,-266.2 164.5,-266.2"/>
<text text-anchor="start" x="184.5" y="-273.3" font-family="Helvetica,sans-Serif" font-size="11.00" fill="#000000">list_sequence</text>
<polygon fill="#ffffff" stroke="transparent" points="164.5,-244.2 164.5,-266.2 287.5,-266.2 287.5,-244.2 164.5,-244.2"/>
<polygon fill="none" stroke="#000000" points="164.5,-244.2 164.5,-266.2 287.5,-266.2 287.5,-244.2 164.5,-244.2"/>
<text text-anchor="start" x="184.5" y="-251.3" font-family="Helvetica,sans-Serif" font-size="11.00" fill="#000000">created_at</text>
<polygon fill="#ffffff" stroke="transparent" points="164.5,-222.2 164.5,-244.2 287.5,-244.2 287.5,-222.2 164.5,-222.2"/>
<polygon fill="none" stroke="#000000" points="164.5,-222.2 164.5,-244.2 287.5,-244.2 287.5,-222.2 164.5,-222.2"/>
<text text-anchor="start" x="184.5" y="-229.3" font-family="Helvetica,sans-Serif" font-size="11.00" fill="#000000">deactivated_at</text>
<polygon fill="none" stroke="#000000" points="164.5,-203.2 164.5,-222.2 287.5,-222.2 287.5,-203.2 164.5,-203.2"/>
<text text-anchor="start" x="167.5" y="-209.3" font-family="Helvetica,sans-Serif" font-size="11.00" fill="#000000">...</text>
<polygon fill="#ffffff" stroke="transparent" points="164.5,-184.2 164.5,-203.2 219.5,-203.2 219.5,-184.2 164.5,-184.2"/>
<polygon fill="none" stroke="#000000" points="164.5,-184.2 164.5,-203.2 219.5,-203.2 219.5,-184.2 164.5,-184.2"/>
<text text-anchor="start" x="167.5" y="-190.3" font-family="Helvetica,sans-Serif" font-size="11.00" fill="#000000">&lt; 1</text>
<polygon fill="#ffffff" stroke="transparent" points="219.5,-184.2 219.5,-203.2 248.5,-203.2 248.5,-184.2 219.5,-184.2"/>
<polygon fill="none" stroke="#000000" points="219.5,-184.2 219.5,-203.2 248.5,-203.2 248.5,-184.2 219.5,-184.2"/>
<text text-anchor="start" x="239.3862" y="-190.3" font-family="Helvetica,sans-Serif" font-size="11.00" fill="#000000"> &#160;</text>
<polygon fill="#ffffff" stroke="transparent" points="248.5,-184.2 248.5,-203.2 287.5,-203.2 287.5,-184.2 248.5,-184.2"/>
<polygon fill="none" stroke="#000000" points="248.5,-184.2 248.5,-203.2 287.5,-203.2 287.5,-184.2 248.5,-184.2"/>
<text text-anchor="start" x="268.9053" y="-190.3" font-family="Helvetica,sans-Serif" font-size="11.00" fill="#000000">2 &gt;</text>
</a>
</g>
</g>
<!-- alert&#45;&gt;alert_code -->
<g id="edge1" class="edge">
<title>alert:w&#45;&gt;alert_code:e</title>
<path fill="none" stroke="#000000" d="M324.4557,-295.0911C309.5477,-308.2117 314.0607,-343.2 287.5,-343.2"/>
<polygon fill="#000000" stroke="#000000" points="330.945,-292.8311 339.684,-293.5997 334.7225,-291.5156 338.5,-290.2 338.5,-290.2 338.5,-290.2 334.7225,-291.5156 337.316,-286.8003 330.945,-292.8311 330.945,-292.8311"/>
<ellipse fill="none" stroke="#000000" cx="327.9231" cy="-293.8836" rx="3.2" ry="3.2"/>
</g>
<!-- alert_type -->
<g id="node3" class="node">
<title>alert_type</title>
<g id="a_node3"><a xlink:href="../../tables/alert_type.html" xlink:title="alert_type" target="_top">
<polygon fill="#ffffff" stroke="transparent" points="8,-293.7 8,-354.7 115,-354.7 115,-293.7 8,-293.7"/>
<polygon fill="#f5f5f5" stroke="transparent" points="8.5,-331.2 8.5,-354.2 115.5,-354.2 115.5,-331.2 8.5,-331.2"/>
<polygon fill="none" stroke="#000000" points="8.5,-331.2 8.5,-354.2 115.5,-354.2 115.5,-331.2 8.5,-331.2"/>
<text text-anchor="start" x="13.5" y="-339.8" font-family="Helvetica,sans-Serif" font-weight="bold" font-size="11.00" fill="#000000">alert_type</text>
<text text-anchor="start" x="81.0219" y="-339.3" font-family="Helvetica,sans-Serif" font-size="11.00" fill="#000000">[table]</text>
<polygon fill="none" stroke="#000000" points="8.5,-312.2 8.5,-331.2 115.5,-331.2 115.5,-312.2 8.5,-312.2"/>
<text text-anchor="start" x="11.5" y="-318.3" font-family="Helvetica,sans-Serif" font-size="11.00" fill="#000000">...</text>
<polygon fill="#ffffff" stroke="transparent" points="8.5,-293.2 8.5,-312.2 51.5,-312.2 51.5,-293.2 8.5,-293.2"/>
<polygon fill="none" stroke="#000000" points="8.5,-293.2 8.5,-312.2 51.5,-312.2 51.5,-293.2 8.5,-293.2"/>
<text text-anchor="start" x="11.5" y="-299.3" font-family="Helvetica,sans-Serif" font-size="11.00" fill="#000000"> &#160;</text>
<polygon fill="#ffffff" stroke="transparent" points="51.5,-293.2 51.5,-312.2 78.5,-312.2 78.5,-293.2 51.5,-293.2"/>
<polygon fill="none" stroke="#000000" points="51.5,-293.2 51.5,-312.2 78.5,-312.2 78.5,-293.2 51.5,-293.2"/>
<text text-anchor="start" x="69.3862" y="-299.3" font-family="Helvetica,sans-Serif" font-size="11.00" fill="#000000"> &#160;</text>
<polygon fill="#ffffff" stroke="transparent" points="78.5,-293.2 78.5,-312.2 115.5,-312.2 115.5,-293.2 78.5,-293.2"/>
<polygon fill="none" stroke="#000000" points="78.5,-293.2 78.5,-312.2 115.5,-312.2 115.5,-293.2 78.5,-293.2"/>
<text text-anchor="start" x="96.9053" y="-299.3" font-family="Helvetica,sans-Serif" font-size="11.00" fill="#000000">1 &gt;</text>
</a>
</g>
</g>
<!-- alert_code&#45;&gt;alert_type -->
<g id="edge2" class="edge">
<title>alert_code:w&#45;&gt;alert_type:e</title>
<path fill="none" stroke="#000000" d="M149.9909,-321.2C138.6774,-321.2 131.4931,-321.2 115.5,-321.2"/>
<polygon fill="#000000" stroke="#000000" points="156.5,-321.2001 164.5,-324.8 160.5,-321.2 164.5,-321.2 164.5,-321.2 164.5,-321.2 160.5,-321.2 164.5,-317.6 156.5,-321.2001 156.5,-321.2001"/>
<ellipse fill="none" stroke="#000000" cx="153.3" cy="-321.2001" rx="3.2" ry="3.2"/>
</g>
<!-- alert_code_privileged_user -->
<g id="node4" class="node">
<title>alert_code_privileged_user</title>
<g id="a_node4"><a xlink:href="../../tables/alert_code_privileged_user.html" xlink:title="alert_code_privileged_user" target="_top">
<polygon fill="#ffffff" stroke="transparent" points="376.5,-369.7 376.5,-430.7 594.5,-430.7 594.5,-369.7 376.5,-369.7"/>
<polygon fill="#f5f5f5" stroke="transparent" points="376.5,-407.2 376.5,-430.2 594.5,-430.2 594.5,-407.2 376.5,-407.2"/>
<polygon fill="none" stroke="#000000" points="376.5,-407.2 376.5,-430.2 594.5,-430.2 594.5,-407.2 376.5,-407.2"/>
<text text-anchor="start" x="381.5" y="-415.8" font-family="Helvetica,sans-Serif" font-weight="bold" font-size="11.00" fill="#000000">alert_code_privileged_user</text>
<text text-anchor="start" x="560.0219" y="-415.3" font-family="Helvetica,sans-Serif" font-size="11.00" fill="#000000">[table]</text>
<polygon fill="none" stroke="#000000" points="376.5,-388.2 376.5,-407.2 594.5,-407.2 594.5,-388.2 376.5,-388.2"/>
<text text-anchor="start" x="379.5" y="-394.3" font-family="Helvetica,sans-Serif" font-size="11.00" fill="#000000">...</text>
<polygon fill="#ffffff" stroke="transparent" points="376.5,-369.2 376.5,-388.2 483.5,-388.2 483.5,-369.2 376.5,-369.2"/>
<polygon fill="none" stroke="#000000" points="376.5,-369.2 376.5,-388.2 483.5,-388.2 483.5,-369.2 376.5,-369.2"/>
<text text-anchor="start" x="379.5" y="-375.3" font-family="Helvetica,sans-Serif" font-size="11.00" fill="#000000">&lt; 1</text>
<polygon fill="#ffffff" stroke="transparent" points="483.5,-369.2 483.5,-388.2 538.5,-388.2 538.5,-369.2 483.5,-369.2"/>
<polygon fill="none" stroke="#000000" points="483.5,-369.2 483.5,-388.2 538.5,-388.2 538.5,-369.2 483.5,-369.2"/>
<text text-anchor="start" x="529.3862" y="-375.3" font-family="Helvetica,sans-Serif" font-size="11.00" fill="#000000"> &#160;</text>
<polygon fill="#ffffff" stroke="transparent" points="538.5,-369.2 538.5,-388.2 594.5,-388.2 594.5,-369.2 538.5,-369.2"/>
<polygon fill="none" stroke="#000000" points="538.5,-369.2 538.5,-388.2 594.5,-388.2 594.5,-369.2 538.5,-369.2"/>
<text text-anchor="start" x="585.3862" y="-375.3" font-family="Helvetica,sans-Serif" font-size="11.00" fill="#000000"> &#160;</text>
</a>
</g>
</g>
<!-- alert_code_privileged_user&#45;&gt;alert_code -->
<g id="edge3" class="edge">
<title>alert_code_privileged_user:w&#45;&gt;alert_code:e</title>
<path fill="none" stroke="#000000" d="M362.1257,-395.1491C330.3773,-385.2853 328.3451,-343.2 287.5,-343.2"/>
<polygon fill="#000000" stroke="#000000" points="368.5802,-396.07 375.9915,-400.7639 372.5401,-396.635 376.5,-397.2 376.5,-397.2 376.5,-397.2 372.5401,-396.635 377.0085,-393.6361 368.5802,-396.07 368.5802,-396.07"/>
<ellipse fill="none" stroke="#000000" cx="365.4123" cy="-395.6179" rx="3.2" ry="3.2"/>
</g>
<!-- audit_event -->
<g id="node5" class="node">
<title>audit_event</title>
<g id="a_node5"><a xlink:href="../../tables/audit_event.html" xlink:title="audit_event" target="_top">
<polygon fill="#ffffff" stroke="transparent" points="684,-241.7 684,-412.7 883,-412.7 883,-241.7 684,-241.7"/>
<polygon fill="#f5f5f5" stroke="transparent" points="684.5,-389.2 684.5,-412.2 883.5,-412.2 883.5,-389.2 684.5,-389.2"/>
<polygon fill="none" stroke="#000000" points="684.5,-389.2 684.5,-412.2 883.5,-412.2 883.5,-389.2 684.5,-389.2"/>
<text text-anchor="start" x="689.5" y="-397.8" font-family="Helvetica,sans-Serif" font-weight="bold" font-size="11.00" fill="#000000">audit_event</text>
<text text-anchor="start" x="848.5437" y="-397.3" font-family="Helvetica,sans-Serif" font-size="11.00" fill="#000000">[table]</text>
<polygon fill="#ffffff" stroke="transparent" points="684.5,-367.2 684.5,-389.2 883.5,-389.2 883.5,-367.2 684.5,-367.2"/>
<polygon fill="none" stroke="#000000" points="684.5,-367.2 684.5,-389.2 883.5,-389.2 883.5,-367.2 684.5,-367.2"/>
<text text-anchor="start" x="704.5" y="-374.3" font-family="Helvetica,sans-Serif" font-size="11.00" fill="#000000">action</text>
<polygon fill="#ffffff" stroke="transparent" points="684.5,-345.2 684.5,-367.2 883.5,-367.2 883.5,-345.2 684.5,-345.2"/>
<polygon fill="none" stroke="#000000" points="684.5,-345.2 684.5,-367.2 883.5,-367.2 883.5,-345.2 684.5,-345.2"/>
<text text-anchor="start" x="704.5" y="-352.3" font-family="Helvetica,sans-Serif" font-size="11.00" fill="#000000">actioned_at</text>
<polygon fill="#ffffff" stroke="transparent" points="684.5,-323.2 684.5,-345.2 883.5,-345.2 883.5,-323.2 684.5,-323.2"/>
<polygon fill="none" stroke="#000000" points="684.5,-323.2 684.5,-345.2 883.5,-345.2 883.5,-323.2 684.5,-323.2"/>
<text text-anchor="start" x="704.5" y="-330.3" font-family="Helvetica,sans-Serif" font-size="11.00" fill="#000000">actioned_by</text>
<polygon fill="#ffffff" stroke="transparent" points="684.5,-301.2 684.5,-323.2 883.5,-323.2 883.5,-301.2 684.5,-301.2"/>
<polygon fill="none" stroke="#000000" points="684.5,-301.2 684.5,-323.2 883.5,-323.2 883.5,-301.2 684.5,-301.2"/>
<image xlink:href="../../images/foreignKeys.png" width="11px" height="12px" preserveAspectRatio="xMinYMin meet" x="689.5" y="-318.2"/>
<text text-anchor="start" x="704.5" y="-308.3" font-family="Helvetica,sans-Serif" font-size="11.00" fill="#000000">alert_id</text>
<polygon fill="none" stroke="#000000" points="684.5,-279.2 684.5,-301.2 883.5,-301.2 883.5,-279.2 684.5,-279.2"/>
<image xlink:href="../../images/primaryKeys.png" width="11px" height="12px" preserveAspectRatio="xMinYMin meet" x="689.5" y="-296.2"/>
<text text-anchor="start" x="704.5" y="-286.3" font-family="Helvetica,sans-Serif" font-size="11.00" fill="#000000">id</text>
<polygon fill="none" stroke="#000000" points="684.5,-260.2 684.5,-279.2 883.5,-279.2 883.5,-260.2 684.5,-260.2"/>
<text text-anchor="start" x="687.5" y="-266.3" font-family="Helvetica,sans-Serif" font-size="11.00" fill="#000000">...</text>
<polygon fill="#ffffff" stroke="transparent" points="684.5,-241.2 684.5,-260.2 782.5,-260.2 782.5,-241.2 684.5,-241.2"/>
<polygon fill="none" stroke="#000000" points="684.5,-241.2 684.5,-260.2 782.5,-260.2 782.5,-241.2 684.5,-241.2"/>
<text text-anchor="start" x="687.5" y="-247.3" font-family="Helvetica,sans-Serif" font-size="11.00" fill="#000000">&lt; 1</text>
<polygon fill="#ffffff" stroke="transparent" points="782.5,-241.2 782.5,-260.2 832.5,-260.2 832.5,-241.2 782.5,-241.2"/>
<polygon fill="none" stroke="#000000" points="782.5,-241.2 782.5,-260.2 832.5,-260.2 832.5,-241.2 782.5,-241.2"/>
<text text-anchor="start" x="823.3862" y="-247.3" font-family="Helvetica,sans-Serif" font-size="11.00" fill="#000000"> &#160;</text>
<polygon fill="#ffffff" stroke="transparent" points="832.5,-241.2 832.5,-260.2 883.5,-260.2 883.5,-241.2 832.5,-241.2"/>
<polygon fill="none" stroke="#000000" points="832.5,-241.2 832.5,-260.2 883.5,-260.2 883.5,-241.2 832.5,-241.2"/>
<text text-anchor="start" x="874.3862" y="-247.3" font-family="Helvetica,sans-Serif" font-size="11.00" fill="#000000"> &#160;</text>
</a>
</g>
</g>
<!-- audit_event&#45;&gt;alert -->
<g id="edge4" class="edge">
<title>audit_event:w&#45;&gt;alert:e</title>
<path fill="none" stroke="#000000" d="M669.776,-312.2C657.7815,-312.2 650.3229,-312.2 633.5,-312.2"/>
<polygon fill="#000000" stroke="#000000" points="676.5,-312.2001 684.5,-315.8 680.5,-312.2 684.5,-312.2 684.5,-312.2 684.5,-312.2 680.5,-312.2 684.5,-308.6 676.5,-312.2001 676.5,-312.2001"/>
<ellipse fill="none" stroke="#000000" cx="673.3" cy="-312.2001" rx="3.2" ry="3.2"/>
</g>
</g>
</svg>
