<?xml version="1.0" encoding="UTF-8" standalone="no"?>
<!DOCTYPE svg PUBLIC "-//W3C//DTD SVG 1.1//EN"
 "http://www.w3.org/Graphics/SVG/1.1/DTD/svg11.dtd">
<!-- Generated by graphviz version 2.40.1 (20161225.0304)
 -->
<!-- Title: oneDegreeRelationshipsDiagram Pages: 1 -->
<svg width="407pt" height="337pt"
 viewBox="0.00 0.00 407.00 336.70" xmlns="http://www.w3.org/2000/svg" xmlns:xlink="http://www.w3.org/1999/xlink">
<g id="graph0" class="graph" transform="scale(1 1) rotate(0) translate(4 332.7)">
<title>oneDegreeRelationshipsDiagram</title>
<polygon fill="#ffffff" stroke="transparent" points="-4,4 -4,-332.7 403,-332.7 403,4 -4,4"/>
<text text-anchor="middle" x="72.4936" y="-7.3" font-family="Helvetica,sans-Serif" font-size="11.00" fill="#000000">Generated by SchemaSpy</text>
<!-- alert_code -->
<g id="node1" class="node">
<title>alert_code</title>
<g id="a_node1"><a xlink:href="../../tables/alert_code.html" xlink:title="alert_code" target="_top">
<polygon fill="#ffffff" stroke="transparent" points="268,-131.7 268,-324.7 391,-324.7 391,-131.7 268,-131.7"/>
<polygon fill="#f5f5f5" stroke="transparent" points="268.5,-301.2 268.5,-324.2 391.5,-324.2 391.5,-301.2 268.5,-301.2"/>
<polygon fill="none" stroke="#000000" points="268.5,-301.2 268.5,-324.2 391.5,-324.2 391.5,-301.2 268.5,-301.2"/>
<text text-anchor="start" x="273.5" y="-309.8" font-family="Helvetica,sans-Serif" font-weight="bold" font-size="11.00" fill="#000000">alert_code</text>
<text text-anchor="start" x="356.5437" y="-309.3" font-family="Helvetica,sans-Serif" font-size="11.00" fill="#000000">[table]</text>
<polygon fill="none" stroke="#000000" points="268.5,-279.2 268.5,-301.2 391.5,-301.2 391.5,-279.2 268.5,-279.2"/>
<image xlink:href="../../images/primaryKeys.png" width="11px" height="12px" preserveAspectRatio="xMinYMin meet" x="273.5" y="-296.2"/>
<text text-anchor="start" x="288.5" y="-286.3" font-family="Helvetica,sans-Serif" font-size="11.00" fill="#000000">alert_code_id</text>
<polygon fill="#ffffff" stroke="transparent" points="268.5,-257.2 268.5,-279.2 391.5,-279.2 391.5,-257.2 268.5,-257.2"/>
<polygon fill="none" stroke="#000000" points="268.5,-257.2 268.5,-279.2 391.5,-279.2 391.5,-257.2 268.5,-257.2"/>
<image xlink:href="../../images/foreignKeys.png" width="11px" height="12px" preserveAspectRatio="xMinYMin meet" x="273.5" y="-274.2"/>
<text text-anchor="start" x="288.5" y="-264.3" font-family="Helvetica,sans-Serif" font-size="11.00" fill="#000000">alert_type_id</text>
<polygon fill="#ffffff" stroke="transparent" points="268.5,-235.2 268.5,-257.2 391.5,-257.2 391.5,-235.2 268.5,-235.2"/>
<polygon fill="none" stroke="#000000" points="268.5,-235.2 268.5,-257.2 391.5,-257.2 391.5,-235.2 268.5,-235.2"/>
<text text-anchor="start" x="288.5" y="-242.3" font-family="Helvetica,sans-Serif" font-size="11.00" fill="#000000">code</text>
<polygon fill="#ffffff" stroke="transparent" points="268.5,-213.2 268.5,-235.2 391.5,-235.2 391.5,-213.2 268.5,-213.2"/>
<polygon fill="none" stroke="#000000" points="268.5,-213.2 268.5,-235.2 391.5,-235.2 391.5,-213.2 268.5,-213.2"/>
<text text-anchor="start" x="288.5" y="-220.3" font-family="Helvetica,sans-Serif" font-size="11.00" fill="#000000">list_sequence</text>
<polygon fill="#ffffff" stroke="transparent" points="268.5,-191.2 268.5,-213.2 391.5,-213.2 391.5,-191.2 268.5,-191.2"/>
<polygon fill="none" stroke="#000000" points="268.5,-191.2 268.5,-213.2 391.5,-213.2 391.5,-191.2 268.5,-191.2"/>
<text text-anchor="start" x="288.5" y="-198.3" font-family="Helvetica,sans-Serif" font-size="11.00" fill="#000000">created_at</text>
<polygon fill="#ffffff" stroke="transparent" points="268.5,-169.2 268.5,-191.2 391.5,-191.2 391.5,-169.2 268.5,-169.2"/>
<polygon fill="none" stroke="#000000" points="268.5,-169.2 268.5,-191.2 391.5,-191.2 391.5,-169.2 268.5,-169.2"/>
<text text-anchor="start" x="288.5" y="-176.3" font-family="Helvetica,sans-Serif" font-size="11.00" fill="#000000">deactivated_at</text>
<polygon fill="none" stroke="#000000" points="268.5,-150.2 268.5,-169.2 391.5,-169.2 391.5,-150.2 268.5,-150.2"/>
<text text-anchor="start" x="271.5" y="-156.3" font-family="Helvetica,sans-Serif" font-size="11.00" fill="#000000">...</text>
<polygon fill="#ffffff" stroke="transparent" points="268.5,-131.2 268.5,-150.2 323.5,-150.2 323.5,-131.2 268.5,-131.2"/>
<polygon fill="none" stroke="#000000" points="268.5,-131.2 268.5,-150.2 323.5,-150.2 323.5,-131.2 268.5,-131.2"/>
<text text-anchor="start" x="271.5" y="-137.3" font-family="Helvetica,sans-Serif" font-size="11.00" fill="#000000">&lt; 1</text>
<polygon fill="#ffffff" stroke="transparent" points="323.5,-131.2 323.5,-150.2 352.5,-150.2 352.5,-131.2 323.5,-131.2"/>
<polygon fill="none" stroke="#000000" points="323.5,-131.2 323.5,-150.2 352.5,-150.2 352.5,-131.2 323.5,-131.2"/>
<text text-anchor="start" x="343.3862" y="-137.3" font-family="Helvetica,sans-Serif" font-size="11.00" fill="#000000"> &#160;</text>
<polygon fill="#ffffff" stroke="transparent" points="352.5,-131.2 352.5,-150.2 391.5,-150.2 391.5,-131.2 352.5,-131.2"/>
<polygon fill="none" stroke="#000000" points="352.5,-131.2 352.5,-150.2 391.5,-150.2 391.5,-131.2 352.5,-131.2"/>
<text text-anchor="start" x="372.9053" y="-137.3" font-family="Helvetica,sans-Serif" font-size="11.00" fill="#000000">1 &gt;</text>
</a>
</g>
</g>
<!-- alert_type -->
<g id="node2" class="node">
<title>alert_type</title>
<g id="a_node2"><a xlink:href="../../tables/alert_type.html" xlink:title="alert_type" target="_top">
<polygon fill="#ffffff" stroke="transparent" points="8,-38.2 8,-304.2 219,-304.2 219,-38.2 8,-38.2"/>
<polygon fill="#f5f5f5" stroke="transparent" points="10.5,-279.2 10.5,-302.2 217.5,-302.2 217.5,-279.2 10.5,-279.2"/>
<polygon fill="none" stroke="#000000" points="10.5,-279.2 10.5,-302.2 217.5,-302.2 217.5,-279.2 10.5,-279.2"/>
<text text-anchor="start" x="15.5" y="-287.8" font-family="Helvetica,sans-Serif" font-weight="bold" font-size="11.00" fill="#000000">alert_type</text>
<text text-anchor="start" x="182.5437" y="-287.3" font-family="Helvetica,sans-Serif" font-size="11.00" fill="#000000">[table]</text>
<polygon fill="none" stroke="#000000" points="10.5,-257.2 10.5,-279.2 133.5,-279.2 133.5,-257.2 10.5,-257.2"/>
<image xlink:href="../../images/primaryKeys.png" width="11px" height="12px" preserveAspectRatio="xMinYMin meet" x="15.5" y="-274.2"/>
<text text-anchor="start" x="30.5" y="-264.3" font-family="Helvetica,sans-Serif" font-size="11.00" fill="#000000">alert_type_id</text>
<polygon fill="none" stroke="#000000" points="133.5,-257.2 133.5,-279.2 217.5,-279.2 217.5,-257.2 133.5,-257.2"/>
<text text-anchor="start" x="136.5" y="-264.9" font-family="Helvetica,sans-Serif" font-size="11.00" fill="#000000">bigserial[19]</text>
<polygon fill="#ffffff" stroke="transparent" points="10.5,-235.2 10.5,-257.2 133.5,-257.2 133.5,-235.2 10.5,-235.2"/>
<polygon fill="none" stroke="#000000" points="10.5,-235.2 10.5,-257.2 133.5,-257.2 133.5,-235.2 10.5,-235.2"/>
<text text-anchor="start" x="30.5" y="-242.3" font-family="Helvetica,sans-Serif" font-size="11.00" fill="#000000">code</text>
<polygon fill="none" stroke="#000000" points="133.5,-235.2 133.5,-257.2 217.5,-257.2 217.5,-235.2 133.5,-235.2"/>
<text text-anchor="start" x="136.5" y="-242.9" font-family="Helvetica,sans-Serif" font-size="11.00" fill="#000000">varchar[12]</text>
<polygon fill="none" stroke="#000000" points="10.5,-213.2 10.5,-235.2 133.5,-235.2 133.5,-213.2 10.5,-213.2"/>
<text text-anchor="start" x="30.5" y="-220.3" font-family="Helvetica,sans-Serif" font-size="11.00" fill="#000000">description</text>
<polygon fill="none" stroke="#000000" points="133.5,-213.2 133.5,-235.2 217.5,-235.2 217.5,-213.2 133.5,-213.2"/>
<text text-anchor="start" x="136.5" y="-220.9" font-family="Helvetica,sans-Serif" font-size="11.00" fill="#000000">varchar[40]</text>
<polygon fill="#ffffff" stroke="transparent" points="10.5,-191.2 10.5,-213.2 133.5,-213.2 133.5,-191.2 10.5,-191.2"/>
<polygon fill="none" stroke="#000000" points="10.5,-191.2 10.5,-213.2 133.5,-213.2 133.5,-191.2 10.5,-191.2"/>
<text text-anchor="start" x="30.5" y="-198.3" font-family="Helvetica,sans-Serif" font-size="11.00" fill="#000000">list_sequence</text>
<polygon fill="none" stroke="#000000" points="133.5,-191.2 133.5,-213.2 217.5,-213.2 217.5,-191.2 133.5,-191.2"/>
<text text-anchor="start" x="136.5" y="-198.9" font-family="Helvetica,sans-Serif" font-size="11.00" fill="#000000">int4[10]</text>
<polygon fill="#ffffff" stroke="transparent" points="10.5,-169.2 10.5,-191.2 133.5,-191.2 133.5,-169.2 10.5,-169.2"/>
<polygon fill="none" stroke="#000000" points="10.5,-169.2 10.5,-191.2 133.5,-191.2 133.5,-169.2 10.5,-169.2"/>
<text text-anchor="start" x="30.5" y="-176.3" font-family="Helvetica,sans-Serif" font-size="11.00" fill="#000000">created_at</text>
<polygon fill="none" stroke="#000000" points="133.5,-169.2 133.5,-191.2 217.5,-191.2 217.5,-169.2 133.5,-169.2"/>
<text text-anchor="start" x="136.3807" y="-176.9" font-family="Helvetica,sans-Serif" font-size="11.00" fill="#000000">timestamp[29,6]</text>
<polygon fill="none" stroke="#000000" points="10.5,-147.2 10.5,-169.2 133.5,-169.2 133.5,-147.2 10.5,-147.2"/>
<text text-anchor="start" x="30.5" y="-154.3" font-family="Helvetica,sans-Serif" font-size="11.00" fill="#000000">created_by</text>
<polygon fill="none" stroke="#000000" points="133.5,-147.2 133.5,-169.2 217.5,-169.2 217.5,-147.2 133.5,-147.2"/>
<text text-anchor="start" x="136.5" y="-154.9" font-family="Helvetica,sans-Serif" font-size="11.00" fill="#000000">varchar[64]</text>
<polygon fill="none" stroke="#000000" points="10.5,-125.2 10.5,-147.2 133.5,-147.2 133.5,-125.2 10.5,-125.2"/>
<text text-anchor="start" x="30.5" y="-132.3" font-family="Helvetica,sans-Serif" font-size="11.00" fill="#000000">modified_at</text>
<polygon fill="none" stroke="#000000" points="133.5,-125.2 133.5,-147.2 217.5,-147.2 217.5,-125.2 133.5,-125.2"/>
<text text-anchor="start" x="136.3807" y="-132.9" font-family="Helvetica,sans-Serif" font-size="11.00" fill="#000000">timestamp[29,6]</text>
<polygon fill="none" stroke="#000000" points="10.5,-103.2 10.5,-125.2 133.5,-125.2 133.5,-103.2 10.5,-103.2"/>
<text text-anchor="start" x="30.5" y="-110.3" font-family="Helvetica,sans-Serif" font-size="11.00" fill="#000000">modified_by</text>
<polygon fill="none" stroke="#000000" points="133.5,-103.2 133.5,-125.2 217.5,-125.2 217.5,-103.2 133.5,-103.2"/>
<text text-anchor="start" x="136.5" y="-110.9" font-family="Helvetica,sans-Serif" font-size="11.00" fill="#000000">varchar[64]</text>
<polygon fill="#ffffff" stroke="transparent" points="10.5,-81.2 10.5,-103.2 133.5,-103.2 133.5,-81.2 10.5,-81.2"/>
<polygon fill="none" stroke="#000000" points="10.5,-81.2 10.5,-103.2 133.5,-103.2 133.5,-81.2 10.5,-81.2"/>
<text text-anchor="start" x="30.5" y="-88.3" font-family="Helvetica,sans-Serif" font-size="11.00" fill="#000000">deactivated_at</text>
<polygon fill="none" stroke="#000000" points="133.5,-81.2 133.5,-103.2 217.5,-103.2 217.5,-81.2 133.5,-81.2"/>
<text text-anchor="start" x="136.3807" y="-88.9" font-family="Helvetica,sans-Serif" font-size="11.00" fill="#000000">timestamp[29,6]</text>
<polygon fill="none" stroke="#000000" points="10.5,-59.2 10.5,-81.2 133.5,-81.2 133.5,-59.2 10.5,-59.2"/>
<text text-anchor="start" x="30.5" y="-66.3" font-family="Helvetica,sans-Serif" font-size="11.00" fill="#000000">deactivated_by</text>
<polygon fill="none" stroke="#000000" points="133.5,-59.2 133.5,-81.2 217.5,-81.2 217.5,-59.2 133.5,-59.2"/>
<text text-anchor="start" x="136.5" y="-66.9" font-family="Helvetica,sans-Serif" font-size="11.00" fill="#000000">varchar[64]</text>
<polygon fill="#ffffff" stroke="transparent" points="10.5,-40.2 10.5,-59.2 76.5,-59.2 76.5,-40.2 10.5,-40.2"/>
<polygon fill="none" stroke="#000000" points="10.5,-40.2 10.5,-59.2 76.5,-59.2 76.5,-40.2 10.5,-40.2"/>
<text text-anchor="start" x="13.5" y="-46.3" font-family="Helvetica,sans-Serif" font-size="11.00" fill="#000000">&lt; 0</text>
<polygon fill="#ffffff" stroke="transparent" points="76.5,-40.2 76.5,-59.2 133.5,-59.2 133.5,-40.2 76.5,-40.2"/>
<polygon fill="none" stroke="#000000" points="76.5,-40.2 76.5,-59.2 133.5,-59.2 133.5,-40.2 76.5,-40.2"/>
<text text-anchor="start" x="124.3862" y="-46.3" font-family="Helvetica,sans-Serif" font-size="11.00" fill="#000000"> &#160;</text>
<polygon fill="#ffffff" stroke="transparent" points="133.5,-40.2 133.5,-59.2 217.5,-59.2 217.5,-40.2 133.5,-40.2"/>
<polygon fill="none" stroke="#000000" points="133.5,-40.2 133.5,-59.2 217.5,-59.2 217.5,-40.2 133.5,-40.2"/>
<text text-anchor="start" x="198.9053" y="-46.3" font-family="Helvetica,sans-Serif" font-size="11.00" fill="#000000">1 &gt;</text>
<polygon fill="none" stroke="#000000" stroke-width="2" points="9,-39.2 9,-303.2 218,-303.2 218,-39.2 9,-39.2"/>
</a>
</g>
</g>
<!-- alert_code&#45;&gt;alert_type -->
<g id="edge1" class="edge">
<title>alert_code:w&#45;&gt;alert_type:e</title>
<path fill="none" stroke="#000000" d="M253.776,-268.2C241.7815,-268.2 234.3229,-268.2 217.5,-268.2"/>
<polygon fill="#000000" stroke="#000000" points="260.5,-268.2001 268.5,-271.8 264.5,-268.2 268.5,-268.2 268.5,-268.2 268.5,-268.2 264.5,-268.2 268.5,-264.6 260.5,-268.2001 260.5,-268.2001"/>
<ellipse fill="none" stroke="#000000" cx="257.3" cy="-268.2001" rx="3.2" ry="3.2"/>
</g>
</g>
</svg>
