<?xml version="1.0" encoding="UTF-8" standalone="no"?>
<!DOCTYPE svg PUBLIC "-//W3C//DTD SVG 1.1//EN"
 "http://www.w3.org/Graphics/SVG/1.1/DTD/svg11.dtd">
<!-- Generated by graphviz version 2.40.1 (20161225.0304)
 -->
<!-- Title: twoDegreesRelationshipsDiagramImplied Pages: 1 -->
<svg width="824pt" height="421pt"
 viewBox="0.00 0.00 824.00 420.70" xmlns="http://www.w3.org/2000/svg" xmlns:xlink="http://www.w3.org/1999/xlink">
<g id="graph0" class="graph" transform="scale(1 1) rotate(0) translate(4 416.7)">
<title>twoDegreesRelationshipsDiagramImplied</title>
<polygon fill="#ffffff" stroke="transparent" points="-4,4 -4,-416.7 820,-416.7 820,4 -4,4"/>
<text text-anchor="middle" x="72.4936" y="-7.3" font-family="Helvetica,sans-Serif" font-size="11.00" fill="#000000">Generated by SchemaSpy</text>
<!-- alert -->
<g id="node1" class="node">
<title>alert</title>
<g id="a_node1"><a xlink:href="../../tables/alert.html" xlink:title="alert" target="_top">
<polygon fill="#ffffff" stroke="transparent" points="440,-49.2 440,-286.2 641,-286.2 641,-49.2 440,-49.2"/>
<polygon fill="#f5f5f5" stroke="transparent" points="440.5,-262.7 440.5,-285.7 641.5,-285.7 641.5,-262.7 440.5,-262.7"/>
<polygon fill="none" stroke="#000000" points="440.5,-262.7 440.5,-285.7 641.5,-285.7 641.5,-262.7 440.5,-262.7"/>
<text text-anchor="start" x="445.5" y="-271.3" font-family="Helvetica,sans-Serif" font-weight="bold" font-size="11.00" fill="#000000">alert</text>
<text text-anchor="start" x="606.5437" y="-270.8" font-family="Helvetica,sans-Serif" font-size="11.00" fill="#000000">[table]</text>
<polygon fill="none" stroke="#000000" points="440.5,-240.7 440.5,-262.7 641.5,-262.7 641.5,-240.7 440.5,-240.7"/>
<image xlink:href="../../images/primaryKeys.png" width="11px" height="12px" preserveAspectRatio="xMinYMin meet" x="445.5" y="-257.7"/>
<text text-anchor="start" x="460.5" y="-247.8" font-family="Helvetica,sans-Serif" font-size="11.00" fill="#000000">id</text>
<polygon fill="#ffffff" stroke="transparent" points="440.5,-218.7 440.5,-240.7 641.5,-240.7 641.5,-218.7 440.5,-218.7"/>
<polygon fill="none" stroke="#000000" points="440.5,-218.7 440.5,-240.7 641.5,-240.7 641.5,-218.7 440.5,-218.7"/>
<image xlink:href="../../images/foreignKeys.png" width="11px" height="12px" preserveAspectRatio="xMinYMin meet" x="445.5" y="-235.7"/>
<text text-anchor="start" x="460.5" y="-225.8" font-family="Helvetica,sans-Serif" font-size="11.00" fill="#000000">alert_code_id</text>
<polygon fill="#ffffff" stroke="transparent" points="440.5,-196.7 440.5,-218.7 641.5,-218.7 641.5,-196.7 440.5,-196.7"/>
<polygon fill="none" stroke="#000000" points="440.5,-196.7 440.5,-218.7 641.5,-218.7 641.5,-196.7 440.5,-196.7"/>
<image xlink:href="../../images/foreignKeys.png" width="11px" height="12px" preserveAspectRatio="xMinYMin meet" x="445.5" y="-213.7"/>
<text text-anchor="start" x="460.5" y="-203.8" font-family="Helvetica,sans-Serif" font-size="11.00" fill="#000000">prison_number</text>
<polygon fill="#ffffff" stroke="transparent" points="440.5,-174.7 440.5,-196.7 641.5,-196.7 641.5,-174.7 440.5,-174.7"/>
<polygon fill="none" stroke="#000000" points="440.5,-174.7 440.5,-196.7 641.5,-196.7 641.5,-174.7 440.5,-174.7"/>
<text text-anchor="start" x="460.5" y="-181.8" font-family="Helvetica,sans-Serif" font-size="11.00" fill="#000000">active_from</text>
<polygon fill="#ffffff" stroke="transparent" points="440.5,-152.7 440.5,-174.7 641.5,-174.7 641.5,-152.7 440.5,-152.7"/>
<polygon fill="none" stroke="#000000" points="440.5,-152.7 440.5,-174.7 641.5,-174.7 641.5,-152.7 440.5,-152.7"/>
<text text-anchor="start" x="460.5" y="-159.8" font-family="Helvetica,sans-Serif" font-size="11.00" fill="#000000">active_to</text>
<polygon fill="#ffffff" stroke="transparent" points="440.5,-130.7 440.5,-152.7 641.5,-152.7 641.5,-130.7 440.5,-130.7"/>
<polygon fill="none" stroke="#000000" points="440.5,-130.7 440.5,-152.7 641.5,-152.7 641.5,-130.7 440.5,-130.7"/>
<text text-anchor="start" x="460.5" y="-137.8" font-family="Helvetica,sans-Serif" font-size="11.00" fill="#000000">deleted_at</text>
<polygon fill="#ffffff" stroke="transparent" points="440.5,-108.7 440.5,-130.7 641.5,-130.7 641.5,-108.7 440.5,-108.7"/>
<polygon fill="none" stroke="#000000" points="440.5,-108.7 440.5,-130.7 641.5,-130.7 641.5,-108.7 440.5,-108.7"/>
<text text-anchor="start" x="460.5" y="-115.8" font-family="Helvetica,sans-Serif" font-size="11.00" fill="#000000">created_at</text>
<polygon fill="#ffffff" stroke="transparent" points="440.5,-86.7 440.5,-108.7 641.5,-108.7 641.5,-86.7 440.5,-86.7"/>
<polygon fill="none" stroke="#000000" points="440.5,-86.7 440.5,-108.7 641.5,-108.7 641.5,-86.7 440.5,-86.7"/>
<text text-anchor="start" x="460.5" y="-93.8" font-family="Helvetica,sans-Serif" font-size="11.00" fill="#000000">last_modified_at</text>
<polygon fill="none" stroke="#000000" points="440.5,-67.7 440.5,-86.7 641.5,-86.7 641.5,-67.7 440.5,-67.7"/>
<text text-anchor="start" x="443.5" y="-73.8" font-family="Helvetica,sans-Serif" font-size="11.00" fill="#000000">...</text>
<polygon fill="#ffffff" stroke="transparent" points="440.5,-48.7 440.5,-67.7 534.5,-67.7 534.5,-48.7 440.5,-48.7"/>
<polygon fill="none" stroke="#000000" points="440.5,-48.7 440.5,-67.7 534.5,-67.7 534.5,-48.7 440.5,-48.7"/>
<text text-anchor="start" x="443.5" y="-54.8" font-family="Helvetica,sans-Serif" font-size="11.00" fill="#000000">&lt; 2</text>
<polygon fill="#ffffff" stroke="transparent" points="534.5,-48.7 534.5,-67.7 583.5,-67.7 583.5,-48.7 534.5,-48.7"/>
<polygon fill="none" stroke="#000000" points="534.5,-48.7 534.5,-67.7 583.5,-67.7 583.5,-48.7 534.5,-48.7"/>
<text text-anchor="start" x="574.3862" y="-54.8" font-family="Helvetica,sans-Serif" font-size="11.00" fill="#000000"> &#160;</text>
<polygon fill="#ffffff" stroke="transparent" points="583.5,-48.7 583.5,-67.7 641.5,-67.7 641.5,-48.7 583.5,-48.7"/>
<polygon fill="none" stroke="#000000" points="583.5,-48.7 583.5,-67.7 641.5,-67.7 641.5,-48.7 583.5,-48.7"/>
<text text-anchor="start" x="622.9053" y="-54.8" font-family="Helvetica,sans-Serif" font-size="11.00" fill="#000000">1 &gt;</text>
</a>
</g>
</g>
<!-- alert_code -->
<g id="node2" class="node">
<title>alert_code</title>
<g id="a_node2"><a xlink:href="../../tables/alert_code.html" xlink:title="alert_code" target="_top">
<polygon fill="#ffffff" stroke="transparent" points="180,-120.7 180,-408.7 391,-408.7 391,-120.7 180,-120.7"/>
<polygon fill="#f5f5f5" stroke="transparent" points="182.5,-383.7 182.5,-406.7 389.5,-406.7 389.5,-383.7 182.5,-383.7"/>
<polygon fill="none" stroke="#000000" points="182.5,-383.7 182.5,-406.7 389.5,-406.7 389.5,-383.7 182.5,-383.7"/>
<text text-anchor="start" x="187.5" y="-392.3" font-family="Helvetica,sans-Serif" font-weight="bold" font-size="11.00" fill="#000000">alert_code</text>
<text text-anchor="start" x="354.5437" y="-391.8" font-family="Helvetica,sans-Serif" font-size="11.00" fill="#000000">[table]</text>
<polygon fill="none" stroke="#000000" points="182.5,-361.7 182.5,-383.7 305.5,-383.7 305.5,-361.7 182.5,-361.7"/>
<image xlink:href="../../images/primaryKeys.png" width="11px" height="12px" preserveAspectRatio="xMinYMin meet" x="187.5" y="-378.7"/>
<text text-anchor="start" x="202.5" y="-368.8" font-family="Helvetica,sans-Serif" font-size="11.00" fill="#000000">alert_code_id</text>
<polygon fill="none" stroke="#000000" points="305.5,-361.7 305.5,-383.7 389.5,-383.7 389.5,-361.7 305.5,-361.7"/>
<text text-anchor="start" x="308.5" y="-369.4" font-family="Helvetica,sans-Serif" font-size="11.00" fill="#000000">bigserial[19]</text>
<polygon fill="#ffffff" stroke="transparent" points="182.5,-339.7 182.5,-361.7 305.5,-361.7 305.5,-339.7 182.5,-339.7"/>
<polygon fill="none" stroke="#000000" points="182.5,-339.7 182.5,-361.7 305.5,-361.7 305.5,-339.7 182.5,-339.7"/>
<image xlink:href="../../images/foreignKeys.png" width="11px" height="12px" preserveAspectRatio="xMinYMin meet" x="187.5" y="-356.7"/>
<text text-anchor="start" x="202.5" y="-346.8" font-family="Helvetica,sans-Serif" font-size="11.00" fill="#000000">alert_type_id</text>
<polygon fill="none" stroke="#000000" points="305.5,-339.7 305.5,-361.7 389.5,-361.7 389.5,-339.7 305.5,-339.7"/>
<text text-anchor="start" x="308.5" y="-347.4" font-family="Helvetica,sans-Serif" font-size="11.00" fill="#000000">int8[19]</text>
<polygon fill="#ffffff" stroke="transparent" points="182.5,-317.7 182.5,-339.7 305.5,-339.7 305.5,-317.7 182.5,-317.7"/>
<polygon fill="none" stroke="#000000" points="182.5,-317.7 182.5,-339.7 305.5,-339.7 305.5,-317.7 182.5,-317.7"/>
<text text-anchor="start" x="202.5" y="-324.8" font-family="Helvetica,sans-Serif" font-size="11.00" fill="#000000">code</text>
<polygon fill="none" stroke="#000000" points="305.5,-317.7 305.5,-339.7 389.5,-339.7 389.5,-317.7 305.5,-317.7"/>
<text text-anchor="start" x="308.5" y="-325.4" font-family="Helvetica,sans-Serif" font-size="11.00" fill="#000000">varchar[12]</text>
<polygon fill="none" stroke="#000000" points="182.5,-295.7 182.5,-317.7 305.5,-317.7 305.5,-295.7 182.5,-295.7"/>
<text text-anchor="start" x="202.5" y="-302.8" font-family="Helvetica,sans-Serif" font-size="11.00" fill="#000000">description</text>
<polygon fill="none" stroke="#000000" points="305.5,-295.7 305.5,-317.7 389.5,-317.7 389.5,-295.7 305.5,-295.7"/>
<text text-anchor="start" x="308.5" y="-303.4" font-family="Helvetica,sans-Serif" font-size="11.00" fill="#000000">varchar[40]</text>
<polygon fill="#ffffff" stroke="transparent" points="182.5,-273.7 182.5,-295.7 305.5,-295.7 305.5,-273.7 182.5,-273.7"/>
<polygon fill="none" stroke="#000000" points="182.5,-273.7 182.5,-295.7 305.5,-295.7 305.5,-273.7 182.5,-273.7"/>
<text text-anchor="start" x="202.5" y="-280.8" font-family="Helvetica,sans-Serif" font-size="11.00" fill="#000000">list_sequence</text>
<polygon fill="none" stroke="#000000" points="305.5,-273.7 305.5,-295.7 389.5,-295.7 389.5,-273.7 305.5,-273.7"/>
<text text-anchor="start" x="308.5" y="-281.4" font-family="Helvetica,sans-Serif" font-size="11.00" fill="#000000">int4[10]</text>
<polygon fill="#ffffff" stroke="transparent" points="182.5,-251.7 182.5,-273.7 305.5,-273.7 305.5,-251.7 182.5,-251.7"/>
<polygon fill="none" stroke="#000000" points="182.5,-251.7 182.5,-273.7 305.5,-273.7 305.5,-251.7 182.5,-251.7"/>
<text text-anchor="start" x="202.5" y="-258.8" font-family="Helvetica,sans-Serif" font-size="11.00" fill="#000000">created_at</text>
<polygon fill="none" stroke="#000000" points="305.5,-251.7 305.5,-273.7 389.5,-273.7 389.5,-251.7 305.5,-251.7"/>
<text text-anchor="start" x="308.3807" y="-259.4" font-family="Helvetica,sans-Serif" font-size="11.00" fill="#000000">timestamp[29,6]</text>
<polygon fill="none" stroke="#000000" points="182.5,-229.7 182.5,-251.7 305.5,-251.7 305.5,-229.7 182.5,-229.7"/>
<text text-anchor="start" x="202.5" y="-236.8" font-family="Helvetica,sans-Serif" font-size="11.00" fill="#000000">created_by</text>
<polygon fill="none" stroke="#000000" points="305.5,-229.7 305.5,-251.7 389.5,-251.7 389.5,-229.7 305.5,-229.7"/>
<text text-anchor="start" x="308.5" y="-237.4" font-family="Helvetica,sans-Serif" font-size="11.00" fill="#000000">varchar[64]</text>
<polygon fill="none" stroke="#000000" points="182.5,-207.7 182.5,-229.7 305.5,-229.7 305.5,-207.7 182.5,-207.7"/>
<text text-anchor="start" x="202.5" y="-214.8" font-family="Helvetica,sans-Serif" font-size="11.00" fill="#000000">modified_at</text>
<polygon fill="none" stroke="#000000" points="305.5,-207.7 305.5,-229.7 389.5,-229.7 389.5,-207.7 305.5,-207.7"/>
<text text-anchor="start" x="308.3807" y="-215.4" font-family="Helvetica,sans-Serif" font-size="11.00" fill="#000000">timestamp[29,6]</text>
<polygon fill="none" stroke="#000000" points="182.5,-185.7 182.5,-207.7 305.5,-207.7 305.5,-185.7 182.5,-185.7"/>
<text text-anchor="start" x="202.5" y="-192.8" font-family="Helvetica,sans-Serif" font-size="11.00" fill="#000000">modified_by</text>
<polygon fill="none" stroke="#000000" points="305.5,-185.7 305.5,-207.7 389.5,-207.7 389.5,-185.7 305.5,-185.7"/>
<text text-anchor="start" x="308.5" y="-193.4" font-family="Helvetica,sans-Serif" font-size="11.00" fill="#000000">varchar[64]</text>
<polygon fill="#ffffff" stroke="transparent" points="182.5,-163.7 182.5,-185.7 305.5,-185.7 305.5,-163.7 182.5,-163.7"/>
<polygon fill="none" stroke="#000000" points="182.5,-163.7 182.5,-185.7 305.5,-185.7 305.5,-163.7 182.5,-163.7"/>
<text text-anchor="start" x="202.5" y="-170.8" font-family="Helvetica,sans-Serif" font-size="11.00" fill="#000000">deactivated_at</text>
<polygon fill="none" stroke="#000000" points="305.5,-163.7 305.5,-185.7 389.5,-185.7 389.5,-163.7 305.5,-163.7"/>
<text text-anchor="start" x="308.3807" y="-171.4" font-family="Helvetica,sans-Serif" font-size="11.00" fill="#000000">timestamp[29,6]</text>
<polygon fill="none" stroke="#000000" points="182.5,-141.7 182.5,-163.7 305.5,-163.7 305.5,-141.7 182.5,-141.7"/>
<text text-anchor="start" x="202.5" y="-148.8" font-family="Helvetica,sans-Serif" font-size="11.00" fill="#000000">deactivated_by</text>
<polygon fill="none" stroke="#000000" points="305.5,-141.7 305.5,-163.7 389.5,-163.7 389.5,-141.7 305.5,-141.7"/>
<text text-anchor="start" x="308.5" y="-149.4" font-family="Helvetica,sans-Serif" font-size="11.00" fill="#000000">varchar[64]</text>
<polygon fill="#ffffff" stroke="transparent" points="182.5,-122.7 182.5,-141.7 248.5,-141.7 248.5,-122.7 182.5,-122.7"/>
<polygon fill="none" stroke="#000000" points="182.5,-122.7 182.5,-141.7 248.5,-141.7 248.5,-122.7 182.5,-122.7"/>
<text text-anchor="start" x="185.5" y="-128.8" font-family="Helvetica,sans-Serif" font-size="11.00" fill="#000000">&lt; 1</text>
<polygon fill="#ffffff" stroke="transparent" points="248.5,-122.7 248.5,-141.7 305.5,-141.7 305.5,-122.7 248.5,-122.7"/>
<polygon fill="none" stroke="#000000" points="248.5,-122.7 248.5,-141.7 305.5,-141.7 305.5,-122.7 248.5,-122.7"/>
<text text-anchor="start" x="296.3862" y="-128.8" font-family="Helvetica,sans-Serif" font-size="11.00" fill="#000000"> &#160;</text>
<polygon fill="#ffffff" stroke="transparent" points="305.5,-122.7 305.5,-141.7 389.5,-141.7 389.5,-122.7 305.5,-122.7"/>
<polygon fill="none" stroke="#000000" points="305.5,-122.7 305.5,-141.7 389.5,-141.7 389.5,-122.7 305.5,-122.7"/>
<text text-anchor="start" x="370.9053" y="-128.8" font-family="Helvetica,sans-Serif" font-size="11.00" fill="#000000">1 &gt;</text>
<polygon fill="none" stroke="#000000" stroke-width="2" points="181,-121.7 181,-407.7 390,-407.7 390,-121.7 181,-121.7"/>
</a>
</g>
</g>
<!-- alert&#45;&gt;alert_code -->
<g id="edge1" class="edge">
<title>alert:w&#45;&gt;alert_code:e</title>
<path fill="none" stroke="#000000" d="M426.2665,-232.6868C386.3345,-253.222 451.1778,-372.7 389.5,-372.7"/>
<polygon fill="#000000" stroke="#000000" points="432.6705,-231.343 441.2393,-233.2233 436.5853,-230.5215 440.5,-229.7 440.5,-229.7 440.5,-229.7 436.5853,-230.5215 439.7607,-226.1767 432.6705,-231.343 432.6705,-231.343"/>
<ellipse fill="none" stroke="#000000" cx="429.5387" cy="-232.0002" rx="3.2" ry="3.2"/>
</g>
<!-- person_summary -->
<g id="node3" class="node">
<title>person_summary</title>
<g id="a_node3"><a xlink:href="../../tables/person_summary.html" xlink:title="person_summary" target="_top">
<polygon fill="#ffffff" stroke="transparent" points="208.5,-38.2 208.5,-99.2 362.5,-99.2 362.5,-38.2 208.5,-38.2"/>
<polygon fill="#f5f5f5" stroke="transparent" points="208.5,-75.7 208.5,-98.7 362.5,-98.7 362.5,-75.7 208.5,-75.7"/>
<polygon fill="none" stroke="#000000" points="208.5,-75.7 208.5,-98.7 362.5,-98.7 362.5,-75.7 208.5,-75.7"/>
<text text-anchor="start" x="213.5" y="-84.3" font-family="Helvetica,sans-Serif" font-weight="bold" font-size="11.00" fill="#000000">person_summary</text>
<text text-anchor="start" x="328.0219" y="-83.8" font-family="Helvetica,sans-Serif" font-size="11.00" fill="#000000">[table]</text>
<polygon fill="none" stroke="#000000" points="208.5,-56.7 208.5,-75.7 362.5,-75.7 362.5,-56.7 208.5,-56.7"/>
<text text-anchor="start" x="211.5" y="-62.8" font-family="Helvetica,sans-Serif" font-size="11.00" fill="#000000">...</text>
<polygon fill="#ffffff" stroke="transparent" points="208.5,-37.7 208.5,-56.7 274.5,-56.7 274.5,-37.7 208.5,-37.7"/>
<polygon fill="none" stroke="#000000" points="208.5,-37.7 208.5,-56.7 274.5,-56.7 274.5,-37.7 208.5,-37.7"/>
<text text-anchor="start" x="211.5" y="-43.8" font-family="Helvetica,sans-Serif" font-size="11.00" fill="#000000"> &#160;</text>
<polygon fill="#ffffff" stroke="transparent" points="274.5,-37.7 274.5,-56.7 313.5,-56.7 313.5,-37.7 274.5,-37.7"/>
<polygon fill="none" stroke="#000000" points="274.5,-37.7 274.5,-56.7 313.5,-56.7 313.5,-37.7 274.5,-37.7"/>
<text text-anchor="start" x="304.3862" y="-43.8" font-family="Helvetica,sans-Serif" font-size="11.00" fill="#000000"> &#160;</text>
<polygon fill="#ffffff" stroke="transparent" points="313.5,-37.7 313.5,-56.7 362.5,-56.7 362.5,-37.7 313.5,-37.7"/>
<polygon fill="none" stroke="#000000" points="313.5,-37.7 313.5,-56.7 362.5,-56.7 362.5,-37.7 313.5,-37.7"/>
<text text-anchor="start" x="343.9053" y="-43.8" font-family="Helvetica,sans-Serif" font-size="11.00" fill="#000000">3 &gt;</text>
</a>
</g>
</g>
<!-- alert&#45;&gt;person_summary -->
<g id="edge2" class="edge">
<title>alert:w&#45;&gt;person_summary:e</title>
<path fill="none" stroke="#000000" stroke-dasharray="5,2" d="M426.0192,-205.2353C377.9663,-186.3792 428.8801,-65.7 362.5,-65.7"/>
<polygon fill="#000000" stroke="#000000" points="432.6134,-206.3576 439.8959,-211.249 436.5567,-207.0288 440.5,-207.7 440.5,-207.7 440.5,-207.7 436.5567,-207.0288 441.1041,-204.151 432.6134,-206.3576 432.6134,-206.3576"/>
<ellipse fill="none" stroke="#000000" cx="429.4588" cy="-205.8207" rx="3.2" ry="3.2"/>
</g>
<!-- alert_type -->
<g id="node4" class="node">
<title>alert_type</title>
<g id="a_node4"><a xlink:href="../../tables/alert_type.html" xlink:title="alert_type" target="_top">
<polygon fill="#ffffff" stroke="transparent" points="8,-214.2 8,-385.2 131,-385.2 131,-214.2 8,-214.2"/>
<polygon fill="#f5f5f5" stroke="transparent" points="8.5,-361.7 8.5,-384.7 131.5,-384.7 131.5,-361.7 8.5,-361.7"/>
<polygon fill="none" stroke="#000000" points="8.5,-361.7 8.5,-384.7 131.5,-384.7 131.5,-361.7 8.5,-361.7"/>
<text text-anchor="start" x="13.5" y="-370.3" font-family="Helvetica,sans-Serif" font-weight="bold" font-size="11.00" fill="#000000">alert_type</text>
<text text-anchor="start" x="96.5437" y="-369.8" font-family="Helvetica,sans-Serif" font-size="11.00" fill="#000000">[table]</text>
<polygon fill="none" stroke="#000000" points="8.5,-339.7 8.5,-361.7 131.5,-361.7 131.5,-339.7 8.5,-339.7"/>
<image xlink:href="../../images/primaryKeys.png" width="11px" height="12px" preserveAspectRatio="xMinYMin meet" x="13.5" y="-356.7"/>
<text text-anchor="start" x="28.5" y="-346.8" font-family="Helvetica,sans-Serif" font-size="11.00" fill="#000000">alert_type_id</text>
<polygon fill="#ffffff" stroke="transparent" points="8.5,-317.7 8.5,-339.7 131.5,-339.7 131.5,-317.7 8.5,-317.7"/>
<polygon fill="none" stroke="#000000" points="8.5,-317.7 8.5,-339.7 131.5,-339.7 131.5,-317.7 8.5,-317.7"/>
<text text-anchor="start" x="28.5" y="-324.8" font-family="Helvetica,sans-Serif" font-size="11.00" fill="#000000">code</text>
<polygon fill="#ffffff" stroke="transparent" points="8.5,-295.7 8.5,-317.7 131.5,-317.7 131.5,-295.7 8.5,-295.7"/>
<polygon fill="none" stroke="#000000" points="8.5,-295.7 8.5,-317.7 131.5,-317.7 131.5,-295.7 8.5,-295.7"/>
<text text-anchor="start" x="28.5" y="-302.8" font-family="Helvetica,sans-Serif" font-size="11.00" fill="#000000">list_sequence</text>
<polygon fill="#ffffff" stroke="transparent" points="8.5,-273.7 8.5,-295.7 131.5,-295.7 131.5,-273.7 8.5,-273.7"/>
<polygon fill="none" stroke="#000000" points="8.5,-273.7 8.5,-295.7 131.5,-295.7 131.5,-273.7 8.5,-273.7"/>
<text text-anchor="start" x="28.5" y="-280.8" font-family="Helvetica,sans-Serif" font-size="11.00" fill="#000000">created_at</text>
<polygon fill="#ffffff" stroke="transparent" points="8.5,-251.7 8.5,-273.7 131.5,-273.7 131.5,-251.7 8.5,-251.7"/>
<polygon fill="none" stroke="#000000" points="8.5,-251.7 8.5,-273.7 131.5,-273.7 131.5,-251.7 8.5,-251.7"/>
<text text-anchor="start" x="28.5" y="-258.8" font-family="Helvetica,sans-Serif" font-size="11.00" fill="#000000">deactivated_at</text>
<polygon fill="none" stroke="#000000" points="8.5,-232.7 8.5,-251.7 131.5,-251.7 131.5,-232.7 8.5,-232.7"/>
<text text-anchor="start" x="11.5" y="-238.8" font-family="Helvetica,sans-Serif" font-size="11.00" fill="#000000">...</text>
<polygon fill="#ffffff" stroke="transparent" points="8.5,-213.7 8.5,-232.7 59.5,-232.7 59.5,-213.7 8.5,-213.7"/>
<polygon fill="none" stroke="#000000" points="8.5,-213.7 8.5,-232.7 59.5,-232.7 59.5,-213.7 8.5,-213.7"/>
<text text-anchor="start" x="11.5" y="-219.8" font-family="Helvetica,sans-Serif" font-size="11.00" fill="#000000"> &#160;</text>
<polygon fill="#ffffff" stroke="transparent" points="59.5,-213.7 59.5,-232.7 90.5,-232.7 90.5,-213.7 59.5,-213.7"/>
<polygon fill="none" stroke="#000000" points="59.5,-213.7 59.5,-232.7 90.5,-232.7 90.5,-213.7 59.5,-213.7"/>
<text text-anchor="start" x="81.3862" y="-219.8" font-family="Helvetica,sans-Serif" font-size="11.00" fill="#000000"> &#160;</text>
<polygon fill="#ffffff" stroke="transparent" points="90.5,-213.7 90.5,-232.7 131.5,-232.7 131.5,-213.7 90.5,-213.7"/>
<polygon fill="none" stroke="#000000" points="90.5,-213.7 90.5,-232.7 131.5,-232.7 131.5,-213.7 90.5,-213.7"/>
<text text-anchor="start" x="112.9053" y="-219.8" font-family="Helvetica,sans-Serif" font-size="11.00" fill="#000000">1 &gt;</text>
</a>
</g>
</g>
<!-- alert_code&#45;&gt;alert_type -->
<g id="edge3" class="edge">
<title>alert_code:w&#45;&gt;alert_type:e</title>
<path fill="none" stroke="#000000" d="M167.776,-350.7C155.7815,-350.7 148.3229,-350.7 131.5,-350.7"/>
<polygon fill="#000000" stroke="#000000" points="174.5,-350.7001 182.5,-354.3 178.5,-350.7 182.5,-350.7 182.5,-350.7 182.5,-350.7 178.5,-350.7 182.5,-347.1 174.5,-350.7001 174.5,-350.7001"/>
<ellipse fill="none" stroke="#000000" cx="171.3" cy="-350.7001" rx="3.2" ry="3.2"/>
</g>
<!-- audit_event -->
<g id="node5" class="node">
<title>audit_event</title>
<g id="a_node5"><a xlink:href="../../tables/audit_event.html" xlink:title="audit_event" target="_top">
<polygon fill="#ffffff" stroke="transparent" points="690,-224.2 690,-285.2 808,-285.2 808,-224.2 690,-224.2"/>
<polygon fill="#f5f5f5" stroke="transparent" points="690,-261.7 690,-284.7 808,-284.7 808,-261.7 690,-261.7"/>
<polygon fill="none" stroke="#000000" points="690,-261.7 690,-284.7 808,-284.7 808,-261.7 690,-261.7"/>
<text text-anchor="start" x="695" y="-270.3" font-family="Helvetica,sans-Serif" font-weight="bold" font-size="11.00" fill="#000000">audit_event</text>
<text text-anchor="start" x="773.5219" y="-269.8" font-family="Helvetica,sans-Serif" font-size="11.00" fill="#000000">[table]</text>
<polygon fill="none" stroke="#000000" points="690,-242.7 690,-261.7 808,-261.7 808,-242.7 690,-242.7"/>
<text text-anchor="start" x="693" y="-248.8" font-family="Helvetica,sans-Serif" font-size="11.00" fill="#000000">...</text>
<polygon fill="#ffffff" stroke="transparent" points="690,-223.7 690,-242.7 747,-242.7 747,-223.7 690,-223.7"/>
<polygon fill="none" stroke="#000000" points="690,-223.7 690,-242.7 747,-242.7 747,-223.7 690,-223.7"/>
<text text-anchor="start" x="693" y="-229.8" font-family="Helvetica,sans-Serif" font-size="11.00" fill="#000000">&lt; 1</text>
<polygon fill="#ffffff" stroke="transparent" points="747,-223.7 747,-242.7 777,-242.7 777,-223.7 747,-223.7"/>
<polygon fill="none" stroke="#000000" points="747,-223.7 747,-242.7 777,-242.7 777,-223.7 747,-223.7"/>
<text text-anchor="start" x="767.8862" y="-229.8" font-family="Helvetica,sans-Serif" font-size="11.00" fill="#000000"> &#160;</text>
<polygon fill="#ffffff" stroke="transparent" points="777,-223.7 777,-242.7 808,-242.7 808,-223.7 777,-223.7"/>
<polygon fill="none" stroke="#000000" points="777,-223.7 777,-242.7 808,-242.7 808,-223.7 777,-223.7"/>
<text text-anchor="start" x="798.8862" y="-229.8" font-family="Helvetica,sans-Serif" font-size="11.00" fill="#000000"> &#160;</text>
</a>
</g>
</g>
<!-- audit_event&#45;&gt;alert -->
<g id="edge4" class="edge">
<title>audit_event:w&#45;&gt;alert:e</title>
<path fill="none" stroke="#000000" d="M675.2829,-251.7C664.2886,-251.7 657.1615,-251.7 641.5,-251.7"/>
<polygon fill="#000000" stroke="#000000" points="682,-251.7001 690,-255.3 686,-251.7 690,-251.7 690,-251.7 690,-251.7 686,-251.7 690,-248.1 682,-251.7001 682,-251.7001"/>
<ellipse fill="none" stroke="#000000" cx="678.8" cy="-251.7001" rx="3.2" ry="3.2"/>
</g>
</g>
</svg>
