<?xml version="1.0" encoding="UTF-8" standalone="no"?>
<!DOCTYPE svg PUBLIC "-//W3C//DTD SVG 1.1//EN"
 "http://www.w3.org/Graphics/SVG/1.1/DTD/svg11.dtd">
<!-- Generated by graphviz version 2.40.1 (20161225.0304)
 -->
<!-- Title: oneDegreeRelationshipsDiagram Pages: 1 -->
<svg width="571pt" height="531pt"
 viewBox="0.00 0.00 571.00 530.70" xmlns="http://www.w3.org/2000/svg" xmlns:xlink="http://www.w3.org/1999/xlink">
<g id="graph0" class="graph" transform="scale(1 1) rotate(0) translate(4 526.7)">
<title>oneDegreeRelationshipsDiagram</title>
<polygon fill="#ffffff" stroke="transparent" points="-4,4 -4,-526.7 567,-526.7 567,4 -4,4"/>
<text text-anchor="middle" x="72.4936" y="-7.3" font-family="Helvetica,sans-Serif" font-size="11.00" fill="#000000">Generated by SchemaSpy</text>
<!-- audit_event -->
<g id="node1" class="node">
<title>audit_event</title>
<g id="a_node1"><a xlink:href="../../tables/audit_event.html" xlink:title="audit_event" target="_top">
<polygon fill="#ffffff" stroke="transparent" points="258,-164.7 258,-518.7 555,-518.7 555,-164.7 258,-164.7"/>
<polygon fill="#f5f5f5" stroke="transparent" points="260.5,-493.7 260.5,-516.7 553.5,-516.7 553.5,-493.7 260.5,-493.7"/>
<polygon fill="none" stroke="#000000" points="260.5,-493.7 260.5,-516.7 553.5,-516.7 553.5,-493.7 260.5,-493.7"/>
<text text-anchor="start" x="265.5" y="-502.3" font-family="Helvetica,sans-Serif" font-weight="bold" font-size="11.00" fill="#000000">audit_event</text>
<text text-anchor="start" x="518.5437" y="-501.8" font-family="Helvetica,sans-Serif" font-size="11.00" fill="#000000">[table]</text>
<polygon fill="#ffffff" stroke="transparent" points="260.5,-471.7 260.5,-493.7 459.5,-493.7 459.5,-471.7 260.5,-471.7"/>
<polygon fill="none" stroke="#000000" points="260.5,-471.7 260.5,-493.7 459.5,-493.7 459.5,-471.7 260.5,-471.7"/>
<text text-anchor="start" x="280.5" y="-478.8" font-family="Helvetica,sans-Serif" font-size="11.00" fill="#000000">action</text>
<polygon fill="none" stroke="#000000" points="459.5,-471.7 459.5,-493.7 553.5,-493.7 553.5,-471.7 459.5,-471.7"/>
<text text-anchor="start" x="462.5" y="-479.4" font-family="Helvetica,sans-Serif" font-size="11.00" fill="#000000">varchar[40]</text>
<polygon fill="none" stroke="#000000" points="260.5,-449.7 260.5,-471.7 459.5,-471.7 459.5,-449.7 260.5,-449.7"/>
<text text-anchor="start" x="280.5" y="-456.8" font-family="Helvetica,sans-Serif" font-size="11.00" fill="#000000">description</text>
<polygon fill="none" stroke="#000000" points="459.5,-449.7 459.5,-471.7 553.5,-471.7 553.5,-449.7 459.5,-449.7"/>
<text text-anchor="start" x="462.5" y="-457.4" font-family="Helvetica,sans-Serif" font-size="11.00" fill="#000000">text[2147483647]</text>
<polygon fill="#ffffff" stroke="transparent" points="260.5,-427.7 260.5,-449.7 459.5,-449.7 459.5,-427.7 260.5,-427.7"/>
<polygon fill="none" stroke="#000000" points="260.5,-427.7 260.5,-449.7 459.5,-449.7 459.5,-427.7 260.5,-427.7"/>
<text text-anchor="start" x="280.5" y="-434.8" font-family="Helvetica,sans-Serif" font-size="11.00" fill="#000000">actioned_at</text>
<polygon fill="none" stroke="#000000" points="459.5,-427.7 459.5,-449.7 553.5,-449.7 553.5,-427.7 459.5,-427.7"/>
<text text-anchor="start" x="462.5" y="-435.4" font-family="Helvetica,sans-Serif" font-size="11.00" fill="#000000">timestamp[29,6]</text>
<polygon fill="#ffffff" stroke="transparent" points="260.5,-405.7 260.5,-427.7 459.5,-427.7 459.5,-405.7 260.5,-405.7"/>
<polygon fill="none" stroke="#000000" points="260.5,-405.7 260.5,-427.7 459.5,-427.7 459.5,-405.7 260.5,-405.7"/>
<text text-anchor="start" x="280.5" y="-412.8" font-family="Helvetica,sans-Serif" font-size="11.00" fill="#000000">actioned_by</text>
<polygon fill="none" stroke="#000000" points="459.5,-405.7 459.5,-427.7 553.5,-427.7 553.5,-405.7 459.5,-405.7"/>
<text text-anchor="start" x="462.5" y="-413.4" font-family="Helvetica,sans-Serif" font-size="11.00" fill="#000000">varchar[64]</text>
<polygon fill="none" stroke="#000000" points="260.5,-383.7 260.5,-405.7 459.5,-405.7 459.5,-383.7 260.5,-383.7"/>
<text text-anchor="start" x="280.5" y="-390.8" font-family="Helvetica,sans-Serif" font-size="11.00" fill="#000000">actioned_by_display_name</text>
<polygon fill="none" stroke="#000000" points="459.5,-383.7 459.5,-405.7 553.5,-405.7 553.5,-383.7 459.5,-383.7"/>
<text text-anchor="start" x="462.5" y="-391.4" font-family="Helvetica,sans-Serif" font-size="11.00" fill="#000000">varchar[255]</text>
<polygon fill="none" stroke="#000000" points="260.5,-361.7 260.5,-383.7 459.5,-383.7 459.5,-361.7 260.5,-361.7"/>
<text text-anchor="start" x="280.5" y="-368.8" font-family="Helvetica,sans-Serif" font-size="11.00" fill="#000000">source</text>
<polygon fill="none" stroke="#000000" points="459.5,-361.7 459.5,-383.7 553.5,-383.7 553.5,-361.7 459.5,-361.7"/>
<text text-anchor="start" x="462.5" y="-369.4" font-family="Helvetica,sans-Serif" font-size="11.00" fill="#000000">varchar[12]</text>
<polygon fill="none" stroke="#000000" points="260.5,-339.7 260.5,-361.7 459.5,-361.7 459.5,-339.7 260.5,-339.7"/>
<text text-anchor="start" x="280.5" y="-346.8" font-family="Helvetica,sans-Serif" font-size="11.00" fill="#000000">active_case_load_id</text>
<polygon fill="none" stroke="#000000" points="459.5,-339.7 459.5,-361.7 553.5,-361.7 553.5,-339.7 459.5,-339.7"/>
<text text-anchor="start" x="462.5" y="-347.4" font-family="Helvetica,sans-Serif" font-size="11.00" fill="#000000">varchar[6]</text>
<polygon fill="none" stroke="#000000" points="260.5,-317.7 260.5,-339.7 459.5,-339.7 459.5,-317.7 260.5,-317.7"/>
<text text-anchor="start" x="280.5" y="-324.8" font-family="Helvetica,sans-Serif" font-size="11.00" fill="#000000">description_updated</text>
<polygon fill="none" stroke="#000000" points="459.5,-317.7 459.5,-339.7 553.5,-339.7 553.5,-317.7 459.5,-317.7"/>
<text text-anchor="start" x="462.5" y="-325.4" font-family="Helvetica,sans-Serif" font-size="11.00" fill="#000000">bool[1]</text>
<polygon fill="none" stroke="#000000" points="260.5,-295.7 260.5,-317.7 459.5,-317.7 459.5,-295.7 260.5,-295.7"/>
<text text-anchor="start" x="280.5" y="-302.8" font-family="Helvetica,sans-Serif" font-size="11.00" fill="#000000">authorised_by_updated</text>
<polygon fill="none" stroke="#000000" points="459.5,-295.7 459.5,-317.7 553.5,-317.7 553.5,-295.7 459.5,-295.7"/>
<text text-anchor="start" x="462.5" y="-303.4" font-family="Helvetica,sans-Serif" font-size="11.00" fill="#000000">bool[1]</text>
<polygon fill="none" stroke="#000000" points="260.5,-273.7 260.5,-295.7 459.5,-295.7 459.5,-273.7 260.5,-273.7"/>
<text text-anchor="start" x="280.5" y="-280.8" font-family="Helvetica,sans-Serif" font-size="11.00" fill="#000000">active_from_updated</text>
<polygon fill="none" stroke="#000000" points="459.5,-273.7 459.5,-295.7 553.5,-295.7 553.5,-273.7 459.5,-273.7"/>
<text text-anchor="start" x="462.5" y="-281.4" font-family="Helvetica,sans-Serif" font-size="11.00" fill="#000000">bool[1]</text>
<polygon fill="none" stroke="#000000" points="260.5,-251.7 260.5,-273.7 459.5,-273.7 459.5,-251.7 260.5,-251.7"/>
<text text-anchor="start" x="280.5" y="-258.8" font-family="Helvetica,sans-Serif" font-size="11.00" fill="#000000">active_to_updated</text>
<polygon fill="none" stroke="#000000" points="459.5,-251.7 459.5,-273.7 553.5,-273.7 553.5,-251.7 459.5,-251.7"/>
<text text-anchor="start" x="462.5" y="-259.4" font-family="Helvetica,sans-Serif" font-size="11.00" fill="#000000">bool[1]</text>
<polygon fill="#ffffff" stroke="transparent" points="260.5,-229.7 260.5,-251.7 459.5,-251.7 459.5,-229.7 260.5,-229.7"/>
<polygon fill="none" stroke="#000000" points="260.5,-229.7 260.5,-251.7 459.5,-251.7 459.5,-229.7 260.5,-229.7"/>
<image xlink:href="../../images/foreignKeys.png" width="11px" height="12px" preserveAspectRatio="xMinYMin meet" x="265.5" y="-246.7"/>
<text text-anchor="start" x="280.5" y="-236.8" font-family="Helvetica,sans-Serif" font-size="11.00" fill="#000000">alert_id</text>
<polygon fill="none" stroke="#000000" points="459.5,-229.7 459.5,-251.7 553.5,-251.7 553.5,-229.7 459.5,-229.7"/>
<text text-anchor="start" x="462.4758" y="-237.4" font-family="Helvetica,sans-Serif" font-size="11.00" fill="#000000">uuid[2147483647]</text>
<polygon fill="none" stroke="#000000" points="260.5,-207.7 260.5,-229.7 459.5,-229.7 459.5,-207.7 260.5,-207.7"/>
<text text-anchor="start" x="280.5" y="-214.8" font-family="Helvetica,sans-Serif" font-size="11.00" fill="#000000">version</text>
<polygon fill="none" stroke="#000000" points="459.5,-207.7 459.5,-229.7 553.5,-229.7 553.5,-207.7 459.5,-207.7"/>
<text text-anchor="start" x="462.5" y="-215.4" font-family="Helvetica,sans-Serif" font-size="11.00" fill="#000000">int4[10]</text>
<polygon fill="none" stroke="#000000" points="260.5,-185.7 260.5,-207.7 459.5,-207.7 459.5,-185.7 260.5,-185.7"/>
<image xlink:href="../../images/primaryKeys.png" width="11px" height="12px" preserveAspectRatio="xMinYMin meet" x="265.5" y="-202.7"/>
<text text-anchor="start" x="280.5" y="-192.8" font-family="Helvetica,sans-Serif" font-size="11.00" fill="#000000">id</text>
<polygon fill="none" stroke="#000000" points="459.5,-185.7 459.5,-207.7 553.5,-207.7 553.5,-185.7 459.5,-185.7"/>
<text text-anchor="start" x="462.4758" y="-193.4" font-family="Helvetica,sans-Serif" font-size="11.00" fill="#000000">uuid[2147483647]</text>
<polygon fill="#ffffff" stroke="transparent" points="260.5,-166.7 260.5,-185.7 364.5,-185.7 364.5,-166.7 260.5,-166.7"/>
<polygon fill="none" stroke="#000000" points="260.5,-166.7 260.5,-185.7 364.5,-185.7 364.5,-166.7 260.5,-166.7"/>
<text text-anchor="start" x="263.5" y="-172.8" font-family="Helvetica,sans-Serif" font-size="11.00" fill="#000000">&lt; 1</text>
<polygon fill="#ffffff" stroke="transparent" points="364.5,-166.7 364.5,-185.7 459.5,-185.7 459.5,-166.7 364.5,-166.7"/>
<polygon fill="none" stroke="#000000" points="364.5,-166.7 364.5,-185.7 459.5,-185.7 459.5,-166.7 364.5,-166.7"/>
<text text-anchor="start" x="450.3862" y="-172.8" font-family="Helvetica,sans-Serif" font-size="11.00" fill="#000000"> &#160;</text>
<polygon fill="#ffffff" stroke="transparent" points="459.5,-166.7 459.5,-185.7 553.5,-185.7 553.5,-166.7 459.5,-166.7"/>
<polygon fill="none" stroke="#000000" points="459.5,-166.7 459.5,-185.7 553.5,-185.7 553.5,-166.7 459.5,-166.7"/>
<text text-anchor="start" x="534.9053" y="-172.8" font-family="Helvetica,sans-Serif" font-size="11.00" fill="#000000">0 &gt;</text>
<polygon fill="none" stroke="#000000" stroke-width="2" points="259,-165.7 259,-517.7 554,-517.7 554,-165.7 259,-165.7"/>
</a>
</g>
</g>
<!-- alert -->
<g id="node2" class="node">
<title>alert</title>
<g id="a_node2"><a xlink:href="../../tables/alert.html" xlink:title="alert" target="_top">
<polygon fill="#ffffff" stroke="transparent" points="8,-38.2 8,-275.2 209,-275.2 209,-38.2 8,-38.2"/>
<polygon fill="#f5f5f5" stroke="transparent" points="8.5,-251.7 8.5,-274.7 209.5,-274.7 209.5,-251.7 8.5,-251.7"/>
<polygon fill="none" stroke="#000000" points="8.5,-251.7 8.5,-274.7 209.5,-274.7 209.5,-251.7 8.5,-251.7"/>
<text text-anchor="start" x="13.5" y="-260.3" font-family="Helvetica,sans-Serif" font-weight="bold" font-size="11.00" fill="#000000">alert</text>
<text text-anchor="start" x="174.5437" y="-259.8" font-family="Helvetica,sans-Serif" font-size="11.00" fill="#000000">[table]</text>
<polygon fill="none" stroke="#000000" points="8.5,-229.7 8.5,-251.7 209.5,-251.7 209.5,-229.7 8.5,-229.7"/>
<image xlink:href="../../images/primaryKeys.png" width="11px" height="12px" preserveAspectRatio="xMinYMin meet" x="13.5" y="-246.7"/>
<text text-anchor="start" x="28.5" y="-236.8" font-family="Helvetica,sans-Serif" font-size="11.00" fill="#000000">id</text>
<polygon fill="#ffffff" stroke="transparent" points="8.5,-207.7 8.5,-229.7 209.5,-229.7 209.5,-207.7 8.5,-207.7"/>
<polygon fill="none" stroke="#000000" points="8.5,-207.7 8.5,-229.7 209.5,-229.7 209.5,-207.7 8.5,-207.7"/>
<image xlink:href="../../images/foreignKeys.png" width="11px" height="12px" preserveAspectRatio="xMinYMin meet" x="13.5" y="-224.7"/>
<text text-anchor="start" x="28.5" y="-214.8" font-family="Helvetica,sans-Serif" font-size="11.00" fill="#000000">alert_code_id</text>
<polygon fill="#ffffff" stroke="transparent" points="8.5,-185.7 8.5,-207.7 209.5,-207.7 209.5,-185.7 8.5,-185.7"/>
<polygon fill="none" stroke="#000000" points="8.5,-185.7 8.5,-207.7 209.5,-207.7 209.5,-185.7 8.5,-185.7"/>
<image xlink:href="../../images/foreignKeys.png" width="11px" height="12px" preserveAspectRatio="xMinYMin meet" x="13.5" y="-202.7"/>
<text text-anchor="start" x="28.5" y="-192.8" font-family="Helvetica,sans-Serif" font-size="11.00" fill="#000000">prison_number</text>
<polygon fill="#ffffff" stroke="transparent" points="8.5,-163.7 8.5,-185.7 209.5,-185.7 209.5,-163.7 8.5,-163.7"/>
<polygon fill="none" stroke="#000000" points="8.5,-163.7 8.5,-185.7 209.5,-185.7 209.5,-163.7 8.5,-163.7"/>
<text text-anchor="start" x="28.5" y="-170.8" font-family="Helvetica,sans-Serif" font-size="11.00" fill="#000000">active_from</text>
<polygon fill="#ffffff" stroke="transparent" points="8.5,-141.7 8.5,-163.7 209.5,-163.7 209.5,-141.7 8.5,-141.7"/>
<polygon fill="none" stroke="#000000" points="8.5,-141.7 8.5,-163.7 209.5,-163.7 209.5,-141.7 8.5,-141.7"/>
<text text-anchor="start" x="28.5" y="-148.8" font-family="Helvetica,sans-Serif" font-size="11.00" fill="#000000">active_to</text>
<polygon fill="#ffffff" stroke="transparent" points="8.5,-119.7 8.5,-141.7 209.5,-141.7 209.5,-119.7 8.5,-119.7"/>
<polygon fill="none" stroke="#000000" points="8.5,-119.7 8.5,-141.7 209.5,-141.7 209.5,-119.7 8.5,-119.7"/>
<text text-anchor="start" x="28.5" y="-126.8" font-family="Helvetica,sans-Serif" font-size="11.00" fill="#000000">deleted_at</text>
<polygon fill="#ffffff" stroke="transparent" points="8.5,-97.7 8.5,-119.7 209.5,-119.7 209.5,-97.7 8.5,-97.7"/>
<polygon fill="none" stroke="#000000" points="8.5,-97.7 8.5,-119.7 209.5,-119.7 209.5,-97.7 8.5,-97.7"/>
<text text-anchor="start" x="28.5" y="-104.8" font-family="Helvetica,sans-Serif" font-size="11.00" fill="#000000">created_at</text>
<polygon fill="#ffffff" stroke="transparent" points="8.5,-75.7 8.5,-97.7 209.5,-97.7 209.5,-75.7 8.5,-75.7"/>
<polygon fill="none" stroke="#000000" points="8.5,-75.7 8.5,-97.7 209.5,-97.7 209.5,-75.7 8.5,-75.7"/>
<text text-anchor="start" x="28.5" y="-82.8" font-family="Helvetica,sans-Serif" font-size="11.00" fill="#000000">last_modified_at</text>
<polygon fill="none" stroke="#000000" points="8.5,-56.7 8.5,-75.7 209.5,-75.7 209.5,-56.7 8.5,-56.7"/>
<text text-anchor="start" x="11.5" y="-62.8" font-family="Helvetica,sans-Serif" font-size="11.00" fill="#000000">...</text>
<polygon fill="#ffffff" stroke="transparent" points="8.5,-37.7 8.5,-56.7 102.5,-56.7 102.5,-37.7 8.5,-37.7"/>
<polygon fill="none" stroke="#000000" points="8.5,-37.7 8.5,-56.7 102.5,-56.7 102.5,-37.7 8.5,-37.7"/>
<text text-anchor="start" x="11.5" y="-43.8" font-family="Helvetica,sans-Serif" font-size="11.00" fill="#000000">&lt; 1</text>
<polygon fill="#ffffff" stroke="transparent" points="102.5,-37.7 102.5,-56.7 151.5,-56.7 151.5,-37.7 102.5,-37.7"/>
<polygon fill="none" stroke="#000000" points="102.5,-37.7 102.5,-56.7 151.5,-56.7 151.5,-37.7 102.5,-37.7"/>
<text text-anchor="start" x="142.3862" y="-43.8" font-family="Helvetica,sans-Serif" font-size="11.00" fill="#000000"> &#160;</text>
<polygon fill="#ffffff" stroke="transparent" points="151.5,-37.7 151.5,-56.7 209.5,-56.7 209.5,-37.7 151.5,-37.7"/>
<polygon fill="none" stroke="#000000" points="151.5,-37.7 151.5,-56.7 209.5,-56.7 209.5,-37.7 151.5,-37.7"/>
<text text-anchor="start" x="190.9053" y="-43.8" font-family="Helvetica,sans-Serif" font-size="11.00" fill="#000000">1 &gt;</text>
</a>
</g>
</g>
<!-- audit_event&#45;&gt;alert -->
<g id="edge1" class="edge">
<title>audit_event:w&#45;&gt;alert:e</title>
<path fill="none" stroke="#000000" d="M245.776,-240.7C233.7815,-240.7 226.3229,-240.7 209.5,-240.7"/>
<polygon fill="#000000" stroke="#000000" points="252.5,-240.7001 260.5,-244.3 256.5,-240.7 260.5,-240.7 260.5,-240.7 260.5,-240.7 256.5,-240.7 260.5,-237.1 252.5,-240.7001 252.5,-240.7001"/>
<ellipse fill="none" stroke="#000000" cx="249.3" cy="-240.7001" rx="3.2" ry="3.2"/>
</g>
</g>
</svg>
