<?xml version="1.0" encoding="UTF-8" standalone="no"?>
<!DOCTYPE svg PUBLIC "-//W3C//DTD SVG 1.1//EN"
 "http://www.w3.org/Graphics/SVG/1.1/DTD/svg11.dtd">
<!-- Generated by graphviz version 2.40.1 (20161225.0304)
 -->
<!-- Title: twoDegreesRelationshipsDiagramImplied Pages: 1 -->
<svg width="813pt" height="531pt"
 viewBox="0.00 0.00 813.00 530.70" xmlns="http://www.w3.org/2000/svg" xmlns:xlink="http://www.w3.org/1999/xlink">
<g id="graph0" class="graph" transform="scale(1 1) rotate(0) translate(4 526.7)">
<title>twoDegreesRelationshipsDiagramImplied</title>
<polygon fill="#ffffff" stroke="transparent" points="-4,4 -4,-526.7 809,-526.7 809,4 -4,4"/>
<text text-anchor="middle" x="72.4936" y="-7.3" font-family="Helvetica,sans-Serif" font-size="11.00" fill="#000000">Generated by SchemaSpy</text>
<!-- alert -->
<g id="node1" class="node">
<title>alert</title>
<g id="a_node1"><a xlink:href="../../tables/alert.html" xlink:title="alert" target="_top">
<polygon fill="#ffffff" stroke="transparent" points="220,-38.2 220,-275.2 436,-275.2 436,-38.2 220,-38.2"/>
<polygon fill="#f5f5f5" stroke="transparent" points="220,-251.7 220,-274.7 436,-274.7 436,-251.7 220,-251.7"/>
<polygon fill="none" stroke="#000000" points="220,-251.7 220,-274.7 436,-274.7 436,-251.7 220,-251.7"/>
<text text-anchor="start" x="225" y="-260.3" font-family="Helvetica,sans-Serif" font-weight="bold" font-size="11.00" fill="#000000">alert</text>
<text text-anchor="start" x="401.0437" y="-259.8" font-family="Helvetica,sans-Serif" font-size="11.00" fill="#000000">[table]</text>
<polygon fill="none" stroke="#000000" points="220,-229.7 220,-251.7 436,-251.7 436,-229.7 220,-229.7"/>
<image xlink:href="../../images/primaryKeys.png" width="11px" height="12px" preserveAspectRatio="xMinYMin meet" x="225" y="-246.7"/>
<text text-anchor="start" x="240" y="-236.8" font-family="Helvetica,sans-Serif" font-size="11.00" fill="#000000">id</text>
<polygon fill="#ffffff" stroke="transparent" points="220,-207.7 220,-229.7 436,-229.7 436,-207.7 220,-207.7"/>
<polygon fill="none" stroke="#000000" points="220,-207.7 220,-229.7 436,-229.7 436,-207.7 220,-207.7"/>
<image xlink:href="../../images/foreignKeys.png" width="11px" height="12px" preserveAspectRatio="xMinYMin meet" x="225" y="-224.7"/>
<text text-anchor="start" x="240" y="-214.8" font-family="Helvetica,sans-Serif" font-size="11.00" fill="#000000">alert_code_id</text>
<polygon fill="#ffffff" stroke="transparent" points="220,-185.7 220,-207.7 436,-207.7 436,-185.7 220,-185.7"/>
<polygon fill="none" stroke="#000000" points="220,-185.7 220,-207.7 436,-207.7 436,-185.7 220,-185.7"/>
<image xlink:href="../../images/foreignKeys.png" width="11px" height="12px" preserveAspectRatio="xMinYMin meet" x="225" y="-202.7"/>
<text text-anchor="start" x="240" y="-192.8" font-family="Helvetica,sans-Serif" font-size="11.00" fill="#000000">prison_number</text>
<polygon fill="#ffffff" stroke="transparent" points="220,-163.7 220,-185.7 436,-185.7 436,-163.7 220,-163.7"/>
<polygon fill="none" stroke="#000000" points="220,-163.7 220,-185.7 436,-185.7 436,-163.7 220,-163.7"/>
<text text-anchor="start" x="240" y="-170.8" font-family="Helvetica,sans-Serif" font-size="11.00" fill="#000000">active_from</text>
<polygon fill="#ffffff" stroke="transparent" points="220,-141.7 220,-163.7 436,-163.7 436,-141.7 220,-141.7"/>
<polygon fill="none" stroke="#000000" points="220,-141.7 220,-163.7 436,-163.7 436,-141.7 220,-141.7"/>
<text text-anchor="start" x="240" y="-148.8" font-family="Helvetica,sans-Serif" font-size="11.00" fill="#000000">active_to</text>
<polygon fill="#ffffff" stroke="transparent" points="220,-119.7 220,-141.7 436,-141.7 436,-119.7 220,-119.7"/>
<polygon fill="none" stroke="#000000" points="220,-119.7 220,-141.7 436,-141.7 436,-119.7 220,-119.7"/>
<text text-anchor="start" x="240" y="-126.8" font-family="Helvetica,sans-Serif" font-size="11.00" fill="#000000">deleted_at</text>
<polygon fill="#ffffff" stroke="transparent" points="220,-97.7 220,-119.7 436,-119.7 436,-97.7 220,-97.7"/>
<polygon fill="none" stroke="#000000" points="220,-97.7 220,-119.7 436,-119.7 436,-97.7 220,-97.7"/>
<text text-anchor="start" x="240" y="-104.8" font-family="Helvetica,sans-Serif" font-size="11.00" fill="#000000">created_at</text>
<polygon fill="#ffffff" stroke="transparent" points="220,-75.7 220,-97.7 436,-97.7 436,-75.7 220,-75.7"/>
<polygon fill="none" stroke="#000000" points="220,-75.7 220,-97.7 436,-97.7 436,-75.7 220,-75.7"/>
<text text-anchor="start" x="240" y="-82.8" font-family="Helvetica,sans-Serif" font-size="11.00" fill="#000000">last_modified_at</text>
<polygon fill="none" stroke="#000000" points="220,-56.7 220,-75.7 436,-75.7 436,-56.7 220,-56.7"/>
<text text-anchor="start" x="223" y="-62.8" font-family="Helvetica,sans-Serif" font-size="11.00" fill="#000000">...</text>
<polygon fill="#ffffff" stroke="transparent" points="220,-37.7 220,-56.7 436,-56.7 436,-37.7 220,-37.7"/>
<polygon fill="none" stroke="#000000" points="220,-37.7 220,-56.7 436,-56.7 436,-37.7 220,-37.7"/>
<polygon fill="#ffffff" stroke="transparent" points="221,-38.7 221,-55.7 296,-55.7 296,-38.7 221,-38.7"/>
<text text-anchor="start" x="223" y="-43.8" font-family="Helvetica,sans-Serif" font-size="11.00" fill="#000000">&lt; 2</text>
<polygon fill="#ffffff" stroke="transparent" points="296,-38.7 296,-55.7 361,-55.7 361,-38.7 296,-38.7"/>
<text text-anchor="start" x="325.4431" y="-43.8" font-family="Helvetica,sans-Serif" font-size="11.00" fill="#000000"> &#160;</text>
<polygon fill="#ffffff" stroke="transparent" points="361,-38.7 361,-55.7 435,-55.7 435,-38.7 361,-38.7"/>
<text text-anchor="start" x="417.4053" y="-43.8" font-family="Helvetica,sans-Serif" font-size="11.00" fill="#000000">1 &gt;</text>
<polygon fill="#000000" stroke="#000000" points="296,-38.7 296,-55.7 296,-55.7 296,-38.7 296,-38.7"/>
<polygon fill="#000000" stroke="#000000" points="361,-38.7 361,-55.7 361,-55.7 361,-38.7 361,-38.7"/>
</a>
</g>
</g>
<!-- alert_code -->
<g id="node2" class="node">
<title>alert_code</title>
<g id="a_node2"><a xlink:href="../../tables/alert_code.html" xlink:title="alert_code" target="_top">
<polygon fill="#ffffff" stroke="transparent" points="32.5,-221.2 32.5,-282.2 146.5,-282.2 146.5,-221.2 32.5,-221.2"/>
<polygon fill="#f5f5f5" stroke="transparent" points="32.5,-258.7 32.5,-281.7 146.5,-281.7 146.5,-258.7 32.5,-258.7"/>
<polygon fill="none" stroke="#000000" points="32.5,-258.7 32.5,-281.7 146.5,-281.7 146.5,-258.7 32.5,-258.7"/>
<text text-anchor="start" x="37.5" y="-267.3" font-family="Helvetica,sans-Serif" font-weight="bold" font-size="11.00" fill="#000000">alert_code</text>
<text text-anchor="start" x="112.0219" y="-266.8" font-family="Helvetica,sans-Serif" font-size="11.00" fill="#000000">[table]</text>
<polygon fill="none" stroke="#000000" points="32.5,-239.7 32.5,-258.7 146.5,-258.7 146.5,-239.7 32.5,-239.7"/>
<text text-anchor="start" x="35.5" y="-245.8" font-family="Helvetica,sans-Serif" font-size="11.00" fill="#000000">...</text>
<polygon fill="#ffffff" stroke="transparent" points="32.5,-220.7 32.5,-239.7 146.5,-239.7 146.5,-220.7 32.5,-220.7"/>
<polygon fill="none" stroke="#000000" points="32.5,-220.7 32.5,-239.7 146.5,-239.7 146.5,-220.7 32.5,-220.7"/>
<polygon fill="#ffffff" stroke="transparent" points="33.5,-221.7 33.5,-238.7 61.5,-238.7 61.5,-221.7 33.5,-221.7"/>
<text text-anchor="start" x="35.5" y="-226.8" font-family="Helvetica,sans-Serif" font-size="11.00" fill="#000000">&lt; 1</text>
<polygon fill="#ffffff" stroke="transparent" points="61.5,-221.7 61.5,-238.7 118.5,-238.7 118.5,-221.7 61.5,-221.7"/>
<text text-anchor="start" x="67.6904" y="-226.8" font-family="Helvetica,sans-Serif" font-size="11.00" fill="#000000">213 rows</text>
<polygon fill="#ffffff" stroke="transparent" points="118.5,-221.7 118.5,-238.7 145.5,-238.7 145.5,-221.7 118.5,-221.7"/>
<text text-anchor="start" x="127.9053" y="-226.8" font-family="Helvetica,sans-Serif" font-size="11.00" fill="#000000">2 &gt;</text>
<polygon fill="#000000" stroke="#000000" points="61.5,-221.7 61.5,-238.7 61.5,-238.7 61.5,-221.7 61.5,-221.7"/>
<polygon fill="#000000" stroke="#000000" points="118.5,-221.7 118.5,-238.7 118.5,-238.7 118.5,-221.7 118.5,-221.7"/>
</a>
</g>
</g>
<!-- alert&#45;&gt;alert_code -->
<g id="edge1" class="edge">
<title>alert:w&#45;&gt;alert_code:e</title>
<path fill="none" stroke="#000000" d="M205.5836,-220.6684C183.0104,-227.3426 176.27,-248.7 146.5,-248.7"/>
<polygon fill="#000000" stroke="#000000" points="212.0735,-219.7823 220.487,-222.2669 216.0368,-219.2412 220,-218.7 220,-218.7 220,-218.7 216.0368,-219.2412 219.513,-215.1331 212.0735,-219.7823 212.0735,-219.7823"/>
<ellipse fill="none" stroke="#000000" cx="208.903" cy="-220.2152" rx="3.2" ry="3.2"/>
</g>
<!-- person_summary -->
<g id="node3" class="node">
<title>person_summary</title>
<g id="a_node3"><a xlink:href="../../tables/person_summary.html" xlink:title="person_summary" target="_top">
<polygon fill="#ffffff" stroke="transparent" points="8,-139.2 8,-200.2 171,-200.2 171,-139.2 8,-139.2"/>
<polygon fill="#f5f5f5" stroke="transparent" points="8.5,-176.7 8.5,-199.7 171.5,-199.7 171.5,-176.7 8.5,-176.7"/>
<polygon fill="none" stroke="#000000" points="8.5,-176.7 8.5,-199.7 171.5,-199.7 171.5,-176.7 8.5,-176.7"/>
<text text-anchor="start" x="13.5" y="-185.3" font-family="Helvetica,sans-Serif" font-weight="bold" font-size="11.00" fill="#000000">person_summary</text>
<text text-anchor="start" x="137.0219" y="-184.8" font-family="Helvetica,sans-Serif" font-size="11.00" fill="#000000">[table]</text>
<polygon fill="none" stroke="#000000" points="8.5,-157.7 8.5,-176.7 171.5,-176.7 171.5,-157.7 8.5,-157.7"/>
<text text-anchor="start" x="11.5" y="-163.8" font-family="Helvetica,sans-Serif" font-size="11.00" fill="#000000">...</text>
<polygon fill="#ffffff" stroke="transparent" points="8.5,-138.7 8.5,-157.7 171.5,-157.7 171.5,-138.7 8.5,-138.7"/>
<polygon fill="none" stroke="#000000" points="8.5,-138.7 8.5,-157.7 171.5,-157.7 171.5,-138.7 8.5,-138.7"/>
<polygon fill="#ffffff" stroke="transparent" points="9.5,-139.7 9.5,-156.7 60.5,-156.7 60.5,-139.7 9.5,-139.7"/>
<text text-anchor="start" x="11.5" y="-144.8" font-family="Helvetica,sans-Serif" font-size="11.00" fill="#000000"> &#160;</text>
<polygon fill="#ffffff" stroke="transparent" points="60.5,-139.7 60.5,-156.7 111.5,-156.7 111.5,-139.7 60.5,-139.7"/>
<text text-anchor="start" x="82.9431" y="-144.8" font-family="Helvetica,sans-Serif" font-size="11.00" fill="#000000"> &#160;</text>
<polygon fill="#ffffff" stroke="transparent" points="111.5,-139.7 111.5,-156.7 170.5,-156.7 170.5,-139.7 111.5,-139.7"/>
<text text-anchor="start" x="152.9053" y="-144.8" font-family="Helvetica,sans-Serif" font-size="11.00" fill="#000000">3 &gt;</text>
<polygon fill="#000000" stroke="#000000" points="60.5,-139.7 60.5,-156.7 60.5,-156.7 60.5,-139.7 60.5,-139.7"/>
<polygon fill="#000000" stroke="#000000" points="111.5,-139.7 111.5,-156.7 111.5,-156.7 111.5,-139.7 111.5,-139.7"/>
</a>
</g>
</g>
<!-- alert&#45;&gt;person_summary -->
<g id="edge2" class="edge">
<title>alert:w&#45;&gt;person_summary:e</title>
<path fill="none" stroke="#000000" stroke-dasharray="5,2" d="M206.0076,-192.5286C194.1688,-184.2854 190.9055,-166.7 171.5,-166.7"/>
<polygon fill="#000000" stroke="#000000" points="212.3334,-194.4144 218.9715,-200.15 216.1667,-195.5572 220,-196.7 220,-196.7 220,-196.7 216.1667,-195.5572 221.0285,-193.25 212.3334,-194.4144 212.3334,-194.4144"/>
<ellipse fill="none" stroke="#000000" cx="209.2668" cy="-193.5002" rx="3.2" ry="3.2"/>
</g>
<!-- audit_event -->
<g id="node4" class="node">
<title>audit_event</title>
<g id="a_node4"><a xlink:href="../../tables/audit_event.html" xlink:title="audit_event" target="_top">
<polygon fill="#ffffff" stroke="transparent" points="485,-164.7 485,-518.7 797,-518.7 797,-164.7 485,-164.7"/>
<polygon fill="#f5f5f5" stroke="transparent" points="487,-493.7 487,-516.7 795,-516.7 795,-493.7 487,-493.7"/>
<polygon fill="none" stroke="#000000" points="487,-493.7 487,-516.7 795,-516.7 795,-493.7 487,-493.7"/>
<text text-anchor="start" x="492" y="-502.3" font-family="Helvetica,sans-Serif" font-weight="bold" font-size="11.00" fill="#000000">audit_event</text>
<text text-anchor="start" x="760.0437" y="-501.8" font-family="Helvetica,sans-Serif" font-size="11.00" fill="#000000">[table]</text>
<polygon fill="#ffffff" stroke="transparent" points="487,-471.7 487,-493.7 701,-493.7 701,-471.7 487,-471.7"/>
<polygon fill="none" stroke="#000000" points="487,-471.7 487,-493.7 701,-493.7 701,-471.7 487,-471.7"/>
<text text-anchor="start" x="507" y="-478.8" font-family="Helvetica,sans-Serif" font-size="11.00" fill="#000000">action</text>
<polygon fill="none" stroke="#000000" points="701,-471.7 701,-493.7 795,-493.7 795,-471.7 701,-471.7"/>
<text text-anchor="start" x="704" y="-479.4" font-family="Helvetica,sans-Serif" font-size="11.00" fill="#000000">varchar[40]</text>
<polygon fill="none" stroke="#000000" points="487,-449.7 487,-471.7 701,-471.7 701,-449.7 487,-449.7"/>
<text text-anchor="start" x="507" y="-456.8" font-family="Helvetica,sans-Serif" font-size="11.00" fill="#000000">description</text>
<polygon fill="none" stroke="#000000" points="701,-449.7 701,-471.7 795,-471.7 795,-449.7 701,-449.7"/>
<text text-anchor="start" x="704" y="-457.4" font-family="Helvetica,sans-Serif" font-size="11.00" fill="#000000">text[2147483647]</text>
<polygon fill="#ffffff" stroke="transparent" points="487,-427.7 487,-449.7 701,-449.7 701,-427.7 487,-427.7"/>
<polygon fill="none" stroke="#000000" points="487,-427.7 487,-449.7 701,-449.7 701,-427.7 487,-427.7"/>
<text text-anchor="start" x="507" y="-434.8" font-family="Helvetica,sans-Serif" font-size="11.00" fill="#000000">actioned_at</text>
<polygon fill="none" stroke="#000000" points="701,-427.7 701,-449.7 795,-449.7 795,-427.7 701,-427.7"/>
<text text-anchor="start" x="704" y="-435.4" font-family="Helvetica,sans-Serif" font-size="11.00" fill="#000000">timestamp[29,6]</text>
<polygon fill="#ffffff" stroke="transparent" points="487,-405.7 487,-427.7 701,-427.7 701,-405.7 487,-405.7"/>
<polygon fill="none" stroke="#000000" points="487,-405.7 487,-427.7 701,-427.7 701,-405.7 487,-405.7"/>
<text text-anchor="start" x="507" y="-412.8" font-family="Helvetica,sans-Serif" font-size="11.00" fill="#000000">actioned_by</text>
<polygon fill="none" stroke="#000000" points="701,-405.7 701,-427.7 795,-427.7 795,-405.7 701,-405.7"/>
<text text-anchor="start" x="704" y="-413.4" font-family="Helvetica,sans-Serif" font-size="11.00" fill="#000000">varchar[64]</text>
<polygon fill="none" stroke="#000000" points="487,-383.7 487,-405.7 701,-405.7 701,-383.7 487,-383.7"/>
<text text-anchor="start" x="507" y="-390.8" font-family="Helvetica,sans-Serif" font-size="11.00" fill="#000000">actioned_by_display_name</text>
<polygon fill="none" stroke="#000000" points="701,-383.7 701,-405.7 795,-405.7 795,-383.7 701,-383.7"/>
<text text-anchor="start" x="704" y="-391.4" font-family="Helvetica,sans-Serif" font-size="11.00" fill="#000000">varchar[255]</text>
<polygon fill="none" stroke="#000000" points="487,-361.7 487,-383.7 701,-383.7 701,-361.7 487,-361.7"/>
<text text-anchor="start" x="507" y="-368.8" font-family="Helvetica,sans-Serif" font-size="11.00" fill="#000000">source</text>
<polygon fill="none" stroke="#000000" points="701,-361.7 701,-383.7 795,-383.7 795,-361.7 701,-361.7"/>
<text text-anchor="start" x="704" y="-369.4" font-family="Helvetica,sans-Serif" font-size="11.00" fill="#000000">varchar[12]</text>
<polygon fill="none" stroke="#000000" points="487,-339.7 487,-361.7 701,-361.7 701,-339.7 487,-339.7"/>
<text text-anchor="start" x="507" y="-346.8" font-family="Helvetica,sans-Serif" font-size="11.00" fill="#000000">active_case_load_id</text>
<polygon fill="none" stroke="#000000" points="701,-339.7 701,-361.7 795,-361.7 795,-339.7 701,-339.7"/>
<text text-anchor="start" x="704" y="-347.4" font-family="Helvetica,sans-Serif" font-size="11.00" fill="#000000">varchar[6]</text>
<polygon fill="none" stroke="#000000" points="487,-317.7 487,-339.7 701,-339.7 701,-317.7 487,-317.7"/>
<text text-anchor="start" x="507" y="-324.8" font-family="Helvetica,sans-Serif" font-size="11.00" fill="#000000">description_updated</text>
<polygon fill="none" stroke="#000000" points="701,-317.7 701,-339.7 795,-339.7 795,-317.7 701,-317.7"/>
<text text-anchor="start" x="704" y="-325.4" font-family="Helvetica,sans-Serif" font-size="11.00" fill="#000000">bool[1]</text>
<polygon fill="none" stroke="#000000" points="487,-295.7 487,-317.7 701,-317.7 701,-295.7 487,-295.7"/>
<text text-anchor="start" x="507" y="-302.8" font-family="Helvetica,sans-Serif" font-size="11.00" fill="#000000">authorised_by_updated</text>
<polygon fill="none" stroke="#000000" points="701,-295.7 701,-317.7 795,-317.7 795,-295.7 701,-295.7"/>
<text text-anchor="start" x="704" y="-303.4" font-family="Helvetica,sans-Serif" font-size="11.00" fill="#000000">bool[1]</text>
<polygon fill="none" stroke="#000000" points="487,-273.7 487,-295.7 701,-295.7 701,-273.7 487,-273.7"/>
<text text-anchor="start" x="507" y="-280.8" font-family="Helvetica,sans-Serif" font-size="11.00" fill="#000000">active_from_updated</text>
<polygon fill="none" stroke="#000000" points="701,-273.7 701,-295.7 795,-295.7 795,-273.7 701,-273.7"/>
<text text-anchor="start" x="704" y="-281.4" font-family="Helvetica,sans-Serif" font-size="11.00" fill="#000000">bool[1]</text>
<polygon fill="none" stroke="#000000" points="487,-251.7 487,-273.7 701,-273.7 701,-251.7 487,-251.7"/>
<text text-anchor="start" x="507" y="-258.8" font-family="Helvetica,sans-Serif" font-size="11.00" fill="#000000">active_to_updated</text>
<polygon fill="none" stroke="#000000" points="701,-251.7 701,-273.7 795,-273.7 795,-251.7 701,-251.7"/>
<text text-anchor="start" x="704" y="-259.4" font-family="Helvetica,sans-Serif" font-size="11.00" fill="#000000">bool[1]</text>
<polygon fill="#ffffff" stroke="transparent" points="487,-229.7 487,-251.7 701,-251.7 701,-229.7 487,-229.7"/>
<polygon fill="none" stroke="#000000" points="487,-229.7 487,-251.7 701,-251.7 701,-229.7 487,-229.7"/>
<image xlink:href="../../images/foreignKeys.png" width="11px" height="12px" preserveAspectRatio="xMinYMin meet" x="492" y="-246.7"/>
<text text-anchor="start" x="507" y="-236.8" font-family="Helvetica,sans-Serif" font-size="11.00" fill="#000000">alert_id</text>
<polygon fill="none" stroke="#000000" points="701,-229.7 701,-251.7 795,-251.7 795,-229.7 701,-229.7"/>
<text text-anchor="start" x="703.9758" y="-237.4" font-family="Helvetica,sans-Serif" font-size="11.00" fill="#000000">uuid[2147483647]</text>
<polygon fill="none" stroke="#000000" points="487,-207.7 487,-229.7 701,-229.7 701,-207.7 487,-207.7"/>
<text text-anchor="start" x="507" y="-214.8" font-family="Helvetica,sans-Serif" font-size="11.00" fill="#000000">version</text>
<polygon fill="none" stroke="#000000" points="701,-207.7 701,-229.7 795,-229.7 795,-207.7 701,-207.7"/>
<text text-anchor="start" x="704" y="-215.4" font-family="Helvetica,sans-Serif" font-size="11.00" fill="#000000">int4[10]</text>
<polygon fill="none" stroke="#000000" points="487,-185.7 487,-207.7 701,-207.7 701,-185.7 487,-185.7"/>
<image xlink:href="../../images/primaryKeys.png" width="11px" height="12px" preserveAspectRatio="xMinYMin meet" x="492" y="-202.7"/>
<text text-anchor="start" x="507" y="-192.8" font-family="Helvetica,sans-Serif" font-size="11.00" fill="#000000">id</text>
<polygon fill="none" stroke="#000000" points="701,-185.7 701,-207.7 795,-207.7 795,-185.7 701,-185.7"/>
<text text-anchor="start" x="703.9758" y="-193.4" font-family="Helvetica,sans-Serif" font-size="11.00" fill="#000000">uuid[2147483647]</text>
<polygon fill="#ffffff" stroke="transparent" points="487,-166.7 487,-185.7 795,-185.7 795,-166.7 487,-166.7"/>
<polygon fill="none" stroke="#000000" points="487,-166.7 487,-185.7 795,-185.7 795,-166.7 487,-166.7"/>
<polygon fill="#ffffff" stroke="transparent" points="488,-167.7 488,-184.7 593,-184.7 593,-167.7 488,-167.7"/>
<text text-anchor="start" x="490" y="-172.8" font-family="Helvetica,sans-Serif" font-size="11.00" fill="#000000">&lt; 1</text>
<polygon fill="#ffffff" stroke="transparent" points="593,-167.7 593,-184.7 689,-184.7 689,-167.7 593,-167.7"/>
<text text-anchor="start" x="637.9431" y="-172.8" font-family="Helvetica,sans-Serif" font-size="11.00" fill="#000000"> &#160;</text>
<polygon fill="#ffffff" stroke="transparent" points="689,-167.7 689,-184.7 794,-184.7 794,-167.7 689,-167.7"/>
<text text-anchor="start" x="776.4053" y="-172.8" font-family="Helvetica,sans-Serif" font-size="11.00" fill="#000000">0 &gt;</text>
<polygon fill="#000000" stroke="#000000" points="593,-167.7 593,-184.7 593,-184.7 593,-167.7 593,-167.7"/>
<polygon fill="#000000" stroke="#000000" points="689,-167.7 689,-184.7 689,-184.7 689,-167.7 689,-167.7"/>
<polygon fill="none" stroke="#000000" stroke-width="2" points="486,-165.7 486,-517.7 796,-517.7 796,-165.7 486,-165.7"/>
</a>
</g>
</g>
<!-- audit_event&#45;&gt;alert -->
<g id="edge3" class="edge">
<title>audit_event:w&#45;&gt;alert:e</title>
<path fill="none" stroke="#000000" d="M472.276,-240.7C460.2815,-240.7 452.8229,-240.7 436,-240.7"/>
<polygon fill="#000000" stroke="#000000" points="479,-240.7001 487,-244.3 483,-240.7 487,-240.7 487,-240.7 487,-240.7 483,-240.7 487,-237.1 479,-240.7001 479,-240.7001"/>
<ellipse fill="none" stroke="#000000" cx="475.8" cy="-240.7001" rx="3.2" ry="3.2"/>
</g>
</g>
</svg>
