<?xml version="1.0" encoding="UTF-8" standalone="no"?>
<!DOCTYPE svg PUBLIC "-//W3C//DTD SVG 1.1//EN"
 "http://www.w3.org/Graphics/SVG/1.1/DTD/svg11.dtd">
<!-- Generated by graphviz version 2.40.1 (20161225.0304)
 -->
<!-- Title: twoDegreesRelationshipsDiagram Pages: 1 -->
<svg width="764pt" height="531pt"
 viewBox="0.00 0.00 764.00 530.70" xmlns="http://www.w3.org/2000/svg" xmlns:xlink="http://www.w3.org/1999/xlink">
<g id="graph0" class="graph" transform="scale(1 1) rotate(0) translate(4 526.7)">
<title>twoDegreesRelationshipsDiagram</title>
<polygon fill="#ffffff" stroke="transparent" points="-4,4 -4,-526.7 760,-526.7 760,4 -4,4"/>
<text text-anchor="middle" x="72.4936" y="-7.3" font-family="Helvetica,sans-Serif" font-size="11.00" fill="#000000">Generated by SchemaSpy</text>
<!-- alert -->
<g id="node1" class="node">
<title>alert</title>
<g id="a_node1"><a xlink:href="../../tables/alert.html" xlink:title="alert" target="_top">
<polygon fill="#ffffff" stroke="transparent" points="171,-38.2 171,-275.2 387,-275.2 387,-38.2 171,-38.2"/>
<polygon fill="#f5f5f5" stroke="transparent" points="171,-251.7 171,-274.7 387,-274.7 387,-251.7 171,-251.7"/>
<polygon fill="none" stroke="#000000" points="171,-251.7 171,-274.7 387,-274.7 387,-251.7 171,-251.7"/>
<text text-anchor="start" x="176" y="-260.3" font-family="Helvetica,sans-Serif" font-weight="bold" font-size="11.00" fill="#000000">alert</text>
<text text-anchor="start" x="352.0437" y="-259.8" font-family="Helvetica,sans-Serif" font-size="11.00" fill="#000000">[table]</text>
<polygon fill="none" stroke="#000000" points="171,-229.7 171,-251.7 387,-251.7 387,-229.7 171,-229.7"/>
<image xlink:href="../../images/primaryKeys.png" width="11px" height="12px" preserveAspectRatio="xMinYMin meet" x="176" y="-246.7"/>
<text text-anchor="start" x="191" y="-236.8" font-family="Helvetica,sans-Serif" font-size="11.00" fill="#000000">id</text>
<polygon fill="#ffffff" stroke="transparent" points="171,-207.7 171,-229.7 387,-229.7 387,-207.7 171,-207.7"/>
<polygon fill="none" stroke="#000000" points="171,-207.7 171,-229.7 387,-229.7 387,-207.7 171,-207.7"/>
<image xlink:href="../../images/foreignKeys.png" width="11px" height="12px" preserveAspectRatio="xMinYMin meet" x="176" y="-224.7"/>
<text text-anchor="start" x="191" y="-214.8" font-family="Helvetica,sans-Serif" font-size="11.00" fill="#000000">alert_code_id</text>
<polygon fill="#ffffff" stroke="transparent" points="171,-185.7 171,-207.7 387,-207.7 387,-185.7 171,-185.7"/>
<polygon fill="none" stroke="#000000" points="171,-185.7 171,-207.7 387,-207.7 387,-185.7 171,-185.7"/>
<image xlink:href="../../images/foreignKeys.png" width="11px" height="12px" preserveAspectRatio="xMinYMin meet" x="176" y="-202.7"/>
<text text-anchor="start" x="191" y="-192.8" font-family="Helvetica,sans-Serif" font-size="11.00" fill="#000000">prison_number</text>
<polygon fill="#ffffff" stroke="transparent" points="171,-163.7 171,-185.7 387,-185.7 387,-163.7 171,-163.7"/>
<polygon fill="none" stroke="#000000" points="171,-163.7 171,-185.7 387,-185.7 387,-163.7 171,-163.7"/>
<text text-anchor="start" x="191" y="-170.8" font-family="Helvetica,sans-Serif" font-size="11.00" fill="#000000">active_from</text>
<polygon fill="#ffffff" stroke="transparent" points="171,-141.7 171,-163.7 387,-163.7 387,-141.7 171,-141.7"/>
<polygon fill="none" stroke="#000000" points="171,-141.7 171,-163.7 387,-163.7 387,-141.7 171,-141.7"/>
<text text-anchor="start" x="191" y="-148.8" font-family="Helvetica,sans-Serif" font-size="11.00" fill="#000000">active_to</text>
<polygon fill="#ffffff" stroke="transparent" points="171,-119.7 171,-141.7 387,-141.7 387,-119.7 171,-119.7"/>
<polygon fill="none" stroke="#000000" points="171,-119.7 171,-141.7 387,-141.7 387,-119.7 171,-119.7"/>
<text text-anchor="start" x="191" y="-126.8" font-family="Helvetica,sans-Serif" font-size="11.00" fill="#000000">deleted_at</text>
<polygon fill="#ffffff" stroke="transparent" points="171,-97.7 171,-119.7 387,-119.7 387,-97.7 171,-97.7"/>
<polygon fill="none" stroke="#000000" points="171,-97.7 171,-119.7 387,-119.7 387,-97.7 171,-97.7"/>
<text text-anchor="start" x="191" y="-104.8" font-family="Helvetica,sans-Serif" font-size="11.00" fill="#000000">created_at</text>
<polygon fill="#ffffff" stroke="transparent" points="171,-75.7 171,-97.7 387,-97.7 387,-75.7 171,-75.7"/>
<polygon fill="none" stroke="#000000" points="171,-75.7 171,-97.7 387,-97.7 387,-75.7 171,-75.7"/>
<text text-anchor="start" x="191" y="-82.8" font-family="Helvetica,sans-Serif" font-size="11.00" fill="#000000">last_modified_at</text>
<polygon fill="none" stroke="#000000" points="171,-56.7 171,-75.7 387,-75.7 387,-56.7 171,-56.7"/>
<text text-anchor="start" x="174" y="-62.8" font-family="Helvetica,sans-Serif" font-size="11.00" fill="#000000">...</text>
<polygon fill="#ffffff" stroke="transparent" points="171,-37.7 171,-56.7 387,-56.7 387,-37.7 171,-37.7"/>
<polygon fill="none" stroke="#000000" points="171,-37.7 171,-56.7 387,-56.7 387,-37.7 171,-37.7"/>
<polygon fill="#ffffff" stroke="transparent" points="172,-38.7 172,-55.7 247,-55.7 247,-38.7 172,-38.7"/>
<text text-anchor="start" x="174" y="-43.8" font-family="Helvetica,sans-Serif" font-size="11.00" fill="#000000">&lt; 1</text>
<polygon fill="#ffffff" stroke="transparent" points="247,-38.7 247,-55.7 312,-55.7 312,-38.7 247,-38.7"/>
<text text-anchor="start" x="276.4431" y="-43.8" font-family="Helvetica,sans-Serif" font-size="11.00" fill="#000000"> &#160;</text>
<polygon fill="#ffffff" stroke="transparent" points="312,-38.7 312,-55.7 386,-55.7 386,-38.7 312,-38.7"/>
<text text-anchor="start" x="368.4053" y="-43.8" font-family="Helvetica,sans-Serif" font-size="11.00" fill="#000000">1 &gt;</text>
<polygon fill="#000000" stroke="#000000" points="247,-38.7 247,-55.7 247,-55.7 247,-38.7 247,-38.7"/>
<polygon fill="#000000" stroke="#000000" points="312,-38.7 312,-55.7 312,-55.7 312,-38.7 312,-38.7"/>
</a>
</g>
</g>
<!-- alert_code -->
<g id="node2" class="node">
<title>alert_code</title>
<g id="a_node2"><a xlink:href="../../tables/alert_code.html" xlink:title="alert_code" target="_top">
<polygon fill="#ffffff" stroke="transparent" points="8,-191.2 8,-252.2 122,-252.2 122,-191.2 8,-191.2"/>
<polygon fill="#f5f5f5" stroke="transparent" points="8,-228.7 8,-251.7 122,-251.7 122,-228.7 8,-228.7"/>
<polygon fill="none" stroke="#000000" points="8,-228.7 8,-251.7 122,-251.7 122,-228.7 8,-228.7"/>
<text text-anchor="start" x="13" y="-237.3" font-family="Helvetica,sans-Serif" font-weight="bold" font-size="11.00" fill="#000000">alert_code</text>
<text text-anchor="start" x="87.5219" y="-236.8" font-family="Helvetica,sans-Serif" font-size="11.00" fill="#000000">[table]</text>
<polygon fill="none" stroke="#000000" points="8,-209.7 8,-228.7 122,-228.7 122,-209.7 8,-209.7"/>
<text text-anchor="start" x="11" y="-215.8" font-family="Helvetica,sans-Serif" font-size="11.00" fill="#000000">...</text>
<polygon fill="#ffffff" stroke="transparent" points="8,-190.7 8,-209.7 122,-209.7 122,-190.7 8,-190.7"/>
<polygon fill="none" stroke="#000000" points="8,-190.7 8,-209.7 122,-209.7 122,-190.7 8,-190.7"/>
<polygon fill="#ffffff" stroke="transparent" points="9,-191.7 9,-208.7 37,-208.7 37,-191.7 9,-191.7"/>
<text text-anchor="start" x="11" y="-196.8" font-family="Helvetica,sans-Serif" font-size="11.00" fill="#000000">&lt; 1</text>
<polygon fill="#ffffff" stroke="transparent" points="37,-191.7 37,-208.7 94,-208.7 94,-191.7 37,-191.7"/>
<text text-anchor="start" x="43.1903" y="-196.8" font-family="Helvetica,sans-Serif" font-size="11.00" fill="#000000">213 rows</text>
<polygon fill="#ffffff" stroke="transparent" points="94,-191.7 94,-208.7 121,-208.7 121,-191.7 94,-191.7"/>
<text text-anchor="start" x="103.4053" y="-196.8" font-family="Helvetica,sans-Serif" font-size="11.00" fill="#000000">2 &gt;</text>
<polygon fill="#000000" stroke="#000000" points="37,-191.7 37,-208.7 37,-208.7 37,-191.7 37,-191.7"/>
<polygon fill="#000000" stroke="#000000" points="94,-191.7 94,-208.7 94,-208.7 94,-191.7 94,-191.7"/>
</a>
</g>
</g>
<!-- alert&#45;&gt;alert_code -->
<g id="edge1" class="edge">
<title>alert:w&#45;&gt;alert_code:e</title>
<path fill="none" stroke="#000000" d="M156.4909,-218.7C145.1774,-218.7 137.9931,-218.7 122,-218.7"/>
<polygon fill="#000000" stroke="#000000" points="163,-218.7001 171,-222.3 167,-218.7 171,-218.7 171,-218.7 171,-218.7 167,-218.7 171,-215.1 163,-218.7001 163,-218.7001"/>
<ellipse fill="none" stroke="#000000" cx="159.8" cy="-218.7001" rx="3.2" ry="3.2"/>
</g>
<!-- audit_event -->
<g id="node3" class="node">
<title>audit_event</title>
<g id="a_node3"><a xlink:href="../../tables/audit_event.html" xlink:title="audit_event" target="_top">
<polygon fill="#ffffff" stroke="transparent" points="436,-164.7 436,-518.7 748,-518.7 748,-164.7 436,-164.7"/>
<polygon fill="#f5f5f5" stroke="transparent" points="438,-493.7 438,-516.7 746,-516.7 746,-493.7 438,-493.7"/>
<polygon fill="none" stroke="#000000" points="438,-493.7 438,-516.7 746,-516.7 746,-493.7 438,-493.7"/>
<text text-anchor="start" x="443" y="-502.3" font-family="Helvetica,sans-Serif" font-weight="bold" font-size="11.00" fill="#000000">audit_event</text>
<text text-anchor="start" x="711.0437" y="-501.8" font-family="Helvetica,sans-Serif" font-size="11.00" fill="#000000">[table]</text>
<polygon fill="#ffffff" stroke="transparent" points="438,-471.7 438,-493.7 652,-493.7 652,-471.7 438,-471.7"/>
<polygon fill="none" stroke="#000000" points="438,-471.7 438,-493.7 652,-493.7 652,-471.7 438,-471.7"/>
<text text-anchor="start" x="458" y="-478.8" font-family="Helvetica,sans-Serif" font-size="11.00" fill="#000000">action</text>
<polygon fill="none" stroke="#000000" points="652,-471.7 652,-493.7 746,-493.7 746,-471.7 652,-471.7"/>
<text text-anchor="start" x="655" y="-479.4" font-family="Helvetica,sans-Serif" font-size="11.00" fill="#000000">varchar[40]</text>
<polygon fill="none" stroke="#000000" points="438,-449.7 438,-471.7 652,-471.7 652,-449.7 438,-449.7"/>
<text text-anchor="start" x="458" y="-456.8" font-family="Helvetica,sans-Serif" font-size="11.00" fill="#000000">description</text>
<polygon fill="none" stroke="#000000" points="652,-449.7 652,-471.7 746,-471.7 746,-449.7 652,-449.7"/>
<text text-anchor="start" x="655" y="-457.4" font-family="Helvetica,sans-Serif" font-size="11.00" fill="#000000">text[2147483647]</text>
<polygon fill="#ffffff" stroke="transparent" points="438,-427.7 438,-449.7 652,-449.7 652,-427.7 438,-427.7"/>
<polygon fill="none" stroke="#000000" points="438,-427.7 438,-449.7 652,-449.7 652,-427.7 438,-427.7"/>
<text text-anchor="start" x="458" y="-434.8" font-family="Helvetica,sans-Serif" font-size="11.00" fill="#000000">actioned_at</text>
<polygon fill="none" stroke="#000000" points="652,-427.7 652,-449.7 746,-449.7 746,-427.7 652,-427.7"/>
<text text-anchor="start" x="655" y="-435.4" font-family="Helvetica,sans-Serif" font-size="11.00" fill="#000000">timestamp[29,6]</text>
<polygon fill="#ffffff" stroke="transparent" points="438,-405.7 438,-427.7 652,-427.7 652,-405.7 438,-405.7"/>
<polygon fill="none" stroke="#000000" points="438,-405.7 438,-427.7 652,-427.7 652,-405.7 438,-405.7"/>
<text text-anchor="start" x="458" y="-412.8" font-family="Helvetica,sans-Serif" font-size="11.00" fill="#000000">actioned_by</text>
<polygon fill="none" stroke="#000000" points="652,-405.7 652,-427.7 746,-427.7 746,-405.7 652,-405.7"/>
<text text-anchor="start" x="655" y="-413.4" font-family="Helvetica,sans-Serif" font-size="11.00" fill="#000000">varchar[64]</text>
<polygon fill="none" stroke="#000000" points="438,-383.7 438,-405.7 652,-405.7 652,-383.7 438,-383.7"/>
<text text-anchor="start" x="458" y="-390.8" font-family="Helvetica,sans-Serif" font-size="11.00" fill="#000000">actioned_by_display_name</text>
<polygon fill="none" stroke="#000000" points="652,-383.7 652,-405.7 746,-405.7 746,-383.7 652,-383.7"/>
<text text-anchor="start" x="655" y="-391.4" font-family="Helvetica,sans-Serif" font-size="11.00" fill="#000000">varchar[255]</text>
<polygon fill="none" stroke="#000000" points="438,-361.7 438,-383.7 652,-383.7 652,-361.7 438,-361.7"/>
<text text-anchor="start" x="458" y="-368.8" font-family="Helvetica,sans-Serif" font-size="11.00" fill="#000000">source</text>
<polygon fill="none" stroke="#000000" points="652,-361.7 652,-383.7 746,-383.7 746,-361.7 652,-361.7"/>
<text text-anchor="start" x="655" y="-369.4" font-family="Helvetica,sans-Serif" font-size="11.00" fill="#000000">varchar[12]</text>
<polygon fill="none" stroke="#000000" points="438,-339.7 438,-361.7 652,-361.7 652,-339.7 438,-339.7"/>
<text text-anchor="start" x="458" y="-346.8" font-family="Helvetica,sans-Serif" font-size="11.00" fill="#000000">active_case_load_id</text>
<polygon fill="none" stroke="#000000" points="652,-339.7 652,-361.7 746,-361.7 746,-339.7 652,-339.7"/>
<text text-anchor="start" x="655" y="-347.4" font-family="Helvetica,sans-Serif" font-size="11.00" fill="#000000">varchar[6]</text>
<polygon fill="none" stroke="#000000" points="438,-317.7 438,-339.7 652,-339.7 652,-317.7 438,-317.7"/>
<text text-anchor="start" x="458" y="-324.8" font-family="Helvetica,sans-Serif" font-size="11.00" fill="#000000">description_updated</text>
<polygon fill="none" stroke="#000000" points="652,-317.7 652,-339.7 746,-339.7 746,-317.7 652,-317.7"/>
<text text-anchor="start" x="655" y="-325.4" font-family="Helvetica,sans-Serif" font-size="11.00" fill="#000000">bool[1]</text>
<polygon fill="none" stroke="#000000" points="438,-295.7 438,-317.7 652,-317.7 652,-295.7 438,-295.7"/>
<text text-anchor="start" x="458" y="-302.8" font-family="Helvetica,sans-Serif" font-size="11.00" fill="#000000">authorised_by_updated</text>
<polygon fill="none" stroke="#000000" points="652,-295.7 652,-317.7 746,-317.7 746,-295.7 652,-295.7"/>
<text text-anchor="start" x="655" y="-303.4" font-family="Helvetica,sans-Serif" font-size="11.00" fill="#000000">bool[1]</text>
<polygon fill="none" stroke="#000000" points="438,-273.7 438,-295.7 652,-295.7 652,-273.7 438,-273.7"/>
<text text-anchor="start" x="458" y="-280.8" font-family="Helvetica,sans-Serif" font-size="11.00" fill="#000000">active_from_updated</text>
<polygon fill="none" stroke="#000000" points="652,-273.7 652,-295.7 746,-295.7 746,-273.7 652,-273.7"/>
<text text-anchor="start" x="655" y="-281.4" font-family="Helvetica,sans-Serif" font-size="11.00" fill="#000000">bool[1]</text>
<polygon fill="none" stroke="#000000" points="438,-251.7 438,-273.7 652,-273.7 652,-251.7 438,-251.7"/>
<text text-anchor="start" x="458" y="-258.8" font-family="Helvetica,sans-Serif" font-size="11.00" fill="#000000">active_to_updated</text>
<polygon fill="none" stroke="#000000" points="652,-251.7 652,-273.7 746,-273.7 746,-251.7 652,-251.7"/>
<text text-anchor="start" x="655" y="-259.4" font-family="Helvetica,sans-Serif" font-size="11.00" fill="#000000">bool[1]</text>
<polygon fill="#ffffff" stroke="transparent" points="438,-229.7 438,-251.7 652,-251.7 652,-229.7 438,-229.7"/>
<polygon fill="none" stroke="#000000" points="438,-229.7 438,-251.7 652,-251.7 652,-229.7 438,-229.7"/>
<image xlink:href="../../images/foreignKeys.png" width="11px" height="12px" preserveAspectRatio="xMinYMin meet" x="443" y="-246.7"/>
<text text-anchor="start" x="458" y="-236.8" font-family="Helvetica,sans-Serif" font-size="11.00" fill="#000000">alert_id</text>
<polygon fill="none" stroke="#000000" points="652,-229.7 652,-251.7 746,-251.7 746,-229.7 652,-229.7"/>
<text text-anchor="start" x="654.9758" y="-237.4" font-family="Helvetica,sans-Serif" font-size="11.00" fill="#000000">uuid[2147483647]</text>
<polygon fill="none" stroke="#000000" points="438,-207.7 438,-229.7 652,-229.7 652,-207.7 438,-207.7"/>
<text text-anchor="start" x="458" y="-214.8" font-family="Helvetica,sans-Serif" font-size="11.00" fill="#000000">version</text>
<polygon fill="none" stroke="#000000" points="652,-207.7 652,-229.7 746,-229.7 746,-207.7 652,-207.7"/>
<text text-anchor="start" x="655" y="-215.4" font-family="Helvetica,sans-Serif" font-size="11.00" fill="#000000">int4[10]</text>
<polygon fill="none" stroke="#000000" points="438,-185.7 438,-207.7 652,-207.7 652,-185.7 438,-185.7"/>
<image xlink:href="../../images/primaryKeys.png" width="11px" height="12px" preserveAspectRatio="xMinYMin meet" x="443" y="-202.7"/>
<text text-anchor="start" x="458" y="-192.8" font-family="Helvetica,sans-Serif" font-size="11.00" fill="#000000">id</text>
<polygon fill="none" stroke="#000000" points="652,-185.7 652,-207.7 746,-207.7 746,-185.7 652,-185.7"/>
<text text-anchor="start" x="654.9758" y="-193.4" font-family="Helvetica,sans-Serif" font-size="11.00" fill="#000000">uuid[2147483647]</text>
<polygon fill="#ffffff" stroke="transparent" points="438,-166.7 438,-185.7 746,-185.7 746,-166.7 438,-166.7"/>
<polygon fill="none" stroke="#000000" points="438,-166.7 438,-185.7 746,-185.7 746,-166.7 438,-166.7"/>
<polygon fill="#ffffff" stroke="transparent" points="439,-167.7 439,-184.7 544,-184.7 544,-167.7 439,-167.7"/>
<text text-anchor="start" x="441" y="-172.8" font-family="Helvetica,sans-Serif" font-size="11.00" fill="#000000">&lt; 1</text>
<polygon fill="#ffffff" stroke="transparent" points="544,-167.7 544,-184.7 640,-184.7 640,-167.7 544,-167.7"/>
<text text-anchor="start" x="588.9431" y="-172.8" font-family="Helvetica,sans-Serif" font-size="11.00" fill="#000000"> &#160;</text>
<polygon fill="#ffffff" stroke="transparent" points="640,-167.7 640,-184.7 745,-184.7 745,-167.7 640,-167.7"/>
<text text-anchor="start" x="727.4053" y="-172.8" font-family="Helvetica,sans-Serif" font-size="11.00" fill="#000000">0 &gt;</text>
<polygon fill="#000000" stroke="#000000" points="544,-167.7 544,-184.7 544,-184.7 544,-167.7 544,-167.7"/>
<polygon fill="#000000" stroke="#000000" points="640,-167.7 640,-184.7 640,-184.7 640,-167.7 640,-167.7"/>
<polygon fill="none" stroke="#000000" stroke-width="2" points="437,-165.7 437,-517.7 747,-517.7 747,-165.7 437,-165.7"/>
</a>
</g>
</g>
<!-- audit_event&#45;&gt;alert -->
<g id="edge2" class="edge">
<title>audit_event:w&#45;&gt;alert:e</title>
<path fill="none" stroke="#000000" d="M423.276,-240.7C411.2815,-240.7 403.8229,-240.7 387,-240.7"/>
<polygon fill="#000000" stroke="#000000" points="430,-240.7001 438,-244.3 434,-240.7 438,-240.7 438,-240.7 438,-240.7 434,-240.7 438,-237.1 430,-240.7001 430,-240.7001"/>
<ellipse fill="none" stroke="#000000" cx="426.8" cy="-240.7001" rx="3.2" ry="3.2"/>
</g>
</g>
</svg>
