<?xml version="1.0" encoding="UTF-8" standalone="no"?>
<!DOCTYPE svg PUBLIC "-//W3C//DTD SVG 1.1//EN"
 "http://www.w3.org/Graphics/SVG/1.1/DTD/svg11.dtd">
<!-- Generated by graphviz version 2.40.1 (20161225.0304)
 -->
<!-- Title: twoDegreesRelationshipsDiagramImplied Pages: 1 -->
<svg width="774pt" height="531pt"
 viewBox="0.00 0.00 774.00 530.70" xmlns="http://www.w3.org/2000/svg" xmlns:xlink="http://www.w3.org/1999/xlink">
<g id="graph0" class="graph" transform="scale(1 1) rotate(0) translate(4 526.7)">
<title>twoDegreesRelationshipsDiagramImplied</title>
<polygon fill="#ffffff" stroke="transparent" points="-4,4 -4,-526.7 770,-526.7 770,4 -4,4"/>
<text text-anchor="middle" x="72.4936" y="-7.3" font-family="Helvetica,sans-Serif" font-size="11.00" fill="#000000">Generated by SchemaSpy</text>
<!-- alert -->
<g id="node1" class="node">
<title>alert</title>
<g id="a_node1"><a xlink:href="../../tables/alert.html" xlink:title="alert" target="_top">
<polygon fill="#ffffff" stroke="transparent" points="211,-38.2 211,-275.2 412,-275.2 412,-38.2 211,-38.2"/>
<polygon fill="#f5f5f5" stroke="transparent" points="211.5,-251.7 211.5,-274.7 412.5,-274.7 412.5,-251.7 211.5,-251.7"/>
<polygon fill="none" stroke="#000000" points="211.5,-251.7 211.5,-274.7 412.5,-274.7 412.5,-251.7 211.5,-251.7"/>
<text text-anchor="start" x="216.5" y="-260.3" font-family="Helvetica,sans-Serif" font-weight="bold" font-size="11.00" fill="#000000">alert</text>
<text text-anchor="start" x="377.5437" y="-259.8" font-family="Helvetica,sans-Serif" font-size="11.00" fill="#000000">[table]</text>
<polygon fill="none" stroke="#000000" points="211.5,-229.7 211.5,-251.7 412.5,-251.7 412.5,-229.7 211.5,-229.7"/>
<image xlink:href="../../images/primaryKeys.png" width="11px" height="12px" preserveAspectRatio="xMinYMin meet" x="216.5" y="-246.7"/>
<text text-anchor="start" x="231.5" y="-236.8" font-family="Helvetica,sans-Serif" font-size="11.00" fill="#000000">id</text>
<polygon fill="#ffffff" stroke="transparent" points="211.5,-207.7 211.5,-229.7 412.5,-229.7 412.5,-207.7 211.5,-207.7"/>
<polygon fill="none" stroke="#000000" points="211.5,-207.7 211.5,-229.7 412.5,-229.7 412.5,-207.7 211.5,-207.7"/>
<image xlink:href="../../images/foreignKeys.png" width="11px" height="12px" preserveAspectRatio="xMinYMin meet" x="216.5" y="-224.7"/>
<text text-anchor="start" x="231.5" y="-214.8" font-family="Helvetica,sans-Serif" font-size="11.00" fill="#000000">alert_code_id</text>
<polygon fill="#ffffff" stroke="transparent" points="211.5,-185.7 211.5,-207.7 412.5,-207.7 412.5,-185.7 211.5,-185.7"/>
<polygon fill="none" stroke="#000000" points="211.5,-185.7 211.5,-207.7 412.5,-207.7 412.5,-185.7 211.5,-185.7"/>
<image xlink:href="../../images/foreignKeys.png" width="11px" height="12px" preserveAspectRatio="xMinYMin meet" x="216.5" y="-202.7"/>
<text text-anchor="start" x="231.5" y="-192.8" font-family="Helvetica,sans-Serif" font-size="11.00" fill="#000000">prison_number</text>
<polygon fill="#ffffff" stroke="transparent" points="211.5,-163.7 211.5,-185.7 412.5,-185.7 412.5,-163.7 211.5,-163.7"/>
<polygon fill="none" stroke="#000000" points="211.5,-163.7 211.5,-185.7 412.5,-185.7 412.5,-163.7 211.5,-163.7"/>
<text text-anchor="start" x="231.5" y="-170.8" font-family="Helvetica,sans-Serif" font-size="11.00" fill="#000000">active_from</text>
<polygon fill="#ffffff" stroke="transparent" points="211.5,-141.7 211.5,-163.7 412.5,-163.7 412.5,-141.7 211.5,-141.7"/>
<polygon fill="none" stroke="#000000" points="211.5,-141.7 211.5,-163.7 412.5,-163.7 412.5,-141.7 211.5,-141.7"/>
<text text-anchor="start" x="231.5" y="-148.8" font-family="Helvetica,sans-Serif" font-size="11.00" fill="#000000">active_to</text>
<polygon fill="#ffffff" stroke="transparent" points="211.5,-119.7 211.5,-141.7 412.5,-141.7 412.5,-119.7 211.5,-119.7"/>
<polygon fill="none" stroke="#000000" points="211.5,-119.7 211.5,-141.7 412.5,-141.7 412.5,-119.7 211.5,-119.7"/>
<text text-anchor="start" x="231.5" y="-126.8" font-family="Helvetica,sans-Serif" font-size="11.00" fill="#000000">deleted_at</text>
<polygon fill="#ffffff" stroke="transparent" points="211.5,-97.7 211.5,-119.7 412.5,-119.7 412.5,-97.7 211.5,-97.7"/>
<polygon fill="none" stroke="#000000" points="211.5,-97.7 211.5,-119.7 412.5,-119.7 412.5,-97.7 211.5,-97.7"/>
<text text-anchor="start" x="231.5" y="-104.8" font-family="Helvetica,sans-Serif" font-size="11.00" fill="#000000">created_at</text>
<polygon fill="#ffffff" stroke="transparent" points="211.5,-75.7 211.5,-97.7 412.5,-97.7 412.5,-75.7 211.5,-75.7"/>
<polygon fill="none" stroke="#000000" points="211.5,-75.7 211.5,-97.7 412.5,-97.7 412.5,-75.7 211.5,-75.7"/>
<text text-anchor="start" x="231.5" y="-82.8" font-family="Helvetica,sans-Serif" font-size="11.00" fill="#000000">last_modified_at</text>
<polygon fill="none" stroke="#000000" points="211.5,-56.7 211.5,-75.7 412.5,-75.7 412.5,-56.7 211.5,-56.7"/>
<text text-anchor="start" x="214.5" y="-62.8" font-family="Helvetica,sans-Serif" font-size="11.00" fill="#000000">...</text>
<polygon fill="#ffffff" stroke="transparent" points="211.5,-37.7 211.5,-56.7 305.5,-56.7 305.5,-37.7 211.5,-37.7"/>
<polygon fill="none" stroke="#000000" points="211.5,-37.7 211.5,-56.7 305.5,-56.7 305.5,-37.7 211.5,-37.7"/>
<text text-anchor="start" x="214.5" y="-43.8" font-family="Helvetica,sans-Serif" font-size="11.00" fill="#000000">&lt; 2</text>
<polygon fill="#ffffff" stroke="transparent" points="305.5,-37.7 305.5,-56.7 354.5,-56.7 354.5,-37.7 305.5,-37.7"/>
<polygon fill="none" stroke="#000000" points="305.5,-37.7 305.5,-56.7 354.5,-56.7 354.5,-37.7 305.5,-37.7"/>
<text text-anchor="start" x="345.3862" y="-43.8" font-family="Helvetica,sans-Serif" font-size="11.00" fill="#000000"> &#160;</text>
<polygon fill="#ffffff" stroke="transparent" points="354.5,-37.7 354.5,-56.7 412.5,-56.7 412.5,-37.7 354.5,-37.7"/>
<polygon fill="none" stroke="#000000" points="354.5,-37.7 354.5,-56.7 412.5,-56.7 412.5,-37.7 354.5,-37.7"/>
<text text-anchor="start" x="393.9053" y="-43.8" font-family="Helvetica,sans-Serif" font-size="11.00" fill="#000000">1 &gt;</text>
</a>
</g>
</g>
<!-- alert_code -->
<g id="node2" class="node">
<title>alert_code</title>
<g id="a_node2"><a xlink:href="../../tables/alert_code.html" xlink:title="alert_code" target="_top">
<polygon fill="#ffffff" stroke="transparent" points="30.5,-221.2 30.5,-282.2 139.5,-282.2 139.5,-221.2 30.5,-221.2"/>
<polygon fill="#f5f5f5" stroke="transparent" points="31,-258.7 31,-281.7 140,-281.7 140,-258.7 31,-258.7"/>
<polygon fill="none" stroke="#000000" points="31,-258.7 31,-281.7 140,-281.7 140,-258.7 31,-258.7"/>
<text text-anchor="start" x="36" y="-267.3" font-family="Helvetica,sans-Serif" font-weight="bold" font-size="11.00" fill="#000000">alert_code</text>
<text text-anchor="start" x="105.5219" y="-266.8" font-family="Helvetica,sans-Serif" font-size="11.00" fill="#000000">[table]</text>
<polygon fill="none" stroke="#000000" points="31,-239.7 31,-258.7 140,-258.7 140,-239.7 31,-239.7"/>
<text text-anchor="start" x="34" y="-245.8" font-family="Helvetica,sans-Serif" font-size="11.00" fill="#000000">...</text>
<polygon fill="#ffffff" stroke="transparent" points="31,-220.7 31,-239.7 79,-239.7 79,-220.7 31,-220.7"/>
<polygon fill="none" stroke="#000000" points="31,-220.7 31,-239.7 79,-239.7 79,-220.7 31,-220.7"/>
<text text-anchor="start" x="34" y="-226.8" font-family="Helvetica,sans-Serif" font-size="11.00" fill="#000000">&lt; 1</text>
<polygon fill="#ffffff" stroke="transparent" points="79,-220.7 79,-239.7 105,-239.7 105,-220.7 79,-220.7"/>
<polygon fill="none" stroke="#000000" points="79,-220.7 79,-239.7 105,-239.7 105,-220.7 79,-220.7"/>
<text text-anchor="start" x="95.8862" y="-226.8" font-family="Helvetica,sans-Serif" font-size="11.00" fill="#000000"> &#160;</text>
<polygon fill="#ffffff" stroke="transparent" points="105,-220.7 105,-239.7 140,-239.7 140,-220.7 105,-220.7"/>
<polygon fill="none" stroke="#000000" points="105,-220.7 105,-239.7 140,-239.7 140,-220.7 105,-220.7"/>
<text text-anchor="start" x="121.4053" y="-226.8" font-family="Helvetica,sans-Serif" font-size="11.00" fill="#000000">1 &gt;</text>
</a>
</g>
</g>
<!-- alert&#45;&gt;alert_code -->
<g id="edge1" class="edge">
<title>alert:w&#45;&gt;alert_code:e</title>
<path fill="none" stroke="#000000" d="M197.1338,-220.762C175.3952,-227.5399 168.9424,-248.7 140,-248.7"/>
<polygon fill="#000000" stroke="#000000" points="203.5812,-219.8367 212.0115,-222.2635 207.5406,-219.2683 211.5,-218.7 211.5,-218.7 211.5,-218.7 207.5406,-219.2683 210.9885,-215.1365 203.5812,-219.8367 203.5812,-219.8367"/>
<ellipse fill="none" stroke="#000000" cx="200.4136" cy="-220.2913" rx="3.2" ry="3.2"/>
</g>
<!-- person_summary -->
<g id="node3" class="node">
<title>person_summary</title>
<g id="a_node3"><a xlink:href="../../tables/person_summary.html" xlink:title="person_summary" target="_top">
<polygon fill="#ffffff" stroke="transparent" points="8,-139.2 8,-200.2 162,-200.2 162,-139.2 8,-139.2"/>
<polygon fill="#f5f5f5" stroke="transparent" points="8,-176.7 8,-199.7 162,-199.7 162,-176.7 8,-176.7"/>
<polygon fill="none" stroke="#000000" points="8,-176.7 8,-199.7 162,-199.7 162,-176.7 8,-176.7"/>
<text text-anchor="start" x="13" y="-185.3" font-family="Helvetica,sans-Serif" font-weight="bold" font-size="11.00" fill="#000000">person_summary</text>
<text text-anchor="start" x="127.5219" y="-184.8" font-family="Helvetica,sans-Serif" font-size="11.00" fill="#000000">[table]</text>
<polygon fill="none" stroke="#000000" points="8,-157.7 8,-176.7 162,-176.7 162,-157.7 8,-157.7"/>
<text text-anchor="start" x="11" y="-163.8" font-family="Helvetica,sans-Serif" font-size="11.00" fill="#000000">...</text>
<polygon fill="#ffffff" stroke="transparent" points="8,-138.7 8,-157.7 74,-157.7 74,-138.7 8,-138.7"/>
<polygon fill="none" stroke="#000000" points="8,-138.7 8,-157.7 74,-157.7 74,-138.7 8,-138.7"/>
<text text-anchor="start" x="11" y="-144.8" font-family="Helvetica,sans-Serif" font-size="11.00" fill="#000000"> &#160;</text>
<polygon fill="#ffffff" stroke="transparent" points="74,-138.7 74,-157.7 113,-157.7 113,-138.7 74,-138.7"/>
<polygon fill="none" stroke="#000000" points="74,-138.7 74,-157.7 113,-157.7 113,-138.7 74,-138.7"/>
<text text-anchor="start" x="103.8862" y="-144.8" font-family="Helvetica,sans-Serif" font-size="11.00" fill="#000000"> &#160;</text>
<polygon fill="#ffffff" stroke="transparent" points="113,-138.7 113,-157.7 162,-157.7 162,-138.7 113,-138.7"/>
<polygon fill="none" stroke="#000000" points="113,-138.7 113,-157.7 162,-157.7 162,-138.7 113,-138.7"/>
<text text-anchor="start" x="143.4053" y="-144.8" font-family="Helvetica,sans-Serif" font-size="11.00" fill="#000000">3 &gt;</text>
</a>
</g>
</g>
<!-- alert&#45;&gt;person_summary -->
<g id="edge2" class="edge">
<title>alert:w&#45;&gt;person_summary:e</title>
<path fill="none" stroke="#000000" stroke-dasharray="5,2" d="M197.633,-192.778C185.238,-184.6462 181.8967,-166.7 162,-166.7"/>
<polygon fill="#000000" stroke="#000000" points="203.802,-194.5227 210.5202,-200.1641 207.651,-195.6114 211.5,-196.7 211.5,-196.7 211.5,-196.7 207.651,-195.6114 212.4798,-193.2359 203.802,-194.5227 203.802,-194.5227"/>
<ellipse fill="none" stroke="#000000" cx="200.7228" cy="-193.6518" rx="3.2" ry="3.2"/>
</g>
<!-- audit_event -->
<g id="node4" class="node">
<title>audit_event</title>
<g id="a_node4"><a xlink:href="../../tables/audit_event.html" xlink:title="audit_event" target="_top">
<polygon fill="#ffffff" stroke="transparent" points="461,-164.7 461,-518.7 758,-518.7 758,-164.7 461,-164.7"/>
<polygon fill="#f5f5f5" stroke="transparent" points="463.5,-493.7 463.5,-516.7 756.5,-516.7 756.5,-493.7 463.5,-493.7"/>
<polygon fill="none" stroke="#000000" points="463.5,-493.7 463.5,-516.7 756.5,-516.7 756.5,-493.7 463.5,-493.7"/>
<text text-anchor="start" x="468.5" y="-502.3" font-family="Helvetica,sans-Serif" font-weight="bold" font-size="11.00" fill="#000000">audit_event</text>
<text text-anchor="start" x="721.5437" y="-501.8" font-family="Helvetica,sans-Serif" font-size="11.00" fill="#000000">[table]</text>
<polygon fill="#ffffff" stroke="transparent" points="463.5,-471.7 463.5,-493.7 662.5,-493.7 662.5,-471.7 463.5,-471.7"/>
<polygon fill="none" stroke="#000000" points="463.5,-471.7 463.5,-493.7 662.5,-493.7 662.5,-471.7 463.5,-471.7"/>
<text text-anchor="start" x="483.5" y="-478.8" font-family="Helvetica,sans-Serif" font-size="11.00" fill="#000000">action</text>
<polygon fill="none" stroke="#000000" points="662.5,-471.7 662.5,-493.7 756.5,-493.7 756.5,-471.7 662.5,-471.7"/>
<text text-anchor="start" x="665.5" y="-479.4" font-family="Helvetica,sans-Serif" font-size="11.00" fill="#000000">varchar[40]</text>
<polygon fill="none" stroke="#000000" points="463.5,-449.7 463.5,-471.7 662.5,-471.7 662.5,-449.7 463.5,-449.7"/>
<text text-anchor="start" x="483.5" y="-456.8" font-family="Helvetica,sans-Serif" font-size="11.00" fill="#000000">description</text>
<polygon fill="none" stroke="#000000" points="662.5,-449.7 662.5,-471.7 756.5,-471.7 756.5,-449.7 662.5,-449.7"/>
<text text-anchor="start" x="665.5" y="-457.4" font-family="Helvetica,sans-Serif" font-size="11.00" fill="#000000">text[2147483647]</text>
<polygon fill="#ffffff" stroke="transparent" points="463.5,-427.7 463.5,-449.7 662.5,-449.7 662.5,-427.7 463.5,-427.7"/>
<polygon fill="none" stroke="#000000" points="463.5,-427.7 463.5,-449.7 662.5,-449.7 662.5,-427.7 463.5,-427.7"/>
<text text-anchor="start" x="483.5" y="-434.8" font-family="Helvetica,sans-Serif" font-size="11.00" fill="#000000">actioned_at</text>
<polygon fill="none" stroke="#000000" points="662.5,-427.7 662.5,-449.7 756.5,-449.7 756.5,-427.7 662.5,-427.7"/>
<text text-anchor="start" x="665.5" y="-435.4" font-family="Helvetica,sans-Serif" font-size="11.00" fill="#000000">timestamp[29,6]</text>
<polygon fill="#ffffff" stroke="transparent" points="463.5,-405.7 463.5,-427.7 662.5,-427.7 662.5,-405.7 463.5,-405.7"/>
<polygon fill="none" stroke="#000000" points="463.5,-405.7 463.5,-427.7 662.5,-427.7 662.5,-405.7 463.5,-405.7"/>
<text text-anchor="start" x="483.5" y="-412.8" font-family="Helvetica,sans-Serif" font-size="11.00" fill="#000000">actioned_by</text>
<polygon fill="none" stroke="#000000" points="662.5,-405.7 662.5,-427.7 756.5,-427.7 756.5,-405.7 662.5,-405.7"/>
<text text-anchor="start" x="665.5" y="-413.4" font-family="Helvetica,sans-Serif" font-size="11.00" fill="#000000">varchar[64]</text>
<polygon fill="none" stroke="#000000" points="463.5,-383.7 463.5,-405.7 662.5,-405.7 662.5,-383.7 463.5,-383.7"/>
<text text-anchor="start" x="483.5" y="-390.8" font-family="Helvetica,sans-Serif" font-size="11.00" fill="#000000">actioned_by_display_name</text>
<polygon fill="none" stroke="#000000" points="662.5,-383.7 662.5,-405.7 756.5,-405.7 756.5,-383.7 662.5,-383.7"/>
<text text-anchor="start" x="665.5" y="-391.4" font-family="Helvetica,sans-Serif" font-size="11.00" fill="#000000">varchar[255]</text>
<polygon fill="none" stroke="#000000" points="463.5,-361.7 463.5,-383.7 662.5,-383.7 662.5,-361.7 463.5,-361.7"/>
<text text-anchor="start" x="483.5" y="-368.8" font-family="Helvetica,sans-Serif" font-size="11.00" fill="#000000">source</text>
<polygon fill="none" stroke="#000000" points="662.5,-361.7 662.5,-383.7 756.5,-383.7 756.5,-361.7 662.5,-361.7"/>
<text text-anchor="start" x="665.5" y="-369.4" font-family="Helvetica,sans-Serif" font-size="11.00" fill="#000000">varchar[12]</text>
<polygon fill="none" stroke="#000000" points="463.5,-339.7 463.5,-361.7 662.5,-361.7 662.5,-339.7 463.5,-339.7"/>
<text text-anchor="start" x="483.5" y="-346.8" font-family="Helvetica,sans-Serif" font-size="11.00" fill="#000000">active_case_load_id</text>
<polygon fill="none" stroke="#000000" points="662.5,-339.7 662.5,-361.7 756.5,-361.7 756.5,-339.7 662.5,-339.7"/>
<text text-anchor="start" x="665.5" y="-347.4" font-family="Helvetica,sans-Serif" font-size="11.00" fill="#000000">varchar[6]</text>
<polygon fill="none" stroke="#000000" points="463.5,-317.7 463.5,-339.7 662.5,-339.7 662.5,-317.7 463.5,-317.7"/>
<text text-anchor="start" x="483.5" y="-324.8" font-family="Helvetica,sans-Serif" font-size="11.00" fill="#000000">description_updated</text>
<polygon fill="none" stroke="#000000" points="662.5,-317.7 662.5,-339.7 756.5,-339.7 756.5,-317.7 662.5,-317.7"/>
<text text-anchor="start" x="665.5" y="-325.4" font-family="Helvetica,sans-Serif" font-size="11.00" fill="#000000">bool[1]</text>
<polygon fill="none" stroke="#000000" points="463.5,-295.7 463.5,-317.7 662.5,-317.7 662.5,-295.7 463.5,-295.7"/>
<text text-anchor="start" x="483.5" y="-302.8" font-family="Helvetica,sans-Serif" font-size="11.00" fill="#000000">authorised_by_updated</text>
<polygon fill="none" stroke="#000000" points="662.5,-295.7 662.5,-317.7 756.5,-317.7 756.5,-295.7 662.5,-295.7"/>
<text text-anchor="start" x="665.5" y="-303.4" font-family="Helvetica,sans-Serif" font-size="11.00" fill="#000000">bool[1]</text>
<polygon fill="none" stroke="#000000" points="463.5,-273.7 463.5,-295.7 662.5,-295.7 662.5,-273.7 463.5,-273.7"/>
<text text-anchor="start" x="483.5" y="-280.8" font-family="Helvetica,sans-Serif" font-size="11.00" fill="#000000">active_from_updated</text>
<polygon fill="none" stroke="#000000" points="662.5,-273.7 662.5,-295.7 756.5,-295.7 756.5,-273.7 662.5,-273.7"/>
<text text-anchor="start" x="665.5" y="-281.4" font-family="Helvetica,sans-Serif" font-size="11.00" fill="#000000">bool[1]</text>
<polygon fill="none" stroke="#000000" points="463.5,-251.7 463.5,-273.7 662.5,-273.7 662.5,-251.7 463.5,-251.7"/>
<text text-anchor="start" x="483.5" y="-258.8" font-family="Helvetica,sans-Serif" font-size="11.00" fill="#000000">active_to_updated</text>
<polygon fill="none" stroke="#000000" points="662.5,-251.7 662.5,-273.7 756.5,-273.7 756.5,-251.7 662.5,-251.7"/>
<text text-anchor="start" x="665.5" y="-259.4" font-family="Helvetica,sans-Serif" font-size="11.00" fill="#000000">bool[1]</text>
<polygon fill="#ffffff" stroke="transparent" points="463.5,-229.7 463.5,-251.7 662.5,-251.7 662.5,-229.7 463.5,-229.7"/>
<polygon fill="none" stroke="#000000" points="463.5,-229.7 463.5,-251.7 662.5,-251.7 662.5,-229.7 463.5,-229.7"/>
<image xlink:href="../../images/foreignKeys.png" width="11px" height="12px" preserveAspectRatio="xMinYMin meet" x="468.5" y="-246.7"/>
<text text-anchor="start" x="483.5" y="-236.8" font-family="Helvetica,sans-Serif" font-size="11.00" fill="#000000">alert_id</text>
<polygon fill="none" stroke="#000000" points="662.5,-229.7 662.5,-251.7 756.5,-251.7 756.5,-229.7 662.5,-229.7"/>
<text text-anchor="start" x="665.4758" y="-237.4" font-family="Helvetica,sans-Serif" font-size="11.00" fill="#000000">uuid[2147483647]</text>
<polygon fill="none" stroke="#000000" points="463.5,-207.7 463.5,-229.7 662.5,-229.7 662.5,-207.7 463.5,-207.7"/>
<text text-anchor="start" x="483.5" y="-214.8" font-family="Helvetica,sans-Serif" font-size="11.00" fill="#000000">version</text>
<polygon fill="none" stroke="#000000" points="662.5,-207.7 662.5,-229.7 756.5,-229.7 756.5,-207.7 662.5,-207.7"/>
<text text-anchor="start" x="665.5" y="-215.4" font-family="Helvetica,sans-Serif" font-size="11.00" fill="#000000">int4[10]</text>
<polygon fill="none" stroke="#000000" points="463.5,-185.7 463.5,-207.7 662.5,-207.7 662.5,-185.7 463.5,-185.7"/>
<image xlink:href="../../images/primaryKeys.png" width="11px" height="12px" preserveAspectRatio="xMinYMin meet" x="468.5" y="-202.7"/>
<text text-anchor="start" x="483.5" y="-192.8" font-family="Helvetica,sans-Serif" font-size="11.00" fill="#000000">id</text>
<polygon fill="none" stroke="#000000" points="662.5,-185.7 662.5,-207.7 756.5,-207.7 756.5,-185.7 662.5,-185.7"/>
<text text-anchor="start" x="665.4758" y="-193.4" font-family="Helvetica,sans-Serif" font-size="11.00" fill="#000000">uuid[2147483647]</text>
<polygon fill="#ffffff" stroke="transparent" points="463.5,-166.7 463.5,-185.7 567.5,-185.7 567.5,-166.7 463.5,-166.7"/>
<polygon fill="none" stroke="#000000" points="463.5,-166.7 463.5,-185.7 567.5,-185.7 567.5,-166.7 463.5,-166.7"/>
<text text-anchor="start" x="466.5" y="-172.8" font-family="Helvetica,sans-Serif" font-size="11.00" fill="#000000">&lt; 1</text>
<polygon fill="#ffffff" stroke="transparent" points="567.5,-166.7 567.5,-185.7 662.5,-185.7 662.5,-166.7 567.5,-166.7"/>
<polygon fill="none" stroke="#000000" points="567.5,-166.7 567.5,-185.7 662.5,-185.7 662.5,-166.7 567.5,-166.7"/>
<text text-anchor="start" x="653.3862" y="-172.8" font-family="Helvetica,sans-Serif" font-size="11.00" fill="#000000"> &#160;</text>
<polygon fill="#ffffff" stroke="transparent" points="662.5,-166.7 662.5,-185.7 756.5,-185.7 756.5,-166.7 662.5,-166.7"/>
<polygon fill="none" stroke="#000000" points="662.5,-166.7 662.5,-185.7 756.5,-185.7 756.5,-166.7 662.5,-166.7"/>
<text text-anchor="start" x="737.9053" y="-172.8" font-family="Helvetica,sans-Serif" font-size="11.00" fill="#000000">0 &gt;</text>
<polygon fill="none" stroke="#000000" stroke-width="2" points="462,-165.7 462,-517.7 757,-517.7 757,-165.7 462,-165.7"/>
</a>
</g>
</g>
<!-- audit_event&#45;&gt;alert -->
<g id="edge3" class="edge">
<title>audit_event:w&#45;&gt;alert:e</title>
<path fill="none" stroke="#000000" d="M448.776,-240.7C436.7815,-240.7 429.3229,-240.7 412.5,-240.7"/>
<polygon fill="#000000" stroke="#000000" points="455.5,-240.7001 463.5,-244.3 459.5,-240.7 463.5,-240.7 463.5,-240.7 463.5,-240.7 459.5,-240.7 463.5,-237.1 455.5,-240.7001 455.5,-240.7001"/>
<ellipse fill="none" stroke="#000000" cx="452.3" cy="-240.7001" rx="3.2" ry="3.2"/>
</g>
</g>
</svg>
