<?xml version="1.0" encoding="UTF-8" standalone="no"?>
<!DOCTYPE svg PUBLIC "-//W3C//DTD SVG 1.1//EN"
 "http://www.w3.org/Graphics/SVG/1.1/DTD/svg11.dtd">
<!-- Generated by graphviz version 2.40.1 (20161225.0304)
 -->
<!-- Title: twoDegreesRelationshipsDiagram Pages: 1 -->
<svg width="729pt" height="531pt"
 viewBox="0.00 0.00 729.00 530.70" xmlns="http://www.w3.org/2000/svg" xmlns:xlink="http://www.w3.org/1999/xlink">
<g id="graph0" class="graph" transform="scale(1 1) rotate(0) translate(4 526.7)">
<title>twoDegreesRelationshipsDiagram</title>
<polygon fill="#ffffff" stroke="transparent" points="-4,4 -4,-526.7 725,-526.7 725,4 -4,4"/>
<text text-anchor="middle" x="72.4936" y="-7.3" font-family="Helvetica,sans-Serif" font-size="11.00" fill="#000000">Generated by SchemaSpy</text>
<!-- alert -->
<g id="node1" class="node">
<title>alert</title>
<g id="a_node1"><a xlink:href="../../tables/alert.html" xlink:title="alert" target="_top">
<polygon fill="#ffffff" stroke="transparent" points="166,-38.2 166,-275.2 367,-275.2 367,-38.2 166,-38.2"/>
<polygon fill="#f5f5f5" stroke="transparent" points="166.5,-251.7 166.5,-274.7 367.5,-274.7 367.5,-251.7 166.5,-251.7"/>
<polygon fill="none" stroke="#000000" points="166.5,-251.7 166.5,-274.7 367.5,-274.7 367.5,-251.7 166.5,-251.7"/>
<text text-anchor="start" x="171.5" y="-260.3" font-family="Helvetica,sans-Serif" font-weight="bold" font-size="11.00" fill="#000000">alert</text>
<text text-anchor="start" x="332.5437" y="-259.8" font-family="Helvetica,sans-Serif" font-size="11.00" fill="#000000">[table]</text>
<polygon fill="none" stroke="#000000" points="166.5,-229.7 166.5,-251.7 367.5,-251.7 367.5,-229.7 166.5,-229.7"/>
<image xlink:href="../../images/primaryKeys.png" width="11px" height="12px" preserveAspectRatio="xMinYMin meet" x="171.5" y="-246.7"/>
<text text-anchor="start" x="186.5" y="-236.8" font-family="Helvetica,sans-Serif" font-size="11.00" fill="#000000">id</text>
<polygon fill="#ffffff" stroke="transparent" points="166.5,-207.7 166.5,-229.7 367.5,-229.7 367.5,-207.7 166.5,-207.7"/>
<polygon fill="none" stroke="#000000" points="166.5,-207.7 166.5,-229.7 367.5,-229.7 367.5,-207.7 166.5,-207.7"/>
<image xlink:href="../../images/foreignKeys.png" width="11px" height="12px" preserveAspectRatio="xMinYMin meet" x="171.5" y="-224.7"/>
<text text-anchor="start" x="186.5" y="-214.8" font-family="Helvetica,sans-Serif" font-size="11.00" fill="#000000">alert_code_id</text>
<polygon fill="#ffffff" stroke="transparent" points="166.5,-185.7 166.5,-207.7 367.5,-207.7 367.5,-185.7 166.5,-185.7"/>
<polygon fill="none" stroke="#000000" points="166.5,-185.7 166.5,-207.7 367.5,-207.7 367.5,-185.7 166.5,-185.7"/>
<image xlink:href="../../images/foreignKeys.png" width="11px" height="12px" preserveAspectRatio="xMinYMin meet" x="171.5" y="-202.7"/>
<text text-anchor="start" x="186.5" y="-192.8" font-family="Helvetica,sans-Serif" font-size="11.00" fill="#000000">prison_number</text>
<polygon fill="#ffffff" stroke="transparent" points="166.5,-163.7 166.5,-185.7 367.5,-185.7 367.5,-163.7 166.5,-163.7"/>
<polygon fill="none" stroke="#000000" points="166.5,-163.7 166.5,-185.7 367.5,-185.7 367.5,-163.7 166.5,-163.7"/>
<text text-anchor="start" x="186.5" y="-170.8" font-family="Helvetica,sans-Serif" font-size="11.00" fill="#000000">active_from</text>
<polygon fill="#ffffff" stroke="transparent" points="166.5,-141.7 166.5,-163.7 367.5,-163.7 367.5,-141.7 166.5,-141.7"/>
<polygon fill="none" stroke="#000000" points="166.5,-141.7 166.5,-163.7 367.5,-163.7 367.5,-141.7 166.5,-141.7"/>
<text text-anchor="start" x="186.5" y="-148.8" font-family="Helvetica,sans-Serif" font-size="11.00" fill="#000000">active_to</text>
<polygon fill="#ffffff" stroke="transparent" points="166.5,-119.7 166.5,-141.7 367.5,-141.7 367.5,-119.7 166.5,-119.7"/>
<polygon fill="none" stroke="#000000" points="166.5,-119.7 166.5,-141.7 367.5,-141.7 367.5,-119.7 166.5,-119.7"/>
<text text-anchor="start" x="186.5" y="-126.8" font-family="Helvetica,sans-Serif" font-size="11.00" fill="#000000">deleted_at</text>
<polygon fill="#ffffff" stroke="transparent" points="166.5,-97.7 166.5,-119.7 367.5,-119.7 367.5,-97.7 166.5,-97.7"/>
<polygon fill="none" stroke="#000000" points="166.5,-97.7 166.5,-119.7 367.5,-119.7 367.5,-97.7 166.5,-97.7"/>
<text text-anchor="start" x="186.5" y="-104.8" font-family="Helvetica,sans-Serif" font-size="11.00" fill="#000000">created_at</text>
<polygon fill="#ffffff" stroke="transparent" points="166.5,-75.7 166.5,-97.7 367.5,-97.7 367.5,-75.7 166.5,-75.7"/>
<polygon fill="none" stroke="#000000" points="166.5,-75.7 166.5,-97.7 367.5,-97.7 367.5,-75.7 166.5,-75.7"/>
<text text-anchor="start" x="186.5" y="-82.8" font-family="Helvetica,sans-Serif" font-size="11.00" fill="#000000">last_modified_at</text>
<polygon fill="none" stroke="#000000" points="166.5,-56.7 166.5,-75.7 367.5,-75.7 367.5,-56.7 166.5,-56.7"/>
<text text-anchor="start" x="169.5" y="-62.8" font-family="Helvetica,sans-Serif" font-size="11.00" fill="#000000">...</text>
<polygon fill="#ffffff" stroke="transparent" points="166.5,-37.7 166.5,-56.7 260.5,-56.7 260.5,-37.7 166.5,-37.7"/>
<polygon fill="none" stroke="#000000" points="166.5,-37.7 166.5,-56.7 260.5,-56.7 260.5,-37.7 166.5,-37.7"/>
<text text-anchor="start" x="169.5" y="-43.8" font-family="Helvetica,sans-Serif" font-size="11.00" fill="#000000">&lt; 1</text>
<polygon fill="#ffffff" stroke="transparent" points="260.5,-37.7 260.5,-56.7 309.5,-56.7 309.5,-37.7 260.5,-37.7"/>
<polygon fill="none" stroke="#000000" points="260.5,-37.7 260.5,-56.7 309.5,-56.7 309.5,-37.7 260.5,-37.7"/>
<text text-anchor="start" x="300.3862" y="-43.8" font-family="Helvetica,sans-Serif" font-size="11.00" fill="#000000"> &#160;</text>
<polygon fill="#ffffff" stroke="transparent" points="309.5,-37.7 309.5,-56.7 367.5,-56.7 367.5,-37.7 309.5,-37.7"/>
<polygon fill="none" stroke="#000000" points="309.5,-37.7 309.5,-56.7 367.5,-56.7 367.5,-37.7 309.5,-37.7"/>
<text text-anchor="start" x="348.9053" y="-43.8" font-family="Helvetica,sans-Serif" font-size="11.00" fill="#000000">1 &gt;</text>
</a>
</g>
</g>
<!-- alert_code -->
<g id="node2" class="node">
<title>alert_code</title>
<g id="a_node2"><a xlink:href="../../tables/alert_code.html" xlink:title="alert_code" target="_top">
<polygon fill="#ffffff" stroke="transparent" points="8,-191.2 8,-252.2 117,-252.2 117,-191.2 8,-191.2"/>
<polygon fill="#f5f5f5" stroke="transparent" points="8.5,-228.7 8.5,-251.7 117.5,-251.7 117.5,-228.7 8.5,-228.7"/>
<polygon fill="none" stroke="#000000" points="8.5,-228.7 8.5,-251.7 117.5,-251.7 117.5,-228.7 8.5,-228.7"/>
<text text-anchor="start" x="13.5" y="-237.3" font-family="Helvetica,sans-Serif" font-weight="bold" font-size="11.00" fill="#000000">alert_code</text>
<text text-anchor="start" x="83.0219" y="-236.8" font-family="Helvetica,sans-Serif" font-size="11.00" fill="#000000">[table]</text>
<polygon fill="none" stroke="#000000" points="8.5,-209.7 8.5,-228.7 117.5,-228.7 117.5,-209.7 8.5,-209.7"/>
<text text-anchor="start" x="11.5" y="-215.8" font-family="Helvetica,sans-Serif" font-size="11.00" fill="#000000">...</text>
<polygon fill="#ffffff" stroke="transparent" points="8.5,-190.7 8.5,-209.7 56.5,-209.7 56.5,-190.7 8.5,-190.7"/>
<polygon fill="none" stroke="#000000" points="8.5,-190.7 8.5,-209.7 56.5,-209.7 56.5,-190.7 8.5,-190.7"/>
<text text-anchor="start" x="11.5" y="-196.8" font-family="Helvetica,sans-Serif" font-size="11.00" fill="#000000">&lt; 1</text>
<polygon fill="#ffffff" stroke="transparent" points="56.5,-190.7 56.5,-209.7 82.5,-209.7 82.5,-190.7 56.5,-190.7"/>
<polygon fill="none" stroke="#000000" points="56.5,-190.7 56.5,-209.7 82.5,-209.7 82.5,-190.7 56.5,-190.7"/>
<text text-anchor="start" x="73.3862" y="-196.8" font-family="Helvetica,sans-Serif" font-size="11.00" fill="#000000"> &#160;</text>
<polygon fill="#ffffff" stroke="transparent" points="82.5,-190.7 82.5,-209.7 117.5,-209.7 117.5,-190.7 82.5,-190.7"/>
<polygon fill="none" stroke="#000000" points="82.5,-190.7 82.5,-209.7 117.5,-209.7 117.5,-190.7 82.5,-190.7"/>
<text text-anchor="start" x="98.9053" y="-196.8" font-family="Helvetica,sans-Serif" font-size="11.00" fill="#000000">2 &gt;</text>
</a>
</g>
</g>
<!-- alert&#45;&gt;alert_code -->
<g id="edge1" class="edge">
<title>alert:w&#45;&gt;alert_code:e</title>
<path fill="none" stroke="#000000" d="M151.9909,-218.7C140.6774,-218.7 133.4931,-218.7 117.5,-218.7"/>
<polygon fill="#000000" stroke="#000000" points="158.5,-218.7001 166.5,-222.3 162.5,-218.7 166.5,-218.7 166.5,-218.7 166.5,-218.7 162.5,-218.7 166.5,-215.1 158.5,-218.7001 158.5,-218.7001"/>
<ellipse fill="none" stroke="#000000" cx="155.3" cy="-218.7001" rx="3.2" ry="3.2"/>
</g>
<!-- audit_event -->
<g id="node3" class="node">
<title>audit_event</title>
<g id="a_node3"><a xlink:href="../../tables/audit_event.html" xlink:title="audit_event" target="_top">
<polygon fill="#ffffff" stroke="transparent" points="416,-164.7 416,-518.7 713,-518.7 713,-164.7 416,-164.7"/>
<polygon fill="#f5f5f5" stroke="transparent" points="418.5,-493.7 418.5,-516.7 711.5,-516.7 711.5,-493.7 418.5,-493.7"/>
<polygon fill="none" stroke="#000000" points="418.5,-493.7 418.5,-516.7 711.5,-516.7 711.5,-493.7 418.5,-493.7"/>
<text text-anchor="start" x="423.5" y="-502.3" font-family="Helvetica,sans-Serif" font-weight="bold" font-size="11.00" fill="#000000">audit_event</text>
<text text-anchor="start" x="676.5437" y="-501.8" font-family="Helvetica,sans-Serif" font-size="11.00" fill="#000000">[table]</text>
<polygon fill="#ffffff" stroke="transparent" points="418.5,-471.7 418.5,-493.7 617.5,-493.7 617.5,-471.7 418.5,-471.7"/>
<polygon fill="none" stroke="#000000" points="418.5,-471.7 418.5,-493.7 617.5,-493.7 617.5,-471.7 418.5,-471.7"/>
<text text-anchor="start" x="438.5" y="-478.8" font-family="Helvetica,sans-Serif" font-size="11.00" fill="#000000">action</text>
<polygon fill="none" stroke="#000000" points="617.5,-471.7 617.5,-493.7 711.5,-493.7 711.5,-471.7 617.5,-471.7"/>
<text text-anchor="start" x="620.5" y="-479.4" font-family="Helvetica,sans-Serif" font-size="11.00" fill="#000000">varchar[40]</text>
<polygon fill="none" stroke="#000000" points="418.5,-449.7 418.5,-471.7 617.5,-471.7 617.5,-449.7 418.5,-449.7"/>
<text text-anchor="start" x="438.5" y="-456.8" font-family="Helvetica,sans-Serif" font-size="11.00" fill="#000000">description</text>
<polygon fill="none" stroke="#000000" points="617.5,-449.7 617.5,-471.7 711.5,-471.7 711.5,-449.7 617.5,-449.7"/>
<text text-anchor="start" x="620.5" y="-457.4" font-family="Helvetica,sans-Serif" font-size="11.00" fill="#000000">text[2147483647]</text>
<polygon fill="#ffffff" stroke="transparent" points="418.5,-427.7 418.5,-449.7 617.5,-449.7 617.5,-427.7 418.5,-427.7"/>
<polygon fill="none" stroke="#000000" points="418.5,-427.7 418.5,-449.7 617.5,-449.7 617.5,-427.7 418.5,-427.7"/>
<text text-anchor="start" x="438.5" y="-434.8" font-family="Helvetica,sans-Serif" font-size="11.00" fill="#000000">actioned_at</text>
<polygon fill="none" stroke="#000000" points="617.5,-427.7 617.5,-449.7 711.5,-449.7 711.5,-427.7 617.5,-427.7"/>
<text text-anchor="start" x="620.5" y="-435.4" font-family="Helvetica,sans-Serif" font-size="11.00" fill="#000000">timestamp[29,6]</text>
<polygon fill="#ffffff" stroke="transparent" points="418.5,-405.7 418.5,-427.7 617.5,-427.7 617.5,-405.7 418.5,-405.7"/>
<polygon fill="none" stroke="#000000" points="418.5,-405.7 418.5,-427.7 617.5,-427.7 617.5,-405.7 418.5,-405.7"/>
<text text-anchor="start" x="438.5" y="-412.8" font-family="Helvetica,sans-Serif" font-size="11.00" fill="#000000">actioned_by</text>
<polygon fill="none" stroke="#000000" points="617.5,-405.7 617.5,-427.7 711.5,-427.7 711.5,-405.7 617.5,-405.7"/>
<text text-anchor="start" x="620.5" y="-413.4" font-family="Helvetica,sans-Serif" font-size="11.00" fill="#000000">varchar[64]</text>
<polygon fill="none" stroke="#000000" points="418.5,-383.7 418.5,-405.7 617.5,-405.7 617.5,-383.7 418.5,-383.7"/>
<text text-anchor="start" x="438.5" y="-390.8" font-family="Helvetica,sans-Serif" font-size="11.00" fill="#000000">actioned_by_display_name</text>
<polygon fill="none" stroke="#000000" points="617.5,-383.7 617.5,-405.7 711.5,-405.7 711.5,-383.7 617.5,-383.7"/>
<text text-anchor="start" x="620.5" y="-391.4" font-family="Helvetica,sans-Serif" font-size="11.00" fill="#000000">varchar[255]</text>
<polygon fill="none" stroke="#000000" points="418.5,-361.7 418.5,-383.7 617.5,-383.7 617.5,-361.7 418.5,-361.7"/>
<text text-anchor="start" x="438.5" y="-368.8" font-family="Helvetica,sans-Serif" font-size="11.00" fill="#000000">source</text>
<polygon fill="none" stroke="#000000" points="617.5,-361.7 617.5,-383.7 711.5,-383.7 711.5,-361.7 617.5,-361.7"/>
<text text-anchor="start" x="620.5" y="-369.4" font-family="Helvetica,sans-Serif" font-size="11.00" fill="#000000">varchar[12]</text>
<polygon fill="none" stroke="#000000" points="418.5,-339.7 418.5,-361.7 617.5,-361.7 617.5,-339.7 418.5,-339.7"/>
<text text-anchor="start" x="438.5" y="-346.8" font-family="Helvetica,sans-Serif" font-size="11.00" fill="#000000">active_case_load_id</text>
<polygon fill="none" stroke="#000000" points="617.5,-339.7 617.5,-361.7 711.5,-361.7 711.5,-339.7 617.5,-339.7"/>
<text text-anchor="start" x="620.5" y="-347.4" font-family="Helvetica,sans-Serif" font-size="11.00" fill="#000000">varchar[6]</text>
<polygon fill="none" stroke="#000000" points="418.5,-317.7 418.5,-339.7 617.5,-339.7 617.5,-317.7 418.5,-317.7"/>
<text text-anchor="start" x="438.5" y="-324.8" font-family="Helvetica,sans-Serif" font-size="11.00" fill="#000000">description_updated</text>
<polygon fill="none" stroke="#000000" points="617.5,-317.7 617.5,-339.7 711.5,-339.7 711.5,-317.7 617.5,-317.7"/>
<text text-anchor="start" x="620.5" y="-325.4" font-family="Helvetica,sans-Serif" font-size="11.00" fill="#000000">bool[1]</text>
<polygon fill="none" stroke="#000000" points="418.5,-295.7 418.5,-317.7 617.5,-317.7 617.5,-295.7 418.5,-295.7"/>
<text text-anchor="start" x="438.5" y="-302.8" font-family="Helvetica,sans-Serif" font-size="11.00" fill="#000000">authorised_by_updated</text>
<polygon fill="none" stroke="#000000" points="617.5,-295.7 617.5,-317.7 711.5,-317.7 711.5,-295.7 617.5,-295.7"/>
<text text-anchor="start" x="620.5" y="-303.4" font-family="Helvetica,sans-Serif" font-size="11.00" fill="#000000">bool[1]</text>
<polygon fill="none" stroke="#000000" points="418.5,-273.7 418.5,-295.7 617.5,-295.7 617.5,-273.7 418.5,-273.7"/>
<text text-anchor="start" x="438.5" y="-280.8" font-family="Helvetica,sans-Serif" font-size="11.00" fill="#000000">active_from_updated</text>
<polygon fill="none" stroke="#000000" points="617.5,-273.7 617.5,-295.7 711.5,-295.7 711.5,-273.7 617.5,-273.7"/>
<text text-anchor="start" x="620.5" y="-281.4" font-family="Helvetica,sans-Serif" font-size="11.00" fill="#000000">bool[1]</text>
<polygon fill="none" stroke="#000000" points="418.5,-251.7 418.5,-273.7 617.5,-273.7 617.5,-251.7 418.5,-251.7"/>
<text text-anchor="start" x="438.5" y="-258.8" font-family="Helvetica,sans-Serif" font-size="11.00" fill="#000000">active_to_updated</text>
<polygon fill="none" stroke="#000000" points="617.5,-251.7 617.5,-273.7 711.5,-273.7 711.5,-251.7 617.5,-251.7"/>
<text text-anchor="start" x="620.5" y="-259.4" font-family="Helvetica,sans-Serif" font-size="11.00" fill="#000000">bool[1]</text>
<polygon fill="#ffffff" stroke="transparent" points="418.5,-229.7 418.5,-251.7 617.5,-251.7 617.5,-229.7 418.5,-229.7"/>
<polygon fill="none" stroke="#000000" points="418.5,-229.7 418.5,-251.7 617.5,-251.7 617.5,-229.7 418.5,-229.7"/>
<image xlink:href="../../images/foreignKeys.png" width="11px" height="12px" preserveAspectRatio="xMinYMin meet" x="423.5" y="-246.7"/>
<text text-anchor="start" x="438.5" y="-236.8" font-family="Helvetica,sans-Serif" font-size="11.00" fill="#000000">alert_id</text>
<polygon fill="none" stroke="#000000" points="617.5,-229.7 617.5,-251.7 711.5,-251.7 711.5,-229.7 617.5,-229.7"/>
<text text-anchor="start" x="620.4758" y="-237.4" font-family="Helvetica,sans-Serif" font-size="11.00" fill="#000000">uuid[2147483647]</text>
<polygon fill="none" stroke="#000000" points="418.5,-207.7 418.5,-229.7 617.5,-229.7 617.5,-207.7 418.5,-207.7"/>
<text text-anchor="start" x="438.5" y="-214.8" font-family="Helvetica,sans-Serif" font-size="11.00" fill="#000000">version</text>
<polygon fill="none" stroke="#000000" points="617.5,-207.7 617.5,-229.7 711.5,-229.7 711.5,-207.7 617.5,-207.7"/>
<text text-anchor="start" x="620.5" y="-215.4" font-family="Helvetica,sans-Serif" font-size="11.00" fill="#000000">int4[10]</text>
<polygon fill="none" stroke="#000000" points="418.5,-185.7 418.5,-207.7 617.5,-207.7 617.5,-185.7 418.5,-185.7"/>
<image xlink:href="../../images/primaryKeys.png" width="11px" height="12px" preserveAspectRatio="xMinYMin meet" x="423.5" y="-202.7"/>
<text text-anchor="start" x="438.5" y="-192.8" font-family="Helvetica,sans-Serif" font-size="11.00" fill="#000000">id</text>
<polygon fill="none" stroke="#000000" points="617.5,-185.7 617.5,-207.7 711.5,-207.7 711.5,-185.7 617.5,-185.7"/>
<text text-anchor="start" x="620.4758" y="-193.4" font-family="Helvetica,sans-Serif" font-size="11.00" fill="#000000">uuid[2147483647]</text>
<polygon fill="#ffffff" stroke="transparent" points="418.5,-166.7 418.5,-185.7 522.5,-185.7 522.5,-166.7 418.5,-166.7"/>
<polygon fill="none" stroke="#000000" points="418.5,-166.7 418.5,-185.7 522.5,-185.7 522.5,-166.7 418.5,-166.7"/>
<text text-anchor="start" x="421.5" y="-172.8" font-family="Helvetica,sans-Serif" font-size="11.00" fill="#000000">&lt; 1</text>
<polygon fill="#ffffff" stroke="transparent" points="522.5,-166.7 522.5,-185.7 617.5,-185.7 617.5,-166.7 522.5,-166.7"/>
<polygon fill="none" stroke="#000000" points="522.5,-166.7 522.5,-185.7 617.5,-185.7 617.5,-166.7 522.5,-166.7"/>
<text text-anchor="start" x="608.3862" y="-172.8" font-family="Helvetica,sans-Serif" font-size="11.00" fill="#000000"> &#160;</text>
<polygon fill="#ffffff" stroke="transparent" points="617.5,-166.7 617.5,-185.7 711.5,-185.7 711.5,-166.7 617.5,-166.7"/>
<polygon fill="none" stroke="#000000" points="617.5,-166.7 617.5,-185.7 711.5,-185.7 711.5,-166.7 617.5,-166.7"/>
<text text-anchor="start" x="692.9053" y="-172.8" font-family="Helvetica,sans-Serif" font-size="11.00" fill="#000000">0 &gt;</text>
<polygon fill="none" stroke="#000000" stroke-width="2" points="417,-165.7 417,-517.7 712,-517.7 712,-165.7 417,-165.7"/>
</a>
</g>
</g>
<!-- audit_event&#45;&gt;alert -->
<g id="edge2" class="edge">
<title>audit_event:w&#45;&gt;alert:e</title>
<path fill="none" stroke="#000000" d="M403.776,-240.7C391.7815,-240.7 384.3229,-240.7 367.5,-240.7"/>
<polygon fill="#000000" stroke="#000000" points="410.5,-240.7001 418.5,-244.3 414.5,-240.7 418.5,-240.7 418.5,-240.7 418.5,-240.7 414.5,-240.7 418.5,-237.1 410.5,-240.7001 410.5,-240.7001"/>
<ellipse fill="none" stroke="#000000" cx="407.3" cy="-240.7001" rx="3.2" ry="3.2"/>
</g>
</g>
</svg>
