<?xml version="1.0" encoding="UTF-8" standalone="no"?>
<!DOCTYPE svg PUBLIC "-//W3C//DTD SVG 1.1//EN"
 "http://www.w3.org/Graphics/SVG/1.1/DTD/svg11.dtd">
<!-- Generated by graphviz version 2.40.1 (20161225.0304)
 -->
<!-- Title: oneDegreeRelationshipsDiagram Pages: 1 -->
<svg width="601pt" height="531pt"
 viewBox="0.00 0.00 601.00 530.70" xmlns="http://www.w3.org/2000/svg" xmlns:xlink="http://www.w3.org/1999/xlink">
<g id="graph0" class="graph" transform="scale(1 1) rotate(0) translate(4 526.7)">
<title>oneDegreeRelationshipsDiagram</title>
<polygon fill="#ffffff" stroke="transparent" points="-4,4 -4,-526.7 597,-526.7 597,4 -4,4"/>
<text text-anchor="middle" x="72.4936" y="-7.3" font-family="Helvetica,sans-Serif" font-size="11.00" fill="#000000">Generated by SchemaSpy</text>
<!-- audit_event -->
<g id="node1" class="node">
<title>audit_event</title>
<g id="a_node1"><a xlink:href="../../tables/audit_event.html" xlink:title="audit_event" target="_top">
<polygon fill="#ffffff" stroke="transparent" points="273,-164.7 273,-518.7 585,-518.7 585,-164.7 273,-164.7"/>
<polygon fill="#f5f5f5" stroke="transparent" points="275,-493.7 275,-516.7 583,-516.7 583,-493.7 275,-493.7"/>
<polygon fill="none" stroke="#000000" points="275,-493.7 275,-516.7 583,-516.7 583,-493.7 275,-493.7"/>
<text text-anchor="start" x="280" y="-502.3" font-family="Helvetica,sans-Serif" font-weight="bold" font-size="11.00" fill="#000000">audit_event</text>
<text text-anchor="start" x="548.0437" y="-501.8" font-family="Helvetica,sans-Serif" font-size="11.00" fill="#000000">[table]</text>
<polygon fill="#ffffff" stroke="transparent" points="275,-471.7 275,-493.7 489,-493.7 489,-471.7 275,-471.7"/>
<polygon fill="none" stroke="#000000" points="275,-471.7 275,-493.7 489,-493.7 489,-471.7 275,-471.7"/>
<text text-anchor="start" x="295" y="-478.8" font-family="Helvetica,sans-Serif" font-size="11.00" fill="#000000">action</text>
<polygon fill="none" stroke="#000000" points="489,-471.7 489,-493.7 583,-493.7 583,-471.7 489,-471.7"/>
<text text-anchor="start" x="492" y="-479.4" font-family="Helvetica,sans-Serif" font-size="11.00" fill="#000000">varchar[40]</text>
<polygon fill="none" stroke="#000000" points="275,-449.7 275,-471.7 489,-471.7 489,-449.7 275,-449.7"/>
<text text-anchor="start" x="295" y="-456.8" font-family="Helvetica,sans-Serif" font-size="11.00" fill="#000000">description</text>
<polygon fill="none" stroke="#000000" points="489,-449.7 489,-471.7 583,-471.7 583,-449.7 489,-449.7"/>
<text text-anchor="start" x="492" y="-457.4" font-family="Helvetica,sans-Serif" font-size="11.00" fill="#000000">text[2147483647]</text>
<polygon fill="#ffffff" stroke="transparent" points="275,-427.7 275,-449.7 489,-449.7 489,-427.7 275,-427.7"/>
<polygon fill="none" stroke="#000000" points="275,-427.7 275,-449.7 489,-449.7 489,-427.7 275,-427.7"/>
<text text-anchor="start" x="295" y="-434.8" font-family="Helvetica,sans-Serif" font-size="11.00" fill="#000000">actioned_at</text>
<polygon fill="none" stroke="#000000" points="489,-427.7 489,-449.7 583,-449.7 583,-427.7 489,-427.7"/>
<text text-anchor="start" x="492" y="-435.4" font-family="Helvetica,sans-Serif" font-size="11.00" fill="#000000">timestamp[29,6]</text>
<polygon fill="#ffffff" stroke="transparent" points="275,-405.7 275,-427.7 489,-427.7 489,-405.7 275,-405.7"/>
<polygon fill="none" stroke="#000000" points="275,-405.7 275,-427.7 489,-427.7 489,-405.7 275,-405.7"/>
<text text-anchor="start" x="295" y="-412.8" font-family="Helvetica,sans-Serif" font-size="11.00" fill="#000000">actioned_by</text>
<polygon fill="none" stroke="#000000" points="489,-405.7 489,-427.7 583,-427.7 583,-405.7 489,-405.7"/>
<text text-anchor="start" x="492" y="-413.4" font-family="Helvetica,sans-Serif" font-size="11.00" fill="#000000">varchar[64]</text>
<polygon fill="none" stroke="#000000" points="275,-383.7 275,-405.7 489,-405.7 489,-383.7 275,-383.7"/>
<text text-anchor="start" x="295" y="-390.8" font-family="Helvetica,sans-Serif" font-size="11.00" fill="#000000">actioned_by_display_name</text>
<polygon fill="none" stroke="#000000" points="489,-383.7 489,-405.7 583,-405.7 583,-383.7 489,-383.7"/>
<text text-anchor="start" x="492" y="-391.4" font-family="Helvetica,sans-Serif" font-size="11.00" fill="#000000">varchar[255]</text>
<polygon fill="none" stroke="#000000" points="275,-361.7 275,-383.7 489,-383.7 489,-361.7 275,-361.7"/>
<text text-anchor="start" x="295" y="-368.8" font-family="Helvetica,sans-Serif" font-size="11.00" fill="#000000">source</text>
<polygon fill="none" stroke="#000000" points="489,-361.7 489,-383.7 583,-383.7 583,-361.7 489,-361.7"/>
<text text-anchor="start" x="492" y="-369.4" font-family="Helvetica,sans-Serif" font-size="11.00" fill="#000000">varchar[12]</text>
<polygon fill="none" stroke="#000000" points="275,-339.7 275,-361.7 489,-361.7 489,-339.7 275,-339.7"/>
<text text-anchor="start" x="295" y="-346.8" font-family="Helvetica,sans-Serif" font-size="11.00" fill="#000000">active_case_load_id</text>
<polygon fill="none" stroke="#000000" points="489,-339.7 489,-361.7 583,-361.7 583,-339.7 489,-339.7"/>
<text text-anchor="start" x="492" y="-347.4" font-family="Helvetica,sans-Serif" font-size="11.00" fill="#000000">varchar[6]</text>
<polygon fill="none" stroke="#000000" points="275,-317.7 275,-339.7 489,-339.7 489,-317.7 275,-317.7"/>
<text text-anchor="start" x="295" y="-324.8" font-family="Helvetica,sans-Serif" font-size="11.00" fill="#000000">description_updated</text>
<polygon fill="none" stroke="#000000" points="489,-317.7 489,-339.7 583,-339.7 583,-317.7 489,-317.7"/>
<text text-anchor="start" x="492" y="-325.4" font-family="Helvetica,sans-Serif" font-size="11.00" fill="#000000">bool[1]</text>
<polygon fill="none" stroke="#000000" points="275,-295.7 275,-317.7 489,-317.7 489,-295.7 275,-295.7"/>
<text text-anchor="start" x="295" y="-302.8" font-family="Helvetica,sans-Serif" font-size="11.00" fill="#000000">authorised_by_updated</text>
<polygon fill="none" stroke="#000000" points="489,-295.7 489,-317.7 583,-317.7 583,-295.7 489,-295.7"/>
<text text-anchor="start" x="492" y="-303.4" font-family="Helvetica,sans-Serif" font-size="11.00" fill="#000000">bool[1]</text>
<polygon fill="none" stroke="#000000" points="275,-273.7 275,-295.7 489,-295.7 489,-273.7 275,-273.7"/>
<text text-anchor="start" x="295" y="-280.8" font-family="Helvetica,sans-Serif" font-size="11.00" fill="#000000">active_from_updated</text>
<polygon fill="none" stroke="#000000" points="489,-273.7 489,-295.7 583,-295.7 583,-273.7 489,-273.7"/>
<text text-anchor="start" x="492" y="-281.4" font-family="Helvetica,sans-Serif" font-size="11.00" fill="#000000">bool[1]</text>
<polygon fill="none" stroke="#000000" points="275,-251.7 275,-273.7 489,-273.7 489,-251.7 275,-251.7"/>
<text text-anchor="start" x="295" y="-258.8" font-family="Helvetica,sans-Serif" font-size="11.00" fill="#000000">active_to_updated</text>
<polygon fill="none" stroke="#000000" points="489,-251.7 489,-273.7 583,-273.7 583,-251.7 489,-251.7"/>
<text text-anchor="start" x="492" y="-259.4" font-family="Helvetica,sans-Serif" font-size="11.00" fill="#000000">bool[1]</text>
<polygon fill="#ffffff" stroke="transparent" points="275,-229.7 275,-251.7 489,-251.7 489,-229.7 275,-229.7"/>
<polygon fill="none" stroke="#000000" points="275,-229.7 275,-251.7 489,-251.7 489,-229.7 275,-229.7"/>
<image xlink:href="../../images/foreignKeys.png" width="11px" height="12px" preserveAspectRatio="xMinYMin meet" x="280" y="-246.7"/>
<text text-anchor="start" x="295" y="-236.8" font-family="Helvetica,sans-Serif" font-size="11.00" fill="#000000">alert_id</text>
<polygon fill="none" stroke="#000000" points="489,-229.7 489,-251.7 583,-251.7 583,-229.7 489,-229.7"/>
<text text-anchor="start" x="491.9758" y="-237.4" font-family="Helvetica,sans-Serif" font-size="11.00" fill="#000000">uuid[2147483647]</text>
<polygon fill="none" stroke="#000000" points="275,-207.7 275,-229.7 489,-229.7 489,-207.7 275,-207.7"/>
<text text-anchor="start" x="295" y="-214.8" font-family="Helvetica,sans-Serif" font-size="11.00" fill="#000000">version</text>
<polygon fill="none" stroke="#000000" points="489,-207.7 489,-229.7 583,-229.7 583,-207.7 489,-207.7"/>
<text text-anchor="start" x="492" y="-215.4" font-family="Helvetica,sans-Serif" font-size="11.00" fill="#000000">int4[10]</text>
<polygon fill="none" stroke="#000000" points="275,-185.7 275,-207.7 489,-207.7 489,-185.7 275,-185.7"/>
<image xlink:href="../../images/primaryKeys.png" width="11px" height="12px" preserveAspectRatio="xMinYMin meet" x="280" y="-202.7"/>
<text text-anchor="start" x="295" y="-192.8" font-family="Helvetica,sans-Serif" font-size="11.00" fill="#000000">id</text>
<polygon fill="none" stroke="#000000" points="489,-185.7 489,-207.7 583,-207.7 583,-185.7 489,-185.7"/>
<text text-anchor="start" x="491.9758" y="-193.4" font-family="Helvetica,sans-Serif" font-size="11.00" fill="#000000">uuid[2147483647]</text>
<polygon fill="#ffffff" stroke="transparent" points="275,-166.7 275,-185.7 583,-185.7 583,-166.7 275,-166.7"/>
<polygon fill="none" stroke="#000000" points="275,-166.7 275,-185.7 583,-185.7 583,-166.7 275,-166.7"/>
<polygon fill="#ffffff" stroke="transparent" points="276,-167.7 276,-184.7 381,-184.7 381,-167.7 276,-167.7"/>
<text text-anchor="start" x="278" y="-172.8" font-family="Helvetica,sans-Serif" font-size="11.00" fill="#000000">&lt; 1</text>
<polygon fill="#ffffff" stroke="transparent" points="381,-167.7 381,-184.7 477,-184.7 477,-167.7 381,-167.7"/>
<text text-anchor="start" x="425.9431" y="-172.8" font-family="Helvetica,sans-Serif" font-size="11.00" fill="#000000"> &#160;</text>
<polygon fill="#ffffff" stroke="transparent" points="477,-167.7 477,-184.7 582,-184.7 582,-167.7 477,-167.7"/>
<text text-anchor="start" x="564.4053" y="-172.8" font-family="Helvetica,sans-Serif" font-size="11.00" fill="#000000">0 &gt;</text>
<polygon fill="#000000" stroke="#000000" points="381,-167.7 381,-184.7 381,-184.7 381,-167.7 381,-167.7"/>
<polygon fill="#000000" stroke="#000000" points="477,-167.7 477,-184.7 477,-184.7 477,-167.7 477,-167.7"/>
<polygon fill="none" stroke="#000000" stroke-width="2" points="274,-165.7 274,-517.7 584,-517.7 584,-165.7 274,-165.7"/>
</a>
</g>
</g>
<!-- alert -->
<g id="node2" class="node">
<title>alert</title>
<g id="a_node2"><a xlink:href="../../tables/alert.html" xlink:title="alert" target="_top">
<polygon fill="#ffffff" stroke="transparent" points="8,-38.2 8,-275.2 224,-275.2 224,-38.2 8,-38.2"/>
<polygon fill="#f5f5f5" stroke="transparent" points="8,-251.7 8,-274.7 224,-274.7 224,-251.7 8,-251.7"/>
<polygon fill="none" stroke="#000000" points="8,-251.7 8,-274.7 224,-274.7 224,-251.7 8,-251.7"/>
<text text-anchor="start" x="13" y="-260.3" font-family="Helvetica,sans-Serif" font-weight="bold" font-size="11.00" fill="#000000">alert</text>
<text text-anchor="start" x="189.0437" y="-259.8" font-family="Helvetica,sans-Serif" font-size="11.00" fill="#000000">[table]</text>
<polygon fill="none" stroke="#000000" points="8,-229.7 8,-251.7 224,-251.7 224,-229.7 8,-229.7"/>
<image xlink:href="../../images/primaryKeys.png" width="11px" height="12px" preserveAspectRatio="xMinYMin meet" x="13" y="-246.7"/>
<text text-anchor="start" x="28" y="-236.8" font-family="Helvetica,sans-Serif" font-size="11.00" fill="#000000">id</text>
<polygon fill="#ffffff" stroke="transparent" points="8,-207.7 8,-229.7 224,-229.7 224,-207.7 8,-207.7"/>
<polygon fill="none" stroke="#000000" points="8,-207.7 8,-229.7 224,-229.7 224,-207.7 8,-207.7"/>
<image xlink:href="../../images/foreignKeys.png" width="11px" height="12px" preserveAspectRatio="xMinYMin meet" x="13" y="-224.7"/>
<text text-anchor="start" x="28" y="-214.8" font-family="Helvetica,sans-Serif" font-size="11.00" fill="#000000">alert_code_id</text>
<polygon fill="#ffffff" stroke="transparent" points="8,-185.7 8,-207.7 224,-207.7 224,-185.7 8,-185.7"/>
<polygon fill="none" stroke="#000000" points="8,-185.7 8,-207.7 224,-207.7 224,-185.7 8,-185.7"/>
<image xlink:href="../../images/foreignKeys.png" width="11px" height="12px" preserveAspectRatio="xMinYMin meet" x="13" y="-202.7"/>
<text text-anchor="start" x="28" y="-192.8" font-family="Helvetica,sans-Serif" font-size="11.00" fill="#000000">prison_number</text>
<polygon fill="#ffffff" stroke="transparent" points="8,-163.7 8,-185.7 224,-185.7 224,-163.7 8,-163.7"/>
<polygon fill="none" stroke="#000000" points="8,-163.7 8,-185.7 224,-185.7 224,-163.7 8,-163.7"/>
<text text-anchor="start" x="28" y="-170.8" font-family="Helvetica,sans-Serif" font-size="11.00" fill="#000000">active_from</text>
<polygon fill="#ffffff" stroke="transparent" points="8,-141.7 8,-163.7 224,-163.7 224,-141.7 8,-141.7"/>
<polygon fill="none" stroke="#000000" points="8,-141.7 8,-163.7 224,-163.7 224,-141.7 8,-141.7"/>
<text text-anchor="start" x="28" y="-148.8" font-family="Helvetica,sans-Serif" font-size="11.00" fill="#000000">active_to</text>
<polygon fill="#ffffff" stroke="transparent" points="8,-119.7 8,-141.7 224,-141.7 224,-119.7 8,-119.7"/>
<polygon fill="none" stroke="#000000" points="8,-119.7 8,-141.7 224,-141.7 224,-119.7 8,-119.7"/>
<text text-anchor="start" x="28" y="-126.8" font-family="Helvetica,sans-Serif" font-size="11.00" fill="#000000">deleted_at</text>
<polygon fill="#ffffff" stroke="transparent" points="8,-97.7 8,-119.7 224,-119.7 224,-97.7 8,-97.7"/>
<polygon fill="none" stroke="#000000" points="8,-97.7 8,-119.7 224,-119.7 224,-97.7 8,-97.7"/>
<text text-anchor="start" x="28" y="-104.8" font-family="Helvetica,sans-Serif" font-size="11.00" fill="#000000">created_at</text>
<polygon fill="#ffffff" stroke="transparent" points="8,-75.7 8,-97.7 224,-97.7 224,-75.7 8,-75.7"/>
<polygon fill="none" stroke="#000000" points="8,-75.7 8,-97.7 224,-97.7 224,-75.7 8,-75.7"/>
<text text-anchor="start" x="28" y="-82.8" font-family="Helvetica,sans-Serif" font-size="11.00" fill="#000000">last_modified_at</text>
<polygon fill="none" stroke="#000000" points="8,-56.7 8,-75.7 224,-75.7 224,-56.7 8,-56.7"/>
<text text-anchor="start" x="11" y="-62.8" font-family="Helvetica,sans-Serif" font-size="11.00" fill="#000000">...</text>
<polygon fill="#ffffff" stroke="transparent" points="8,-37.7 8,-56.7 224,-56.7 224,-37.7 8,-37.7"/>
<polygon fill="none" stroke="#000000" points="8,-37.7 8,-56.7 224,-56.7 224,-37.7 8,-37.7"/>
<polygon fill="#ffffff" stroke="transparent" points="9,-38.7 9,-55.7 84,-55.7 84,-38.7 9,-38.7"/>
<text text-anchor="start" x="11" y="-43.8" font-family="Helvetica,sans-Serif" font-size="11.00" fill="#000000">&lt; 1</text>
<polygon fill="#ffffff" stroke="transparent" points="84,-38.7 84,-55.7 149,-55.7 149,-38.7 84,-38.7"/>
<text text-anchor="start" x="113.4431" y="-43.8" font-family="Helvetica,sans-Serif" font-size="11.00" fill="#000000"> &#160;</text>
<polygon fill="#ffffff" stroke="transparent" points="149,-38.7 149,-55.7 223,-55.7 223,-38.7 149,-38.7"/>
<text text-anchor="start" x="205.4053" y="-43.8" font-family="Helvetica,sans-Serif" font-size="11.00" fill="#000000">1 &gt;</text>
<polygon fill="#000000" stroke="#000000" points="84,-38.7 84,-55.7 84,-55.7 84,-38.7 84,-38.7"/>
<polygon fill="#000000" stroke="#000000" points="149,-38.7 149,-55.7 149,-55.7 149,-38.7 149,-38.7"/>
</a>
</g>
</g>
<!-- audit_event&#45;&gt;alert -->
<g id="edge1" class="edge">
<title>audit_event:w&#45;&gt;alert:e</title>
<path fill="none" stroke="#000000" d="M260.276,-240.7C248.2815,-240.7 240.8229,-240.7 224,-240.7"/>
<polygon fill="#000000" stroke="#000000" points="267,-240.7001 275,-244.3 271,-240.7 275,-240.7 275,-240.7 275,-240.7 271,-240.7 275,-237.1 267,-240.7001 267,-240.7001"/>
<ellipse fill="none" stroke="#000000" cx="263.8" cy="-240.7001" rx="3.2" ry="3.2"/>
</g>
</g>
</svg>
