<?xml version="1.0" encoding="UTF-8" standalone="no"?>
<!DOCTYPE svg PUBLIC "-//W3C//DTD SVG 1.1//EN"
 "http://www.w3.org/Graphics/SVG/1.1/DTD/svg11.dtd">
<!-- Generated by graphviz version 2.40.1 (20161225.0304)
 -->
<!-- Title: oneDegreeRelationshipsDiagram Pages: 1 -->
<svg width="484pt" height="448pt"
 viewBox="0.00 0.00 484.00 448.20" xmlns="http://www.w3.org/2000/svg" xmlns:xlink="http://www.w3.org/1999/xlink">
<g id="graph0" class="graph" transform="scale(1 1) rotate(0) translate(4 444.2)">
<title>oneDegreeRelationshipsDiagram</title>
<polygon fill="#ffffff" stroke="transparent" points="-4,4 -4,-444.2 480,-444.2 480,4 -4,4"/>
<text text-anchor="middle" x="72.4936" y="-7.3" font-family="Helvetica,sans-Serif" font-size="11.00" fill="#000000">Generated by SchemaSpy</text>
<!-- plan_person -->
<g id="node1" class="node">
<title>plan_person</title>
<g id="a_node1"><a xlink:href="../../tables/plan_person.html" xlink:title="plan_person" target="_top">
<polygon fill="#ffffff" stroke="transparent" points="347,-348.2 347,-434.2 468,-434.2 468,-348.2 347,-348.2"/>
<polygon fill="#f5f5f5" stroke="transparent" points="347.5,-411.2 347.5,-434.2 468.5,-434.2 468.5,-411.2 347.5,-411.2"/>
<polygon fill="none" stroke="#000000" points="347.5,-411.2 347.5,-434.2 468.5,-434.2 468.5,-411.2 347.5,-411.2"/>
<text text-anchor="start" x="352.5" y="-419.8" font-family="Helvetica,sans-Serif" font-weight="bold" font-size="11.00" fill="#000000">plan_person</text>
<text text-anchor="start" x="434.0219" y="-419.3" font-family="Helvetica,sans-Serif" font-size="11.00" fill="#000000">[table]</text>
<polygon fill="none" stroke="#000000" points="347.5,-389.2 347.5,-411.2 468.5,-411.2 468.5,-389.2 347.5,-389.2"/>
<image xlink:href="../../images/foreignKeys.png" width="11px" height="12px" preserveAspectRatio="xMinYMin meet" x="352.5" y="-406.2"/>
<text text-anchor="start" x="367.5" y="-396.3" font-family="Helvetica,sans-Serif" font-size="11.00" fill="#000000">plan_id</text>
<polygon fill="none" stroke="#000000" points="347.5,-367.2 347.5,-389.2 468.5,-389.2 468.5,-367.2 347.5,-367.2"/>
<image xlink:href="../../images/foreignKeys.png" width="11px" height="12px" preserveAspectRatio="xMinYMin meet" x="352.5" y="-384.2"/>
<text text-anchor="start" x="367.5" y="-374.3" font-family="Helvetica,sans-Serif" font-size="11.00" fill="#000000">prison_number</text>
<polygon fill="#ffffff" stroke="transparent" points="347.5,-348.2 347.5,-367.2 406.5,-367.2 406.5,-348.2 347.5,-348.2"/>
<polygon fill="none" stroke="#000000" points="347.5,-348.2 347.5,-367.2 406.5,-367.2 406.5,-348.2 347.5,-348.2"/>
<text text-anchor="start" x="350.5" y="-354.3" font-family="Helvetica,sans-Serif" font-size="11.00" fill="#000000">&lt; 2</text>
<polygon fill="#ffffff" stroke="transparent" points="406.5,-348.2 406.5,-367.2 437.5,-367.2 437.5,-348.2 406.5,-348.2"/>
<polygon fill="none" stroke="#000000" points="406.5,-348.2 406.5,-367.2 437.5,-367.2 437.5,-348.2 406.5,-348.2"/>
<text text-anchor="start" x="428.3862" y="-354.3" font-family="Helvetica,sans-Serif" font-size="11.00" fill="#000000"> &#160;</text>
<polygon fill="#ffffff" stroke="transparent" points="437.5,-348.2 437.5,-367.2 468.5,-367.2 468.5,-348.2 437.5,-348.2"/>
<polygon fill="none" stroke="#000000" points="437.5,-348.2 437.5,-367.2 468.5,-367.2 468.5,-348.2 437.5,-348.2"/>
<text text-anchor="start" x="459.3862" y="-354.3" font-family="Helvetica,sans-Serif" font-size="11.00" fill="#000000"> &#160;</text>
</a>
</g>
</g>
<!-- bulk_plan -->
<g id="node2" class="node">
<title>bulk_plan</title>
<g id="a_node2"><a xlink:href="../../tables/bulk_plan.html" xlink:title="bulk_plan" target="_top">
<polygon fill="#ffffff" stroke="transparent" points="8,-38.2 8,-436.2 298,-436.2 298,-38.2 8,-38.2"/>
<polygon fill="#f5f5f5" stroke="transparent" points="10,-411.2 10,-434.2 296,-434.2 296,-411.2 10,-411.2"/>
<polygon fill="none" stroke="#000000" points="10,-411.2 10,-434.2 296,-434.2 296,-411.2 10,-411.2"/>
<text text-anchor="start" x="15" y="-419.8" font-family="Helvetica,sans-Serif" font-weight="bold" font-size="11.00" fill="#000000">bulk_plan</text>
<text text-anchor="start" x="261.0437" y="-419.3" font-family="Helvetica,sans-Serif" font-size="11.00" fill="#000000">[table]</text>
<polygon fill="none" stroke="#000000" points="10,-389.2 10,-411.2 202,-411.2 202,-389.2 10,-389.2"/>
<image xlink:href="../../images/primaryKeys.png" width="11px" height="12px" preserveAspectRatio="xMinYMin meet" x="15" y="-406.2"/>
<text text-anchor="start" x="30" y="-396.3" font-family="Helvetica,sans-Serif" font-size="11.00" fill="#000000">id</text>
<polygon fill="none" stroke="#000000" points="202,-389.2 202,-411.2 296,-411.2 296,-389.2 202,-389.2"/>
<text text-anchor="start" x="204.9758" y="-396.9" font-family="Helvetica,sans-Serif" font-size="11.00" fill="#000000">uuid[2147483647]</text>
<polygon fill="none" stroke="#000000" points="10,-367.2 10,-389.2 202,-389.2 202,-367.2 10,-367.2"/>
<text text-anchor="start" x="30" y="-374.3" font-family="Helvetica,sans-Serif" font-size="11.00" fill="#000000">alert_code_id</text>
<polygon fill="none" stroke="#000000" points="202,-367.2 202,-389.2 296,-389.2 296,-367.2 202,-367.2"/>
<text text-anchor="start" x="205" y="-374.9" font-family="Helvetica,sans-Serif" font-size="11.00" fill="#000000">int4[10]</text>
<polygon fill="none" stroke="#000000" points="10,-345.2 10,-367.2 202,-367.2 202,-345.2 10,-345.2"/>
<text text-anchor="start" x="30" y="-352.3" font-family="Helvetica,sans-Serif" font-size="11.00" fill="#000000">description</text>
<polygon fill="none" stroke="#000000" points="202,-345.2 202,-367.2 296,-367.2 296,-345.2 202,-345.2"/>
<text text-anchor="start" x="205" y="-352.9" font-family="Helvetica,sans-Serif" font-size="11.00" fill="#000000">text[2147483647]</text>
<polygon fill="none" stroke="#000000" points="10,-323.2 10,-345.2 202,-345.2 202,-323.2 10,-323.2"/>
<text text-anchor="start" x="30" y="-330.3" font-family="Helvetica,sans-Serif" font-size="11.00" fill="#000000">version</text>
<polygon fill="none" stroke="#000000" points="202,-323.2 202,-345.2 296,-345.2 296,-323.2 202,-323.2"/>
<text text-anchor="start" x="205" y="-330.9" font-family="Helvetica,sans-Serif" font-size="11.00" fill="#000000">int4[10]</text>
<polygon fill="none" stroke="#000000" points="10,-301.2 10,-323.2 202,-323.2 202,-301.2 10,-301.2"/>
<text text-anchor="start" x="30" y="-308.3" font-family="Helvetica,sans-Serif" font-size="11.00" fill="#000000">created_at</text>
<polygon fill="none" stroke="#000000" points="202,-301.2 202,-323.2 296,-323.2 296,-301.2 202,-301.2"/>
<text text-anchor="start" x="205" y="-308.9" font-family="Helvetica,sans-Serif" font-size="11.00" fill="#000000">timestamp[29,6]</text>
<polygon fill="none" stroke="#000000" points="10,-279.2 10,-301.2 202,-301.2 202,-279.2 10,-279.2"/>
<text text-anchor="start" x="30" y="-286.3" font-family="Helvetica,sans-Serif" font-size="11.00" fill="#000000">created_by</text>
<polygon fill="none" stroke="#000000" points="202,-279.2 202,-301.2 296,-301.2 296,-279.2 202,-279.2"/>
<text text-anchor="start" x="205" y="-286.9" font-family="Helvetica,sans-Serif" font-size="11.00" fill="#000000">varchar[64]</text>
<polygon fill="none" stroke="#000000" points="10,-257.2 10,-279.2 202,-279.2 202,-257.2 10,-257.2"/>
<text text-anchor="start" x="30" y="-264.3" font-family="Helvetica,sans-Serif" font-size="11.00" fill="#000000">created_by_display_name</text>
<polygon fill="none" stroke="#000000" points="202,-257.2 202,-279.2 296,-279.2 296,-257.2 202,-257.2"/>
<text text-anchor="start" x="205" y="-264.9" font-family="Helvetica,sans-Serif" font-size="11.00" fill="#000000">varchar[255]</text>
<polygon fill="none" stroke="#000000" points="10,-235.2 10,-257.2 202,-257.2 202,-235.2 10,-235.2"/>
<text text-anchor="start" x="30" y="-242.3" font-family="Helvetica,sans-Serif" font-size="11.00" fill="#000000">cleanup_mode</text>
<polygon fill="none" stroke="#000000" points="202,-235.2 202,-257.2 296,-257.2 296,-235.2 202,-235.2"/>
<text text-anchor="start" x="205" y="-242.9" font-family="Helvetica,sans-Serif" font-size="11.00" fill="#000000">varchar[64]</text>
<polygon fill="none" stroke="#000000" points="10,-213.2 10,-235.2 202,-235.2 202,-213.2 10,-213.2"/>
<text text-anchor="start" x="30" y="-220.3" font-family="Helvetica,sans-Serif" font-size="11.00" fill="#000000">started_at</text>
<polygon fill="none" stroke="#000000" points="202,-213.2 202,-235.2 296,-235.2 296,-213.2 202,-213.2"/>
<text text-anchor="start" x="205" y="-220.9" font-family="Helvetica,sans-Serif" font-size="11.00" fill="#000000">timestamp[29,6]</text>
<polygon fill="none" stroke="#000000" points="10,-191.2 10,-213.2 202,-213.2 202,-191.2 10,-191.2"/>
<text text-anchor="start" x="30" y="-198.3" font-family="Helvetica,sans-Serif" font-size="11.00" fill="#000000">started_by</text>
<polygon fill="none" stroke="#000000" points="202,-191.2 202,-213.2 296,-213.2 296,-191.2 202,-191.2"/>
<text text-anchor="start" x="205" y="-198.9" font-family="Helvetica,sans-Serif" font-size="11.00" fill="#000000">varchar[64]</text>
<polygon fill="none" stroke="#000000" points="10,-169.2 10,-191.2 202,-191.2 202,-169.2 10,-169.2"/>
<text text-anchor="start" x="30" y="-176.3" font-family="Helvetica,sans-Serif" font-size="11.00" fill="#000000">started_by_display_name</text>
<polygon fill="none" stroke="#000000" points="202,-169.2 202,-191.2 296,-191.2 296,-169.2 202,-169.2"/>
<text text-anchor="start" x="205" y="-176.9" font-family="Helvetica,sans-Serif" font-size="11.00" fill="#000000">varchar[255]</text>
<polygon fill="none" stroke="#000000" points="10,-147.2 10,-169.2 202,-169.2 202,-147.2 10,-147.2"/>
<text text-anchor="start" x="30" y="-154.3" font-family="Helvetica,sans-Serif" font-size="11.00" fill="#000000">completed_at</text>
<polygon fill="none" stroke="#000000" points="202,-147.2 202,-169.2 296,-169.2 296,-147.2 202,-147.2"/>
<text text-anchor="start" x="205" y="-154.9" font-family="Helvetica,sans-Serif" font-size="11.00" fill="#000000">timestamp[29,6]</text>
<polygon fill="none" stroke="#000000" points="10,-125.2 10,-147.2 202,-147.2 202,-125.2 10,-125.2"/>
<text text-anchor="start" x="30" y="-132.3" font-family="Helvetica,sans-Serif" font-size="11.00" fill="#000000">created_count</text>
<polygon fill="none" stroke="#000000" points="202,-125.2 202,-147.2 296,-147.2 296,-125.2 202,-125.2"/>
<text text-anchor="start" x="205" y="-132.9" font-family="Helvetica,sans-Serif" font-size="11.00" fill="#000000">int4[10]</text>
<polygon fill="none" stroke="#000000" points="10,-103.2 10,-125.2 202,-125.2 202,-103.2 10,-103.2"/>
<text text-anchor="start" x="30" y="-110.3" font-family="Helvetica,sans-Serif" font-size="11.00" fill="#000000">updated_count</text>
<polygon fill="none" stroke="#000000" points="202,-103.2 202,-125.2 296,-125.2 296,-103.2 202,-103.2"/>
<text text-anchor="start" x="205" y="-110.9" font-family="Helvetica,sans-Serif" font-size="11.00" fill="#000000">int4[10]</text>
<polygon fill="none" stroke="#000000" points="10,-81.2 10,-103.2 202,-103.2 202,-81.2 10,-81.2"/>
<text text-anchor="start" x="30" y="-88.3" font-family="Helvetica,sans-Serif" font-size="11.00" fill="#000000">unchanged_count</text>
<polygon fill="none" stroke="#000000" points="202,-81.2 202,-103.2 296,-103.2 296,-81.2 202,-81.2"/>
<text text-anchor="start" x="205" y="-88.9" font-family="Helvetica,sans-Serif" font-size="11.00" fill="#000000">int4[10]</text>
<polygon fill="none" stroke="#000000" points="10,-59.2 10,-81.2 202,-81.2 202,-59.2 10,-59.2"/>
<text text-anchor="start" x="30" y="-66.3" font-family="Helvetica,sans-Serif" font-size="11.00" fill="#000000">expired_count</text>
<polygon fill="none" stroke="#000000" points="202,-59.2 202,-81.2 296,-81.2 296,-59.2 202,-59.2"/>
<text text-anchor="start" x="205" y="-66.9" font-family="Helvetica,sans-Serif" font-size="11.00" fill="#000000">int4[10]</text>
<polygon fill="#ffffff" stroke="transparent" points="10,-40.2 10,-59.2 110,-59.2 110,-40.2 10,-40.2"/>
<polygon fill="none" stroke="#000000" points="10,-40.2 10,-59.2 110,-59.2 110,-40.2 10,-40.2"/>
<text text-anchor="start" x="13" y="-46.3" font-family="Helvetica,sans-Serif" font-size="11.00" fill="#000000">&lt; 0</text>
<polygon fill="#ffffff" stroke="transparent" points="110,-40.2 110,-59.2 202,-59.2 202,-40.2 110,-40.2"/>
<polygon fill="none" stroke="#000000" points="110,-40.2 110,-59.2 202,-59.2 202,-40.2 110,-40.2"/>
<text text-anchor="start" x="192.8862" y="-46.3" font-family="Helvetica,sans-Serif" font-size="11.00" fill="#000000"> &#160;</text>
<polygon fill="#ffffff" stroke="transparent" points="202,-40.2 202,-59.2 296,-59.2 296,-40.2 202,-40.2"/>
<polygon fill="none" stroke="#000000" points="202,-40.2 202,-59.2 296,-59.2 296,-40.2 202,-40.2"/>
<text text-anchor="start" x="277.4053" y="-46.3" font-family="Helvetica,sans-Serif" font-size="11.00" fill="#000000">1 &gt;</text>
<polygon fill="none" stroke="#000000" stroke-width="2" points="9,-39.2 9,-435.2 297,-435.2 297,-39.2 9,-39.2"/>
</a>
</g>
</g>
<!-- plan_person&#45;&gt;bulk_plan -->
<g id="edge1" class="edge">
<title>plan_person:w&#45;&gt;bulk_plan:e</title>
<path fill="none" stroke="#000000" d="M333.0156,-400.2C320.6771,-400.2 313.1667,-400.2 296,-400.2"/>
<polygon fill="#000000" stroke="#000000" points="339.5,-400.2001 347.5,-403.8 343.5,-400.2 347.5,-400.2 347.5,-400.2 347.5,-400.2 343.5,-400.2 347.5,-396.6 339.5,-400.2001 339.5,-400.2001"/>
<ellipse fill="none" stroke="#000000" cx="336.3" cy="-400.2001" rx="3.2" ry="3.2"/>
</g>
</g>
</svg>
