<?xml version="1.0" encoding="UTF-8" standalone="no"?>
<!DOCTYPE svg PUBLIC "-//W3C//DTD SVG 1.1//EN"
 "http://www.w3.org/Graphics/SVG/1.1/DTD/svg11.dtd">
<!-- Generated by graphviz version 2.40.1 (20161225.0304)
 -->
<!-- Title: twoDegreesRelationshipsDiagram Pages: 1 -->
<svg width="508pt" height="531pt"
 viewBox="0.00 0.00 508.00 530.70" xmlns="http://www.w3.org/2000/svg" xmlns:xlink="http://www.w3.org/1999/xlink">
<g id="graph0" class="graph" transform="scale(1 1) rotate(0) translate(4 526.7)">
<title>twoDegreesRelationshipsDiagram</title>
<polygon fill="#ffffff" stroke="transparent" points="-4,4 -4,-526.7 504,-526.7 504,4 -4,4"/>
<text text-anchor="middle" x="72.4936" y="-7.3" font-family="Helvetica,sans-Serif" font-size="11.00" fill="#000000">Generated by SchemaSpy</text>
<!-- plan_person -->
<g id="node1" class="node">
<title>plan_person</title>
<g id="a_node1"><a xlink:href="../../tables/plan_person.html" xlink:title="plan_person" target="_top">
<polygon fill="#ffffff" stroke="transparent" points="362,-232.7 362,-318.7 492,-318.7 492,-232.7 362,-232.7"/>
<polygon fill="#f5f5f5" stroke="transparent" points="362,-295.7 362,-318.7 492,-318.7 492,-295.7 362,-295.7"/>
<polygon fill="none" stroke="#000000" points="362,-295.7 362,-318.7 492,-318.7 492,-295.7 362,-295.7"/>
<text text-anchor="start" x="367" y="-304.3" font-family="Helvetica,sans-Serif" font-weight="bold" font-size="11.00" fill="#000000">plan_person</text>
<text text-anchor="start" x="457.0437" y="-303.8" font-family="Helvetica,sans-Serif" font-size="11.00" fill="#000000">[table]</text>
<polygon fill="none" stroke="#000000" points="362,-273.7 362,-295.7 492,-295.7 492,-273.7 362,-273.7"/>
<image xlink:href="../../images/primaryKeys.png" width="11px" height="12px" preserveAspectRatio="xMinYMin meet" x="367" y="-290.7"/>
<text text-anchor="start" x="382" y="-280.8" font-family="Helvetica,sans-Serif" font-size="11.00" fill="#000000">plan_id</text>
<polygon fill="none" stroke="#000000" points="362,-251.7 362,-273.7 492,-273.7 492,-251.7 362,-251.7"/>
<image xlink:href="../../images/primaryKeys.png" width="11px" height="12px" preserveAspectRatio="xMinYMin meet" x="367" y="-268.7"/>
<text text-anchor="start" x="382" y="-258.8" font-family="Helvetica,sans-Serif" font-size="11.00" fill="#000000">prison_number</text>
<polygon fill="#ffffff" stroke="transparent" points="362,-232.7 362,-251.7 492,-251.7 492,-232.7 362,-232.7"/>
<polygon fill="none" stroke="#000000" points="362,-232.7 362,-251.7 492,-251.7 492,-232.7 362,-232.7"/>
<polygon fill="#ffffff" stroke="transparent" points="363,-233.7 363,-250.7 412,-250.7 412,-233.7 363,-233.7"/>
<text text-anchor="start" x="365" y="-238.8" font-family="Helvetica,sans-Serif" font-size="11.00" fill="#000000">&lt; 2</text>
<polygon fill="#ffffff" stroke="transparent" points="412,-233.7 412,-250.7 452,-250.7 452,-233.7 412,-233.7"/>
<text text-anchor="start" x="428.9431" y="-238.8" font-family="Helvetica,sans-Serif" font-size="11.00" fill="#000000"> &#160;</text>
<polygon fill="#ffffff" stroke="transparent" points="452,-233.7 452,-250.7 491,-250.7 491,-233.7 452,-233.7"/>
<text text-anchor="start" x="482.8862" y="-238.8" font-family="Helvetica,sans-Serif" font-size="11.00" fill="#000000"> &#160;</text>
<polygon fill="#000000" stroke="#000000" points="412,-233.7 412,-250.7 412,-250.7 412,-233.7 412,-233.7"/>
<polygon fill="#000000" stroke="#000000" points="452,-233.7 452,-250.7 452,-250.7 452,-233.7 452,-233.7"/>
</a>
</g>
</g>
<!-- bulk_plan -->
<g id="node2" class="node">
<title>bulk_plan</title>
<g id="a_node2"><a xlink:href="../../tables/bulk_plan.html" xlink:title="bulk_plan" target="_top">
<polygon fill="#ffffff" stroke="transparent" points="8,-120.7 8,-518.7 313,-518.7 313,-120.7 8,-120.7"/>
<polygon fill="#f5f5f5" stroke="transparent" points="10.5,-493.7 10.5,-516.7 311.5,-516.7 311.5,-493.7 10.5,-493.7"/>
<polygon fill="none" stroke="#000000" points="10.5,-493.7 10.5,-516.7 311.5,-516.7 311.5,-493.7 10.5,-493.7"/>
<text text-anchor="start" x="15.5" y="-502.3" font-family="Helvetica,sans-Serif" font-weight="bold" font-size="11.00" fill="#000000">bulk_plan</text>
<text text-anchor="start" x="276.5437" y="-501.8" font-family="Helvetica,sans-Serif" font-size="11.00" fill="#000000">[table]</text>
<polygon fill="none" stroke="#000000" points="10.5,-471.7 10.5,-493.7 217.5,-493.7 217.5,-471.7 10.5,-471.7"/>
<image xlink:href="../../images/primaryKeys.png" width="11px" height="12px" preserveAspectRatio="xMinYMin meet" x="15.5" y="-488.7"/>
<text text-anchor="start" x="30.5" y="-478.8" font-family="Helvetica,sans-Serif" font-size="11.00" fill="#000000">id</text>
<polygon fill="none" stroke="#000000" points="217.5,-471.7 217.5,-493.7 311.5,-493.7 311.5,-471.7 217.5,-471.7"/>
<text text-anchor="start" x="220.4758" y="-479.4" font-family="Helvetica,sans-Serif" font-size="11.00" fill="#000000">uuid[2147483647]</text>
<polygon fill="none" stroke="#000000" points="10.5,-449.7 10.5,-471.7 217.5,-471.7 217.5,-449.7 10.5,-449.7"/>
<text text-anchor="start" x="30.5" y="-456.8" font-family="Helvetica,sans-Serif" font-size="11.00" fill="#000000">alert_code_id</text>
<polygon fill="none" stroke="#000000" points="217.5,-449.7 217.5,-471.7 311.5,-471.7 311.5,-449.7 217.5,-449.7"/>
<text text-anchor="start" x="220.5" y="-457.4" font-family="Helvetica,sans-Serif" font-size="11.00" fill="#000000">int4[10]</text>
<polygon fill="none" stroke="#000000" points="10.5,-427.7 10.5,-449.7 217.5,-449.7 217.5,-427.7 10.5,-427.7"/>
<text text-anchor="start" x="30.5" y="-434.8" font-family="Helvetica,sans-Serif" font-size="11.00" fill="#000000">description</text>
<polygon fill="none" stroke="#000000" points="217.5,-427.7 217.5,-449.7 311.5,-449.7 311.5,-427.7 217.5,-427.7"/>
<text text-anchor="start" x="220.5" y="-435.4" font-family="Helvetica,sans-Serif" font-size="11.00" fill="#000000">text[2147483647]</text>
<polygon fill="none" stroke="#000000" points="10.5,-405.7 10.5,-427.7 217.5,-427.7 217.5,-405.7 10.5,-405.7"/>
<text text-anchor="start" x="30.5" y="-412.8" font-family="Helvetica,sans-Serif" font-size="11.00" fill="#000000">version</text>
<polygon fill="none" stroke="#000000" points="217.5,-405.7 217.5,-427.7 311.5,-427.7 311.5,-405.7 217.5,-405.7"/>
<text text-anchor="start" x="220.5" y="-413.4" font-family="Helvetica,sans-Serif" font-size="11.00" fill="#000000">int4[10]</text>
<polygon fill="none" stroke="#000000" points="10.5,-383.7 10.5,-405.7 217.5,-405.7 217.5,-383.7 10.5,-383.7"/>
<text text-anchor="start" x="30.5" y="-390.8" font-family="Helvetica,sans-Serif" font-size="11.00" fill="#000000">created_at</text>
<polygon fill="none" stroke="#000000" points="217.5,-383.7 217.5,-405.7 311.5,-405.7 311.5,-383.7 217.5,-383.7"/>
<text text-anchor="start" x="220.5" y="-391.4" font-family="Helvetica,sans-Serif" font-size="11.00" fill="#000000">timestamp[29,6]</text>
<polygon fill="none" stroke="#000000" points="10.5,-361.7 10.5,-383.7 217.5,-383.7 217.5,-361.7 10.5,-361.7"/>
<text text-anchor="start" x="30.5" y="-368.8" font-family="Helvetica,sans-Serif" font-size="11.00" fill="#000000">created_by</text>
<polygon fill="none" stroke="#000000" points="217.5,-361.7 217.5,-383.7 311.5,-383.7 311.5,-361.7 217.5,-361.7"/>
<text text-anchor="start" x="220.5" y="-369.4" font-family="Helvetica,sans-Serif" font-size="11.00" fill="#000000">varchar[64]</text>
<polygon fill="none" stroke="#000000" points="10.5,-339.7 10.5,-361.7 217.5,-361.7 217.5,-339.7 10.5,-339.7"/>
<text text-anchor="start" x="30.5" y="-346.8" font-family="Helvetica,sans-Serif" font-size="11.00" fill="#000000">created_by_display_name</text>
<polygon fill="none" stroke="#000000" points="217.5,-339.7 217.5,-361.7 311.5,-361.7 311.5,-339.7 217.5,-339.7"/>
<text text-anchor="start" x="220.5" y="-347.4" font-family="Helvetica,sans-Serif" font-size="11.00" fill="#000000">varchar[255]</text>
<polygon fill="none" stroke="#000000" points="10.5,-317.7 10.5,-339.7 217.5,-339.7 217.5,-317.7 10.5,-317.7"/>
<text text-anchor="start" x="30.5" y="-324.8" font-family="Helvetica,sans-Serif" font-size="11.00" fill="#000000">cleanup_mode</text>
<polygon fill="none" stroke="#000000" points="217.5,-317.7 217.5,-339.7 311.5,-339.7 311.5,-317.7 217.5,-317.7"/>
<text text-anchor="start" x="220.5" y="-325.4" font-family="Helvetica,sans-Serif" font-size="11.00" fill="#000000">varchar[64]</text>
<polygon fill="none" stroke="#000000" points="10.5,-295.7 10.5,-317.7 217.5,-317.7 217.5,-295.7 10.5,-295.7"/>
<text text-anchor="start" x="30.5" y="-302.8" font-family="Helvetica,sans-Serif" font-size="11.00" fill="#000000">started_at</text>
<polygon fill="none" stroke="#000000" points="217.5,-295.7 217.5,-317.7 311.5,-317.7 311.5,-295.7 217.5,-295.7"/>
<text text-anchor="start" x="220.5" y="-303.4" font-family="Helvetica,sans-Serif" font-size="11.00" fill="#000000">timestamp[29,6]</text>
<polygon fill="none" stroke="#000000" points="10.5,-273.7 10.5,-295.7 217.5,-295.7 217.5,-273.7 10.5,-273.7"/>
<text text-anchor="start" x="30.5" y="-280.8" font-family="Helvetica,sans-Serif" font-size="11.00" fill="#000000">started_by</text>
<polygon fill="none" stroke="#000000" points="217.5,-273.7 217.5,-295.7 311.5,-295.7 311.5,-273.7 217.5,-273.7"/>
<text text-anchor="start" x="220.5" y="-281.4" font-family="Helvetica,sans-Serif" font-size="11.00" fill="#000000">varchar[64]</text>
<polygon fill="none" stroke="#000000" points="10.5,-251.7 10.5,-273.7 217.5,-273.7 217.5,-251.7 10.5,-251.7"/>
<text text-anchor="start" x="30.5" y="-258.8" font-family="Helvetica,sans-Serif" font-size="11.00" fill="#000000">started_by_display_name</text>
<polygon fill="none" stroke="#000000" points="217.5,-251.7 217.5,-273.7 311.5,-273.7 311.5,-251.7 217.5,-251.7"/>
<text text-anchor="start" x="220.5" y="-259.4" font-family="Helvetica,sans-Serif" font-size="11.00" fill="#000000">varchar[255]</text>
<polygon fill="none" stroke="#000000" points="10.5,-229.7 10.5,-251.7 217.5,-251.7 217.5,-229.7 10.5,-229.7"/>
<text text-anchor="start" x="30.5" y="-236.8" font-family="Helvetica,sans-Serif" font-size="11.00" fill="#000000">completed_at</text>
<polygon fill="none" stroke="#000000" points="217.5,-229.7 217.5,-251.7 311.5,-251.7 311.5,-229.7 217.5,-229.7"/>
<text text-anchor="start" x="220.5" y="-237.4" font-family="Helvetica,sans-Serif" font-size="11.00" fill="#000000">timestamp[29,6]</text>
<polygon fill="none" stroke="#000000" points="10.5,-207.7 10.5,-229.7 217.5,-229.7 217.5,-207.7 10.5,-207.7"/>
<text text-anchor="start" x="30.5" y="-214.8" font-family="Helvetica,sans-Serif" font-size="11.00" fill="#000000">created_count</text>
<polygon fill="none" stroke="#000000" points="217.5,-207.7 217.5,-229.7 311.5,-229.7 311.5,-207.7 217.5,-207.7"/>
<text text-anchor="start" x="220.5" y="-215.4" font-family="Helvetica,sans-Serif" font-size="11.00" fill="#000000">int4[10]</text>
<polygon fill="none" stroke="#000000" points="10.5,-185.7 10.5,-207.7 217.5,-207.7 217.5,-185.7 10.5,-185.7"/>
<text text-anchor="start" x="30.5" y="-192.8" font-family="Helvetica,sans-Serif" font-size="11.00" fill="#000000">updated_count</text>
<polygon fill="none" stroke="#000000" points="217.5,-185.7 217.5,-207.7 311.5,-207.7 311.5,-185.7 217.5,-185.7"/>
<text text-anchor="start" x="220.5" y="-193.4" font-family="Helvetica,sans-Serif" font-size="11.00" fill="#000000">int4[10]</text>
<polygon fill="none" stroke="#000000" points="10.5,-163.7 10.5,-185.7 217.5,-185.7 217.5,-163.7 10.5,-163.7"/>
<text text-anchor="start" x="30.5" y="-170.8" font-family="Helvetica,sans-Serif" font-size="11.00" fill="#000000">unchanged_count</text>
<polygon fill="none" stroke="#000000" points="217.5,-163.7 217.5,-185.7 311.5,-185.7 311.5,-163.7 217.5,-163.7"/>
<text text-anchor="start" x="220.5" y="-171.4" font-family="Helvetica,sans-Serif" font-size="11.00" fill="#000000">int4[10]</text>
<polygon fill="none" stroke="#000000" points="10.5,-141.7 10.5,-163.7 217.5,-163.7 217.5,-141.7 10.5,-141.7"/>
<text text-anchor="start" x="30.5" y="-148.8" font-family="Helvetica,sans-Serif" font-size="11.00" fill="#000000">expired_count</text>
<polygon fill="none" stroke="#000000" points="217.5,-141.7 217.5,-163.7 311.5,-163.7 311.5,-141.7 217.5,-141.7"/>
<text text-anchor="start" x="220.5" y="-149.4" font-family="Helvetica,sans-Serif" font-size="11.00" fill="#000000">int4[10]</text>
<polygon fill="#ffffff" stroke="transparent" points="10.5,-122.7 10.5,-141.7 311.5,-141.7 311.5,-122.7 10.5,-122.7"/>
<polygon fill="none" stroke="#000000" points="10.5,-122.7 10.5,-141.7 311.5,-141.7 311.5,-122.7 10.5,-122.7"/>
<polygon fill="#ffffff" stroke="transparent" points="11.5,-123.7 11.5,-140.7 114.5,-140.7 114.5,-123.7 11.5,-123.7"/>
<text text-anchor="start" x="13.5" y="-128.8" font-family="Helvetica,sans-Serif" font-size="11.00" fill="#000000">&lt; 0</text>
<polygon fill="#ffffff" stroke="transparent" points="114.5,-123.7 114.5,-140.7 208.5,-140.7 208.5,-123.7 114.5,-123.7"/>
<text text-anchor="start" x="158.4431" y="-128.8" font-family="Helvetica,sans-Serif" font-size="11.00" fill="#000000"> &#160;</text>
<polygon fill="#ffffff" stroke="transparent" points="208.5,-123.7 208.5,-140.7 310.5,-140.7 310.5,-123.7 208.5,-123.7"/>
<text text-anchor="start" x="292.9053" y="-128.8" font-family="Helvetica,sans-Serif" font-size="11.00" fill="#000000">1 &gt;</text>
<polygon fill="#000000" stroke="#000000" points="114.5,-123.7 114.5,-140.7 114.5,-140.7 114.5,-123.7 114.5,-123.7"/>
<polygon fill="#000000" stroke="#000000" points="208.5,-123.7 208.5,-140.7 208.5,-140.7 208.5,-123.7 208.5,-123.7"/>
<polygon fill="none" stroke="#000000" stroke-width="2" points="9,-121.7 9,-517.7 312,-517.7 312,-121.7 9,-121.7"/>
</a>
</g>
</g>
<!-- plan_person&#45;&gt;bulk_plan -->
<g id="edge1" class="edge">
<title>plan_person:w&#45;&gt;bulk_plan:e</title>
<path fill="none" stroke="#000000" d="M347.4644,-286.9236C286.7076,-308.6766 396.6411,-482.7 311.5,-482.7"/>
<polygon fill="#000000" stroke="#000000" points="354.092,-285.9098 362.5444,-288.2586 358.046,-285.3049 362,-284.7 362,-284.7 362,-284.7 358.046,-285.3049 361.4556,-281.1414 354.092,-285.9098 354.092,-285.9098"/>
<ellipse fill="none" stroke="#000000" cx="350.9288" cy="-286.3937" rx="3.2" ry="3.2"/>
</g>
<!-- person_summary -->
<g id="node3" class="node">
<title>person_summary</title>
<g id="a_node3"><a xlink:href="../../tables/person_summary.html" xlink:title="person_summary" target="_top">
<polygon fill="#ffffff" stroke="transparent" points="79,-38.2 79,-99.2 242,-99.2 242,-38.2 79,-38.2"/>
<polygon fill="#f5f5f5" stroke="transparent" points="79.5,-75.7 79.5,-98.7 242.5,-98.7 242.5,-75.7 79.5,-75.7"/>
<polygon fill="none" stroke="#000000" points="79.5,-75.7 79.5,-98.7 242.5,-98.7 242.5,-75.7 79.5,-75.7"/>
<text text-anchor="start" x="84.5" y="-84.3" font-family="Helvetica,sans-Serif" font-weight="bold" font-size="11.00" fill="#000000">person_summary</text>
<text text-anchor="start" x="208.0219" y="-83.8" font-family="Helvetica,sans-Serif" font-size="11.00" fill="#000000">[table]</text>
<polygon fill="none" stroke="#000000" points="79.5,-56.7 79.5,-75.7 242.5,-75.7 242.5,-56.7 79.5,-56.7"/>
<text text-anchor="start" x="82.5" y="-62.8" font-family="Helvetica,sans-Serif" font-size="11.00" fill="#000000">...</text>
<polygon fill="#ffffff" stroke="transparent" points="79.5,-37.7 79.5,-56.7 242.5,-56.7 242.5,-37.7 79.5,-37.7"/>
<polygon fill="none" stroke="#000000" points="79.5,-37.7 79.5,-56.7 242.5,-56.7 242.5,-37.7 79.5,-37.7"/>
<polygon fill="#ffffff" stroke="transparent" points="80.5,-38.7 80.5,-55.7 131.5,-55.7 131.5,-38.7 80.5,-38.7"/>
<text text-anchor="start" x="82.5" y="-43.8" font-family="Helvetica,sans-Serif" font-size="11.00" fill="#000000"> &#160;</text>
<polygon fill="#ffffff" stroke="transparent" points="131.5,-38.7 131.5,-55.7 182.5,-55.7 182.5,-38.7 131.5,-38.7"/>
<text text-anchor="start" x="153.9431" y="-43.8" font-family="Helvetica,sans-Serif" font-size="11.00" fill="#000000"> &#160;</text>
<polygon fill="#ffffff" stroke="transparent" points="182.5,-38.7 182.5,-55.7 241.5,-55.7 241.5,-38.7 182.5,-38.7"/>
<text text-anchor="start" x="223.9053" y="-43.8" font-family="Helvetica,sans-Serif" font-size="11.00" fill="#000000">1 &gt;</text>
<polygon fill="#000000" stroke="#000000" points="131.5,-38.7 131.5,-55.7 131.5,-55.7 131.5,-38.7 131.5,-38.7"/>
<polygon fill="#000000" stroke="#000000" points="182.5,-38.7 182.5,-55.7 182.5,-55.7 182.5,-38.7 182.5,-38.7"/>
</a>
</g>
</g>
<!-- plan_person&#45;&gt;person_summary -->
<g id="edge2" class="edge">
<title>plan_person:w&#45;&gt;person_summary:e</title>
<path fill="none" stroke="#000000" d="M347.4993,-260.8261C303.0228,-247.1303 360.2218,-161.5643 321,-110.7 296.4431,-78.8536 282.7149,-65.7 242.5,-65.7"/>
<polygon fill="#000000" stroke="#000000" points="354.066,-261.6747 361.5386,-266.2703 358.033,-262.1873 362,-262.7 362,-262.7 362,-262.7 358.033,-262.1873 362.4614,-259.1297 354.066,-261.6747 354.066,-261.6747"/>
<ellipse fill="none" stroke="#000000" cx="350.8924" cy="-261.2645" rx="3.2" ry="3.2"/>
</g>
</g>
</svg>
