<?xml version="1.0" encoding="UTF-8" standalone="no"?>
<!DOCTYPE svg PUBLIC "-//W3C//DTD SVG 1.1//EN"
 "http://www.w3.org/Graphics/SVG/1.1/DTD/svg11.dtd">
<!-- Generated by graphviz version 2.40.1 (20161225.0304)
 -->
<!-- Title: oneDegreeRelationshipsDiagram Pages: 1 -->
<svg width="508pt" height="448pt"
 viewBox="0.00 0.00 508.00 448.20" xmlns="http://www.w3.org/2000/svg" xmlns:xlink="http://www.w3.org/1999/xlink">
<g id="graph0" class="graph" transform="scale(1 1) rotate(0) translate(4 444.2)">
<title>oneDegreeRelationshipsDiagram</title>
<polygon fill="#ffffff" stroke="transparent" points="-4,4 -4,-444.2 504,-444.2 504,4 -4,4"/>
<text text-anchor="middle" x="72.4936" y="-7.3" font-family="Helvetica,sans-Serif" font-size="11.00" fill="#000000">Generated by SchemaSpy</text>
<!-- plan_person -->
<g id="node1" class="node">
<title>plan_person</title>
<g id="a_node1"><a xlink:href="../../tables/plan_person.html" xlink:title="plan_person" target="_top">
<polygon fill="#ffffff" stroke="transparent" points="362,-348.2 362,-434.2 492,-434.2 492,-348.2 362,-348.2"/>
<polygon fill="#f5f5f5" stroke="transparent" points="362,-411.2 362,-434.2 492,-434.2 492,-411.2 362,-411.2"/>
<polygon fill="none" stroke="#000000" points="362,-411.2 362,-434.2 492,-434.2 492,-411.2 362,-411.2"/>
<text text-anchor="start" x="367" y="-419.8" font-family="Helvetica,sans-Serif" font-weight="bold" font-size="11.00" fill="#000000">plan_person</text>
<text text-anchor="start" x="457.0437" y="-419.3" font-family="Helvetica,sans-Serif" font-size="11.00" fill="#000000">[table]</text>
<polygon fill="none" stroke="#000000" points="362,-389.2 362,-411.2 492,-411.2 492,-389.2 362,-389.2"/>
<image xlink:href="../../images/primaryKeys.png" width="11px" height="12px" preserveAspectRatio="xMinYMin meet" x="367" y="-406.2"/>
<text text-anchor="start" x="382" y="-396.3" font-family="Helvetica,sans-Serif" font-size="11.00" fill="#000000">plan_id</text>
<polygon fill="none" stroke="#000000" points="362,-367.2 362,-389.2 492,-389.2 492,-367.2 362,-367.2"/>
<image xlink:href="../../images/primaryKeys.png" width="11px" height="12px" preserveAspectRatio="xMinYMin meet" x="367" y="-384.2"/>
<text text-anchor="start" x="382" y="-374.3" font-family="Helvetica,sans-Serif" font-size="11.00" fill="#000000">prison_number</text>
<polygon fill="#ffffff" stroke="transparent" points="362,-348.2 362,-367.2 492,-367.2 492,-348.2 362,-348.2"/>
<polygon fill="none" stroke="#000000" points="362,-348.2 362,-367.2 492,-367.2 492,-348.2 362,-348.2"/>
<polygon fill="#ffffff" stroke="transparent" points="363,-349.2 363,-366.2 412,-366.2 412,-349.2 363,-349.2"/>
<text text-anchor="start" x="365" y="-354.3" font-family="Helvetica,sans-Serif" font-size="11.00" fill="#000000">&lt; 2</text>
<polygon fill="#ffffff" stroke="transparent" points="412,-349.2 412,-366.2 452,-366.2 452,-349.2 412,-349.2"/>
<text text-anchor="start" x="428.9431" y="-354.3" font-family="Helvetica,sans-Serif" font-size="11.00" fill="#000000"> &#160;</text>
<polygon fill="#ffffff" stroke="transparent" points="452,-349.2 452,-366.2 491,-366.2 491,-349.2 452,-349.2"/>
<text text-anchor="start" x="482.8862" y="-354.3" font-family="Helvetica,sans-Serif" font-size="11.00" fill="#000000"> &#160;</text>
<polygon fill="#000000" stroke="#000000" points="412,-349.2 412,-366.2 412,-366.2 412,-349.2 412,-349.2"/>
<polygon fill="#000000" stroke="#000000" points="452,-349.2 452,-366.2 452,-366.2 452,-349.2 452,-349.2"/>
</a>
</g>
</g>
<!-- bulk_plan -->
<g id="node2" class="node">
<title>bulk_plan</title>
<g id="a_node2"><a xlink:href="../../tables/bulk_plan.html" xlink:title="bulk_plan" target="_top">
<polygon fill="#ffffff" stroke="transparent" points="8,-38.2 8,-436.2 313,-436.2 313,-38.2 8,-38.2"/>
<polygon fill="#f5f5f5" stroke="transparent" points="10.5,-411.2 10.5,-434.2 311.5,-434.2 311.5,-411.2 10.5,-411.2"/>
<polygon fill="none" stroke="#000000" points="10.5,-411.2 10.5,-434.2 311.5,-434.2 311.5,-411.2 10.5,-411.2"/>
<text text-anchor="start" x="15.5" y="-419.8" font-family="Helvetica,sans-Serif" font-weight="bold" font-size="11.00" fill="#000000">bulk_plan</text>
<text text-anchor="start" x="276.5437" y="-419.3" font-family="Helvetica,sans-Serif" font-size="11.00" fill="#000000">[table]</text>
<polygon fill="none" stroke="#000000" points="10.5,-389.2 10.5,-411.2 217.5,-411.2 217.5,-389.2 10.5,-389.2"/>
<image xlink:href="../../images/primaryKeys.png" width="11px" height="12px" preserveAspectRatio="xMinYMin meet" x="15.5" y="-406.2"/>
<text text-anchor="start" x="30.5" y="-396.3" font-family="Helvetica,sans-Serif" font-size="11.00" fill="#000000">id</text>
<polygon fill="none" stroke="#000000" points="217.5,-389.2 217.5,-411.2 311.5,-411.2 311.5,-389.2 217.5,-389.2"/>
<text text-anchor="start" x="220.4758" y="-396.9" font-family="Helvetica,sans-Serif" font-size="11.00" fill="#000000">uuid[2147483647]</text>
<polygon fill="none" stroke="#000000" points="10.5,-367.2 10.5,-389.2 217.5,-389.2 217.5,-367.2 10.5,-367.2"/>
<text text-anchor="start" x="30.5" y="-374.3" font-family="Helvetica,sans-Serif" font-size="11.00" fill="#000000">alert_code_id</text>
<polygon fill="none" stroke="#000000" points="217.5,-367.2 217.5,-389.2 311.5,-389.2 311.5,-367.2 217.5,-367.2"/>
<text text-anchor="start" x="220.5" y="-374.9" font-family="Helvetica,sans-Serif" font-size="11.00" fill="#000000">int4[10]</text>
<polygon fill="none" stroke="#000000" points="10.5,-345.2 10.5,-367.2 217.5,-367.2 217.5,-345.2 10.5,-345.2"/>
<text text-anchor="start" x="30.5" y="-352.3" font-family="Helvetica,sans-Serif" font-size="11.00" fill="#000000">description</text>
<polygon fill="none" stroke="#000000" points="217.5,-345.2 217.5,-367.2 311.5,-367.2 311.5,-345.2 217.5,-345.2"/>
<text text-anchor="start" x="220.5" y="-352.9" font-family="Helvetica,sans-Serif" font-size="11.00" fill="#000000">text[2147483647]</text>
<polygon fill="none" stroke="#000000" points="10.5,-323.2 10.5,-345.2 217.5,-345.2 217.5,-323.2 10.5,-323.2"/>
<text text-anchor="start" x="30.5" y="-330.3" font-family="Helvetica,sans-Serif" font-size="11.00" fill="#000000">version</text>
<polygon fill="none" stroke="#000000" points="217.5,-323.2 217.5,-345.2 311.5,-345.2 311.5,-323.2 217.5,-323.2"/>
<text text-anchor="start" x="220.5" y="-330.9" font-family="Helvetica,sans-Serif" font-size="11.00" fill="#000000">int4[10]</text>
<polygon fill="none" stroke="#000000" points="10.5,-301.2 10.5,-323.2 217.5,-323.2 217.5,-301.2 10.5,-301.2"/>
<text text-anchor="start" x="30.5" y="-308.3" font-family="Helvetica,sans-Serif" font-size="11.00" fill="#000000">created_at</text>
<polygon fill="none" stroke="#000000" points="217.5,-301.2 217.5,-323.2 311.5,-323.2 311.5,-301.2 217.5,-301.2"/>
<text text-anchor="start" x="220.5" y="-308.9" font-family="Helvetica,sans-Serif" font-size="11.00" fill="#000000">timestamp[29,6]</text>
<polygon fill="none" stroke="#000000" points="10.5,-279.2 10.5,-301.2 217.5,-301.2 217.5,-279.2 10.5,-279.2"/>
<text text-anchor="start" x="30.5" y="-286.3" font-family="Helvetica,sans-Serif" font-size="11.00" fill="#000000">created_by</text>
<polygon fill="none" stroke="#000000" points="217.5,-279.2 217.5,-301.2 311.5,-301.2 311.5,-279.2 217.5,-279.2"/>
<text text-anchor="start" x="220.5" y="-286.9" font-family="Helvetica,sans-Serif" font-size="11.00" fill="#000000">varchar[64]</text>
<polygon fill="none" stroke="#000000" points="10.5,-257.2 10.5,-279.2 217.5,-279.2 217.5,-257.2 10.5,-257.2"/>
<text text-anchor="start" x="30.5" y="-264.3" font-family="Helvetica,sans-Serif" font-size="11.00" fill="#000000">created_by_display_name</text>
<polygon fill="none" stroke="#000000" points="217.5,-257.2 217.5,-279.2 311.5,-279.2 311.5,-257.2 217.5,-257.2"/>
<text text-anchor="start" x="220.5" y="-264.9" font-family="Helvetica,sans-Serif" font-size="11.00" fill="#000000">varchar[255]</text>
<polygon fill="none" stroke="#000000" points="10.5,-235.2 10.5,-257.2 217.5,-257.2 217.5,-235.2 10.5,-235.2"/>
<text text-anchor="start" x="30.5" y="-242.3" font-family="Helvetica,sans-Serif" font-size="11.00" fill="#000000">cleanup_mode</text>
<polygon fill="none" stroke="#000000" points="217.5,-235.2 217.5,-257.2 311.5,-257.2 311.5,-235.2 217.5,-235.2"/>
<text text-anchor="start" x="220.5" y="-242.9" font-family="Helvetica,sans-Serif" font-size="11.00" fill="#000000">varchar[64]</text>
<polygon fill="none" stroke="#000000" points="10.5,-213.2 10.5,-235.2 217.5,-235.2 217.5,-213.2 10.5,-213.2"/>
<text text-anchor="start" x="30.5" y="-220.3" font-family="Helvetica,sans-Serif" font-size="11.00" fill="#000000">started_at</text>
<polygon fill="none" stroke="#000000" points="217.5,-213.2 217.5,-235.2 311.5,-235.2 311.5,-213.2 217.5,-213.2"/>
<text text-anchor="start" x="220.5" y="-220.9" font-family="Helvetica,sans-Serif" font-size="11.00" fill="#000000">timestamp[29,6]</text>
<polygon fill="none" stroke="#000000" points="10.5,-191.2 10.5,-213.2 217.5,-213.2 217.5,-191.2 10.5,-191.2"/>
<text text-anchor="start" x="30.5" y="-198.3" font-family="Helvetica,sans-Serif" font-size="11.00" fill="#000000">started_by</text>
<polygon fill="none" stroke="#000000" points="217.5,-191.2 217.5,-213.2 311.5,-213.2 311.5,-191.2 217.5,-191.2"/>
<text text-anchor="start" x="220.5" y="-198.9" font-family="Helvetica,sans-Serif" font-size="11.00" fill="#000000">varchar[64]</text>
<polygon fill="none" stroke="#000000" points="10.5,-169.2 10.5,-191.2 217.5,-191.2 217.5,-169.2 10.5,-169.2"/>
<text text-anchor="start" x="30.5" y="-176.3" font-family="Helvetica,sans-Serif" font-size="11.00" fill="#000000">started_by_display_name</text>
<polygon fill="none" stroke="#000000" points="217.5,-169.2 217.5,-191.2 311.5,-191.2 311.5,-169.2 217.5,-169.2"/>
<text text-anchor="start" x="220.5" y="-176.9" font-family="Helvetica,sans-Serif" font-size="11.00" fill="#000000">varchar[255]</text>
<polygon fill="none" stroke="#000000" points="10.5,-147.2 10.5,-169.2 217.5,-169.2 217.5,-147.2 10.5,-147.2"/>
<text text-anchor="start" x="30.5" y="-154.3" font-family="Helvetica,sans-Serif" font-size="11.00" fill="#000000">completed_at</text>
<polygon fill="none" stroke="#000000" points="217.5,-147.2 217.5,-169.2 311.5,-169.2 311.5,-147.2 217.5,-147.2"/>
<text text-anchor="start" x="220.5" y="-154.9" font-family="Helvetica,sans-Serif" font-size="11.00" fill="#000000">timestamp[29,6]</text>
<polygon fill="none" stroke="#000000" points="10.5,-125.2 10.5,-147.2 217.5,-147.2 217.5,-125.2 10.5,-125.2"/>
<text text-anchor="start" x="30.5" y="-132.3" font-family="Helvetica,sans-Serif" font-size="11.00" fill="#000000">created_count</text>
<polygon fill="none" stroke="#000000" points="217.5,-125.2 217.5,-147.2 311.5,-147.2 311.5,-125.2 217.5,-125.2"/>
<text text-anchor="start" x="220.5" y="-132.9" font-family="Helvetica,sans-Serif" font-size="11.00" fill="#000000">int4[10]</text>
<polygon fill="none" stroke="#000000" points="10.5,-103.2 10.5,-125.2 217.5,-125.2 217.5,-103.2 10.5,-103.2"/>
<text text-anchor="start" x="30.5" y="-110.3" font-family="Helvetica,sans-Serif" font-size="11.00" fill="#000000">updated_count</text>
<polygon fill="none" stroke="#000000" points="217.5,-103.2 217.5,-125.2 311.5,-125.2 311.5,-103.2 217.5,-103.2"/>
<text text-anchor="start" x="220.5" y="-110.9" font-family="Helvetica,sans-Serif" font-size="11.00" fill="#000000">int4[10]</text>
<polygon fill="none" stroke="#000000" points="10.5,-81.2 10.5,-103.2 217.5,-103.2 217.5,-81.2 10.5,-81.2"/>
<text text-anchor="start" x="30.5" y="-88.3" font-family="Helvetica,sans-Serif" font-size="11.00" fill="#000000">unchanged_count</text>
<polygon fill="none" stroke="#000000" points="217.5,-81.2 217.5,-103.2 311.5,-103.2 311.5,-81.2 217.5,-81.2"/>
<text text-anchor="start" x="220.5" y="-88.9" font-family="Helvetica,sans-Serif" font-size="11.00" fill="#000000">int4[10]</text>
<polygon fill="none" stroke="#000000" points="10.5,-59.2 10.5,-81.2 217.5,-81.2 217.5,-59.2 10.5,-59.2"/>
<text text-anchor="start" x="30.5" y="-66.3" font-family="Helvetica,sans-Serif" font-size="11.00" fill="#000000">expired_count</text>
<polygon fill="none" stroke="#000000" points="217.5,-59.2 217.5,-81.2 311.5,-81.2 311.5,-59.2 217.5,-59.2"/>
<text text-anchor="start" x="220.5" y="-66.9" font-family="Helvetica,sans-Serif" font-size="11.00" fill="#000000">int4[10]</text>
<polygon fill="#ffffff" stroke="transparent" points="10.5,-40.2 10.5,-59.2 311.5,-59.2 311.5,-40.2 10.5,-40.2"/>
<polygon fill="none" stroke="#000000" points="10.5,-40.2 10.5,-59.2 311.5,-59.2 311.5,-40.2 10.5,-40.2"/>
<polygon fill="#ffffff" stroke="transparent" points="11.5,-41.2 11.5,-58.2 114.5,-58.2 114.5,-41.2 11.5,-41.2"/>
<text text-anchor="start" x="13.5" y="-46.3" font-family="Helvetica,sans-Serif" font-size="11.00" fill="#000000">&lt; 0</text>
<polygon fill="#ffffff" stroke="transparent" points="114.5,-41.2 114.5,-58.2 208.5,-58.2 208.5,-41.2 114.5,-41.2"/>
<text text-anchor="start" x="158.4431" y="-46.3" font-family="Helvetica,sans-Serif" font-size="11.00" fill="#000000"> &#160;</text>
<polygon fill="#ffffff" stroke="transparent" points="208.5,-41.2 208.5,-58.2 310.5,-58.2 310.5,-41.2 208.5,-41.2"/>
<text text-anchor="start" x="292.9053" y="-46.3" font-family="Helvetica,sans-Serif" font-size="11.00" fill="#000000">1 &gt;</text>
<polygon fill="#000000" stroke="#000000" points="114.5,-41.2 114.5,-58.2 114.5,-58.2 114.5,-41.2 114.5,-41.2"/>
<polygon fill="#000000" stroke="#000000" points="208.5,-41.2 208.5,-58.2 208.5,-58.2 208.5,-41.2 208.5,-41.2"/>
<polygon fill="none" stroke="#000000" stroke-width="2" points="9,-39.2 9,-435.2 312,-435.2 312,-39.2 9,-39.2"/>
</a>
</g>
</g>
<!-- plan_person&#45;&gt;bulk_plan -->
<g id="edge1" class="edge">
<title>plan_person:w&#45;&gt;bulk_plan:e</title>
<path fill="none" stroke="#000000" d="M347.4203,-400.2C335.5435,-400.2 328.158,-400.2 311.5,-400.2"/>
<polygon fill="#000000" stroke="#000000" points="354,-400.2001 362,-403.8 358,-400.2 362,-400.2 362,-400.2 362,-400.2 358,-400.2 362,-396.6 354,-400.2001 354,-400.2001"/>
<ellipse fill="none" stroke="#000000" cx="350.8" cy="-400.2001" rx="3.2" ry="3.2"/>
</g>
</g>
</svg>
