<?xml version="1.0" encoding="UTF-8" standalone="no"?>
<!DOCTYPE svg PUBLIC "-//W3C//DTD SVG 1.1//EN"
 "http://www.w3.org/Graphics/SVG/1.1/DTD/svg11.dtd">
<!-- Generated by graphviz version 2.40.1 (20161225.0304)
 -->
<!-- Title: twoDegreesRelationshipsDiagram Pages: 1 -->
<svg width="484pt" height="531pt"
 viewBox="0.00 0.00 484.00 530.70" xmlns="http://www.w3.org/2000/svg" xmlns:xlink="http://www.w3.org/1999/xlink">
<g id="graph0" class="graph" transform="scale(1 1) rotate(0) translate(4 526.7)">
<title>twoDegreesRelationshipsDiagram</title>
<polygon fill="#ffffff" stroke="transparent" points="-4,4 -4,-526.7 480,-526.7 480,4 -4,4"/>
<text text-anchor="middle" x="72.4936" y="-7.3" font-family="Helvetica,sans-Serif" font-size="11.00" fill="#000000">Generated by SchemaSpy</text>
<!-- plan_person -->
<g id="node1" class="node">
<title>plan_person</title>
<g id="a_node1"><a xlink:href="../../tables/plan_person.html" xlink:title="plan_person" target="_top">
<polygon fill="#ffffff" stroke="transparent" points="347,-232.7 347,-318.7 468,-318.7 468,-232.7 347,-232.7"/>
<polygon fill="#f5f5f5" stroke="transparent" points="347.5,-295.7 347.5,-318.7 468.5,-318.7 468.5,-295.7 347.5,-295.7"/>
<polygon fill="none" stroke="#000000" points="347.5,-295.7 347.5,-318.7 468.5,-318.7 468.5,-295.7 347.5,-295.7"/>
<text text-anchor="start" x="352.5" y="-304.3" font-family="Helvetica,sans-Serif" font-weight="bold" font-size="11.00" fill="#000000">plan_person</text>
<text text-anchor="start" x="434.0219" y="-303.8" font-family="Helvetica,sans-Serif" font-size="11.00" fill="#000000">[table]</text>
<polygon fill="none" stroke="#000000" points="347.5,-273.7 347.5,-295.7 468.5,-295.7 468.5,-273.7 347.5,-273.7"/>
<image xlink:href="../../images/foreignKeys.png" width="11px" height="12px" preserveAspectRatio="xMinYMin meet" x="352.5" y="-290.7"/>
<text text-anchor="start" x="367.5" y="-280.8" font-family="Helvetica,sans-Serif" font-size="11.00" fill="#000000">plan_id</text>
<polygon fill="none" stroke="#000000" points="347.5,-251.7 347.5,-273.7 468.5,-273.7 468.5,-251.7 347.5,-251.7"/>
<image xlink:href="../../images/foreignKeys.png" width="11px" height="12px" preserveAspectRatio="xMinYMin meet" x="352.5" y="-268.7"/>
<text text-anchor="start" x="367.5" y="-258.8" font-family="Helvetica,sans-Serif" font-size="11.00" fill="#000000">prison_number</text>
<polygon fill="#ffffff" stroke="transparent" points="347.5,-232.7 347.5,-251.7 406.5,-251.7 406.5,-232.7 347.5,-232.7"/>
<polygon fill="none" stroke="#000000" points="347.5,-232.7 347.5,-251.7 406.5,-251.7 406.5,-232.7 347.5,-232.7"/>
<text text-anchor="start" x="350.5" y="-238.8" font-family="Helvetica,sans-Serif" font-size="11.00" fill="#000000">&lt; 2</text>
<polygon fill="#ffffff" stroke="transparent" points="406.5,-232.7 406.5,-251.7 437.5,-251.7 437.5,-232.7 406.5,-232.7"/>
<polygon fill="none" stroke="#000000" points="406.5,-232.7 406.5,-251.7 437.5,-251.7 437.5,-232.7 406.5,-232.7"/>
<text text-anchor="start" x="428.3862" y="-238.8" font-family="Helvetica,sans-Serif" font-size="11.00" fill="#000000"> &#160;</text>
<polygon fill="#ffffff" stroke="transparent" points="437.5,-232.7 437.5,-251.7 468.5,-251.7 468.5,-232.7 437.5,-232.7"/>
<polygon fill="none" stroke="#000000" points="437.5,-232.7 437.5,-251.7 468.5,-251.7 468.5,-232.7 437.5,-232.7"/>
<text text-anchor="start" x="459.3862" y="-238.8" font-family="Helvetica,sans-Serif" font-size="11.00" fill="#000000"> &#160;</text>
</a>
</g>
</g>
<!-- bulk_plan -->
<g id="node2" class="node">
<title>bulk_plan</title>
<g id="a_node2"><a xlink:href="../../tables/bulk_plan.html" xlink:title="bulk_plan" target="_top">
<polygon fill="#ffffff" stroke="transparent" points="8,-120.7 8,-518.7 298,-518.7 298,-120.7 8,-120.7"/>
<polygon fill="#f5f5f5" stroke="transparent" points="10,-493.7 10,-516.7 296,-516.7 296,-493.7 10,-493.7"/>
<polygon fill="none" stroke="#000000" points="10,-493.7 10,-516.7 296,-516.7 296,-493.7 10,-493.7"/>
<text text-anchor="start" x="15" y="-502.3" font-family="Helvetica,sans-Serif" font-weight="bold" font-size="11.00" fill="#000000">bulk_plan</text>
<text text-anchor="start" x="261.0437" y="-501.8" font-family="Helvetica,sans-Serif" font-size="11.00" fill="#000000">[table]</text>
<polygon fill="none" stroke="#000000" points="10,-471.7 10,-493.7 202,-493.7 202,-471.7 10,-471.7"/>
<image xlink:href="../../images/primaryKeys.png" width="11px" height="12px" preserveAspectRatio="xMinYMin meet" x="15" y="-488.7"/>
<text text-anchor="start" x="30" y="-478.8" font-family="Helvetica,sans-Serif" font-size="11.00" fill="#000000">id</text>
<polygon fill="none" stroke="#000000" points="202,-471.7 202,-493.7 296,-493.7 296,-471.7 202,-471.7"/>
<text text-anchor="start" x="204.9758" y="-479.4" font-family="Helvetica,sans-Serif" font-size="11.00" fill="#000000">uuid[2147483647]</text>
<polygon fill="none" stroke="#000000" points="10,-449.7 10,-471.7 202,-471.7 202,-449.7 10,-449.7"/>
<text text-anchor="start" x="30" y="-456.8" font-family="Helvetica,sans-Serif" font-size="11.00" fill="#000000">alert_code_id</text>
<polygon fill="none" stroke="#000000" points="202,-449.7 202,-471.7 296,-471.7 296,-449.7 202,-449.7"/>
<text text-anchor="start" x="205" y="-457.4" font-family="Helvetica,sans-Serif" font-size="11.00" fill="#000000">int4[10]</text>
<polygon fill="none" stroke="#000000" points="10,-427.7 10,-449.7 202,-449.7 202,-427.7 10,-427.7"/>
<text text-anchor="start" x="30" y="-434.8" font-family="Helvetica,sans-Serif" font-size="11.00" fill="#000000">description</text>
<polygon fill="none" stroke="#000000" points="202,-427.7 202,-449.7 296,-449.7 296,-427.7 202,-427.7"/>
<text text-anchor="start" x="205" y="-435.4" font-family="Helvetica,sans-Serif" font-size="11.00" fill="#000000">text[2147483647]</text>
<polygon fill="none" stroke="#000000" points="10,-405.7 10,-427.7 202,-427.7 202,-405.7 10,-405.7"/>
<text text-anchor="start" x="30" y="-412.8" font-family="Helvetica,sans-Serif" font-size="11.00" fill="#000000">version</text>
<polygon fill="none" stroke="#000000" points="202,-405.7 202,-427.7 296,-427.7 296,-405.7 202,-405.7"/>
<text text-anchor="start" x="205" y="-413.4" font-family="Helvetica,sans-Serif" font-size="11.00" fill="#000000">int4[10]</text>
<polygon fill="none" stroke="#000000" points="10,-383.7 10,-405.7 202,-405.7 202,-383.7 10,-383.7"/>
<text text-anchor="start" x="30" y="-390.8" font-family="Helvetica,sans-Serif" font-size="11.00" fill="#000000">created_at</text>
<polygon fill="none" stroke="#000000" points="202,-383.7 202,-405.7 296,-405.7 296,-383.7 202,-383.7"/>
<text text-anchor="start" x="205" y="-391.4" font-family="Helvetica,sans-Serif" font-size="11.00" fill="#000000">timestamp[29,6]</text>
<polygon fill="none" stroke="#000000" points="10,-361.7 10,-383.7 202,-383.7 202,-361.7 10,-361.7"/>
<text text-anchor="start" x="30" y="-368.8" font-family="Helvetica,sans-Serif" font-size="11.00" fill="#000000">created_by</text>
<polygon fill="none" stroke="#000000" points="202,-361.7 202,-383.7 296,-383.7 296,-361.7 202,-361.7"/>
<text text-anchor="start" x="205" y="-369.4" font-family="Helvetica,sans-Serif" font-size="11.00" fill="#000000">varchar[64]</text>
<polygon fill="none" stroke="#000000" points="10,-339.7 10,-361.7 202,-361.7 202,-339.7 10,-339.7"/>
<text text-anchor="start" x="30" y="-346.8" font-family="Helvetica,sans-Serif" font-size="11.00" fill="#000000">created_by_display_name</text>
<polygon fill="none" stroke="#000000" points="202,-339.7 202,-361.7 296,-361.7 296,-339.7 202,-339.7"/>
<text text-anchor="start" x="205" y="-347.4" font-family="Helvetica,sans-Serif" font-size="11.00" fill="#000000">varchar[255]</text>
<polygon fill="none" stroke="#000000" points="10,-317.7 10,-339.7 202,-339.7 202,-317.7 10,-317.7"/>
<text text-anchor="start" x="30" y="-324.8" font-family="Helvetica,sans-Serif" font-size="11.00" fill="#000000">cleanup_mode</text>
<polygon fill="none" stroke="#000000" points="202,-317.7 202,-339.7 296,-339.7 296,-317.7 202,-317.7"/>
<text text-anchor="start" x="205" y="-325.4" font-family="Helvetica,sans-Serif" font-size="11.00" fill="#000000">varchar[64]</text>
<polygon fill="none" stroke="#000000" points="10,-295.7 10,-317.7 202,-317.7 202,-295.7 10,-295.7"/>
<text text-anchor="start" x="30" y="-302.8" font-family="Helvetica,sans-Serif" font-size="11.00" fill="#000000">started_at</text>
<polygon fill="none" stroke="#000000" points="202,-295.7 202,-317.7 296,-317.7 296,-295.7 202,-295.7"/>
<text text-anchor="start" x="205" y="-303.4" font-family="Helvetica,sans-Serif" font-size="11.00" fill="#000000">timestamp[29,6]</text>
<polygon fill="none" stroke="#000000" points="10,-273.7 10,-295.7 202,-295.7 202,-273.7 10,-273.7"/>
<text text-anchor="start" x="30" y="-280.8" font-family="Helvetica,sans-Serif" font-size="11.00" fill="#000000">started_by</text>
<polygon fill="none" stroke="#000000" points="202,-273.7 202,-295.7 296,-295.7 296,-273.7 202,-273.7"/>
<text text-anchor="start" x="205" y="-281.4" font-family="Helvetica,sans-Serif" font-size="11.00" fill="#000000">varchar[64]</text>
<polygon fill="none" stroke="#000000" points="10,-251.7 10,-273.7 202,-273.7 202,-251.7 10,-251.7"/>
<text text-anchor="start" x="30" y="-258.8" font-family="Helvetica,sans-Serif" font-size="11.00" fill="#000000">started_by_display_name</text>
<polygon fill="none" stroke="#000000" points="202,-251.7 202,-273.7 296,-273.7 296,-251.7 202,-251.7"/>
<text text-anchor="start" x="205" y="-259.4" font-family="Helvetica,sans-Serif" font-size="11.00" fill="#000000">varchar[255]</text>
<polygon fill="none" stroke="#000000" points="10,-229.7 10,-251.7 202,-251.7 202,-229.7 10,-229.7"/>
<text text-anchor="start" x="30" y="-236.8" font-family="Helvetica,sans-Serif" font-size="11.00" fill="#000000">completed_at</text>
<polygon fill="none" stroke="#000000" points="202,-229.7 202,-251.7 296,-251.7 296,-229.7 202,-229.7"/>
<text text-anchor="start" x="205" y="-237.4" font-family="Helvetica,sans-Serif" font-size="11.00" fill="#000000">timestamp[29,6]</text>
<polygon fill="none" stroke="#000000" points="10,-207.7 10,-229.7 202,-229.7 202,-207.7 10,-207.7"/>
<text text-anchor="start" x="30" y="-214.8" font-family="Helvetica,sans-Serif" font-size="11.00" fill="#000000">created_count</text>
<polygon fill="none" stroke="#000000" points="202,-207.7 202,-229.7 296,-229.7 296,-207.7 202,-207.7"/>
<text text-anchor="start" x="205" y="-215.4" font-family="Helvetica,sans-Serif" font-size="11.00" fill="#000000">int4[10]</text>
<polygon fill="none" stroke="#000000" points="10,-185.7 10,-207.7 202,-207.7 202,-185.7 10,-185.7"/>
<text text-anchor="start" x="30" y="-192.8" font-family="Helvetica,sans-Serif" font-size="11.00" fill="#000000">updated_count</text>
<polygon fill="none" stroke="#000000" points="202,-185.7 202,-207.7 296,-207.7 296,-185.7 202,-185.7"/>
<text text-anchor="start" x="205" y="-193.4" font-family="Helvetica,sans-Serif" font-size="11.00" fill="#000000">int4[10]</text>
<polygon fill="none" stroke="#000000" points="10,-163.7 10,-185.7 202,-185.7 202,-163.7 10,-163.7"/>
<text text-anchor="start" x="30" y="-170.8" font-family="Helvetica,sans-Serif" font-size="11.00" fill="#000000">unchanged_count</text>
<polygon fill="none" stroke="#000000" points="202,-163.7 202,-185.7 296,-185.7 296,-163.7 202,-163.7"/>
<text text-anchor="start" x="205" y="-171.4" font-family="Helvetica,sans-Serif" font-size="11.00" fill="#000000">int4[10]</text>
<polygon fill="none" stroke="#000000" points="10,-141.7 10,-163.7 202,-163.7 202,-141.7 10,-141.7"/>
<text text-anchor="start" x="30" y="-148.8" font-family="Helvetica,sans-Serif" font-size="11.00" fill="#000000">expired_count</text>
<polygon fill="none" stroke="#000000" points="202,-141.7 202,-163.7 296,-163.7 296,-141.7 202,-141.7"/>
<text text-anchor="start" x="205" y="-149.4" font-family="Helvetica,sans-Serif" font-size="11.00" fill="#000000">int4[10]</text>
<polygon fill="#ffffff" stroke="transparent" points="10,-122.7 10,-141.7 110,-141.7 110,-122.7 10,-122.7"/>
<polygon fill="none" stroke="#000000" points="10,-122.7 10,-141.7 110,-141.7 110,-122.7 10,-122.7"/>
<text text-anchor="start" x="13" y="-128.8" font-family="Helvetica,sans-Serif" font-size="11.00" fill="#000000">&lt; 0</text>
<polygon fill="#ffffff" stroke="transparent" points="110,-122.7 110,-141.7 202,-141.7 202,-122.7 110,-122.7"/>
<polygon fill="none" stroke="#000000" points="110,-122.7 110,-141.7 202,-141.7 202,-122.7 110,-122.7"/>
<text text-anchor="start" x="192.8862" y="-128.8" font-family="Helvetica,sans-Serif" font-size="11.00" fill="#000000"> &#160;</text>
<polygon fill="#ffffff" stroke="transparent" points="202,-122.7 202,-141.7 296,-141.7 296,-122.7 202,-122.7"/>
<polygon fill="none" stroke="#000000" points="202,-122.7 202,-141.7 296,-141.7 296,-122.7 202,-122.7"/>
<text text-anchor="start" x="277.4053" y="-128.8" font-family="Helvetica,sans-Serif" font-size="11.00" fill="#000000">1 &gt;</text>
<polygon fill="none" stroke="#000000" stroke-width="2" points="9,-121.7 9,-517.7 297,-517.7 297,-121.7 9,-121.7"/>
</a>
</g>
</g>
<!-- plan_person&#45;&gt;bulk_plan -->
<g id="edge1" class="edge">
<title>plan_person:w&#45;&gt;bulk_plan:e</title>
<path fill="none" stroke="#000000" d="M332.9361,-286.9236C272.0021,-308.6766 381.245,-482.7 296,-482.7"/>
<polygon fill="#000000" stroke="#000000" points="339.5916,-285.9075 348.0434,-288.2588 343.5458,-285.3038 347.5,-284.7 347.5,-284.7 347.5,-284.7 343.5458,-285.3038 346.9566,-281.1412 339.5916,-285.9075 339.5916,-285.9075"/>
<ellipse fill="none" stroke="#000000" cx="336.4283" cy="-286.3905" rx="3.2" ry="3.2"/>
</g>
<!-- person_summary -->
<g id="node3" class="node">
<title>person_summary</title>
<g id="a_node3"><a xlink:href="../../tables/person_summary.html" xlink:title="person_summary" target="_top">
<polygon fill="#ffffff" stroke="transparent" points="76,-38.2 76,-99.2 230,-99.2 230,-38.2 76,-38.2"/>
<polygon fill="#f5f5f5" stroke="transparent" points="76,-75.7 76,-98.7 230,-98.7 230,-75.7 76,-75.7"/>
<polygon fill="none" stroke="#000000" points="76,-75.7 76,-98.7 230,-98.7 230,-75.7 76,-75.7"/>
<text text-anchor="start" x="81" y="-84.3" font-family="Helvetica,sans-Serif" font-weight="bold" font-size="11.00" fill="#000000">person_summary</text>
<text text-anchor="start" x="195.5219" y="-83.8" font-family="Helvetica,sans-Serif" font-size="11.00" fill="#000000">[table]</text>
<polygon fill="none" stroke="#000000" points="76,-56.7 76,-75.7 230,-75.7 230,-56.7 76,-56.7"/>
<text text-anchor="start" x="79" y="-62.8" font-family="Helvetica,sans-Serif" font-size="11.00" fill="#000000">...</text>
<polygon fill="#ffffff" stroke="transparent" points="76,-37.7 76,-56.7 142,-56.7 142,-37.7 76,-37.7"/>
<polygon fill="none" stroke="#000000" points="76,-37.7 76,-56.7 142,-56.7 142,-37.7 76,-37.7"/>
<text text-anchor="start" x="79" y="-43.8" font-family="Helvetica,sans-Serif" font-size="11.00" fill="#000000"> &#160;</text>
<polygon fill="#ffffff" stroke="transparent" points="142,-37.7 142,-56.7 181,-56.7 181,-37.7 142,-37.7"/>
<polygon fill="none" stroke="#000000" points="142,-37.7 142,-56.7 181,-56.7 181,-37.7 142,-37.7"/>
<text text-anchor="start" x="171.8862" y="-43.8" font-family="Helvetica,sans-Serif" font-size="11.00" fill="#000000"> &#160;</text>
<polygon fill="#ffffff" stroke="transparent" points="181,-37.7 181,-56.7 230,-56.7 230,-37.7 181,-37.7"/>
<polygon fill="none" stroke="#000000" points="181,-37.7 181,-56.7 230,-56.7 230,-37.7 181,-37.7"/>
<text text-anchor="start" x="211.4053" y="-43.8" font-family="Helvetica,sans-Serif" font-size="11.00" fill="#000000">1 &gt;</text>
</a>
</g>
</g>
<!-- plan_person&#45;&gt;person_summary -->
<g id="edge2" class="edge">
<title>plan_person:w&#45;&gt;person_summary:e</title>
<path fill="none" stroke="#000000" d="M332.9727,-260.8313C288.3543,-247.1725 344.9735,-161.822 306,-110.7 282.2009,-79.4824 269.2548,-65.7 230,-65.7"/>
<polygon fill="#000000" stroke="#000000" points="339.5654,-261.6793 347.0407,-266.2706 343.5327,-262.1897 347.5,-262.7 347.5,-262.7 347.5,-262.7 343.5327,-262.1897 347.9593,-259.1294 339.5654,-261.6793 339.5654,-261.6793"/>
<ellipse fill="none" stroke="#000000" cx="336.3915" cy="-261.271" rx="3.2" ry="3.2"/>
</g>
</g>
</svg>
