<?xml version="1.0" encoding="UTF-8" standalone="no"?>
<!DOCTYPE svg PUBLIC "-//W3C//DTD SVG 1.1//EN"
 "http://www.w3.org/Graphics/SVG/1.1/DTD/svg11.dtd">
<!-- Generated by graphviz version 2.40.1 (20161225.0304)
 -->
<!-- Title: twoDegreesRelationshipsDiagramImplied Pages: 1 -->
<svg width="696pt" height="615pt"
 viewBox="0.00 0.00 696.00 615.20" xmlns="http://www.w3.org/2000/svg" xmlns:xlink="http://www.w3.org/1999/xlink">
<g id="graph0" class="graph" transform="scale(1 1) rotate(0) translate(4 611.2)">
<title>twoDegreesRelationshipsDiagramImplied</title>
<polygon fill="#ffffff" stroke="transparent" points="-4,4 -4,-611.2 692,-611.2 692,4 -4,4"/>
<text text-anchor="middle" x="72.4936" y="-7.3" font-family="Helvetica,sans-Serif" font-size="11.00" fill="#000000">Generated by SchemaSpy</text>
<!-- alert -->
<g id="node1" class="node">
<title>alert</title>
<g id="a_node1"><a xlink:href="../../tables/alert.html" xlink:title="alert" target="_top">
<polygon fill="#ffffff" stroke="transparent" points="307.5,-366.2 307.5,-603.2 508.5,-603.2 508.5,-366.2 307.5,-366.2"/>
<polygon fill="#f5f5f5" stroke="transparent" points="308,-579.7 308,-602.7 509,-602.7 509,-579.7 308,-579.7"/>
<polygon fill="none" stroke="#000000" points="308,-579.7 308,-602.7 509,-602.7 509,-579.7 308,-579.7"/>
<text text-anchor="start" x="313" y="-588.3" font-family="Helvetica,sans-Serif" font-weight="bold" font-size="11.00" fill="#000000">alert</text>
<text text-anchor="start" x="474.0437" y="-587.8" font-family="Helvetica,sans-Serif" font-size="11.00" fill="#000000">[table]</text>
<polygon fill="none" stroke="#000000" points="308,-557.7 308,-579.7 509,-579.7 509,-557.7 308,-557.7"/>
<image xlink:href="../../images/primaryKeys.png" width="11px" height="12px" preserveAspectRatio="xMinYMin meet" x="313" y="-574.7"/>
<text text-anchor="start" x="328" y="-564.8" font-family="Helvetica,sans-Serif" font-size="11.00" fill="#000000">id</text>
<polygon fill="#ffffff" stroke="transparent" points="308,-535.7 308,-557.7 509,-557.7 509,-535.7 308,-535.7"/>
<polygon fill="none" stroke="#000000" points="308,-535.7 308,-557.7 509,-557.7 509,-535.7 308,-535.7"/>
<image xlink:href="../../images/foreignKeys.png" width="11px" height="12px" preserveAspectRatio="xMinYMin meet" x="313" y="-552.7"/>
<text text-anchor="start" x="328" y="-542.8" font-family="Helvetica,sans-Serif" font-size="11.00" fill="#000000">alert_code_id</text>
<polygon fill="#ffffff" stroke="transparent" points="308,-513.7 308,-535.7 509,-535.7 509,-513.7 308,-513.7"/>
<polygon fill="none" stroke="#000000" points="308,-513.7 308,-535.7 509,-535.7 509,-513.7 308,-513.7"/>
<image xlink:href="../../images/foreignKeys.png" width="11px" height="12px" preserveAspectRatio="xMinYMin meet" x="313" y="-530.7"/>
<text text-anchor="start" x="328" y="-520.8" font-family="Helvetica,sans-Serif" font-size="11.00" fill="#000000">prison_number</text>
<polygon fill="#ffffff" stroke="transparent" points="308,-491.7 308,-513.7 509,-513.7 509,-491.7 308,-491.7"/>
<polygon fill="none" stroke="#000000" points="308,-491.7 308,-513.7 509,-513.7 509,-491.7 308,-491.7"/>
<text text-anchor="start" x="328" y="-498.8" font-family="Helvetica,sans-Serif" font-size="11.00" fill="#000000">active_from</text>
<polygon fill="#ffffff" stroke="transparent" points="308,-469.7 308,-491.7 509,-491.7 509,-469.7 308,-469.7"/>
<polygon fill="none" stroke="#000000" points="308,-469.7 308,-491.7 509,-491.7 509,-469.7 308,-469.7"/>
<text text-anchor="start" x="328" y="-476.8" font-family="Helvetica,sans-Serif" font-size="11.00" fill="#000000">active_to</text>
<polygon fill="#ffffff" stroke="transparent" points="308,-447.7 308,-469.7 509,-469.7 509,-447.7 308,-447.7"/>
<polygon fill="none" stroke="#000000" points="308,-447.7 308,-469.7 509,-469.7 509,-447.7 308,-447.7"/>
<text text-anchor="start" x="328" y="-454.8" font-family="Helvetica,sans-Serif" font-size="11.00" fill="#000000">deleted_at</text>
<polygon fill="#ffffff" stroke="transparent" points="308,-425.7 308,-447.7 509,-447.7 509,-425.7 308,-425.7"/>
<polygon fill="none" stroke="#000000" points="308,-425.7 308,-447.7 509,-447.7 509,-425.7 308,-425.7"/>
<text text-anchor="start" x="328" y="-432.8" font-family="Helvetica,sans-Serif" font-size="11.00" fill="#000000">created_at</text>
<polygon fill="#ffffff" stroke="transparent" points="308,-403.7 308,-425.7 509,-425.7 509,-403.7 308,-403.7"/>
<polygon fill="none" stroke="#000000" points="308,-403.7 308,-425.7 509,-425.7 509,-403.7 308,-403.7"/>
<text text-anchor="start" x="328" y="-410.8" font-family="Helvetica,sans-Serif" font-size="11.00" fill="#000000">last_modified_at</text>
<polygon fill="none" stroke="#000000" points="308,-384.7 308,-403.7 509,-403.7 509,-384.7 308,-384.7"/>
<text text-anchor="start" x="311" y="-390.8" font-family="Helvetica,sans-Serif" font-size="11.00" fill="#000000">...</text>
<polygon fill="#ffffff" stroke="transparent" points="308,-365.7 308,-384.7 402,-384.7 402,-365.7 308,-365.7"/>
<polygon fill="none" stroke="#000000" points="308,-365.7 308,-384.7 402,-384.7 402,-365.7 308,-365.7"/>
<text text-anchor="start" x="311" y="-371.8" font-family="Helvetica,sans-Serif" font-size="11.00" fill="#000000">&lt; 2</text>
<polygon fill="#ffffff" stroke="transparent" points="402,-365.7 402,-384.7 451,-384.7 451,-365.7 402,-365.7"/>
<polygon fill="none" stroke="#000000" points="402,-365.7 402,-384.7 451,-384.7 451,-365.7 402,-365.7"/>
<text text-anchor="start" x="441.8862" y="-371.8" font-family="Helvetica,sans-Serif" font-size="11.00" fill="#000000"> &#160;</text>
<polygon fill="#ffffff" stroke="transparent" points="451,-365.7 451,-384.7 509,-384.7 509,-365.7 451,-365.7"/>
<polygon fill="none" stroke="#000000" points="451,-365.7 451,-384.7 509,-384.7 509,-365.7 451,-365.7"/>
<text text-anchor="start" x="490.4053" y="-371.8" font-family="Helvetica,sans-Serif" font-size="11.00" fill="#000000">1 &gt;</text>
</a>
</g>
</g>
<!-- alert_code -->
<g id="node2" class="node">
<title>alert_code</title>
<g id="a_node2"><a xlink:href="../../tables/alert_code.html" xlink:title="alert_code" target="_top">
<polygon fill="#ffffff" stroke="transparent" points="76.5,-519.2 76.5,-580.2 185.5,-580.2 185.5,-519.2 76.5,-519.2"/>
<polygon fill="#f5f5f5" stroke="transparent" points="77,-556.7 77,-579.7 186,-579.7 186,-556.7 77,-556.7"/>
<polygon fill="none" stroke="#000000" points="77,-556.7 77,-579.7 186,-579.7 186,-556.7 77,-556.7"/>
<text text-anchor="start" x="82" y="-565.3" font-family="Helvetica,sans-Serif" font-weight="bold" font-size="11.00" fill="#000000">alert_code</text>
<text text-anchor="start" x="151.5219" y="-564.8" font-family="Helvetica,sans-Serif" font-size="11.00" fill="#000000">[table]</text>
<polygon fill="none" stroke="#000000" points="77,-537.7 77,-556.7 186,-556.7 186,-537.7 77,-537.7"/>
<text text-anchor="start" x="80" y="-543.8" font-family="Helvetica,sans-Serif" font-size="11.00" fill="#000000">...</text>
<polygon fill="#ffffff" stroke="transparent" points="77,-518.7 77,-537.7 125,-537.7 125,-518.7 77,-518.7"/>
<polygon fill="none" stroke="#000000" points="77,-518.7 77,-537.7 125,-537.7 125,-518.7 77,-518.7"/>
<text text-anchor="start" x="80" y="-524.8" font-family="Helvetica,sans-Serif" font-size="11.00" fill="#000000">&lt; 1</text>
<polygon fill="#ffffff" stroke="transparent" points="125,-518.7 125,-537.7 151,-537.7 151,-518.7 125,-518.7"/>
<polygon fill="none" stroke="#000000" points="125,-518.7 125,-537.7 151,-537.7 151,-518.7 125,-518.7"/>
<text text-anchor="start" x="141.8862" y="-524.8" font-family="Helvetica,sans-Serif" font-size="11.00" fill="#000000"> &#160;</text>
<polygon fill="#ffffff" stroke="transparent" points="151,-518.7 151,-537.7 186,-537.7 186,-518.7 151,-518.7"/>
<polygon fill="none" stroke="#000000" points="151,-518.7 151,-537.7 186,-537.7 186,-518.7 151,-518.7"/>
<text text-anchor="start" x="167.4053" y="-524.8" font-family="Helvetica,sans-Serif" font-size="11.00" fill="#000000">1 &gt;</text>
</a>
</g>
</g>
<!-- alert&#45;&gt;alert_code -->
<g id="edge1" class="edge">
<title>alert:w&#45;&gt;alert_code:e</title>
<path fill="none" stroke="#000000" d="M293.4784,-546.7C250.8107,-546.7 235.033,-546.7 186,-546.7"/>
<polygon fill="#000000" stroke="#000000" points="300,-546.7001 308,-550.3 304,-546.7 308,-546.7 308,-546.7 308,-546.7 304,-546.7 308,-543.1 300,-546.7001 300,-546.7001"/>
<ellipse fill="none" stroke="#000000" cx="296.8" cy="-546.7001" rx="3.2" ry="3.2"/>
</g>
<!-- person_summary -->
<g id="node3" class="node">
<title>person_summary</title>
<g id="a_node3"><a xlink:href="../../tables/person_summary.html" xlink:title="person_summary" target="_top">
<polygon fill="#ffffff" stroke="transparent" points="8,-120.7 8,-364.7 254,-364.7 254,-120.7 8,-120.7"/>
<polygon fill="#f5f5f5" stroke="transparent" points="10,-339.7 10,-362.7 252,-362.7 252,-339.7 10,-339.7"/>
<polygon fill="none" stroke="#000000" points="10,-339.7 10,-362.7 252,-362.7 252,-339.7 10,-339.7"/>
<text text-anchor="start" x="15" y="-348.3" font-family="Helvetica,sans-Serif" font-weight="bold" font-size="11.00" fill="#000000">person_summary</text>
<text text-anchor="start" x="217.0437" y="-347.8" font-family="Helvetica,sans-Serif" font-size="11.00" fill="#000000">[table]</text>
<polygon fill="none" stroke="#000000" points="10,-317.7 10,-339.7 191,-339.7 191,-317.7 10,-317.7"/>
<image xlink:href="../../images/primaryKeys.png" width="11px" height="12px" preserveAspectRatio="xMinYMin meet" x="15" y="-334.7"/>
<text text-anchor="start" x="30" y="-324.8" font-family="Helvetica,sans-Serif" font-size="11.00" fill="#000000">prison_number</text>
<polygon fill="none" stroke="#000000" points="191,-317.7 191,-339.7 252,-339.7 252,-317.7 191,-317.7"/>
<text text-anchor="start" x="193.994" y="-325.4" font-family="Helvetica,sans-Serif" font-size="11.00" fill="#000000">varchar[10]</text>
<polygon fill="none" stroke="#000000" points="10,-295.7 10,-317.7 191,-317.7 191,-295.7 10,-295.7"/>
<text text-anchor="start" x="30" y="-302.8" font-family="Helvetica,sans-Serif" font-size="11.00" fill="#000000">first_name</text>
<polygon fill="none" stroke="#000000" points="191,-295.7 191,-317.7 252,-317.7 252,-295.7 191,-295.7"/>
<text text-anchor="start" x="193.994" y="-303.4" font-family="Helvetica,sans-Serif" font-size="11.00" fill="#000000">varchar[64]</text>
<polygon fill="none" stroke="#000000" points="10,-273.7 10,-295.7 191,-295.7 191,-273.7 10,-273.7"/>
<text text-anchor="start" x="30" y="-280.8" font-family="Helvetica,sans-Serif" font-size="11.00" fill="#000000">last_name</text>
<polygon fill="none" stroke="#000000" points="191,-273.7 191,-295.7 252,-295.7 252,-273.7 191,-273.7"/>
<text text-anchor="start" x="193.994" y="-281.4" font-family="Helvetica,sans-Serif" font-size="11.00" fill="#000000">varchar[64]</text>
<polygon fill="none" stroke="#000000" points="10,-251.7 10,-273.7 191,-273.7 191,-251.7 10,-251.7"/>
<text text-anchor="start" x="30" y="-258.8" font-family="Helvetica,sans-Serif" font-size="11.00" fill="#000000">status</text>
<polygon fill="none" stroke="#000000" points="191,-251.7 191,-273.7 252,-273.7 252,-251.7 191,-251.7"/>
<text text-anchor="start" x="193.994" y="-259.4" font-family="Helvetica,sans-Serif" font-size="11.00" fill="#000000">varchar[16]</text>
<polygon fill="none" stroke="#000000" points="10,-229.7 10,-251.7 191,-251.7 191,-229.7 10,-229.7"/>
<text text-anchor="start" x="30" y="-236.8" font-family="Helvetica,sans-Serif" font-size="11.00" fill="#000000">restricted_patient</text>
<polygon fill="none" stroke="#000000" points="191,-229.7 191,-251.7 252,-251.7 252,-229.7 191,-229.7"/>
<text text-anchor="start" x="194" y="-237.4" font-family="Helvetica,sans-Serif" font-size="11.00" fill="#000000">bool[1]</text>
<polygon fill="none" stroke="#000000" points="10,-207.7 10,-229.7 191,-229.7 191,-207.7 10,-207.7"/>
<text text-anchor="start" x="30" y="-214.8" font-family="Helvetica,sans-Serif" font-size="11.00" fill="#000000">prison_code</text>
<polygon fill="none" stroke="#000000" points="191,-207.7 191,-229.7 252,-229.7 252,-207.7 191,-207.7"/>
<text text-anchor="start" x="193.994" y="-215.4" font-family="Helvetica,sans-Serif" font-size="11.00" fill="#000000">varchar[16]</text>
<polygon fill="none" stroke="#000000" points="10,-185.7 10,-207.7 191,-207.7 191,-185.7 10,-185.7"/>
<text text-anchor="start" x="30" y="-192.8" font-family="Helvetica,sans-Serif" font-size="11.00" fill="#000000">cell_location</text>
<polygon fill="none" stroke="#000000" points="191,-185.7 191,-207.7 252,-207.7 252,-185.7 191,-185.7"/>
<text text-anchor="start" x="193.994" y="-193.4" font-family="Helvetica,sans-Serif" font-size="11.00" fill="#000000">varchar[64]</text>
<polygon fill="none" stroke="#000000" points="10,-163.7 10,-185.7 191,-185.7 191,-163.7 10,-163.7"/>
<text text-anchor="start" x="30" y="-170.8" font-family="Helvetica,sans-Serif" font-size="11.00" fill="#000000">supporting_prison_code</text>
<polygon fill="none" stroke="#000000" points="191,-163.7 191,-185.7 252,-185.7 252,-163.7 191,-163.7"/>
<text text-anchor="start" x="193.994" y="-171.4" font-family="Helvetica,sans-Serif" font-size="11.00" fill="#000000">varchar[16]</text>
<polygon fill="none" stroke="#000000" points="10,-141.7 10,-163.7 191,-163.7 191,-141.7 10,-141.7"/>
<text text-anchor="start" x="30" y="-148.8" font-family="Helvetica,sans-Serif" font-size="11.00" fill="#000000">version</text>
<polygon fill="none" stroke="#000000" points="191,-141.7 191,-163.7 252,-163.7 252,-141.7 191,-141.7"/>
<text text-anchor="start" x="194" y="-149.4" font-family="Helvetica,sans-Serif" font-size="11.00" fill="#000000">int4[10]</text>
<polygon fill="#ffffff" stroke="transparent" points="10,-122.7 10,-141.7 105,-141.7 105,-122.7 10,-122.7"/>
<polygon fill="none" stroke="#000000" points="10,-122.7 10,-141.7 105,-141.7 105,-122.7 10,-122.7"/>
<text text-anchor="start" x="13" y="-128.8" font-family="Helvetica,sans-Serif" font-size="11.00" fill="#000000">&lt; 0</text>
<polygon fill="#ffffff" stroke="transparent" points="105,-122.7 105,-141.7 191,-141.7 191,-122.7 105,-122.7"/>
<polygon fill="none" stroke="#000000" points="105,-122.7 105,-141.7 191,-141.7 191,-122.7 105,-122.7"/>
<text text-anchor="start" x="181.8862" y="-128.8" font-family="Helvetica,sans-Serif" font-size="11.00" fill="#000000"> &#160;</text>
<polygon fill="#ffffff" stroke="transparent" points="191,-122.7 191,-141.7 252,-141.7 252,-122.7 191,-122.7"/>
<polygon fill="none" stroke="#000000" points="191,-122.7 191,-141.7 252,-141.7 252,-122.7 191,-122.7"/>
<text text-anchor="start" x="233.4053" y="-128.8" font-family="Helvetica,sans-Serif" font-size="11.00" fill="#000000">3 &gt;</text>
<polygon fill="none" stroke="#000000" stroke-width="2" points="9,-121.7 9,-363.7 253,-363.7 253,-121.7 9,-121.7"/>
</a>
</g>
</g>
<!-- alert&#45;&gt;person_summary -->
<g id="edge2" class="edge">
<title>alert:w&#45;&gt;person_summary:e</title>
<path fill="none" stroke="#000000" stroke-dasharray="5,2" d="M293.4365,-522.4988C232.2094,-500.9656 336.9346,-328.7 252,-328.7"/>
<polygon fill="#000000" stroke="#000000" points="300.0898,-523.5044 307.462,-528.2596 304.0449,-524.1022 308,-524.7 308,-524.7 308,-524.7 304.0449,-524.1022 308.538,-521.1404 300.0898,-523.5044 300.0898,-523.5044"/>
<ellipse fill="none" stroke="#000000" cx="296.9258" cy="-523.0261" rx="3.2" ry="3.2"/>
</g>
<!-- audit_event -->
<g id="node4" class="node">
<title>audit_event</title>
<g id="a_node4"><a xlink:href="../../tables/audit_event.html" xlink:title="audit_event" target="_top">
<polygon fill="#ffffff" stroke="transparent" points="562,-541.2 562,-602.2 680,-602.2 680,-541.2 562,-541.2"/>
<polygon fill="#f5f5f5" stroke="transparent" points="562,-578.7 562,-601.7 680,-601.7 680,-578.7 562,-578.7"/>
<polygon fill="none" stroke="#000000" points="562,-578.7 562,-601.7 680,-601.7 680,-578.7 562,-578.7"/>
<text text-anchor="start" x="567" y="-587.3" font-family="Helvetica,sans-Serif" font-weight="bold" font-size="11.00" fill="#000000">audit_event</text>
<text text-anchor="start" x="645.5219" y="-586.8" font-family="Helvetica,sans-Serif" font-size="11.00" fill="#000000">[table]</text>
<polygon fill="none" stroke="#000000" points="562,-559.7 562,-578.7 680,-578.7 680,-559.7 562,-559.7"/>
<text text-anchor="start" x="565" y="-565.8" font-family="Helvetica,sans-Serif" font-size="11.00" fill="#000000">...</text>
<polygon fill="#ffffff" stroke="transparent" points="562,-540.7 562,-559.7 619,-559.7 619,-540.7 562,-540.7"/>
<polygon fill="none" stroke="#000000" points="562,-540.7 562,-559.7 619,-559.7 619,-540.7 562,-540.7"/>
<text text-anchor="start" x="565" y="-546.8" font-family="Helvetica,sans-Serif" font-size="11.00" fill="#000000">&lt; 1</text>
<polygon fill="#ffffff" stroke="transparent" points="619,-540.7 619,-559.7 649,-559.7 649,-540.7 619,-540.7"/>
<polygon fill="none" stroke="#000000" points="619,-540.7 619,-559.7 649,-559.7 649,-540.7 619,-540.7"/>
<text text-anchor="start" x="639.8862" y="-546.8" font-family="Helvetica,sans-Serif" font-size="11.00" fill="#000000"> &#160;</text>
<polygon fill="#ffffff" stroke="transparent" points="649,-540.7 649,-559.7 680,-559.7 680,-540.7 649,-540.7"/>
<polygon fill="none" stroke="#000000" points="649,-540.7 649,-559.7 680,-559.7 680,-540.7 649,-540.7"/>
<text text-anchor="start" x="670.8862" y="-546.8" font-family="Helvetica,sans-Serif" font-size="11.00" fill="#000000"> &#160;</text>
</a>
</g>
</g>
<!-- audit_event&#45;&gt;alert -->
<g id="edge3" class="edge">
<title>audit_event:w&#45;&gt;alert:e</title>
<path fill="none" stroke="#000000" d="M547.4922,-568.7C534.5558,-568.7 526.8507,-568.7 509,-568.7"/>
<polygon fill="#000000" stroke="#000000" points="554,-568.7001 562,-572.3 558,-568.7 562,-568.7 562,-568.7 562,-568.7 558,-568.7 562,-565.1 554,-568.7001 554,-568.7001"/>
<ellipse fill="none" stroke="#000000" cx="550.8" cy="-568.7001" rx="3.2" ry="3.2"/>
</g>
<!-- plan_person -->
<g id="node5" class="node">
<title>plan_person</title>
<g id="a_node5"><a xlink:href="../../tables/plan_person.html" xlink:title="plan_person" target="_top">
<polygon fill="#ffffff" stroke="transparent" points="347.5,-53.7 347.5,-139.7 468.5,-139.7 468.5,-53.7 347.5,-53.7"/>
<polygon fill="#f5f5f5" stroke="transparent" points="348,-116.7 348,-139.7 469,-139.7 469,-116.7 348,-116.7"/>
<polygon fill="none" stroke="#000000" points="348,-116.7 348,-139.7 469,-139.7 469,-116.7 348,-116.7"/>
<text text-anchor="start" x="353" y="-125.3" font-family="Helvetica,sans-Serif" font-weight="bold" font-size="11.00" fill="#000000">plan_person</text>
<text text-anchor="start" x="434.5219" y="-124.8" font-family="Helvetica,sans-Serif" font-size="11.00" fill="#000000">[table]</text>
<polygon fill="none" stroke="#000000" points="348,-94.7 348,-116.7 469,-116.7 469,-94.7 348,-94.7"/>
<image xlink:href="../../images/foreignKeys.png" width="11px" height="12px" preserveAspectRatio="xMinYMin meet" x="353" y="-111.7"/>
<text text-anchor="start" x="368" y="-101.8" font-family="Helvetica,sans-Serif" font-size="11.00" fill="#000000">plan_id</text>
<polygon fill="none" stroke="#000000" points="348,-72.7 348,-94.7 469,-94.7 469,-72.7 348,-72.7"/>
<image xlink:href="../../images/foreignKeys.png" width="11px" height="12px" preserveAspectRatio="xMinYMin meet" x="353" y="-89.7"/>
<text text-anchor="start" x="368" y="-79.8" font-family="Helvetica,sans-Serif" font-size="11.00" fill="#000000">prison_number</text>
<polygon fill="#ffffff" stroke="transparent" points="348,-53.7 348,-72.7 407,-72.7 407,-53.7 348,-53.7"/>
<polygon fill="none" stroke="#000000" points="348,-53.7 348,-72.7 407,-72.7 407,-53.7 348,-53.7"/>
<text text-anchor="start" x="351" y="-59.8" font-family="Helvetica,sans-Serif" font-size="11.00" fill="#000000">&lt; 2</text>
<polygon fill="#ffffff" stroke="transparent" points="407,-53.7 407,-72.7 438,-72.7 438,-53.7 407,-53.7"/>
<polygon fill="none" stroke="#000000" points="407,-53.7 407,-72.7 438,-72.7 438,-53.7 407,-53.7"/>
<text text-anchor="start" x="428.8862" y="-59.8" font-family="Helvetica,sans-Serif" font-size="11.00" fill="#000000"> &#160;</text>
<polygon fill="#ffffff" stroke="transparent" points="438,-53.7 438,-72.7 469,-72.7 469,-53.7 438,-53.7"/>
<polygon fill="none" stroke="#000000" points="438,-53.7 438,-72.7 469,-72.7 469,-53.7 438,-53.7"/>
<text text-anchor="start" x="459.8862" y="-59.8" font-family="Helvetica,sans-Serif" font-size="11.00" fill="#000000"> &#160;</text>
</a>
</g>
</g>
<!-- plan_person&#45;&gt;person_summary -->
<g id="edge5" class="edge">
<title>plan_person:w&#45;&gt;person_summary:e</title>
<path fill="none" stroke="#000000" d="M337.225,-93.3043C309.9387,-138.6013 277.7541,-328.7 252,-328.7"/>
<polygon fill="#000000" stroke="#000000" points="342.028,-89.0231 350.3954,-86.3874 345.014,-86.3616 348,-83.7 348,-83.7 348,-83.7 345.014,-86.3616 345.6046,-81.0126 342.028,-89.0231 342.028,-89.0231"/>
<ellipse fill="none" stroke="#000000" cx="339.6392" cy="-91.1524" rx="3.2" ry="3.2"/>
</g>
<!-- bulk_plan -->
<g id="node6" class="node">
<title>bulk_plan</title>
<g id="a_node6"><a xlink:href="../../tables/bulk_plan.html" xlink:title="bulk_plan" target="_top">
<polygon fill="#ffffff" stroke="transparent" points="79.5,-38.2 79.5,-99.2 182.5,-99.2 182.5,-38.2 79.5,-38.2"/>
<polygon fill="#f5f5f5" stroke="transparent" points="80,-75.7 80,-98.7 183,-98.7 183,-75.7 80,-75.7"/>
<polygon fill="none" stroke="#000000" points="80,-75.7 80,-98.7 183,-98.7 183,-75.7 80,-75.7"/>
<text text-anchor="start" x="85" y="-84.3" font-family="Helvetica,sans-Serif" font-weight="bold" font-size="11.00" fill="#000000">bulk_plan</text>
<text text-anchor="start" x="148.5219" y="-83.8" font-family="Helvetica,sans-Serif" font-size="11.00" fill="#000000">[table]</text>
<polygon fill="none" stroke="#000000" points="80,-56.7 80,-75.7 183,-75.7 183,-56.7 80,-56.7"/>
<text text-anchor="start" x="83" y="-62.8" font-family="Helvetica,sans-Serif" font-size="11.00" fill="#000000">...</text>
<polygon fill="#ffffff" stroke="transparent" points="80,-37.7 80,-56.7 121,-56.7 121,-37.7 80,-37.7"/>
<polygon fill="none" stroke="#000000" points="80,-37.7 80,-56.7 121,-56.7 121,-37.7 80,-37.7"/>
<text text-anchor="start" x="83" y="-43.8" font-family="Helvetica,sans-Serif" font-size="11.00" fill="#000000"> &#160;</text>
<polygon fill="#ffffff" stroke="transparent" points="121,-37.7 121,-56.7 147,-56.7 147,-37.7 121,-37.7"/>
<polygon fill="none" stroke="#000000" points="121,-37.7 121,-56.7 147,-56.7 147,-37.7 121,-37.7"/>
<text text-anchor="start" x="137.8862" y="-43.8" font-family="Helvetica,sans-Serif" font-size="11.00" fill="#000000"> &#160;</text>
<polygon fill="#ffffff" stroke="transparent" points="147,-37.7 147,-56.7 183,-56.7 183,-37.7 147,-37.7"/>
<polygon fill="none" stroke="#000000" points="147,-37.7 147,-56.7 183,-56.7 183,-37.7 147,-37.7"/>
<text text-anchor="start" x="164.4053" y="-43.8" font-family="Helvetica,sans-Serif" font-size="11.00" fill="#000000">1 &gt;</text>
</a>
</g>
</g>
<!-- plan_person&#45;&gt;bulk_plan -->
<g id="edge4" class="edge">
<title>plan_person:w&#45;&gt;bulk_plan:e</title>
<path fill="none" stroke="#000000" d="M333.3465,-105.1648C270.3301,-100.4182 253.2992,-65.7 183,-65.7"/>
<polygon fill="#000000" stroke="#000000" points="340.0053,-105.4079 347.8686,-109.2976 344.0027,-105.554 348,-105.7 348,-105.7 348,-105.7 344.0027,-105.554 348.1314,-102.1024 340.0053,-105.4079 340.0053,-105.4079"/>
<ellipse fill="none" stroke="#000000" cx="336.8075" cy="-105.2911" rx="3.2" ry="3.2"/>
</g>
<!-- resync_audit -->
<g id="node7" class="node">
<title>resync_audit</title>
<g id="a_node7"><a xlink:href="../../tables/resync_audit.html" xlink:title="resync_audit" target="_top">
<polygon fill="#ffffff" stroke="transparent" points="303,-240.2 303,-345.2 513,-345.2 513,-240.2 303,-240.2"/>
<polygon fill="#f5f5f5" stroke="transparent" points="303,-321.7 303,-344.7 513,-344.7 513,-321.7 303,-321.7"/>
<polygon fill="none" stroke="#000000" points="303,-321.7 303,-344.7 513,-344.7 513,-321.7 303,-321.7"/>
<text text-anchor="start" x="308" y="-330.3" font-family="Helvetica,sans-Serif" font-weight="bold" font-size="11.00" fill="#000000">resync_audit</text>
<text text-anchor="start" x="478.0437" y="-329.8" font-family="Helvetica,sans-Serif" font-size="11.00" fill="#000000">[table]</text>
<polygon fill="none" stroke="#000000" points="303,-299.7 303,-321.7 513,-321.7 513,-299.7 303,-299.7"/>
<image xlink:href="../../images/primaryKeys.png" width="11px" height="12px" preserveAspectRatio="xMinYMin meet" x="308" y="-316.7"/>
<text text-anchor="start" x="323" y="-306.8" font-family="Helvetica,sans-Serif" font-size="11.00" fill="#000000">id</text>
<polygon fill="#ffffff" stroke="transparent" points="303,-277.7 303,-299.7 513,-299.7 513,-277.7 303,-277.7"/>
<polygon fill="none" stroke="#000000" points="303,-277.7 303,-299.7 513,-299.7 513,-277.7 303,-277.7"/>
<image xlink:href="../../images/foreignKeys.png" width="11px" height="12px" preserveAspectRatio="xMinYMin meet" x="308" y="-294.7"/>
<text text-anchor="start" x="323" y="-284.8" font-family="Helvetica,sans-Serif" font-size="11.00" fill="#000000">prison_number</text>
<polygon fill="none" stroke="#000000" points="303,-258.7 303,-277.7 513,-277.7 513,-258.7 303,-258.7"/>
<text text-anchor="start" x="306" y="-264.8" font-family="Helvetica,sans-Serif" font-size="11.00" fill="#000000">...</text>
<polygon fill="#ffffff" stroke="transparent" points="303,-239.7 303,-258.7 406,-258.7 406,-239.7 303,-239.7"/>
<polygon fill="none" stroke="#000000" points="303,-239.7 303,-258.7 406,-258.7 406,-239.7 303,-239.7"/>
<text text-anchor="start" x="306" y="-245.8" font-family="Helvetica,sans-Serif" font-size="11.00" fill="#000000">&lt; 1</text>
<polygon fill="#ffffff" stroke="transparent" points="406,-239.7 406,-258.7 459,-258.7 459,-239.7 406,-239.7"/>
<polygon fill="none" stroke="#000000" points="406,-239.7 406,-258.7 459,-258.7 459,-239.7 406,-239.7"/>
<text text-anchor="start" x="449.8862" y="-245.8" font-family="Helvetica,sans-Serif" font-size="11.00" fill="#000000"> &#160;</text>
<polygon fill="#ffffff" stroke="transparent" points="459,-239.7 459,-258.7 513,-258.7 513,-239.7 459,-239.7"/>
<polygon fill="none" stroke="#000000" points="459,-239.7 459,-258.7 513,-258.7 513,-239.7 459,-239.7"/>
<text text-anchor="start" x="503.8862" y="-245.8" font-family="Helvetica,sans-Serif" font-size="11.00" fill="#000000"> &#160;</text>
</a>
</g>
</g>
<!-- resync_audit&#45;&gt;person_summary -->
<g id="edge6" class="edge">
<title>resync_audit:w&#45;&gt;person_summary:e</title>
<path fill="none" stroke="#000000" stroke-dasharray="5,2" d="M289.2365,-292.9807C275.4186,-303.2996 274.9554,-328.7 252,-328.7"/>
<polygon fill="#000000" stroke="#000000" points="295.3609,-291.0759 304.0692,-292.1376 299.1805,-289.888 303,-288.7 303,-288.7 303,-288.7 299.1805,-289.888 301.9308,-285.2624 295.3609,-291.0759 295.3609,-291.0759"/>
<ellipse fill="none" stroke="#000000" cx="292.3053" cy="-292.0263" rx="3.2" ry="3.2"/>
</g>
</g>
</svg>
