<?xml version="1.0" encoding="UTF-8" standalone="no"?>
<!DOCTYPE svg PUBLIC "-//W3C//DTD SVG 1.1//EN"
 "http://www.w3.org/Graphics/SVG/1.1/DTD/svg11.dtd">
<!-- Generated by graphviz version 2.40.1 (20161225.0304)
 -->
<!-- Title: oneDegreeRelationshipsDiagram Pages: 1 -->
<svg width="440pt" height="314pt"
 viewBox="0.00 0.00 440.00 314.20" xmlns="http://www.w3.org/2000/svg" xmlns:xlink="http://www.w3.org/1999/xlink">
<g id="graph0" class="graph" transform="scale(1 1) rotate(0) translate(4 310.2)">
<title>oneDegreeRelationshipsDiagram</title>
<polygon fill="#ffffff" stroke="transparent" points="-4,4 -4,-310.2 436,-310.2 436,4 -4,4"/>
<text text-anchor="middle" x="72.4936" y="-7.3" font-family="Helvetica,sans-Serif" font-size="11.00" fill="#000000">Generated by SchemaSpy</text>
<!-- plan_person -->
<g id="node1" class="node">
<title>plan_person</title>
<g id="a_node1"><a xlink:href="../../tables/plan_person.html" xlink:title="plan_person" target="_top">
<polygon fill="#ffffff" stroke="transparent" points="303,-216.2 303,-302.2 424,-302.2 424,-216.2 303,-216.2"/>
<polygon fill="#f5f5f5" stroke="transparent" points="303.5,-279.2 303.5,-302.2 424.5,-302.2 424.5,-279.2 303.5,-279.2"/>
<polygon fill="none" stroke="#000000" points="303.5,-279.2 303.5,-302.2 424.5,-302.2 424.5,-279.2 303.5,-279.2"/>
<text text-anchor="start" x="308.5" y="-287.8" font-family="Helvetica,sans-Serif" font-weight="bold" font-size="11.00" fill="#000000">plan_person</text>
<text text-anchor="start" x="390.0219" y="-287.3" font-family="Helvetica,sans-Serif" font-size="11.00" fill="#000000">[table]</text>
<polygon fill="none" stroke="#000000" points="303.5,-257.2 303.5,-279.2 424.5,-279.2 424.5,-257.2 303.5,-257.2"/>
<image xlink:href="../../images/foreignKeys.png" width="11px" height="12px" preserveAspectRatio="xMinYMin meet" x="308.5" y="-274.2"/>
<text text-anchor="start" x="323.5" y="-264.3" font-family="Helvetica,sans-Serif" font-size="11.00" fill="#000000">plan_id</text>
<polygon fill="none" stroke="#000000" points="303.5,-235.2 303.5,-257.2 424.5,-257.2 424.5,-235.2 303.5,-235.2"/>
<image xlink:href="../../images/foreignKeys.png" width="11px" height="12px" preserveAspectRatio="xMinYMin meet" x="308.5" y="-252.2"/>
<text text-anchor="start" x="323.5" y="-242.3" font-family="Helvetica,sans-Serif" font-size="11.00" fill="#000000">prison_number</text>
<polygon fill="#ffffff" stroke="transparent" points="303.5,-216.2 303.5,-235.2 362.5,-235.2 362.5,-216.2 303.5,-216.2"/>
<polygon fill="none" stroke="#000000" points="303.5,-216.2 303.5,-235.2 362.5,-235.2 362.5,-216.2 303.5,-216.2"/>
<text text-anchor="start" x="306.5" y="-222.3" font-family="Helvetica,sans-Serif" font-size="11.00" fill="#000000">&lt; 2</text>
<polygon fill="#ffffff" stroke="transparent" points="362.5,-216.2 362.5,-235.2 393.5,-235.2 393.5,-216.2 362.5,-216.2"/>
<polygon fill="none" stroke="#000000" points="362.5,-216.2 362.5,-235.2 393.5,-235.2 393.5,-216.2 362.5,-216.2"/>
<text text-anchor="start" x="384.3862" y="-222.3" font-family="Helvetica,sans-Serif" font-size="11.00" fill="#000000"> &#160;</text>
<polygon fill="#ffffff" stroke="transparent" points="393.5,-216.2 393.5,-235.2 424.5,-235.2 424.5,-216.2 393.5,-216.2"/>
<polygon fill="none" stroke="#000000" points="393.5,-216.2 393.5,-235.2 424.5,-235.2 424.5,-216.2 393.5,-216.2"/>
<text text-anchor="start" x="415.3862" y="-222.3" font-family="Helvetica,sans-Serif" font-size="11.00" fill="#000000"> &#160;</text>
</a>
</g>
</g>
<!-- person_summary -->
<g id="node2" class="node">
<title>person_summary</title>
<g id="a_node2"><a xlink:href="../../tables/person_summary.html" xlink:title="person_summary" target="_top">
<polygon fill="#ffffff" stroke="transparent" points="8,-38.2 8,-282.2 254,-282.2 254,-38.2 8,-38.2"/>
<polygon fill="#f5f5f5" stroke="transparent" points="10,-257.2 10,-280.2 252,-280.2 252,-257.2 10,-257.2"/>
<polygon fill="none" stroke="#000000" points="10,-257.2 10,-280.2 252,-280.2 252,-257.2 10,-257.2"/>
<text text-anchor="start" x="15" y="-265.8" font-family="Helvetica,sans-Serif" font-weight="bold" font-size="11.00" fill="#000000">person_summary</text>
<text text-anchor="start" x="217.0437" y="-265.3" font-family="Helvetica,sans-Serif" font-size="11.00" fill="#000000">[table]</text>
<polygon fill="none" stroke="#000000" points="10,-235.2 10,-257.2 191,-257.2 191,-235.2 10,-235.2"/>
<image xlink:href="../../images/primaryKeys.png" width="11px" height="12px" preserveAspectRatio="xMinYMin meet" x="15" y="-252.2"/>
<text text-anchor="start" x="30" y="-242.3" font-family="Helvetica,sans-Serif" font-size="11.00" fill="#000000">prison_number</text>
<polygon fill="none" stroke="#000000" points="191,-235.2 191,-257.2 252,-257.2 252,-235.2 191,-235.2"/>
<text text-anchor="start" x="193.994" y="-242.9" font-family="Helvetica,sans-Serif" font-size="11.00" fill="#000000">varchar[10]</text>
<polygon fill="none" stroke="#000000" points="10,-213.2 10,-235.2 191,-235.2 191,-213.2 10,-213.2"/>
<text text-anchor="start" x="30" y="-220.3" font-family="Helvetica,sans-Serif" font-size="11.00" fill="#000000">first_name</text>
<polygon fill="none" stroke="#000000" points="191,-213.2 191,-235.2 252,-235.2 252,-213.2 191,-213.2"/>
<text text-anchor="start" x="193.994" y="-220.9" font-family="Helvetica,sans-Serif" font-size="11.00" fill="#000000">varchar[64]</text>
<polygon fill="none" stroke="#000000" points="10,-191.2 10,-213.2 191,-213.2 191,-191.2 10,-191.2"/>
<text text-anchor="start" x="30" y="-198.3" font-family="Helvetica,sans-Serif" font-size="11.00" fill="#000000">last_name</text>
<polygon fill="none" stroke="#000000" points="191,-191.2 191,-213.2 252,-213.2 252,-191.2 191,-191.2"/>
<text text-anchor="start" x="193.994" y="-198.9" font-family="Helvetica,sans-Serif" font-size="11.00" fill="#000000">varchar[64]</text>
<polygon fill="none" stroke="#000000" points="10,-169.2 10,-191.2 191,-191.2 191,-169.2 10,-169.2"/>
<text text-anchor="start" x="30" y="-176.3" font-family="Helvetica,sans-Serif" font-size="11.00" fill="#000000">status</text>
<polygon fill="none" stroke="#000000" points="191,-169.2 191,-191.2 252,-191.2 252,-169.2 191,-169.2"/>
<text text-anchor="start" x="193.994" y="-176.9" font-family="Helvetica,sans-Serif" font-size="11.00" fill="#000000">varchar[16]</text>
<polygon fill="none" stroke="#000000" points="10,-147.2 10,-169.2 191,-169.2 191,-147.2 10,-147.2"/>
<text text-anchor="start" x="30" y="-154.3" font-family="Helvetica,sans-Serif" font-size="11.00" fill="#000000">restricted_patient</text>
<polygon fill="none" stroke="#000000" points="191,-147.2 191,-169.2 252,-169.2 252,-147.2 191,-147.2"/>
<text text-anchor="start" x="194" y="-154.9" font-family="Helvetica,sans-Serif" font-size="11.00" fill="#000000">bool[1]</text>
<polygon fill="none" stroke="#000000" points="10,-125.2 10,-147.2 191,-147.2 191,-125.2 10,-125.2"/>
<text text-anchor="start" x="30" y="-132.3" font-family="Helvetica,sans-Serif" font-size="11.00" fill="#000000">prison_code</text>
<polygon fill="none" stroke="#000000" points="191,-125.2 191,-147.2 252,-147.2 252,-125.2 191,-125.2"/>
<text text-anchor="start" x="193.994" y="-132.9" font-family="Helvetica,sans-Serif" font-size="11.00" fill="#000000">varchar[16]</text>
<polygon fill="none" stroke="#000000" points="10,-103.2 10,-125.2 191,-125.2 191,-103.2 10,-103.2"/>
<text text-anchor="start" x="30" y="-110.3" font-family="Helvetica,sans-Serif" font-size="11.00" fill="#000000">cell_location</text>
<polygon fill="none" stroke="#000000" points="191,-103.2 191,-125.2 252,-125.2 252,-103.2 191,-103.2"/>
<text text-anchor="start" x="193.994" y="-110.9" font-family="Helvetica,sans-Serif" font-size="11.00" fill="#000000">varchar[64]</text>
<polygon fill="none" stroke="#000000" points="10,-81.2 10,-103.2 191,-103.2 191,-81.2 10,-81.2"/>
<text text-anchor="start" x="30" y="-88.3" font-family="Helvetica,sans-Serif" font-size="11.00" fill="#000000">supporting_prison_code</text>
<polygon fill="none" stroke="#000000" points="191,-81.2 191,-103.2 252,-103.2 252,-81.2 191,-81.2"/>
<text text-anchor="start" x="193.994" y="-88.9" font-family="Helvetica,sans-Serif" font-size="11.00" fill="#000000">varchar[16]</text>
<polygon fill="none" stroke="#000000" points="10,-59.2 10,-81.2 191,-81.2 191,-59.2 10,-59.2"/>
<text text-anchor="start" x="30" y="-66.3" font-family="Helvetica,sans-Serif" font-size="11.00" fill="#000000">version</text>
<polygon fill="none" stroke="#000000" points="191,-59.2 191,-81.2 252,-81.2 252,-59.2 191,-59.2"/>
<text text-anchor="start" x="194" y="-66.9" font-family="Helvetica,sans-Serif" font-size="11.00" fill="#000000">int4[10]</text>
<polygon fill="#ffffff" stroke="transparent" points="10,-40.2 10,-59.2 105,-59.2 105,-40.2 10,-40.2"/>
<polygon fill="none" stroke="#000000" points="10,-40.2 10,-59.2 105,-59.2 105,-40.2 10,-40.2"/>
<text text-anchor="start" x="13" y="-46.3" font-family="Helvetica,sans-Serif" font-size="11.00" fill="#000000">&lt; 0</text>
<polygon fill="#ffffff" stroke="transparent" points="105,-40.2 105,-59.2 191,-59.2 191,-40.2 105,-40.2"/>
<polygon fill="none" stroke="#000000" points="105,-40.2 105,-59.2 191,-59.2 191,-40.2 105,-40.2"/>
<text text-anchor="start" x="181.8862" y="-46.3" font-family="Helvetica,sans-Serif" font-size="11.00" fill="#000000"> &#160;</text>
<polygon fill="#ffffff" stroke="transparent" points="191,-40.2 191,-59.2 252,-59.2 252,-40.2 191,-40.2"/>
<polygon fill="none" stroke="#000000" points="191,-40.2 191,-59.2 252,-59.2 252,-40.2 191,-40.2"/>
<text text-anchor="start" x="233.4053" y="-46.3" font-family="Helvetica,sans-Serif" font-size="11.00" fill="#000000">1 &gt;</text>
<polygon fill="none" stroke="#000000" stroke-width="2" points="9,-39.2 9,-281.2 253,-281.2 253,-39.2 9,-39.2"/>
</a>
</g>
</g>
<!-- plan_person&#45;&gt;person_summary -->
<g id="edge1" class="edge">
<title>plan_person:w&#45;&gt;person_summary:e</title>
<path fill="none" stroke="#000000" d="M289.0156,-246.2C276.6771,-246.2 269.1667,-246.2 252,-246.2"/>
<polygon fill="#000000" stroke="#000000" points="295.5,-246.2001 303.5,-249.8 299.5,-246.2 303.5,-246.2 303.5,-246.2 303.5,-246.2 299.5,-246.2 303.5,-242.6 295.5,-246.2001 295.5,-246.2001"/>
<ellipse fill="none" stroke="#000000" cx="292.3" cy="-246.2001" rx="3.2" ry="3.2"/>
</g>
</g>
</svg>
