<?xml version="1.0" encoding="UTF-8" standalone="no"?>
<!DOCTYPE svg PUBLIC "-//W3C//DTD SVG 1.1//EN"
 "http://www.w3.org/Graphics/SVG/1.1/DTD/svg11.dtd">
<!-- Generated by graphviz version 2.40.1 (20161225.0304)
 -->
<!-- Title: oneDegreeRelationshipsDiagramImplied Pages: 1 -->
<svg width="529pt" height="573pt"
 viewBox="0.00 0.00 529.00 572.70" xmlns="http://www.w3.org/2000/svg" xmlns:xlink="http://www.w3.org/1999/xlink">
<g id="graph0" class="graph" transform="scale(1 1) rotate(0) translate(4 568.7)">
<title>oneDegreeRelationshipsDiagramImplied</title>
<polygon fill="#ffffff" stroke="transparent" points="-4,4 -4,-568.7 525,-568.7 525,4 -4,4"/>
<text text-anchor="middle" x="72.4936" y="-7.3" font-family="Helvetica,sans-Serif" font-size="11.00" fill="#000000">Generated by SchemaSpy</text>
<!-- alert -->
<g id="node1" class="node">
<title>alert</title>
<g id="a_node1"><a xlink:href="../../tables/alert.html" xlink:title="alert" target="_top">
<polygon fill="#ffffff" stroke="transparent" points="307.5,-323.7 307.5,-560.7 508.5,-560.7 508.5,-323.7 307.5,-323.7"/>
<polygon fill="#f5f5f5" stroke="transparent" points="308,-537.2 308,-560.2 509,-560.2 509,-537.2 308,-537.2"/>
<polygon fill="none" stroke="#000000" points="308,-537.2 308,-560.2 509,-560.2 509,-537.2 308,-537.2"/>
<text text-anchor="start" x="313" y="-545.8" font-family="Helvetica,sans-Serif" font-weight="bold" font-size="11.00" fill="#000000">alert</text>
<text text-anchor="start" x="474.0437" y="-545.3" font-family="Helvetica,sans-Serif" font-size="11.00" fill="#000000">[table]</text>
<polygon fill="none" stroke="#000000" points="308,-515.2 308,-537.2 509,-537.2 509,-515.2 308,-515.2"/>
<image xlink:href="../../images/primaryKeys.png" width="11px" height="12px" preserveAspectRatio="xMinYMin meet" x="313" y="-532.2"/>
<text text-anchor="start" x="328" y="-522.3" font-family="Helvetica,sans-Serif" font-size="11.00" fill="#000000">id</text>
<polygon fill="#ffffff" stroke="transparent" points="308,-493.2 308,-515.2 509,-515.2 509,-493.2 308,-493.2"/>
<polygon fill="none" stroke="#000000" points="308,-493.2 308,-515.2 509,-515.2 509,-493.2 308,-493.2"/>
<image xlink:href="../../images/foreignKeys.png" width="11px" height="12px" preserveAspectRatio="xMinYMin meet" x="313" y="-510.2"/>
<text text-anchor="start" x="328" y="-500.3" font-family="Helvetica,sans-Serif" font-size="11.00" fill="#000000">alert_code_id</text>
<polygon fill="#ffffff" stroke="transparent" points="308,-471.2 308,-493.2 509,-493.2 509,-471.2 308,-471.2"/>
<polygon fill="none" stroke="#000000" points="308,-471.2 308,-493.2 509,-493.2 509,-471.2 308,-471.2"/>
<image xlink:href="../../images/foreignKeys.png" width="11px" height="12px" preserveAspectRatio="xMinYMin meet" x="313" y="-488.2"/>
<text text-anchor="start" x="328" y="-478.3" font-family="Helvetica,sans-Serif" font-size="11.00" fill="#000000">prison_number</text>
<polygon fill="#ffffff" stroke="transparent" points="308,-449.2 308,-471.2 509,-471.2 509,-449.2 308,-449.2"/>
<polygon fill="none" stroke="#000000" points="308,-449.2 308,-471.2 509,-471.2 509,-449.2 308,-449.2"/>
<text text-anchor="start" x="328" y="-456.3" font-family="Helvetica,sans-Serif" font-size="11.00" fill="#000000">active_from</text>
<polygon fill="#ffffff" stroke="transparent" points="308,-427.2 308,-449.2 509,-449.2 509,-427.2 308,-427.2"/>
<polygon fill="none" stroke="#000000" points="308,-427.2 308,-449.2 509,-449.2 509,-427.2 308,-427.2"/>
<text text-anchor="start" x="328" y="-434.3" font-family="Helvetica,sans-Serif" font-size="11.00" fill="#000000">active_to</text>
<polygon fill="#ffffff" stroke="transparent" points="308,-405.2 308,-427.2 509,-427.2 509,-405.2 308,-405.2"/>
<polygon fill="none" stroke="#000000" points="308,-405.2 308,-427.2 509,-427.2 509,-405.2 308,-405.2"/>
<text text-anchor="start" x="328" y="-412.3" font-family="Helvetica,sans-Serif" font-size="11.00" fill="#000000">deleted_at</text>
<polygon fill="#ffffff" stroke="transparent" points="308,-383.2 308,-405.2 509,-405.2 509,-383.2 308,-383.2"/>
<polygon fill="none" stroke="#000000" points="308,-383.2 308,-405.2 509,-405.2 509,-383.2 308,-383.2"/>
<text text-anchor="start" x="328" y="-390.3" font-family="Helvetica,sans-Serif" font-size="11.00" fill="#000000">created_at</text>
<polygon fill="#ffffff" stroke="transparent" points="308,-361.2 308,-383.2 509,-383.2 509,-361.2 308,-361.2"/>
<polygon fill="none" stroke="#000000" points="308,-361.2 308,-383.2 509,-383.2 509,-361.2 308,-361.2"/>
<text text-anchor="start" x="328" y="-368.3" font-family="Helvetica,sans-Serif" font-size="11.00" fill="#000000">last_modified_at</text>
<polygon fill="none" stroke="#000000" points="308,-342.2 308,-361.2 509,-361.2 509,-342.2 308,-342.2"/>
<text text-anchor="start" x="311" y="-348.3" font-family="Helvetica,sans-Serif" font-size="11.00" fill="#000000">...</text>
<polygon fill="#ffffff" stroke="transparent" points="308,-323.2 308,-342.2 402,-342.2 402,-323.2 308,-323.2"/>
<polygon fill="none" stroke="#000000" points="308,-323.2 308,-342.2 402,-342.2 402,-323.2 308,-323.2"/>
<text text-anchor="start" x="311" y="-329.3" font-family="Helvetica,sans-Serif" font-size="11.00" fill="#000000">&lt; 2</text>
<polygon fill="#ffffff" stroke="transparent" points="402,-323.2 402,-342.2 451,-342.2 451,-323.2 402,-323.2"/>
<polygon fill="none" stroke="#000000" points="402,-323.2 402,-342.2 451,-342.2 451,-323.2 402,-323.2"/>
<text text-anchor="start" x="441.8862" y="-329.3" font-family="Helvetica,sans-Serif" font-size="11.00" fill="#000000"> &#160;</text>
<polygon fill="#ffffff" stroke="transparent" points="451,-323.2 451,-342.2 509,-342.2 509,-323.2 451,-323.2"/>
<polygon fill="none" stroke="#000000" points="451,-323.2 451,-342.2 509,-342.2 509,-323.2 451,-323.2"/>
<text text-anchor="start" x="490.4053" y="-329.3" font-family="Helvetica,sans-Serif" font-size="11.00" fill="#000000">1 &gt;</text>
</a>
</g>
</g>
<!-- person_summary -->
<g id="node2" class="node">
<title>person_summary</title>
<g id="a_node2"><a xlink:href="../../tables/person_summary.html" xlink:title="person_summary" target="_top">
<polygon fill="#ffffff" stroke="transparent" points="8,-38.2 8,-282.2 254,-282.2 254,-38.2 8,-38.2"/>
<polygon fill="#f5f5f5" stroke="transparent" points="10,-257.2 10,-280.2 252,-280.2 252,-257.2 10,-257.2"/>
<polygon fill="none" stroke="#000000" points="10,-257.2 10,-280.2 252,-280.2 252,-257.2 10,-257.2"/>
<text text-anchor="start" x="15" y="-265.8" font-family="Helvetica,sans-Serif" font-weight="bold" font-size="11.00" fill="#000000">person_summary</text>
<text text-anchor="start" x="217.0437" y="-265.3" font-family="Helvetica,sans-Serif" font-size="11.00" fill="#000000">[table]</text>
<polygon fill="none" stroke="#000000" points="10,-235.2 10,-257.2 191,-257.2 191,-235.2 10,-235.2"/>
<image xlink:href="../../images/primaryKeys.png" width="11px" height="12px" preserveAspectRatio="xMinYMin meet" x="15" y="-252.2"/>
<text text-anchor="start" x="30" y="-242.3" font-family="Helvetica,sans-Serif" font-size="11.00" fill="#000000">prison_number</text>
<polygon fill="none" stroke="#000000" points="191,-235.2 191,-257.2 252,-257.2 252,-235.2 191,-235.2"/>
<text text-anchor="start" x="193.994" y="-242.9" font-family="Helvetica,sans-Serif" font-size="11.00" fill="#000000">varchar[10]</text>
<polygon fill="none" stroke="#000000" points="10,-213.2 10,-235.2 191,-235.2 191,-213.2 10,-213.2"/>
<text text-anchor="start" x="30" y="-220.3" font-family="Helvetica,sans-Serif" font-size="11.00" fill="#000000">first_name</text>
<polygon fill="none" stroke="#000000" points="191,-213.2 191,-235.2 252,-235.2 252,-213.2 191,-213.2"/>
<text text-anchor="start" x="193.994" y="-220.9" font-family="Helvetica,sans-Serif" font-size="11.00" fill="#000000">varchar[64]</text>
<polygon fill="none" stroke="#000000" points="10,-191.2 10,-213.2 191,-213.2 191,-191.2 10,-191.2"/>
<text text-anchor="start" x="30" y="-198.3" font-family="Helvetica,sans-Serif" font-size="11.00" fill="#000000">last_name</text>
<polygon fill="none" stroke="#000000" points="191,-191.2 191,-213.2 252,-213.2 252,-191.2 191,-191.2"/>
<text text-anchor="start" x="193.994" y="-198.9" font-family="Helvetica,sans-Serif" font-size="11.00" fill="#000000">varchar[64]</text>
<polygon fill="none" stroke="#000000" points="10,-169.2 10,-191.2 191,-191.2 191,-169.2 10,-169.2"/>
<text text-anchor="start" x="30" y="-176.3" font-family="Helvetica,sans-Serif" font-size="11.00" fill="#000000">status</text>
<polygon fill="none" stroke="#000000" points="191,-169.2 191,-191.2 252,-191.2 252,-169.2 191,-169.2"/>
<text text-anchor="start" x="193.994" y="-176.9" font-family="Helvetica,sans-Serif" font-size="11.00" fill="#000000">varchar[16]</text>
<polygon fill="none" stroke="#000000" points="10,-147.2 10,-169.2 191,-169.2 191,-147.2 10,-147.2"/>
<text text-anchor="start" x="30" y="-154.3" font-family="Helvetica,sans-Serif" font-size="11.00" fill="#000000">restricted_patient</text>
<polygon fill="none" stroke="#000000" points="191,-147.2 191,-169.2 252,-169.2 252,-147.2 191,-147.2"/>
<text text-anchor="start" x="194" y="-154.9" font-family="Helvetica,sans-Serif" font-size="11.00" fill="#000000">bool[1]</text>
<polygon fill="none" stroke="#000000" points="10,-125.2 10,-147.2 191,-147.2 191,-125.2 10,-125.2"/>
<text text-anchor="start" x="30" y="-132.3" font-family="Helvetica,sans-Serif" font-size="11.00" fill="#000000">prison_code</text>
<polygon fill="none" stroke="#000000" points="191,-125.2 191,-147.2 252,-147.2 252,-125.2 191,-125.2"/>
<text text-anchor="start" x="193.994" y="-132.9" font-family="Helvetica,sans-Serif" font-size="11.00" fill="#000000">varchar[16]</text>
<polygon fill="none" stroke="#000000" points="10,-103.2 10,-125.2 191,-125.2 191,-103.2 10,-103.2"/>
<text text-anchor="start" x="30" y="-110.3" font-family="Helvetica,sans-Serif" font-size="11.00" fill="#000000">cell_location</text>
<polygon fill="none" stroke="#000000" points="191,-103.2 191,-125.2 252,-125.2 252,-103.2 191,-103.2"/>
<text text-anchor="start" x="193.994" y="-110.9" font-family="Helvetica,sans-Serif" font-size="11.00" fill="#000000">varchar[64]</text>
<polygon fill="none" stroke="#000000" points="10,-81.2 10,-103.2 191,-103.2 191,-81.2 10,-81.2"/>
<text text-anchor="start" x="30" y="-88.3" font-family="Helvetica,sans-Serif" font-size="11.00" fill="#000000">supporting_prison_code</text>
<polygon fill="none" stroke="#000000" points="191,-81.2 191,-103.2 252,-103.2 252,-81.2 191,-81.2"/>
<text text-anchor="start" x="193.994" y="-88.9" font-family="Helvetica,sans-Serif" font-size="11.00" fill="#000000">varchar[16]</text>
<polygon fill="none" stroke="#000000" points="10,-59.2 10,-81.2 191,-81.2 191,-59.2 10,-59.2"/>
<text text-anchor="start" x="30" y="-66.3" font-family="Helvetica,sans-Serif" font-size="11.00" fill="#000000">version</text>
<polygon fill="none" stroke="#000000" points="191,-59.2 191,-81.2 252,-81.2 252,-59.2 191,-59.2"/>
<text text-anchor="start" x="194" y="-66.9" font-family="Helvetica,sans-Serif" font-size="11.00" fill="#000000">int4[10]</text>
<polygon fill="#ffffff" stroke="transparent" points="10,-40.2 10,-59.2 105,-59.2 105,-40.2 10,-40.2"/>
<polygon fill="none" stroke="#000000" points="10,-40.2 10,-59.2 105,-59.2 105,-40.2 10,-40.2"/>
<text text-anchor="start" x="13" y="-46.3" font-family="Helvetica,sans-Serif" font-size="11.00" fill="#000000">&lt; 0</text>
<polygon fill="#ffffff" stroke="transparent" points="105,-40.2 105,-59.2 191,-59.2 191,-40.2 105,-40.2"/>
<polygon fill="none" stroke="#000000" points="105,-40.2 105,-59.2 191,-59.2 191,-40.2 105,-40.2"/>
<text text-anchor="start" x="181.8862" y="-46.3" font-family="Helvetica,sans-Serif" font-size="11.00" fill="#000000"> &#160;</text>
<polygon fill="#ffffff" stroke="transparent" points="191,-40.2 191,-59.2 252,-59.2 252,-40.2 191,-40.2"/>
<polygon fill="none" stroke="#000000" points="191,-40.2 191,-59.2 252,-59.2 252,-40.2 191,-40.2"/>
<text text-anchor="start" x="233.4053" y="-46.3" font-family="Helvetica,sans-Serif" font-size="11.00" fill="#000000">3 &gt;</text>
<polygon fill="none" stroke="#000000" stroke-width="2" points="9,-39.2 9,-281.2 253,-281.2 253,-39.2 9,-39.2"/>
</a>
</g>
</g>
<!-- alert&#45;&gt;person_summary -->
<g id="edge1" class="edge">
<title>alert:w&#45;&gt;person_summary:e</title>
<path fill="none" stroke="#000000" stroke-dasharray="5,2" d="M293.5758,-480.4361C215.7187,-458.8398 354.3271,-246.2 252,-246.2"/>
<polygon fill="#000000" stroke="#000000" points="300.0592,-481.2289 307.563,-485.7734 304.0296,-481.7144 308,-482.2 308,-482.2 308,-482.2 304.0296,-481.7144 308.437,-478.6266 300.0592,-481.2289 300.0592,-481.2289"/>
<ellipse fill="none" stroke="#000000" cx="296.8828" cy="-480.8404" rx="3.2" ry="3.2"/>
</g>
<!-- plan_person -->
<g id="node3" class="node">
<title>plan_person</title>
<g id="a_node3"><a xlink:href="../../tables/plan_person.html" xlink:title="plan_person" target="_top">
<polygon fill="#ffffff" stroke="transparent" points="347.5,-216.2 347.5,-302.2 468.5,-302.2 468.5,-216.2 347.5,-216.2"/>
<polygon fill="#f5f5f5" stroke="transparent" points="348,-279.2 348,-302.2 469,-302.2 469,-279.2 348,-279.2"/>
<polygon fill="none" stroke="#000000" points="348,-279.2 348,-302.2 469,-302.2 469,-279.2 348,-279.2"/>
<text text-anchor="start" x="353" y="-287.8" font-family="Helvetica,sans-Serif" font-weight="bold" font-size="11.00" fill="#000000">plan_person</text>
<text text-anchor="start" x="434.5219" y="-287.3" font-family="Helvetica,sans-Serif" font-size="11.00" fill="#000000">[table]</text>
<polygon fill="none" stroke="#000000" points="348,-257.2 348,-279.2 469,-279.2 469,-257.2 348,-257.2"/>
<image xlink:href="../../images/foreignKeys.png" width="11px" height="12px" preserveAspectRatio="xMinYMin meet" x="353" y="-274.2"/>
<text text-anchor="start" x="368" y="-264.3" font-family="Helvetica,sans-Serif" font-size="11.00" fill="#000000">plan_id</text>
<polygon fill="none" stroke="#000000" points="348,-235.2 348,-257.2 469,-257.2 469,-235.2 348,-235.2"/>
<image xlink:href="../../images/foreignKeys.png" width="11px" height="12px" preserveAspectRatio="xMinYMin meet" x="353" y="-252.2"/>
<text text-anchor="start" x="368" y="-242.3" font-family="Helvetica,sans-Serif" font-size="11.00" fill="#000000">prison_number</text>
<polygon fill="#ffffff" stroke="transparent" points="348,-216.2 348,-235.2 407,-235.2 407,-216.2 348,-216.2"/>
<polygon fill="none" stroke="#000000" points="348,-216.2 348,-235.2 407,-235.2 407,-216.2 348,-216.2"/>
<text text-anchor="start" x="351" y="-222.3" font-family="Helvetica,sans-Serif" font-size="11.00" fill="#000000">&lt; 2</text>
<polygon fill="#ffffff" stroke="transparent" points="407,-216.2 407,-235.2 438,-235.2 438,-216.2 407,-216.2"/>
<polygon fill="none" stroke="#000000" points="407,-216.2 407,-235.2 438,-235.2 438,-216.2 407,-216.2"/>
<text text-anchor="start" x="428.8862" y="-222.3" font-family="Helvetica,sans-Serif" font-size="11.00" fill="#000000"> &#160;</text>
<polygon fill="#ffffff" stroke="transparent" points="438,-216.2 438,-235.2 469,-235.2 469,-216.2 438,-216.2"/>
<polygon fill="none" stroke="#000000" points="438,-216.2 438,-235.2 469,-235.2 469,-216.2 438,-216.2"/>
<text text-anchor="start" x="459.8862" y="-222.3" font-family="Helvetica,sans-Serif" font-size="11.00" fill="#000000"> &#160;</text>
</a>
</g>
</g>
<!-- plan_person&#45;&gt;person_summary -->
<g id="edge2" class="edge">
<title>plan_person:w&#45;&gt;person_summary:e</title>
<path fill="none" stroke="#000000" d="M333.375,-246.2C302.1667,-246.2 289.3333,-246.2 252,-246.2"/>
<polygon fill="#000000" stroke="#000000" points="340,-246.2001 348,-249.8 344,-246.2 348,-246.2 348,-246.2 348,-246.2 344,-246.2 348,-242.6 340,-246.2001 340,-246.2001"/>
<ellipse fill="none" stroke="#000000" cx="336.8" cy="-246.2001" rx="3.2" ry="3.2"/>
</g>
<!-- resync_audit -->
<g id="node4" class="node">
<title>resync_audit</title>
<g id="a_node4"><a xlink:href="../../tables/resync_audit.html" xlink:title="resync_audit" target="_top">
<polygon fill="#ffffff" stroke="transparent" points="303,-89.7 303,-194.7 513,-194.7 513,-89.7 303,-89.7"/>
<polygon fill="#f5f5f5" stroke="transparent" points="303,-171.2 303,-194.2 513,-194.2 513,-171.2 303,-171.2"/>
<polygon fill="none" stroke="#000000" points="303,-171.2 303,-194.2 513,-194.2 513,-171.2 303,-171.2"/>
<text text-anchor="start" x="308" y="-179.8" font-family="Helvetica,sans-Serif" font-weight="bold" font-size="11.00" fill="#000000">resync_audit</text>
<text text-anchor="start" x="478.0437" y="-179.3" font-family="Helvetica,sans-Serif" font-size="11.00" fill="#000000">[table]</text>
<polygon fill="none" stroke="#000000" points="303,-149.2 303,-171.2 513,-171.2 513,-149.2 303,-149.2"/>
<image xlink:href="../../images/primaryKeys.png" width="11px" height="12px" preserveAspectRatio="xMinYMin meet" x="308" y="-166.2"/>
<text text-anchor="start" x="323" y="-156.3" font-family="Helvetica,sans-Serif" font-size="11.00" fill="#000000">id</text>
<polygon fill="#ffffff" stroke="transparent" points="303,-127.2 303,-149.2 513,-149.2 513,-127.2 303,-127.2"/>
<polygon fill="none" stroke="#000000" points="303,-127.2 303,-149.2 513,-149.2 513,-127.2 303,-127.2"/>
<image xlink:href="../../images/foreignKeys.png" width="11px" height="12px" preserveAspectRatio="xMinYMin meet" x="308" y="-144.2"/>
<text text-anchor="start" x="323" y="-134.3" font-family="Helvetica,sans-Serif" font-size="11.00" fill="#000000">prison_number</text>
<polygon fill="none" stroke="#000000" points="303,-108.2 303,-127.2 513,-127.2 513,-108.2 303,-108.2"/>
<text text-anchor="start" x="306" y="-114.3" font-family="Helvetica,sans-Serif" font-size="11.00" fill="#000000">...</text>
<polygon fill="#ffffff" stroke="transparent" points="303,-89.2 303,-108.2 406,-108.2 406,-89.2 303,-89.2"/>
<polygon fill="none" stroke="#000000" points="303,-89.2 303,-108.2 406,-108.2 406,-89.2 303,-89.2"/>
<text text-anchor="start" x="306" y="-95.3" font-family="Helvetica,sans-Serif" font-size="11.00" fill="#000000">&lt; 1</text>
<polygon fill="#ffffff" stroke="transparent" points="406,-89.2 406,-108.2 459,-108.2 459,-89.2 406,-89.2"/>
<polygon fill="none" stroke="#000000" points="406,-89.2 406,-108.2 459,-108.2 459,-89.2 406,-89.2"/>
<text text-anchor="start" x="449.8862" y="-95.3" font-family="Helvetica,sans-Serif" font-size="11.00" fill="#000000"> &#160;</text>
<polygon fill="#ffffff" stroke="transparent" points="459,-89.2 459,-108.2 513,-108.2 513,-89.2 459,-89.2"/>
<polygon fill="none" stroke="#000000" points="459,-89.2 459,-108.2 513,-108.2 513,-89.2 459,-89.2"/>
<text text-anchor="start" x="503.8862" y="-95.3" font-family="Helvetica,sans-Serif" font-size="11.00" fill="#000000"> &#160;</text>
</a>
</g>
</g>
<!-- resync_audit&#45;&gt;person_summary -->
<g id="edge3" class="edge">
<title>resync_audit:w&#45;&gt;person_summary:e</title>
<path fill="none" stroke="#000000" stroke-dasharray="5,2" d="M288.8128,-142.0438C261.0266,-161.2828 299.0695,-246.2 252,-246.2"/>
<polygon fill="#000000" stroke="#000000" points="295.2784,-140.2921 303.9414,-141.6747 299.1392,-139.246 303,-138.2 303,-138.2 303,-138.2 299.1392,-139.246 302.0586,-134.7253 295.2784,-140.2921 295.2784,-140.2921"/>
<ellipse fill="none" stroke="#000000" cx="292.1897" cy="-141.1289" rx="3.2" ry="3.2"/>
</g>
</g>
</svg>
