<?xml version="1.0" encoding="UTF-8" standalone="no"?>
<!DOCTYPE svg PUBLIC "-//W3C//DTD SVG 1.1//EN"
 "http://www.w3.org/Graphics/SVG/1.1/DTD/svg11.dtd">
<!-- Generated by graphviz version 2.40.1 (20161225.0304)
 -->
<!-- Title: twoDegreesRelationshipsDiagramImplied Pages: 1 -->
<svg width="732pt" height="615pt"
 viewBox="0.00 0.00 732.00 615.20" xmlns="http://www.w3.org/2000/svg" xmlns:xlink="http://www.w3.org/1999/xlink">
<g id="graph0" class="graph" transform="scale(1 1) rotate(0) translate(4 611.2)">
<title>twoDegreesRelationshipsDiagramImplied</title>
<polygon fill="#ffffff" stroke="transparent" points="-4,4 -4,-611.2 728,-611.2 728,4 -4,4"/>
<text text-anchor="middle" x="72.4936" y="-7.3" font-family="Helvetica,sans-Serif" font-size="11.00" fill="#000000">Generated by SchemaSpy</text>
<!-- alert -->
<g id="node1" class="node">
<title>alert</title>
<g id="a_node1"><a xlink:href="../../tables/alert.html" xlink:title="alert" target="_top">
<polygon fill="#ffffff" stroke="transparent" points="321.5,-366.2 321.5,-603.2 537.5,-603.2 537.5,-366.2 321.5,-366.2"/>
<polygon fill="#f5f5f5" stroke="transparent" points="321.5,-579.7 321.5,-602.7 537.5,-602.7 537.5,-579.7 321.5,-579.7"/>
<polygon fill="none" stroke="#000000" points="321.5,-579.7 321.5,-602.7 537.5,-602.7 537.5,-579.7 321.5,-579.7"/>
<text text-anchor="start" x="326.5" y="-588.3" font-family="Helvetica,sans-Serif" font-weight="bold" font-size="11.00" fill="#000000">alert</text>
<text text-anchor="start" x="502.5437" y="-587.8" font-family="Helvetica,sans-Serif" font-size="11.00" fill="#000000">[table]</text>
<polygon fill="none" stroke="#000000" points="321.5,-557.7 321.5,-579.7 537.5,-579.7 537.5,-557.7 321.5,-557.7"/>
<image xlink:href="../../images/primaryKeys.png" width="11px" height="12px" preserveAspectRatio="xMinYMin meet" x="326.5" y="-574.7"/>
<text text-anchor="start" x="341.5" y="-564.8" font-family="Helvetica,sans-Serif" font-size="11.00" fill="#000000">id</text>
<polygon fill="#ffffff" stroke="transparent" points="321.5,-535.7 321.5,-557.7 537.5,-557.7 537.5,-535.7 321.5,-535.7"/>
<polygon fill="none" stroke="#000000" points="321.5,-535.7 321.5,-557.7 537.5,-557.7 537.5,-535.7 321.5,-535.7"/>
<image xlink:href="../../images/foreignKeys.png" width="11px" height="12px" preserveAspectRatio="xMinYMin meet" x="326.5" y="-552.7"/>
<text text-anchor="start" x="341.5" y="-542.8" font-family="Helvetica,sans-Serif" font-size="11.00" fill="#000000">alert_code_id</text>
<polygon fill="#ffffff" stroke="transparent" points="321.5,-513.7 321.5,-535.7 537.5,-535.7 537.5,-513.7 321.5,-513.7"/>
<polygon fill="none" stroke="#000000" points="321.5,-513.7 321.5,-535.7 537.5,-535.7 537.5,-513.7 321.5,-513.7"/>
<image xlink:href="../../images/foreignKeys.png" width="11px" height="12px" preserveAspectRatio="xMinYMin meet" x="326.5" y="-530.7"/>
<text text-anchor="start" x="341.5" y="-520.8" font-family="Helvetica,sans-Serif" font-size="11.00" fill="#000000">prison_number</text>
<polygon fill="#ffffff" stroke="transparent" points="321.5,-491.7 321.5,-513.7 537.5,-513.7 537.5,-491.7 321.5,-491.7"/>
<polygon fill="none" stroke="#000000" points="321.5,-491.7 321.5,-513.7 537.5,-513.7 537.5,-491.7 321.5,-491.7"/>
<text text-anchor="start" x="341.5" y="-498.8" font-family="Helvetica,sans-Serif" font-size="11.00" fill="#000000">active_from</text>
<polygon fill="#ffffff" stroke="transparent" points="321.5,-469.7 321.5,-491.7 537.5,-491.7 537.5,-469.7 321.5,-469.7"/>
<polygon fill="none" stroke="#000000" points="321.5,-469.7 321.5,-491.7 537.5,-491.7 537.5,-469.7 321.5,-469.7"/>
<text text-anchor="start" x="341.5" y="-476.8" font-family="Helvetica,sans-Serif" font-size="11.00" fill="#000000">active_to</text>
<polygon fill="#ffffff" stroke="transparent" points="321.5,-447.7 321.5,-469.7 537.5,-469.7 537.5,-447.7 321.5,-447.7"/>
<polygon fill="none" stroke="#000000" points="321.5,-447.7 321.5,-469.7 537.5,-469.7 537.5,-447.7 321.5,-447.7"/>
<text text-anchor="start" x="341.5" y="-454.8" font-family="Helvetica,sans-Serif" font-size="11.00" fill="#000000">deleted_at</text>
<polygon fill="#ffffff" stroke="transparent" points="321.5,-425.7 321.5,-447.7 537.5,-447.7 537.5,-425.7 321.5,-425.7"/>
<polygon fill="none" stroke="#000000" points="321.5,-425.7 321.5,-447.7 537.5,-447.7 537.5,-425.7 321.5,-425.7"/>
<text text-anchor="start" x="341.5" y="-432.8" font-family="Helvetica,sans-Serif" font-size="11.00" fill="#000000">created_at</text>
<polygon fill="#ffffff" stroke="transparent" points="321.5,-403.7 321.5,-425.7 537.5,-425.7 537.5,-403.7 321.5,-403.7"/>
<polygon fill="none" stroke="#000000" points="321.5,-403.7 321.5,-425.7 537.5,-425.7 537.5,-403.7 321.5,-403.7"/>
<text text-anchor="start" x="341.5" y="-410.8" font-family="Helvetica,sans-Serif" font-size="11.00" fill="#000000">last_modified_at</text>
<polygon fill="none" stroke="#000000" points="321.5,-384.7 321.5,-403.7 537.5,-403.7 537.5,-384.7 321.5,-384.7"/>
<text text-anchor="start" x="324.5" y="-390.8" font-family="Helvetica,sans-Serif" font-size="11.00" fill="#000000">...</text>
<polygon fill="#ffffff" stroke="transparent" points="321.5,-365.7 321.5,-384.7 537.5,-384.7 537.5,-365.7 321.5,-365.7"/>
<polygon fill="none" stroke="#000000" points="321.5,-365.7 321.5,-384.7 537.5,-384.7 537.5,-365.7 321.5,-365.7"/>
<polygon fill="#ffffff" stroke="transparent" points="322.5,-366.7 322.5,-383.7 397.5,-383.7 397.5,-366.7 322.5,-366.7"/>
<text text-anchor="start" x="324.5" y="-371.8" font-family="Helvetica,sans-Serif" font-size="11.00" fill="#000000">&lt; 2</text>
<polygon fill="#ffffff" stroke="transparent" points="397.5,-366.7 397.5,-383.7 462.5,-383.7 462.5,-366.7 397.5,-366.7"/>
<text text-anchor="start" x="426.9431" y="-371.8" font-family="Helvetica,sans-Serif" font-size="11.00" fill="#000000"> &#160;</text>
<polygon fill="#ffffff" stroke="transparent" points="462.5,-366.7 462.5,-383.7 536.5,-383.7 536.5,-366.7 462.5,-366.7"/>
<text text-anchor="start" x="518.9053" y="-371.8" font-family="Helvetica,sans-Serif" font-size="11.00" fill="#000000">1 &gt;</text>
<polygon fill="#000000" stroke="#000000" points="397.5,-366.7 397.5,-383.7 397.5,-383.7 397.5,-366.7 397.5,-366.7"/>
<polygon fill="#000000" stroke="#000000" points="462.5,-366.7 462.5,-383.7 462.5,-383.7 462.5,-366.7 462.5,-366.7"/>
</a>
</g>
</g>
<!-- alert_code -->
<g id="node2" class="node">
<title>alert_code</title>
<g id="a_node2"><a xlink:href="../../tables/alert_code.html" xlink:title="alert_code" target="_top">
<polygon fill="#ffffff" stroke="transparent" points="81,-519.2 81,-580.2 195,-580.2 195,-519.2 81,-519.2"/>
<polygon fill="#f5f5f5" stroke="transparent" points="81,-556.7 81,-579.7 195,-579.7 195,-556.7 81,-556.7"/>
<polygon fill="none" stroke="#000000" points="81,-556.7 81,-579.7 195,-579.7 195,-556.7 81,-556.7"/>
<text text-anchor="start" x="86" y="-565.3" font-family="Helvetica,sans-Serif" font-weight="bold" font-size="11.00" fill="#000000">alert_code</text>
<text text-anchor="start" x="160.5219" y="-564.8" font-family="Helvetica,sans-Serif" font-size="11.00" fill="#000000">[table]</text>
<polygon fill="none" stroke="#000000" points="81,-537.7 81,-556.7 195,-556.7 195,-537.7 81,-537.7"/>
<text text-anchor="start" x="84" y="-543.8" font-family="Helvetica,sans-Serif" font-size="11.00" fill="#000000">...</text>
<polygon fill="#ffffff" stroke="transparent" points="81,-518.7 81,-537.7 195,-537.7 195,-518.7 81,-518.7"/>
<polygon fill="none" stroke="#000000" points="81,-518.7 81,-537.7 195,-537.7 195,-518.7 81,-518.7"/>
<polygon fill="#ffffff" stroke="transparent" points="82,-519.7 82,-536.7 110,-536.7 110,-519.7 82,-519.7"/>
<text text-anchor="start" x="84" y="-524.8" font-family="Helvetica,sans-Serif" font-size="11.00" fill="#000000">&lt; 1</text>
<polygon fill="#ffffff" stroke="transparent" points="110,-519.7 110,-536.7 167,-536.7 167,-519.7 110,-519.7"/>
<text text-anchor="start" x="116.1904" y="-524.8" font-family="Helvetica,sans-Serif" font-size="11.00" fill="#000000">213 rows</text>
<polygon fill="#ffffff" stroke="transparent" points="167,-519.7 167,-536.7 194,-536.7 194,-519.7 167,-519.7"/>
<text text-anchor="start" x="176.4053" y="-524.8" font-family="Helvetica,sans-Serif" font-size="11.00" fill="#000000">2 &gt;</text>
<polygon fill="#000000" stroke="#000000" points="110,-519.7 110,-536.7 110,-536.7 110,-519.7 110,-519.7"/>
<polygon fill="#000000" stroke="#000000" points="167,-519.7 167,-536.7 167,-536.7 167,-519.7 167,-519.7"/>
</a>
</g>
</g>
<!-- alert&#45;&gt;alert_code -->
<g id="edge1" class="edge">
<title>alert:w&#45;&gt;alert_code:e</title>
<path fill="none" stroke="#000000" d="M307.0177,-546.7C262.3419,-546.7 246.0612,-546.7 195,-546.7"/>
<polygon fill="#000000" stroke="#000000" points="313.5,-546.7001 321.5,-550.3 317.5,-546.7 321.5,-546.7 321.5,-546.7 321.5,-546.7 317.5,-546.7 321.5,-543.1 313.5,-546.7001 313.5,-546.7001"/>
<ellipse fill="none" stroke="#000000" cx="310.3" cy="-546.7001" rx="3.2" ry="3.2"/>
</g>
<!-- person_summary -->
<g id="node3" class="node">
<title>person_summary</title>
<g id="a_node3"><a xlink:href="../../tables/person_summary.html" xlink:title="person_summary" target="_top">
<polygon fill="#ffffff" stroke="transparent" points="8,-120.7 8,-364.7 268,-364.7 268,-120.7 8,-120.7"/>
<polygon fill="#f5f5f5" stroke="transparent" points="10,-339.7 10,-362.7 266,-362.7 266,-339.7 10,-339.7"/>
<polygon fill="none" stroke="#000000" points="10,-339.7 10,-362.7 266,-362.7 266,-339.7 10,-339.7"/>
<text text-anchor="start" x="15" y="-348.3" font-family="Helvetica,sans-Serif" font-weight="bold" font-size="11.00" fill="#000000">person_summary</text>
<text text-anchor="start" x="231.0437" y="-347.8" font-family="Helvetica,sans-Serif" font-size="11.00" fill="#000000">[table]</text>
<polygon fill="none" stroke="#000000" points="10,-317.7 10,-339.7 205,-339.7 205,-317.7 10,-317.7"/>
<image xlink:href="../../images/primaryKeys.png" width="11px" height="12px" preserveAspectRatio="xMinYMin meet" x="15" y="-334.7"/>
<text text-anchor="start" x="30" y="-324.8" font-family="Helvetica,sans-Serif" font-size="11.00" fill="#000000">prison_number</text>
<polygon fill="none" stroke="#000000" points="205,-317.7 205,-339.7 266,-339.7 266,-317.7 205,-317.7"/>
<text text-anchor="start" x="207.994" y="-325.4" font-family="Helvetica,sans-Serif" font-size="11.00" fill="#000000">varchar[10]</text>
<polygon fill="none" stroke="#000000" points="10,-295.7 10,-317.7 205,-317.7 205,-295.7 10,-295.7"/>
<text text-anchor="start" x="30" y="-302.8" font-family="Helvetica,sans-Serif" font-size="11.00" fill="#000000">first_name</text>
<polygon fill="none" stroke="#000000" points="205,-295.7 205,-317.7 266,-317.7 266,-295.7 205,-295.7"/>
<text text-anchor="start" x="207.994" y="-303.4" font-family="Helvetica,sans-Serif" font-size="11.00" fill="#000000">varchar[64]</text>
<polygon fill="none" stroke="#000000" points="10,-273.7 10,-295.7 205,-295.7 205,-273.7 10,-273.7"/>
<text text-anchor="start" x="30" y="-280.8" font-family="Helvetica,sans-Serif" font-size="11.00" fill="#000000">last_name</text>
<polygon fill="none" stroke="#000000" points="205,-273.7 205,-295.7 266,-295.7 266,-273.7 205,-273.7"/>
<text text-anchor="start" x="207.994" y="-281.4" font-family="Helvetica,sans-Serif" font-size="11.00" fill="#000000">varchar[64]</text>
<polygon fill="none" stroke="#000000" points="10,-251.7 10,-273.7 205,-273.7 205,-251.7 10,-251.7"/>
<text text-anchor="start" x="30" y="-258.8" font-family="Helvetica,sans-Serif" font-size="11.00" fill="#000000">status</text>
<polygon fill="none" stroke="#000000" points="205,-251.7 205,-273.7 266,-273.7 266,-251.7 205,-251.7"/>
<text text-anchor="start" x="207.994" y="-259.4" font-family="Helvetica,sans-Serif" font-size="11.00" fill="#000000">varchar[16]</text>
<polygon fill="none" stroke="#000000" points="10,-229.7 10,-251.7 205,-251.7 205,-229.7 10,-229.7"/>
<text text-anchor="start" x="30" y="-236.8" font-family="Helvetica,sans-Serif" font-size="11.00" fill="#000000">restricted_patient</text>
<polygon fill="none" stroke="#000000" points="205,-229.7 205,-251.7 266,-251.7 266,-229.7 205,-229.7"/>
<text text-anchor="start" x="208" y="-237.4" font-family="Helvetica,sans-Serif" font-size="11.00" fill="#000000">bool[1]</text>
<polygon fill="none" stroke="#000000" points="10,-207.7 10,-229.7 205,-229.7 205,-207.7 10,-207.7"/>
<text text-anchor="start" x="30" y="-214.8" font-family="Helvetica,sans-Serif" font-size="11.00" fill="#000000">prison_code</text>
<polygon fill="none" stroke="#000000" points="205,-207.7 205,-229.7 266,-229.7 266,-207.7 205,-207.7"/>
<text text-anchor="start" x="207.994" y="-215.4" font-family="Helvetica,sans-Serif" font-size="11.00" fill="#000000">varchar[16]</text>
<polygon fill="none" stroke="#000000" points="10,-185.7 10,-207.7 205,-207.7 205,-185.7 10,-185.7"/>
<text text-anchor="start" x="30" y="-192.8" font-family="Helvetica,sans-Serif" font-size="11.00" fill="#000000">cell_location</text>
<polygon fill="none" stroke="#000000" points="205,-185.7 205,-207.7 266,-207.7 266,-185.7 205,-185.7"/>
<text text-anchor="start" x="207.994" y="-193.4" font-family="Helvetica,sans-Serif" font-size="11.00" fill="#000000">varchar[64]</text>
<polygon fill="none" stroke="#000000" points="10,-163.7 10,-185.7 205,-185.7 205,-163.7 10,-163.7"/>
<text text-anchor="start" x="30" y="-170.8" font-family="Helvetica,sans-Serif" font-size="11.00" fill="#000000">supporting_prison_code</text>
<polygon fill="none" stroke="#000000" points="205,-163.7 205,-185.7 266,-185.7 266,-163.7 205,-163.7"/>
<text text-anchor="start" x="207.994" y="-171.4" font-family="Helvetica,sans-Serif" font-size="11.00" fill="#000000">varchar[16]</text>
<polygon fill="none" stroke="#000000" points="10,-141.7 10,-163.7 205,-163.7 205,-141.7 10,-141.7"/>
<text text-anchor="start" x="30" y="-148.8" font-family="Helvetica,sans-Serif" font-size="11.00" fill="#000000">version</text>
<polygon fill="none" stroke="#000000" points="205,-141.7 205,-163.7 266,-163.7 266,-141.7 205,-141.7"/>
<text text-anchor="start" x="208" y="-149.4" font-family="Helvetica,sans-Serif" font-size="11.00" fill="#000000">int4[10]</text>
<polygon fill="#ffffff" stroke="transparent" points="10,-122.7 10,-141.7 266,-141.7 266,-122.7 10,-122.7"/>
<polygon fill="none" stroke="#000000" points="10,-122.7 10,-141.7 266,-141.7 266,-122.7 10,-122.7"/>
<polygon fill="#ffffff" stroke="transparent" points="11,-123.7 11,-140.7 99,-140.7 99,-123.7 11,-123.7"/>
<text text-anchor="start" x="13" y="-128.8" font-family="Helvetica,sans-Serif" font-size="11.00" fill="#000000">&lt; 0</text>
<polygon fill="#ffffff" stroke="transparent" points="99,-123.7 99,-140.7 178,-140.7 178,-123.7 99,-123.7"/>
<text text-anchor="start" x="135.4431" y="-128.8" font-family="Helvetica,sans-Serif" font-size="11.00" fill="#000000"> &#160;</text>
<polygon fill="#ffffff" stroke="transparent" points="178,-123.7 178,-140.7 265,-140.7 265,-123.7 178,-123.7"/>
<text text-anchor="start" x="247.4053" y="-128.8" font-family="Helvetica,sans-Serif" font-size="11.00" fill="#000000">3 &gt;</text>
<polygon fill="#000000" stroke="#000000" points="99,-123.7 99,-140.7 99,-140.7 99,-123.7 99,-123.7"/>
<polygon fill="#000000" stroke="#000000" points="178,-123.7 178,-140.7 178,-140.7 178,-123.7 178,-123.7"/>
<polygon fill="none" stroke="#000000" stroke-width="2" points="9,-121.7 9,-363.7 267,-363.7 267,-121.7 9,-121.7"/>
</a>
</g>
</g>
<!-- alert&#45;&gt;person_summary -->
<g id="edge2" class="edge">
<title>alert:w&#45;&gt;person_summary:e</title>
<path fill="none" stroke="#000000" stroke-dasharray="5,2" d="M306.9515,-522.4988C245.8162,-500.9656 350.8776,-328.7 266,-328.7"/>
<polygon fill="#000000" stroke="#000000" points="313.59,-523.5032 320.9614,-528.2595 317.545,-524.1016 321.5,-524.7 321.5,-524.7 321.5,-524.7 317.545,-524.1016 322.0386,-521.1405 313.59,-523.5032 313.59,-523.5032"/>
<ellipse fill="none" stroke="#000000" cx="310.426" cy="-523.0245" rx="3.2" ry="3.2"/>
</g>
<!-- audit_event -->
<g id="node4" class="node">
<title>audit_event</title>
<g id="a_node4"><a xlink:href="../../tables/audit_event.html" xlink:title="audit_event" target="_top">
<polygon fill="#ffffff" stroke="transparent" points="591,-541.2 591,-602.2 716,-602.2 716,-541.2 591,-541.2"/>
<polygon fill="#f5f5f5" stroke="transparent" points="591.5,-578.7 591.5,-601.7 716.5,-601.7 716.5,-578.7 591.5,-578.7"/>
<polygon fill="none" stroke="#000000" points="591.5,-578.7 591.5,-601.7 716.5,-601.7 716.5,-578.7 591.5,-578.7"/>
<text text-anchor="start" x="596.5" y="-587.3" font-family="Helvetica,sans-Serif" font-weight="bold" font-size="11.00" fill="#000000">audit_event</text>
<text text-anchor="start" x="682.0219" y="-586.8" font-family="Helvetica,sans-Serif" font-size="11.00" fill="#000000">[table]</text>
<polygon fill="none" stroke="#000000" points="591.5,-559.7 591.5,-578.7 716.5,-578.7 716.5,-559.7 591.5,-559.7"/>
<text text-anchor="start" x="594.5" y="-565.8" font-family="Helvetica,sans-Serif" font-size="11.00" fill="#000000">...</text>
<polygon fill="#ffffff" stroke="transparent" points="591.5,-540.7 591.5,-559.7 716.5,-559.7 716.5,-540.7 591.5,-540.7"/>
<polygon fill="none" stroke="#000000" points="591.5,-540.7 591.5,-559.7 716.5,-559.7 716.5,-540.7 591.5,-540.7"/>
<polygon fill="#ffffff" stroke="transparent" points="592.5,-541.7 592.5,-558.7 639.5,-558.7 639.5,-541.7 592.5,-541.7"/>
<text text-anchor="start" x="594.5" y="-546.8" font-family="Helvetica,sans-Serif" font-size="11.00" fill="#000000">&lt; 1</text>
<polygon fill="#ffffff" stroke="transparent" points="639.5,-541.7 639.5,-558.7 677.5,-558.7 677.5,-541.7 639.5,-541.7"/>
<text text-anchor="start" x="655.4431" y="-546.8" font-family="Helvetica,sans-Serif" font-size="11.00" fill="#000000"> &#160;</text>
<polygon fill="#ffffff" stroke="transparent" points="677.5,-541.7 677.5,-558.7 715.5,-558.7 715.5,-541.7 677.5,-541.7"/>
<text text-anchor="start" x="707.3862" y="-546.8" font-family="Helvetica,sans-Serif" font-size="11.00" fill="#000000"> &#160;</text>
<polygon fill="#000000" stroke="#000000" points="639.5,-541.7 639.5,-558.7 639.5,-558.7 639.5,-541.7 639.5,-541.7"/>
<polygon fill="#000000" stroke="#000000" points="677.5,-541.7 677.5,-558.7 677.5,-558.7 677.5,-541.7 677.5,-541.7"/>
</a>
</g>
</g>
<!-- audit_event&#45;&gt;alert -->
<g id="edge3" class="edge">
<title>audit_event:w&#45;&gt;alert:e</title>
<path fill="none" stroke="#000000" d="M576.7185,-568.7C563.538,-568.7 555.6875,-568.7 537.5,-568.7"/>
<polygon fill="#000000" stroke="#000000" points="583.5,-568.7001 591.5,-572.3 587.5,-568.7 591.5,-568.7 591.5,-568.7 591.5,-568.7 587.5,-568.7 591.5,-565.1 583.5,-568.7001 583.5,-568.7001"/>
<ellipse fill="none" stroke="#000000" cx="580.3" cy="-568.7001" rx="3.2" ry="3.2"/>
</g>
<!-- plan_person -->
<g id="node5" class="node">
<title>plan_person</title>
<g id="a_node5"><a xlink:href="../../tables/plan_person.html" xlink:title="plan_person" target="_top">
<polygon fill="#ffffff" stroke="transparent" points="364.5,-53.7 364.5,-139.7 494.5,-139.7 494.5,-53.7 364.5,-53.7"/>
<polygon fill="#f5f5f5" stroke="transparent" points="364.5,-116.7 364.5,-139.7 494.5,-139.7 494.5,-116.7 364.5,-116.7"/>
<polygon fill="none" stroke="#000000" points="364.5,-116.7 364.5,-139.7 494.5,-139.7 494.5,-116.7 364.5,-116.7"/>
<text text-anchor="start" x="369.5" y="-125.3" font-family="Helvetica,sans-Serif" font-weight="bold" font-size="11.00" fill="#000000">plan_person</text>
<text text-anchor="start" x="459.5437" y="-124.8" font-family="Helvetica,sans-Serif" font-size="11.00" fill="#000000">[table]</text>
<polygon fill="none" stroke="#000000" points="364.5,-94.7 364.5,-116.7 494.5,-116.7 494.5,-94.7 364.5,-94.7"/>
<image xlink:href="../../images/primaryKeys.png" width="11px" height="12px" preserveAspectRatio="xMinYMin meet" x="369.5" y="-111.7"/>
<text text-anchor="start" x="384.5" y="-101.8" font-family="Helvetica,sans-Serif" font-size="11.00" fill="#000000">plan_id</text>
<polygon fill="none" stroke="#000000" points="364.5,-72.7 364.5,-94.7 494.5,-94.7 494.5,-72.7 364.5,-72.7"/>
<image xlink:href="../../images/primaryKeys.png" width="11px" height="12px" preserveAspectRatio="xMinYMin meet" x="369.5" y="-89.7"/>
<text text-anchor="start" x="384.5" y="-79.8" font-family="Helvetica,sans-Serif" font-size="11.00" fill="#000000">prison_number</text>
<polygon fill="#ffffff" stroke="transparent" points="364.5,-53.7 364.5,-72.7 494.5,-72.7 494.5,-53.7 364.5,-53.7"/>
<polygon fill="none" stroke="#000000" points="364.5,-53.7 364.5,-72.7 494.5,-72.7 494.5,-53.7 364.5,-53.7"/>
<polygon fill="#ffffff" stroke="transparent" points="365.5,-54.7 365.5,-71.7 414.5,-71.7 414.5,-54.7 365.5,-54.7"/>
<text text-anchor="start" x="367.5" y="-59.8" font-family="Helvetica,sans-Serif" font-size="11.00" fill="#000000">&lt; 2</text>
<polygon fill="#ffffff" stroke="transparent" points="414.5,-54.7 414.5,-71.7 454.5,-71.7 454.5,-54.7 414.5,-54.7"/>
<text text-anchor="start" x="431.4431" y="-59.8" font-family="Helvetica,sans-Serif" font-size="11.00" fill="#000000"> &#160;</text>
<polygon fill="#ffffff" stroke="transparent" points="454.5,-54.7 454.5,-71.7 493.5,-71.7 493.5,-54.7 454.5,-54.7"/>
<text text-anchor="start" x="485.3862" y="-59.8" font-family="Helvetica,sans-Serif" font-size="11.00" fill="#000000"> &#160;</text>
<polygon fill="#000000" stroke="#000000" points="414.5,-54.7 414.5,-71.7 414.5,-71.7 414.5,-54.7 414.5,-54.7"/>
<polygon fill="#000000" stroke="#000000" points="454.5,-54.7 454.5,-71.7 454.5,-71.7 454.5,-54.7 454.5,-54.7"/>
</a>
</g>
</g>
<!-- plan_person&#45;&gt;person_summary -->
<g id="edge5" class="edge">
<title>plan_person:w&#45;&gt;person_summary:e</title>
<path fill="none" stroke="#000000" d="M353.6024,-93.3043C325.8205,-138.6013 291.8443,-328.7 266,-328.7"/>
<polygon fill="#000000" stroke="#000000" points="358.4982,-88.9895 366.8803,-86.4008 361.4991,-86.3448 364.5,-83.7 364.5,-83.7 364.5,-83.7 361.4991,-86.3448 362.1197,-80.9992 358.4982,-88.9895 358.4982,-88.9895"/>
<ellipse fill="none" stroke="#000000" cx="356.0975" cy="-91.1053" rx="3.2" ry="3.2"/>
</g>
<!-- bulk_plan -->
<g id="node6" class="node">
<title>bulk_plan</title>
<g id="a_node6"><a xlink:href="../../tables/bulk_plan.html" xlink:title="bulk_plan" target="_top">
<polygon fill="#ffffff" stroke="transparent" points="84,-38.2 84,-99.2 192,-99.2 192,-38.2 84,-38.2"/>
<polygon fill="#f5f5f5" stroke="transparent" points="84,-75.7 84,-98.7 192,-98.7 192,-75.7 84,-75.7"/>
<polygon fill="none" stroke="#000000" points="84,-75.7 84,-98.7 192,-98.7 192,-75.7 84,-75.7"/>
<text text-anchor="start" x="89" y="-84.3" font-family="Helvetica,sans-Serif" font-weight="bold" font-size="11.00" fill="#000000">bulk_plan</text>
<text text-anchor="start" x="157.5219" y="-83.8" font-family="Helvetica,sans-Serif" font-size="11.00" fill="#000000">[table]</text>
<polygon fill="none" stroke="#000000" points="84,-56.7 84,-75.7 192,-75.7 192,-56.7 84,-56.7"/>
<text text-anchor="start" x="87" y="-62.8" font-family="Helvetica,sans-Serif" font-size="11.00" fill="#000000">...</text>
<polygon fill="#ffffff" stroke="transparent" points="84,-37.7 84,-56.7 192,-56.7 192,-37.7 84,-37.7"/>
<polygon fill="none" stroke="#000000" points="84,-37.7 84,-56.7 192,-56.7 192,-37.7 84,-37.7"/>
<polygon fill="#ffffff" stroke="transparent" points="85,-38.7 85,-55.7 118,-55.7 118,-38.7 85,-38.7"/>
<text text-anchor="start" x="87" y="-43.8" font-family="Helvetica,sans-Serif" font-size="11.00" fill="#000000"> &#160;</text>
<polygon fill="#ffffff" stroke="transparent" points="118,-38.7 118,-55.7 150,-55.7 150,-38.7 118,-38.7"/>
<text text-anchor="start" x="130.9431" y="-43.8" font-family="Helvetica,sans-Serif" font-size="11.00" fill="#000000"> &#160;</text>
<polygon fill="#ffffff" stroke="transparent" points="150,-38.7 150,-55.7 191,-55.7 191,-38.7 150,-38.7"/>
<text text-anchor="start" x="173.4053" y="-43.8" font-family="Helvetica,sans-Serif" font-size="11.00" fill="#000000">1 &gt;</text>
<polygon fill="#000000" stroke="#000000" points="118,-38.7 118,-55.7 118,-55.7 118,-38.7 118,-38.7"/>
<polygon fill="#000000" stroke="#000000" points="150,-38.7 150,-55.7 150,-55.7 150,-38.7 150,-38.7"/>
</a>
</g>
</g>
<!-- plan_person&#45;&gt;bulk_plan -->
<g id="edge4" class="edge">
<title>plan_person:w&#45;&gt;bulk_plan:e</title>
<path fill="none" stroke="#000000" d="M350.041,-105.2229C283.5887,-100.7099 265.6284,-65.7 192,-65.7"/>
<polygon fill="#000000" stroke="#000000" points="356.5044,-105.4361 364.3813,-109.298 360.5022,-105.5681 364.5,-105.7 364.5,-105.7 364.5,-105.7 360.5022,-105.5681 364.6187,-102.102 356.5044,-105.4361 356.5044,-105.4361"/>
<ellipse fill="none" stroke="#000000" cx="353.3061" cy="-105.3306" rx="3.2" ry="3.2"/>
</g>
<!-- resync_audit -->
<g id="node7" class="node">
<title>resync_audit</title>
<g id="a_node7"><a xlink:href="../../tables/resync_audit.html" xlink:title="resync_audit" target="_top">
<polygon fill="#ffffff" stroke="transparent" points="317,-240.2 317,-345.2 542,-345.2 542,-240.2 317,-240.2"/>
<polygon fill="#f5f5f5" stroke="transparent" points="317.5,-321.7 317.5,-344.7 542.5,-344.7 542.5,-321.7 317.5,-321.7"/>
<polygon fill="none" stroke="#000000" points="317.5,-321.7 317.5,-344.7 542.5,-344.7 542.5,-321.7 317.5,-321.7"/>
<text text-anchor="start" x="322.5" y="-330.3" font-family="Helvetica,sans-Serif" font-weight="bold" font-size="11.00" fill="#000000">resync_audit</text>
<text text-anchor="start" x="507.5437" y="-329.8" font-family="Helvetica,sans-Serif" font-size="11.00" fill="#000000">[table]</text>
<polygon fill="none" stroke="#000000" points="317.5,-299.7 317.5,-321.7 542.5,-321.7 542.5,-299.7 317.5,-299.7"/>
<image xlink:href="../../images/primaryKeys.png" width="11px" height="12px" preserveAspectRatio="xMinYMin meet" x="322.5" y="-316.7"/>
<text text-anchor="start" x="337.5" y="-306.8" font-family="Helvetica,sans-Serif" font-size="11.00" fill="#000000">id</text>
<polygon fill="#ffffff" stroke="transparent" points="317.5,-277.7 317.5,-299.7 542.5,-299.7 542.5,-277.7 317.5,-277.7"/>
<polygon fill="none" stroke="#000000" points="317.5,-277.7 317.5,-299.7 542.5,-299.7 542.5,-277.7 317.5,-277.7"/>
<image xlink:href="../../images/foreignKeys.png" width="11px" height="12px" preserveAspectRatio="xMinYMin meet" x="322.5" y="-294.7"/>
<text text-anchor="start" x="337.5" y="-284.8" font-family="Helvetica,sans-Serif" font-size="11.00" fill="#000000">prison_number</text>
<polygon fill="none" stroke="#000000" points="317.5,-258.7 317.5,-277.7 542.5,-277.7 542.5,-258.7 317.5,-258.7"/>
<text text-anchor="start" x="320.5" y="-264.8" font-family="Helvetica,sans-Serif" font-size="11.00" fill="#000000">...</text>
<polygon fill="#ffffff" stroke="transparent" points="317.5,-239.7 317.5,-258.7 542.5,-258.7 542.5,-239.7 317.5,-239.7"/>
<polygon fill="none" stroke="#000000" points="317.5,-239.7 317.5,-258.7 542.5,-258.7 542.5,-239.7 317.5,-239.7"/>
<polygon fill="#ffffff" stroke="transparent" points="318.5,-240.7 318.5,-257.7 399.5,-257.7 399.5,-240.7 318.5,-240.7"/>
<text text-anchor="start" x="320.5" y="-245.8" font-family="Helvetica,sans-Serif" font-size="11.00" fill="#000000">&lt; 1</text>
<polygon fill="#ffffff" stroke="transparent" points="399.5,-240.7 399.5,-257.7 470.5,-257.7 470.5,-240.7 399.5,-240.7"/>
<text text-anchor="start" x="431.9431" y="-245.8" font-family="Helvetica,sans-Serif" font-size="11.00" fill="#000000"> &#160;</text>
<polygon fill="#ffffff" stroke="transparent" points="470.5,-240.7 470.5,-257.7 541.5,-257.7 541.5,-240.7 470.5,-240.7"/>
<text text-anchor="start" x="533.3862" y="-245.8" font-family="Helvetica,sans-Serif" font-size="11.00" fill="#000000"> &#160;</text>
<polygon fill="#000000" stroke="#000000" points="399.5,-240.7 399.5,-257.7 399.5,-257.7 399.5,-240.7 399.5,-240.7"/>
<polygon fill="#000000" stroke="#000000" points="470.5,-240.7 470.5,-257.7 470.5,-257.7 470.5,-240.7 470.5,-240.7"/>
</a>
</g>
</g>
<!-- resync_audit&#45;&gt;person_summary -->
<g id="edge6" class="edge">
<title>resync_audit:w&#45;&gt;person_summary:e</title>
<path fill="none" stroke="#000000" stroke-dasharray="5,2" d="M303.6325,-292.9807C289.6815,-303.2996 289.095,-328.7 266,-328.7"/>
<polygon fill="#000000" stroke="#000000" points="309.8559,-291.0597 318.5618,-292.1398 313.678,-289.8798 317.5,-288.7 317.5,-288.7 317.5,-288.7 313.678,-289.8798 316.4382,-285.2602 309.8559,-291.0597 309.8559,-291.0597"/>
<ellipse fill="none" stroke="#000000" cx="306.7983" cy="-292.0035" rx="3.2" ry="3.2"/>
</g>
</g>
</svg>
