<?xml version="1.0" encoding="UTF-8" standalone="no"?>
<!DOCTYPE svg PUBLIC "-//W3C//DTD SVG 1.1//EN"
 "http://www.w3.org/Graphics/SVG/1.1/DTD/svg11.dtd">
<!-- Generated by graphviz version 2.40.1 (20161225.0304)
 -->
<!-- Title: twoDegreesRelationshipsDiagram Pages: 1 -->
<svg width="463pt" height="377pt"
 viewBox="0.00 0.00 463.00 376.70" xmlns="http://www.w3.org/2000/svg" xmlns:xlink="http://www.w3.org/1999/xlink">
<g id="graph0" class="graph" transform="scale(1 1) rotate(0) translate(4 372.7)">
<title>twoDegreesRelationshipsDiagram</title>
<polygon fill="#ffffff" stroke="transparent" points="-4,4 -4,-372.7 459,-372.7 459,4 -4,4"/>
<text text-anchor="middle" x="72.4936" y="-7.3" font-family="Helvetica,sans-Serif" font-size="11.00" fill="#000000">Generated by SchemaSpy</text>
<!-- plan_person -->
<g id="node1" class="node">
<title>plan_person</title>
<g id="a_node1"><a xlink:href="../../tables/plan_person.html" xlink:title="plan_person" target="_top">
<polygon fill="#ffffff" stroke="transparent" points="317,-247.2 317,-333.2 447,-333.2 447,-247.2 317,-247.2"/>
<polygon fill="#f5f5f5" stroke="transparent" points="317,-310.2 317,-333.2 447,-333.2 447,-310.2 317,-310.2"/>
<polygon fill="none" stroke="#000000" points="317,-310.2 317,-333.2 447,-333.2 447,-310.2 317,-310.2"/>
<text text-anchor="start" x="322" y="-318.8" font-family="Helvetica,sans-Serif" font-weight="bold" font-size="11.00" fill="#000000">plan_person</text>
<text text-anchor="start" x="412.0437" y="-318.3" font-family="Helvetica,sans-Serif" font-size="11.00" fill="#000000">[table]</text>
<polygon fill="none" stroke="#000000" points="317,-288.2 317,-310.2 447,-310.2 447,-288.2 317,-288.2"/>
<image xlink:href="../../images/foreignKeys.png" width="11px" height="12px" preserveAspectRatio="xMinYMin meet" x="322" y="-305.2"/>
<text text-anchor="start" x="337" y="-295.3" font-family="Helvetica,sans-Serif" font-size="11.00" fill="#000000">plan_id</text>
<polygon fill="none" stroke="#000000" points="317,-266.2 317,-288.2 447,-288.2 447,-266.2 317,-266.2"/>
<image xlink:href="../../images/foreignKeys.png" width="11px" height="12px" preserveAspectRatio="xMinYMin meet" x="322" y="-283.2"/>
<text text-anchor="start" x="337" y="-273.3" font-family="Helvetica,sans-Serif" font-size="11.00" fill="#000000">prison_number</text>
<polygon fill="#ffffff" stroke="transparent" points="317,-247.2 317,-266.2 447,-266.2 447,-247.2 317,-247.2"/>
<polygon fill="none" stroke="#000000" points="317,-247.2 317,-266.2 447,-266.2 447,-247.2 317,-247.2"/>
<polygon fill="#ffffff" stroke="transparent" points="318,-248.2 318,-265.2 367,-265.2 367,-248.2 318,-248.2"/>
<text text-anchor="start" x="320" y="-253.3" font-family="Helvetica,sans-Serif" font-size="11.00" fill="#000000">&lt; 2</text>
<polygon fill="#ffffff" stroke="transparent" points="367,-248.2 367,-265.2 407,-265.2 407,-248.2 367,-248.2"/>
<text text-anchor="start" x="383.9431" y="-253.3" font-family="Helvetica,sans-Serif" font-size="11.00" fill="#000000"> &#160;</text>
<polygon fill="#ffffff" stroke="transparent" points="407,-248.2 407,-265.2 446,-265.2 446,-248.2 407,-248.2"/>
<text text-anchor="start" x="437.8862" y="-253.3" font-family="Helvetica,sans-Serif" font-size="11.00" fill="#000000"> &#160;</text>
<polygon fill="#000000" stroke="#000000" points="367,-248.2 367,-265.2 367,-265.2 367,-248.2 367,-248.2"/>
<polygon fill="#000000" stroke="#000000" points="407,-248.2 407,-265.2 407,-265.2 407,-248.2 407,-248.2"/>
</a>
</g>
</g>
<!-- bulk_plan -->
<g id="node2" class="node">
<title>bulk_plan</title>
<g id="a_node2"><a xlink:href="../../tables/bulk_plan.html" xlink:title="bulk_plan" target="_top">
<polygon fill="#ffffff" stroke="transparent" points="84,-303.7 84,-364.7 192,-364.7 192,-303.7 84,-303.7"/>
<polygon fill="#f5f5f5" stroke="transparent" points="84,-341.2 84,-364.2 192,-364.2 192,-341.2 84,-341.2"/>
<polygon fill="none" stroke="#000000" points="84,-341.2 84,-364.2 192,-364.2 192,-341.2 84,-341.2"/>
<text text-anchor="start" x="89" y="-349.8" font-family="Helvetica,sans-Serif" font-weight="bold" font-size="11.00" fill="#000000">bulk_plan</text>
<text text-anchor="start" x="157.5219" y="-349.3" font-family="Helvetica,sans-Serif" font-size="11.00" fill="#000000">[table]</text>
<polygon fill="none" stroke="#000000" points="84,-322.2 84,-341.2 192,-341.2 192,-322.2 84,-322.2"/>
<text text-anchor="start" x="87" y="-328.3" font-family="Helvetica,sans-Serif" font-size="11.00" fill="#000000">...</text>
<polygon fill="#ffffff" stroke="transparent" points="84,-303.2 84,-322.2 192,-322.2 192,-303.2 84,-303.2"/>
<polygon fill="none" stroke="#000000" points="84,-303.2 84,-322.2 192,-322.2 192,-303.2 84,-303.2"/>
<polygon fill="#ffffff" stroke="transparent" points="85,-304.2 85,-321.2 118,-321.2 118,-304.2 85,-304.2"/>
<text text-anchor="start" x="87" y="-309.3" font-family="Helvetica,sans-Serif" font-size="11.00" fill="#000000"> &#160;</text>
<polygon fill="#ffffff" stroke="transparent" points="118,-304.2 118,-321.2 150,-321.2 150,-304.2 118,-304.2"/>
<text text-anchor="start" x="130.9431" y="-309.3" font-family="Helvetica,sans-Serif" font-size="11.00" fill="#000000"> &#160;</text>
<polygon fill="#ffffff" stroke="transparent" points="150,-304.2 150,-321.2 191,-321.2 191,-304.2 150,-304.2"/>
<text text-anchor="start" x="173.4053" y="-309.3" font-family="Helvetica,sans-Serif" font-size="11.00" fill="#000000">1 &gt;</text>
<polygon fill="#000000" stroke="#000000" points="118,-304.2 118,-321.2 118,-321.2 118,-304.2 118,-304.2"/>
<polygon fill="#000000" stroke="#000000" points="150,-304.2 150,-321.2 150,-321.2 150,-304.2 150,-304.2"/>
</a>
</g>
</g>
<!-- plan_person&#45;&gt;bulk_plan -->
<g id="edge1" class="edge">
<title>plan_person:w&#45;&gt;bulk_plan:e</title>
<path fill="none" stroke="#000000" d="M302.6141,-299.9285C257.4214,-304.6917 244.1948,-331.2 192,-331.2"/>
<polygon fill="#000000" stroke="#000000" points="309.0102,-299.6046 317.1821,-302.7954 313.0051,-299.4023 317,-299.2 317,-299.2 317,-299.2 313.0051,-299.4023 316.8179,-295.6046 309.0102,-299.6046 309.0102,-299.6046"/>
<ellipse fill="none" stroke="#000000" cx="305.8143" cy="-299.7665" rx="3.2" ry="3.2"/>
</g>
<!-- person_summary -->
<g id="node3" class="node">
<title>person_summary</title>
<g id="a_node3"><a xlink:href="../../tables/person_summary.html" xlink:title="person_summary" target="_top">
<polygon fill="#ffffff" stroke="transparent" points="8,-38.2 8,-282.2 268,-282.2 268,-38.2 8,-38.2"/>
<polygon fill="#f5f5f5" stroke="transparent" points="10,-257.2 10,-280.2 266,-280.2 266,-257.2 10,-257.2"/>
<polygon fill="none" stroke="#000000" points="10,-257.2 10,-280.2 266,-280.2 266,-257.2 10,-257.2"/>
<text text-anchor="start" x="15" y="-265.8" font-family="Helvetica,sans-Serif" font-weight="bold" font-size="11.00" fill="#000000">person_summary</text>
<text text-anchor="start" x="231.0437" y="-265.3" font-family="Helvetica,sans-Serif" font-size="11.00" fill="#000000">[table]</text>
<polygon fill="none" stroke="#000000" points="10,-235.2 10,-257.2 205,-257.2 205,-235.2 10,-235.2"/>
<image xlink:href="../../images/primaryKeys.png" width="11px" height="12px" preserveAspectRatio="xMinYMin meet" x="15" y="-252.2"/>
<text text-anchor="start" x="30" y="-242.3" font-family="Helvetica,sans-Serif" font-size="11.00" fill="#000000">prison_number</text>
<polygon fill="none" stroke="#000000" points="205,-235.2 205,-257.2 266,-257.2 266,-235.2 205,-235.2"/>
<text text-anchor="start" x="207.994" y="-242.9" font-family="Helvetica,sans-Serif" font-size="11.00" fill="#000000">varchar[10]</text>
<polygon fill="none" stroke="#000000" points="10,-213.2 10,-235.2 205,-235.2 205,-213.2 10,-213.2"/>
<text text-anchor="start" x="30" y="-220.3" font-family="Helvetica,sans-Serif" font-size="11.00" fill="#000000">first_name</text>
<polygon fill="none" stroke="#000000" points="205,-213.2 205,-235.2 266,-235.2 266,-213.2 205,-213.2"/>
<text text-anchor="start" x="207.994" y="-220.9" font-family="Helvetica,sans-Serif" font-size="11.00" fill="#000000">varchar[64]</text>
<polygon fill="none" stroke="#000000" points="10,-191.2 10,-213.2 205,-213.2 205,-191.2 10,-191.2"/>
<text text-anchor="start" x="30" y="-198.3" font-family="Helvetica,sans-Serif" font-size="11.00" fill="#000000">last_name</text>
<polygon fill="none" stroke="#000000" points="205,-191.2 205,-213.2 266,-213.2 266,-191.2 205,-191.2"/>
<text text-anchor="start" x="207.994" y="-198.9" font-family="Helvetica,sans-Serif" font-size="11.00" fill="#000000">varchar[64]</text>
<polygon fill="none" stroke="#000000" points="10,-169.2 10,-191.2 205,-191.2 205,-169.2 10,-169.2"/>
<text text-anchor="start" x="30" y="-176.3" font-family="Helvetica,sans-Serif" font-size="11.00" fill="#000000">status</text>
<polygon fill="none" stroke="#000000" points="205,-169.2 205,-191.2 266,-191.2 266,-169.2 205,-169.2"/>
<text text-anchor="start" x="207.994" y="-176.9" font-family="Helvetica,sans-Serif" font-size="11.00" fill="#000000">varchar[16]</text>
<polygon fill="none" stroke="#000000" points="10,-147.2 10,-169.2 205,-169.2 205,-147.2 10,-147.2"/>
<text text-anchor="start" x="30" y="-154.3" font-family="Helvetica,sans-Serif" font-size="11.00" fill="#000000">restricted_patient</text>
<polygon fill="none" stroke="#000000" points="205,-147.2 205,-169.2 266,-169.2 266,-147.2 205,-147.2"/>
<text text-anchor="start" x="208" y="-154.9" font-family="Helvetica,sans-Serif" font-size="11.00" fill="#000000">bool[1]</text>
<polygon fill="none" stroke="#000000" points="10,-125.2 10,-147.2 205,-147.2 205,-125.2 10,-125.2"/>
<text text-anchor="start" x="30" y="-132.3" font-family="Helvetica,sans-Serif" font-size="11.00" fill="#000000">prison_code</text>
<polygon fill="none" stroke="#000000" points="205,-125.2 205,-147.2 266,-147.2 266,-125.2 205,-125.2"/>
<text text-anchor="start" x="207.994" y="-132.9" font-family="Helvetica,sans-Serif" font-size="11.00" fill="#000000">varchar[16]</text>
<polygon fill="none" stroke="#000000" points="10,-103.2 10,-125.2 205,-125.2 205,-103.2 10,-103.2"/>
<text text-anchor="start" x="30" y="-110.3" font-family="Helvetica,sans-Serif" font-size="11.00" fill="#000000">cell_location</text>
<polygon fill="none" stroke="#000000" points="205,-103.2 205,-125.2 266,-125.2 266,-103.2 205,-103.2"/>
<text text-anchor="start" x="207.994" y="-110.9" font-family="Helvetica,sans-Serif" font-size="11.00" fill="#000000">varchar[64]</text>
<polygon fill="none" stroke="#000000" points="10,-81.2 10,-103.2 205,-103.2 205,-81.2 10,-81.2"/>
<text text-anchor="start" x="30" y="-88.3" font-family="Helvetica,sans-Serif" font-size="11.00" fill="#000000">supporting_prison_code</text>
<polygon fill="none" stroke="#000000" points="205,-81.2 205,-103.2 266,-103.2 266,-81.2 205,-81.2"/>
<text text-anchor="start" x="207.994" y="-88.9" font-family="Helvetica,sans-Serif" font-size="11.00" fill="#000000">varchar[16]</text>
<polygon fill="none" stroke="#000000" points="10,-59.2 10,-81.2 205,-81.2 205,-59.2 10,-59.2"/>
<text text-anchor="start" x="30" y="-66.3" font-family="Helvetica,sans-Serif" font-size="11.00" fill="#000000">version</text>
<polygon fill="none" stroke="#000000" points="205,-59.2 205,-81.2 266,-81.2 266,-59.2 205,-59.2"/>
<text text-anchor="start" x="208" y="-66.9" font-family="Helvetica,sans-Serif" font-size="11.00" fill="#000000">int4[10]</text>
<polygon fill="#ffffff" stroke="transparent" points="10,-40.2 10,-59.2 266,-59.2 266,-40.2 10,-40.2"/>
<polygon fill="none" stroke="#000000" points="10,-40.2 10,-59.2 266,-59.2 266,-40.2 10,-40.2"/>
<polygon fill="#ffffff" stroke="transparent" points="11,-41.2 11,-58.2 99,-58.2 99,-41.2 11,-41.2"/>
<text text-anchor="start" x="13" y="-46.3" font-family="Helvetica,sans-Serif" font-size="11.00" fill="#000000">&lt; 0</text>
<polygon fill="#ffffff" stroke="transparent" points="99,-41.2 99,-58.2 178,-58.2 178,-41.2 99,-41.2"/>
<text text-anchor="start" x="135.4431" y="-46.3" font-family="Helvetica,sans-Serif" font-size="11.00" fill="#000000"> &#160;</text>
<polygon fill="#ffffff" stroke="transparent" points="178,-41.2 178,-58.2 265,-58.2 265,-41.2 178,-41.2"/>
<text text-anchor="start" x="247.4053" y="-46.3" font-family="Helvetica,sans-Serif" font-size="11.00" fill="#000000">1 &gt;</text>
<polygon fill="#000000" stroke="#000000" points="99,-41.2 99,-58.2 99,-58.2 99,-41.2 99,-41.2"/>
<polygon fill="#000000" stroke="#000000" points="178,-41.2 178,-58.2 178,-58.2 178,-41.2 178,-41.2"/>
<polygon fill="none" stroke="#000000" stroke-width="2" points="9,-39.2 9,-281.2 267,-281.2 267,-39.2 9,-39.2"/>
</a>
</g>
</g>
<!-- plan_person&#45;&gt;person_summary -->
<g id="edge2" class="edge">
<title>plan_person:w&#45;&gt;person_summary:e</title>
<path fill="none" stroke="#000000" d="M303.0967,-273.3988C290.0044,-265.1209 286.7231,-246.2 266,-246.2"/>
<polygon fill="#000000" stroke="#000000" points="309.2832,-275.0902 316.0506,-280.6726 313.1416,-276.1451 317,-277.2 317,-277.2 317,-277.2 313.1416,-276.1451 317.9494,-273.7274 309.2832,-275.0902 309.2832,-275.0902"/>
<ellipse fill="none" stroke="#000000" cx="306.1965" cy="-274.2462" rx="3.2" ry="3.2"/>
</g>
</g>
</svg>
