<?xml version="1.0" encoding="UTF-8" standalone="no"?>
<!DOCTYPE svg PUBLIC "-//W3C//DTD SVG 1.1//EN"
 "http://www.w3.org/Graphics/SVG/1.1/DTD/svg11.dtd">
<!-- Generated by graphviz version 2.40.1 (20161225.0304)
 -->
<!-- Title: oneDegreeRelationshipsDiagram Pages: 1 -->
<svg width="463pt" height="314pt"
 viewBox="0.00 0.00 463.00 314.20" xmlns="http://www.w3.org/2000/svg" xmlns:xlink="http://www.w3.org/1999/xlink">
<g id="graph0" class="graph" transform="scale(1 1) rotate(0) translate(4 310.2)">
<title>oneDegreeRelationshipsDiagram</title>
<polygon fill="#ffffff" stroke="transparent" points="-4,4 -4,-310.2 459,-310.2 459,4 -4,4"/>
<text text-anchor="middle" x="72.4936" y="-7.3" font-family="Helvetica,sans-Serif" font-size="11.00" fill="#000000">Generated by SchemaSpy</text>
<!-- plan_person -->
<g id="node1" class="node">
<title>plan_person</title>
<g id="a_node1"><a xlink:href="../../tables/plan_person.html" xlink:title="plan_person" target="_top">
<polygon fill="#ffffff" stroke="transparent" points="317,-216.2 317,-302.2 447,-302.2 447,-216.2 317,-216.2"/>
<polygon fill="#f5f5f5" stroke="transparent" points="317,-279.2 317,-302.2 447,-302.2 447,-279.2 317,-279.2"/>
<polygon fill="none" stroke="#000000" points="317,-279.2 317,-302.2 447,-302.2 447,-279.2 317,-279.2"/>
<text text-anchor="start" x="322" y="-287.8" font-family="Helvetica,sans-Serif" font-weight="bold" font-size="11.00" fill="#000000">plan_person</text>
<text text-anchor="start" x="412.0437" y="-287.3" font-family="Helvetica,sans-Serif" font-size="11.00" fill="#000000">[table]</text>
<polygon fill="none" stroke="#000000" points="317,-257.2 317,-279.2 447,-279.2 447,-257.2 317,-257.2"/>
<image xlink:href="../../images/primaryKeys.png" width="11px" height="12px" preserveAspectRatio="xMinYMin meet" x="322" y="-274.2"/>
<text text-anchor="start" x="337" y="-264.3" font-family="Helvetica,sans-Serif" font-size="11.00" fill="#000000">plan_id</text>
<polygon fill="none" stroke="#000000" points="317,-235.2 317,-257.2 447,-257.2 447,-235.2 317,-235.2"/>
<image xlink:href="../../images/primaryKeys.png" width="11px" height="12px" preserveAspectRatio="xMinYMin meet" x="322" y="-252.2"/>
<text text-anchor="start" x="337" y="-242.3" font-family="Helvetica,sans-Serif" font-size="11.00" fill="#000000">prison_number</text>
<polygon fill="#ffffff" stroke="transparent" points="317,-216.2 317,-235.2 447,-235.2 447,-216.2 317,-216.2"/>
<polygon fill="none" stroke="#000000" points="317,-216.2 317,-235.2 447,-235.2 447,-216.2 317,-216.2"/>
<polygon fill="#ffffff" stroke="transparent" points="318,-217.2 318,-234.2 367,-234.2 367,-217.2 318,-217.2"/>
<text text-anchor="start" x="320" y="-222.3" font-family="Helvetica,sans-Serif" font-size="11.00" fill="#000000">&lt; 2</text>
<polygon fill="#ffffff" stroke="transparent" points="367,-217.2 367,-234.2 407,-234.2 407,-217.2 367,-217.2"/>
<text text-anchor="start" x="383.9431" y="-222.3" font-family="Helvetica,sans-Serif" font-size="11.00" fill="#000000"> &#160;</text>
<polygon fill="#ffffff" stroke="transparent" points="407,-217.2 407,-234.2 446,-234.2 446,-217.2 407,-217.2"/>
<text text-anchor="start" x="437.8862" y="-222.3" font-family="Helvetica,sans-Serif" font-size="11.00" fill="#000000"> &#160;</text>
<polygon fill="#000000" stroke="#000000" points="367,-217.2 367,-234.2 367,-234.2 367,-217.2 367,-217.2"/>
<polygon fill="#000000" stroke="#000000" points="407,-217.2 407,-234.2 407,-234.2 407,-217.2 407,-217.2"/>
</a>
</g>
</g>
<!-- person_summary -->
<g id="node2" class="node">
<title>person_summary</title>
<g id="a_node2"><a xlink:href="../../tables/person_summary.html" xlink:title="person_summary" target="_top">
<polygon fill="#ffffff" stroke="transparent" points="8,-38.2 8,-282.2 268,-282.2 268,-38.2 8,-38.2"/>
<polygon fill="#f5f5f5" stroke="transparent" points="10,-257.2 10,-280.2 266,-280.2 266,-257.2 10,-257.2"/>
<polygon fill="none" stroke="#000000" points="10,-257.2 10,-280.2 266,-280.2 266,-257.2 10,-257.2"/>
<text text-anchor="start" x="15" y="-265.8" font-family="Helvetica,sans-Serif" font-weight="bold" font-size="11.00" fill="#000000">person_summary</text>
<text text-anchor="start" x="231.0437" y="-265.3" font-family="Helvetica,sans-Serif" font-size="11.00" fill="#000000">[table]</text>
<polygon fill="none" stroke="#000000" points="10,-235.2 10,-257.2 205,-257.2 205,-235.2 10,-235.2"/>
<image xlink:href="../../images/primaryKeys.png" width="11px" height="12px" preserveAspectRatio="xMinYMin meet" x="15" y="-252.2"/>
<text text-anchor="start" x="30" y="-242.3" font-family="Helvetica,sans-Serif" font-size="11.00" fill="#000000">prison_number</text>
<polygon fill="none" stroke="#000000" points="205,-235.2 205,-257.2 266,-257.2 266,-235.2 205,-235.2"/>
<text text-anchor="start" x="207.994" y="-242.9" font-family="Helvetica,sans-Serif" font-size="11.00" fill="#000000">varchar[10]</text>
<polygon fill="none" stroke="#000000" points="10,-213.2 10,-235.2 205,-235.2 205,-213.2 10,-213.2"/>
<text text-anchor="start" x="30" y="-220.3" font-family="Helvetica,sans-Serif" font-size="11.00" fill="#000000">first_name</text>
<polygon fill="none" stroke="#000000" points="205,-213.2 205,-235.2 266,-235.2 266,-213.2 205,-213.2"/>
<text text-anchor="start" x="207.994" y="-220.9" font-family="Helvetica,sans-Serif" font-size="11.00" fill="#000000">varchar[64]</text>
<polygon fill="none" stroke="#000000" points="10,-191.2 10,-213.2 205,-213.2 205,-191.2 10,-191.2"/>
<text text-anchor="start" x="30" y="-198.3" font-family="Helvetica,sans-Serif" font-size="11.00" fill="#000000">last_name</text>
<polygon fill="none" stroke="#000000" points="205,-191.2 205,-213.2 266,-213.2 266,-191.2 205,-191.2"/>
<text text-anchor="start" x="207.994" y="-198.9" font-family="Helvetica,sans-Serif" font-size="11.00" fill="#000000">varchar[64]</text>
<polygon fill="none" stroke="#000000" points="10,-169.2 10,-191.2 205,-191.2 205,-169.2 10,-169.2"/>
<text text-anchor="start" x="30" y="-176.3" font-family="Helvetica,sans-Serif" font-size="11.00" fill="#000000">status</text>
<polygon fill="none" stroke="#000000" points="205,-169.2 205,-191.2 266,-191.2 266,-169.2 205,-169.2"/>
<text text-anchor="start" x="207.994" y="-176.9" font-family="Helvetica,sans-Serif" font-size="11.00" fill="#000000">varchar[16]</text>
<polygon fill="none" stroke="#000000" points="10,-147.2 10,-169.2 205,-169.2 205,-147.2 10,-147.2"/>
<text text-anchor="start" x="30" y="-154.3" font-family="Helvetica,sans-Serif" font-size="11.00" fill="#000000">restricted_patient</text>
<polygon fill="none" stroke="#000000" points="205,-147.2 205,-169.2 266,-169.2 266,-147.2 205,-147.2"/>
<text text-anchor="start" x="208" y="-154.9" font-family="Helvetica,sans-Serif" font-size="11.00" fill="#000000">bool[1]</text>
<polygon fill="none" stroke="#000000" points="10,-125.2 10,-147.2 205,-147.2 205,-125.2 10,-125.2"/>
<text text-anchor="start" x="30" y="-132.3" font-family="Helvetica,sans-Serif" font-size="11.00" fill="#000000">prison_code</text>
<polygon fill="none" stroke="#000000" points="205,-125.2 205,-147.2 266,-147.2 266,-125.2 205,-125.2"/>
<text text-anchor="start" x="207.994" y="-132.9" font-family="Helvetica,sans-Serif" font-size="11.00" fill="#000000">varchar[16]</text>
<polygon fill="none" stroke="#000000" points="10,-103.2 10,-125.2 205,-125.2 205,-103.2 10,-103.2"/>
<text text-anchor="start" x="30" y="-110.3" font-family="Helvetica,sans-Serif" font-size="11.00" fill="#000000">cell_location</text>
<polygon fill="none" stroke="#000000" points="205,-103.2 205,-125.2 266,-125.2 266,-103.2 205,-103.2"/>
<text text-anchor="start" x="207.994" y="-110.9" font-family="Helvetica,sans-Serif" font-size="11.00" fill="#000000">varchar[64]</text>
<polygon fill="none" stroke="#000000" points="10,-81.2 10,-103.2 205,-103.2 205,-81.2 10,-81.2"/>
<text text-anchor="start" x="30" y="-88.3" font-family="Helvetica,sans-Serif" font-size="11.00" fill="#000000">supporting_prison_code</text>
<polygon fill="none" stroke="#000000" points="205,-81.2 205,-103.2 266,-103.2 266,-81.2 205,-81.2"/>
<text text-anchor="start" x="207.994" y="-88.9" font-family="Helvetica,sans-Serif" font-size="11.00" fill="#000000">varchar[16]</text>
<polygon fill="none" stroke="#000000" points="10,-59.2 10,-81.2 205,-81.2 205,-59.2 10,-59.2"/>
<text text-anchor="start" x="30" y="-66.3" font-family="Helvetica,sans-Serif" font-size="11.00" fill="#000000">version</text>
<polygon fill="none" stroke="#000000" points="205,-59.2 205,-81.2 266,-81.2 266,-59.2 205,-59.2"/>
<text text-anchor="start" x="208" y="-66.9" font-family="Helvetica,sans-Serif" font-size="11.00" fill="#000000">int4[10]</text>
<polygon fill="#ffffff" stroke="transparent" points="10,-40.2 10,-59.2 266,-59.2 266,-40.2 10,-40.2"/>
<polygon fill="none" stroke="#000000" points="10,-40.2 10,-59.2 266,-59.2 266,-40.2 10,-40.2"/>
<polygon fill="#ffffff" stroke="transparent" points="11,-41.2 11,-58.2 99,-58.2 99,-41.2 11,-41.2"/>
<text text-anchor="start" x="13" y="-46.3" font-family="Helvetica,sans-Serif" font-size="11.00" fill="#000000">&lt; 0</text>
<polygon fill="#ffffff" stroke="transparent" points="99,-41.2 99,-58.2 178,-58.2 178,-41.2 99,-41.2"/>
<text text-anchor="start" x="135.4431" y="-46.3" font-family="Helvetica,sans-Serif" font-size="11.00" fill="#000000"> &#160;</text>
<polygon fill="#ffffff" stroke="transparent" points="178,-41.2 178,-58.2 265,-58.2 265,-41.2 178,-41.2"/>
<text text-anchor="start" x="247.4053" y="-46.3" font-family="Helvetica,sans-Serif" font-size="11.00" fill="#000000">1 &gt;</text>
<polygon fill="#000000" stroke="#000000" points="99,-41.2 99,-58.2 99,-58.2 99,-41.2 99,-41.2"/>
<polygon fill="#000000" stroke="#000000" points="178,-41.2 178,-58.2 178,-58.2 178,-41.2 178,-41.2"/>
<polygon fill="none" stroke="#000000" stroke-width="2" points="9,-39.2 9,-281.2 267,-281.2 267,-39.2 9,-39.2"/>
</a>
</g>
</g>
<!-- plan_person&#45;&gt;person_summary -->
<g id="edge1" class="edge">
<title>plan_person:w&#45;&gt;person_summary:e</title>
<path fill="none" stroke="#000000" d="M302.276,-246.2C290.2815,-246.2 282.8229,-246.2 266,-246.2"/>
<polygon fill="#000000" stroke="#000000" points="309,-246.2001 317,-249.8 313,-246.2 317,-246.2 317,-246.2 317,-246.2 313,-246.2 317,-242.6 309,-246.2001 309,-246.2001"/>
<ellipse fill="none" stroke="#000000" cx="305.8" cy="-246.2001" rx="3.2" ry="3.2"/>
</g>
</g>
</svg>
