<?xml version="1.0" encoding="UTF-8" standalone="no"?>
<!DOCTYPE svg PUBLIC "-//W3C//DTD SVG 1.1//EN"
 "http://www.w3.org/Graphics/SVG/1.1/DTD/svg11.dtd">
<!-- Generated by graphviz version 2.40.1 (20161225.0304)
 -->
<!-- Title: twoDegreesRelationshipsDiagram Pages: 1 -->
<svg width="440pt" height="377pt"
 viewBox="0.00 0.00 440.00 376.70" xmlns="http://www.w3.org/2000/svg" xmlns:xlink="http://www.w3.org/1999/xlink">
<g id="graph0" class="graph" transform="scale(1 1) rotate(0) translate(4 372.7)">
<title>twoDegreesRelationshipsDiagram</title>
<polygon fill="#ffffff" stroke="transparent" points="-4,4 -4,-372.7 436,-372.7 436,4 -4,4"/>
<text text-anchor="middle" x="72.4936" y="-7.3" font-family="Helvetica,sans-Serif" font-size="11.00" fill="#000000">Generated by SchemaSpy</text>
<!-- plan_person -->
<g id="node1" class="node">
<title>plan_person</title>
<g id="a_node1"><a xlink:href="../../tables/plan_person.html" xlink:title="plan_person" target="_top">
<polygon fill="#ffffff" stroke="transparent" points="303,-247.2 303,-333.2 424,-333.2 424,-247.2 303,-247.2"/>
<polygon fill="#f5f5f5" stroke="transparent" points="303.5,-310.2 303.5,-333.2 424.5,-333.2 424.5,-310.2 303.5,-310.2"/>
<polygon fill="none" stroke="#000000" points="303.5,-310.2 303.5,-333.2 424.5,-333.2 424.5,-310.2 303.5,-310.2"/>
<text text-anchor="start" x="308.5" y="-318.8" font-family="Helvetica,sans-Serif" font-weight="bold" font-size="11.00" fill="#000000">plan_person</text>
<text text-anchor="start" x="390.0219" y="-318.3" font-family="Helvetica,sans-Serif" font-size="11.00" fill="#000000">[table]</text>
<polygon fill="none" stroke="#000000" points="303.5,-288.2 303.5,-310.2 424.5,-310.2 424.5,-288.2 303.5,-288.2"/>
<image xlink:href="../../images/foreignKeys.png" width="11px" height="12px" preserveAspectRatio="xMinYMin meet" x="308.5" y="-305.2"/>
<text text-anchor="start" x="323.5" y="-295.3" font-family="Helvetica,sans-Serif" font-size="11.00" fill="#000000">plan_id</text>
<polygon fill="none" stroke="#000000" points="303.5,-266.2 303.5,-288.2 424.5,-288.2 424.5,-266.2 303.5,-266.2"/>
<image xlink:href="../../images/foreignKeys.png" width="11px" height="12px" preserveAspectRatio="xMinYMin meet" x="308.5" y="-283.2"/>
<text text-anchor="start" x="323.5" y="-273.3" font-family="Helvetica,sans-Serif" font-size="11.00" fill="#000000">prison_number</text>
<polygon fill="#ffffff" stroke="transparent" points="303.5,-247.2 303.5,-266.2 362.5,-266.2 362.5,-247.2 303.5,-247.2"/>
<polygon fill="none" stroke="#000000" points="303.5,-247.2 303.5,-266.2 362.5,-266.2 362.5,-247.2 303.5,-247.2"/>
<text text-anchor="start" x="306.5" y="-253.3" font-family="Helvetica,sans-Serif" font-size="11.00" fill="#000000">&lt; 2</text>
<polygon fill="#ffffff" stroke="transparent" points="362.5,-247.2 362.5,-266.2 393.5,-266.2 393.5,-247.2 362.5,-247.2"/>
<polygon fill="none" stroke="#000000" points="362.5,-247.2 362.5,-266.2 393.5,-266.2 393.5,-247.2 362.5,-247.2"/>
<text text-anchor="start" x="384.3862" y="-253.3" font-family="Helvetica,sans-Serif" font-size="11.00" fill="#000000"> &#160;</text>
<polygon fill="#ffffff" stroke="transparent" points="393.5,-247.2 393.5,-266.2 424.5,-266.2 424.5,-247.2 393.5,-247.2"/>
<polygon fill="none" stroke="#000000" points="393.5,-247.2 393.5,-266.2 424.5,-266.2 424.5,-247.2 393.5,-247.2"/>
<text text-anchor="start" x="415.3862" y="-253.3" font-family="Helvetica,sans-Serif" font-size="11.00" fill="#000000"> &#160;</text>
</a>
</g>
</g>
<!-- bulk_plan -->
<g id="node2" class="node">
<title>bulk_plan</title>
<g id="a_node2"><a xlink:href="../../tables/bulk_plan.html" xlink:title="bulk_plan" target="_top">
<polygon fill="#ffffff" stroke="transparent" points="79.5,-303.7 79.5,-364.7 182.5,-364.7 182.5,-303.7 79.5,-303.7"/>
<polygon fill="#f5f5f5" stroke="transparent" points="80,-341.2 80,-364.2 183,-364.2 183,-341.2 80,-341.2"/>
<polygon fill="none" stroke="#000000" points="80,-341.2 80,-364.2 183,-364.2 183,-341.2 80,-341.2"/>
<text text-anchor="start" x="85" y="-349.8" font-family="Helvetica,sans-Serif" font-weight="bold" font-size="11.00" fill="#000000">bulk_plan</text>
<text text-anchor="start" x="148.5219" y="-349.3" font-family="Helvetica,sans-Serif" font-size="11.00" fill="#000000">[table]</text>
<polygon fill="none" stroke="#000000" points="80,-322.2 80,-341.2 183,-341.2 183,-322.2 80,-322.2"/>
<text text-anchor="start" x="83" y="-328.3" font-family="Helvetica,sans-Serif" font-size="11.00" fill="#000000">...</text>
<polygon fill="#ffffff" stroke="transparent" points="80,-303.2 80,-322.2 121,-322.2 121,-303.2 80,-303.2"/>
<polygon fill="none" stroke="#000000" points="80,-303.2 80,-322.2 121,-322.2 121,-303.2 80,-303.2"/>
<text text-anchor="start" x="83" y="-309.3" font-family="Helvetica,sans-Serif" font-size="11.00" fill="#000000"> &#160;</text>
<polygon fill="#ffffff" stroke="transparent" points="121,-303.2 121,-322.2 147,-322.2 147,-303.2 121,-303.2"/>
<polygon fill="none" stroke="#000000" points="121,-303.2 121,-322.2 147,-322.2 147,-303.2 121,-303.2"/>
<text text-anchor="start" x="137.8862" y="-309.3" font-family="Helvetica,sans-Serif" font-size="11.00" fill="#000000"> &#160;</text>
<polygon fill="#ffffff" stroke="transparent" points="147,-303.2 147,-322.2 183,-322.2 183,-303.2 147,-303.2"/>
<polygon fill="none" stroke="#000000" points="147,-303.2 147,-322.2 183,-322.2 183,-303.2 147,-303.2"/>
<text text-anchor="start" x="164.4053" y="-309.3" font-family="Helvetica,sans-Serif" font-size="11.00" fill="#000000">1 &gt;</text>
</a>
</g>
</g>
<!-- plan_person&#45;&gt;bulk_plan -->
<g id="edge1" class="edge">
<title>plan_person:w&#45;&gt;bulk_plan:e</title>
<path fill="none" stroke="#000000" d="M289.046,-299.991C245.8719,-304.9188 233.217,-331.2 183,-331.2"/>
<polygon fill="#000000" stroke="#000000" points="295.512,-299.6372 303.6967,-302.7946 299.506,-299.4186 303.5,-299.2 303.5,-299.2 303.5,-299.2 299.506,-299.4186 303.3033,-295.6054 295.512,-299.6372 295.512,-299.6372"/>
<ellipse fill="none" stroke="#000000" cx="292.3167" cy="-299.8121" rx="3.2" ry="3.2"/>
</g>
<!-- person_summary -->
<g id="node3" class="node">
<title>person_summary</title>
<g id="a_node3"><a xlink:href="../../tables/person_summary.html" xlink:title="person_summary" target="_top">
<polygon fill="#ffffff" stroke="transparent" points="8,-38.2 8,-282.2 254,-282.2 254,-38.2 8,-38.2"/>
<polygon fill="#f5f5f5" stroke="transparent" points="10,-257.2 10,-280.2 252,-280.2 252,-257.2 10,-257.2"/>
<polygon fill="none" stroke="#000000" points="10,-257.2 10,-280.2 252,-280.2 252,-257.2 10,-257.2"/>
<text text-anchor="start" x="15" y="-265.8" font-family="Helvetica,sans-Serif" font-weight="bold" font-size="11.00" fill="#000000">person_summary</text>
<text text-anchor="start" x="217.0437" y="-265.3" font-family="Helvetica,sans-Serif" font-size="11.00" fill="#000000">[table]</text>
<polygon fill="none" stroke="#000000" points="10,-235.2 10,-257.2 191,-257.2 191,-235.2 10,-235.2"/>
<image xlink:href="../../images/primaryKeys.png" width="11px" height="12px" preserveAspectRatio="xMinYMin meet" x="15" y="-252.2"/>
<text text-anchor="start" x="30" y="-242.3" font-family="Helvetica,sans-Serif" font-size="11.00" fill="#000000">prison_number</text>
<polygon fill="none" stroke="#000000" points="191,-235.2 191,-257.2 252,-257.2 252,-235.2 191,-235.2"/>
<text text-anchor="start" x="193.994" y="-242.9" font-family="Helvetica,sans-Serif" font-size="11.00" fill="#000000">varchar[10]</text>
<polygon fill="none" stroke="#000000" points="10,-213.2 10,-235.2 191,-235.2 191,-213.2 10,-213.2"/>
<text text-anchor="start" x="30" y="-220.3" font-family="Helvetica,sans-Serif" font-size="11.00" fill="#000000">first_name</text>
<polygon fill="none" stroke="#000000" points="191,-213.2 191,-235.2 252,-235.2 252,-213.2 191,-213.2"/>
<text text-anchor="start" x="193.994" y="-220.9" font-family="Helvetica,sans-Serif" font-size="11.00" fill="#000000">varchar[64]</text>
<polygon fill="none" stroke="#000000" points="10,-191.2 10,-213.2 191,-213.2 191,-191.2 10,-191.2"/>
<text text-anchor="start" x="30" y="-198.3" font-family="Helvetica,sans-Serif" font-size="11.00" fill="#000000">last_name</text>
<polygon fill="none" stroke="#000000" points="191,-191.2 191,-213.2 252,-213.2 252,-191.2 191,-191.2"/>
<text text-anchor="start" x="193.994" y="-198.9" font-family="Helvetica,sans-Serif" font-size="11.00" fill="#000000">varchar[64]</text>
<polygon fill="none" stroke="#000000" points="10,-169.2 10,-191.2 191,-191.2 191,-169.2 10,-169.2"/>
<text text-anchor="start" x="30" y="-176.3" font-family="Helvetica,sans-Serif" font-size="11.00" fill="#000000">status</text>
<polygon fill="none" stroke="#000000" points="191,-169.2 191,-191.2 252,-191.2 252,-169.2 191,-169.2"/>
<text text-anchor="start" x="193.994" y="-176.9" font-family="Helvetica,sans-Serif" font-size="11.00" fill="#000000">varchar[16]</text>
<polygon fill="none" stroke="#000000" points="10,-147.2 10,-169.2 191,-169.2 191,-147.2 10,-147.2"/>
<text text-anchor="start" x="30" y="-154.3" font-family="Helvetica,sans-Serif" font-size="11.00" fill="#000000">restricted_patient</text>
<polygon fill="none" stroke="#000000" points="191,-147.2 191,-169.2 252,-169.2 252,-147.2 191,-147.2"/>
<text text-anchor="start" x="194" y="-154.9" font-family="Helvetica,sans-Serif" font-size="11.00" fill="#000000">bool[1]</text>
<polygon fill="none" stroke="#000000" points="10,-125.2 10,-147.2 191,-147.2 191,-125.2 10,-125.2"/>
<text text-anchor="start" x="30" y="-132.3" font-family="Helvetica,sans-Serif" font-size="11.00" fill="#000000">prison_code</text>
<polygon fill="none" stroke="#000000" points="191,-125.2 191,-147.2 252,-147.2 252,-125.2 191,-125.2"/>
<text text-anchor="start" x="193.994" y="-132.9" font-family="Helvetica,sans-Serif" font-size="11.00" fill="#000000">varchar[16]</text>
<polygon fill="none" stroke="#000000" points="10,-103.2 10,-125.2 191,-125.2 191,-103.2 10,-103.2"/>
<text text-anchor="start" x="30" y="-110.3" font-family="Helvetica,sans-Serif" font-size="11.00" fill="#000000">cell_location</text>
<polygon fill="none" stroke="#000000" points="191,-103.2 191,-125.2 252,-125.2 252,-103.2 191,-103.2"/>
<text text-anchor="start" x="193.994" y="-110.9" font-family="Helvetica,sans-Serif" font-size="11.00" fill="#000000">varchar[64]</text>
<polygon fill="none" stroke="#000000" points="10,-81.2 10,-103.2 191,-103.2 191,-81.2 10,-81.2"/>
<text text-anchor="start" x="30" y="-88.3" font-family="Helvetica,sans-Serif" font-size="11.00" fill="#000000">supporting_prison_code</text>
<polygon fill="none" stroke="#000000" points="191,-81.2 191,-103.2 252,-103.2 252,-81.2 191,-81.2"/>
<text text-anchor="start" x="193.994" y="-88.9" font-family="Helvetica,sans-Serif" font-size="11.00" fill="#000000">varchar[16]</text>
<polygon fill="none" stroke="#000000" points="10,-59.2 10,-81.2 191,-81.2 191,-59.2 10,-59.2"/>
<text text-anchor="start" x="30" y="-66.3" font-family="Helvetica,sans-Serif" font-size="11.00" fill="#000000">version</text>
<polygon fill="none" stroke="#000000" points="191,-59.2 191,-81.2 252,-81.2 252,-59.2 191,-59.2"/>
<text text-anchor="start" x="194" y="-66.9" font-family="Helvetica,sans-Serif" font-size="11.00" fill="#000000">int4[10]</text>
<polygon fill="#ffffff" stroke="transparent" points="10,-40.2 10,-59.2 105,-59.2 105,-40.2 10,-40.2"/>
<polygon fill="none" stroke="#000000" points="10,-40.2 10,-59.2 105,-59.2 105,-40.2 10,-40.2"/>
<text text-anchor="start" x="13" y="-46.3" font-family="Helvetica,sans-Serif" font-size="11.00" fill="#000000">&lt; 0</text>
<polygon fill="#ffffff" stroke="transparent" points="105,-40.2 105,-59.2 191,-59.2 191,-40.2 105,-40.2"/>
<polygon fill="none" stroke="#000000" points="105,-40.2 105,-59.2 191,-59.2 191,-40.2 105,-40.2"/>
<text text-anchor="start" x="181.8862" y="-46.3" font-family="Helvetica,sans-Serif" font-size="11.00" fill="#000000"> &#160;</text>
<polygon fill="#ffffff" stroke="transparent" points="191,-40.2 191,-59.2 252,-59.2 252,-40.2 191,-40.2"/>
<polygon fill="none" stroke="#000000" points="191,-40.2 191,-59.2 252,-59.2 252,-40.2 191,-40.2"/>
<text text-anchor="start" x="233.4053" y="-46.3" font-family="Helvetica,sans-Serif" font-size="11.00" fill="#000000">1 &gt;</text>
<polygon fill="none" stroke="#000000" stroke-width="2" points="9,-39.2 9,-281.2 253,-281.2 253,-39.2 9,-39.2"/>
</a>
</g>
</g>
<!-- plan_person&#45;&gt;person_summary -->
<g id="edge2" class="edge">
<title>plan_person:w&#45;&gt;person_summary:e</title>
<path fill="none" stroke="#000000" d="M289.4805,-273.3988C276.2585,-265.1209 272.8716,-246.2 252,-246.2"/>
<polygon fill="#000000" stroke="#000000" points="295.7788,-275.1064 302.5579,-280.6745 299.6394,-276.1532 303.5,-277.2 303.5,-277.2 303.5,-277.2 299.6394,-276.1532 304.4421,-273.7255 295.7788,-275.1064 295.7788,-275.1064"/>
<ellipse fill="none" stroke="#000000" cx="292.6903" cy="-274.269" rx="3.2" ry="3.2"/>
</g>
</g>
</svg>
