<?xml version="1.0" encoding="UTF-8" standalone="no"?>
<!DOCTYPE svg PUBLIC "-//W3C//DTD SVG 1.1//EN"
 "http://www.w3.org/Graphics/SVG/1.1/DTD/svg11.dtd">
<!-- Generated by graphviz version 2.40.1 (20161225.0304)
 -->
<!-- Title: oneDegreeRelationshipsDiagramImplied Pages: 1 -->
<svg width="558pt" height="573pt"
 viewBox="0.00 0.00 558.00 572.70" xmlns="http://www.w3.org/2000/svg" xmlns:xlink="http://www.w3.org/1999/xlink">
<g id="graph0" class="graph" transform="scale(1 1) rotate(0) translate(4 568.7)">
<title>oneDegreeRelationshipsDiagramImplied</title>
<polygon fill="#ffffff" stroke="transparent" points="-4,4 -4,-568.7 554,-568.7 554,4 -4,4"/>
<text text-anchor="middle" x="72.4936" y="-7.3" font-family="Helvetica,sans-Serif" font-size="11.00" fill="#000000">Generated by SchemaSpy</text>
<!-- alert -->
<g id="node1" class="node">
<title>alert</title>
<g id="a_node1"><a xlink:href="../../tables/alert.html" xlink:title="alert" target="_top">
<polygon fill="#ffffff" stroke="transparent" points="321.5,-323.7 321.5,-560.7 537.5,-560.7 537.5,-323.7 321.5,-323.7"/>
<polygon fill="#f5f5f5" stroke="transparent" points="321.5,-537.2 321.5,-560.2 537.5,-560.2 537.5,-537.2 321.5,-537.2"/>
<polygon fill="none" stroke="#000000" points="321.5,-537.2 321.5,-560.2 537.5,-560.2 537.5,-537.2 321.5,-537.2"/>
<text text-anchor="start" x="326.5" y="-545.8" font-family="Helvetica,sans-Serif" font-weight="bold" font-size="11.00" fill="#000000">alert</text>
<text text-anchor="start" x="502.5437" y="-545.3" font-family="Helvetica,sans-Serif" font-size="11.00" fill="#000000">[table]</text>
<polygon fill="none" stroke="#000000" points="321.5,-515.2 321.5,-537.2 537.5,-537.2 537.5,-515.2 321.5,-515.2"/>
<image xlink:href="../../images/primaryKeys.png" width="11px" height="12px" preserveAspectRatio="xMinYMin meet" x="326.5" y="-532.2"/>
<text text-anchor="start" x="341.5" y="-522.3" font-family="Helvetica,sans-Serif" font-size="11.00" fill="#000000">id</text>
<polygon fill="#ffffff" stroke="transparent" points="321.5,-493.2 321.5,-515.2 537.5,-515.2 537.5,-493.2 321.5,-493.2"/>
<polygon fill="none" stroke="#000000" points="321.5,-493.2 321.5,-515.2 537.5,-515.2 537.5,-493.2 321.5,-493.2"/>
<image xlink:href="../../images/foreignKeys.png" width="11px" height="12px" preserveAspectRatio="xMinYMin meet" x="326.5" y="-510.2"/>
<text text-anchor="start" x="341.5" y="-500.3" font-family="Helvetica,sans-Serif" font-size="11.00" fill="#000000">alert_code_id</text>
<polygon fill="#ffffff" stroke="transparent" points="321.5,-471.2 321.5,-493.2 537.5,-493.2 537.5,-471.2 321.5,-471.2"/>
<polygon fill="none" stroke="#000000" points="321.5,-471.2 321.5,-493.2 537.5,-493.2 537.5,-471.2 321.5,-471.2"/>
<image xlink:href="../../images/foreignKeys.png" width="11px" height="12px" preserveAspectRatio="xMinYMin meet" x="326.5" y="-488.2"/>
<text text-anchor="start" x="341.5" y="-478.3" font-family="Helvetica,sans-Serif" font-size="11.00" fill="#000000">prison_number</text>
<polygon fill="#ffffff" stroke="transparent" points="321.5,-449.2 321.5,-471.2 537.5,-471.2 537.5,-449.2 321.5,-449.2"/>
<polygon fill="none" stroke="#000000" points="321.5,-449.2 321.5,-471.2 537.5,-471.2 537.5,-449.2 321.5,-449.2"/>
<text text-anchor="start" x="341.5" y="-456.3" font-family="Helvetica,sans-Serif" font-size="11.00" fill="#000000">active_from</text>
<polygon fill="#ffffff" stroke="transparent" points="321.5,-427.2 321.5,-449.2 537.5,-449.2 537.5,-427.2 321.5,-427.2"/>
<polygon fill="none" stroke="#000000" points="321.5,-427.2 321.5,-449.2 537.5,-449.2 537.5,-427.2 321.5,-427.2"/>
<text text-anchor="start" x="341.5" y="-434.3" font-family="Helvetica,sans-Serif" font-size="11.00" fill="#000000">active_to</text>
<polygon fill="#ffffff" stroke="transparent" points="321.5,-405.2 321.5,-427.2 537.5,-427.2 537.5,-405.2 321.5,-405.2"/>
<polygon fill="none" stroke="#000000" points="321.5,-405.2 321.5,-427.2 537.5,-427.2 537.5,-405.2 321.5,-405.2"/>
<text text-anchor="start" x="341.5" y="-412.3" font-family="Helvetica,sans-Serif" font-size="11.00" fill="#000000">deleted_at</text>
<polygon fill="#ffffff" stroke="transparent" points="321.5,-383.2 321.5,-405.2 537.5,-405.2 537.5,-383.2 321.5,-383.2"/>
<polygon fill="none" stroke="#000000" points="321.5,-383.2 321.5,-405.2 537.5,-405.2 537.5,-383.2 321.5,-383.2"/>
<text text-anchor="start" x="341.5" y="-390.3" font-family="Helvetica,sans-Serif" font-size="11.00" fill="#000000">created_at</text>
<polygon fill="#ffffff" stroke="transparent" points="321.5,-361.2 321.5,-383.2 537.5,-383.2 537.5,-361.2 321.5,-361.2"/>
<polygon fill="none" stroke="#000000" points="321.5,-361.2 321.5,-383.2 537.5,-383.2 537.5,-361.2 321.5,-361.2"/>
<text text-anchor="start" x="341.5" y="-368.3" font-family="Helvetica,sans-Serif" font-size="11.00" fill="#000000">last_modified_at</text>
<polygon fill="none" stroke="#000000" points="321.5,-342.2 321.5,-361.2 537.5,-361.2 537.5,-342.2 321.5,-342.2"/>
<text text-anchor="start" x="324.5" y="-348.3" font-family="Helvetica,sans-Serif" font-size="11.00" fill="#000000">...</text>
<polygon fill="#ffffff" stroke="transparent" points="321.5,-323.2 321.5,-342.2 537.5,-342.2 537.5,-323.2 321.5,-323.2"/>
<polygon fill="none" stroke="#000000" points="321.5,-323.2 321.5,-342.2 537.5,-342.2 537.5,-323.2 321.5,-323.2"/>
<polygon fill="#ffffff" stroke="transparent" points="322.5,-324.2 322.5,-341.2 397.5,-341.2 397.5,-324.2 322.5,-324.2"/>
<text text-anchor="start" x="324.5" y="-329.3" font-family="Helvetica,sans-Serif" font-size="11.00" fill="#000000">&lt; 2</text>
<polygon fill="#ffffff" stroke="transparent" points="397.5,-324.2 397.5,-341.2 462.5,-341.2 462.5,-324.2 397.5,-324.2"/>
<text text-anchor="start" x="426.9431" y="-329.3" font-family="Helvetica,sans-Serif" font-size="11.00" fill="#000000"> &#160;</text>
<polygon fill="#ffffff" stroke="transparent" points="462.5,-324.2 462.5,-341.2 536.5,-341.2 536.5,-324.2 462.5,-324.2"/>
<text text-anchor="start" x="518.9053" y="-329.3" font-family="Helvetica,sans-Serif" font-size="11.00" fill="#000000">1 &gt;</text>
<polygon fill="#000000" stroke="#000000" points="397.5,-324.2 397.5,-341.2 397.5,-341.2 397.5,-324.2 397.5,-324.2"/>
<polygon fill="#000000" stroke="#000000" points="462.5,-324.2 462.5,-341.2 462.5,-341.2 462.5,-324.2 462.5,-324.2"/>
</a>
</g>
</g>
<!-- person_summary -->
<g id="node2" class="node">
<title>person_summary</title>
<g id="a_node2"><a xlink:href="../../tables/person_summary.html" xlink:title="person_summary" target="_top">
<polygon fill="#ffffff" stroke="transparent" points="8,-38.2 8,-282.2 268,-282.2 268,-38.2 8,-38.2"/>
<polygon fill="#f5f5f5" stroke="transparent" points="10,-257.2 10,-280.2 266,-280.2 266,-257.2 10,-257.2"/>
<polygon fill="none" stroke="#000000" points="10,-257.2 10,-280.2 266,-280.2 266,-257.2 10,-257.2"/>
<text text-anchor="start" x="15" y="-265.8" font-family="Helvetica,sans-Serif" font-weight="bold" font-size="11.00" fill="#000000">person_summary</text>
<text text-anchor="start" x="231.0437" y="-265.3" font-family="Helvetica,sans-Serif" font-size="11.00" fill="#000000">[table]</text>
<polygon fill="none" stroke="#000000" points="10,-235.2 10,-257.2 205,-257.2 205,-235.2 10,-235.2"/>
<image xlink:href="../../images/primaryKeys.png" width="11px" height="12px" preserveAspectRatio="xMinYMin meet" x="15" y="-252.2"/>
<text text-anchor="start" x="30" y="-242.3" font-family="Helvetica,sans-Serif" font-size="11.00" fill="#000000">prison_number</text>
<polygon fill="none" stroke="#000000" points="205,-235.2 205,-257.2 266,-257.2 266,-235.2 205,-235.2"/>
<text text-anchor="start" x="207.994" y="-242.9" font-family="Helvetica,sans-Serif" font-size="11.00" fill="#000000">varchar[10]</text>
<polygon fill="none" stroke="#000000" points="10,-213.2 10,-235.2 205,-235.2 205,-213.2 10,-213.2"/>
<text text-anchor="start" x="30" y="-220.3" font-family="Helvetica,sans-Serif" font-size="11.00" fill="#000000">first_name</text>
<polygon fill="none" stroke="#000000" points="205,-213.2 205,-235.2 266,-235.2 266,-213.2 205,-213.2"/>
<text text-anchor="start" x="207.994" y="-220.9" font-family="Helvetica,sans-Serif" font-size="11.00" fill="#000000">varchar[64]</text>
<polygon fill="none" stroke="#000000" points="10,-191.2 10,-213.2 205,-213.2 205,-191.2 10,-191.2"/>
<text text-anchor="start" x="30" y="-198.3" font-family="Helvetica,sans-Serif" font-size="11.00" fill="#000000">last_name</text>
<polygon fill="none" stroke="#000000" points="205,-191.2 205,-213.2 266,-213.2 266,-191.2 205,-191.2"/>
<text text-anchor="start" x="207.994" y="-198.9" font-family="Helvetica,sans-Serif" font-size="11.00" fill="#000000">varchar[64]</text>
<polygon fill="none" stroke="#000000" points="10,-169.2 10,-191.2 205,-191.2 205,-169.2 10,-169.2"/>
<text text-anchor="start" x="30" y="-176.3" font-family="Helvetica,sans-Serif" font-size="11.00" fill="#000000">status</text>
<polygon fill="none" stroke="#000000" points="205,-169.2 205,-191.2 266,-191.2 266,-169.2 205,-169.2"/>
<text text-anchor="start" x="207.994" y="-176.9" font-family="Helvetica,sans-Serif" font-size="11.00" fill="#000000">varchar[16]</text>
<polygon fill="none" stroke="#000000" points="10,-147.2 10,-169.2 205,-169.2 205,-147.2 10,-147.2"/>
<text text-anchor="start" x="30" y="-154.3" font-family="Helvetica,sans-Serif" font-size="11.00" fill="#000000">restricted_patient</text>
<polygon fill="none" stroke="#000000" points="205,-147.2 205,-169.2 266,-169.2 266,-147.2 205,-147.2"/>
<text text-anchor="start" x="208" y="-154.9" font-family="Helvetica,sans-Serif" font-size="11.00" fill="#000000">bool[1]</text>
<polygon fill="none" stroke="#000000" points="10,-125.2 10,-147.2 205,-147.2 205,-125.2 10,-125.2"/>
<text text-anchor="start" x="30" y="-132.3" font-family="Helvetica,sans-Serif" font-size="11.00" fill="#000000">prison_code</text>
<polygon fill="none" stroke="#000000" points="205,-125.2 205,-147.2 266,-147.2 266,-125.2 205,-125.2"/>
<text text-anchor="start" x="207.994" y="-132.9" font-family="Helvetica,sans-Serif" font-size="11.00" fill="#000000">varchar[16]</text>
<polygon fill="none" stroke="#000000" points="10,-103.2 10,-125.2 205,-125.2 205,-103.2 10,-103.2"/>
<text text-anchor="start" x="30" y="-110.3" font-family="Helvetica,sans-Serif" font-size="11.00" fill="#000000">cell_location</text>
<polygon fill="none" stroke="#000000" points="205,-103.2 205,-125.2 266,-125.2 266,-103.2 205,-103.2"/>
<text text-anchor="start" x="207.994" y="-110.9" font-family="Helvetica,sans-Serif" font-size="11.00" fill="#000000">varchar[64]</text>
<polygon fill="none" stroke="#000000" points="10,-81.2 10,-103.2 205,-103.2 205,-81.2 10,-81.2"/>
<text text-anchor="start" x="30" y="-88.3" font-family="Helvetica,sans-Serif" font-size="11.00" fill="#000000">supporting_prison_code</text>
<polygon fill="none" stroke="#000000" points="205,-81.2 205,-103.2 266,-103.2 266,-81.2 205,-81.2"/>
<text text-anchor="start" x="207.994" y="-88.9" font-family="Helvetica,sans-Serif" font-size="11.00" fill="#000000">varchar[16]</text>
<polygon fill="none" stroke="#000000" points="10,-59.2 10,-81.2 205,-81.2 205,-59.2 10,-59.2"/>
<text text-anchor="start" x="30" y="-66.3" font-family="Helvetica,sans-Serif" font-size="11.00" fill="#000000">version</text>
<polygon fill="none" stroke="#000000" points="205,-59.2 205,-81.2 266,-81.2 266,-59.2 205,-59.2"/>
<text text-anchor="start" x="208" y="-66.9" font-family="Helvetica,sans-Serif" font-size="11.00" fill="#000000">int4[10]</text>
<polygon fill="#ffffff" stroke="transparent" points="10,-40.2 10,-59.2 266,-59.2 266,-40.2 10,-40.2"/>
<polygon fill="none" stroke="#000000" points="10,-40.2 10,-59.2 266,-59.2 266,-40.2 10,-40.2"/>
<polygon fill="#ffffff" stroke="transparent" points="11,-41.2 11,-58.2 99,-58.2 99,-41.2 11,-41.2"/>
<text text-anchor="start" x="13" y="-46.3" font-family="Helvetica,sans-Serif" font-size="11.00" fill="#000000">&lt; 0</text>
<polygon fill="#ffffff" stroke="transparent" points="99,-41.2 99,-58.2 178,-58.2 178,-41.2 99,-41.2"/>
<text text-anchor="start" x="135.4431" y="-46.3" font-family="Helvetica,sans-Serif" font-size="11.00" fill="#000000"> &#160;</text>
<polygon fill="#ffffff" stroke="transparent" points="178,-41.2 178,-58.2 265,-58.2 265,-41.2 178,-41.2"/>
<text text-anchor="start" x="247.4053" y="-46.3" font-family="Helvetica,sans-Serif" font-size="11.00" fill="#000000">3 &gt;</text>
<polygon fill="#000000" stroke="#000000" points="99,-41.2 99,-58.2 99,-58.2 99,-41.2 99,-41.2"/>
<polygon fill="#000000" stroke="#000000" points="178,-41.2 178,-58.2 178,-58.2 178,-41.2 178,-41.2"/>
<polygon fill="none" stroke="#000000" stroke-width="2" points="9,-39.2 9,-281.2 267,-281.2 267,-39.2 9,-39.2"/>
</a>
</g>
</g>
<!-- alert&#45;&gt;person_summary -->
<g id="edge1" class="edge">
<title>alert:w&#45;&gt;person_summary:e</title>
<path fill="none" stroke="#000000" stroke-dasharray="5,2" d="M307.0862,-480.4361C229.3093,-458.8398 368.2786,-246.2 266,-246.2"/>
<polygon fill="#000000" stroke="#000000" points="313.5592,-481.2282 321.0627,-485.7733 317.5296,-481.7141 321.5,-482.2 321.5,-482.2 321.5,-482.2 317.5296,-481.7141 321.9373,-478.6267 313.5592,-481.2282 313.5592,-481.2282"/>
<ellipse fill="none" stroke="#000000" cx="310.3829" cy="-480.8394" rx="3.2" ry="3.2"/>
</g>
<!-- plan_person -->
<g id="node3" class="node">
<title>plan_person</title>
<g id="a_node3"><a xlink:href="../../tables/plan_person.html" xlink:title="plan_person" target="_top">
<polygon fill="#ffffff" stroke="transparent" points="364.5,-216.2 364.5,-302.2 494.5,-302.2 494.5,-216.2 364.5,-216.2"/>
<polygon fill="#f5f5f5" stroke="transparent" points="364.5,-279.2 364.5,-302.2 494.5,-302.2 494.5,-279.2 364.5,-279.2"/>
<polygon fill="none" stroke="#000000" points="364.5,-279.2 364.5,-302.2 494.5,-302.2 494.5,-279.2 364.5,-279.2"/>
<text text-anchor="start" x="369.5" y="-287.8" font-family="Helvetica,sans-Serif" font-weight="bold" font-size="11.00" fill="#000000">plan_person</text>
<text text-anchor="start" x="459.5437" y="-287.3" font-family="Helvetica,sans-Serif" font-size="11.00" fill="#000000">[table]</text>
<polygon fill="none" stroke="#000000" points="364.5,-257.2 364.5,-279.2 494.5,-279.2 494.5,-257.2 364.5,-257.2"/>
<image xlink:href="../../images/foreignKeys.png" width="11px" height="12px" preserveAspectRatio="xMinYMin meet" x="369.5" y="-274.2"/>
<text text-anchor="start" x="384.5" y="-264.3" font-family="Helvetica,sans-Serif" font-size="11.00" fill="#000000">plan_id</text>
<polygon fill="none" stroke="#000000" points="364.5,-235.2 364.5,-257.2 494.5,-257.2 494.5,-235.2 364.5,-235.2"/>
<image xlink:href="../../images/foreignKeys.png" width="11px" height="12px" preserveAspectRatio="xMinYMin meet" x="369.5" y="-252.2"/>
<text text-anchor="start" x="384.5" y="-242.3" font-family="Helvetica,sans-Serif" font-size="11.00" fill="#000000">prison_number</text>
<polygon fill="#ffffff" stroke="transparent" points="364.5,-216.2 364.5,-235.2 494.5,-235.2 494.5,-216.2 364.5,-216.2"/>
<polygon fill="none" stroke="#000000" points="364.5,-216.2 364.5,-235.2 494.5,-235.2 494.5,-216.2 364.5,-216.2"/>
<polygon fill="#ffffff" stroke="transparent" points="365.5,-217.2 365.5,-234.2 414.5,-234.2 414.5,-217.2 365.5,-217.2"/>
<text text-anchor="start" x="367.5" y="-222.3" font-family="Helvetica,sans-Serif" font-size="11.00" fill="#000000">&lt; 2</text>
<polygon fill="#ffffff" stroke="transparent" points="414.5,-217.2 414.5,-234.2 454.5,-234.2 454.5,-217.2 414.5,-217.2"/>
<text text-anchor="start" x="431.4431" y="-222.3" font-family="Helvetica,sans-Serif" font-size="11.00" fill="#000000"> &#160;</text>
<polygon fill="#ffffff" stroke="transparent" points="454.5,-217.2 454.5,-234.2 493.5,-234.2 493.5,-217.2 454.5,-217.2"/>
<text text-anchor="start" x="485.3862" y="-222.3" font-family="Helvetica,sans-Serif" font-size="11.00" fill="#000000"> &#160;</text>
<polygon fill="#000000" stroke="#000000" points="414.5,-217.2 414.5,-234.2 414.5,-234.2 414.5,-217.2 414.5,-217.2"/>
<polygon fill="#000000" stroke="#000000" points="454.5,-217.2 454.5,-234.2 454.5,-234.2 454.5,-217.2 454.5,-217.2"/>
</a>
</g>
</g>
<!-- plan_person&#45;&gt;person_summary -->
<g id="edge2" class="edge">
<title>plan_person:w&#45;&gt;person_summary:e</title>
<path fill="none" stroke="#000000" d="M349.9241,-246.2C317.5902,-246.2 304.4766,-246.2 266,-246.2"/>
<polygon fill="#000000" stroke="#000000" points="356.5,-246.2001 364.5,-249.8 360.5,-246.2 364.5,-246.2 364.5,-246.2 364.5,-246.2 360.5,-246.2 364.5,-242.6 356.5,-246.2001 356.5,-246.2001"/>
<ellipse fill="none" stroke="#000000" cx="353.3" cy="-246.2001" rx="3.2" ry="3.2"/>
</g>
<!-- resync_audit -->
<g id="node4" class="node">
<title>resync_audit</title>
<g id="a_node4"><a xlink:href="../../tables/resync_audit.html" xlink:title="resync_audit" target="_top">
<polygon fill="#ffffff" stroke="transparent" points="317,-89.7 317,-194.7 542,-194.7 542,-89.7 317,-89.7"/>
<polygon fill="#f5f5f5" stroke="transparent" points="317.5,-171.2 317.5,-194.2 542.5,-194.2 542.5,-171.2 317.5,-171.2"/>
<polygon fill="none" stroke="#000000" points="317.5,-171.2 317.5,-194.2 542.5,-194.2 542.5,-171.2 317.5,-171.2"/>
<text text-anchor="start" x="322.5" y="-179.8" font-family="Helvetica,sans-Serif" font-weight="bold" font-size="11.00" fill="#000000">resync_audit</text>
<text text-anchor="start" x="507.5437" y="-179.3" font-family="Helvetica,sans-Serif" font-size="11.00" fill="#000000">[table]</text>
<polygon fill="none" stroke="#000000" points="317.5,-149.2 317.5,-171.2 542.5,-171.2 542.5,-149.2 317.5,-149.2"/>
<image xlink:href="../../images/primaryKeys.png" width="11px" height="12px" preserveAspectRatio="xMinYMin meet" x="322.5" y="-166.2"/>
<text text-anchor="start" x="337.5" y="-156.3" font-family="Helvetica,sans-Serif" font-size="11.00" fill="#000000">id</text>
<polygon fill="#ffffff" stroke="transparent" points="317.5,-127.2 317.5,-149.2 542.5,-149.2 542.5,-127.2 317.5,-127.2"/>
<polygon fill="none" stroke="#000000" points="317.5,-127.2 317.5,-149.2 542.5,-149.2 542.5,-127.2 317.5,-127.2"/>
<image xlink:href="../../images/foreignKeys.png" width="11px" height="12px" preserveAspectRatio="xMinYMin meet" x="322.5" y="-144.2"/>
<text text-anchor="start" x="337.5" y="-134.3" font-family="Helvetica,sans-Serif" font-size="11.00" fill="#000000">prison_number</text>
<polygon fill="none" stroke="#000000" points="317.5,-108.2 317.5,-127.2 542.5,-127.2 542.5,-108.2 317.5,-108.2"/>
<text text-anchor="start" x="320.5" y="-114.3" font-family="Helvetica,sans-Serif" font-size="11.00" fill="#000000">...</text>
<polygon fill="#ffffff" stroke="transparent" points="317.5,-89.2 317.5,-108.2 542.5,-108.2 542.5,-89.2 317.5,-89.2"/>
<polygon fill="none" stroke="#000000" points="317.5,-89.2 317.5,-108.2 542.5,-108.2 542.5,-89.2 317.5,-89.2"/>
<polygon fill="#ffffff" stroke="transparent" points="318.5,-90.2 318.5,-107.2 399.5,-107.2 399.5,-90.2 318.5,-90.2"/>
<text text-anchor="start" x="320.5" y="-95.3" font-family="Helvetica,sans-Serif" font-size="11.00" fill="#000000">&lt; 1</text>
<polygon fill="#ffffff" stroke="transparent" points="399.5,-90.2 399.5,-107.2 470.5,-107.2 470.5,-90.2 399.5,-90.2"/>
<text text-anchor="start" x="431.9431" y="-95.3" font-family="Helvetica,sans-Serif" font-size="11.00" fill="#000000"> &#160;</text>
<polygon fill="#ffffff" stroke="transparent" points="470.5,-90.2 470.5,-107.2 541.5,-107.2 541.5,-90.2 470.5,-90.2"/>
<text text-anchor="start" x="533.3862" y="-95.3" font-family="Helvetica,sans-Serif" font-size="11.00" fill="#000000"> &#160;</text>
<polygon fill="#000000" stroke="#000000" points="399.5,-90.2 399.5,-107.2 399.5,-107.2 399.5,-90.2 399.5,-90.2"/>
<polygon fill="#000000" stroke="#000000" points="470.5,-90.2 470.5,-107.2 470.5,-107.2 470.5,-90.2 470.5,-90.2"/>
</a>
</g>
</g>
<!-- resync_audit&#45;&gt;person_summary -->
<g id="edge3" class="edge">
<title>resync_audit:w&#45;&gt;person_summary:e</title>
<path fill="none" stroke="#000000" stroke-dasharray="5,2" d="M303.2728,-142.0438C275.3639,-161.2828 313.1539,-246.2 266,-246.2"/>
<polygon fill="#000000" stroke="#000000" points="309.7769,-140.2866 318.439,-141.6754 313.6384,-139.2433 317.5,-138.2 317.5,-138.2 317.5,-138.2 313.6384,-139.2433 316.561,-134.7246 309.7769,-140.2866 309.7769,-140.2866"/>
<ellipse fill="none" stroke="#000000" cx="306.6877" cy="-141.1212" rx="3.2" ry="3.2"/>
</g>
</g>
</svg>
