<?xml version="1.0" encoding="UTF-8" standalone="no"?>
<!DOCTYPE svg PUBLIC "-//W3C//DTD SVG 1.1//EN"
 "http://www.w3.org/Graphics/SVG/1.1/DTD/svg11.dtd">
<!-- Generated by graphviz version 2.40.1 (20161225.0304)
 -->
<!-- Title: oneDegreeRelationshipsDiagramImplied Pages: 1 -->
<svg width="484pt" height="237pt"
 viewBox="0.00 0.00 484.00 237.20" xmlns="http://www.w3.org/2000/svg" xmlns:xlink="http://www.w3.org/1999/xlink">
<g id="graph0" class="graph" transform="scale(1 1) rotate(0) translate(4 233.2)">
<title>oneDegreeRelationshipsDiagramImplied</title>
<polygon fill="#ffffff" stroke="transparent" points="-4,4 -4,-233.2 480,-233.2 480,4 -4,4"/>
<text text-anchor="middle" x="72.4936" y="-7.3" font-family="Helvetica,sans-Serif" font-size="11.00" fill="#000000">Generated by SchemaSpy</text>
<!-- plan_person -->
<g id="node1" class="node">
<title>plan_person</title>
<g id="a_node1"><a xlink:href="../../tables/plan_person.html" xlink:title="plan_person" target="_top">
<polygon fill="#ffffff" stroke="transparent" points="249,-95.7 249,-185.7 468,-185.7 468,-95.7 249,-95.7"/>
<polygon fill="#f5f5f5" stroke="transparent" points="251.5,-160.7 251.5,-183.7 466.5,-183.7 466.5,-160.7 251.5,-160.7"/>
<polygon fill="none" stroke="#000000" points="251.5,-160.7 251.5,-183.7 466.5,-183.7 466.5,-160.7 251.5,-160.7"/>
<text text-anchor="start" x="256.5" y="-169.3" font-family="Helvetica,sans-Serif" font-weight="bold" font-size="11.00" fill="#000000">plan_person</text>
<text text-anchor="start" x="431.5437" y="-168.8" font-family="Helvetica,sans-Serif" font-size="11.00" fill="#000000">[table]</text>
<polygon fill="none" stroke="#000000" points="251.5,-138.7 251.5,-160.7 372.5,-160.7 372.5,-138.7 251.5,-138.7"/>
<image xlink:href="../../images/foreignKeys.png" width="11px" height="12px" preserveAspectRatio="xMinYMin meet" x="256.5" y="-155.7"/>
<text text-anchor="start" x="271.5" y="-145.8" font-family="Helvetica,sans-Serif" font-size="11.00" fill="#000000">plan_id</text>
<polygon fill="none" stroke="#000000" points="372.5,-138.7 372.5,-160.7 466.5,-160.7 466.5,-138.7 372.5,-138.7"/>
<text text-anchor="start" x="375.4758" y="-146.4" font-family="Helvetica,sans-Serif" font-size="11.00" fill="#000000">uuid[2147483647]</text>
<polygon fill="none" stroke="#000000" points="251.5,-116.7 251.5,-138.7 372.5,-138.7 372.5,-116.7 251.5,-116.7"/>
<image xlink:href="../../images/foreignKeys.png" width="11px" height="12px" preserveAspectRatio="xMinYMin meet" x="256.5" y="-133.7"/>
<text text-anchor="start" x="271.5" y="-123.8" font-family="Helvetica,sans-Serif" font-size="11.00" fill="#000000">prison_number</text>
<polygon fill="none" stroke="#000000" points="372.5,-116.7 372.5,-138.7 466.5,-138.7 466.5,-116.7 372.5,-116.7"/>
<text text-anchor="start" x="375.5" y="-124.4" font-family="Helvetica,sans-Serif" font-size="11.00" fill="#000000">varchar[10]</text>
<polygon fill="#ffffff" stroke="transparent" points="251.5,-97.7 251.5,-116.7 316.5,-116.7 316.5,-97.7 251.5,-97.7"/>
<polygon fill="none" stroke="#000000" points="251.5,-97.7 251.5,-116.7 316.5,-116.7 316.5,-97.7 251.5,-97.7"/>
<text text-anchor="start" x="254.5" y="-103.8" font-family="Helvetica,sans-Serif" font-size="11.00" fill="#000000">&lt; 2</text>
<polygon fill="#ffffff" stroke="transparent" points="316.5,-97.7 316.5,-116.7 372.5,-116.7 372.5,-97.7 316.5,-97.7"/>
<polygon fill="none" stroke="#000000" points="316.5,-97.7 316.5,-116.7 372.5,-116.7 372.5,-97.7 316.5,-97.7"/>
<text text-anchor="start" x="363.3862" y="-103.8" font-family="Helvetica,sans-Serif" font-size="11.00" fill="#000000"> &#160;</text>
<polygon fill="#ffffff" stroke="transparent" points="372.5,-97.7 372.5,-116.7 466.5,-116.7 466.5,-97.7 372.5,-97.7"/>
<polygon fill="none" stroke="#000000" points="372.5,-97.7 372.5,-116.7 466.5,-116.7 466.5,-97.7 372.5,-97.7"/>
<text text-anchor="start" x="447.9053" y="-103.8" font-family="Helvetica,sans-Serif" font-size="11.00" fill="#000000">0 &gt;</text>
<polygon fill="none" stroke="#000000" stroke-width="2" points="250,-96.7 250,-184.7 467,-184.7 467,-96.7 250,-96.7"/>
</a>
</g>
</g>
<!-- bulk_plan -->
<g id="node2" class="node">
<title>bulk_plan</title>
<g id="a_node2"><a xlink:href="../../tables/bulk_plan.html" xlink:title="bulk_plan" target="_top">
<polygon fill="#ffffff" stroke="transparent" points="8,-142.2 8,-225.2 200,-225.2 200,-142.2 8,-142.2"/>
<polygon fill="#f5f5f5" stroke="transparent" points="8,-201.7 8,-224.7 200,-224.7 200,-201.7 8,-201.7"/>
<polygon fill="none" stroke="#000000" points="8,-201.7 8,-224.7 200,-224.7 200,-201.7 8,-201.7"/>
<text text-anchor="start" x="13" y="-210.3" font-family="Helvetica,sans-Serif" font-weight="bold" font-size="11.00" fill="#000000">bulk_plan</text>
<text text-anchor="start" x="165.0437" y="-209.8" font-family="Helvetica,sans-Serif" font-size="11.00" fill="#000000">[table]</text>
<polygon fill="none" stroke="#000000" points="8,-179.7 8,-201.7 200,-201.7 200,-179.7 8,-179.7"/>
<image xlink:href="../../images/primaryKeys.png" width="11px" height="12px" preserveAspectRatio="xMinYMin meet" x="13" y="-196.7"/>
<text text-anchor="start" x="28" y="-186.8" font-family="Helvetica,sans-Serif" font-size="11.00" fill="#000000">id</text>
<polygon fill="none" stroke="#000000" points="8,-160.7 8,-179.7 200,-179.7 200,-160.7 8,-160.7"/>
<text text-anchor="start" x="11" y="-166.8" font-family="Helvetica,sans-Serif" font-size="11.00" fill="#000000">...</text>
<polygon fill="#ffffff" stroke="transparent" points="8,-141.7 8,-160.7 93,-160.7 93,-141.7 8,-141.7"/>
<polygon fill="none" stroke="#000000" points="8,-141.7 8,-160.7 93,-160.7 93,-141.7 8,-141.7"/>
<text text-anchor="start" x="11" y="-147.8" font-family="Helvetica,sans-Serif" font-size="11.00" fill="#000000"> &#160;</text>
<polygon fill="#ffffff" stroke="transparent" points="93,-141.7 93,-160.7 142,-160.7 142,-141.7 93,-141.7"/>
<polygon fill="none" stroke="#000000" points="93,-141.7 93,-160.7 142,-160.7 142,-141.7 93,-141.7"/>
<text text-anchor="start" x="132.8862" y="-147.8" font-family="Helvetica,sans-Serif" font-size="11.00" fill="#000000"> &#160;</text>
<polygon fill="#ffffff" stroke="transparent" points="142,-141.7 142,-160.7 200,-160.7 200,-141.7 142,-141.7"/>
<polygon fill="none" stroke="#000000" points="142,-141.7 142,-160.7 200,-160.7 200,-141.7 142,-141.7"/>
<text text-anchor="start" x="181.4053" y="-147.8" font-family="Helvetica,sans-Serif" font-size="11.00" fill="#000000">1 &gt;</text>
</a>
</g>
</g>
<!-- plan_person&#45;&gt;bulk_plan -->
<g id="edge1" class="edge">
<title>plan_person:w&#45;&gt;bulk_plan:e</title>
<path fill="none" stroke="#000000" d="M237.5533,-154.0877C223.596,-164.6646 223.3139,-190.7 200,-190.7"/>
<polygon fill="#000000" stroke="#000000" points="243.8687,-152.1009 252.5804,-153.1341 247.6844,-150.9004 251.5,-149.7 251.5,-149.7 251.5,-149.7 247.6844,-150.9004 250.4196,-146.2659 243.8687,-152.1009 243.8687,-152.1009"/>
<ellipse fill="none" stroke="#000000" cx="240.8162" cy="-153.0612" rx="3.2" ry="3.2"/>
</g>
<!-- person_summary -->
<g id="node3" class="node">
<title>person_summary</title>
<g id="a_node3"><a xlink:href="../../tables/person_summary.html" xlink:title="person_summary" target="_top">
<polygon fill="#ffffff" stroke="transparent" points="13.5,-38.2 13.5,-121.2 194.5,-121.2 194.5,-38.2 13.5,-38.2"/>
<polygon fill="#f5f5f5" stroke="transparent" points="14,-97.7 14,-120.7 195,-120.7 195,-97.7 14,-97.7"/>
<polygon fill="none" stroke="#000000" points="14,-97.7 14,-120.7 195,-120.7 195,-97.7 14,-97.7"/>
<text text-anchor="start" x="19" y="-106.3" font-family="Helvetica,sans-Serif" font-weight="bold" font-size="11.00" fill="#000000">person_summary</text>
<text text-anchor="start" x="160.0437" y="-105.8" font-family="Helvetica,sans-Serif" font-size="11.00" fill="#000000">[table]</text>
<polygon fill="none" stroke="#000000" points="14,-75.7 14,-97.7 195,-97.7 195,-75.7 14,-75.7"/>
<image xlink:href="../../images/primaryKeys.png" width="11px" height="12px" preserveAspectRatio="xMinYMin meet" x="19" y="-92.7"/>
<text text-anchor="start" x="34" y="-82.8" font-family="Helvetica,sans-Serif" font-size="11.00" fill="#000000">prison_number</text>
<polygon fill="none" stroke="#000000" points="14,-56.7 14,-75.7 195,-75.7 195,-56.7 14,-56.7"/>
<text text-anchor="start" x="17" y="-62.8" font-family="Helvetica,sans-Serif" font-size="11.00" fill="#000000">...</text>
<polygon fill="#ffffff" stroke="transparent" points="14,-37.7 14,-56.7 94,-56.7 94,-37.7 14,-37.7"/>
<polygon fill="none" stroke="#000000" points="14,-37.7 14,-56.7 94,-56.7 94,-37.7 14,-37.7"/>
<text text-anchor="start" x="17" y="-43.8" font-family="Helvetica,sans-Serif" font-size="11.00" fill="#000000"> &#160;</text>
<polygon fill="#ffffff" stroke="transparent" points="94,-37.7 94,-56.7 140,-56.7 140,-37.7 94,-37.7"/>
<polygon fill="none" stroke="#000000" points="94,-37.7 94,-56.7 140,-56.7 140,-37.7 94,-37.7"/>
<text text-anchor="start" x="130.8862" y="-43.8" font-family="Helvetica,sans-Serif" font-size="11.00" fill="#000000"> &#160;</text>
<polygon fill="#ffffff" stroke="transparent" points="140,-37.7 140,-56.7 195,-56.7 195,-37.7 140,-37.7"/>
<polygon fill="none" stroke="#000000" points="140,-37.7 140,-56.7 195,-56.7 195,-37.7 140,-37.7"/>
<text text-anchor="start" x="176.4053" y="-43.8" font-family="Helvetica,sans-Serif" font-size="11.00" fill="#000000">1 &gt;</text>
</a>
</g>
</g>
<!-- plan_person&#45;&gt;person_summary -->
<g id="edge2" class="edge">
<title>plan_person:w&#45;&gt;person_summary:e</title>
<path fill="none" stroke="#000000" d="M237.4235,-123.9163C221.27,-113.7664 220.2087,-86.7 195,-86.7"/>
<polygon fill="#000000" stroke="#000000" points="243.7742,-125.6233 250.5655,-131.1766 247.6371,-126.6617 251.5,-127.7 251.5,-127.7 251.5,-127.7 247.6371,-126.6617 252.4345,-124.2234 243.7742,-125.6233 243.7742,-125.6233"/>
<ellipse fill="none" stroke="#000000" cx="240.6839" cy="-124.7926" rx="3.2" ry="3.2"/>
</g>
</g>
</svg>
