<?xml version="1.0" encoding="UTF-8" standalone="no"?>
<!DOCTYPE svg PUBLIC "-//W3C//DTD SVG 1.1//EN"
 "http://www.w3.org/Graphics/SVG/1.1/DTD/svg11.dtd">
<!-- Generated by graphviz version 2.40.1 (20161225.0304)
 -->
<!-- Title: twoDegreesRelationshipsDiagramImplied Pages: 1 -->
<svg width="508pt" height="314pt"
 viewBox="0.00 0.00 508.00 313.70" xmlns="http://www.w3.org/2000/svg" xmlns:xlink="http://www.w3.org/1999/xlink">
<g id="graph0" class="graph" transform="scale(1 1) rotate(0) translate(4 309.7)">
<title>twoDegreesRelationshipsDiagramImplied</title>
<polygon fill="#ffffff" stroke="transparent" points="-4,4 -4,-309.7 504,-309.7 504,4 -4,4"/>
<text text-anchor="middle" x="72.4936" y="-7.3" font-family="Helvetica,sans-Serif" font-size="11.00" fill="#000000">Generated by SchemaSpy</text>
<!-- alert -->
<g id="node1" class="node">
<title>alert</title>
<g id="a_node1"><a xlink:href="../../tables/alert.html" xlink:title="alert" target="_top">
<polygon fill="#ffffff" stroke="transparent" points="341.5,-158.7 341.5,-219.7 414.5,-219.7 414.5,-158.7 341.5,-158.7"/>
<polygon fill="#f5f5f5" stroke="transparent" points="342,-196.2 342,-219.2 415,-219.2 415,-196.2 342,-196.2"/>
<polygon fill="none" stroke="#000000" points="342,-196.2 342,-219.2 415,-219.2 415,-196.2 342,-196.2"/>
<text text-anchor="start" x="347" y="-204.8" font-family="Helvetica,sans-Serif" font-weight="bold" font-size="11.00" fill="#000000">alert</text>
<text text-anchor="start" x="380.5219" y="-204.3" font-family="Helvetica,sans-Serif" font-size="11.00" fill="#000000">[table]</text>
<polygon fill="none" stroke="#000000" points="342,-177.2 342,-196.2 415,-196.2 415,-177.2 342,-177.2"/>
<text text-anchor="start" x="345" y="-183.3" font-family="Helvetica,sans-Serif" font-size="11.00" fill="#000000">...</text>
<polygon fill="#ffffff" stroke="transparent" points="342,-158.2 342,-177.2 415,-177.2 415,-158.2 342,-158.2"/>
<polygon fill="none" stroke="#000000" points="342,-158.2 342,-177.2 415,-177.2 415,-158.2 342,-158.2"/>
<polygon fill="#ffffff" stroke="transparent" points="343,-159.2 343,-176.2 370,-176.2 370,-159.2 343,-159.2"/>
<text text-anchor="start" x="345" y="-164.3" font-family="Helvetica,sans-Serif" font-size="11.00" fill="#000000">&lt; 2</text>
<polygon fill="#ffffff" stroke="transparent" points="370,-159.2 370,-176.2 388,-176.2 388,-159.2 370,-159.2"/>
<text text-anchor="start" x="375.9431" y="-164.3" font-family="Helvetica,sans-Serif" font-size="11.00" fill="#000000"> &#160;</text>
<polygon fill="#ffffff" stroke="transparent" points="388,-159.2 388,-176.2 414,-176.2 414,-159.2 388,-159.2"/>
<text text-anchor="start" x="396.4053" y="-164.3" font-family="Helvetica,sans-Serif" font-size="11.00" fill="#000000">1 &gt;</text>
<polygon fill="#000000" stroke="#000000" points="370,-159.2 370,-176.2 370,-176.2 370,-159.2 370,-159.2"/>
<polygon fill="#000000" stroke="#000000" points="388,-159.2 388,-176.2 388,-176.2 388,-159.2 388,-159.2"/>
</a>
</g>
</g>
<!-- person_summary -->
<g id="node2" class="node">
<title>person_summary</title>
<g id="a_node2"><a xlink:href="../../tables/person_summary.html" xlink:title="person_summary" target="_top">
<polygon fill="#ffffff" stroke="transparent" points="14,-142.7 14,-225.7 209,-225.7 209,-142.7 14,-142.7"/>
<polygon fill="#f5f5f5" stroke="transparent" points="14.5,-202.2 14.5,-225.2 209.5,-225.2 209.5,-202.2 14.5,-202.2"/>
<polygon fill="none" stroke="#000000" points="14.5,-202.2 14.5,-225.2 209.5,-225.2 209.5,-202.2 14.5,-202.2"/>
<text text-anchor="start" x="19.5" y="-210.8" font-family="Helvetica,sans-Serif" font-weight="bold" font-size="11.00" fill="#000000">person_summary</text>
<text text-anchor="start" x="174.5437" y="-210.3" font-family="Helvetica,sans-Serif" font-size="11.00" fill="#000000">[table]</text>
<polygon fill="none" stroke="#000000" points="14.5,-180.2 14.5,-202.2 209.5,-202.2 209.5,-180.2 14.5,-180.2"/>
<image xlink:href="../../images/primaryKeys.png" width="11px" height="12px" preserveAspectRatio="xMinYMin meet" x="19.5" y="-197.2"/>
<text text-anchor="start" x="34.5" y="-187.3" font-family="Helvetica,sans-Serif" font-size="11.00" fill="#000000">prison_number</text>
<polygon fill="none" stroke="#000000" points="14.5,-161.2 14.5,-180.2 209.5,-180.2 209.5,-161.2 14.5,-161.2"/>
<text text-anchor="start" x="17.5" y="-167.3" font-family="Helvetica,sans-Serif" font-size="11.00" fill="#000000">...</text>
<polygon fill="#ffffff" stroke="transparent" points="14.5,-142.2 14.5,-161.2 209.5,-161.2 209.5,-142.2 14.5,-142.2"/>
<polygon fill="none" stroke="#000000" points="14.5,-142.2 14.5,-161.2 209.5,-161.2 209.5,-142.2 14.5,-142.2"/>
<polygon fill="#ffffff" stroke="transparent" points="15.5,-143.2 15.5,-160.2 77.5,-160.2 77.5,-143.2 15.5,-143.2"/>
<text text-anchor="start" x="17.5" y="-148.3" font-family="Helvetica,sans-Serif" font-size="11.00" fill="#000000"> &#160;</text>
<polygon fill="#ffffff" stroke="transparent" points="77.5,-143.2 77.5,-160.2 138.5,-160.2 138.5,-143.2 77.5,-143.2"/>
<text text-anchor="start" x="104.9431" y="-148.3" font-family="Helvetica,sans-Serif" font-size="11.00" fill="#000000"> &#160;</text>
<polygon fill="#ffffff" stroke="transparent" points="138.5,-143.2 138.5,-160.2 208.5,-160.2 208.5,-143.2 138.5,-143.2"/>
<text text-anchor="start" x="190.9053" y="-148.3" font-family="Helvetica,sans-Serif" font-size="11.00" fill="#000000">3 &gt;</text>
<polygon fill="#000000" stroke="#000000" points="77.5,-143.2 77.5,-160.2 77.5,-160.2 77.5,-143.2 77.5,-143.2"/>
<polygon fill="#000000" stroke="#000000" points="138.5,-143.2 138.5,-160.2 138.5,-160.2 138.5,-143.2 138.5,-143.2"/>
</a>
</g>
</g>
<!-- alert&#45;&gt;person_summary -->
<g id="edge1" class="edge">
<title>alert:w&#45;&gt;person_summary:e</title>
<path fill="none" stroke="#000000" stroke-dasharray="5,2" d="M327.4279,-186.3091C280.1539,-187.0403 263.2513,-191.2 209.5,-191.2"/>
<polygon fill="#000000" stroke="#000000" points="334.0002,-186.2599 342.027,-189.7999 338.0001,-186.23 342,-186.2 342,-186.2 342,-186.2 338.0001,-186.23 341.973,-182.6001 334.0002,-186.2599 334.0002,-186.2599"/>
<ellipse fill="none" stroke="#000000" cx="330.8003" cy="-186.2839" rx="3.2" ry="3.2"/>
</g>
<!-- plan_person -->
<g id="node3" class="node">
<title>plan_person</title>
<g id="a_node3"><a xlink:href="../../tables/plan_person.html" xlink:title="plan_person" target="_top">
<polygon fill="#ffffff" stroke="transparent" points="264,-38.2 264,-128.2 492,-128.2 492,-38.2 264,-38.2"/>
<polygon fill="#f5f5f5" stroke="transparent" points="266,-103.2 266,-126.2 490,-126.2 490,-103.2 266,-103.2"/>
<polygon fill="none" stroke="#000000" points="266,-103.2 266,-126.2 490,-126.2 490,-103.2 266,-103.2"/>
<text text-anchor="start" x="271" y="-111.8" font-family="Helvetica,sans-Serif" font-weight="bold" font-size="11.00" fill="#000000">plan_person</text>
<text text-anchor="start" x="455.0437" y="-111.3" font-family="Helvetica,sans-Serif" font-size="11.00" fill="#000000">[table]</text>
<polygon fill="none" stroke="#000000" points="266,-81.2 266,-103.2 396,-103.2 396,-81.2 266,-81.2"/>
<image xlink:href="../../images/primaryKeys.png" width="11px" height="12px" preserveAspectRatio="xMinYMin meet" x="271" y="-98.2"/>
<text text-anchor="start" x="286" y="-88.3" font-family="Helvetica,sans-Serif" font-size="11.00" fill="#000000">plan_id</text>
<polygon fill="none" stroke="#000000" points="396,-81.2 396,-103.2 490,-103.2 490,-81.2 396,-81.2"/>
<text text-anchor="start" x="398.9758" y="-88.9" font-family="Helvetica,sans-Serif" font-size="11.00" fill="#000000">uuid[2147483647]</text>
<polygon fill="none" stroke="#000000" points="266,-59.2 266,-81.2 396,-81.2 396,-59.2 266,-59.2"/>
<image xlink:href="../../images/primaryKeys.png" width="11px" height="12px" preserveAspectRatio="xMinYMin meet" x="271" y="-76.2"/>
<text text-anchor="start" x="286" y="-66.3" font-family="Helvetica,sans-Serif" font-size="11.00" fill="#000000">prison_number</text>
<polygon fill="none" stroke="#000000" points="396,-59.2 396,-81.2 490,-81.2 490,-59.2 396,-59.2"/>
<text text-anchor="start" x="399" y="-66.9" font-family="Helvetica,sans-Serif" font-size="11.00" fill="#000000">varchar[10]</text>
<polygon fill="#ffffff" stroke="transparent" points="266,-40.2 266,-59.2 490,-59.2 490,-40.2 266,-40.2"/>
<polygon fill="none" stroke="#000000" points="266,-40.2 266,-59.2 490,-59.2 490,-40.2 266,-40.2"/>
<polygon fill="#ffffff" stroke="transparent" points="267,-41.2 267,-58.2 344,-58.2 344,-41.2 267,-41.2"/>
<text text-anchor="start" x="269" y="-46.3" font-family="Helvetica,sans-Serif" font-size="11.00" fill="#000000">&lt; 2</text>
<polygon fill="#ffffff" stroke="transparent" points="344,-41.2 344,-58.2 412,-58.2 412,-41.2 344,-41.2"/>
<text text-anchor="start" x="374.9431" y="-46.3" font-family="Helvetica,sans-Serif" font-size="11.00" fill="#000000"> &#160;</text>
<polygon fill="#ffffff" stroke="transparent" points="412,-41.2 412,-58.2 489,-58.2 489,-41.2 412,-41.2"/>
<text text-anchor="start" x="471.4053" y="-46.3" font-family="Helvetica,sans-Serif" font-size="11.00" fill="#000000">0 &gt;</text>
<polygon fill="#000000" stroke="#000000" points="344,-41.2 344,-58.2 344,-58.2 344,-41.2 344,-41.2"/>
<polygon fill="#000000" stroke="#000000" points="412,-41.2 412,-58.2 412,-58.2 412,-41.2 412,-41.2"/>
<polygon fill="none" stroke="#000000" stroke-width="2" points="265,-39.2 265,-127.2 491,-127.2 491,-39.2 265,-39.2"/>
</a>
</g>
</g>
<!-- plan_person&#45;&gt;person_summary -->
<g id="edge3" class="edge">
<title>plan_person:w&#45;&gt;person_summary:e</title>
<path fill="none" stroke="#000000" d="M251.8631,-73.4365C217.6382,-92.6789 263.0556,-191.2 209.5,-191.2"/>
<polygon fill="#000000" stroke="#000000" points="258.2018,-71.9854 266.8034,-73.7092 262.1009,-71.0927 266,-70.2 266,-70.2 266,-70.2 262.1009,-71.0927 265.1966,-66.6908 258.2018,-71.9854 258.2018,-71.9854"/>
<ellipse fill="none" stroke="#000000" cx="255.0825" cy="-72.6995" rx="3.2" ry="3.2"/>
</g>
<!-- bulk_plan -->
<g id="node4" class="node">
<title>bulk_plan</title>
<g id="a_node4"><a xlink:href="../../tables/bulk_plan.html" xlink:title="bulk_plan" target="_top">
<polygon fill="#ffffff" stroke="transparent" points="8,-38.7 8,-121.7 215,-121.7 215,-38.7 8,-38.7"/>
<polygon fill="#f5f5f5" stroke="transparent" points="8.5,-98.2 8.5,-121.2 215.5,-121.2 215.5,-98.2 8.5,-98.2"/>
<polygon fill="none" stroke="#000000" points="8.5,-98.2 8.5,-121.2 215.5,-121.2 215.5,-98.2 8.5,-98.2"/>
<text text-anchor="start" x="13.5" y="-106.8" font-family="Helvetica,sans-Serif" font-weight="bold" font-size="11.00" fill="#000000">bulk_plan</text>
<text text-anchor="start" x="180.5437" y="-106.3" font-family="Helvetica,sans-Serif" font-size="11.00" fill="#000000">[table]</text>
<polygon fill="none" stroke="#000000" points="8.5,-76.2 8.5,-98.2 215.5,-98.2 215.5,-76.2 8.5,-76.2"/>
<image xlink:href="../../images/primaryKeys.png" width="11px" height="12px" preserveAspectRatio="xMinYMin meet" x="13.5" y="-93.2"/>
<text text-anchor="start" x="28.5" y="-83.3" font-family="Helvetica,sans-Serif" font-size="11.00" fill="#000000">id</text>
<polygon fill="none" stroke="#000000" points="8.5,-57.2 8.5,-76.2 215.5,-76.2 215.5,-57.2 8.5,-57.2"/>
<text text-anchor="start" x="11.5" y="-63.3" font-family="Helvetica,sans-Serif" font-size="11.00" fill="#000000">...</text>
<polygon fill="#ffffff" stroke="transparent" points="8.5,-38.2 8.5,-57.2 215.5,-57.2 215.5,-38.2 8.5,-38.2"/>
<polygon fill="none" stroke="#000000" points="8.5,-38.2 8.5,-57.2 215.5,-57.2 215.5,-38.2 8.5,-38.2"/>
<polygon fill="#ffffff" stroke="transparent" points="9.5,-39.2 9.5,-56.2 75.5,-56.2 75.5,-39.2 9.5,-39.2"/>
<text text-anchor="start" x="11.5" y="-44.3" font-family="Helvetica,sans-Serif" font-size="11.00" fill="#000000"> &#160;</text>
<polygon fill="#ffffff" stroke="transparent" points="75.5,-39.2 75.5,-56.2 140.5,-56.2 140.5,-39.2 75.5,-39.2"/>
<text text-anchor="start" x="104.9431" y="-44.3" font-family="Helvetica,sans-Serif" font-size="11.00" fill="#000000"> &#160;</text>
<polygon fill="#ffffff" stroke="transparent" points="140.5,-39.2 140.5,-56.2 214.5,-56.2 214.5,-39.2 140.5,-39.2"/>
<text text-anchor="start" x="196.9053" y="-44.3" font-family="Helvetica,sans-Serif" font-size="11.00" fill="#000000">1 &gt;</text>
<polygon fill="#000000" stroke="#000000" points="75.5,-39.2 75.5,-56.2 75.5,-56.2 75.5,-39.2 75.5,-39.2"/>
<polygon fill="#000000" stroke="#000000" points="140.5,-39.2 140.5,-56.2 140.5,-56.2 140.5,-39.2 140.5,-39.2"/>
</a>
</g>
</g>
<!-- plan_person&#45;&gt;bulk_plan -->
<g id="edge2" class="edge">
<title>plan_person:w&#45;&gt;bulk_plan:e</title>
<path fill="none" stroke="#000000" d="M251.3898,-91.3744C239.525,-89.9542 232.2394,-87.2 215.5,-87.2"/>
<polygon fill="#000000" stroke="#000000" points="258.0127,-91.7486 265.7969,-95.7943 262.0064,-91.9743 266,-92.2 266,-92.2 266,-92.2 262.0064,-91.9743 266.2031,-88.6057 258.0127,-91.7486 258.0127,-91.7486"/>
<ellipse fill="none" stroke="#000000" cx="254.8178" cy="-91.568" rx="3.2" ry="3.2"/>
</g>
<!-- resync_audit -->
<g id="node5" class="node">
<title>resync_audit</title>
<g id="a_node5"><a xlink:href="../../tables/resync_audit.html" xlink:title="resync_audit" target="_top">
<polygon fill="#ffffff" stroke="transparent" points="312.5,-240.7 312.5,-301.7 443.5,-301.7 443.5,-240.7 312.5,-240.7"/>
<polygon fill="#f5f5f5" stroke="transparent" points="313,-278.2 313,-301.2 444,-301.2 444,-278.2 313,-278.2"/>
<polygon fill="none" stroke="#000000" points="313,-278.2 313,-301.2 444,-301.2 444,-278.2 313,-278.2"/>
<text text-anchor="start" x="318" y="-286.8" font-family="Helvetica,sans-Serif" font-weight="bold" font-size="11.00" fill="#000000">resync_audit</text>
<text text-anchor="start" x="409.5219" y="-286.3" font-family="Helvetica,sans-Serif" font-size="11.00" fill="#000000">[table]</text>
<polygon fill="none" stroke="#000000" points="313,-259.2 313,-278.2 444,-278.2 444,-259.2 313,-259.2"/>
<text text-anchor="start" x="316" y="-265.3" font-family="Helvetica,sans-Serif" font-size="11.00" fill="#000000">...</text>
<polygon fill="#ffffff" stroke="transparent" points="313,-240.2 313,-259.2 444,-259.2 444,-240.2 313,-240.2"/>
<polygon fill="none" stroke="#000000" points="313,-240.2 313,-259.2 444,-259.2 444,-240.2 313,-240.2"/>
<polygon fill="#ffffff" stroke="transparent" points="314,-241.2 314,-258.2 363,-258.2 363,-241.2 314,-241.2"/>
<text text-anchor="start" x="316" y="-246.3" font-family="Helvetica,sans-Serif" font-size="11.00" fill="#000000">&lt; 1</text>
<polygon fill="#ffffff" stroke="transparent" points="363,-241.2 363,-258.2 403,-258.2 403,-241.2 363,-241.2"/>
<text text-anchor="start" x="379.9431" y="-246.3" font-family="Helvetica,sans-Serif" font-size="11.00" fill="#000000"> &#160;</text>
<polygon fill="#ffffff" stroke="transparent" points="403,-241.2 403,-258.2 443,-258.2 443,-241.2 403,-241.2"/>
<text text-anchor="start" x="434.8862" y="-246.3" font-family="Helvetica,sans-Serif" font-size="11.00" fill="#000000"> &#160;</text>
<polygon fill="#000000" stroke="#000000" points="363,-241.2 363,-258.2 363,-258.2 363,-241.2 363,-241.2"/>
<polygon fill="#000000" stroke="#000000" points="403,-241.2 403,-258.2 403,-258.2 403,-241.2 403,-241.2"/>
</a>
</g>
</g>
<!-- resync_audit&#45;&gt;person_summary -->
<g id="edge4" class="edge">
<title>resync_audit:w&#45;&gt;person_summary:e</title>
<path fill="none" stroke="#000000" stroke-dasharray="5,2" d="M298.5218,-266.2575C280.9537,-260.8479 275.7986,-245.032 256,-230.2 234.4125,-214.0279 236.4732,-191.2 209.5,-191.2"/>
<polygon fill="#000000" stroke="#000000" points="305.071,-267.1361 312.5213,-271.768 309.0355,-267.6681 313,-268.2 313,-268.2 313,-268.2 309.0355,-267.6681 313.4787,-264.632 305.071,-267.1361 305.071,-267.1361"/>
<ellipse fill="none" stroke="#000000" cx="301.8995" cy="-266.7106" rx="3.2" ry="3.2"/>
</g>
</g>
</svg>
