<?xml version="1.0" encoding="UTF-8" standalone="no"?>
<!DOCTYPE svg PUBLIC "-//W3C//DTD SVG 1.1//EN"
 "http://www.w3.org/Graphics/SVG/1.1/DTD/svg11.dtd">
<!-- Generated by graphviz version 2.40.1 (20161225.0304)
 -->
<!-- Title: twoDegreesRelationshipsDiagramImplied Pages: 1 -->
<svg width="484pt" height="314pt"
 viewBox="0.00 0.00 484.00 313.70" xmlns="http://www.w3.org/2000/svg" xmlns:xlink="http://www.w3.org/1999/xlink">
<g id="graph0" class="graph" transform="scale(1 1) rotate(0) translate(4 309.7)">
<title>twoDegreesRelationshipsDiagramImplied</title>
<polygon fill="#ffffff" stroke="transparent" points="-4,4 -4,-309.7 480,-309.7 480,4 -4,4"/>
<text text-anchor="middle" x="72.4936" y="-7.3" font-family="Helvetica,sans-Serif" font-size="11.00" fill="#000000">Generated by SchemaSpy</text>
<!-- alert -->
<g id="node1" class="node">
<title>alert</title>
<g id="a_node1"><a xlink:href="../../tables/alert.html" xlink:title="alert" target="_top">
<polygon fill="#ffffff" stroke="transparent" points="323,-158.7 323,-219.7 394,-219.7 394,-158.7 323,-158.7"/>
<polygon fill="#f5f5f5" stroke="transparent" points="323.5,-196.2 323.5,-219.2 394.5,-219.2 394.5,-196.2 323.5,-196.2"/>
<polygon fill="none" stroke="#000000" points="323.5,-196.2 323.5,-219.2 394.5,-219.2 394.5,-196.2 323.5,-196.2"/>
<text text-anchor="start" x="328.5" y="-204.8" font-family="Helvetica,sans-Serif" font-weight="bold" font-size="11.00" fill="#000000">alert</text>
<text text-anchor="start" x="360.0219" y="-204.3" font-family="Helvetica,sans-Serif" font-size="11.00" fill="#000000">[table]</text>
<polygon fill="none" stroke="#000000" points="323.5,-177.2 323.5,-196.2 394.5,-196.2 394.5,-177.2 323.5,-177.2"/>
<text text-anchor="start" x="326.5" y="-183.3" font-family="Helvetica,sans-Serif" font-size="11.00" fill="#000000">...</text>
<polygon fill="#ffffff" stroke="transparent" points="323.5,-158.2 323.5,-177.2 352.5,-177.2 352.5,-158.2 323.5,-158.2"/>
<polygon fill="none" stroke="#000000" points="323.5,-158.2 323.5,-177.2 352.5,-177.2 352.5,-158.2 323.5,-158.2"/>
<text text-anchor="start" x="326.5" y="-164.3" font-family="Helvetica,sans-Serif" font-size="11.00" fill="#000000">&lt; 2</text>
<polygon fill="#ffffff" stroke="transparent" points="352.5,-158.2 352.5,-177.2 368.5,-177.2 368.5,-158.2 352.5,-158.2"/>
<polygon fill="none" stroke="#000000" points="352.5,-158.2 352.5,-177.2 368.5,-177.2 368.5,-158.2 352.5,-158.2"/>
<text text-anchor="start" x="359.3862" y="-164.3" font-family="Helvetica,sans-Serif" font-size="11.00" fill="#000000"> &#160;</text>
<polygon fill="#ffffff" stroke="transparent" points="368.5,-158.2 368.5,-177.2 394.5,-177.2 394.5,-158.2 368.5,-158.2"/>
<polygon fill="none" stroke="#000000" points="368.5,-158.2 368.5,-177.2 394.5,-177.2 394.5,-158.2 368.5,-158.2"/>
<text text-anchor="start" x="375.9053" y="-164.3" font-family="Helvetica,sans-Serif" font-size="11.00" fill="#000000">1 &gt;</text>
</a>
</g>
</g>
<!-- person_summary -->
<g id="node2" class="node">
<title>person_summary</title>
<g id="a_node2"><a xlink:href="../../tables/person_summary.html" xlink:title="person_summary" target="_top">
<polygon fill="#ffffff" stroke="transparent" points="13.5,-142.7 13.5,-225.7 194.5,-225.7 194.5,-142.7 13.5,-142.7"/>
<polygon fill="#f5f5f5" stroke="transparent" points="14,-202.2 14,-225.2 195,-225.2 195,-202.2 14,-202.2"/>
<polygon fill="none" stroke="#000000" points="14,-202.2 14,-225.2 195,-225.2 195,-202.2 14,-202.2"/>
<text text-anchor="start" x="19" y="-210.8" font-family="Helvetica,sans-Serif" font-weight="bold" font-size="11.00" fill="#000000">person_summary</text>
<text text-anchor="start" x="160.0437" y="-210.3" font-family="Helvetica,sans-Serif" font-size="11.00" fill="#000000">[table]</text>
<polygon fill="none" stroke="#000000" points="14,-180.2 14,-202.2 195,-202.2 195,-180.2 14,-180.2"/>
<image xlink:href="../../images/primaryKeys.png" width="11px" height="12px" preserveAspectRatio="xMinYMin meet" x="19" y="-197.2"/>
<text text-anchor="start" x="34" y="-187.3" font-family="Helvetica,sans-Serif" font-size="11.00" fill="#000000">prison_number</text>
<polygon fill="none" stroke="#000000" points="14,-161.2 14,-180.2 195,-180.2 195,-161.2 14,-161.2"/>
<text text-anchor="start" x="17" y="-167.3" font-family="Helvetica,sans-Serif" font-size="11.00" fill="#000000">...</text>
<polygon fill="#ffffff" stroke="transparent" points="14,-142.2 14,-161.2 94,-161.2 94,-142.2 14,-142.2"/>
<polygon fill="none" stroke="#000000" points="14,-142.2 14,-161.2 94,-161.2 94,-142.2 14,-142.2"/>
<text text-anchor="start" x="17" y="-148.3" font-family="Helvetica,sans-Serif" font-size="11.00" fill="#000000"> &#160;</text>
<polygon fill="#ffffff" stroke="transparent" points="94,-142.2 94,-161.2 140,-161.2 140,-142.2 94,-142.2"/>
<polygon fill="none" stroke="#000000" points="94,-142.2 94,-161.2 140,-161.2 140,-142.2 94,-142.2"/>
<text text-anchor="start" x="130.8862" y="-148.3" font-family="Helvetica,sans-Serif" font-size="11.00" fill="#000000"> &#160;</text>
<polygon fill="#ffffff" stroke="transparent" points="140,-142.2 140,-161.2 195,-161.2 195,-142.2 140,-142.2"/>
<polygon fill="none" stroke="#000000" points="140,-142.2 140,-161.2 195,-161.2 195,-142.2 140,-142.2"/>
<text text-anchor="start" x="176.4053" y="-148.3" font-family="Helvetica,sans-Serif" font-size="11.00" fill="#000000">3 &gt;</text>
</a>
</g>
</g>
<!-- alert&#45;&gt;person_summary -->
<g id="edge1" class="edge">
<title>alert:w&#45;&gt;person_summary:e</title>
<path fill="none" stroke="#000000" stroke-dasharray="5,2" d="M309.0732,-186.3138C263.4489,-187.0581 247.0194,-191.2 195,-191.2"/>
<polygon fill="#000000" stroke="#000000" points="315.5002,-186.2632 323.5284,-189.7999 319.5001,-186.2316 323.5,-186.2 323.5,-186.2 323.5,-186.2 319.5001,-186.2316 323.4716,-182.6001 315.5002,-186.2632 315.5002,-186.2632"/>
<ellipse fill="none" stroke="#000000" cx="312.3003" cy="-186.2884" rx="3.2" ry="3.2"/>
</g>
<!-- plan_person -->
<g id="node3" class="node">
<title>plan_person</title>
<g id="a_node3"><a xlink:href="../../tables/plan_person.html" xlink:title="plan_person" target="_top">
<polygon fill="#ffffff" stroke="transparent" points="249,-38.2 249,-128.2 468,-128.2 468,-38.2 249,-38.2"/>
<polygon fill="#f5f5f5" stroke="transparent" points="251.5,-103.2 251.5,-126.2 466.5,-126.2 466.5,-103.2 251.5,-103.2"/>
<polygon fill="none" stroke="#000000" points="251.5,-103.2 251.5,-126.2 466.5,-126.2 466.5,-103.2 251.5,-103.2"/>
<text text-anchor="start" x="256.5" y="-111.8" font-family="Helvetica,sans-Serif" font-weight="bold" font-size="11.00" fill="#000000">plan_person</text>
<text text-anchor="start" x="431.5437" y="-111.3" font-family="Helvetica,sans-Serif" font-size="11.00" fill="#000000">[table]</text>
<polygon fill="none" stroke="#000000" points="251.5,-81.2 251.5,-103.2 372.5,-103.2 372.5,-81.2 251.5,-81.2"/>
<image xlink:href="../../images/foreignKeys.png" width="11px" height="12px" preserveAspectRatio="xMinYMin meet" x="256.5" y="-98.2"/>
<text text-anchor="start" x="271.5" y="-88.3" font-family="Helvetica,sans-Serif" font-size="11.00" fill="#000000">plan_id</text>
<polygon fill="none" stroke="#000000" points="372.5,-81.2 372.5,-103.2 466.5,-103.2 466.5,-81.2 372.5,-81.2"/>
<text text-anchor="start" x="375.4758" y="-88.9" font-family="Helvetica,sans-Serif" font-size="11.00" fill="#000000">uuid[2147483647]</text>
<polygon fill="none" stroke="#000000" points="251.5,-59.2 251.5,-81.2 372.5,-81.2 372.5,-59.2 251.5,-59.2"/>
<image xlink:href="../../images/foreignKeys.png" width="11px" height="12px" preserveAspectRatio="xMinYMin meet" x="256.5" y="-76.2"/>
<text text-anchor="start" x="271.5" y="-66.3" font-family="Helvetica,sans-Serif" font-size="11.00" fill="#000000">prison_number</text>
<polygon fill="none" stroke="#000000" points="372.5,-59.2 372.5,-81.2 466.5,-81.2 466.5,-59.2 372.5,-59.2"/>
<text text-anchor="start" x="375.5" y="-66.9" font-family="Helvetica,sans-Serif" font-size="11.00" fill="#000000">varchar[10]</text>
<polygon fill="#ffffff" stroke="transparent" points="251.5,-40.2 251.5,-59.2 316.5,-59.2 316.5,-40.2 251.5,-40.2"/>
<polygon fill="none" stroke="#000000" points="251.5,-40.2 251.5,-59.2 316.5,-59.2 316.5,-40.2 251.5,-40.2"/>
<text text-anchor="start" x="254.5" y="-46.3" font-family="Helvetica,sans-Serif" font-size="11.00" fill="#000000">&lt; 2</text>
<polygon fill="#ffffff" stroke="transparent" points="316.5,-40.2 316.5,-59.2 372.5,-59.2 372.5,-40.2 316.5,-40.2"/>
<polygon fill="none" stroke="#000000" points="316.5,-40.2 316.5,-59.2 372.5,-59.2 372.5,-40.2 316.5,-40.2"/>
<text text-anchor="start" x="363.3862" y="-46.3" font-family="Helvetica,sans-Serif" font-size="11.00" fill="#000000"> &#160;</text>
<polygon fill="#ffffff" stroke="transparent" points="372.5,-40.2 372.5,-59.2 466.5,-59.2 466.5,-40.2 372.5,-40.2"/>
<polygon fill="none" stroke="#000000" points="372.5,-40.2 372.5,-59.2 466.5,-59.2 466.5,-40.2 372.5,-40.2"/>
<text text-anchor="start" x="447.9053" y="-46.3" font-family="Helvetica,sans-Serif" font-size="11.00" fill="#000000">0 &gt;</text>
<polygon fill="none" stroke="#000000" stroke-width="2" points="250,-39.2 250,-127.2 467,-127.2 467,-39.2 250,-39.2"/>
</a>
</g>
</g>
<!-- plan_person&#45;&gt;person_summary -->
<g id="edge3" class="edge">
<title>plan_person:w&#45;&gt;person_summary:e</title>
<path fill="none" stroke="#000000" d="M237.3631,-73.4365C203.1382,-92.6789 248.5556,-191.2 195,-191.2"/>
<polygon fill="#000000" stroke="#000000" points="243.7018,-71.9854 252.3034,-73.7092 247.6009,-71.0927 251.5,-70.2 251.5,-70.2 251.5,-70.2 247.6009,-71.0927 250.6966,-66.6908 243.7018,-71.9854 243.7018,-71.9854"/>
<ellipse fill="none" stroke="#000000" cx="240.5825" cy="-72.6995" rx="3.2" ry="3.2"/>
</g>
<!-- bulk_plan -->
<g id="node4" class="node">
<title>bulk_plan</title>
<g id="a_node4"><a xlink:href="../../tables/bulk_plan.html" xlink:title="bulk_plan" target="_top">
<polygon fill="#ffffff" stroke="transparent" points="8,-38.7 8,-121.7 200,-121.7 200,-38.7 8,-38.7"/>
<polygon fill="#f5f5f5" stroke="transparent" points="8,-98.2 8,-121.2 200,-121.2 200,-98.2 8,-98.2"/>
<polygon fill="none" stroke="#000000" points="8,-98.2 8,-121.2 200,-121.2 200,-98.2 8,-98.2"/>
<text text-anchor="start" x="13" y="-106.8" font-family="Helvetica,sans-Serif" font-weight="bold" font-size="11.00" fill="#000000">bulk_plan</text>
<text text-anchor="start" x="165.0437" y="-106.3" font-family="Helvetica,sans-Serif" font-size="11.00" fill="#000000">[table]</text>
<polygon fill="none" stroke="#000000" points="8,-76.2 8,-98.2 200,-98.2 200,-76.2 8,-76.2"/>
<image xlink:href="../../images/primaryKeys.png" width="11px" height="12px" preserveAspectRatio="xMinYMin meet" x="13" y="-93.2"/>
<text text-anchor="start" x="28" y="-83.3" font-family="Helvetica,sans-Serif" font-size="11.00" fill="#000000">id</text>
<polygon fill="none" stroke="#000000" points="8,-57.2 8,-76.2 200,-76.2 200,-57.2 8,-57.2"/>
<text text-anchor="start" x="11" y="-63.3" font-family="Helvetica,sans-Serif" font-size="11.00" fill="#000000">...</text>
<polygon fill="#ffffff" stroke="transparent" points="8,-38.2 8,-57.2 93,-57.2 93,-38.2 8,-38.2"/>
<polygon fill="none" stroke="#000000" points="8,-38.2 8,-57.2 93,-57.2 93,-38.2 8,-38.2"/>
<text text-anchor="start" x="11" y="-44.3" font-family="Helvetica,sans-Serif" font-size="11.00" fill="#000000"> &#160;</text>
<polygon fill="#ffffff" stroke="transparent" points="93,-38.2 93,-57.2 142,-57.2 142,-38.2 93,-38.2"/>
<polygon fill="none" stroke="#000000" points="93,-38.2 93,-57.2 142,-57.2 142,-38.2 93,-38.2"/>
<text text-anchor="start" x="132.8862" y="-44.3" font-family="Helvetica,sans-Serif" font-size="11.00" fill="#000000"> &#160;</text>
<polygon fill="#ffffff" stroke="transparent" points="142,-38.2 142,-57.2 200,-57.2 200,-38.2 142,-38.2"/>
<polygon fill="none" stroke="#000000" points="142,-38.2 142,-57.2 200,-57.2 200,-38.2 142,-38.2"/>
<text text-anchor="start" x="181.4053" y="-44.3" font-family="Helvetica,sans-Serif" font-size="11.00" fill="#000000">1 &gt;</text>
</a>
</g>
</g>
<!-- plan_person&#45;&gt;bulk_plan -->
<g id="edge2" class="edge">
<title>plan_person:w&#45;&gt;bulk_plan:e</title>
<path fill="none" stroke="#000000" d="M236.9854,-91.4188C224.6569,-90.0125 217.2474,-87.2 200,-87.2"/>
<polygon fill="#000000" stroke="#000000" points="243.5116,-91.77 251.3065,-95.7948 247.5058,-91.985 251.5,-92.2 251.5,-92.2 251.5,-92.2 247.5058,-91.985 251.6935,-88.6052 243.5116,-91.77 243.5116,-91.77"/>
<ellipse fill="none" stroke="#000000" cx="240.3162" cy="-91.598" rx="3.2" ry="3.2"/>
</g>
<!-- resync_audit -->
<g id="node5" class="node">
<title>resync_audit</title>
<g id="a_node5"><a xlink:href="../../tables/resync_audit.html" xlink:title="resync_audit" target="_top">
<polygon fill="#ffffff" stroke="transparent" points="296.5,-240.7 296.5,-301.7 420.5,-301.7 420.5,-240.7 296.5,-240.7"/>
<polygon fill="#f5f5f5" stroke="transparent" points="296.5,-278.2 296.5,-301.2 420.5,-301.2 420.5,-278.2 296.5,-278.2"/>
<polygon fill="none" stroke="#000000" points="296.5,-278.2 296.5,-301.2 420.5,-301.2 420.5,-278.2 296.5,-278.2"/>
<text text-anchor="start" x="301.5" y="-286.8" font-family="Helvetica,sans-Serif" font-weight="bold" font-size="11.00" fill="#000000">resync_audit</text>
<text text-anchor="start" x="386.0219" y="-286.3" font-family="Helvetica,sans-Serif" font-size="11.00" fill="#000000">[table]</text>
<polygon fill="none" stroke="#000000" points="296.5,-259.2 296.5,-278.2 420.5,-278.2 420.5,-259.2 296.5,-259.2"/>
<text text-anchor="start" x="299.5" y="-265.3" font-family="Helvetica,sans-Serif" font-size="11.00" fill="#000000">...</text>
<polygon fill="#ffffff" stroke="transparent" points="296.5,-240.2 296.5,-259.2 356.5,-259.2 356.5,-240.2 296.5,-240.2"/>
<polygon fill="none" stroke="#000000" points="296.5,-240.2 296.5,-259.2 356.5,-259.2 356.5,-240.2 296.5,-240.2"/>
<text text-anchor="start" x="299.5" y="-246.3" font-family="Helvetica,sans-Serif" font-size="11.00" fill="#000000">&lt; 1</text>
<polygon fill="#ffffff" stroke="transparent" points="356.5,-240.2 356.5,-259.2 388.5,-259.2 388.5,-240.2 356.5,-240.2"/>
<polygon fill="none" stroke="#000000" points="356.5,-240.2 356.5,-259.2 388.5,-259.2 388.5,-240.2 356.5,-240.2"/>
<text text-anchor="start" x="379.3862" y="-246.3" font-family="Helvetica,sans-Serif" font-size="11.00" fill="#000000"> &#160;</text>
<polygon fill="#ffffff" stroke="transparent" points="388.5,-240.2 388.5,-259.2 420.5,-259.2 420.5,-240.2 388.5,-240.2"/>
<polygon fill="none" stroke="#000000" points="388.5,-240.2 388.5,-259.2 420.5,-259.2 420.5,-240.2 388.5,-240.2"/>
<text text-anchor="start" x="411.3862" y="-246.3" font-family="Helvetica,sans-Serif" font-size="11.00" fill="#000000"> &#160;</text>
</a>
</g>
</g>
<!-- resync_audit&#45;&gt;person_summary -->
<g id="edge4" class="edge">
<title>resync_audit:w&#45;&gt;person_summary:e</title>
<path fill="none" stroke="#000000" stroke-dasharray="5,2" d="M281.8219,-266.0875C265.0505,-260.5061 260.1241,-244.7927 241,-230.2 219.6915,-213.9406 221.8034,-191.2 195,-191.2"/>
<polygon fill="#000000" stroke="#000000" points="288.5816,-267.0603 295.9871,-271.7633 292.5408,-267.6302 296.5,-268.2 296.5,-268.2 296.5,-268.2 292.5408,-267.6302 297.0129,-264.6367 288.5816,-267.0603 288.5816,-267.0603"/>
<ellipse fill="none" stroke="#000000" cx="285.4142" cy="-266.6044" rx="3.2" ry="3.2"/>
</g>
</g>
</svg>
