<?xml version="1.0" encoding="UTF-8" standalone="no"?>
<!DOCTYPE svg PUBLIC "-//W3C//DTD SVG 1.1//EN"
 "http://www.w3.org/Graphics/SVG/1.1/DTD/svg11.dtd">
<!-- Generated by graphviz version 2.40.1 (20161225.0304)
 -->
<!-- Title: oneDegreeRelationshipsDiagram Pages: 1 -->
<svg width="508pt" height="237pt"
 viewBox="0.00 0.00 508.00 237.20" xmlns="http://www.w3.org/2000/svg" xmlns:xlink="http://www.w3.org/1999/xlink">
<g id="graph0" class="graph" transform="scale(1 1) rotate(0) translate(4 233.2)">
<title>oneDegreeRelationshipsDiagram</title>
<polygon fill="#ffffff" stroke="transparent" points="-4,4 -4,-233.2 504,-233.2 504,4 -4,4"/>
<text text-anchor="middle" x="72.4936" y="-7.3" font-family="Helvetica,sans-Serif" font-size="11.00" fill="#000000">Generated by SchemaSpy</text>
<!-- plan_person -->
<g id="node1" class="node">
<title>plan_person</title>
<g id="a_node1"><a xlink:href="../../tables/plan_person.html" xlink:title="plan_person" target="_top">
<polygon fill="#ffffff" stroke="transparent" points="264,-95.7 264,-185.7 492,-185.7 492,-95.7 264,-95.7"/>
<polygon fill="#f5f5f5" stroke="transparent" points="266,-160.7 266,-183.7 490,-183.7 490,-160.7 266,-160.7"/>
<polygon fill="none" stroke="#000000" points="266,-160.7 266,-183.7 490,-183.7 490,-160.7 266,-160.7"/>
<text text-anchor="start" x="271" y="-169.3" font-family="Helvetica,sans-Serif" font-weight="bold" font-size="11.00" fill="#000000">plan_person</text>
<text text-anchor="start" x="455.0437" y="-168.8" font-family="Helvetica,sans-Serif" font-size="11.00" fill="#000000">[table]</text>
<polygon fill="none" stroke="#000000" points="266,-138.7 266,-160.7 396,-160.7 396,-138.7 266,-138.7"/>
<image xlink:href="../../images/foreignKeys.png" width="11px" height="12px" preserveAspectRatio="xMinYMin meet" x="271" y="-155.7"/>
<text text-anchor="start" x="286" y="-145.8" font-family="Helvetica,sans-Serif" font-size="11.00" fill="#000000">plan_id</text>
<polygon fill="none" stroke="#000000" points="396,-138.7 396,-160.7 490,-160.7 490,-138.7 396,-138.7"/>
<text text-anchor="start" x="398.9758" y="-146.4" font-family="Helvetica,sans-Serif" font-size="11.00" fill="#000000">uuid[2147483647]</text>
<polygon fill="none" stroke="#000000" points="266,-116.7 266,-138.7 396,-138.7 396,-116.7 266,-116.7"/>
<image xlink:href="../../images/foreignKeys.png" width="11px" height="12px" preserveAspectRatio="xMinYMin meet" x="271" y="-133.7"/>
<text text-anchor="start" x="286" y="-123.8" font-family="Helvetica,sans-Serif" font-size="11.00" fill="#000000">prison_number</text>
<polygon fill="none" stroke="#000000" points="396,-116.7 396,-138.7 490,-138.7 490,-116.7 396,-116.7"/>
<text text-anchor="start" x="399" y="-124.4" font-family="Helvetica,sans-Serif" font-size="11.00" fill="#000000">varchar[10]</text>
<polygon fill="#ffffff" stroke="transparent" points="266,-97.7 266,-116.7 490,-116.7 490,-97.7 266,-97.7"/>
<polygon fill="none" stroke="#000000" points="266,-97.7 266,-116.7 490,-116.7 490,-97.7 266,-97.7"/>
<polygon fill="#ffffff" stroke="transparent" points="267,-98.7 267,-115.7 344,-115.7 344,-98.7 267,-98.7"/>
<text text-anchor="start" x="269" y="-103.8" font-family="Helvetica,sans-Serif" font-size="11.00" fill="#000000">&lt; 2</text>
<polygon fill="#ffffff" stroke="transparent" points="344,-98.7 344,-115.7 412,-115.7 412,-98.7 344,-98.7"/>
<text text-anchor="start" x="374.9431" y="-103.8" font-family="Helvetica,sans-Serif" font-size="11.00" fill="#000000"> &#160;</text>
<polygon fill="#ffffff" stroke="transparent" points="412,-98.7 412,-115.7 489,-115.7 489,-98.7 412,-98.7"/>
<text text-anchor="start" x="471.4053" y="-103.8" font-family="Helvetica,sans-Serif" font-size="11.00" fill="#000000">0 &gt;</text>
<polygon fill="#000000" stroke="#000000" points="344,-98.7 344,-115.7 344,-115.7 344,-98.7 344,-98.7"/>
<polygon fill="#000000" stroke="#000000" points="412,-98.7 412,-115.7 412,-115.7 412,-98.7 412,-98.7"/>
<polygon fill="none" stroke="#000000" stroke-width="2" points="265,-96.7 265,-184.7 491,-184.7 491,-96.7 265,-96.7"/>
</a>
</g>
</g>
<!-- bulk_plan -->
<g id="node2" class="node">
<title>bulk_plan</title>
<g id="a_node2"><a xlink:href="../../tables/bulk_plan.html" xlink:title="bulk_plan" target="_top">
<polygon fill="#ffffff" stroke="transparent" points="8,-142.2 8,-225.2 215,-225.2 215,-142.2 8,-142.2"/>
<polygon fill="#f5f5f5" stroke="transparent" points="8.5,-201.7 8.5,-224.7 215.5,-224.7 215.5,-201.7 8.5,-201.7"/>
<polygon fill="none" stroke="#000000" points="8.5,-201.7 8.5,-224.7 215.5,-224.7 215.5,-201.7 8.5,-201.7"/>
<text text-anchor="start" x="13.5" y="-210.3" font-family="Helvetica,sans-Serif" font-weight="bold" font-size="11.00" fill="#000000">bulk_plan</text>
<text text-anchor="start" x="180.5437" y="-209.8" font-family="Helvetica,sans-Serif" font-size="11.00" fill="#000000">[table]</text>
<polygon fill="none" stroke="#000000" points="8.5,-179.7 8.5,-201.7 215.5,-201.7 215.5,-179.7 8.5,-179.7"/>
<image xlink:href="../../images/primaryKeys.png" width="11px" height="12px" preserveAspectRatio="xMinYMin meet" x="13.5" y="-196.7"/>
<text text-anchor="start" x="28.5" y="-186.8" font-family="Helvetica,sans-Serif" font-size="11.00" fill="#000000">id</text>
<polygon fill="none" stroke="#000000" points="8.5,-160.7 8.5,-179.7 215.5,-179.7 215.5,-160.7 8.5,-160.7"/>
<text text-anchor="start" x="11.5" y="-166.8" font-family="Helvetica,sans-Serif" font-size="11.00" fill="#000000">...</text>
<polygon fill="#ffffff" stroke="transparent" points="8.5,-141.7 8.5,-160.7 215.5,-160.7 215.5,-141.7 8.5,-141.7"/>
<polygon fill="none" stroke="#000000" points="8.5,-141.7 8.5,-160.7 215.5,-160.7 215.5,-141.7 8.5,-141.7"/>
<polygon fill="#ffffff" stroke="transparent" points="9.5,-142.7 9.5,-159.7 75.5,-159.7 75.5,-142.7 9.5,-142.7"/>
<text text-anchor="start" x="11.5" y="-147.8" font-family="Helvetica,sans-Serif" font-size="11.00" fill="#000000"> &#160;</text>
<polygon fill="#ffffff" stroke="transparent" points="75.5,-142.7 75.5,-159.7 140.5,-159.7 140.5,-142.7 75.5,-142.7"/>
<text text-anchor="start" x="104.9431" y="-147.8" font-family="Helvetica,sans-Serif" font-size="11.00" fill="#000000"> &#160;</text>
<polygon fill="#ffffff" stroke="transparent" points="140.5,-142.7 140.5,-159.7 214.5,-159.7 214.5,-142.7 140.5,-142.7"/>
<text text-anchor="start" x="196.9053" y="-147.8" font-family="Helvetica,sans-Serif" font-size="11.00" fill="#000000">1 &gt;</text>
<polygon fill="#000000" stroke="#000000" points="75.5,-142.7 75.5,-159.7 75.5,-159.7 75.5,-142.7 75.5,-142.7"/>
<polygon fill="#000000" stroke="#000000" points="140.5,-142.7 140.5,-159.7 140.5,-159.7 140.5,-142.7 140.5,-142.7"/>
</a>
</g>
</g>
<!-- plan_person&#45;&gt;bulk_plan -->
<g id="edge1" class="edge">
<title>plan_person:w&#45;&gt;bulk_plan:e</title>
<path fill="none" stroke="#000000" d="M252.2601,-154.0877C238.5688,-164.6646 238.5379,-190.7 215.5,-190.7"/>
<polygon fill="#000000" stroke="#000000" points="258.3792,-152.1337 267.0952,-153.1294 262.1896,-150.9168 266,-149.7 266,-149.7 266,-149.7 262.1896,-150.9168 264.9048,-146.2706 258.3792,-152.1337 258.3792,-152.1337"/>
<ellipse fill="none" stroke="#000000" cx="255.3308" cy="-153.1072" rx="3.2" ry="3.2"/>
</g>
<!-- person_summary -->
<g id="node3" class="node">
<title>person_summary</title>
<g id="a_node3"><a xlink:href="../../tables/person_summary.html" xlink:title="person_summary" target="_top">
<polygon fill="#ffffff" stroke="transparent" points="14,-38.2 14,-121.2 209,-121.2 209,-38.2 14,-38.2"/>
<polygon fill="#f5f5f5" stroke="transparent" points="14.5,-97.7 14.5,-120.7 209.5,-120.7 209.5,-97.7 14.5,-97.7"/>
<polygon fill="none" stroke="#000000" points="14.5,-97.7 14.5,-120.7 209.5,-120.7 209.5,-97.7 14.5,-97.7"/>
<text text-anchor="start" x="19.5" y="-106.3" font-family="Helvetica,sans-Serif" font-weight="bold" font-size="11.00" fill="#000000">person_summary</text>
<text text-anchor="start" x="174.5437" y="-105.8" font-family="Helvetica,sans-Serif" font-size="11.00" fill="#000000">[table]</text>
<polygon fill="none" stroke="#000000" points="14.5,-75.7 14.5,-97.7 209.5,-97.7 209.5,-75.7 14.5,-75.7"/>
<image xlink:href="../../images/primaryKeys.png" width="11px" height="12px" preserveAspectRatio="xMinYMin meet" x="19.5" y="-92.7"/>
<text text-anchor="start" x="34.5" y="-82.8" font-family="Helvetica,sans-Serif" font-size="11.00" fill="#000000">prison_number</text>
<polygon fill="none" stroke="#000000" points="14.5,-56.7 14.5,-75.7 209.5,-75.7 209.5,-56.7 14.5,-56.7"/>
<text text-anchor="start" x="17.5" y="-62.8" font-family="Helvetica,sans-Serif" font-size="11.00" fill="#000000">...</text>
<polygon fill="#ffffff" stroke="transparent" points="14.5,-37.7 14.5,-56.7 209.5,-56.7 209.5,-37.7 14.5,-37.7"/>
<polygon fill="none" stroke="#000000" points="14.5,-37.7 14.5,-56.7 209.5,-56.7 209.5,-37.7 14.5,-37.7"/>
<polygon fill="#ffffff" stroke="transparent" points="15.5,-38.7 15.5,-55.7 77.5,-55.7 77.5,-38.7 15.5,-38.7"/>
<text text-anchor="start" x="17.5" y="-43.8" font-family="Helvetica,sans-Serif" font-size="11.00" fill="#000000"> &#160;</text>
<polygon fill="#ffffff" stroke="transparent" points="77.5,-38.7 77.5,-55.7 138.5,-55.7 138.5,-38.7 77.5,-38.7"/>
<text text-anchor="start" x="104.9431" y="-43.8" font-family="Helvetica,sans-Serif" font-size="11.00" fill="#000000"> &#160;</text>
<polygon fill="#ffffff" stroke="transparent" points="138.5,-38.7 138.5,-55.7 208.5,-55.7 208.5,-38.7 138.5,-38.7"/>
<text text-anchor="start" x="190.9053" y="-43.8" font-family="Helvetica,sans-Serif" font-size="11.00" fill="#000000">1 &gt;</text>
<polygon fill="#000000" stroke="#000000" points="77.5,-38.7 77.5,-55.7 77.5,-55.7 77.5,-38.7 77.5,-38.7"/>
<polygon fill="#000000" stroke="#000000" points="138.5,-38.7 138.5,-55.7 138.5,-55.7 138.5,-38.7 138.5,-38.7"/>
</a>
</g>
</g>
<!-- plan_person&#45;&gt;person_summary -->
<g id="edge2" class="edge">
<title>plan_person:w&#45;&gt;person_summary:e</title>
<path fill="none" stroke="#000000" d="M251.9235,-123.9163C235.77,-113.7664 234.7087,-86.7 209.5,-86.7"/>
<polygon fill="#000000" stroke="#000000" points="258.2742,-125.6233 265.0655,-131.1766 262.1371,-126.6617 266,-127.7 266,-127.7 266,-127.7 262.1371,-126.6617 266.9345,-124.2234 258.2742,-125.6233 258.2742,-125.6233"/>
<ellipse fill="none" stroke="#000000" cx="255.1839" cy="-124.7926" rx="3.2" ry="3.2"/>
</g>
</g>
</svg>
