<?xml version="1.0" encoding="UTF-8" standalone="no"?>
<!DOCTYPE svg PUBLIC "-//W3C//DTD SVG 1.1//EN"
 "http://www.w3.org/Graphics/SVG/1.1/DTD/svg11.dtd">
<!-- Generated by graphviz version 2.40.1 (20161225.0304)
 -->
<!-- Title: oneDegreeRelationshipsDiagramImplied Pages: 1 -->
<svg width="597pt" height="316pt"
 viewBox="0.00 0.00 597.00 316.20" xmlns="http://www.w3.org/2000/svg" xmlns:xlink="http://www.w3.org/1999/xlink">
<g id="graph0" class="graph" transform="scale(1 1) rotate(0) translate(4 312.2)">
<title>oneDegreeRelationshipsDiagramImplied</title>
<polygon fill="#ffffff" stroke="transparent" points="-4,4 -4,-312.2 593,-312.2 593,4 -4,4"/>
<text text-anchor="middle" x="72.4936" y="-7.3" font-family="Helvetica,sans-Serif" font-size="11.00" fill="#000000">Generated by SchemaSpy</text>
<!-- resync_audit -->
<g id="node1" class="node">
<title>resync_audit</title>
<g id="a_node1"><a xlink:href="../../tables/resync_audit.html" xlink:title="resync_audit" target="_top">
<polygon fill="#ffffff" stroke="transparent" points="252,-38.2 252,-304.2 581,-304.2 581,-38.2 252,-38.2"/>
<polygon fill="#f5f5f5" stroke="transparent" points="254.5,-279.2 254.5,-302.2 579.5,-302.2 579.5,-279.2 254.5,-279.2"/>
<polygon fill="none" stroke="#000000" points="254.5,-279.2 254.5,-302.2 579.5,-302.2 579.5,-279.2 254.5,-279.2"/>
<text text-anchor="start" x="259.5" y="-287.8" font-family="Helvetica,sans-Serif" font-weight="bold" font-size="11.00" fill="#000000">resync_audit</text>
<text text-anchor="start" x="544.5437" y="-287.3" font-family="Helvetica,sans-Serif" font-size="11.00" fill="#000000">[table]</text>
<polygon fill="none" stroke="#000000" points="254.5,-257.2 254.5,-279.2 479.5,-279.2 479.5,-257.2 254.5,-257.2"/>
<image xlink:href="../../images/primaryKeys.png" width="11px" height="12px" preserveAspectRatio="xMinYMin meet" x="259.5" y="-274.2"/>
<text text-anchor="start" x="274.5" y="-264.3" font-family="Helvetica,sans-Serif" font-size="11.00" fill="#000000">id</text>
<polygon fill="none" stroke="#000000" points="479.5,-257.2 479.5,-279.2 579.5,-279.2 579.5,-257.2 479.5,-257.2"/>
<text text-anchor="start" x="482.5" y="-264.9" font-family="Helvetica,sans-Serif" font-size="11.00" fill="#000000">bigserial[19]</text>
<polygon fill="#ffffff" stroke="transparent" points="254.5,-235.2 254.5,-257.2 479.5,-257.2 479.5,-235.2 254.5,-235.2"/>
<polygon fill="none" stroke="#000000" points="254.5,-235.2 254.5,-257.2 479.5,-257.2 479.5,-235.2 254.5,-235.2"/>
<image xlink:href="../../images/foreignKeys.png" width="11px" height="12px" preserveAspectRatio="xMinYMin meet" x="259.5" y="-252.2"/>
<text text-anchor="start" x="274.5" y="-242.3" font-family="Helvetica,sans-Serif" font-size="11.00" fill="#000000">prison_number</text>
<polygon fill="none" stroke="#000000" points="479.5,-235.2 479.5,-257.2 579.5,-257.2 579.5,-235.2 479.5,-235.2"/>
<text text-anchor="start" x="482.5" y="-242.9" font-family="Helvetica,sans-Serif" font-size="11.00" fill="#000000">varchar[10]</text>
<polygon fill="none" stroke="#000000" points="254.5,-213.2 254.5,-235.2 479.5,-235.2 479.5,-213.2 254.5,-213.2"/>
<text text-anchor="start" x="274.5" y="-220.3" font-family="Helvetica,sans-Serif" font-size="11.00" fill="#000000">request</text>
<polygon fill="none" stroke="#000000" points="479.5,-213.2 479.5,-235.2 579.5,-235.2 579.5,-213.2 479.5,-213.2"/>
<text text-anchor="start" x="482.5" y="-220.9" font-family="Helvetica,sans-Serif" font-size="11.00" fill="#000000">jsonb[2147483647]</text>
<polygon fill="none" stroke="#000000" points="254.5,-191.2 254.5,-213.2 479.5,-213.2 479.5,-191.2 254.5,-191.2"/>
<text text-anchor="start" x="274.5" y="-198.3" font-family="Helvetica,sans-Serif" font-size="11.00" fill="#000000">requested_at</text>
<polygon fill="none" stroke="#000000" points="479.5,-191.2 479.5,-213.2 579.5,-213.2 579.5,-191.2 479.5,-191.2"/>
<text text-anchor="start" x="482.5" y="-198.9" font-family="Helvetica,sans-Serif" font-size="11.00" fill="#000000">timestamp[29,6]</text>
<polygon fill="none" stroke="#000000" points="254.5,-169.2 254.5,-191.2 479.5,-191.2 479.5,-169.2 254.5,-169.2"/>
<text text-anchor="start" x="274.5" y="-176.3" font-family="Helvetica,sans-Serif" font-size="11.00" fill="#000000">requested_by</text>
<polygon fill="none" stroke="#000000" points="479.5,-169.2 479.5,-191.2 579.5,-191.2 579.5,-169.2 479.5,-169.2"/>
<text text-anchor="start" x="482.5" y="-176.9" font-family="Helvetica,sans-Serif" font-size="11.00" fill="#000000">varchar[64]</text>
<polygon fill="none" stroke="#000000" points="254.5,-147.2 254.5,-169.2 479.5,-169.2 479.5,-147.2 254.5,-147.2"/>
<text text-anchor="start" x="274.5" y="-154.3" font-family="Helvetica,sans-Serif" font-size="11.00" fill="#000000">requested_by_display_name</text>
<polygon fill="none" stroke="#000000" points="479.5,-147.2 479.5,-169.2 579.5,-169.2 579.5,-147.2 479.5,-147.2"/>
<text text-anchor="start" x="482.5" y="-154.9" font-family="Helvetica,sans-Serif" font-size="11.00" fill="#000000">varchar[255]</text>
<polygon fill="none" stroke="#000000" points="254.5,-125.2 254.5,-147.2 479.5,-147.2 479.5,-125.2 254.5,-125.2"/>
<text text-anchor="start" x="274.5" y="-132.3" font-family="Helvetica,sans-Serif" font-size="11.00" fill="#000000">source</text>
<polygon fill="none" stroke="#000000" points="479.5,-125.2 479.5,-147.2 579.5,-147.2 579.5,-125.2 479.5,-125.2"/>
<text text-anchor="start" x="482.5" y="-132.9" font-family="Helvetica,sans-Serif" font-size="11.00" fill="#000000">varchar[12]</text>
<polygon fill="none" stroke="#000000" points="254.5,-103.2 254.5,-125.2 479.5,-125.2 479.5,-103.2 254.5,-103.2"/>
<text text-anchor="start" x="274.5" y="-110.3" font-family="Helvetica,sans-Serif" font-size="11.00" fill="#000000">completed_at</text>
<polygon fill="none" stroke="#000000" points="479.5,-103.2 479.5,-125.2 579.5,-125.2 579.5,-103.2 479.5,-103.2"/>
<text text-anchor="start" x="482.5" y="-110.9" font-family="Helvetica,sans-Serif" font-size="11.00" fill="#000000">timestamp[29,6]</text>
<polygon fill="none" stroke="#000000" points="254.5,-81.2 254.5,-103.2 479.5,-103.2 479.5,-81.2 254.5,-81.2"/>
<text text-anchor="start" x="274.5" y="-88.3" font-family="Helvetica,sans-Serif" font-size="11.00" fill="#000000">alerts_deleted</text>
<polygon fill="none" stroke="#000000" points="479.5,-81.2 479.5,-103.2 579.5,-103.2 579.5,-81.2 479.5,-81.2"/>
<text text-anchor="start" x="482.4184" y="-88.9" font-family="Helvetica,sans-Serif" font-size="11.00" fill="#000000">_uuid[2147483647]</text>
<polygon fill="none" stroke="#000000" points="254.5,-59.2 254.5,-81.2 479.5,-81.2 479.5,-59.2 254.5,-59.2"/>
<text text-anchor="start" x="274.5" y="-66.3" font-family="Helvetica,sans-Serif" font-size="11.00" fill="#000000">alerts_created</text>
<polygon fill="none" stroke="#000000" points="479.5,-59.2 479.5,-81.2 579.5,-81.2 579.5,-59.2 479.5,-59.2"/>
<text text-anchor="start" x="482.4184" y="-66.9" font-family="Helvetica,sans-Serif" font-size="11.00" fill="#000000">_uuid[2147483647]</text>
<polygon fill="#ffffff" stroke="transparent" points="254.5,-40.2 254.5,-59.2 579.5,-59.2 579.5,-40.2 254.5,-40.2"/>
<polygon fill="none" stroke="#000000" points="254.5,-40.2 254.5,-59.2 579.5,-59.2 579.5,-40.2 254.5,-40.2"/>
<polygon fill="#ffffff" stroke="transparent" points="255.5,-41.2 255.5,-58.2 366.5,-58.2 366.5,-41.2 255.5,-41.2"/>
<text text-anchor="start" x="257.5" y="-46.3" font-family="Helvetica,sans-Serif" font-size="11.00" fill="#000000">&lt; 1</text>
<polygon fill="#ffffff" stroke="transparent" points="366.5,-41.2 366.5,-58.2 468.5,-58.2 468.5,-41.2 366.5,-41.2"/>
<text text-anchor="start" x="414.4431" y="-46.3" font-family="Helvetica,sans-Serif" font-size="11.00" fill="#000000"> &#160;</text>
<polygon fill="#ffffff" stroke="transparent" points="468.5,-41.2 468.5,-58.2 578.5,-58.2 578.5,-41.2 468.5,-41.2"/>
<text text-anchor="start" x="560.9053" y="-46.3" font-family="Helvetica,sans-Serif" font-size="11.00" fill="#000000">0 &gt;</text>
<polygon fill="#000000" stroke="#000000" points="366.5,-41.2 366.5,-58.2 366.5,-58.2 366.5,-41.2 366.5,-41.2"/>
<polygon fill="#000000" stroke="#000000" points="468.5,-41.2 468.5,-58.2 468.5,-58.2 468.5,-41.2 468.5,-41.2"/>
<polygon fill="none" stroke="#000000" stroke-width="2" points="253,-39.2 253,-303.2 580,-303.2 580,-39.2 253,-39.2"/>
</a>
</g>
</g>
<!-- person_summary -->
<g id="node2" class="node">
<title>person_summary</title>
<g id="a_node2"><a xlink:href="../../tables/person_summary.html" xlink:title="person_summary" target="_top">
<polygon fill="#ffffff" stroke="transparent" points="8,-197.7 8,-280.7 203,-280.7 203,-197.7 8,-197.7"/>
<polygon fill="#f5f5f5" stroke="transparent" points="8.5,-257.2 8.5,-280.2 203.5,-280.2 203.5,-257.2 8.5,-257.2"/>
<polygon fill="none" stroke="#000000" points="8.5,-257.2 8.5,-280.2 203.5,-280.2 203.5,-257.2 8.5,-257.2"/>
<text text-anchor="start" x="13.5" y="-265.8" font-family="Helvetica,sans-Serif" font-weight="bold" font-size="11.00" fill="#000000">person_summary</text>
<text text-anchor="start" x="168.5437" y="-265.3" font-family="Helvetica,sans-Serif" font-size="11.00" fill="#000000">[table]</text>
<polygon fill="none" stroke="#000000" points="8.5,-235.2 8.5,-257.2 203.5,-257.2 203.5,-235.2 8.5,-235.2"/>
<image xlink:href="../../images/primaryKeys.png" width="11px" height="12px" preserveAspectRatio="xMinYMin meet" x="13.5" y="-252.2"/>
<text text-anchor="start" x="28.5" y="-242.3" font-family="Helvetica,sans-Serif" font-size="11.00" fill="#000000">prison_number</text>
<polygon fill="none" stroke="#000000" points="8.5,-216.2 8.5,-235.2 203.5,-235.2 203.5,-216.2 8.5,-216.2"/>
<text text-anchor="start" x="11.5" y="-222.3" font-family="Helvetica,sans-Serif" font-size="11.00" fill="#000000">...</text>
<polygon fill="#ffffff" stroke="transparent" points="8.5,-197.2 8.5,-216.2 203.5,-216.2 203.5,-197.2 8.5,-197.2"/>
<polygon fill="none" stroke="#000000" points="8.5,-197.2 8.5,-216.2 203.5,-216.2 203.5,-197.2 8.5,-197.2"/>
<polygon fill="#ffffff" stroke="transparent" points="9.5,-198.2 9.5,-215.2 71.5,-215.2 71.5,-198.2 9.5,-198.2"/>
<text text-anchor="start" x="11.5" y="-203.3" font-family="Helvetica,sans-Serif" font-size="11.00" fill="#000000"> &#160;</text>
<polygon fill="#ffffff" stroke="transparent" points="71.5,-198.2 71.5,-215.2 132.5,-215.2 132.5,-198.2 71.5,-198.2"/>
<text text-anchor="start" x="98.9431" y="-203.3" font-family="Helvetica,sans-Serif" font-size="11.00" fill="#000000"> &#160;</text>
<polygon fill="#ffffff" stroke="transparent" points="132.5,-198.2 132.5,-215.2 202.5,-215.2 202.5,-198.2 132.5,-198.2"/>
<text text-anchor="start" x="184.9053" y="-203.3" font-family="Helvetica,sans-Serif" font-size="11.00" fill="#000000">3 &gt;</text>
<polygon fill="#000000" stroke="#000000" points="71.5,-198.2 71.5,-215.2 71.5,-215.2 71.5,-198.2 71.5,-198.2"/>
<polygon fill="#000000" stroke="#000000" points="132.5,-198.2 132.5,-215.2 132.5,-215.2 132.5,-198.2 132.5,-198.2"/>
</a>
</g>
</g>
<!-- resync_audit&#45;&gt;person_summary -->
<g id="edge1" class="edge">
<title>resync_audit:w&#45;&gt;person_summary:e</title>
<path fill="none" stroke="#000000" stroke-dasharray="5,2" d="M239.776,-246.2C227.7815,-246.2 220.3229,-246.2 203.5,-246.2"/>
<polygon fill="#000000" stroke="#000000" points="246.5,-246.2001 254.5,-249.8 250.5,-246.2 254.5,-246.2 254.5,-246.2 254.5,-246.2 250.5,-246.2 254.5,-242.6 246.5,-246.2001 246.5,-246.2001"/>
<ellipse fill="none" stroke="#000000" cx="243.3" cy="-246.2001" rx="3.2" ry="3.2"/>
</g>
</g>
</svg>
