<?xml version="1.0" encoding="UTF-8" standalone="no"?>
<!DOCTYPE svg PUBLIC "-//W3C//DTD SVG 1.1//EN"
 "http://www.w3.org/Graphics/SVG/1.1/DTD/svg11.dtd">
<!-- Generated by graphviz version 2.40.1 (20161225.0304)
 -->
<!-- Title: oneDegreeRelationshipsDiagramImplied Pages: 1 -->
<svg width="568pt" height="316pt"
 viewBox="0.00 0.00 568.00 316.20" xmlns="http://www.w3.org/2000/svg" xmlns:xlink="http://www.w3.org/1999/xlink">
<g id="graph0" class="graph" transform="scale(1 1) rotate(0) translate(4 312.2)">
<title>oneDegreeRelationshipsDiagramImplied</title>
<polygon fill="#ffffff" stroke="transparent" points="-4,4 -4,-312.2 564,-312.2 564,4 -4,4"/>
<text text-anchor="middle" x="72.4936" y="-7.3" font-family="Helvetica,sans-Serif" font-size="11.00" fill="#000000">Generated by SchemaSpy</text>
<!-- resync_audit -->
<g id="node1" class="node">
<title>resync_audit</title>
<g id="a_node1"><a xlink:href="../../tables/resync_audit.html" xlink:title="resync_audit" target="_top">
<polygon fill="#ffffff" stroke="transparent" points="238,-38.2 238,-304.2 552,-304.2 552,-38.2 238,-38.2"/>
<polygon fill="#f5f5f5" stroke="transparent" points="240,-279.2 240,-302.2 550,-302.2 550,-279.2 240,-279.2"/>
<polygon fill="none" stroke="#000000" points="240,-279.2 240,-302.2 550,-302.2 550,-279.2 240,-279.2"/>
<text text-anchor="start" x="245" y="-287.8" font-family="Helvetica,sans-Serif" font-weight="bold" font-size="11.00" fill="#000000">resync_audit</text>
<text text-anchor="start" x="515.0437" y="-287.3" font-family="Helvetica,sans-Serif" font-size="11.00" fill="#000000">[table]</text>
<polygon fill="none" stroke="#000000" points="240,-257.2 240,-279.2 450,-279.2 450,-257.2 240,-257.2"/>
<image xlink:href="../../images/primaryKeys.png" width="11px" height="12px" preserveAspectRatio="xMinYMin meet" x="245" y="-274.2"/>
<text text-anchor="start" x="260" y="-264.3" font-family="Helvetica,sans-Serif" font-size="11.00" fill="#000000">id</text>
<polygon fill="none" stroke="#000000" points="450,-257.2 450,-279.2 550,-279.2 550,-257.2 450,-257.2"/>
<text text-anchor="start" x="453" y="-264.9" font-family="Helvetica,sans-Serif" font-size="11.00" fill="#000000">bigserial[19]</text>
<polygon fill="#ffffff" stroke="transparent" points="240,-235.2 240,-257.2 450,-257.2 450,-235.2 240,-235.2"/>
<polygon fill="none" stroke="#000000" points="240,-235.2 240,-257.2 450,-257.2 450,-235.2 240,-235.2"/>
<image xlink:href="../../images/foreignKeys.png" width="11px" height="12px" preserveAspectRatio="xMinYMin meet" x="245" y="-252.2"/>
<text text-anchor="start" x="260" y="-242.3" font-family="Helvetica,sans-Serif" font-size="11.00" fill="#000000">prison_number</text>
<polygon fill="none" stroke="#000000" points="450,-235.2 450,-257.2 550,-257.2 550,-235.2 450,-235.2"/>
<text text-anchor="start" x="453" y="-242.9" font-family="Helvetica,sans-Serif" font-size="11.00" fill="#000000">varchar[10]</text>
<polygon fill="none" stroke="#000000" points="240,-213.2 240,-235.2 450,-235.2 450,-213.2 240,-213.2"/>
<text text-anchor="start" x="260" y="-220.3" font-family="Helvetica,sans-Serif" font-size="11.00" fill="#000000">request</text>
<polygon fill="none" stroke="#000000" points="450,-213.2 450,-235.2 550,-235.2 550,-213.2 450,-213.2"/>
<text text-anchor="start" x="453" y="-220.9" font-family="Helvetica,sans-Serif" font-size="11.00" fill="#000000">jsonb[2147483647]</text>
<polygon fill="none" stroke="#000000" points="240,-191.2 240,-213.2 450,-213.2 450,-191.2 240,-191.2"/>
<text text-anchor="start" x="260" y="-198.3" font-family="Helvetica,sans-Serif" font-size="11.00" fill="#000000">requested_at</text>
<polygon fill="none" stroke="#000000" points="450,-191.2 450,-213.2 550,-213.2 550,-191.2 450,-191.2"/>
<text text-anchor="start" x="453" y="-198.9" font-family="Helvetica,sans-Serif" font-size="11.00" fill="#000000">timestamp[29,6]</text>
<polygon fill="none" stroke="#000000" points="240,-169.2 240,-191.2 450,-191.2 450,-169.2 240,-169.2"/>
<text text-anchor="start" x="260" y="-176.3" font-family="Helvetica,sans-Serif" font-size="11.00" fill="#000000">requested_by</text>
<polygon fill="none" stroke="#000000" points="450,-169.2 450,-191.2 550,-191.2 550,-169.2 450,-169.2"/>
<text text-anchor="start" x="453" y="-176.9" font-family="Helvetica,sans-Serif" font-size="11.00" fill="#000000">varchar[64]</text>
<polygon fill="none" stroke="#000000" points="240,-147.2 240,-169.2 450,-169.2 450,-147.2 240,-147.2"/>
<text text-anchor="start" x="260" y="-154.3" font-family="Helvetica,sans-Serif" font-size="11.00" fill="#000000">requested_by_display_name</text>
<polygon fill="none" stroke="#000000" points="450,-147.2 450,-169.2 550,-169.2 550,-147.2 450,-147.2"/>
<text text-anchor="start" x="453" y="-154.9" font-family="Helvetica,sans-Serif" font-size="11.00" fill="#000000">varchar[255]</text>
<polygon fill="none" stroke="#000000" points="240,-125.2 240,-147.2 450,-147.2 450,-125.2 240,-125.2"/>
<text text-anchor="start" x="260" y="-132.3" font-family="Helvetica,sans-Serif" font-size="11.00" fill="#000000">source</text>
<polygon fill="none" stroke="#000000" points="450,-125.2 450,-147.2 550,-147.2 550,-125.2 450,-125.2"/>
<text text-anchor="start" x="453" y="-132.9" font-family="Helvetica,sans-Serif" font-size="11.00" fill="#000000">varchar[12]</text>
<polygon fill="none" stroke="#000000" points="240,-103.2 240,-125.2 450,-125.2 450,-103.2 240,-103.2"/>
<text text-anchor="start" x="260" y="-110.3" font-family="Helvetica,sans-Serif" font-size="11.00" fill="#000000">completed_at</text>
<polygon fill="none" stroke="#000000" points="450,-103.2 450,-125.2 550,-125.2 550,-103.2 450,-103.2"/>
<text text-anchor="start" x="453" y="-110.9" font-family="Helvetica,sans-Serif" font-size="11.00" fill="#000000">timestamp[29,6]</text>
<polygon fill="none" stroke="#000000" points="240,-81.2 240,-103.2 450,-103.2 450,-81.2 240,-81.2"/>
<text text-anchor="start" x="260" y="-88.3" font-family="Helvetica,sans-Serif" font-size="11.00" fill="#000000">alerts_deleted</text>
<polygon fill="none" stroke="#000000" points="450,-81.2 450,-103.2 550,-103.2 550,-81.2 450,-81.2"/>
<text text-anchor="start" x="452.9184" y="-88.9" font-family="Helvetica,sans-Serif" font-size="11.00" fill="#000000">_uuid[2147483647]</text>
<polygon fill="none" stroke="#000000" points="240,-59.2 240,-81.2 450,-81.2 450,-59.2 240,-59.2"/>
<text text-anchor="start" x="260" y="-66.3" font-family="Helvetica,sans-Serif" font-size="11.00" fill="#000000">alerts_created</text>
<polygon fill="none" stroke="#000000" points="450,-59.2 450,-81.2 550,-81.2 550,-59.2 450,-59.2"/>
<text text-anchor="start" x="452.9184" y="-66.9" font-family="Helvetica,sans-Serif" font-size="11.00" fill="#000000">_uuid[2147483647]</text>
<polygon fill="#ffffff" stroke="transparent" points="240,-40.2 240,-59.2 349,-59.2 349,-40.2 240,-40.2"/>
<polygon fill="none" stroke="#000000" points="240,-40.2 240,-59.2 349,-59.2 349,-40.2 240,-40.2"/>
<text text-anchor="start" x="243" y="-46.3" font-family="Helvetica,sans-Serif" font-size="11.00" fill="#000000">&lt; 1</text>
<polygon fill="#ffffff" stroke="transparent" points="349,-40.2 349,-59.2 450,-59.2 450,-40.2 349,-40.2"/>
<polygon fill="none" stroke="#000000" points="349,-40.2 349,-59.2 450,-59.2 450,-40.2 349,-40.2"/>
<text text-anchor="start" x="440.8862" y="-46.3" font-family="Helvetica,sans-Serif" font-size="11.00" fill="#000000"> &#160;</text>
<polygon fill="#ffffff" stroke="transparent" points="450,-40.2 450,-59.2 550,-59.2 550,-40.2 450,-40.2"/>
<polygon fill="none" stroke="#000000" points="450,-40.2 450,-59.2 550,-59.2 550,-40.2 450,-40.2"/>
<text text-anchor="start" x="531.4053" y="-46.3" font-family="Helvetica,sans-Serif" font-size="11.00" fill="#000000">0 &gt;</text>
<polygon fill="none" stroke="#000000" stroke-width="2" points="239,-39.2 239,-303.2 551,-303.2 551,-39.2 239,-39.2"/>
</a>
</g>
</g>
<!-- person_summary -->
<g id="node2" class="node">
<title>person_summary</title>
<g id="a_node2"><a xlink:href="../../tables/person_summary.html" xlink:title="person_summary" target="_top">
<polygon fill="#ffffff" stroke="transparent" points="8,-197.7 8,-280.7 189,-280.7 189,-197.7 8,-197.7"/>
<polygon fill="#f5f5f5" stroke="transparent" points="8.5,-257.2 8.5,-280.2 189.5,-280.2 189.5,-257.2 8.5,-257.2"/>
<polygon fill="none" stroke="#000000" points="8.5,-257.2 8.5,-280.2 189.5,-280.2 189.5,-257.2 8.5,-257.2"/>
<text text-anchor="start" x="13.5" y="-265.8" font-family="Helvetica,sans-Serif" font-weight="bold" font-size="11.00" fill="#000000">person_summary</text>
<text text-anchor="start" x="154.5437" y="-265.3" font-family="Helvetica,sans-Serif" font-size="11.00" fill="#000000">[table]</text>
<polygon fill="none" stroke="#000000" points="8.5,-235.2 8.5,-257.2 189.5,-257.2 189.5,-235.2 8.5,-235.2"/>
<image xlink:href="../../images/primaryKeys.png" width="11px" height="12px" preserveAspectRatio="xMinYMin meet" x="13.5" y="-252.2"/>
<text text-anchor="start" x="28.5" y="-242.3" font-family="Helvetica,sans-Serif" font-size="11.00" fill="#000000">prison_number</text>
<polygon fill="none" stroke="#000000" points="8.5,-216.2 8.5,-235.2 189.5,-235.2 189.5,-216.2 8.5,-216.2"/>
<text text-anchor="start" x="11.5" y="-222.3" font-family="Helvetica,sans-Serif" font-size="11.00" fill="#000000">...</text>
<polygon fill="#ffffff" stroke="transparent" points="8.5,-197.2 8.5,-216.2 88.5,-216.2 88.5,-197.2 8.5,-197.2"/>
<polygon fill="none" stroke="#000000" points="8.5,-197.2 8.5,-216.2 88.5,-216.2 88.5,-197.2 8.5,-197.2"/>
<text text-anchor="start" x="11.5" y="-203.3" font-family="Helvetica,sans-Serif" font-size="11.00" fill="#000000"> &#160;</text>
<polygon fill="#ffffff" stroke="transparent" points="88.5,-197.2 88.5,-216.2 134.5,-216.2 134.5,-197.2 88.5,-197.2"/>
<polygon fill="none" stroke="#000000" points="88.5,-197.2 88.5,-216.2 134.5,-216.2 134.5,-197.2 88.5,-197.2"/>
<text text-anchor="start" x="125.3862" y="-203.3" font-family="Helvetica,sans-Serif" font-size="11.00" fill="#000000"> &#160;</text>
<polygon fill="#ffffff" stroke="transparent" points="134.5,-197.2 134.5,-216.2 189.5,-216.2 189.5,-197.2 134.5,-197.2"/>
<polygon fill="none" stroke="#000000" points="134.5,-197.2 134.5,-216.2 189.5,-216.2 189.5,-197.2 134.5,-197.2"/>
<text text-anchor="start" x="170.9053" y="-203.3" font-family="Helvetica,sans-Serif" font-size="11.00" fill="#000000">3 &gt;</text>
</a>
</g>
</g>
<!-- resync_audit&#45;&gt;person_summary -->
<g id="edge1" class="edge">
<title>resync_audit:w&#45;&gt;person_summary:e</title>
<path fill="none" stroke="#000000" stroke-dasharray="5,2" d="M225.4203,-246.2C213.5435,-246.2 206.158,-246.2 189.5,-246.2"/>
<polygon fill="#000000" stroke="#000000" points="232,-246.2001 240,-249.8 236,-246.2 240,-246.2 240,-246.2 240,-246.2 236,-246.2 240,-242.6 232,-246.2001 232,-246.2001"/>
<ellipse fill="none" stroke="#000000" cx="228.8" cy="-246.2001" rx="3.2" ry="3.2"/>
</g>
</g>
</svg>
