<?xml version="1.0" encoding="UTF-8" standalone="no"?>
<!DOCTYPE svg PUBLIC "-//W3C//DTD SVG 1.1//EN"
 "http://www.w3.org/Graphics/SVG/1.1/DTD/svg11.dtd">
<!-- Generated by graphviz version 2.40.1 (20161225.0304)
 -->
<!-- Title: twoDegreesRelationshipsDiagramImplied Pages: 1 -->
<svg width="597pt" height="481pt"
 viewBox="0.00 0.00 597.00 480.70" xmlns="http://www.w3.org/2000/svg" xmlns:xlink="http://www.w3.org/1999/xlink">
<g id="graph0" class="graph" transform="scale(1 1) rotate(0) translate(4 476.7)">
<title>twoDegreesRelationshipsDiagramImplied</title>
<polygon fill="#ffffff" stroke="transparent" points="-4,4 -4,-476.7 593,-476.7 593,4 -4,4"/>
<text text-anchor="middle" x="72.4936" y="-7.3" font-family="Helvetica,sans-Serif" font-size="11.00" fill="#000000">Generated by SchemaSpy</text>
<!-- alert -->
<g id="node1" class="node">
<title>alert</title>
<g id="a_node1"><a xlink:href="../../tables/alert.html" xlink:title="alert" target="_top">
<polygon fill="#ffffff" stroke="transparent" points="380,-407.7 380,-468.7 453,-468.7 453,-407.7 380,-407.7"/>
<polygon fill="#f5f5f5" stroke="transparent" points="380.5,-445.2 380.5,-468.2 453.5,-468.2 453.5,-445.2 380.5,-445.2"/>
<polygon fill="none" stroke="#000000" points="380.5,-445.2 380.5,-468.2 453.5,-468.2 453.5,-445.2 380.5,-445.2"/>
<text text-anchor="start" x="385.5" y="-453.8" font-family="Helvetica,sans-Serif" font-weight="bold" font-size="11.00" fill="#000000">alert</text>
<text text-anchor="start" x="419.0219" y="-453.3" font-family="Helvetica,sans-Serif" font-size="11.00" fill="#000000">[table]</text>
<polygon fill="none" stroke="#000000" points="380.5,-426.2 380.5,-445.2 453.5,-445.2 453.5,-426.2 380.5,-426.2"/>
<text text-anchor="start" x="383.5" y="-432.3" font-family="Helvetica,sans-Serif" font-size="11.00" fill="#000000">...</text>
<polygon fill="#ffffff" stroke="transparent" points="380.5,-407.2 380.5,-426.2 453.5,-426.2 453.5,-407.2 380.5,-407.2"/>
<polygon fill="none" stroke="#000000" points="380.5,-407.2 380.5,-426.2 453.5,-426.2 453.5,-407.2 380.5,-407.2"/>
<polygon fill="#ffffff" stroke="transparent" points="381.5,-408.2 381.5,-425.2 408.5,-425.2 408.5,-408.2 381.5,-408.2"/>
<text text-anchor="start" x="383.5" y="-413.3" font-family="Helvetica,sans-Serif" font-size="11.00" fill="#000000">&lt; 2</text>
<polygon fill="#ffffff" stroke="transparent" points="408.5,-408.2 408.5,-425.2 426.5,-425.2 426.5,-408.2 408.5,-408.2"/>
<text text-anchor="start" x="414.4431" y="-413.3" font-family="Helvetica,sans-Serif" font-size="11.00" fill="#000000"> &#160;</text>
<polygon fill="#ffffff" stroke="transparent" points="426.5,-408.2 426.5,-425.2 452.5,-425.2 452.5,-408.2 426.5,-408.2"/>
<text text-anchor="start" x="434.9053" y="-413.3" font-family="Helvetica,sans-Serif" font-size="11.00" fill="#000000">1 &gt;</text>
<polygon fill="#000000" stroke="#000000" points="408.5,-408.2 408.5,-425.2 408.5,-425.2 408.5,-408.2 408.5,-408.2"/>
<polygon fill="#000000" stroke="#000000" points="426.5,-408.2 426.5,-425.2 426.5,-425.2 426.5,-408.2 426.5,-408.2"/>
</a>
</g>
</g>
<!-- person_summary -->
<g id="node2" class="node">
<title>person_summary</title>
<g id="a_node2"><a xlink:href="../../tables/person_summary.html" xlink:title="person_summary" target="_top">
<polygon fill="#ffffff" stroke="transparent" points="8,-304.7 8,-387.7 203,-387.7 203,-304.7 8,-304.7"/>
<polygon fill="#f5f5f5" stroke="transparent" points="8.5,-364.2 8.5,-387.2 203.5,-387.2 203.5,-364.2 8.5,-364.2"/>
<polygon fill="none" stroke="#000000" points="8.5,-364.2 8.5,-387.2 203.5,-387.2 203.5,-364.2 8.5,-364.2"/>
<text text-anchor="start" x="13.5" y="-372.8" font-family="Helvetica,sans-Serif" font-weight="bold" font-size="11.00" fill="#000000">person_summary</text>
<text text-anchor="start" x="168.5437" y="-372.3" font-family="Helvetica,sans-Serif" font-size="11.00" fill="#000000">[table]</text>
<polygon fill="none" stroke="#000000" points="8.5,-342.2 8.5,-364.2 203.5,-364.2 203.5,-342.2 8.5,-342.2"/>
<image xlink:href="../../images/primaryKeys.png" width="11px" height="12px" preserveAspectRatio="xMinYMin meet" x="13.5" y="-359.2"/>
<text text-anchor="start" x="28.5" y="-349.3" font-family="Helvetica,sans-Serif" font-size="11.00" fill="#000000">prison_number</text>
<polygon fill="none" stroke="#000000" points="8.5,-323.2 8.5,-342.2 203.5,-342.2 203.5,-323.2 8.5,-323.2"/>
<text text-anchor="start" x="11.5" y="-329.3" font-family="Helvetica,sans-Serif" font-size="11.00" fill="#000000">...</text>
<polygon fill="#ffffff" stroke="transparent" points="8.5,-304.2 8.5,-323.2 203.5,-323.2 203.5,-304.2 8.5,-304.2"/>
<polygon fill="none" stroke="#000000" points="8.5,-304.2 8.5,-323.2 203.5,-323.2 203.5,-304.2 8.5,-304.2"/>
<polygon fill="#ffffff" stroke="transparent" points="9.5,-305.2 9.5,-322.2 71.5,-322.2 71.5,-305.2 9.5,-305.2"/>
<text text-anchor="start" x="11.5" y="-310.3" font-family="Helvetica,sans-Serif" font-size="11.00" fill="#000000"> &#160;</text>
<polygon fill="#ffffff" stroke="transparent" points="71.5,-305.2 71.5,-322.2 132.5,-322.2 132.5,-305.2 71.5,-305.2"/>
<text text-anchor="start" x="98.9431" y="-310.3" font-family="Helvetica,sans-Serif" font-size="11.00" fill="#000000"> &#160;</text>
<polygon fill="#ffffff" stroke="transparent" points="132.5,-305.2 132.5,-322.2 202.5,-322.2 202.5,-305.2 132.5,-305.2"/>
<text text-anchor="start" x="184.9053" y="-310.3" font-family="Helvetica,sans-Serif" font-size="11.00" fill="#000000">3 &gt;</text>
<polygon fill="#000000" stroke="#000000" points="71.5,-305.2 71.5,-322.2 71.5,-322.2 71.5,-305.2 71.5,-305.2"/>
<polygon fill="#000000" stroke="#000000" points="132.5,-305.2 132.5,-322.2 132.5,-322.2 132.5,-305.2 132.5,-305.2"/>
</a>
</g>
</g>
<!-- alert&#45;&gt;person_summary -->
<g id="edge1" class="edge">
<title>alert:w&#45;&gt;person_summary:e</title>
<path fill="none" stroke="#000000" stroke-dasharray="5,2" d="M365.8314,-435.084C314.0478,-434.1717 293.3081,-427.3737 244,-397.2 221.3294,-383.3269 230.0786,-353.2 203.5,-353.2"/>
<polygon fill="#000000" stroke="#000000" points="372.5003,-435.1367 380.4715,-438.7999 376.5001,-435.1683 380.5,-435.2 380.5,-435.2 380.5,-435.2 376.5001,-435.1683 380.5285,-431.6001 372.5003,-435.1367 372.5003,-435.1367"/>
<ellipse fill="none" stroke="#000000" cx="369.3004" cy="-435.1113" rx="3.2" ry="3.2"/>
</g>
<!-- plan_person -->
<g id="node3" class="node">
<title>plan_person</title>
<g id="a_node3"><a xlink:href="../../tables/plan_person.html" xlink:title="plan_person" target="_top">
<polygon fill="#ffffff" stroke="transparent" points="353,-325.7 353,-386.7 480,-386.7 480,-325.7 353,-325.7"/>
<polygon fill="#f5f5f5" stroke="transparent" points="353.5,-363.2 353.5,-386.2 480.5,-386.2 480.5,-363.2 353.5,-363.2"/>
<polygon fill="none" stroke="#000000" points="353.5,-363.2 353.5,-386.2 480.5,-386.2 480.5,-363.2 353.5,-363.2"/>
<text text-anchor="start" x="358.5" y="-371.8" font-family="Helvetica,sans-Serif" font-weight="bold" font-size="11.00" fill="#000000">plan_person</text>
<text text-anchor="start" x="446.0219" y="-371.3" font-family="Helvetica,sans-Serif" font-size="11.00" fill="#000000">[table]</text>
<polygon fill="none" stroke="#000000" points="353.5,-344.2 353.5,-363.2 480.5,-363.2 480.5,-344.2 353.5,-344.2"/>
<text text-anchor="start" x="356.5" y="-350.3" font-family="Helvetica,sans-Serif" font-size="11.00" fill="#000000">...</text>
<polygon fill="#ffffff" stroke="transparent" points="353.5,-325.2 353.5,-344.2 480.5,-344.2 480.5,-325.2 353.5,-325.2"/>
<polygon fill="none" stroke="#000000" points="353.5,-325.2 353.5,-344.2 480.5,-344.2 480.5,-325.2 353.5,-325.2"/>
<polygon fill="#ffffff" stroke="transparent" points="354.5,-326.2 354.5,-343.2 402.5,-343.2 402.5,-326.2 354.5,-326.2"/>
<text text-anchor="start" x="356.5" y="-331.3" font-family="Helvetica,sans-Serif" font-size="11.00" fill="#000000">&lt; 2</text>
<polygon fill="#ffffff" stroke="transparent" points="402.5,-326.2 402.5,-343.2 441.5,-343.2 441.5,-326.2 402.5,-326.2"/>
<text text-anchor="start" x="418.9431" y="-331.3" font-family="Helvetica,sans-Serif" font-size="11.00" fill="#000000"> &#160;</text>
<polygon fill="#ffffff" stroke="transparent" points="441.5,-326.2 441.5,-343.2 479.5,-343.2 479.5,-326.2 441.5,-326.2"/>
<text text-anchor="start" x="471.3862" y="-331.3" font-family="Helvetica,sans-Serif" font-size="11.00" fill="#000000"> &#160;</text>
<polygon fill="#000000" stroke="#000000" points="402.5,-326.2 402.5,-343.2 402.5,-343.2 402.5,-326.2 402.5,-326.2"/>
<polygon fill="#000000" stroke="#000000" points="441.5,-326.2 441.5,-343.2 441.5,-343.2 441.5,-326.2 441.5,-326.2"/>
</a>
</g>
</g>
<!-- plan_person&#45;&gt;person_summary -->
<g id="edge2" class="edge">
<title>plan_person:w&#45;&gt;person_summary:e</title>
<path fill="none" stroke="#000000" d="M339.0918,-353.2C284.0042,-353.2 265.0885,-353.2 203.5,-353.2"/>
<polygon fill="#000000" stroke="#000000" points="345.5,-353.2001 353.5,-356.8 349.5,-353.2 353.5,-353.2 353.5,-353.2 353.5,-353.2 349.5,-353.2 353.5,-349.6 345.5,-353.2001 345.5,-353.2001"/>
<ellipse fill="none" stroke="#000000" cx="342.3" cy="-353.2001" rx="3.2" ry="3.2"/>
</g>
<!-- resync_audit -->
<g id="node4" class="node">
<title>resync_audit</title>
<g id="a_node4"><a xlink:href="../../tables/resync_audit.html" xlink:title="resync_audit" target="_top">
<polygon fill="#ffffff" stroke="transparent" points="252,-38.2 252,-304.2 581,-304.2 581,-38.2 252,-38.2"/>
<polygon fill="#f5f5f5" stroke="transparent" points="254.5,-279.2 254.5,-302.2 579.5,-302.2 579.5,-279.2 254.5,-279.2"/>
<polygon fill="none" stroke="#000000" points="254.5,-279.2 254.5,-302.2 579.5,-302.2 579.5,-279.2 254.5,-279.2"/>
<text text-anchor="start" x="259.5" y="-287.8" font-family="Helvetica,sans-Serif" font-weight="bold" font-size="11.00" fill="#000000">resync_audit</text>
<text text-anchor="start" x="544.5437" y="-287.3" font-family="Helvetica,sans-Serif" font-size="11.00" fill="#000000">[table]</text>
<polygon fill="none" stroke="#000000" points="254.5,-257.2 254.5,-279.2 479.5,-279.2 479.5,-257.2 254.5,-257.2"/>
<image xlink:href="../../images/primaryKeys.png" width="11px" height="12px" preserveAspectRatio="xMinYMin meet" x="259.5" y="-274.2"/>
<text text-anchor="start" x="274.5" y="-264.3" font-family="Helvetica,sans-Serif" font-size="11.00" fill="#000000">id</text>
<polygon fill="none" stroke="#000000" points="479.5,-257.2 479.5,-279.2 579.5,-279.2 579.5,-257.2 479.5,-257.2"/>
<text text-anchor="start" x="482.5" y="-264.9" font-family="Helvetica,sans-Serif" font-size="11.00" fill="#000000">bigserial[19]</text>
<polygon fill="#ffffff" stroke="transparent" points="254.5,-235.2 254.5,-257.2 479.5,-257.2 479.5,-235.2 254.5,-235.2"/>
<polygon fill="none" stroke="#000000" points="254.5,-235.2 254.5,-257.2 479.5,-257.2 479.5,-235.2 254.5,-235.2"/>
<image xlink:href="../../images/foreignKeys.png" width="11px" height="12px" preserveAspectRatio="xMinYMin meet" x="259.5" y="-252.2"/>
<text text-anchor="start" x="274.5" y="-242.3" font-family="Helvetica,sans-Serif" font-size="11.00" fill="#000000">prison_number</text>
<polygon fill="none" stroke="#000000" points="479.5,-235.2 479.5,-257.2 579.5,-257.2 579.5,-235.2 479.5,-235.2"/>
<text text-anchor="start" x="482.5" y="-242.9" font-family="Helvetica,sans-Serif" font-size="11.00" fill="#000000">varchar[10]</text>
<polygon fill="none" stroke="#000000" points="254.5,-213.2 254.5,-235.2 479.5,-235.2 479.5,-213.2 254.5,-213.2"/>
<text text-anchor="start" x="274.5" y="-220.3" font-family="Helvetica,sans-Serif" font-size="11.00" fill="#000000">request</text>
<polygon fill="none" stroke="#000000" points="479.5,-213.2 479.5,-235.2 579.5,-235.2 579.5,-213.2 479.5,-213.2"/>
<text text-anchor="start" x="482.5" y="-220.9" font-family="Helvetica,sans-Serif" font-size="11.00" fill="#000000">jsonb[2147483647]</text>
<polygon fill="none" stroke="#000000" points="254.5,-191.2 254.5,-213.2 479.5,-213.2 479.5,-191.2 254.5,-191.2"/>
<text text-anchor="start" x="274.5" y="-198.3" font-family="Helvetica,sans-Serif" font-size="11.00" fill="#000000">requested_at</text>
<polygon fill="none" stroke="#000000" points="479.5,-191.2 479.5,-213.2 579.5,-213.2 579.5,-191.2 479.5,-191.2"/>
<text text-anchor="start" x="482.5" y="-198.9" font-family="Helvetica,sans-Serif" font-size="11.00" fill="#000000">timestamp[29,6]</text>
<polygon fill="none" stroke="#000000" points="254.5,-169.2 254.5,-191.2 479.5,-191.2 479.5,-169.2 254.5,-169.2"/>
<text text-anchor="start" x="274.5" y="-176.3" font-family="Helvetica,sans-Serif" font-size="11.00" fill="#000000">requested_by</text>
<polygon fill="none" stroke="#000000" points="479.5,-169.2 479.5,-191.2 579.5,-191.2 579.5,-169.2 479.5,-169.2"/>
<text text-anchor="start" x="482.5" y="-176.9" font-family="Helvetica,sans-Serif" font-size="11.00" fill="#000000">varchar[64]</text>
<polygon fill="none" stroke="#000000" points="254.5,-147.2 254.5,-169.2 479.5,-169.2 479.5,-147.2 254.5,-147.2"/>
<text text-anchor="start" x="274.5" y="-154.3" font-family="Helvetica,sans-Serif" font-size="11.00" fill="#000000">requested_by_display_name</text>
<polygon fill="none" stroke="#000000" points="479.5,-147.2 479.5,-169.2 579.5,-169.2 579.5,-147.2 479.5,-147.2"/>
<text text-anchor="start" x="482.5" y="-154.9" font-family="Helvetica,sans-Serif" font-size="11.00" fill="#000000">varchar[255]</text>
<polygon fill="none" stroke="#000000" points="254.5,-125.2 254.5,-147.2 479.5,-147.2 479.5,-125.2 254.5,-125.2"/>
<text text-anchor="start" x="274.5" y="-132.3" font-family="Helvetica,sans-Serif" font-size="11.00" fill="#000000">source</text>
<polygon fill="none" stroke="#000000" points="479.5,-125.2 479.5,-147.2 579.5,-147.2 579.5,-125.2 479.5,-125.2"/>
<text text-anchor="start" x="482.5" y="-132.9" font-family="Helvetica,sans-Serif" font-size="11.00" fill="#000000">varchar[12]</text>
<polygon fill="none" stroke="#000000" points="254.5,-103.2 254.5,-125.2 479.5,-125.2 479.5,-103.2 254.5,-103.2"/>
<text text-anchor="start" x="274.5" y="-110.3" font-family="Helvetica,sans-Serif" font-size="11.00" fill="#000000">completed_at</text>
<polygon fill="none" stroke="#000000" points="479.5,-103.2 479.5,-125.2 579.5,-125.2 579.5,-103.2 479.5,-103.2"/>
<text text-anchor="start" x="482.5" y="-110.9" font-family="Helvetica,sans-Serif" font-size="11.00" fill="#000000">timestamp[29,6]</text>
<polygon fill="none" stroke="#000000" points="254.5,-81.2 254.5,-103.2 479.5,-103.2 479.5,-81.2 254.5,-81.2"/>
<text text-anchor="start" x="274.5" y="-88.3" font-family="Helvetica,sans-Serif" font-size="11.00" fill="#000000">alerts_deleted</text>
<polygon fill="none" stroke="#000000" points="479.5,-81.2 479.5,-103.2 579.5,-103.2 579.5,-81.2 479.5,-81.2"/>
<text text-anchor="start" x="482.4184" y="-88.9" font-family="Helvetica,sans-Serif" font-size="11.00" fill="#000000">_uuid[2147483647]</text>
<polygon fill="none" stroke="#000000" points="254.5,-59.2 254.5,-81.2 479.5,-81.2 479.5,-59.2 254.5,-59.2"/>
<text text-anchor="start" x="274.5" y="-66.3" font-family="Helvetica,sans-Serif" font-size="11.00" fill="#000000">alerts_created</text>
<polygon fill="none" stroke="#000000" points="479.5,-59.2 479.5,-81.2 579.5,-81.2 579.5,-59.2 479.5,-59.2"/>
<text text-anchor="start" x="482.4184" y="-66.9" font-family="Helvetica,sans-Serif" font-size="11.00" fill="#000000">_uuid[2147483647]</text>
<polygon fill="#ffffff" stroke="transparent" points="254.5,-40.2 254.5,-59.2 579.5,-59.2 579.5,-40.2 254.5,-40.2"/>
<polygon fill="none" stroke="#000000" points="254.5,-40.2 254.5,-59.2 579.5,-59.2 579.5,-40.2 254.5,-40.2"/>
<polygon fill="#ffffff" stroke="transparent" points="255.5,-41.2 255.5,-58.2 366.5,-58.2 366.5,-41.2 255.5,-41.2"/>
<text text-anchor="start" x="257.5" y="-46.3" font-family="Helvetica,sans-Serif" font-size="11.00" fill="#000000">&lt; 1</text>
<polygon fill="#ffffff" stroke="transparent" points="366.5,-41.2 366.5,-58.2 468.5,-58.2 468.5,-41.2 366.5,-41.2"/>
<text text-anchor="start" x="414.4431" y="-46.3" font-family="Helvetica,sans-Serif" font-size="11.00" fill="#000000"> &#160;</text>
<polygon fill="#ffffff" stroke="transparent" points="468.5,-41.2 468.5,-58.2 578.5,-58.2 578.5,-41.2 468.5,-41.2"/>
<text text-anchor="start" x="560.9053" y="-46.3" font-family="Helvetica,sans-Serif" font-size="11.00" fill="#000000">0 &gt;</text>
<polygon fill="#000000" stroke="#000000" points="366.5,-41.2 366.5,-58.2 366.5,-58.2 366.5,-41.2 366.5,-41.2"/>
<polygon fill="#000000" stroke="#000000" points="468.5,-41.2 468.5,-58.2 468.5,-58.2 468.5,-41.2 468.5,-41.2"/>
<polygon fill="none" stroke="#000000" stroke-width="2" points="253,-39.2 253,-303.2 580,-303.2 580,-39.2 253,-39.2"/>
</a>
</g>
</g>
<!-- resync_audit&#45;&gt;person_summary -->
<g id="edge3" class="edge">
<title>resync_audit:w&#45;&gt;person_summary:e</title>
<path fill="none" stroke="#000000" stroke-dasharray="5,2" d="M240.4064,-250.0082C212.7616,-269.0691 250.2134,-353.2 203.5,-353.2"/>
<polygon fill="#000000" stroke="#000000" points="246.777,-248.2869 255.4391,-249.6754 250.6385,-247.2434 254.5,-246.2 254.5,-246.2 254.5,-246.2 250.6385,-247.2434 253.5609,-242.7246 246.777,-248.2869 246.777,-248.2869"/>
<ellipse fill="none" stroke="#000000" cx="243.6878" cy="-249.1216" rx="3.2" ry="3.2"/>
</g>
</g>
</svg>
