<?xml version="1.0" encoding="UTF-8" standalone="no"?>
<!DOCTYPE svg PUBLIC "-//W3C//DTD SVG 1.1//EN"
 "http://www.w3.org/Graphics/SVG/1.1/DTD/svg11.dtd">
<!-- Generated by graphviz version 2.40.1 (20161225.0304)
 -->
<!-- Title: oneDegreeRelationshipsDiagram Pages: 1 -->
<svg width="338pt" height="316pt"
 viewBox="0.00 0.00 338.00 316.20" xmlns="http://www.w3.org/2000/svg" xmlns:xlink="http://www.w3.org/1999/xlink">
<g id="graph0" class="graph" transform="scale(1 1) rotate(0) translate(4 312.2)">
<title>oneDegreeRelationshipsDiagram</title>
<polygon fill="#ffffff" stroke="transparent" points="-4,4 -4,-312.2 334,-312.2 334,4 -4,4"/>
<text text-anchor="middle" x="72.4936" y="-7.3" font-family="Helvetica,sans-Serif" font-size="11.00" fill="#000000">Generated by SchemaSpy</text>
<!-- resync_audit -->
<g id="node1" class="node">
<title>resync_audit</title>
<g id="a_node1"><a xlink:href="../../tables/resync_audit.html" xlink:title="resync_audit" target="_top">
<polygon fill="#ffffff" stroke="transparent" points="8,-38.2 8,-304.2 322,-304.2 322,-38.2 8,-38.2"/>
<polygon fill="#f5f5f5" stroke="transparent" points="10,-279.2 10,-302.2 320,-302.2 320,-279.2 10,-279.2"/>
<polygon fill="none" stroke="#000000" points="10,-279.2 10,-302.2 320,-302.2 320,-279.2 10,-279.2"/>
<text text-anchor="start" x="15" y="-287.8" font-family="Helvetica,sans-Serif" font-weight="bold" font-size="11.00" fill="#000000">resync_audit</text>
<text text-anchor="start" x="285.0437" y="-287.3" font-family="Helvetica,sans-Serif" font-size="11.00" fill="#000000">[table]</text>
<polygon fill="none" stroke="#000000" points="10,-257.2 10,-279.2 220,-279.2 220,-257.2 10,-257.2"/>
<image xlink:href="../../images/primaryKeys.png" width="11px" height="12px" preserveAspectRatio="xMinYMin meet" x="15" y="-274.2"/>
<text text-anchor="start" x="30" y="-264.3" font-family="Helvetica,sans-Serif" font-size="11.00" fill="#000000">id</text>
<polygon fill="none" stroke="#000000" points="220,-257.2 220,-279.2 320,-279.2 320,-257.2 220,-257.2"/>
<text text-anchor="start" x="223" y="-264.9" font-family="Helvetica,sans-Serif" font-size="11.00" fill="#000000">bigserial[19]</text>
<polygon fill="#ffffff" stroke="transparent" points="10,-235.2 10,-257.2 220,-257.2 220,-235.2 10,-235.2"/>
<polygon fill="none" stroke="#000000" points="10,-235.2 10,-257.2 220,-257.2 220,-235.2 10,-235.2"/>
<image xlink:href="../../images/foreignKeys.png" width="11px" height="12px" preserveAspectRatio="xMinYMin meet" x="15" y="-252.2"/>
<text text-anchor="start" x="30" y="-242.3" font-family="Helvetica,sans-Serif" font-size="11.00" fill="#000000">prison_number</text>
<polygon fill="none" stroke="#000000" points="220,-235.2 220,-257.2 320,-257.2 320,-235.2 220,-235.2"/>
<text text-anchor="start" x="223" y="-242.9" font-family="Helvetica,sans-Serif" font-size="11.00" fill="#000000">varchar[10]</text>
<polygon fill="none" stroke="#000000" points="10,-213.2 10,-235.2 220,-235.2 220,-213.2 10,-213.2"/>
<text text-anchor="start" x="30" y="-220.3" font-family="Helvetica,sans-Serif" font-size="11.00" fill="#000000">request</text>
<polygon fill="none" stroke="#000000" points="220,-213.2 220,-235.2 320,-235.2 320,-213.2 220,-213.2"/>
<text text-anchor="start" x="223" y="-220.9" font-family="Helvetica,sans-Serif" font-size="11.00" fill="#000000">jsonb[2147483647]</text>
<polygon fill="none" stroke="#000000" points="10,-191.2 10,-213.2 220,-213.2 220,-191.2 10,-191.2"/>
<text text-anchor="start" x="30" y="-198.3" font-family="Helvetica,sans-Serif" font-size="11.00" fill="#000000">requested_at</text>
<polygon fill="none" stroke="#000000" points="220,-191.2 220,-213.2 320,-213.2 320,-191.2 220,-191.2"/>
<text text-anchor="start" x="223" y="-198.9" font-family="Helvetica,sans-Serif" font-size="11.00" fill="#000000">timestamp[29,6]</text>
<polygon fill="none" stroke="#000000" points="10,-169.2 10,-191.2 220,-191.2 220,-169.2 10,-169.2"/>
<text text-anchor="start" x="30" y="-176.3" font-family="Helvetica,sans-Serif" font-size="11.00" fill="#000000">requested_by</text>
<polygon fill="none" stroke="#000000" points="220,-169.2 220,-191.2 320,-191.2 320,-169.2 220,-169.2"/>
<text text-anchor="start" x="223" y="-176.9" font-family="Helvetica,sans-Serif" font-size="11.00" fill="#000000">varchar[64]</text>
<polygon fill="none" stroke="#000000" points="10,-147.2 10,-169.2 220,-169.2 220,-147.2 10,-147.2"/>
<text text-anchor="start" x="30" y="-154.3" font-family="Helvetica,sans-Serif" font-size="11.00" fill="#000000">requested_by_display_name</text>
<polygon fill="none" stroke="#000000" points="220,-147.2 220,-169.2 320,-169.2 320,-147.2 220,-147.2"/>
<text text-anchor="start" x="223" y="-154.9" font-family="Helvetica,sans-Serif" font-size="11.00" fill="#000000">varchar[255]</text>
<polygon fill="none" stroke="#000000" points="10,-125.2 10,-147.2 220,-147.2 220,-125.2 10,-125.2"/>
<text text-anchor="start" x="30" y="-132.3" font-family="Helvetica,sans-Serif" font-size="11.00" fill="#000000">source</text>
<polygon fill="none" stroke="#000000" points="220,-125.2 220,-147.2 320,-147.2 320,-125.2 220,-125.2"/>
<text text-anchor="start" x="223" y="-132.9" font-family="Helvetica,sans-Serif" font-size="11.00" fill="#000000">varchar[12]</text>
<polygon fill="none" stroke="#000000" points="10,-103.2 10,-125.2 220,-125.2 220,-103.2 10,-103.2"/>
<text text-anchor="start" x="30" y="-110.3" font-family="Helvetica,sans-Serif" font-size="11.00" fill="#000000">completed_at</text>
<polygon fill="none" stroke="#000000" points="220,-103.2 220,-125.2 320,-125.2 320,-103.2 220,-103.2"/>
<text text-anchor="start" x="223" y="-110.9" font-family="Helvetica,sans-Serif" font-size="11.00" fill="#000000">timestamp[29,6]</text>
<polygon fill="none" stroke="#000000" points="10,-81.2 10,-103.2 220,-103.2 220,-81.2 10,-81.2"/>
<text text-anchor="start" x="30" y="-88.3" font-family="Helvetica,sans-Serif" font-size="11.00" fill="#000000">alerts_deleted</text>
<polygon fill="none" stroke="#000000" points="220,-81.2 220,-103.2 320,-103.2 320,-81.2 220,-81.2"/>
<text text-anchor="start" x="222.9183" y="-88.9" font-family="Helvetica,sans-Serif" font-size="11.00" fill="#000000">_uuid[2147483647]</text>
<polygon fill="none" stroke="#000000" points="10,-59.2 10,-81.2 220,-81.2 220,-59.2 10,-59.2"/>
<text text-anchor="start" x="30" y="-66.3" font-family="Helvetica,sans-Serif" font-size="11.00" fill="#000000">alerts_created</text>
<polygon fill="none" stroke="#000000" points="220,-59.2 220,-81.2 320,-81.2 320,-59.2 220,-59.2"/>
<text text-anchor="start" x="222.9183" y="-66.9" font-family="Helvetica,sans-Serif" font-size="11.00" fill="#000000">_uuid[2147483647]</text>
<polygon fill="#ffffff" stroke="transparent" points="10,-40.2 10,-59.2 119,-59.2 119,-40.2 10,-40.2"/>
<polygon fill="none" stroke="#000000" points="10,-40.2 10,-59.2 119,-59.2 119,-40.2 10,-40.2"/>
<text text-anchor="start" x="13" y="-46.3" font-family="Helvetica,sans-Serif" font-size="11.00" fill="#000000">&lt; 0</text>
<polygon fill="#ffffff" stroke="transparent" points="119,-40.2 119,-59.2 220,-59.2 220,-40.2 119,-40.2"/>
<polygon fill="none" stroke="#000000" points="119,-40.2 119,-59.2 220,-59.2 220,-40.2 119,-40.2"/>
<text text-anchor="start" x="210.8862" y="-46.3" font-family="Helvetica,sans-Serif" font-size="11.00" fill="#000000"> &#160;</text>
<polygon fill="#ffffff" stroke="transparent" points="220,-40.2 220,-59.2 320,-59.2 320,-40.2 220,-40.2"/>
<polygon fill="none" stroke="#000000" points="220,-40.2 220,-59.2 320,-59.2 320,-40.2 220,-40.2"/>
<text text-anchor="start" x="301.4053" y="-46.3" font-family="Helvetica,sans-Serif" font-size="11.00" fill="#000000">0 &gt;</text>
<polygon fill="none" stroke="#000000" stroke-width="2" points="9,-39.2 9,-303.2 321,-303.2 321,-39.2 9,-39.2"/>
</a>
</g>
</g>
</g>
</svg>
